<?xml version="1.0" encoding="UTF-8" standalone="no"?>
<svg
   version="1.1"
   viewBox="0 0 16 16"
   id="svg30"
   sodipodi:docname="addToDictionary.svg"
   width="16"
   height="16"
   inkscape:version="1.3.2 (1:1.3.2+202311252150+091e20ef0f)"
   xmlns:inkscape="http://www.inkscape.org/namespaces/inkscape"
   xmlns:sodipodi="http://sodipodi.sourceforge.net/DTD/sodipodi-0.dtd"
   xmlns:xlink="http://www.w3.org/1999/xlink"
   xmlns="http://www.w3.org/2000/svg"
   xmlns:svg="http://www.w3.org/2000/svg">
  <sodipodi:namedview
     id="namedview30"
     pagecolor="#ffffff"
     bordercolor="#000000"
     borderopacity="0.25"
     inkscape:showpageshadow="2"
     inkscape:pageopacity="0.0"
     inkscape:pagecheckerboard="0"
     inkscape:deskcolor="#d1d1d1"
     inkscape:zoom="57.96875"
     inkscape:cx="6.6501348"
     inkscape:cy="13.722911"
     inkscape:window-width="3840"
     inkscape:window-height="2114"
     inkscape:window-x="3840"
     inkscape:window-y="0"
     inkscape:window-maximized="1"
     inkscape:current-layer="svg30" />
  <defs
     id="defs18">
    <linearGradient
       id="linearGradient112610">
      <stop
         stop-color="#fffb95"
         offset="0"
         id="stop1" />
      <stop
         stop-color="#ffd06a"
         offset="1"
         id="stop2" />
    </linearGradient>
    <linearGradient
       id="linearGradient2220">
      <stop
         stop-color="#fdbe5c"
         offset="0"
         id="stop3" />
      <stop
         stop-color="#f58432"
         offset="1"
         id="stop4" />
    </linearGradient>
    <linearGradient
       id="linearGradient2222"
       x1="-126.75"
       x2="-149.46001"
       y1="131.14999"
       y2="105.66"
       gradientTransform="translate(0.97234,-0.82527)"
       gradientUnits="userSpaceOnUse">
      <stop
         stop-color="#ffc863"
         offset="0"
         id="stop5" />
      <stop
         stop-color="#f26c21"
         offset="1"
         id="stop6" />
    </linearGradient>
    <linearGradient
       id="linearGradient12484"
       x1="-158.63"
       x2="-153.50999"
       y1="120.52"
       y2="120.52"
       gradientTransform="translate(0.97234,-0.82527)"
       gradientUnits="userSpaceOnUse">
      <stop
         stop-color="#fff58f"
         offset="0"
         id="stop7" />
      <stop
         stop-color="#f26c21"
         offset="1"
         id="stop8" />
    </linearGradient>
    <linearGradient
       id="linearGradient27369"
       x1="-155.99001"
       x2="-133.44"
       y1="102.25"
       y2="102.25"
       gradientTransform="translate(0.97234,-0.82527)"
       gradientUnits="userSpaceOnUse">
      <stop
         stop-color="#fffde6"
         offset="0"
         id="stop9" />
      <stop
         stop-color="#ffa"
         offset="1"
         id="stop10" />
    </linearGradient>
    <linearGradient
       id="linearGradient59198"
       x1="-151.42999"
       x2="-149.48"
       y1="104"
       y2="138.36"
       gradientTransform="translate(0.97234,-0.82527)"
       gradientUnits="userSpaceOnUse">
      <stop
         stop-color="#f93"
         offset="0"
         id="stop11" />
      <stop
         stop-color="#ffca64"
         offset="1"
         id="stop12" />
    </linearGradient>
    <linearGradient
       id="linearGradient77769"
       x1="-159.07001"
       x2="-125.43"
       y1="101.26"
       y2="101.26"
       gradientTransform="translate(0.97234,-0.82527)"
       gradientUnits="userSpaceOnUse">
      <stop
         stop-color="#fff698"
         offset="0"
         id="stop13" />
      <stop
         stop-color="#ffbb5b"
         offset="1"
         id="stop14" />
    </linearGradient>
    <linearGradient
       id="linearGradient112612"
       x1="-158.23"
       x2="-150.52"
       y1="111"
       y2="110.99"
       gradientUnits="userSpaceOnUse"
       xlink:href="#linearGradient112610" />
    <linearGradient
       id="linearGradient122893"
       x1="-156.97"
       x2="-149.39"
       y1="131.2"
       y2="131.2"
       gradientUnits="userSpaceOnUse"
       xlink:href="#linearGradient112610" />
    <linearGradient
       id="linearGradient125951"
       x1="-141.73"
       x2="-141.73"
       y1="115.1"
       y2="99.462997"
       gradientUnits="userSpaceOnUse"
       xlink:href="#linearGradient2220" />
    <linearGradient
       id="linearGradient184522"
       x1="-141.73"
       x2="-141.73"
       y1="115.1"
       y2="99.462997"
       gradientTransform="translate(-42.169,3.3777)"
       gradientUnits="userSpaceOnUse"
       xlink:href="#linearGradient2220" />
    <radialGradient
       id="radialGradient920"
       cx="94.334999"
       cy="90.473"
       r="1.5875"
       gradientTransform="matrix(-0.01395382,4.4687552,-4.4549769,-0.01390933,406.09955,-412.39055)"
       gradientUnits="userSpaceOnUse">
      <stop
         stop-color="#80e54d"
         offset="0"
         id="stop15" />
      <stop
         stop-color="#80e54d"
         offset=".36912"
         id="stop16" />
      <stop
         stop-color="#30a418"
         offset="1"
         id="stop17" />
    </radialGradient>
    <filter
       id="filter1149"
       x="-0.13729559"
       y="-0.1112014"
       width="1.2745912"
       height="1.2224028"
       color-interpolation-filters="sRGB">
      <feGaussianBlur
         stdDeviation="10.975363"
         id="feGaussianBlur17" />
    </filter>
    <filter
       id="filter1209"
       x="-0.12288062"
       y="-0.12288062"
       width="1.2457612"
       height="1.2457612"
       color-interpolation-filters="sRGB">
      <feGaussianBlur
         stdDeviation="6.3587645"
         id="feGaussianBlur18" />
    </filter>
    <filter
       inkscape:collect="always"
       style="color-interpolation-filters:sRGB"
       id="filter52"
       x="-0.16421528"
       y="-0.13305171"
       width="1.3284306"
       height="1.2661034">
      <feGaussianBlur
         inkscape:collect="always"
         stdDeviation="0.81106631"
         id="feGaussianBlur52" />
    </filter>
    <filter
       inkscape:collect="always"
       style="color-interpolation-filters:sRGB"
       id="filter54"
       x="-0.147"
       y="-0.147"
       width="1.294"
       height="1.294">
      <feGaussianBlur
         inkscape:collect="always"
         stdDeviation="0.47002197"
         id="feGaussianBlur54" />
    </filter>
  </defs>
  <path
     id="path49"
     style="color:#000000;fill:#000000;fill-opacity:1;stroke-linecap:round;stroke-linejoin:round;-inkscape-stroke:none;filter:url(#filter52);opacity:0.75"
     d="M 12.589969,0.50296263 4.2520782,1.8349939 A 0.24702019,0.24702019 0 0 0 4.1212188,1.915072 L 4.2403594,1.8389002 C 4.0649464,1.8744311 3.8973575,1.9372023 3.7852813,2.0947595 3.5829605,2.3399649 3.5340556,2.6527878 3.5118438,2.9131189 3.4892028,3.1784817 3.5059844,3.399447 3.5059844,3.399447 l 0.060547,0.9707032 v 0.015625 l 0.089844,1.4433593 0.3242187,5.2714835 0.076172,1.240235 0.091797,1.470703 c 0,0.253978 0.1418265,0.4663 0.3261718,0.636719 0.1843455,0.170419 0.4231678,0.312001 0.6914063,0.423828 0.532302,0.221913 1.1801545,0.328649 1.7480469,0.207031 a 0.24702019,0.24702019 0 0 0 0.015625,0.0039 C 7.0357664,15.0586 7.171062,15.0203 7.2970001,14.967806 l 0.015625,-0.0059 7.8769529,-2.785116 A 0.24702019,0.24702019 0 0 0 15.35364,11.938509 L 15.189578,1.5654626 A 0.24702019,0.24702019 0 0 0 14.904422,1.3252283 L 14.058719,1.4560876 C 13.592473,1.3819334 13.222814,1.2994986 12.875125,1.1826501 V 0.74515013 a 0.24702019,0.24702019 0 0 0 -0.285156,-0.2421875 z" />
  <g
     transform="matrix(0.3293271,0,0,0.3293271,65.230763,-32.645212)"
     id="g29">
    <path
       transform="translate(12.568)"
       d="m -173.63,99.877 -25.314,4.0469 -0.006,0.008 c -0.46563,0.0943 -0.78857,0.2419 -0.94531,0.47852 l -0.002,0.002 c -0.86139,1.0013 -0.6836,3.4648 -0.6836,3.4648 l 0.18555,3.0078 c -4.5e-4,-10e-4 -0.002,-0.003 -0.002,-0.004 l 0.27148,4.3867 0.98633,16.004 0.23242,3.7656 0.27734,4.5156 c 0,1.8988 4.504,3.7916 7.5274,3.123 v 0.006 c 0.29828,-0.0688 0.70269,-0.18621 1.0332,-0.32812 l 23.967,-8.4766 -0.5,-31.5 -2.707,0.41993 c -1.6683,-0.26346 -3.0397,-0.51521 -4.3203,-1.0059 z"
       fill="url(#linearGradient184522)"
       stroke="#ce451a"
       stroke-linecap="round"
       stroke-linejoin="round"
       stroke-width="1.5"
       id="path19"
       style="fill:url(#linearGradient184522)" />
    <g
       transform="translate(-29.601,3.3777)"
       id="g28">
      <path
         d="m -156.77,100.55 25.314,-4.0461 v 6.6747 l -25.531,5.5208 -0.43169,-7.2079 z"
         fill="url(#linearGradient125951)"
         id="path20"
         style="fill:url(#linearGradient125951)" />
      <path
         d="m -157.41,102.22 25,-4.2197 c 2,1 4.0244,1.2135 7.0545,1.6995 l -25.103,6.4752 -7,-2 z"
         fill="url(#linearGradient27369)"
         id="path21"
         style="fill:url(#linearGradient27369)" />
      <path
         d="m -148.46,139.17 -2,-36 26.028,-4.1747 0.5,31.5 z"
         fill="url(#linearGradient2222)"
         id="path22"
         style="fill:url(#linearGradient2222)" />
      <path
         d="m -148.46,139.17 -2,-36 c -4.539,1.2162 -7.7535,-1.1892 -6.4911,-2.5514 -1.7305,0.14389 -1.4606,3.8767 -1.4606,3.8767 l 1.9517,31.675 c 0,2 5,4 8,3 z"
         fill="url(#linearGradient12484)"
         id="path23"
         style="fill:url(#linearGradient12484)" />
      <path
         d="m -149.91,111 c -4.3501,0.0549 -7.8149,-1.9967 -8.3149,-3.4967 l 0.27032,4.3871 c 2,2.5 5.5446,2.6096 8.0446,2.6096 z"
         fill="url(#linearGradient112612)"
         id="path24"
         style="fill:url(#linearGradient112612)" />
      <path
         d="m -149.08,131.18 c -3.3558,0.32103 -6.7402,-0.8215 -7.8857,-3.2805 l 0.232,3.7652 c 1.0343,2.4916 5.1537,2.8424 7.6537,2.8424 z"
         fill="url(#linearGradient122893)"
         id="path25"
         style="fill:url(#linearGradient122893)" />
      <path
         d="m -150.46,103.18 c -0.27634,0.0147 -0.48818,0.25105 -0.47266,0.52734 l 1.9999,35.596 c 0.29828,-0.0688 0.70128,-0.18564 1.0318,-0.32755 l -1.938,-35.347 c -0.0147,-0.27634 -0.34482,-0.46495 -0.62111,-0.44943 z"
         color="#000000"
         fill="url(#linearGradient59198)"
         stroke-linecap="round"
         style="fill:url(#linearGradient59198);-inkscape-stroke:none"
         id="path26" />
      <path
         d="m -150.93,103.12 c -1.7461,0.46788 -2.9614,0.14736 -4.2451,-0.25383 -0.84273,-0.26338 -1.4499,-0.68409 -1.6702,-1.0357 -0.32303,-0.51555 0.27895,-1.2553 0.37886,-1.3299 -1.2837,0.17157 -1.6881,0.64495 -1.1284,1.8084 0.26818,0.55746 1.3799,1.1292 2.1552,1.3369 1.4815,0.39698 2.6731,0.57701 5.0934,0.0185 l 25.916,-4.6611 z"
         color="#000000"
         fill="url(#linearGradient77769)"
         stroke-linecap="round"
         style="fill:url(#linearGradient77769);-inkscape-stroke:none"
         id="path27" />
      <path
         d="m -143.91,108.5 0.11719,6 14,-3.5 -0.13779,-5.5 z"
         fill="#edffff"
         stroke="#ffcc66"
         stroke-width="1px"
         id="path28" />
    </g>
  </g>
  <path
     id="path53"
     style="color:#000000;fill:#000000;fill-opacity:1;stroke-linecap:round;-inkscape-stroke:none;filter:url(#filter54);opacity:0.75"
     d="M 4.2363906,7.826 5.3242813,8.0174062 H 4.6192031 4.4277969 v 0.1914063 z m 0,0 V 8.0174062 10.478344 H 1.586 v 2.371093 h 2.6503906 v 2.650391 H 6.6074844 V 12.849437 H 9.2598281 V 10.478344 H 6.6074844 V 7.826 Z" />
  <path
     d="m 3.9278267,7.51773 v 2.65125 H 1.276577 v 1.988406 h 2.6512497 v 2.65125 h 1.9884064 v -2.65125 H 8.5674828 V 10.16898 H 5.9162331 V 7.51773 Z"
     fill="url(#radialGradient920)"
     stroke="#067003"
     stroke-linecap="round"
     stroke-width="0.382729"
     id="path30"
     style="fill:url(#radialGradient920)" />
</svg>
