<?xml version="1.0" encoding="UTF-8" standalone="no"?>
<svg
   inkscape:export-ydpi="96"
   inkscape:export-xdpi="96"
   inkscape:export-filename="/media/klapeto/Αρχεία/WindowsXP Theme/Vectors/RASTER/index.png"
   sodipodi:docname="add-to-watch.svg"
   inkscape:version="1.2.2 (b0a8486541, 2022-12-01)"
   id="svg8"
   version="1.1"
   viewBox="0 0 16 16"
   height="16"
   width="16"
   xml:space="preserve"
   xmlns:inkscape="http://www.inkscape.org/namespaces/inkscape"
   xmlns:sodipodi="http://sodipodi.sourceforge.net/DTD/sodipodi-0.dtd"
   xmlns:xlink="http://www.w3.org/1999/xlink"
   xmlns="http://www.w3.org/2000/svg"
   xmlns:svg="http://www.w3.org/2000/svg"
   xmlns:rdf="http://www.w3.org/1999/02/22-rdf-syntax-ns#"
   xmlns:cc="http://creativecommons.org/ns#"
   xmlns:dc="http://purl.org/dc/elements/1.1/"><defs
     id="defs2"><linearGradient
       inkscape:collect="always"
       id="linearGradient2043"><stop
         style="stop-color:#99ccff;stop-opacity:1"
         offset="0"
         id="stop2039" /><stop
         style="stop-color:#ffffff;stop-opacity:1;"
         offset="1"
         id="stop2041" /></linearGradient><linearGradient
       inkscape:collect="always"
       xlink:href="#linearGradient2043"
       id="linearGradient2035"
       x1="24.567709"
       y1="36.264584"
       x2="20.067709"
       y2="29.5"
       gradientUnits="userSpaceOnUse" /><linearGradient
       inkscape:collect="always"
       xlink:href="#linearGradient2043"
       id="linearGradient2037"
       x1="40.067711"
       y1="35.5"
       x2="35.067711"
       y2="29"
       gradientUnits="userSpaceOnUse" /><filter
       inkscape:collect="always"
       style="color-interpolation-filters:sRGB"
       id="filter905"
       x="-0.10747133"
       y="-0.23252385"
       width="1.2149427"
       height="1.4650477"><feGaussianBlur
         inkscape:collect="always"
         stdDeviation="0.68278178"
         id="feGaussianBlur907" /></filter><linearGradient
       id="linearGradient855"
       inkscape:collect="always"><stop
         style="stop-color:#99ff66;stop-opacity:1"
         offset="0"
         id="stop853" /><stop
         id="stop924"
         offset="0.36911553"
         style="stop-color:#99ff66;stop-opacity:1" /><stop
         style="stop-color:#009900;stop-opacity:1"
         offset="1"
         id="stop851" /></linearGradient><radialGradient
       gradientTransform="matrix(-0.02181737,6.9874125,-6.9655578,-0.02174898,727.27302,-565.41201)"
       gradientUnits="userSpaceOnUse"
       r="1.5875"
       fy="90.472618"
       fx="94.334854"
       cy="90.472618"
       cx="94.334854"
       id="radialGradient920"
       xlink:href="#linearGradient855"
       inkscape:collect="always" /><filter
       inkscape:collect="always"
       style="color-interpolation-filters:sRGB"
       id="filter3"
       x="-0.1470003"
       y="-0.1469997"
       width="1.2940006"
       height="1.2939994"><feGaussianBlur
         inkscape:collect="always"
         stdDeviation="0.7350015"
         id="feGaussianBlur3" /></filter></defs><sodipodi:namedview
     inkscape:snap-global="true"
     inkscape:bbox-paths="false"
     fit-margin-bottom="0"
     fit-margin-right="0"
     fit-margin-left="0"
     fit-margin-top="0"
     inkscape:bbox-nodes="true"
     inkscape:snap-bbox="true"
     inkscape:window-maximized="1"
     inkscape:window-y="0"
     inkscape:window-x="1280"
     inkscape:window-height="2061"
     inkscape:window-width="3840"
     units="px"
     showgrid="true"
     inkscape:document-rotation="0"
     inkscape:current-layer="layer1"
     inkscape:document-units="px"
     inkscape:cy="17.484374"
     inkscape:cx="-6.6874998"
     inkscape:zoom="32.000001"
     inkscape:pageshadow="2"
     inkscape:pageopacity="0.0"
     borderopacity="1.0"
     bordercolor="#666666"
     pagecolor="#ffffff"
     id="base"
     showguides="false"
     inkscape:pagecheckerboard="0"
     inkscape:showpageshadow="2"
     inkscape:deskcolor="#d1d1d1"><inkscape:grid
       originy="0"
       originx="0"
       id="grid1504"
       type="xygrid"
       spacingy="1"
       spacingx="1"
       units="px"
       visible="true" /><inkscape:grid
       spacingy="0.5"
       spacingx="0.5"
       id="grid966"
       type="xygrid"
       originx="0"
       originy="0"
       units="px"
       visible="true" /></sodipodi:namedview><metadata
     id="metadata5"><rdf:RDF><cc:Work
         rdf:about=""><dc:format>image/svg+xml</dc:format><dc:type
           rdf:resource="http://purl.org/dc/dcmitype/StillImage" /></cc:Work></rdf:RDF></metadata><g
     transform="translate(-12.567709)"
     id="layer1"
     inkscape:groupmode="layer"
     inkscape:label="Layer 1"><path
       id="path143"
       style="color:#000000;opacity:0.75;fill:#000000;fill-opacity:1;stroke-linecap:round;-inkscape-stroke:none;filter:url(#filter905)"
       d="m 18.469464,8.0591507 c -0.247427,-0.00686 -0.501064,0.06035 -0.738281,0.2226563 l -3.761719,2.574218 a 0.375,0.375 0 0 0 -0.01172,0.01367 c -0.571027,0.430724 -0.943359,1.114145 -0.943359,1.88086 0,1.296226 1.059242,2.355467 2.355468,2.355468 1.296227,0 2.353516,-1.059242 2.353516,-2.355468 0,-0.132539 -0.01197,-0.261968 -0.0332,-0.388672 0.14584,-0.06183 0.399327,-0.126386 0.652344,-0.125 0.262723,0.0014 0.517592,0.07729 0.642578,0.134765 -0.02019,0.123556 -0.03125,0.249839 -0.03125,0.378907 0,1.296226 1.059242,2.355467 2.355469,2.355468 1.296226,0 2.355468,-1.059242 2.355468,-2.355468 0,-0.372293 -0.08691,-0.72535 -0.242187,-1.039063 l 2.990234,-2.0468746 c 0.570756,-0.390516 1.415607,0.5437146 0.982422,1.0546876 a 0.375,0.375 0 0 0 0.04297,0.529296 0.375,0.375 0 0 0 0.529297,-0.04492 c 0.739162,-0.871895 -0.03269,-2.1368315 -0.99805,-2.3496084 -0.321787,-0.070926 -0.664178,-0.025003 -0.980469,0.1914062 l -3.001953,2.0546872 c -0.427886,-0.434871 -1.022709,-0.705078 -1.677734,-0.705078 -0.89583,0 -1.678144,0.505668 -2.076172,1.246093 -0.268763,-0.121171 -0.577896,-0.152606 -0.886719,-0.154296 -0.31192,-0.0017 -0.626537,0.03026 -0.904297,0.148437 -0.319345,-0.590692 -0.883344,-1.030008 -1.554687,-1.18164 l 2.267578,-1.5527344 c 0.570754,-0.3905162 1.415605,0.543715 0.982422,1.0546878 a 0.375,0.375 0 0 0 0.04492,0.5292966 0.375,0.375 0 0 0 0.527344,-0.04492 c 0.739164,-0.871896 -0.03073,-2.1368325 -0.996094,-2.3496094 -0.08045,-0.017732 -0.161665,-0.028963 -0.24414,-0.03125 z" /><g
       id="g2793"
       transform="matrix(0.39601462,0,0,0.39601462,6.1832015,-0.37047515)"
       style="stroke-width:1.89387;stroke-dasharray:none"><path
         style="fill:none;stroke:#666699;stroke-width:1.89387;stroke-linecap:round;stroke-linejoin:miter;stroke-dasharray:none;stroke-opacity:1"
         d="m 19.567709,28.5 9.5,-6.5 c 2.317992,-1.585995 5.530331,1.94285 3.739064,4.055782"
         id="path1087"
         sodipodi:nodetypes="csc" /><circle
         style="opacity:1;fill:url(#linearGradient2035);fill-opacity:1;stroke:#666699;stroke-width:1.89387;stroke-linecap:round;stroke-linejoin:round;stroke-dasharray:none;stop-color:#000000"
         id="path399"
         cx="22.567709"
         cy="32.5"
         r="5" /><path
         style="fill:none;stroke:#666699;stroke-width:1.89387;stroke-linecap:round;stroke-linejoin:miter;stroke-dasharray:none;stroke-opacity:1"
         d="m 41.769724,29.504333 8.148538,-5.575315 c 2.317992,-1.585995 5.530331,1.94285 3.739064,4.055782"
         id="path1087-6"
         sodipodi:nodetypes="csc" /><circle
         style="opacity:1;fill:url(#linearGradient2037);fill-opacity:1;stroke:#666699;stroke-width:1.89387;stroke-linecap:round;stroke-linejoin:round;stroke-dasharray:none;stop-color:#000000"
         id="path399-3"
         cx="37.567711"
         cy="32.5"
         r="5" /><path
         style="fill:none;stroke:#666699;stroke-width:1.89387;stroke-linecap:butt;stroke-linejoin:miter;stroke-dasharray:none;stroke-opacity:1"
         d="M 27.509488,30.977782 C 28.567709,30 31.62593,30.022218 32.567709,31"
         id="path1085"
         sodipodi:nodetypes="cc" /></g><g
       transform="matrix(0.6480657,0,0,0.6480657,-40.438079,-58.420777)"
       id="layer1-3"
       inkscape:label="Layer 1"><path
         id="path2"
         style="color:#000000;opacity:0.75;fill:#000000;fill-opacity:1;stroke-linecap:round;-inkscape-stroke:none;filter:url(#filter3)"
         d="m 98.43755,91.136871 1.5,0.5 h -0.5 -0.5 v 0.5 z m 0,0 v 0.5 3.5 h -4 v 4 h 4 v 3.999999 l 4,-0.002 v -3.998049 h 4 v -4 h -4 v -4 z" /><path
         d="m 98.437754,91.136871 2e-4,3.999512 -4.000404,8.95e-4 v 2.999593 l 4.000404,-8.95e-4 -4.04e-4,4.000894 2.9996,-0.001 4e-4,-3.999404 4,4.05e-4 v -2.999593 l -4,-4.07e-4 -2e-4,-4 z"
         style="fill:url(#radialGradient920);fill-opacity:1;stroke:#006600;stroke-width:1;stroke-linecap:round;stroke-miterlimit:4;stroke-dasharray:none;stroke-opacity:1"
         id="rect849"
         sodipodi:nodetypes="ccccccccccccc" /></g></g></svg>
