<?xml version="1.0" encoding="UTF-8" standalone="no"?>
<svg
   sodipodi:docname="align-vertical-baseline.svg"
   inkscape:version="1.3.2 (1:1.3.2+202311252150+091e20ef0f)"
   id="svg8"
   version="1.1"
   viewBox="0 0 16 16"
   height="16"
   width="16"
   inkscape:export-filename="/media/klapeto/Αρχεία/WindowsXP Theme/Vectors/RASTER/align-vertical-baseline.png"
   inkscape:export-xdpi="96"
   inkscape:export-ydpi="96"
   xmlns:inkscape="http://www.inkscape.org/namespaces/inkscape"
   xmlns:sodipodi="http://sodipodi.sourceforge.net/DTD/sodipodi-0.dtd"
   xmlns="http://www.w3.org/2000/svg"
   xmlns:svg="http://www.w3.org/2000/svg"
   xmlns:rdf="http://www.w3.org/1999/02/22-rdf-syntax-ns#"
   xmlns:cc="http://creativecommons.org/ns#"
   xmlns:dc="http://purl.org/dc/elements/1.1/">
  <defs
     id="defs2" />
  <sodipodi:namedview
     inkscape:snap-global="true"
     inkscape:bbox-paths="true"
     fit-margin-bottom="0"
     fit-margin-right="0"
     fit-margin-left="0"
     fit-margin-top="0"
     inkscape:bbox-nodes="true"
     inkscape:snap-bbox="true"
     inkscape:window-maximized="1"
     inkscape:window-y="0"
     inkscape:window-x="0"
     inkscape:window-height="2058"
     inkscape:window-width="3840"
     units="px"
     showgrid="true"
     inkscape:document-rotation="0"
     inkscape:current-layer="layer1"
     inkscape:document-units="px"
     inkscape:cy="5.4469319"
     inkscape:cx="-1.2263883"
     inkscape:zoom="45.254834"
     inkscape:pageshadow="2"
     inkscape:pageopacity="0.0"
     borderopacity="1.0"
     bordercolor="#666666"
     pagecolor="#ffffff"
     id="base"
     showguides="false"
     inkscape:guide-bbox="true"
     inkscape:object-paths="false"
     inkscape:snap-midpoints="false"
     inkscape:snap-smooth-nodes="false"
     inkscape:snap-bbox-edge-midpoints="true"
     inkscape:pagecheckerboard="0"
     inkscape:showpageshadow="2"
     inkscape:deskcolor="#d1d1d1">
    <inkscape:grid
       originy="0"
       originx="0"
       id="grid1504"
       type="xygrid"
       spacingy="1"
       spacingx="1"
       units="px"
       visible="true" />
    <inkscape:grid
       spacingy="0.5"
       spacingx="0.5"
       id="grid1765"
       type="xygrid"
       originx="0"
       originy="0"
       units="px"
       visible="true" />
  </sodipodi:namedview>
  <metadata
     id="metadata5">
    <rdf:RDF>
      <cc:Work
         rdf:about="">
        <dc:format>image/svg+xml</dc:format>
        <dc:type
           rdf:resource="http://purl.org/dc/dcmitype/StillImage" />
      </cc:Work>
    </rdf:RDF>
  </metadata>
  <g
     transform="translate(-12.567709)"
     id="layer1"
     inkscape:groupmode="layer"
     inkscape:label="Layer 1">
    <path
       d="m 104.03905,159.00257 q -15.731272,13.89135 -28.242692,13.89135 -7.35966,0 -12.23543,-4.78378 -4.875777,-4.87577 -4.875777,-12.14344 0,-9.84353 8.463607,-17.66318 8.46361,-7.91163 36.890292,-20.97502 v -8.6476 q 0,-9.751551 -1.10395,-12.23543 -1.01198,-2.57588 -3.955822,-4.415794 -2.94386,-1.931917 -6.62369,-1.931917 -5.97972,0 -9.84354,2.667882 -2.39189,1.655923 -2.39189,3.863821 0,1.931904 2.57588,4.783778 3.49584,3.95581 3.49584,7.63564 0,4.5078 -3.40385,7.72764 -3.31184,3.12786 -8.73958,3.12786 -5.79574,0 -9.75155,-3.49584 -3.86382,-3.49584 -3.86382,-8.18762 0,-6.62369 5.24375,-12.603417 5.24376,-6.071718 14.62733,-9.291562 9.38356,-3.219857 19.50309,-3.219857 12.235432,0 19.319102,5.243763 7.17567,5.15176 9.29156,11.223478 1.28794,3.863825 1.28794,17.755175 v 33.39445 q 0,5.88773 0.45995,7.45165 0.45995,1.47193 1.37993,2.2079 0.92002,0.73596 2.11591,0.73596 2.39189,0 4.87577,-3.40383 l 2.75987,2.2079 q -4.59979,6.80768 -9.56755,9.93553 -4.87577,3.03586 -11.13148,3.03586 -7.35966,0 -11.49947,-3.40384 -4.13977,-3.49584 -5.05973,-10.48751 z m 0,-6.7157 v -28.79465 q -11.131492,6.53169 -16.559232,13.98335 -3.58784,4.96777 -3.58784,10.02753 0,4.2318 3.03587,7.45166 2.29988,2.48388 6.4397,2.48388 4.59978,0 10.671502,-5.15177 z"
       id="path1067"
       style="font-weight:bold;font-size:16px;line-height:1.25;font-family:'Times New Roman';-inkscape-font-specification:'Times New Roman, Bold';text-align:center;letter-spacing:0px;word-spacing:0px;text-anchor:middle;fill:#000000;fill-opacity:1;stroke-width:1" />
    <path
       d="M 187.56771,174.05491 159.785,110.30187 q -6.25571,-14.443333 -9.29156,-17.755173 -2.94387,-3.31185 -7.17567,-4.59979 v -3.40385 h 45.72187 v 3.40385 q -4.50778,0.18405 -6.3477,1.74791 -1.83991,1.56394 -1.83991,3.77183 0,3.49584 4.59978,13.799363 l 14.71932,33.67044 10.02753,-26.0348 q 5.42775,-13.89135 5.42775,-19.319103 0,-3.40384 -2.2999,-5.42774 -2.2079,-2.02391 -7.91163,-2.2079 v -3.40385 h 28.79467 v 3.40385 q -4.23181,0.45995 -6.89969,3.31185 -2.66787,2.75987 -8.92358,19.043113 l -24.56286,63.75304 q -9.29156,23.91889 -13.79936,29.43863 -6.3477,7.72764 -15.91526,7.72764 -7.63565,0 -12.41942,-4.41579 -4.69178,-4.32383 -4.69178,-10.48757 0,-5.3357 3.21984,-8.83159 3.31185,-3.49578 8.09563,-3.49578 4.59978,0 7.35966,2.94386 2.85187,2.94387 2.94386,9.10761 0.0919,3.49578 0.82793,4.50776 0.73597,1.01151 2.1159,1.01151 2.20789,0 4.69178,-2.66796 3.67983,-3.86376 8.6476,-17.66318 z"
       id="path1069"
       style="font-weight:bold;font-size:16px;line-height:1.25;font-family:'Times New Roman';-inkscape-font-specification:'Times New Roman, Bold';text-align:center;letter-spacing:0px;word-spacing:0px;text-anchor:middle;stroke-width:1" />
    <path
       sodipodi:nodetypes="cc"
       id="path1080"
       d="m 27.567709,10.5 h -14"
       style="fill:none;stroke:#000000;stroke-width:1;stroke-linecap:butt;stroke-linejoin:miter;stroke-miterlimit:4;stroke-dasharray:none;stroke-opacity:1" />
    <path
       d="m 17.774937,9.2602616 q -0.939018,0.8291914 -1.68584,0.8291914 -0.439307,0 -0.730347,-0.2855496 -0.291041,-0.2910404 -0.291041,-0.7248565 0,-0.587572 0.505203,-1.0543361 0.505203,-0.4722548 2.202025,-1.2520241 V 6.2565011 q 0,-0.5820814 -0.0659,-0.7303471 -0.06041,-0.1537573 -0.236128,-0.263584 -0.175722,-0.1153185 -0.395376,-0.1153185 -0.356936,0 -0.587572,0.1592491 -0.142775,0.098844 -0.142775,0.230636 0,0.1153177 0.153757,0.2855495 0.208671,0.236127 0.208671,0.4557804 0,0.2690757 -0.20318,0.4612718 -0.197687,0.1867057 -0.521676,0.1867057 -0.345954,0 -0.582081,-0.2086708 -0.230636,-0.2086706 -0.230636,-0.4887284 0,-0.3953761 0.313005,-0.7523132 0.313007,-0.3624281 0.873123,-0.5546244 0.560116,-0.1921971 1.164163,-0.1921971 0.730347,0 1.15318,0.3130065 0.428324,0.3075147 0.554624,0.6699428 0.07688,0.230636 0.07688,1.0598273 v 1.9933547 q 0,0.3514454 0.02746,0.4447978 0.02745,0.087861 0.08237,0.1317923 0.05492,0.04393 0.126302,0.04393 0.142774,0 0.29104,-0.2031786 l 0.16474,0.131792 q -0.274567,0.4063588 -0.571099,0.5930638 -0.29104,0.1812143 -0.664451,0.1812143 -0.439307,0 -0.686417,-0.2031794 Q 17.829853,9.6776025 17.77494,9.2602614 Z m 0,-0.4008681 v -1.718787 q -0.664452,0.3898844 -0.98844,0.8346828 -0.214162,0.2965322 -0.214162,0.5985554 0,0.2526011 0.181214,0.4447984 0.137283,0.1482658 0.384394,0.1482658 0.274566,0 0.636994,-0.3075154 z"
       id="path1067-3"
       style="font-weight:bold;font-size:16px;line-height:1.25;font-family:'Times New Roman';-inkscape-font-specification:'Times New Roman, Bold';text-align:center;letter-spacing:0px;word-spacing:0px;text-anchor:middle;fill:#000000;fill-opacity:1;stroke-width:0.059691" />
    <path
       d="M 23.3969,10.07298 21.738517,6.2674841 q -0.37341,-0.86214 -0.554623,-1.059828 -0.175725,-0.197688 -0.428325,-0.274566 v -0.20318 h 2.729193 v 0.20318 q -0.269075,0.01099 -0.378902,0.104334 -0.109826,0.09335 -0.109826,0.225145 0,0.208671 0.274566,0.823701 l 0.878614,2.009828 0.598555,-1.554048 q 0.323989,-0.829191 0.323989,-1.15318 0,-0.203179 -0.137284,-0.323988 -0.131792,-0.12081 -0.472254,-0.131792 v -0.20318 h 1.718788 v 0.20318 q -0.252602,0.02745 -0.411851,0.197688 -0.159248,0.16474 -0.532659,1.136706 L 23.770312,10.07298 q -0.554625,1.427747 -0.823701,1.757225 -0.378901,0.461271 -0.95,0.461271 -0.455782,0 -0.74133,-0.263584 -0.280058,-0.258095 -0.280058,-0.626015 0,-0.318494 0.192196,-0.527168 0.197688,-0.208667 0.483237,-0.208667 0.274567,0 0.439308,0.175722 0.170231,0.175725 0.175722,0.543645 0.0055,0.208667 0.04942,0.269074 0.04393,0.06038 0.126301,0.06038 0.131791,0 0.280058,-0.159255 0.219653,-0.230632 0.516185,-1.054335 z"
       id="path1069-6"
       style="font-weight:bold;font-size:16px;line-height:1.25;font-family:'Times New Roman';-inkscape-font-specification:'Times New Roman, Bold';text-align:center;letter-spacing:0px;word-spacing:0px;text-anchor:middle;stroke-width:0.059691" />
  </g>
</svg>
