<?xml version="1.0" encoding="UTF-8" standalone="no"?>
<svg
   sodipodi:docname="align-horizontal-baseline.svg"
   inkscape:version="1.3.2 (1:1.3.2+202311252150+091e20ef0f)"
   id="svg8"
   version="1.1"
   viewBox="0 0 16 16"
   height="16"
   width="16"
   inkscape:export-filename="align-horizontal-baseline.png"
   inkscape:export-xdpi="96"
   inkscape:export-ydpi="96"
   xmlns:inkscape="http://www.inkscape.org/namespaces/inkscape"
   xmlns:sodipodi="http://sodipodi.sourceforge.net/DTD/sodipodi-0.dtd"
   xmlns="http://www.w3.org/2000/svg"
   xmlns:svg="http://www.w3.org/2000/svg"
   xmlns:rdf="http://www.w3.org/1999/02/22-rdf-syntax-ns#"
   xmlns:cc="http://creativecommons.org/ns#"
   xmlns:dc="http://purl.org/dc/elements/1.1/">
  <defs
     id="defs2" />
  <sodipodi:namedview
     inkscape:snap-global="true"
     inkscape:bbox-paths="true"
     fit-margin-bottom="0"
     fit-margin-right="0"
     fit-margin-left="0"
     fit-margin-top="0"
     inkscape:bbox-nodes="true"
     inkscape:snap-bbox="true"
     inkscape:window-maximized="1"
     inkscape:window-y="0"
     inkscape:window-x="0"
     inkscape:window-height="2058"
     inkscape:window-width="3840"
     units="px"
     showgrid="true"
     inkscape:document-rotation="0"
     inkscape:current-layer="layer1"
     inkscape:document-units="px"
     inkscape:cy="7.6787377"
     inkscape:cx="6.9495338"
     inkscape:zoom="45.254834"
     inkscape:pageshadow="2"
     inkscape:pageopacity="0.0"
     borderopacity="1.0"
     bordercolor="#666666"
     pagecolor="#ffffff"
     id="base"
     showguides="false"
     inkscape:guide-bbox="true"
     inkscape:object-paths="false"
     inkscape:snap-midpoints="false"
     inkscape:snap-smooth-nodes="false"
     inkscape:snap-bbox-edge-midpoints="true"
     inkscape:pagecheckerboard="0"
     inkscape:showpageshadow="2"
     inkscape:deskcolor="#d1d1d1">
    <inkscape:grid
       originy="0"
       originx="0"
       id="grid1504"
       type="xygrid"
       spacingy="1"
       spacingx="1"
       units="px"
       visible="true" />
    <inkscape:grid
       spacingy="0.5"
       spacingx="0.5"
       id="grid1765"
       type="xygrid"
       originx="0"
       originy="0"
       units="px"
       visible="true" />
  </sodipodi:namedview>
  <metadata
     id="metadata5">
    <rdf:RDF>
      <cc:Work
         rdf:about="">
        <dc:format>image/svg+xml</dc:format>
        <dc:type
           rdf:resource="http://purl.org/dc/dcmitype/StillImage" />
      </cc:Work>
    </rdf:RDF>
  </metadata>
  <g
     transform="translate(-12.567709)"
     id="layer1"
     inkscape:groupmode="layer"
     inkscape:label="Layer 1">
    <path
       d="m 21.686787,5.5303514 q -0.939018,0.8291915 -1.68584,0.8291915 -0.439307,0 -0.730347,-0.2855497 -0.291041,-0.2910404 -0.291041,-0.7248565 0,-0.587572 0.505203,-1.0543361 0.505203,-0.4722548 2.202025,-1.252024 V 2.526591 q 0,-0.5820814 -0.0659,-0.7303471 -0.06041,-0.1537574 -0.236128,-0.2635841 -0.175722,-0.1153184 -0.395376,-0.1153184 -0.356936,0 -0.587572,0.1592491 -0.142775,0.098844 -0.142775,0.230636 0,0.1153177 0.153757,0.2855495 0.208671,0.236127 0.208671,0.4557804 0,0.2690757 -0.20318,0.4612718 -0.197687,0.1867057 -0.521676,0.1867057 -0.345954,0 -0.582081,-0.2086708 -0.230636,-0.2086706 -0.230636,-0.4887284 0,-0.3953761 0.313005,-0.7523132 Q 19.709903,1.3843934 20.270019,1.1921971 20.830135,1 21.434182,1 q 0.730347,0 1.15318,0.3130065 0.428324,0.3075147 0.554624,0.6699428 0.07688,0.230636 0.07688,1.0598273 v 1.9933546 q 0,0.3514454 0.02746,0.4447978 0.02745,0.087861 0.08237,0.1317923 0.05492,0.04393 0.126302,0.04393 0.142774,0 0.29104,-0.2031786 l 0.16474,0.131792 q -0.274567,0.4063588 -0.571099,0.5930638 -0.29104,0.1812142 -0.664451,0.1812142 -0.439307,0 -0.686417,-0.2031793 Q 21.741703,5.9476923 21.68679,5.5303512 Z m 0,-0.4008681 V 3.4106964 q -0.664452,0.3898843 -0.98844,0.8346827 -0.214162,0.2965322 -0.214162,0.5985554 0,0.2526011 0.181214,0.4447984 0.137283,0.1482658 0.384394,0.1482658 0.274566,0 0.636994,-0.3075154 z"
       id="path1067"
       style="font-weight:bold;font-size:16px;line-height:1.25;font-family:'Times New Roman';-inkscape-font-specification:'Times New Roman, Bold';text-align:center;letter-spacing:0px;word-spacing:0px;text-anchor:middle;fill:#000000;fill-opacity:1;stroke-width:0.059691" />
    <path
       d="M 21.209041,12.406564 19.550658,8.6010687 Q 19.177247,7.738929 18.996034,7.5412414 18.82031,7.3435531 18.567709,7.2666746 V 7.0634947 h 2.729193 v 0.2031799 q -0.269075,0.010988 -0.378902,0.1043346 -0.109826,0.093354 -0.109826,0.225145 0,0.2086711 0.274566,0.8237004 l 0.878614,2.0098284 0.598555,-1.5540481 q 0.323989,-0.8291911 0.323989,-1.1531801 0,-0.2031792 -0.137284,-0.3239883 Q 22.614822,7.2776571 22.27436,7.2666746 V 7.0634947 h 1.718788 v 0.2031799 q -0.252602,0.027455 -0.411851,0.1976882 -0.159248,0.16474 -0.532659,1.1367059 l -1.466186,3.8054953 q -0.554625,1.427747 -0.823701,1.757227 -0.378901,0.461272 -0.95,0.461272 -0.455781,0 -0.74133,-0.263584 -0.280058,-0.258095 -0.280058,-0.626016 0,-0.318494 0.192196,-0.527168 0.197688,-0.208667 0.483237,-0.208667 0.274567,0 0.439308,0.175722 0.170231,0.175724 0.175722,0.543644 0.0055,0.208668 0.04942,0.269074 0.04393,0.06038 0.126301,0.06038 0.131791,0 0.280058,-0.159254 0.219653,-0.230632 0.516185,-1.054336 z"
       id="path1069"
       style="font-weight:bold;font-size:16px;line-height:1.25;font-family:'Times New Roman';-inkscape-font-specification:'Times New Roman, Bold';text-align:center;letter-spacing:0px;word-spacing:0px;text-anchor:middle;stroke-width:0.059691" />
    <path
       sodipodi:nodetypes="cc"
       id="path1080"
       d="M 18.067709,1 V 15"
       style="fill:none;stroke:#000000;stroke-width:1;stroke-linecap:butt;stroke-linejoin:miter;stroke-miterlimit:4;stroke-dasharray:none;stroke-opacity:1" />
  </g>
</svg>
