<?xml version="1.0" encoding="UTF-8" standalone="no"?>
<svg
   inkscape:export-ydpi="96"
   inkscape:export-xdpi="96"
   inkscape:export-filename="file.png"
   width="16"
   height="16"
   viewBox="0 0 16 16"
   version="1.1"
   id="svg8"
   inkscape:version="1.2.2 (b0a8486541, 2022-12-01)"
   sodipodi:docname="android-file.svg"
   xmlns:inkscape="http://www.inkscape.org/namespaces/inkscape"
   xmlns:sodipodi="http://sodipodi.sourceforge.net/DTD/sodipodi-0.dtd"
   xmlns:xlink="http://www.w3.org/1999/xlink"
   xmlns="http://www.w3.org/2000/svg"
   xmlns:svg="http://www.w3.org/2000/svg"
   xmlns:rdf="http://www.w3.org/1999/02/22-rdf-syntax-ns#"
   xmlns:cc="http://creativecommons.org/ns#"
   xmlns:dc="http://purl.org/dc/elements/1.1/">
  <defs
     id="defs2">
    <linearGradient
       inkscape:collect="always"
       id="linearGradient33218">
      <stop
         style="stop-color:#ccd5ff;stop-opacity:1"
         offset="0"
         id="stop33214" />
      <stop
         style="stop-color:#aab3f5;stop-opacity:1"
         offset="1"
         id="stop33216" />
    </linearGradient>
    <linearGradient
       inkscape:collect="always"
       id="linearGradient19556">
      <stop
         style="stop-color:#a5bdee;stop-opacity:1"
         offset="0"
         id="stop19552" />
      <stop
         style="stop-color:#bac9f4;stop-opacity:1"
         offset="1"
         id="stop19554" />
    </linearGradient>
    <linearGradient
       inkscape:collect="always"
       id="linearGradient10735">
      <stop
         style="stop-color:#9dadd9;stop-opacity:1"
         offset="0"
         id="stop10731" />
      <stop
         style="stop-color:#8b8eb8;stop-opacity:1"
         offset="1"
         id="stop10733" />
    </linearGradient>
    <linearGradient
       inkscape:collect="always"
       id="linearGradient1920">
      <stop
         style="stop-color:#6e7bae;stop-opacity:1"
         offset="0"
         id="stop1916" />
      <stop
         style="stop-color:#87a9dc;stop-opacity:1"
         offset="1"
         id="stop1918" />
    </linearGradient>
    <linearGradient
       inkscape:collect="always"
       id="linearGradient1601">
      <stop
         style="stop-color:#0096fc;stop-opacity:1"
         offset="0"
         id="stop1597" />
      <stop
         style="stop-color:#0068ce;stop-opacity:1"
         offset="1"
         id="stop1599" />
    </linearGradient>
    <linearGradient
       inkscape:collect="always"
       id="linearGradient1562">
      <stop
         style="stop-color:#2da8ff;stop-opacity:1"
         offset="0"
         id="stop1558" />
      <stop
         style="stop-color:#74c0ff;stop-opacity:1"
         offset="1"
         id="stop1560" />
    </linearGradient>
    <linearGradient
       inkscape:collect="always"
       id="linearGradient861">
      <stop
         style="stop-color:#99ccff;stop-opacity:1;"
         offset="0"
         id="stop857" />
      <stop
         style="stop-color:#ffffff;stop-opacity:1"
         offset="1"
         id="stop859" />
    </linearGradient>
    <linearGradient
       inkscape:collect="always"
       xlink:href="#linearGradient1920"
       id="linearGradient1922"
       x1="-38.932289"
       y1="21.5"
       x2="-38.932289"
       y2="8"
       gradientUnits="userSpaceOnUse" />
    <linearGradient
       inkscape:collect="always"
       xlink:href="#linearGradient10735"
       id="linearGradient10737"
       x1="-37.932289"
       y1="22"
       x2="-28.932291"
       y2="22"
       gradientUnits="userSpaceOnUse" />
    <linearGradient
       inkscape:collect="always"
       xlink:href="#linearGradient19556"
       id="linearGradient19558"
       x1="-27.932291"
       y1="21"
       x2="-27.932291"
       y2="11.5"
       gradientUnits="userSpaceOnUse" />
    <linearGradient
       inkscape:collect="always"
       xlink:href="#linearGradient1562"
       id="linearGradient26952"
       gradientUnits="userSpaceOnUse"
       gradientTransform="matrix(1.5871812,0,0,1.5871812,-42.560746,7.9304953)"
       x1="8.0956125"
       y1="1.4187587"
       x2="7.2706113"
       y2="0.4584797" />
    <linearGradient
       inkscape:collect="always"
       xlink:href="#linearGradient861"
       id="linearGradient32816"
       x1="-28.683321"
       y1="21.127937"
       x2="-38.224697"
       y2="9.0368757"
       gradientUnits="userSpaceOnUse" />
    <linearGradient
       inkscape:collect="always"
       xlink:href="#linearGradient33218"
       id="linearGradient33220"
       x1="-30.932291"
       y1="11"
       x2="-28.932291"
       y2="11"
       gradientUnits="userSpaceOnUse" />
    <linearGradient
       inkscape:collect="always"
       xlink:href="#linearGradient1601"
       id="linearGradient57243"
       x1="-31.155609"
       y1="10.5"
       x2="-28.432291"
       y2="10.5"
       gradientUnits="userSpaceOnUse"
       gradientTransform="translate(0,-0.25000002)" />
    <filter
       inkscape:collect="always"
       style="color-interpolation-filters:sRGB"
       id="filter977"
       x="-0.16537497"
       y="-0.13229993"
       width="1.3307499"
       height="1.2645999">
      <feGaussianBlur
         inkscape:collect="always"
         stdDeviation="0.82687499"
         id="feGaussianBlur979" />
    </filter>
  </defs>
  <sodipodi:namedview
     inkscape:guide-bbox="true"
     showguides="true"
     id="base"
     pagecolor="#ffffff"
     bordercolor="#666666"
     borderopacity="1.0"
     inkscape:pageopacity="0.0"
     inkscape:pageshadow="2"
     inkscape:zoom="6.6202006"
     inkscape:cx="-53.699279"
     inkscape:cy="-27.265035"
     inkscape:document-units="px"
     inkscape:current-layer="layer1"
     inkscape:document-rotation="0"
     showgrid="false"
     units="px"
     inkscape:window-width="3840"
     inkscape:window-height="2061"
     inkscape:window-x="1280"
     inkscape:window-y="0"
     inkscape:window-maximized="1"
     inkscape:snap-bbox="true"
     inkscape:bbox-nodes="true"
     fit-margin-top="0"
     fit-margin-left="0"
     fit-margin-right="0"
     fit-margin-bottom="0"
     inkscape:bbox-paths="false"
     inkscape:pagecheckerboard="0"
     inkscape:showpageshadow="2"
     inkscape:deskcolor="#d1d1d1">
    <inkscape:grid
       type="xygrid"
       id="grid1504"
       originx="0"
       originy="0"
       spacingy="1"
       spacingx="1"
       units="px"
       visible="false" />
    <inkscape:grid
       type="xygrid"
       id="grid1507"
       spacingx="0.5"
       spacingy="0.5"
       originx="0"
       originy="0"
       units="px"
       visible="false" />
  </sodipodi:namedview>
  <metadata
     id="metadata5">
    <rdf:RDF>
      <cc:Work
         rdf:about="">
        <dc:format>image/svg+xml</dc:format>
        <dc:type
           rdf:resource="http://purl.org/dc/dcmitype/StillImage" />
      </cc:Work>
    </rdf:RDF>
  </metadata>
  <g
     inkscape:label="Layer 1"
     inkscape:groupmode="layer"
     id="layer1"
     transform="translate(-12.567709)">
    <path
       id="path327"
       style="opacity:0.75;fill:#000000;fill-opacity:1;fill-rule:evenodd;stroke-linecap:round;stroke-linejoin:round;filter:url(#filter977);stop-color:#000000"
       d="M 15.073209,0.50550002 V 15.0055 a 0.5,0.5 0 0 0 0.0625,0.22461 0.5,0.5 0 0 0 0.03516,0.05469 0.5,0.5 0 0 0 0.121093,0.123047 0.5,0.5 0 0 0 0.05664,0.03711 0.5,0.5 0 0 0 0.224609,0.06055 h 11 a 0.5,0.5 0 0 0 0.5,-0.5 v -11 a 0.5,0.5 0 0 0 -0.01367,-0.1152344 0.5,0.5 0 0 0 0,-0.00195 0.5,0.5 0 0 0 -0.01367,-0.042969 0.5,0.5 0 0 0 -0.0059,-0.017578 0.5,0.5 0 0 0 -0.0098,-0.025391 0.5,0.5 0 0 0 -0.002,-0.00391 0.5,0.5 0 0 0 -0.01953,-0.037109 0.5,0.5 0 0 0 -0.002,-0.00195 0.5,0.5 0 0 0 -0.01172,-0.023437 0.5,0.5 0 0 0 -0.0098,-0.013672 0.5,0.5 0 0 0 -0.0039,-0.00391 0.5,0.5 0 0 0 -0.04297,-0.052734 L 24.456022,0.68518752 a 0.5,0.5 0 0 0 -0.121094,-0.1015625 0.5,0.5 0 0 0 -0.03516,-0.0175781 0.5,0.5 0 0 0 -0.212891,-0.0566406 0.5,0.5 0 0 0 -0.01367,-0.003906 z" />
    <g
       id="g66635"
       transform="translate(54.005865,-7.4946405)">
      <path
         id="rect32383"
         style="fill:url(#linearGradient32816);fill-opacity:1;fill-rule:evenodd;stroke-linecap:round;stroke-linejoin:round;stop-color:#000000"
         d="m -38.932289,8 h 8.504071 l 2.495929,3.120377 V 22 h -11 z"
         sodipodi:nodetypes="cccccc" />
      <path
         style="fill:url(#linearGradient26952);fill-opacity:1;stroke:none;stroke-width:0.419942px;stroke-linecap:butt;stroke-linejoin:miter;stroke-opacity:1"
         d="M -31.432291,8.1404667 V 11 h 3.499999 L -31.01235,8.1404667 Z"
         id="path1548-1-7"
         sodipodi:nodetypes="ccccc" />
      <path
         style="fill:none;stroke:url(#linearGradient57243);stroke-width:0.5;stroke-linecap:butt;stroke-linejoin:miter;stroke-miterlimit:4;stroke-dasharray:none;stroke-opacity:1"
         d="m -31.432291,10.25 h 3"
         id="path57178" />
      <path
         style="fill:#aab3f5;fill-opacity:1;stroke:url(#linearGradient33220);stroke-width:1px;stroke-linecap:butt;stroke-linejoin:miter;stroke-opacity:1"
         d="m -27.932291,11 h -3.5"
         id="path33155"
         sodipodi:nodetypes="cc" />
      <path
         style="fill:none;stroke:url(#linearGradient19558);stroke-width:1px;stroke-linecap:round;stroke-linejoin:miter;stroke-opacity:1"
         d="M -27.932291,22 V 11"
         id="path1357"
         sodipodi:nodetypes="cc" />
      <path
         style="fill:none;stroke:url(#linearGradient10737);stroke-width:1px;stroke-linecap:round;stroke-linejoin:miter;stroke-opacity:1"
         d="m -38.932291,22 h 11"
         id="path1355"
         sodipodi:nodetypes="cc" />
      <path
         style="fill:none;stroke:url(#linearGradient1922);stroke-width:1px;stroke-linecap:round;stroke-linejoin:miter;stroke-opacity:1"
         d="m -30.432291,8 h -8.5 v 14"
         id="path1225"
         sodipodi:nodetypes="ccc" />
      <path
         style="fill:none;stroke:#87a9dc;stroke-width:1px;stroke-linecap:round;stroke-linejoin:miter;stroke-opacity:1"
         d="m -30.432291,8 2.5,3"
         id="path1359"
         sodipodi:nodetypes="cc" />
    </g>
    <path
       id="path1504"
       style="color:#000000;opacity:1;fill:#0099ff;fill-opacity:1;stroke:none;stroke-width:0.335;stroke-dasharray:none"
       d="m 19.646826,4.6081506 c -0.03788,2.21e-4 -0.07619,0.00982 -0.111328,0.029297 -0.11245,0.062334 -0.154127,0.2059065 -0.0918,0.3183593 l 0.255859,0.4609375 c -0.612789,0.3788883 -1.019531,1.0248152 -1.019531,1.7636719 0,0.0059 -5.2e-5,0.011686 0,0.017578 -1.7e-5,0.00199 0,0.00387 0,0.00586 V 7.3210412 C 18.562559,7.1842876 18.389682,7.0964318 18.195654,7.0964318 c -0.353856,0 -0.640625,0.288722 -0.640625,0.6425781 v 1.9746094 c 0,0.3538567 0.286769,0.6406257 0.640625,0.6406257 0.194028,0 0.366905,-0.08643 0.484375,-0.222657 v 0.279297 c 0,0.373006 0.304728,0.677735 0.677735,0.677735 h 0.171875 v 0.878906 c 0,0.353856 0.286768,0.640625 0.640625,0.640625 0.353855,0 0.642578,-0.286769 0.642578,-0.640625 V 11.08862 h 0.296875 v 0.878906 c 0,0.353857 0.288721,0.640625 0.642578,0.640625 0.353855,0 0.640625,-0.286768 0.640625,-0.640625 V 11.08862 h 0.171875 c 0.373006,0 0.679687,-0.304729 0.679687,-0.677735 v -0.27539 c 0.117616,0.134558 0.289922,0.21875 0.482422,0.21875 0.353856,0 0.640625,-0.286769 0.640625,-0.6406257 V 7.7390099 c 0,-0.353856 -0.286769,-0.6425781 -0.640625,-0.6425781 -0.19265,0 -0.364801,0.085962 -0.482422,0.2207031 V 7.2038537 c 0,-0.00332 4.8e-5,-0.00646 0,-0.00977 3.2e-5,-0.00458 0,-0.00908 0,-0.013672 0,-0.7388567 -0.408695,-1.3847836 -1.021484,-1.7636719 l 0.255859,-0.460933 c 0.06233,-0.1124529 0.02065,-0.256026 -0.0918,-0.3183593 -0.112453,-0.062334 -0.256025,-0.020656 -0.318359,0.091797 l -0.267575,0.4824217 c -0.260514,-0.096104 -0.543929,-0.1503906 -0.839844,-0.1503906 -0.295915,0 -0.57933,0.054287 -0.839844,0.1503906 L 19.853857,4.7292443 C 19.811003,4.651933 19.730166,4.6076644 19.646826,4.6081506 Z" />
    <use
       id="use2989"
       xlink:href="#b"
       style="fill:#a40039;fill-opacity:1;stroke:#000000;stroke-width:14.4;stroke-opacity:1"
       x="0"
       y="0"
       width="1"
       height="1" />
    <use
       style="fill:#a40039;fill-opacity:1;stroke:#000000;stroke-opacity:1"
       id="use2991"
       transform="matrix(-0.99999996,0,0,0.99999996,41.202566,2.3878717e-6)"
       xlink:href="#a"
       x="0"
       y="0"
       width="1"
       height="1" />
    <g
       id="a"
       style="fill:#a4c639;stroke:#000000;stroke-width:7.2;stroke-opacity:1"
       transform="matrix(0.02323705,0,0,0.02323705,20.601284,5.8051244)">
      <rect
         id="rect2994"
         x="14"
         y="-86"
         width="13"
         height="86"
         transform="rotate(29)"
         rx="6.5"
         style="stroke:#000000;stroke-opacity:1" />
      <rect
         x="-143"
         y="41"
         width="48"
         height="133"
         rx="24"
         id="c"
         style="stroke:#000000;stroke-opacity:1" />
      <use
         id="use2997"
         xlink:href="#c"
         x="85"
         y="97"
         width="1"
         height="1"
         style="stroke:#000000;stroke-opacity:1" />
    </g>
    <g
       style="fill:#a4c639;fill-opacity:1;stroke:#000000;stroke-opacity:1"
       id="b"
       transform="matrix(0.02323705,0,0,0.02323705,20.601284,5.8051244)">
      <ellipse
         id="ellipse3000"
         ry="84"
         rx="91"
         cy="41"
         cx="0"
         style="fill:#a4c639;fill-opacity:1;stroke:#000000;stroke-opacity:1" />
      <path
         id="rect3002"
         d="m 91,42 v 138 c 0,12.188 -9.812,22 -22,22 H -69 c -12.188,0 -22,-9.812 -22,-22 V 42 Z"
         sodipodi:nodetypes="csssscc" />
    </g>
    <path
       style="fill:#ffffff;stroke:#000000;stroke-width:0.167307;stroke-opacity:1"
       id="path3006"
       d="m 18.393762,6.8391744 h 4.415043"
       inkscape:connector-curvature="0" />
    <circle
       style="fill:#ffffff;stroke:#000000;stroke-width:0.167307;stroke-opacity:1"
       id="circle3008"
       r="0.092948183"
       cx="19.625334"
       cy="5.8051214" />
    <circle
       style="fill:#ffffff;stroke:#000000;stroke-width:0.167307;stroke-opacity:1"
       id="circle3010"
       r="0.092948183"
       cx="21.577242"
       cy="5.8051214" />
  </g>
</svg>
