<?xml version="1.0" encoding="UTF-8" standalone="no"?>
<svg
   inkscape:export-ydpi="96"
   inkscape:export-xdpi="96"
   inkscape:export-filename="/media/klapeto/Αρχεία/WindowsXP Theme/Vectors/RASTER/code-context.png"
   width="16"
   height="16"
   viewBox="0 0 16 16"
   version="1.1"
   id="svg8"
   inkscape:version="1.2.2 (b0a8486541, 2022-12-01)"
   sodipodi:docname="brackets.svg"
   xmlns:inkscape="http://www.inkscape.org/namespaces/inkscape"
   xmlns:sodipodi="http://sodipodi.sourceforge.net/DTD/sodipodi-0.dtd"
   xmlns:xlink="http://www.w3.org/1999/xlink"
   xmlns="http://www.w3.org/2000/svg"
   xmlns:svg="http://www.w3.org/2000/svg"
   xmlns:rdf="http://www.w3.org/1999/02/22-rdf-syntax-ns#"
   xmlns:cc="http://creativecommons.org/ns#"
   xmlns:dc="http://purl.org/dc/elements/1.1/">
  <defs
     id="defs2">
    <linearGradient
       inkscape:collect="always"
       id="linearGradient4">
      <stop
         style="stop-color:#0066cc;stop-opacity:1"
         offset="0"
         id="stop3" />
      <stop
         style="stop-color:#0099ff;stop-opacity:1"
         offset="1"
         id="stop4" />
    </linearGradient>
    <linearGradient
       inkscape:collect="always"
       id="linearGradient1050">
      <stop
         style="stop-color:#0068e5;stop-opacity:1"
         offset="0"
         id="stop1046" />
      <stop
         style="stop-color:#8098ff;stop-opacity:1"
         offset="1"
         id="stop1048" />
    </linearGradient>
    <linearGradient
       inkscape:collect="always"
       xlink:href="#linearGradient1050"
       id="linearGradient1052"
       x1="-87.407677"
       y1="213.56934"
       x2="-87.407677"
       y2="198.56152"
       gradientUnits="userSpaceOnUse" />
    <linearGradient
       inkscape:collect="always"
       xlink:href="#linearGradient4"
       id="linearGradient1"
       gradientUnits="userSpaceOnUse"
       x1="-87.407677"
       y1="213.56934"
       x2="-87.407677"
       y2="198.56152" />
    <linearGradient
       inkscape:collect="always"
       xlink:href="#linearGradient1050"
       id="linearGradient2"
       gradientUnits="userSpaceOnUse"
       x1="-87.407677"
       y1="213.56934"
       x2="-87.407677"
       y2="198.56152" />
    <linearGradient
       inkscape:collect="always"
       xlink:href="#linearGradient4"
       id="linearGradient3"
       gradientUnits="userSpaceOnUse"
       x1="-87.407677"
       y1="213.56934"
       x2="-87.407677"
       y2="198.56152" />
    <filter
       inkscape:collect="always"
       style="color-interpolation-filters:sRGB"
       id="filter940"
       x="-inf"
       y="-inf"
       width="inf"
       height="inf">
      <feGaussianBlur
         inkscape:collect="always"
         stdDeviation="0.75099541"
         id="feGaussianBlur942" />
    </filter>
    <linearGradient
       inkscape:collect="always"
       xlink:href="#linearGradient1050"
       id="linearGradient340"
       gradientUnits="userSpaceOnUse"
       x1="-87.407677"
       y1="213.56934"
       x2="-87.407677"
       y2="198.56152"
       gradientTransform="matrix(0.844005,0,0,0.844005,94.15927,-165.95041)" />
    <filter
       inkscape:collect="always"
       style="color-interpolation-filters:sRGB"
       id="filter1244"
       x="-0.45273183"
       y="-0.14237658"
       width="1.9054637"
       height="1.2847532">
      <feGaussianBlur
         inkscape:collect="always"
         stdDeviation="0.76634274"
         id="feGaussianBlur1246" />
    </filter>
    <filter
       inkscape:collect="always"
       style="color-interpolation-filters:sRGB"
       id="filter1248"
       x="-0.45294445"
       y="-0.14237671"
       width="1.9058889"
       height="1.2847534">
      <feGaussianBlur
         inkscape:collect="always"
         stdDeviation="0.76634274"
         id="feGaussianBlur1250" />
    </filter>
  </defs>
  <sodipodi:namedview
     inkscape:snap-bbox-edge-midpoints="true"
     inkscape:snap-smooth-nodes="false"
     inkscape:snap-midpoints="false"
     inkscape:object-paths="false"
     inkscape:guide-bbox="true"
     showguides="true"
     id="base"
     pagecolor="#ffffff"
     bordercolor="#666666"
     borderopacity="1.0"
     inkscape:pageopacity="0.0"
     inkscape:pageshadow="2"
     inkscape:zoom="90.509668"
     inkscape:cx="0"
     inkscape:cy="7.3307086"
     inkscape:document-units="px"
     inkscape:current-layer="layer1"
     inkscape:document-rotation="0"
     showgrid="true"
     units="px"
     inkscape:window-width="3840"
     inkscape:window-height="2061"
     inkscape:window-x="1280"
     inkscape:window-y="0"
     inkscape:window-maximized="1"
     inkscape:snap-bbox="true"
     inkscape:bbox-nodes="true"
     fit-margin-top="0"
     fit-margin-left="0"
     fit-margin-right="0"
     fit-margin-bottom="0"
     inkscape:bbox-paths="true"
     inkscape:snap-global="true"
     inkscape:pagecheckerboard="0"
     inkscape:showpageshadow="2"
     inkscape:deskcolor="#d1d1d1">
    <inkscape:grid
       type="xygrid"
       id="grid1504"
       originx="0"
       originy="0"
       spacingy="1"
       spacingx="1"
       units="px"
       visible="true" />
    <inkscape:grid
       type="xygrid"
       id="grid1765"
       spacingx="0.5"
       spacingy="0.5"
       originx="0"
       originy="0"
       units="px"
       visible="true" />
  </sodipodi:namedview>
  <metadata
     id="metadata5">
    <rdf:RDF>
      <cc:Work
         rdf:about="">
        <dc:format>image/svg+xml</dc:format>
        <dc:type
           rdf:resource="http://purl.org/dc/dcmitype/StillImage" />
      </cc:Work>
    </rdf:RDF>
  </metadata>
  <g
     inkscape:label="Layer 1"
     inkscape:groupmode="layer"
     id="layer1"
     transform="translate(-12.567709)">
    <path
       id="path578"
       style="color:#000000;-inkscape-font-specification:'Microsoft Sans Serif Bold';opacity:0.75;fill:#000000;fill-opacity:1;stroke-width:0.25;-inkscape-stroke:none;filter:url(#filter1244)"
       d="m 23.057898,2.0412226 v 0.125 1.1542969 h 0.330079 c 0.217566,0 0.385221,0.029525 0.501953,0.080078 0.116732,0.050553 0.183087,0.1151258 0.220703,0.2050782 v 0.00195 c 0.03931,0.090086 0.08344,0.3099014 0.109375,0.6308593 0.02594,0.3209579 0.03906,0.7475105 0.03906,1.2773438 0,0.9648428 0.122751,1.6789641 0.392578,2.1523438 0.232147,0.4072773 0.617697,0.6564802 1.058594,0.8359374 -0.439808,0.1762083 -0.826887,0.4216204 -1.058594,0.828125 -0.269827,0.4733797 -0.392578,1.187501 -0.392578,2.152344 0,0.529833 -0.01313,0.956385 -0.03906,1.277344 -0.02594,0.320957 -0.07006,0.540773 -0.109375,0.630859 v 0.002 c -0.03762,0.08995 -0.103971,0.154525 -0.220703,0.205078 -0.116732,0.05055 -0.284387,0.08008 -0.501953,0.08008 h -0.330079 v 1.279296 h 0.488282 c 0.372887,0 0.696993,-0.0373 0.974609,-0.111328 0.296933,-0.07373 0.553904,-0.259294 0.759766,-0.539062 0.211202,-0.276904 0.343476,-0.606682 0.394531,-0.980469 v -0.002 c 0.05432,-0.367505 0.08008,-0.890017 0.08008,-1.578125 0,-0.682814 0.02376,-1.18848 0.07031,-1.505859 0.04547,-0.3100337 0.156998,-0.5624343 0.333984,-0.7675788 0.169551,-0.1959395 0.43804,-0.3041828 0.837891,-0.3125 l 0.123046,-0.00195 V 7.8400508 l -0.123046,-0.00195 C 26.59819,7.829776 26.330673,7.7241288 26.161414,7.5334101 l -0.002,-0.00195 C 25.982807,7.3219389 25.87082,7.0671885 25.825477,6.7580195 c -0.04655,-0.3173789 -0.07031,-0.8230447 -0.07031,-1.5058594 0,-0.6881085 -0.02576,-1.2106209 -0.08008,-1.578125 V 3.672082 C 25.624199,3.2991936 25.492818,2.9700568 25.282508,2.6935664 l -0.002,-0.00195 C 25.07474,2.4118417 24.817722,2.2262802 24.520789,2.1525508 24.243173,2.0785197 23.919067,2.0412226 23.54618,2.0412226 Z" />
    <path
       id="path584"
       style="color:#000000;-inkscape-font-specification:'Microsoft Sans Serif Bold';opacity:0.75;fill:#000000;fill-opacity:1;stroke-width:0.25;-inkscape-stroke:none;filter:url(#filter1248)"
       d="m 18.587195,2.0412226 c -0.372888,0 -0.698865,0.035511 -0.980468,0.109375 -0.294032,0.073924 -0.551264,0.26041 -0.761719,0.5410156 -0.206547,0.2769614 -0.337224,0.6068452 -0.392578,0.9804688 v 0.00195 c -0.04979,0.3666655 -0.07422,0.8894344 -0.07422,1.578125 0,0.6828147 -0.02377,1.1884805 -0.07031,1.5058594 -0.0454,0.3095738 -0.158191,0.5635279 -0.339843,0.7734375 -0.164574,0.1907719 -0.431756,0.2983145 -0.832032,0.3066406 l -0.121093,0.00195 v 1.3203124 l 0.121093,0.00195 c 0.399845,0.00833 0.665107,0.1175331 0.830079,0.3125 h 0.002 v 0.00195 c 0.181045,0.2051849 0.294451,0.4561304 0.339843,0.7656251 0.04655,0.317379 0.07031,0.823045 0.07031,1.505859 0,0.68869 0.02443,1.211459 0.07422,1.578125 v 0.002 c 0.05535,0.373624 0.186027,0.703507 0.392578,0.980469 0.210455,0.280604 0.467688,0.467091 0.761719,0.541015 0.281603,0.07386 0.60758,0.109375 0.980468,0.109375 h 0.488282 v -0.125 -1.154296 h -0.330079 c -0.217566,-10e-7 -0.385802,-0.02933 -0.503906,-0.08008 -0.118103,-0.05075 -0.185094,-0.116475 -0.224609,-0.207031 -0.03787,-0.09129 -0.07872,-0.310645 -0.103516,-0.630859 -0.02487,-0.321181 -0.03711,-0.747425 -0.03711,-1.277344 0,-0.964843 -0.122752,-1.6789637 -0.392578,-2.1523434 -0.232181,-0.4073339 -0.619445,-0.6539991 -1.060547,-0.8300781 0.44042,-0.1794997 0.828573,-0.4270137 1.060547,-0.8339843 0.269826,-0.4733797 0.392578,-1.187501 0.392578,-2.1523438 0,-0.5299193 0.01224,-0.9561637 0.03711,-1.2773438 0.0248,-0.3202147 0.06564,-0.5395743 0.103516,-0.6308593 0.03951,-0.090556 0.106506,-0.1562836 0.224609,-0.2070313 0.118104,-0.050748 0.28634,-0.080078 0.503906,-0.080078 h 0.330079 V 2.0412226 Z" />
    <path
       d="M 19.274012,11.998342 Z"
       style="font-style:normal;font-variant:normal;font-weight:bold;font-stretch:normal;font-size:16px;line-height:1.25;font-family:'Microsoft Sans Serif';-inkscape-font-specification:'Microsoft Sans Serif Bold';text-align:center;letter-spacing:0px;word-spacing:0px;text-anchor:middle;fill:#000000;fill-opacity:1;stroke-width:0.844005;filter:url(#filter940);opacity:0.75"
       id="path931" />
    <g
       aria-label="{ }"
       id="text1025"
       style="font-weight:bold;font-size:16px;line-height:1.25;font-family:Ubuntu;-inkscape-font-specification:'Ubuntu Bold';text-align:center;letter-spacing:0px;word-spacing:0px;text-anchor:middle;fill:url(#linearGradient1052);fill-opacity:1"
       transform="matrix(0.844005,0,0,0.844005,94.15927,-165.95041)">
      <path
         d="m -89.701088,213.60507 h -0.429687 q -0.648438,0 -1.125,-0.125 -0.46875,-0.11719 -0.820313,-0.58594 -0.34375,-0.46093 -0.4375,-1.09375 -0.08594,-0.63281 -0.08594,-1.85156 0,-1.21875 -0.08594,-1.80469 -0.08594,-0.58593 -0.4375,-0.98437 -0.34375,-0.40625 -1.09375,-0.42188 v -1.27343 q 0.75,-0.0156 1.09375,-0.41407 0.351563,-0.40625 0.4375,-0.99218 0.08594,-0.58594 0.08594,-1.80469 0,-1.21875 0.08594,-1.85156 0.09375,-0.63282 0.4375,-1.09375 0.351563,-0.46875 0.820313,-0.58594 0.476562,-0.125 1.125,-0.125 h 0.429687 v 1.21875 h -0.242187 q -0.8125,0 -1,0.42969 -0.179688,0.42968 -0.179688,2.32031 0,1.69531 -0.445312,2.47656 -0.445313,0.78125 -1.351563,1.0625 0.90625,0.27344 1.351563,1.05469 0.445312,0.78125 0.445312,2.47656 0,1.89063 0.179688,2.32031 0.1875,0.42969 1,0.42969 h 0.242187 z"
         style="font-style:normal;font-variant:normal;font-weight:bold;font-stretch:normal;font-family:'Microsoft Sans Serif';-inkscape-font-specification:'Microsoft Sans Serif Bold';fill:url(#linearGradient1);fill-opacity:1;stroke:#003399;stroke-opacity:1;stroke-width:0.29620678;stroke-dasharray:none"
         id="path1027" />
      <path
         d="M -89.318275,210.2457 Z"
         style="font-style:normal;font-variant:normal;font-weight:bold;font-stretch:normal;font-family:'Microsoft Sans Serif';-inkscape-font-specification:'Microsoft Sans Serif Bold';fill:url(#linearGradient2);fill-opacity:1"
         id="path1029" />
      <path
         d="m -84.685463,198.59726 h 0.429688 q 0.648437,0 1.117187,0.125 0.476563,0.11719 0.820313,0.58594 0.351562,0.46093 0.4375,1.09375 0.09375,0.63281 0.09375,1.85156 0,1.21875 0.08594,1.80469 0.08594,0.58593 0.429688,0.99218 0.351562,0.39844 1.101562,0.41407 v 1.27343 q -0.75,0.0156 -1.101562,0.42188 -0.34375,0.39844 -0.429688,0.98437 -0.08594,0.58594 -0.08594,1.80469 0,1.21875 -0.09375,1.85156 -0.08594,0.63282 -0.4375,1.09375 -0.34375,0.46875 -0.820313,0.58594 -0.46875,0.125 -1.117187,0.125 h -0.429688 v -1.21875 h 0.242188 q 0.8125,0 0.992187,-0.42969 0.1875,-0.42968 0.1875,-2.32031 0,-1.69531 0.445313,-2.47656 0.445312,-0.78125 1.351562,-1.05469 -0.90625,-0.28125 -1.351562,-1.0625 -0.445313,-0.78125 -0.445313,-2.47656 0,-1.89063 -0.1875,-2.32031 -0.179687,-0.42969 -0.992187,-0.42969 h -0.242188 z"
         style="font-style:normal;font-variant:normal;font-weight:bold;font-stretch:normal;font-family:'Microsoft Sans Serif';-inkscape-font-specification:'Microsoft Sans Serif Bold';fill:url(#linearGradient3);fill-opacity:1;stroke:#003399;stroke-opacity:1;stroke-width:0.29620678;stroke-dasharray:none"
         id="path1031" />
    </g>
    <path
       d="M 18.774199,11.498012 Z"
       style="font-style:normal;font-variant:normal;font-weight:bold;font-stretch:normal;font-size:16px;line-height:1.25;font-family:'Microsoft Sans Serif';-inkscape-font-specification:'Microsoft Sans Serif Bold';text-align:center;letter-spacing:0px;word-spacing:0px;text-anchor:middle;fill:url(#linearGradient340);fill-opacity:1;stroke-width:0.844005"
       id="path590" />
  </g>
</svg>
