<?xml version="1.0" encoding="UTF-8" standalone="no"?>
<svg
   inkscape:export-ydpi="96"
   inkscape:export-xdpi="96"
   inkscape:export-filename="/media/klapeto/Αρχεία/WindowsXP Theme/Vectors/RASTER/project_rebuild.png"
   sodipodi:docname="build-script.svg"
   inkscape:version="1.3.2 (1:1.3.2+202311252150+091e20ef0f)"
   id="svg8"
   version="1.1"
   viewBox="0 0 16 16"
   height="16"
   width="16"
   xml:space="preserve"
   xmlns:inkscape="http://www.inkscape.org/namespaces/inkscape"
   xmlns:sodipodi="http://sodipodi.sourceforge.net/DTD/sodipodi-0.dtd"
   xmlns:xlink="http://www.w3.org/1999/xlink"
   xmlns="http://www.w3.org/2000/svg"
   xmlns:svg="http://www.w3.org/2000/svg"
   xmlns:rdf="http://www.w3.org/1999/02/22-rdf-syntax-ns#"
   xmlns:cc="http://creativecommons.org/ns#"
   xmlns:dc="http://purl.org/dc/elements/1.1/"><defs
     id="defs2"><linearGradient
       inkscape:collect="always"
       id="linearGradient2"><stop
         style="stop-color:#0099ff;stop-opacity:1"
         offset="0"
         id="stop1" /><stop
         style="stop-color:#0066cc;stop-opacity:1"
         offset="1"
         id="stop2" /></linearGradient><linearGradient
       inkscape:collect="always"
       id="linearGradient31250"><stop
         style="stop-color:#0099ff;stop-opacity:1"
         offset="0"
         id="stop31246" /><stop
         style="stop-color:#003399;stop-opacity:1"
         offset="1"
         id="stop31248" /></linearGradient><linearGradient
       inkscape:collect="always"
       id="linearGradient21962"><stop
         style="stop-color:#0099ff;stop-opacity:1"
         offset="0"
         id="stop21958" /><stop
         style="stop-color:#003399;stop-opacity:1"
         offset="1"
         id="stop21960" /></linearGradient><linearGradient
       inkscape:collect="always"
       id="linearGradient15216"><stop
         style="stop-color:#b4e2ff;stop-opacity:1"
         offset="0"
         id="stop15212" /><stop
         style="stop-color:#ffffff;stop-opacity:1"
         offset="1"
         id="stop15214" /></linearGradient><linearGradient
       inkscape:collect="always"
       xlink:href="#linearGradient2"
       id="linearGradient1629"
       x1="-33.432289"
       y1="70.5"
       x2="-28.432291"
       y2="70.5"
       gradientUnits="userSpaceOnUse"
       gradientTransform="matrix(1.0154549,0,0,1.0154549,46.536552,-66.05156)" /><linearGradient
       inkscape:collect="always"
       xlink:href="#linearGradient15216"
       id="linearGradient15218"
       x1="-19.410551"
       y1="62.100613"
       x2="-31.932291"
       y2="57.5"
       gradientUnits="userSpaceOnUse"
       gradientTransform="matrix(1.0154549,0,0,1.0154549,46.54683,-49.070302)" /><linearGradient
       inkscape:collect="always"
       xlink:href="#linearGradient21962"
       id="linearGradient21964"
       x1="-32.932289"
       y1="57"
       x2="-19.432291"
       y2="62.5"
       gradientUnits="userSpaceOnUse"
       gradientTransform="matrix(1.0154549,0,0,1.0154549,46.54683,-49.070302)" /><linearGradient
       inkscape:collect="always"
       xlink:href="#linearGradient31250"
       id="linearGradient31252"
       x1="-30.932291"
       y1="58.5"
       x2="-20.932291"
       y2="60.5"
       gradientUnits="userSpaceOnUse"
       gradientTransform="matrix(1.0154549,0,0,1.0154549,46.489093,-48.907422)" /><linearGradient
       inkscape:collect="always"
       xlink:href="#linearGradient2"
       id="linearGradient4"
       gradientUnits="userSpaceOnUse"
       gradientTransform="matrix(1.0154549,0,0,1.0154549,51.529932,-66.05156)"
       x1="-33.432289"
       y1="70.5"
       x2="-28.432291"
       y2="70.5" /><linearGradient
       inkscape:collect="always"
       xlink:href="#linearGradient2"
       id="linearGradient5"
       gradientUnits="userSpaceOnUse"
       gradientTransform="matrix(1.0154549,0,0,1.0154549,56.529931,-66.05156)"
       x1="-33.432289"
       y1="70.5"
       x2="-28.432291"
       y2="70.5" /><filter
       inkscape:collect="always"
       style="color-interpolation-filters:sRGB"
       id="filter8"
       x="-0.14108073"
       y="-0.15343774"
       width="1.2821615"
       height="1.3068755"><feGaussianBlur
         inkscape:collect="always"
         stdDeviation="0.88531372"
         id="feGaussianBlur8" /></filter><linearGradient
       id="linearGradient17661"
       x1="72.945999"
       x2="84.792"
       y1="1162.1"
       y2="1174"
       gradientTransform="matrix(0.92857,0,0,0.92857,1064.3,-57.741)"
       gradientUnits="userSpaceOnUse"><stop
         stop-color="#dcdcd7"
         offset="0"
         id="stop4" /><stop
         stop-color="#fff"
         offset="1"
         id="stop5" /></linearGradient><linearGradient
       id="linearGradient2027-1"
       x1="-61.614"
       x2="-59.402"
       y1="21.66"
       y2="24.913"
       gradientTransform="matrix(5.2904,0,0,5.2904,539.95,-45.749)"
       gradientUnits="userSpaceOnUse"
       xlink:href="#linearGradient1772" /><linearGradient
       id="linearGradient1772"><stop
         stop-color="#cfa03a"
         offset="0"
         id="stop1-3" /><stop
         stop-color="#debc61"
         offset=".5"
         id="stop2-6" /><stop
         stop-color="#fbf0ad"
         offset="1"
         id="stop3" /></linearGradient><linearGradient
       id="linearGradient2029-0"
       x1="-60.193"
       x2="-65.969"
       y1="24.966"
       y2="19.407"
       gradientTransform="matrix(5.2904,0,0,5.2904,539.95,-45.749)"
       gradientUnits="userSpaceOnUse"
       xlink:href="#linearGradient1855" /><linearGradient
       id="linearGradient1855"><stop
         stop-color="#847258"
         offset="0"
         id="stop4-7" /><stop
         stop-color="#c0b081"
         offset="1"
         id="stop5-5" /></linearGradient><radialGradient
       id="radialGradient1776-3-1"
       cx="-59.338"
       cy="40.236"
       r="11.522"
       gradientTransform="matrix(0,-8.7764,7.1497,0,-59.226,-355.02)"
       gradientUnits="userSpaceOnUse"
       xlink:href="#linearGradient1772" /><linearGradient
       id="linearGradient2031-3"
       x1="-59.068"
       x2="-79.733"
       y1="37.895"
       y2="22.958"
       gradientTransform="matrix(5.2904,0,0,5.2904,539.95,-45.749)"
       gradientUnits="userSpaceOnUse"
       xlink:href="#linearGradient1855" /><linearGradient
       id="linearGradient2033-4"
       x1="-74.432"
       x2="-74.429"
       y1="43"
       y2="39.238"
       gradientTransform="matrix(5.2904,0,0,5.2904,539.95,-45.749)"
       gradientUnits="userSpaceOnUse"
       xlink:href="#linearGradient1772" /><linearGradient
       id="linearGradient2035-0"
       x1="-71.232"
       x2="-71.232"
       y1="42.93"
       y2="33.72"
       gradientTransform="matrix(5.2904,0,0,5.2904,539.95,-45.749)"
       gradientUnits="userSpaceOnUse"
       xlink:href="#linearGradient1855" /><linearGradient
       id="linearGradient2037-3"
       x1="-76.932"
       x2="-67.932"
       y1="25.217"
       y2="25.217"
       gradientTransform="matrix(5.2904,0,0,5.2904,539.95,-45.749)"
       gradientUnits="userSpaceOnUse"
       xlink:href="#linearGradient1794" /><linearGradient
       id="linearGradient1794"><stop
         stop-color="#927755"
         offset="0"
         id="stop6" /><stop
         stop-color="#b59243"
         offset="1"
         id="stop7" /></linearGradient><linearGradient
       id="linearGradient2039-9"
       x1="-76.919"
       x2="-67.919"
       y1="28.27"
       y2="28.27"
       gradientTransform="matrix(5.2904,0,0,5.2904,539.95,-45.917)"
       gradientUnits="userSpaceOnUse"
       xlink:href="#linearGradient1794" /><linearGradient
       id="linearGradient2041-1"
       x1="-75.425"
       x2="-66.425"
       y1="31.241"
       y2="31.241"
       gradientTransform="matrix(5.2904,0,0,5.2904,539.95,-45.655)"
       gradientUnits="userSpaceOnUse"
       xlink:href="#linearGradient1794" /><linearGradient
       id="linearGradient2043-9"
       x1="-72.451"
       x2="-63.451"
       y1="34.233"
       y2="34.233"
       gradientTransform="matrix(5.2904,0,0,5.2904,539.95,-45.499)"
       gradientUnits="userSpaceOnUse"
       xlink:href="#linearGradient1794" /><linearGradient
       id="linearGradient2045-6"
       x1="-72.468"
       x2="-63.468"
       y1="37.301"
       y2="37.301"
       gradientTransform="matrix(5.2904,0,0,5.2904,539.95,-45.749)"
       gradientUnits="userSpaceOnUse"
       xlink:href="#linearGradient1794" /><filter
       id="filter1510"
       x="-0.04675656"
       y="-0.049311361"
       width="1.0935131"
       height="1.0986227"
       color-interpolation-filters="sRGB"><feGaussianBlur
         stdDeviation="0.17950228"
         id="feGaussianBlur7" /></filter><filter
       id="filter963"
       x="-0.13823217"
       y="-0.11059464"
       width="1.2764643"
       height="1.2211893"
       color-interpolation-filters="sRGB"><feGaussianBlur
         stdDeviation="0.69118713"
         id="feGaussianBlur8-3" /></filter><linearGradient
       id="linearGradient32816-3"
       x1="-28.683"
       x2="-38.225"
       y1="21.128"
       y2="9.0369"
       gradientUnits="userSpaceOnUse"><stop
         stop-color="#9cf"
         offset="0"
         id="stop8" /><stop
         stop-color="#fff"
         offset="1"
         id="stop9" /></linearGradient><linearGradient
       id="linearGradient26952-6"
       x1="8.0956"
       x2="7.2706"
       y1="1.4188"
       y2=".45848"
       gradientTransform="matrix(1.5872 0 0 1.5872 -42.561 7.9305)"
       gradientUnits="userSpaceOnUse"><stop
         stop-color="#2da8ff"
         offset="0"
         id="stop10" /><stop
         stop-color="#74c0ff"
         offset="1"
         id="stop11" /></linearGradient><linearGradient
       id="linearGradient57243-7"
       x1="-31.156"
       x2="-28.432"
       y1="10.5"
       y2="10.5"
       gradientTransform="translate(0 -.25)"
       gradientUnits="userSpaceOnUse"><stop
         stop-color="#0096fc"
         offset="0"
         id="stop12" /><stop
         stop-color="#0068ce"
         offset="1"
         id="stop13" /></linearGradient><linearGradient
       id="linearGradient33220-5"
       x1="-30.932"
       x2="-28.932"
       y1="11"
       y2="11"
       gradientUnits="userSpaceOnUse"><stop
         stop-color="#ccd5ff"
         offset="0"
         id="stop14" /><stop
         stop-color="#aab3f5"
         offset="1"
         id="stop15" /></linearGradient><linearGradient
       id="linearGradient19558-3"
       x1="-27.932"
       x2="-27.932"
       y1="21"
       y2="11.5"
       gradientUnits="userSpaceOnUse"><stop
         stop-color="#a5bdee"
         offset="0"
         id="stop16" /><stop
         stop-color="#bac9f4"
         offset="1"
         id="stop17" /></linearGradient><linearGradient
       id="linearGradient10737-5"
       x1="-37.932"
       x2="-28.932"
       y1="22"
       y2="22"
       gradientUnits="userSpaceOnUse"><stop
         stop-color="#9dadd9"
         offset="0"
         id="stop18" /><stop
         stop-color="#8b8eb8"
         offset="1"
         id="stop19" /></linearGradient><linearGradient
       id="linearGradient1922-6"
       x1="-38.932"
       x2="-38.932"
       y1="22.025"
       y2="14.78"
       gradientUnits="userSpaceOnUse"><stop
         stop-color="#6e7bae"
         offset="0"
         id="stop20" /><stop
         stop-color="#87a9dc"
         offset="1"
         id="stop21" /></linearGradient><filter
       inkscape:collect="always"
       style="color-interpolation-filters:sRGB"
       id="filter63"
       x="-0.11971441"
       y="-0.12621758"
       width="1.2394288"
       height="1.2524352"><feGaussianBlur
         inkscape:collect="always"
         stdDeviation="0.74818856"
         id="feGaussianBlur63" /></filter></defs><sodipodi:namedview
     inkscape:snap-global="true"
     inkscape:bbox-paths="false"
     fit-margin-bottom="0"
     fit-margin-right="0"
     fit-margin-left="0"
     fit-margin-top="0"
     inkscape:bbox-nodes="true"
     inkscape:snap-bbox="true"
     inkscape:window-maximized="1"
     inkscape:window-y="0"
     inkscape:window-x="0"
     inkscape:window-height="2058"
     inkscape:window-width="3840"
     units="px"
     showgrid="true"
     inkscape:document-rotation="0"
     inkscape:current-layer="layer1"
     inkscape:document-units="px"
     inkscape:cy="9.2734375"
     inkscape:cx="1.9921875"
     inkscape:zoom="64"
     inkscape:pageshadow="2"
     inkscape:pageopacity="0.0"
     borderopacity="1.0"
     bordercolor="#666666"
     pagecolor="#ffffff"
     id="base"
     showguides="false"
     inkscape:pagecheckerboard="0"
     inkscape:showpageshadow="2"
     inkscape:deskcolor="#d1d1d1"><inkscape:grid
       originy="0"
       originx="0"
       id="grid1504"
       type="xygrid"
       spacingy="1"
       spacingx="1"
       units="px"
       visible="true" /><inkscape:grid
       spacingy="0.5"
       spacingx="0.5"
       id="grid966"
       type="xygrid"
       originx="0"
       originy="0"
       units="px"
       visible="true" /></sodipodi:namedview><metadata
     id="metadata5"><rdf:RDF><cc:Work
         rdf:about=""><dc:format>image/svg+xml</dc:format><dc:type
           rdf:resource="http://purl.org/dc/dcmitype/StillImage" /></cc:Work></rdf:RDF></metadata><g
     transform="translate(-12.567709)"
     id="layer1"
     inkscape:groupmode="layer"
     inkscape:label="Layer 1"><path
       id="path6"
       style="color:#000000;fill:#000000;fill-opacity:1;-inkscape-stroke:none;filter:url(#filter8);opacity:0.75"
       d="m 15.074037,1.527 v 0.9921874 h 0.994141 V 1.527 Z m 4.994141,0 v 0.9921874 h 0.994141 V 1.527 Z m 5,0 v 0.9921874 h 0.994141 V 1.527 Z m -9.994141,1.9863281 v 1.9863281 h -1.986328 l 2.539063,3.0761719 2.492187,-3.0332031 2.501953,3.0332031 2.494141,-3.0351563 2.505859,3.0351563 2.527344,-3.0761719 H 26.062319 V 3.5133281 H 25.068178 V 5.4996562 H 23.148256 21.062319 V 3.5133281 H 20.068178 V 5.4996562 H 18.154116 16.068178 V 3.5133281 Z m -1.880859,5.1113281 7.1875,0.375 h -6.4375 -0.375 v 0.375 z m 0,0 v 0.375 6.3749998 h 14.75 V 8.6246562 Z" /><path
       style="fill:url(#linearGradient15218);fill-opacity:1;stroke:url(#linearGradient21964);stroke-width:0.75;stroke-linecap:butt;stroke-linejoin:miter;stroke-miterlimit:4;stroke-dasharray:none;stroke-opacity:1"
       d="m 13.067709,8.5 v 6 h 14 v -6 z"
       id="path1041"
       sodipodi:nodetypes="ccccc" /><path
       id="path1043"
       style="fill:url(#linearGradient31252);fill-opacity:1;stroke:none;stroke-width:1;stroke-linecap:butt;stroke-linejoin:miter;stroke-miterlimit:4;stroke-dasharray:none;stroke-opacity:1"
       d="m 14.57102,10 3.47e-4,0.99669 h 0.99338 L 15.564399,10 Z m 1.986759,0 3.47e-4,0.99669 h 1.006621 l -3.48e-4,-0.996689 z m 2.00662,0 3.48e-4,0.99669 h 1 l -3.48e-4,-0.996689 z m 2,0 3.48e-4,0.99669 h 1 l -3.48e-4,-0.996689 z m 1.999999,0 3.48e-4,0.99669 h 1 l -3.48e-4,-0.996689 z m 2.000001,0 3.48e-4,0.99669 h 1 l -3.48e-4,-0.996689 z m -9.999652,1.99669 v 1 l 1,-10e-7 V 11.99669 Z m 1.986758,0 v 1.000002 l 1.013242,-2e-6 v -1 z m 2.013242,0 v 1.000002 l 1,-2e-6 v -1 z m 2,0 v 1.000002 l 1,-2e-6 v -1 z m 2,0 v 1.000002 l 1,-2e-6 v -1 z m 2,0 v 1.000002 l 1,-2e-6 v -1 z"
       sodipodi:nodetypes="cccccccccccccccccccccccccccccccccccccccccccccccccccccccccccc" /><path
       id="path1407"
       style="fill:url(#linearGradient1629);fill-opacity:1;stroke:none;stroke-width:0.629415;stroke-linecap:butt;stroke-linejoin:miter;stroke-miterlimit:4;stroke-dasharray:none;stroke-opacity:1"
       d="m 14.57433,1.0264808 v 0.9933798 h 0.993379 V 1.0264808 Z m 0,1.9867596 V 5 H 12.58757 L 15.126206,8.0766468 17.653772,5 H 15.567709 V 3.0132404 Z"
       sodipodi:nodetypes="ccccccccccccc" /><path
       id="path1407-9"
       style="fill:url(#linearGradient4);fill-opacity:1;stroke:none;stroke-width:0.629415;stroke-linecap:butt;stroke-linejoin:miter;stroke-miterlimit:4;stroke-dasharray:none;stroke-opacity:1"
       d="m 19.567709,1.026481 v 0.9933798 h 0.993379 V 1.026481 Z m 0,1.9867596 V 5 h -1.98676 L 20.119585,8.0766468 22.647151,5 H 20.561088 V 3.0132406 Z"
       sodipodi:nodetypes="ccccccccccccc" /><path
       id="path1407-9-7"
       style="fill:url(#linearGradient5);fill-opacity:1;stroke:none;stroke-width:0.629415;stroke-linecap:butt;stroke-linejoin:miter;stroke-miterlimit:4;stroke-dasharray:none;stroke-opacity:1"
       d="m 24.567709,1.026481 v 0.9933798 h 0.99338 V 1.026481 Z m 0,1.9867596 V 5 h -1.98676 L 25.119585,8.0766468 27.647151,5 H 25.561089 V 3.0132406 Z"
       sodipodi:nodetypes="ccccccccccccc" /><g
       id="g1"
       transform="matrix(0.61094179,0,0,0.61094179,19.274505,6.1808387)"><path
         id="path58"
         style="color:#000000;opacity:0.83;fill:#000000;fill-opacity:1;-inkscape-stroke:none;filter:url(#filter63)"
         d="M 4.5760548,1.4997402 A 0.40707069,0.40707069 0 0 0 4.3944141,1.542709 c 0,0 -2.1367187,1.1235829 -2.1367187,3.9453124 0,1.3772874 0.9567184,2.5775892 1.8339844,3.75 0.7500829,1.0024386 1.4459538,1.9807586 1.6386719,2.8964846 l -3.1015626,0.0039 c -0.5628159,7.4e-4 -1.0422162,0.223786 -1.3300781,0.589844 -0.2878619,0.366056 -0.37217395,0.858762 -0.234375,1.320312 0.275598,0.923101 1.363906,1.677734 3.2207031,1.677734 h 8.4550779 1.166016 a 0.40707069,0.40707069 0 0 0 0.216797,-0.0625 c 0,0 1.82263,-1.114366 1.802734,-3.076171 -0.01451,-1.426229 -0.972867,-2.6635571 -1.851562,-3.8378908 -0.878696,-1.1743337 -1.671875,-2.2883983 -1.671875,-3.2617188 0,-0.089769 0.0073,-0.1724794 0.01172,-0.2578124 h 2.363282 c 0.450033,0.00376 0.786217,-0.3167203 0.974609,-0.671875 0.188399,-0.3551549 0.27348,-0.7862073 0.240235,-1.2285157 C 15.958824,2.8875101 15.79883,2.4255009 15.449102,2.0700527 15.09972,1.714957 14.569371,1.494611 13.906133,1.4997402 h -0.002 z" /><g
         transform="matrix(0.11022264,0,0,0.11022264,-11.077543,-6.0040396)"
         stroke-width="7.3856"
         id="g40"><path
           d="m 217.6,62.704 c 20.972,-0.17628 17.032,26.528 7.9356,26.452 h -36.132"
           fill="url(#linearGradient2027-1)"
           stroke="url(#linearGradient2029-0)"
           id="path31"
           style="fill:url(#linearGradient2027-1);stroke:url(#linearGradient2029-0)" /><g
           stroke-linecap="round"
           id="g39"><path
             d="m 132.95,184.38 c 0,0 14.79,-9.3179 14.634,-24.741 -0.22733,-22.416 -31.976,-43.127 -31.976,-64.453 0,-23.807 17.342,-32.485 17.342,-32.485 h 84.646 c 0,0 -17.342,8.6779 -17.342,32.485 0,21.326 31.748,42.037 31.976,64.453 0.15644,15.423 -14.634,24.741 -14.634,24.741 z"
             fill="url(#radialGradient1776-3-1)"
             stroke="url(#linearGradient2031-3)"
             stroke-linejoin="round"
             id="path32"
             style="fill:url(#radialGradient1776-3-1);stroke:url(#linearGradient2031-3)" /><path
             d="m 130.31,184.38 c -31.742,0 -31.742,-25.14 -15.018,-25.162 l 87.564,-0.11443 c -7.4012,-0.55619 -4.3062,24.806 4.1638,25.276 z"
             fill="url(#linearGradient2033-4)"
             stroke="url(#linearGradient2035-0)"
             stroke-linejoin="round"
             id="path33"
             style="fill:url(#linearGradient2033-4);stroke:url(#linearGradient2035-0)" /><g
             fill="none"
             id="g38"><path
               d="m 135.6,87.657 h 42.323"
               stroke="url(#linearGradient2037-3)"
               id="path34"
               style="stroke:url(#linearGradient2037-3)" /><path
               d="m 135.66,103.64 h 42.323"
               stroke="url(#linearGradient2039-9)"
               id="path35"
               style="stroke:url(#linearGradient2039-9)" /><path
               d="m 143.57,119.62 h 42.323"
               stroke="url(#linearGradient2041-1)"
               id="path36"
               style="stroke:url(#linearGradient2041-1)" /><path
               d="m 159.3,135.61 h 42.323"
               stroke="url(#linearGradient2043-9)"
               id="path37"
               style="stroke:url(#linearGradient2043-9)" /><path
               d="m 159.21,151.59 h 42.323"
               stroke="url(#linearGradient2045-6)"
               id="path38"
               style="stroke:url(#linearGradient2045-6)" /></g></g></g></g></g></svg>
