<?xml version="1.0" encoding="UTF-8" standalone="no"?>
<svg
   inkscape:export-ydpi="96"
   inkscape:export-xdpi="96"
   inkscape:export-filename="/media/klapeto/Αρχεία/WindowsXP Theme/Vectors/RASTER/project_rebuild.png"
   sodipodi:docname="build-sync.svg"
   inkscape:version="1.3.2 (1:1.3.2+202311252150+091e20ef0f)"
   id="svg8"
   version="1.1"
   viewBox="0 0 16 16"
   height="16"
   width="16"
   xml:space="preserve"
   xmlns:inkscape="http://www.inkscape.org/namespaces/inkscape"
   xmlns:sodipodi="http://sodipodi.sourceforge.net/DTD/sodipodi-0.dtd"
   xmlns:xlink="http://www.w3.org/1999/xlink"
   xmlns="http://www.w3.org/2000/svg"
   xmlns:svg="http://www.w3.org/2000/svg"
   xmlns:rdf="http://www.w3.org/1999/02/22-rdf-syntax-ns#"
   xmlns:cc="http://creativecommons.org/ns#"
   xmlns:dc="http://purl.org/dc/elements/1.1/"><defs
     id="defs2"><linearGradient
       inkscape:collect="always"
       id="linearGradient2"><stop
         style="stop-color:#0099ff;stop-opacity:1"
         offset="0"
         id="stop1" /><stop
         style="stop-color:#0066cc;stop-opacity:1"
         offset="1"
         id="stop2" /></linearGradient><linearGradient
       inkscape:collect="always"
       id="linearGradient31250"><stop
         style="stop-color:#0099ff;stop-opacity:1"
         offset="0"
         id="stop31246" /><stop
         style="stop-color:#003399;stop-opacity:1"
         offset="1"
         id="stop31248" /></linearGradient><linearGradient
       inkscape:collect="always"
       id="linearGradient21962"><stop
         style="stop-color:#0099ff;stop-opacity:1"
         offset="0"
         id="stop21958" /><stop
         style="stop-color:#003399;stop-opacity:1"
         offset="1"
         id="stop21960" /></linearGradient><linearGradient
       inkscape:collect="always"
       id="linearGradient15216"><stop
         style="stop-color:#b4e2ff;stop-opacity:1"
         offset="0"
         id="stop15212" /><stop
         style="stop-color:#ffffff;stop-opacity:1"
         offset="1"
         id="stop15214" /></linearGradient><linearGradient
       inkscape:collect="always"
       xlink:href="#linearGradient2"
       id="linearGradient1629"
       x1="-33.432289"
       y1="70.5"
       x2="-28.432291"
       y2="70.5"
       gradientUnits="userSpaceOnUse"
       gradientTransform="matrix(0.87199999,0,0,0.87199999,41.740525,-57.173685)" /><linearGradient
       inkscape:collect="always"
       xlink:href="#linearGradient15216"
       id="linearGradient15218"
       x1="-19.410551"
       y1="62.100613"
       x2="-31.932291"
       y2="57.5"
       gradientUnits="userSpaceOnUse"
       gradientTransform="matrix(0.87199999,0,0,0.87199999,41.749351,-42.591395)" /><linearGradient
       inkscape:collect="always"
       xlink:href="#linearGradient21962"
       id="linearGradient21964"
       x1="-32.932289"
       y1="57"
       x2="-19.432291"
       y2="62.5"
       gradientUnits="userSpaceOnUse"
       gradientTransform="matrix(0.87199999,0,0,0.87199999,41.749351,-42.591395)" /><linearGradient
       inkscape:collect="always"
       xlink:href="#linearGradient31250"
       id="linearGradient31252"
       x1="-30.932291"
       y1="58.5"
       x2="-20.932291"
       y2="60.5"
       gradientUnits="userSpaceOnUse"
       gradientTransform="matrix(0.87199999,0,0,0.87199999,41.699771,-42.451526)" /><linearGradient
       inkscape:collect="always"
       xlink:href="#linearGradient2"
       id="linearGradient4"
       gradientUnits="userSpaceOnUse"
       gradientTransform="matrix(0.87199999,0,0,0.87199999,46.028484,-57.173685)"
       x1="-33.432289"
       y1="70.5"
       x2="-28.432291"
       y2="70.5" /><linearGradient
       inkscape:collect="always"
       xlink:href="#linearGradient2"
       id="linearGradient5"
       gradientUnits="userSpaceOnUse"
       gradientTransform="matrix(0.87199999,0,0,0.87199999,50.322124,-57.173685)"
       x1="-33.432289"
       y1="70.5"
       x2="-28.432291"
       y2="70.5" /><filter
       inkscape:collect="always"
       style="color-interpolation-filters:sRGB"
       id="filter8"
       x="-0.14108073"
       y="-0.15343774"
       width="1.2821615"
       height="1.3068755"><feGaussianBlur
         inkscape:collect="always"
         stdDeviation="0.88531372"
         id="feGaussianBlur8" /></filter><linearGradient
       id="linearGradient17661"
       x1="72.945999"
       x2="84.792"
       y1="1162.1"
       y2="1174"
       gradientTransform="matrix(0.92857,0,0,0.92857,1064.3,-57.741)"
       gradientUnits="userSpaceOnUse"><stop
         stop-color="#dcdcd7"
         offset="0"
         id="stop4" /><stop
         stop-color="#fff"
         offset="1"
         id="stop5" /></linearGradient></defs><sodipodi:namedview
     inkscape:snap-global="true"
     inkscape:bbox-paths="false"
     fit-margin-bottom="0"
     fit-margin-right="0"
     fit-margin-left="0"
     fit-margin-top="0"
     inkscape:bbox-nodes="true"
     inkscape:snap-bbox="true"
     inkscape:window-maximized="1"
     inkscape:window-y="0"
     inkscape:window-x="0"
     inkscape:window-height="2058"
     inkscape:window-width="3840"
     units="px"
     showgrid="true"
     inkscape:document-rotation="0"
     inkscape:current-layer="layer1"
     inkscape:document-units="px"
     inkscape:cy="11.998718"
     inkscape:cx="8.7725435"
     inkscape:zoom="22.627417"
     inkscape:pageshadow="2"
     inkscape:pageopacity="0.0"
     borderopacity="1.0"
     bordercolor="#666666"
     pagecolor="#ffffff"
     id="base"
     showguides="false"
     inkscape:pagecheckerboard="0"
     inkscape:showpageshadow="2"
     inkscape:deskcolor="#d1d1d1"><inkscape:grid
       originy="0"
       originx="0"
       id="grid1504"
       type="xygrid"
       spacingy="1"
       spacingx="1"
       units="px"
       visible="true" /><inkscape:grid
       spacingy="0.5"
       spacingx="0.5"
       id="grid966"
       type="xygrid"
       originx="0"
       originy="0"
       units="px"
       visible="true" /></sodipodi:namedview><metadata
     id="metadata5"><rdf:RDF><cc:Work
         rdf:about=""><dc:format>image/svg+xml</dc:format><dc:type
           rdf:resource="http://purl.org/dc/dcmitype/StillImage" /></cc:Work></rdf:RDF></metadata><g
     transform="translate(-12.567709)"
     id="layer1"
     inkscape:groupmode="layer"
     inkscape:label="Layer 1"><path
       id="path6"
       style="color:#000000;opacity:0.75;fill:#000000;fill-opacity:1;-inkscape-stroke:none;filter:url(#filter8)"
       d="m 15.074037,1.527 v 0.9921874 h 0.994141 V 1.527 Z m 4.994141,0 v 0.9921874 h 0.994141 V 1.527 Z m 5,0 v 0.9921874 h 0.994141 V 1.527 Z m -9.994141,1.9863281 v 1.9863281 h -1.986328 l 2.539063,3.0761719 2.492187,-3.0332031 2.501953,3.0332031 2.494141,-3.0351563 2.505859,3.0351563 2.527344,-3.0761719 H 26.062319 V 3.5133281 H 25.068178 V 5.4996562 H 23.148256 21.062319 V 3.5133281 H 20.068178 V 5.4996562 H 18.154116 16.068178 V 3.5133281 Z m -1.880859,5.1113281 7.1875,0.375 h -6.4375 -0.375 v 0.375 z m 0,0 v 0.375 6.3749998 h 14.75 V 8.6246562 Z"
       transform="matrix(0.85872843,0,0,0.85872843,1.7782657,-0.45333245)" /><path
       style="fill:url(#linearGradient15218);fill-opacity:1;stroke:url(#linearGradient21964);stroke-width:0.644046;stroke-linecap:butt;stroke-linejoin:miter;stroke-miterlimit:4;stroke-dasharray:none;stroke-opacity:1"
       d="M 12.999879,6.8458593 V 11.99823 H 25.022077 V 6.8458593 Z"
       id="path1041"
       sodipodi:nodetypes="ccccc" /><path
       id="path1043"
       style="fill:url(#linearGradient31252);fill-opacity:1;stroke:none;stroke-width:0.858729;stroke-linecap:butt;stroke-linejoin:miter;stroke-miterlimit:4;stroke-dasharray:none;stroke-opacity:1"
       d="m 14.290814,8.1339519 2.99e-4,0.855886 h 0.853043 l -2.98e-4,-0.855886 z m 1.706087,0 2.98e-4,0.855886 h 0.864415 l -3e-4,-0.8558851 z m 1.723142,0 2.98e-4,0.855886 h 0.858729 l -2.98e-4,-0.8558851 z m 1.717456,0 3e-4,0.855886 h 0.858729 l -3e-4,-0.8558851 z m 1.717457,0 2.98e-4,0.855886 h 0.858729 l -2.98e-4,-0.8558851 z m 1.717457,0 3e-4,0.855886 h 0.858728 l -2.99e-4,-0.8558851 z m -8.586985,1.7146143 v 0.8587288 l 0.858728,-1e-6 V 9.8485662 Z m 1.706086,0 v 0.8587308 l 0.8701,-2e-6 V 9.8485662 Z m 1.728827,0 v 0.8587308 l 0.858729,-2e-6 V 9.8485662 Z m 1.717458,0 v 0.8587308 l 0.858729,-2e-6 V 9.8485662 Z m 1.717456,0 v 0.8587308 l 0.858729,-2e-6 V 9.8485662 Z m 1.717458,0 v 0.8587308 l 0.858728,-2e-6 V 9.8485662 Z"
       sodipodi:nodetypes="cccccccccccccccccccccccccccccccccccccccccccccccccccccccccccc" /><path
       id="path1407"
       style="fill:url(#linearGradient1629);fill-opacity:1;stroke:none;stroke-width:0.540496;stroke-linecap:butt;stroke-linejoin:miter;stroke-miterlimit:4;stroke-dasharray:none;stroke-opacity:1"
       d="M 14.293658,0.4281358 V 1.2811793 H 15.1467 V 0.4281358 Z m 0,1.7060869 v 1.706087 H 12.58757 l 2.179999,2.6420041 2.170493,-2.6420041 H 15.1467 v -1.706087 z"
       sodipodi:nodetypes="ccccccccccccc" /><path
       id="path1407-9"
       style="fill:url(#linearGradient4);fill-opacity:1;stroke:none;stroke-width:0.540496;stroke-linecap:butt;stroke-linejoin:miter;stroke-miterlimit:4;stroke-dasharray:none;stroke-opacity:1"
       d="M 18.581614,0.42813601 V 1.2811794 h 0.853042 V 0.42813601 Z m 0,1.70608689 v 1.7060868 h -1.706088 l 2.179999,2.6420041 2.170493,-2.6420041 H 19.434656 V 2.1342229 Z"
       sodipodi:nodetypes="ccccccccccccc" /><path
       id="path1407-9-7"
       style="fill:url(#linearGradient5);fill-opacity:1;stroke:none;stroke-width:0.540496;stroke-linecap:butt;stroke-linejoin:miter;stroke-miterlimit:4;stroke-dasharray:none;stroke-opacity:1"
       d="M 22.875256,0.42813601 V 1.2811794 H 23.7283 V 0.42813601 Z m 0,1.70608689 v 1.7060868 h -1.706087 l 2.179999,2.6420041 2.170493,-2.6420041 H 23.7283 V 2.1342229 Z"
       sodipodi:nodetypes="ccccccccccccc" /><g
       transform="matrix(0.06141465,0,0,0.06141465,16.90667,3.3555138)"
       id="g1103"
       style="fill:#009900;stroke:none;stroke-width:5.37331077;stroke-dasharray:none;stroke-opacity:1"><path
         style="fill:#009900;fill-opacity:1;stroke:none;stroke-width:5.37331077;stroke-linecap:butt;stroke-linejoin:miter;stroke-dasharray:none;stroke-opacity:1"
         d="M 84.036304,133.14534 C 99.48626,93.276798 133.08927,79.634142 147.81248,95.942566 c -2.98972,11.202254 -9.24108,15.400984 -21.25869,21.258724 19.15456,5.89993 38.60688,6.68023 58.4615,5.31469 1.75611,-28.520048 4.49803,-51.205565 -4.18807,-70.430349 -3.50234,9.260505 -7.75358,16.031285 -11.75598,17.283523 -30.0946,-33.622826 -85.19406,9.056563 -85.034936,63.776186 z"
         id="path2383-0"
         sodipodi:nodetypes="ccccccc" /><path
         sodipodi:nodetypes="ccccccc"
         id="path2383-8-3"
         d="m 190.98016,132.30897 c -15.07808,37.15737 -49.15423,37.64502 -61.51084,25.91926 5.20352,-5.54483 13.02393,-8.23411 26.27716,-11.96876 -18.52847,-5.70708 -43.4817,-6.64537 -62.687323,-5.32446 -3.513006,23.6316 -4.747041,49.66409 4.133045,64.88592 3.387888,-8.9578 7.405158,-15.94584 11.116088,-18.26505 29.11088,32.52378 84.20567,-2.61945 82.67187,-55.24691 z"
         style="fill:#009900;fill-opacity:1;stroke:none;stroke-width:5.37331077;stroke-linecap:butt;stroke-linejoin:miter;stroke-dasharray:none;stroke-opacity:1" /></g></g></svg>
