<?xml version="1.0" encoding="UTF-8" standalone="no"?>
<svg
   inkscape:export-ydpi="96"
   inkscape:export-xdpi="96"
   inkscape:export-filename="c-source-file.png"
   width="16"
   height="16"
   viewBox="0 0 16 16"
   version="1.1"
   id="svg8"
   inkscape:version="1.3.2 (1:1.3.2+202311252150+091e20ef0f)"
   sodipodi:docname="c.svg"
   xmlns:inkscape="http://www.inkscape.org/namespaces/inkscape"
   xmlns:sodipodi="http://sodipodi.sourceforge.net/DTD/sodipodi-0.dtd"
   xmlns:xlink="http://www.w3.org/1999/xlink"
   xmlns="http://www.w3.org/2000/svg"
   xmlns:svg="http://www.w3.org/2000/svg"
   xmlns:rdf="http://www.w3.org/1999/02/22-rdf-syntax-ns#"
   xmlns:cc="http://creativecommons.org/ns#"
   xmlns:dc="http://purl.org/dc/elements/1.1/">
  <defs
     id="defs2">
    <linearGradient
       inkscape:collect="always"
       id="linearGradient33218">
      <stop
         style="stop-color:#ccd5ff;stop-opacity:1"
         offset="0"
         id="stop33214" />
      <stop
         style="stop-color:#aab3f5;stop-opacity:1"
         offset="1"
         id="stop33216" />
    </linearGradient>
    <linearGradient
       inkscape:collect="always"
       id="linearGradient19556">
      <stop
         style="stop-color:#a5bdee;stop-opacity:1"
         offset="0"
         id="stop19552" />
      <stop
         style="stop-color:#bac9f4;stop-opacity:1"
         offset="1"
         id="stop19554" />
    </linearGradient>
    <linearGradient
       inkscape:collect="always"
       id="linearGradient10735">
      <stop
         style="stop-color:#9dadd9;stop-opacity:1"
         offset="0"
         id="stop10731" />
      <stop
         style="stop-color:#8b8eb8;stop-opacity:1"
         offset="1"
         id="stop10733" />
    </linearGradient>
    <linearGradient
       inkscape:collect="always"
       id="linearGradient1920">
      <stop
         style="stop-color:#6e7bae;stop-opacity:1"
         offset="0"
         id="stop1916" />
      <stop
         style="stop-color:#87a9dc;stop-opacity:1"
         offset="1"
         id="stop1918" />
    </linearGradient>
    <linearGradient
       inkscape:collect="always"
       id="linearGradient1601">
      <stop
         style="stop-color:#0096fc;stop-opacity:1"
         offset="0"
         id="stop1597" />
      <stop
         style="stop-color:#0068ce;stop-opacity:1"
         offset="1"
         id="stop1599" />
    </linearGradient>
    <linearGradient
       inkscape:collect="always"
       id="linearGradient1562">
      <stop
         style="stop-color:#2da8ff;stop-opacity:1"
         offset="0"
         id="stop1558" />
      <stop
         style="stop-color:#74c0ff;stop-opacity:1"
         offset="1"
         id="stop1560" />
    </linearGradient>
    <linearGradient
       inkscape:collect="always"
       id="linearGradient861">
      <stop
         style="stop-color:#99ccff;stop-opacity:1;"
         offset="0"
         id="stop857" />
      <stop
         style="stop-color:#ffffff;stop-opacity:1"
         offset="1"
         id="stop859" />
    </linearGradient>
    <linearGradient
       inkscape:collect="always"
       xlink:href="#linearGradient1920"
       id="linearGradient1922"
       x1="-38.932289"
       y1="21.5"
       x2="-38.932289"
       y2="8"
       gradientUnits="userSpaceOnUse" />
    <linearGradient
       inkscape:collect="always"
       xlink:href="#linearGradient10735"
       id="linearGradient10737"
       x1="-37.932289"
       y1="22"
       x2="-28.932291"
       y2="22"
       gradientUnits="userSpaceOnUse" />
    <linearGradient
       inkscape:collect="always"
       xlink:href="#linearGradient19556"
       id="linearGradient19558"
       x1="-27.932291"
       y1="21"
       x2="-27.932291"
       y2="11.5"
       gradientUnits="userSpaceOnUse" />
    <linearGradient
       inkscape:collect="always"
       xlink:href="#linearGradient1562"
       id="linearGradient26952"
       gradientUnits="userSpaceOnUse"
       gradientTransform="matrix(1.5871812,0,0,1.5871812,-42.560746,7.9304953)"
       x1="8.0956125"
       y1="1.4187587"
       x2="7.2706113"
       y2="0.4584797" />
    <linearGradient
       inkscape:collect="always"
       xlink:href="#linearGradient861"
       id="linearGradient32816"
       x1="-28.683321"
       y1="21.127937"
       x2="-38.224697"
       y2="9.0368757"
       gradientUnits="userSpaceOnUse" />
    <linearGradient
       inkscape:collect="always"
       xlink:href="#linearGradient33218"
       id="linearGradient33220"
       x1="-30.932291"
       y1="11"
       x2="-28.932291"
       y2="11"
       gradientUnits="userSpaceOnUse" />
    <linearGradient
       inkscape:collect="always"
       xlink:href="#linearGradient1601"
       id="linearGradient57243"
       x1="-31.155609"
       y1="10.5"
       x2="-28.432291"
       y2="10.5"
       gradientUnits="userSpaceOnUse"
       gradientTransform="translate(0,-0.25000002)" />
    <filter
       inkscape:collect="always"
       style="color-interpolation-filters:sRGB"
       id="filter20"
       x="-0.13824003"
       y="-0.11059199"
       width="1.2764801"
       height="1.221184">
      <feGaussianBlur
         inkscape:collect="always"
         stdDeviation="0.69120023"
         id="feGaussianBlur20" />
    </filter>
  </defs>
  <sodipodi:namedview
     inkscape:guide-bbox="true"
     showguides="true"
     id="base"
     pagecolor="#ffffff"
     bordercolor="#666666"
     borderopacity="1.0"
     inkscape:pageopacity="0.0"
     inkscape:pageshadow="2"
     inkscape:zoom="27.373478"
     inkscape:cx="-5.3518958"
     inkscape:cy="7.36114"
     inkscape:document-units="px"
     inkscape:current-layer="layer1"
     inkscape:document-rotation="0"
     showgrid="false"
     units="px"
     inkscape:window-width="3840"
     inkscape:window-height="2058"
     inkscape:window-x="0"
     inkscape:window-y="0"
     inkscape:window-maximized="1"
     inkscape:snap-bbox="true"
     inkscape:bbox-nodes="true"
     fit-margin-top="0"
     fit-margin-left="0"
     fit-margin-right="0"
     fit-margin-bottom="0"
     inkscape:bbox-paths="false"
     inkscape:pagecheckerboard="0"
     inkscape:showpageshadow="2"
     inkscape:deskcolor="#d1d1d1">
    <inkscape:grid
       type="xygrid"
       id="grid1504"
       originx="0"
       originy="0"
       spacingy="1"
       spacingx="1"
       units="px"
       visible="false" />
    <inkscape:grid
       type="xygrid"
       id="grid1507"
       spacingx="0.5"
       spacingy="0.5"
       originx="0"
       originy="0"
       units="px"
       visible="false" />
  </sodipodi:namedview>
  <metadata
     id="metadata5">
    <rdf:RDF>
      <cc:Work
         rdf:about="">
        <dc:format>image/svg+xml</dc:format>
        <dc:type
           rdf:resource="http://purl.org/dc/dcmitype/StillImage" />
      </cc:Work>
    </rdf:RDF>
  </metadata>
  <g
     inkscape:label="Layer 1"
     inkscape:groupmode="layer"
     id="layer1"
     transform="translate(-12.567709)">
    <path
       id="path1"
       style="opacity:0.85;fill:#000000;fill-opacity:1;fill-rule:evenodd;stroke-linecap:round;stroke-linejoin:round;filter:url(#filter20);stop-color:#000000"
       d="M 15.067709,0.5 V 15 a 0.5,0.5 0 0 0 0.0625,0.22461 0.5,0.5 0 0 0 0.03516,0.05469 0.5,0.5 0 0 0 0.121093,0.123047 0.5,0.5 0 0 0 0.05664,0.03711 0.5,0.5 0 0 0 0.224609,0.06055 h 11 a 0.5,0.5 0 0 0 0.5,-0.5 V 4 a 0.5,0.5 0 0 0 -0.01367,-0.1152344 0.5,0.5 0 0 0 0,-0.00195 0.5,0.5 0 0 0 -0.01367,-0.042969 0.5,0.5 0 0 0 -0.0059,-0.017578 0.5,0.5 0 0 0 -0.0098,-0.025391 0.5,0.5 0 0 0 -0.002,-0.00391 0.5,0.5 0 0 0 -0.01953,-0.037109 0.5,0.5 0 0 0 -0.002,-0.00195 0.5,0.5 0 0 0 -0.01172,-0.023437 0.5,0.5 0 0 0 -0.0098,-0.013672 0.5,0.5 0 0 0 -0.0039,-0.00391 0.5,0.5 0 0 0 -0.04297,-0.052734 L 24.450522,0.6796875 A 0.5,0.5 0 0 0 24.329428,0.578125 0.5,0.5 0 0 0 24.294272,0.56054687 0.5,0.5 0 0 0 24.081381,0.50390625 0.5,0.5 0 0 0 24.067709,0.5 Z" />
    <g
       id="g66635"
       transform="translate(54.005865,-7.4946405)">
      <path
         id="rect32383"
         style="fill:url(#linearGradient32816);fill-opacity:1;fill-rule:evenodd;stroke-linecap:round;stroke-linejoin:round;stop-color:#000000"
         d="m -38.932289,8 h 8.504071 l 2.495929,3.120377 V 22 h -11 z"
         sodipodi:nodetypes="cccccc" />
      <path
         style="fill:url(#linearGradient26952);fill-opacity:1;stroke:none;stroke-width:0.419942px;stroke-linecap:butt;stroke-linejoin:miter;stroke-opacity:1"
         d="M -31.432291,8.1404667 V 11 h 3.499999 L -31.01235,8.1404667 Z"
         id="path1548-1-7"
         sodipodi:nodetypes="ccccc" />
      <path
         style="fill:none;stroke:url(#linearGradient57243);stroke-width:0.5;stroke-linecap:butt;stroke-linejoin:miter;stroke-miterlimit:4;stroke-dasharray:none;stroke-opacity:1"
         d="m -31.432291,10.25 h 3"
         id="path57178" />
      <path
         style="fill:#aab3f5;fill-opacity:1;stroke:url(#linearGradient33220);stroke-width:1px;stroke-linecap:butt;stroke-linejoin:miter;stroke-opacity:1"
         d="m -27.932291,11 h -3.5"
         id="path33155"
         sodipodi:nodetypes="cc" />
      <path
         style="fill:none;stroke:url(#linearGradient19558);stroke-width:1px;stroke-linecap:round;stroke-linejoin:miter;stroke-opacity:1"
         d="M -27.932291,22 V 11"
         id="path1357"
         sodipodi:nodetypes="cc" />
      <path
         style="fill:none;stroke:url(#linearGradient10737);stroke-width:1px;stroke-linecap:round;stroke-linejoin:miter;stroke-opacity:1"
         d="m -38.932291,22 h 11"
         id="path1355"
         sodipodi:nodetypes="cc" />
      <path
         style="fill:none;stroke:url(#linearGradient1922);stroke-width:1px;stroke-linecap:round;stroke-linejoin:miter;stroke-opacity:1"
         d="m -30.432291,8 h -8.5 v 14"
         id="path1225"
         sodipodi:nodetypes="ccc" />
      <path
         style="fill:none;stroke:#87a9dc;stroke-width:1px;stroke-linecap:round;stroke-linejoin:miter;stroke-opacity:1"
         d="m -30.432291,8 2.5,3"
         id="path1359"
         sodipodi:nodetypes="cc" />
    </g>
    <path
       d="m 20.737767,11.999908 c -0.961921,0 -1.730954,-0.317255 -2.307104,-0.951754 -0.573609,-0.634525 -0.862954,-1.482231 -0.862954,-2.548199 0,-1.065968 0.289338,-1.9136741 0.862954,-2.5482006 C 19.006813,5.3172277 19.775846,5 20.737767,5 c 0.738574,0 1.370559,0.2030426 1.898461,0.6066087 0.527901,0.4061002 0.832495,1.012673 0.913707,1.8172493 H 22.296129 C 22.258059,6.9593809 22.098162,6.6243642 21.821523,6.4137261 21.542335,6.2030671 21.184455,6.0990079 20.74539,6.0990079 c -0.591361,0 -1.060922,0.2030426 -1.406067,0.6116552 -0.345174,0.4086409 -0.517772,1.0050849 -0.517772,1.7893309 0,0.781705 0.17005,1.378149 0.51269,1.78679 0.34264,0.408641 0.807118,0.614196 1.393396,0.614196 0.459395,0 0.822329,-0.106597 1.093886,-0.322332 C 22.093094,10.36545 22.253,9.999959 22.29867,9.484764 h 1.248723 c -0.07868,0.87054 -0.373098,1.507608 -0.888329,1.911167 -0.51269,0.403558 -1.152263,0.604068 -1.921297,0.604068 z"
       fill="#0066cc"
       fill-rule="evenodd"
       stroke-linejoin="round"
       stroke-width="0.0716279"
       id="path30" />
  </g>
</svg>
