<?xml version="1.0" encoding="UTF-8" standalone="no"?>
<svg
   inkscape:export-ydpi="96"
   inkscape:export-xdpi="96"
   inkscape:export-filename="/media/klapeto/Αρχεία/WindowsXP Theme/Vectors/RASTER/code-typedef.png"
   sodipodi:docname="caller.svg"
   inkscape:version="1.3.2 (1:1.3.2+202311252150+091e20ef0f)"
   id="svg8"
   version="1.1"
   viewBox="0 0 16 16"
   height="16"
   width="16"
   xml:space="preserve"
   xmlns:inkscape="http://www.inkscape.org/namespaces/inkscape"
   xmlns:sodipodi="http://sodipodi.sourceforge.net/DTD/sodipodi-0.dtd"
   xmlns:xlink="http://www.w3.org/1999/xlink"
   xmlns="http://www.w3.org/2000/svg"
   xmlns:svg="http://www.w3.org/2000/svg"
   xmlns:rdf="http://www.w3.org/1999/02/22-rdf-syntax-ns#"
   xmlns:cc="http://creativecommons.org/ns#"
   xmlns:dc="http://purl.org/dc/elements/1.1/"><defs
     id="defs2"><linearGradient
       gradientTransform="matrix(2.5017267,0,0,2.0284981,22.740523,-9.6353788)"
       gradientUnits="userSpaceOnUse"
       y2="8.9143724"
       x2="-1.6334057"
       y1="7.2192764"
       x1="-3.2469354"
       id="linearGradient1618"
       xlink:href="#linearGradient1616"
       inkscape:collect="always" /><linearGradient
       id="linearGradient1616"
       inkscape:collect="always"><stop
         id="stop1612-5"
         offset="0"
         style="stop-color:#009900;stop-opacity:1" /><stop
         id="stop1614-5"
         offset="1"
         style="stop-color:#99ff66;stop-opacity:1" /></linearGradient><filter
       inkscape:collect="always"
       style="color-interpolation-filters:sRGB"
       id="filter5"
       x="-0.099750004"
       y="-0.27930001"
       width="1.1995"
       height="1.5586"><feGaussianBlur
         inkscape:collect="always"
         stdDeviation="0.581875"
         id="feGaussianBlur5" /></filter><filter
       inkscape:collect="always"
       style="color-interpolation-filters:sRGB"
       id="filter3"
       x="-0.15155242"
       y="-0.1427131"
       width="1.3031048"
       height="1.2854262"><feGaussianBlur
         inkscape:collect="always"
         stdDeviation="0.5666359"
         id="feGaussianBlur3" /></filter></defs><sodipodi:namedview
     inkscape:snap-global="true"
     inkscape:bbox-paths="false"
     fit-margin-bottom="0"
     fit-margin-right="0"
     fit-margin-left="0"
     fit-margin-top="0"
     inkscape:bbox-nodes="true"
     inkscape:snap-bbox="true"
     inkscape:window-maximized="1"
     inkscape:window-y="0"
     inkscape:window-x="3840"
     inkscape:window-height="2058"
     inkscape:window-width="3840"
     units="px"
     showgrid="true"
     inkscape:document-rotation="0"
     inkscape:current-layer="layer1"
     inkscape:document-units="px"
     inkscape:cy="7.7833554"
     inkscape:cx="8.4872415"
     inkscape:zoom="110.81339"
     inkscape:pageshadow="2"
     inkscape:pageopacity="0.0"
     borderopacity="1.0"
     bordercolor="#666666"
     pagecolor="#ffffff"
     id="base"
     showguides="false"
     inkscape:pagecheckerboard="0"
     inkscape:snap-grids="true"
     inkscape:showpageshadow="2"
     inkscape:deskcolor="#d1d1d1"><inkscape:grid
       originy="0"
       originx="0"
       id="grid1504"
       type="xygrid"
       spacingy="1"
       spacingx="1"
       units="px"
       visible="true" /><inkscape:grid
       spacingy="0.5"
       spacingx="0.5"
       id="grid966"
       type="xygrid"
       originx="0"
       originy="0"
       units="px"
       visible="true" /></sodipodi:namedview><metadata
     id="metadata5"><rdf:RDF><cc:Work
         rdf:about=""><dc:format>image/svg+xml</dc:format><dc:type
           rdf:resource="http://purl.org/dc/dcmitype/StillImage" /></cc:Work></rdf:RDF></metadata><g
     transform="translate(-12.567709)"
     id="layer1"
     inkscape:groupmode="layer"
     inkscape:label="Layer 1"><path
       id="path4"
       style="color:#000000;fill:#000000;fill-rule:evenodd;stroke-linecap:round;stroke-linejoin:round;-inkscape-stroke:none;fill-opacity:1;filter:url(#filter5);opacity:0.75"
       d="m 14.567709,9.5 a 0.50005,0.50005 0 0 0 -0.5,0.5 v 4 a 0.50005,0.50005 0 0 0 0.5,0.5 h 13 a 0.50005,0.50005 0 0 0 0.5,-0.5 v -4 a 0.50005,0.50005 0 0 0 -0.5,-0.5 z" /><rect
       style="fill:#ffffff;fill-opacity:1;fill-rule:evenodd;stroke:#0083d7;stroke-width:0.75;stroke-linecap:round;stroke-linejoin:round;stroke-miterlimit:4;stroke-dasharray:none;stroke-opacity:1;stop-color:#000000"
       id="rect1445"
       width="13"
       height="4"
       x="14.067709"
       y="9.5" /><path
       style="fill:#ffffff;fill-opacity:1;stroke:#0083d7;stroke-width:0.75;stroke-linecap:butt;stroke-linejoin:miter;stroke-miterlimit:4;stroke-dasharray:none;stroke-opacity:1"
       d="m 15.567709,11.5 h 7"
       id="path56402"
       sodipodi:nodetypes="cc" /><path
       id="path2"
       style="color:#000000;fill:#000000;stroke-linejoin:round;stroke-miterlimit:5.8;-inkscape-stroke:none;fill-opacity:1;filter:url(#filter3);opacity:0.75"
       d="m 21.602648,1.3417235 c -0.182913,0.00541 -0.36804,0.023641 -0.554687,0.054687 -0.768118,0.1277674 -1.550554,0.4553987 -2.253906,0.9550781 -1.376426,0.9778467 -2.423093,2.6450888 -2.46875,4.7792969 h -1.892579 a 0.1250125,0.1250125 0 0 0 -0.08594,0.2148437 l 3.640625,3.4882818 a 0.1250125,0.1250125 0 0 0 0.177734,-0.0039 L 21.473742,7.3417235 A 0.1250125,0.1250125 0 0 0 21.383898,7.130786 h -2.179687 c 0.01258,-0.9745294 0.185988,-2.3725354 0.75,-3.4882813 0.292523,-0.5786803 0.68529,-1.0746522 1.203125,-1.3984375 0.517834,-0.3237853 1.16188,-0.4804769 1.984375,-0.3671875 a 0.1250125,0.1250125 0 0 0 0.07031,-0.2363281 c -0.01102,-0.00512 -0.02603,0.00108 -0.03711,-0.00391 l 0.002,-0.00781 c -0.01022,-0.00141 -0.01522,0.00523 -0.02539,0.00391 C 22.678315,1.4239933 22.151388,1.3254939 21.602648,1.3417235 Z m 0.580078,0.40625 c 0.05481,0.011637 0.108713,0.025062 0.164063,0.035156 -0.191032,0.02207 -0.388863,0.032405 -0.582031,0.050781 0.132516,-0.038942 0.272852,-0.065765 0.417968,-0.085937 z" /><path
       sodipodi:nodetypes="ccccccc"
       id="path1610"
       d="M 22.660115,1.2535428 C 19.272441,0.7869287 18.567709,4.7746219 18.567709,6.7557039 h 2.316704 L 17.574838,10.244296 13.934303,6.7557039 h 1.985747 c 0,-4.3232284 4.27694,-6.64782164 6.740065,-5.5021611 z"
       style="fill:url(#linearGradient1618);fill-opacity:1;stroke:#006600;stroke-width:0.25;stroke-linecap:butt;stroke-linejoin:round;stroke-miterlimit:5.8;stroke-dasharray:none;stroke-opacity:1" /></g></svg>
