<?xml version="1.0" encoding="UTF-8" standalone="no"?>
<svg
   inkscape:export-ydpi="96"
   inkscape:export-xdpi="96"
   inkscape:export-filename="/media/klapeto/Αρχεία/WindowsXP Theme/Vectors/RASTER/code-typedef.png"
   sodipodi:docname="callee.svg"
   inkscape:version="1.3.2 (1:1.3.2+202311252150+091e20ef0f)"
   id="svg8"
   version="1.1"
   viewBox="0 0 16 16"
   height="16"
   width="16"
   xml:space="preserve"
   xmlns:inkscape="http://www.inkscape.org/namespaces/inkscape"
   xmlns:sodipodi="http://sodipodi.sourceforge.net/DTD/sodipodi-0.dtd"
   xmlns:xlink="http://www.w3.org/1999/xlink"
   xmlns="http://www.w3.org/2000/svg"
   xmlns:svg="http://www.w3.org/2000/svg"
   xmlns:rdf="http://www.w3.org/1999/02/22-rdf-syntax-ns#"
   xmlns:cc="http://creativecommons.org/ns#"
   xmlns:dc="http://purl.org/dc/elements/1.1/"><defs
     id="defs2"><linearGradient
       gradientTransform="matrix(0,2.5017267,2.0284981,0,4.6766272,9.5144617)"
       gradientUnits="userSpaceOnUse"
       y2="8.9143724"
       x2="-1.6334057"
       y1="7.2192764"
       x1="-3.2469354"
       id="linearGradient1618"
       xlink:href="#linearGradient1616"
       inkscape:collect="always" /><linearGradient
       id="linearGradient1616"
       inkscape:collect="always"><stop
         id="stop1612-5"
         offset="0"
         style="stop-color:#009900;stop-opacity:1" /><stop
         id="stop1614-5"
         offset="1"
         style="stop-color:#99ff66;stop-opacity:1" /></linearGradient><filter
       inkscape:collect="always"
       style="color-interpolation-filters:sRGB"
       id="filter5"
       x="-0.099750004"
       y="-0.27930001"
       width="1.1995"
       height="1.5586"><feGaussianBlur
         inkscape:collect="always"
         stdDeviation="0.581875"
         id="feGaussianBlur5" /></filter><filter
       inkscape:collect="always"
       style="color-interpolation-filters:sRGB"
       id="filter3"
       x="-0.14277619"
       y="-0.15148133"
       width="1.2855524"
       height="1.3029627"><feGaussianBlur
         inkscape:collect="always"
         stdDeviation="0.56634576"
         id="feGaussianBlur3" /></filter></defs><sodipodi:namedview
     inkscape:snap-global="true"
     inkscape:bbox-paths="false"
     fit-margin-bottom="0"
     fit-margin-right="0"
     fit-margin-left="0"
     fit-margin-top="0"
     inkscape:bbox-nodes="true"
     inkscape:snap-bbox="true"
     inkscape:window-maximized="1"
     inkscape:window-y="0"
     inkscape:window-x="3840"
     inkscape:window-height="2058"
     inkscape:window-width="3840"
     units="px"
     showgrid="true"
     inkscape:document-rotation="0"
     inkscape:current-layer="layer1"
     inkscape:document-units="px"
     inkscape:cy="6.7340872"
     inkscape:cx="7.2091746"
     inkscape:zoom="90.509668"
     inkscape:pageshadow="2"
     inkscape:pageopacity="0.0"
     borderopacity="1.0"
     bordercolor="#666666"
     pagecolor="#ffffff"
     id="base"
     showguides="false"
     inkscape:pagecheckerboard="0"
     inkscape:snap-grids="true"
     inkscape:showpageshadow="2"
     inkscape:deskcolor="#d1d1d1"><inkscape:grid
       originy="0"
       originx="0"
       id="grid1504"
       type="xygrid"
       spacingy="1"
       spacingx="1"
       units="px"
       visible="true" /><inkscape:grid
       spacingy="0.5"
       spacingx="0.5"
       id="grid966"
       type="xygrid"
       originx="0"
       originy="0"
       units="px"
       visible="true" /></sodipodi:namedview><metadata
     id="metadata5"><rdf:RDF><cc:Work
         rdf:about=""><dc:format>image/svg+xml</dc:format><dc:type
           rdf:resource="http://purl.org/dc/dcmitype/StillImage" /></cc:Work></rdf:RDF></metadata><g
     transform="translate(-12.567709)"
     id="layer1"
     inkscape:groupmode="layer"
     inkscape:label="Layer 1"><path
       id="path4"
       style="color:#000000;fill:#000000;fill-rule:evenodd;stroke-linecap:round;stroke-linejoin:round;-inkscape-stroke:none;fill-opacity:1;filter:url(#filter5);opacity:0.75"
       d="m 14.567709,9.5 a 0.50005,0.50005 0 0 0 -0.5,0.5 v 4 a 0.50005,0.50005 0 0 0 0.5,0.5 h 13 a 0.50005,0.50005 0 0 0 0.5,-0.5 v -4 a 0.50005,0.50005 0 0 0 -0.5,-0.5 z" /><rect
       style="fill:#ffffff;fill-opacity:1;fill-rule:evenodd;stroke:#0083d7;stroke-width:0.75;stroke-linecap:round;stroke-linejoin:round;stroke-miterlimit:4;stroke-dasharray:none;stroke-opacity:1;stop-color:#000000"
       id="rect1445"
       width="13"
       height="4"
       x="14.067709"
       y="9.5" /><path
       style="fill:#ffffff;fill-opacity:1;stroke:#0083d7;stroke-width:0.75;stroke-linecap:butt;stroke-linejoin:miter;stroke-miterlimit:4;stroke-dasharray:none;stroke-opacity:1"
       d="m 15.567709,11.5 h 7"
       id="path56402"
       sodipodi:nodetypes="cc" /><path
       id="path2"
       style="color:#000000;fill:#000000;stroke-linejoin:round;stroke-miterlimit:5.8;-inkscape-stroke:none;fill-opacity:1;filter:url(#filter3);opacity:0.75"
       d="m 21.594776,1.0861113 a 0.1250125,0.1250125 0 0 0 -0.07422,0.00586 0.1250125,0.1250125 0 0 0 -0.07813,0.1171875 v 1.890625 c -2.134208,0.045659 -3.80145,1.0923247 -4.779297,2.46875 -0.985353,1.3869915 -1.283431,3.0774671 -0.71875,4.3574218 0.0013,0.010174 -0.0053,0.015173 -0.0039,0.025391 l 0.0078,-0.00195 c 0.005,0.011081 -0.0012,0.026093 0.0039,0.037109 a 0.1250125,0.1250125 0 0 0 0.236328,-0.068359 c -0.113289,-0.822495 0.0434,-1.4684938 0.367187,-1.9863282 0.323785,-0.5178344 0.819757,-0.910601 1.398438,-1.203125 1.115746,-0.5640114 2.513752,-0.7374188 3.488281,-0.75 v 2.1796875 a 0.1250125,0.1250125 0 0 0 0.210938,0.091797 L 25.141632,4.939631 a 0.1250125,0.1250125 0 0 0 0.0039,-0.1777343 l -3.488281,-3.640625 a 0.1250125,0.1250125 0 0 0 -0.0625,-0.035156 z m -5.449219,7.453125 c -0.01838,0.1931687 -0.02871,0.3909995 -0.05078,0.5820313 -0.01168,-0.064015 -0.0204,-0.1282662 -0.0293,-0.1933594 0.02004,-0.1344208 0.04379,-0.2651785 0.08008,-0.3886719 z" /><path
       sodipodi:nodetypes="ccccccc"
       id="path1610"
       d="M 15.565548,9.434054 C 15.098934,6.04638 19.086627,5.341648 21.067709,5.341648 V 7.658352 L 24.556302,4.348777 21.067709,0.708242 v 1.985747 c -4.323228,0 -6.647821,4.27694 -5.502161,6.740065 z"
       style="fill:url(#linearGradient1618);fill-opacity:1;stroke:#006600;stroke-width:0.25;stroke-linecap:butt;stroke-linejoin:round;stroke-miterlimit:5.8;stroke-dasharray:none;stroke-opacity:1" /></g></svg>
