<?xml version="1.0" encoding="UTF-8" standalone="no"?>
<svg
   version="1.1"
   viewBox="0 0 16 16"
   id="svg4"
   sodipodi:docname="cancel.svg"
   width="16"
   height="16"
   inkscape:version="1.3.2 (1:1.3.2+202311252150+091e20ef0f)"
   xmlns:inkscape="http://www.inkscape.org/namespaces/inkscape"
   xmlns:sodipodi="http://sodipodi.sourceforge.net/DTD/sodipodi-0.dtd"
   xmlns="http://www.w3.org/2000/svg"
   xmlns:svg="http://www.w3.org/2000/svg">
  <sodipodi:namedview
     id="namedview4"
     pagecolor="#ffffff"
     bordercolor="#000000"
     borderopacity="0.25"
     inkscape:showpageshadow="2"
     inkscape:pageopacity="0.0"
     inkscape:pagecheckerboard="0"
     inkscape:deskcolor="#d1d1d1"
     inkscape:zoom="28.984375"
     inkscape:cx="-0.51752022"
     inkscape:cy="8.7115903"
     inkscape:window-width="3840"
     inkscape:window-height="2114"
     inkscape:window-x="0"
     inkscape:window-y="0"
     inkscape:window-maximized="1"
     inkscape:current-layer="svg4" />
  <defs
     id="defs1">
    <filter
       id="filter963"
       x="-0.10875862"
       y="-0.10725574"
       width="1.2175173"
       height="1.2145115"
       color-interpolation-filters="sRGB">
      <feGaussianBlur
         stdDeviation="10.814775"
         id="feGaussianBlur1" />
    </filter>
    <filter
       inkscape:collect="always"
       style="color-interpolation-filters:sRGB"
       id="filter6"
       x="-0.14802936"
       y="-0.14598486"
       width="1.2960587"
       height="1.2919697">
      <feGaussianBlur
         inkscape:collect="always"
         stdDeviation="0.85157836"
         id="feGaussianBlur6" />
    </filter>
  </defs>
  <path
     id="circle5"
     style="fill-rule:evenodd;stroke-width:0.312784;filter:url(#filter6);opacity:0.75"
     d="M 7.2246093,0.5 A 6.7248594,6.7248594 0 0 0 0.5,7.2246094 6.7248594,6.7248594 0 0 0 1.7773437,11.140625 6.7248594,6.7248594 0 0 0 7.5800781,14.5 6.7248594,6.7248594 0 0 0 14.30664,7.7753906 6.7248594,6.7248594 0 0 0 13.037109,3.8476562 6.7248594,6.7248594 0 0 0 7.2246093,0.5 Z" />
  <g
     transform="matrix(0.31278416,0,0,0.31278416,27.937216,-0.31278416)"
     id="g3"
     style="fill-rule:evenodd">
    <circle
       cx="-67.309998"
       cy="22.757"
       r="18.249001"
       fill="#ffffff"
       id="circle1" />
    <path
       d="m -66.692,2.7593 a 21.5,21.5 0 0 0 -21.5,21.5 21.5,21.5 0 0 0 21.5,21.5 21.5,21.5 0 0 0 21.5,-21.5 21.5,21.5 0 0 0 -21.5,-21.5 z m 0,5.5 a 16,16 0 0 1 16,16 16,16 0 0 1 -2.0996,7.9219 l -22.107,-21.656 a 16,16 0 0 1 8.207,-2.2656 z m -12.713,6.2871 22.426,22.426 a 16,16 0 0 1 -9.7129,3.2871 16,16 0 0 1 -16,-16 16,16 0 0 1 3.2871,-9.7129 z"
       fill="#a21907"
       id="path2" />
    <path
       d="m -67.833,1 a 21.5,21.5 0 0 0 -21.5,21.5 21.5,21.5 0 0 0 21.5,21.5 21.5,21.5 0 0 0 21.5,-21.5 21.5,21.5 0 0 0 -21.5,-21.5 z m 0,5.5 a 16,16 0 0 1 16,16 16,16 0 0 1 -2.0996,7.9219 l -22.107,-21.656 a 16,16 0 0 1 8.207,-2.2656 z m -12.713,6.2871 22.426,22.426 a 16,16 0 0 1 -9.7129,3.2871 16,16 0 0 1 -16,-16 16,16 0 0 1 3.2871,-9.7129 z"
       fill="#f52e14"
       id="path3" />
  </g>
</svg>
