<?xml version="1.0" encoding="UTF-8" standalone="no"?>
<svg
   height="16"
   width="16"
   id="svg2"
   version="1.1"
   inkscape:version="1.3.2 (1:1.3.2+202311252150+091e20ef0f)"
   sodipodi:docname="cellphone.svg"
   inkscape:export-filename="/media/klapeto/Αρχεία/WindowsXP Theme/Vectors/RASTER/smartphonetrusted.png"
   inkscape:export-xdpi="96"
   inkscape:export-ydpi="96"
   xmlns:inkscape="http://www.inkscape.org/namespaces/inkscape"
   xmlns:sodipodi="http://sodipodi.sourceforge.net/DTD/sodipodi-0.dtd"
   xmlns="http://www.w3.org/2000/svg"
   xmlns:svg="http://www.w3.org/2000/svg"
   xmlns:rdf="http://www.w3.org/1999/02/22-rdf-syntax-ns#"
   xmlns:cc="http://creativecommons.org/ns#"
   xmlns:dc="http://purl.org/dc/elements/1.1/">
  <metadata
     id="metadata341">
    <rdf:RDF>
      <cc:Work
         rdf:about="">
        <dc:format>image/svg+xml</dc:format>
        <dc:type
           rdf:resource="http://purl.org/dc/dcmitype/StillImage" />
      </cc:Work>
    </rdf:RDF>
  </metadata>
  <sodipodi:namedview
     pagecolor="#ffffff"
     bordercolor="#666666"
     borderopacity="1"
     objecttolerance="10"
     gridtolerance="10"
     guidetolerance="10"
     inkscape:pageopacity="0"
     inkscape:pageshadow="2"
     inkscape:window-width="3840"
     inkscape:window-height="2058"
     id="namedview339"
     showgrid="false"
     inkscape:zoom="29.283018"
     inkscape:cx="16.374678"
     inkscape:cy="29.385632"
     inkscape:window-x="3840"
     inkscape:window-y="0"
     inkscape:window-maximized="1"
     inkscape:current-layer="svg2"
     fit-margin-top="0"
     fit-margin-left="0"
     fit-margin-right="0"
     fit-margin-bottom="0"
     inkscape:pagecheckerboard="0"
     height="256px"
     inkscape:showpageshadow="2"
     inkscape:deskcolor="#d1d1d1">
    <inkscape:grid
       type="xygrid"
       id="grid982"
       originx="0"
       originy="0"
       spacingy="1"
       spacingx="1"
       units="px"
       visible="false" />
    <inkscape:grid
       type="xygrid"
       id="grid984"
       spacingx="0.5"
       spacingy="0.5"
       originx="0"
       originy="0"
       units="px"
       visible="false" />
  </sodipodi:namedview>
  <defs
     id="defs98">
    <linearGradient
       gradientTransform="matrix(-0.01501331,-6.4557372e-5,-1.8290428e-4,0.02610517,105.71248,21.273825)"
       gradientUnits="userSpaceOnUse"
       id="gradient29"
       spreadMethod="pad"
       x1="-819.20001"
       x2="819.20001">
      <stop
         offset="0.0"
         stop-color="#6666cc"
         id="stop264" />
      <stop
         offset="0.4823529411764706"
         stop-color="#000000"
         id="stop266" />
      <stop
         offset="1.0"
         stop-color="#666666"
         id="stop268" />
    </linearGradient>
    <linearGradient
       gradientTransform="matrix(0.03121272,0.03236926,0.03469573,-0.0341524,139.63357,117.98351)"
       gradientUnits="userSpaceOnUse"
       id="gradient30"
       spreadMethod="pad"
       x1="-819.20001"
       x2="819.20001">
      <stop
         offset="0.0"
         stop-color="#333333"
         id="stop271" />
      <stop
         offset="0.5882352941176471"
         stop-color="#333333"
         id="stop273" />
      <stop
         offset="1.0"
         stop-color="#333333"
         id="stop275" />
    </linearGradient>
    <linearGradient
       gradientTransform="matrix(0.02942144,0.02995942,0.03256561,-0.03168874,138.31836,115.76997)"
       gradientUnits="userSpaceOnUse"
       id="gradient31"
       spreadMethod="pad"
       x1="-819.20001"
       x2="819.20001">
      <stop
         offset="0.0"
         stop-color="#009900"
         id="stop278" />
      <stop
         offset="0.5882352941176471"
         stop-color="#66cc33"
         id="stop280" />
      <stop
         offset="1.0"
         stop-color="#99ff66"
         id="stop282" />
    </linearGradient>
    <linearGradient
       gradientTransform="matrix(0.01337283,0.01373635,0.01448742,-0.01414478,10.249151,28.26042)"
       gradientUnits="userSpaceOnUse"
       id="gradient32"
       spreadMethod="pad"
       x1="-819.20001"
       x2="819.20001">
      <stop
         offset="0.0"
         stop-color="#666666"
         id="stop285" />
      <stop
         offset="0.5882352941176471"
         stop-color="#dddddd"
         id="stop287" />
      <stop
         offset="1.0"
         stop-color="#ccccff"
         id="stop289" />
    </linearGradient>
    <linearGradient
       gradientTransform="matrix(-0.0226598,-4.330351e-4,1.3716686e-4,0.00506988,105.15168,46.944636)"
       gradientUnits="userSpaceOnUse"
       id="gradient33"
       spreadMethod="pad"
       x1="-819.20001"
       x2="819.20001">
      <stop
         offset="0.0"
         stop-color="#333333"
         id="stop292" />
      <stop
         offset="0.3686274509803922"
         stop-color="#333333"
         id="stop294" />
      <stop
         offset="1.0"
         stop-color="#999999"
         id="stop296" />
    </linearGradient>
    <linearGradient
       gradientTransform="matrix(-0.06309781,-0.06445879,-0.06078751,0.05959863,96.017786,150.12815)"
       gradientUnits="userSpaceOnUse"
       id="gradient34"
       spreadMethod="pad"
       x1="-819.20001"
       x2="819.20001">
      <stop
         offset="0.0"
         stop-color="#999999"
         id="stop299" />
      <stop
         offset="1.0"
         stop-color="#dddddd"
         id="stop301" />
    </linearGradient>
    <linearGradient
       gradientTransform="matrix(0.00229691,-1.6675366e-4,-1.6675366e-4,-0.00229691,151.89404,205.7597)"
       gradientUnits="userSpaceOnUse"
       id="gradient35"
       spreadMethod="pad"
       x1="-819.20001"
       x2="819.20001">
      <stop
         offset="0.0"
         stop-color="#dddddd"
         id="stop304" />
      <stop
         offset="1.0"
         stop-color="#999999"
         id="stop306" />
    </linearGradient>
    <linearGradient
       gradientTransform="matrix(-5.3790032e-5,-0.00392143,-0.01033606,7.5039113e-4,150.9877,75.596883)"
       gradientUnits="userSpaceOnUse"
       id="gradient36"
       spreadMethod="pad"
       x1="-819.20001"
       x2="819.20001">
      <stop
         offset="0.0"
         stop-color="#333333"
         id="stop309" />
      <stop
         offset="0.6235294117647059"
         stop-color="#999999"
         id="stop311" />
      <stop
         offset="1.0"
         stop-color="#333333"
         id="stop313" />
    </linearGradient>
    <linearGradient
       gradientTransform="matrix(-0.00198761,-0.00193382,-0.00193382,0.00198761,145.04909,76.489829)"
       gradientUnits="userSpaceOnUse"
       id="gradient37"
       spreadMethod="pad"
       x1="-819.20001"
       x2="819.20001">
      <stop
         offset="0.0"
         stop-color="#999999"
         id="stop316" />
      <stop
         offset="1.0"
         stop-color="#cccccc"
         id="stop318" />
    </linearGradient>
    <linearGradient
       gradientTransform="matrix(-5.2984779e-4,-0.00411777,-0.01033606,7.5039113e-4,125.77816,76.618918)"
       gradientUnits="userSpaceOnUse"
       id="gradient38"
       spreadMethod="pad"
       x1="-819.20001"
       x2="819.20001">
      <stop
         offset="0.0"
         stop-color="#333333"
         id="stop321" />
      <stop
         offset="0.6235294117647059"
         stop-color="#999999"
         id="stop323" />
      <stop
         offset="1.0"
         stop-color="#333333"
         id="stop325" />
    </linearGradient>
    <linearGradient
       gradientTransform="matrix(-0.00198761,-0.00193382,-0.00193382,0.00198761,119.97939,77.848058)"
       gradientUnits="userSpaceOnUse"
       id="gradient39"
       spreadMethod="pad"
       x1="-819.20001"
       x2="819.20001">
      <stop
         offset="0.0"
         stop-color="#999999"
         id="stop328" />
      <stop
         offset="1.0"
         stop-color="#cccccc"
         id="stop330" />
    </linearGradient>
    <linearGradient
       gradientTransform="matrix(0.01920367,0.0196179,0.0254193,-0.02516651,127.80071,115.60994)"
       gradientUnits="userSpaceOnUse"
       id="gradient40"
       spreadMethod="pad"
       x1="-819.20001"
       x2="819.20001">
      <stop
         offset="0.0"
         stop-color="#ccffcc"
         id="stop333" />
      <stop
         offset="0.23529411764705882"
         stop-color="#99ff66"
         id="stop335" />
      <stop
         offset="1.0"
         stop-color="#66cc33"
         id="stop337" />
    </linearGradient>
    <linearGradient
       gradientTransform="matrix(0.0688643,0.07073627,0.07460396,-0.07283951,135.51444,145.52896)"
       gradientUnits="userSpaceOnUse"
       id="gradient32-3"
       spreadMethod="pad"
       x1="-819.20001"
       x2="819.20001">
      <stop
         offset="0.0"
         stop-color="#666666"
         id="stop285-6" />
      <stop
         offset="0.5882352941176471"
         stop-color="#dddddd"
         id="stop287-7" />
      <stop
         offset="1.0"
         stop-color="#ccccff"
         id="stop289-5" />
    </linearGradient>
    <filter
       inkscape:collect="always"
       style="color-interpolation-filters:sRGB"
       id="filter26"
       x="-0.27241301"
       y="-0.10065886"
       width="1.544826"
       height="1.2013177">
      <feGaussianBlur
         inkscape:collect="always"
         stdDeviation="0.62913954"
         id="feGaussianBlur26" />
    </filter>
  </defs>
  <path
     id="path1"
     style="fill:#000000;fill-opacity:1;stroke:none;stroke-width:0.0612245px;stroke-linecap:butt;stroke-linejoin:miter;stroke-opacity:1;filter:url(#filter26);opacity:0.75"
     d="m 7.0940733,0.50029226 c -0.3240597,0.008893 -0.5249865,0.0982783 -0.6054688,0.26757812 l -0.054687,0.42187502 -0.013672,-0.00586 -0.00781,0.1835938 v 0.2050781 l -0.015625,-0.00586 -0.00781,0.1835938 0.015625,0.00586 -0.044922,1.2265625 c -0.2858687,0.086725 -0.4739951,0.2531068 -0.5644531,0.5 -0.066416,0.1886003 -0.083297,2.1430845 -0.048828,5.8632812 0.030463,3.7299102 0.094504,5.6278982 0.1933593,5.6914052 0.5800182,0.330161 1.0918908,0.483552 1.5332031,0.460938 L 9.3421202,15.14287 c 1.0056378,-0.233225 1.5625898,-0.440759 1.6718748,-0.623047 0.125313,-0.22115 0.20632,-1.920789 0.24414,-5.0996088 l 0.0039,-0.4238281 -0.0078,-0.021484 0.01758,-3.2675782 c -0.0089,-1.356486 -0.05585,-2.085131 -0.138672,-2.1875 L 11.072589,3.4612298 10.887042,3.3323235 10.525714,3.2170892 10.375323,3.2073235 10.049151,3.1741204 9.7210264,3.1409173 8.3128233,3.1233392 C 8.306017,3.0295879 8.1560245,2.9682563 7.8616514,2.9377923 L 7.7893858,1.7483392 7.7210264,0.71318288 7.1604795,0.50029226 c -0.022687,-1.2007e-4 -0.044802,-5.9286e-4 -0.066406,0 z" />
  <g
     id="g4663"
     transform="matrix(0.06122449,0,0,0.06122449,0.16326461,0)">
    <path
       style="fill:#000000;fill-opacity:1;stroke:none;stroke-width:1px;stroke-linecap:butt;stroke-linejoin:miter;stroke-opacity:1"
       d="m 96.588549,37.789481 -9.074292,7.595167 -3.184039,8.435515 0.431271,104.148947 1.96753,77.44125 17.743791,7.28944 h 10.45081 l 28.20374,-4.89988 24.72196,-8.78671 2.75363,-42.18046 0.29394,-92.167327 -2.40764,-45.966853 -33.69723,-2.151076 -12.56802,-2.75216 -6.47775,-4.133627 z"
       id="path1218"
       sodipodi:nodetypes="cccccccccccccccc" />
    <rect
       style="fill:#83e950;fill-opacity:1;fill-rule:evenodd;stroke:none;stroke-width:5;stroke-linecap:round;stroke-linejoin:round;stop-color:#000000"
       id="rect1511"
       width="42.864441"
       height="58.782917"
       x="118.07281"
       y="86.34684" />
    <path
       style="fill:#333333;fill-rule:evenodd;stroke:none;stroke-width:5.14957"
       inkscape:connector-curvature="0"
       id="path76"
       d="m 173.12167,138.75793 -0.13986,-0.33622 0.28245,-53.358813 c -0.14614,-22.155961 -0.89564,-34.069959 -2.24848,-35.741988 l -0.99381,-0.966914 -3.03789,-2.088469 -5.90903,-1.880025 -2.43677,-0.169472 -5.3496,-0.535231 -5.3496,-0.535236 -22.99601,-0.293165 c -0.11117,-1.531272 -2.5708,-2.545698 -7.3789,-3.043276 l 0.0268,1.960713 c -2.4278,0.484122 -5.71448,0.799698 -9.86004,0.946728 l -4.73369,-0.0027 -9.886932,-1.013981 -0.08337,-1.148457 c -4.669137,1.416516 -7.742448,4.14107 -9.219931,8.173663 -1.084801,3.080475 -1.345706,35.00235 -0.782714,95.765623 0.497562,60.92195 1.553661,91.90158 3.168298,92.93886 9.47364,5.39263 17.814509,7.90427 25.022619,7.53491 l 30.52015,-5.79472 c 16.42543,-3.80934 25.53065,-7.20271 27.31564,-10.18009 2.04678,-3.61211 3.37903,-31.37857 3.99677,-83.29935 l 0.0739,-6.93243"
       sodipodi:nodetypes="ccccccccccccccccccccccccc" />
    <path
       inkscape:connector-curvature="0"
       style="fill:url(#gradient32-3);fill-rule:evenodd;stroke:none;stroke-width:5.14957"
       id="path74-3"
       d="m 151.1706,49.491703 -12.57653,0.104896 c -16.10617,0.784458 -24.90204,2.077251 -26.38759,3.87838 -1.48555,1.801127 -2.10552,33.017877 -1.8599,93.650251 0.18017,60.79106 0.93279,91.8312 2.25787,93.12041 1.25963,1.4479 9.97615,0.12238 26.14956,-3.97655 16.26666,-3.87481 25.17549,-6.79213 26.72648,-8.75194 1.93382,-1.98761 3.08453,-30.66449 3.45214,-86.03064 l 0.0713,-2.19874 0.0592,-5.54594 -0.0619,-39.017918 c -0.24563,-27.767351 -1.14305,-42.249011 -2.69226,-43.44498 l -1.19015,-0.490805 -0.95211,-0.392706 -0.47603,-0.196302 -7.31031,-0.508314 -5.20974,-0.19903 m 4.20248,22.900529 5.06988,-0.137184 c 2.54705,3.278613 2.43812,6.01886 -0.32679,8.22074 l -16.35811,0.494873 c -2.0154,-2.316636 -2.55107,-4.394346 -1.60702,-6.23313 l 1.69579,-2.085781 11.52625,-0.259538 m -26.93265,1.147107 6.65271,-0.598446 c 2.77117,3.185375 2.74157,5.958346 -0.0888,8.318911 l -16.07839,1.167273 c -2.17408,-2.382084 -2.7891,-4.492518 -1.84505,-6.331301 l 1.93382,-1.987605 9.42567,-0.568873 m 11.4119,77.67812 c 3.48302,-0.79163 5.44373,-0.81853 5.88214,-0.0807 0.82122,0.71005 1.24483,2.83439 1.27083,6.373 0.0915,3.37991 -0.18513,5.40114 -0.82974,6.06367 l -5.61721,2.13958 c -3.19345,0.53971 -5.34557,0.58047 -6.45637,0.1223 l -0.75308,-5.60242 0.88622,-6.87595 5.61721,-2.13957 m -22.52265,4.63685 5.71539,-2.3776 c 3.48303,-0.79163 5.68177,-0.72036 6.59623,0.21381 0.82122,0.71005 1.13276,2.881 0.93463,6.51285 0.25013,3.44537 -0.0264,5.4666 -0.82974,6.06369 l -5.95342,2.27942 -6.55453,0.36042 -0.79478,-6.17665 0.88622,-6.87594 m 11.92296,16.33659 c 0.82122,0.71005 1.32417,2.8671 1.50886,6.47115 0.0257,3.53861 -0.31629,5.71853 -1.02608,6.53975 l -5.85525,2.0414 c -3.32433,0.85708 -5.58852,0.94448 -6.79256,0.26221 l -0.55656,-6.07846 0.74637,-7.21214 c 0.55137,-0.88667 2.50311,-1.56714 5.85524,-2.0414 3.48302,-0.79163 5.52308,-0.7858 6.12017,0.0175 m -11.83153,19.90835 c 0.39269,-0.95211 2.26509,-1.6653 5.61722,-2.13956 3.64171,-0.72619 5.87317,-0.73426 6.69439,-0.0242 0.82122,0.71005 1.13276,2.881 0.93463,6.51285 0.18466,3.60406 -0.15737,5.78398 -1.02608,6.53975 l -5.85524,2.0414 c -3.10021,0.76384 -5.28505,0.88398 -6.55454,0.36041 l -0.55674,-6.07847 0.74636,-7.21214 m 45.20131,-37.3396 c 0.15689,3.22124 -0.15242,5.32181 -0.92791,6.30172 l -5.28102,1.99971 c -3.19345,0.53971 -5.34557,0.58047 -6.45637,0.1223 l -0.51504,-5.50425 0.88623,-6.87594 c 0.48592,-0.72798 2.24626,-1.39455 5.28101,-1.99971 3.25889,-0.69839 5.29895,-0.69256 6.12017,0.0175 l 0.89294,5.93856 m -16.9404,14.73762 c 0.59709,0.80329 0.94135,2.89489 1.03279,6.27481 -0.0672,3.31448 -0.42314,5.30299 -1.06776,5.96552 l -5.47736,2.47576 c -2.96931,0.44648 -5.12144,0.48725 -6.45637,0.12231 l 0.13317,-12.47837 5.71539,-2.37759 c 3.32433,-0.85708 5.36439,-0.85125 6.12017,0.0175 m 4.69198,-0.57155 5.14116,-2.33591 c 3.35213,-0.47426 5.35947,-0.38909 6.022,0.25552 l 1.13097,6.03679 c 0.0915,3.37993 -0.26446,5.36843 -1.06777,5.96552 l -5.37919,2.23774 -6.12016,-0.0175 -0.51504,-5.50426 0.78805,-6.63791 m -0.27571,16.87585 5.37919,-2.23774 c 3.25889,-0.69839 5.2196,-0.72529 5.88214,-0.0807 0.75577,0.86874 1.17938,2.99307 1.27083,6.37299 -0.002,3.15579 -0.3252,5.06495 -0.96961,5.72748 l -5.61721,2.13957 c -2.87607,0.67061 -4.8695,0.77684 -5.9803,0.31871 l -0.65492,-5.84046 0.68988,-6.39988 m -3.51933,7.18256 c -0.0672,3.31447 -0.42314,5.30298 -1.06777,5.96551 l -5.61722,2.13957 c -3.03475,0.60516 -5.2196,0.7253 -6.55453,0.36042 -0.46261,-7.43225 -0.3855,-11.67105 0.23131,-12.7164 l 5.85525,-2.0414 c 3.32433,-0.85708 5.28504,-0.88398 5.88213,-0.0807 0.75578,0.86874 1.17939,2.99307 1.27083,6.37299 m 14.92455,8.38347 c 0.82122,0.71005 1.24483,2.83438 1.27083,6.37298 -0.002,3.15579 -0.3252,5.06496 -0.96961,5.72749 l -5.61721,2.13957 -6.21833,0.22056 0.035,-12.24034 5.61722,-2.13956 c 3.41758,-0.63295 5.37829,-0.65985 5.88214,-0.0807 m -16.04477,15.94256 -5.51905,1.90154 -6.21834,0.22055 -0.6549,-5.84044 0.78805,-6.63792 c 0.55137,-0.88667 2.42377,-1.59985 5.61721,-2.13956 3.25889,-0.6984 5.26623,-0.61323 6.022,0.25552 0.72799,0.48592 1.02563,2.46546 0.89294,5.93862 0.25013,3.44537 -0.0592,5.54594 -0.92791,6.30172 m -16.0098,3.70221 -5.71538,2.37759 c -3.25889,0.6984 -5.49036,0.70647 -6.6944,0.0242 l -0.5568,-6.07849 0.74637,-7.21214 5.61722,-2.13956 c 3.6417,-0.72619 5.87316,-0.73426 6.69439,-0.0242 0.75577,0.86873 1.11394,3.15175 1.07449,6.84904 0.0915,3.37992 -0.2972,5.44777 -1.16595,6.20354"
       sodipodi:nodetypes="ccscccccccccccccccccccccccccccccccccccccccccccccccccccccccccsccccccccccccccccccccccccccccccccccccccccccccccccccccccccccccccccccccccccccc" />
    <path
       inkscape:connector-curvature="0"
       style="fill:url(#gradient29);fill-rule:evenodd;stroke:none;stroke-width:5.14957"
       id="path68"
       d="M 116.38478,20.383575 115.27398,3.4929352 106.13072,4.9543491e-4 Q 97.237585,-0.04657161 95.134315,4.3778015 l -0.88622,6.8759425 8.458765,0.424958 12.91274,-0.244744 0.0688,2.534939 -12.43668,0.441086 -9.369193,-0.24341 0.01236,3.347195 q 6.06321,0.829744 10.558863,0.734265 4.39748,0.142551 11.62442,-0.497566 l 0.3066,2.633111 -11.62442,0.497567 Q 99.592303,21.256342 93.766643,20.524769 L 93.027,40.551472 l 0.08337,1.148457 9.88693,1.013981 1.38649,0.01493 3.3472,-0.01236 q 6.21833,-0.220556 9.86004,-0.946733 l -0.0268,-1.960714 -1.17937,-19.425581" />
    <path
       style="fill:#999999;fill-rule:evenodd;stroke:none;stroke-width:5.14957"
       inkscape:connector-curvature="0"
       id="path78"
       d="m 116.38478,20.383575 -0.3066,-2.633111 q -7.22694,0.640119 -11.62442,0.497567 -4.495653,0.09548 -10.559342,-0.734264 l -0.238013,-0.09817 -0.127761,3.010998 0.238013,0.09817 q 5.82566,0.731572 10.993713,0.356376 l 11.62442,-0.497567 m -22.502474,-6.217003 9.369194,0.24341 12.43667,-0.441086 -0.0687,-2.534938 -12.91274,0.244743 -8.458764,-0.424958 -0.238013,-0.09817 -0.127761,3.010999" />
    <path
       inkscape:connector-curvature="0"
       style="fill:url(#gradient33);fill-rule:evenodd;stroke:none;stroke-width:5.14957"
       id="path80"
       d="m 107.73101,42.716598 -3.3472,0.01236 -1.38648,-0.01493 q -14.537252,0.131778 -16.515448,6.278843 -0.112981,1.624514 14.088088,1.632588 13.62682,0.04995 22.05869,-1.485985 l 1.3031,-1.133667 q 0.0149,-1.386485 -1.79126,-2.409874 l -14.40949,-2.879217" />
    <path
       inkscape:connector-curvature="0"
       style="fill:url(#gradient35);fill-rule:evenodd;stroke:none;stroke-width:5.14957"
       id="path84"
       d="m 138.70161,156.03451 q 0.21113,-1.86254 -1.74958,-1.83565 -1.86254,-0.21108 -2.07368,1.65141 0.0268,1.96071 1.98761,1.93382 1.96072,-0.0268 1.83565,-1.74958 m -18.33361,1.90826 q -1.86254,-0.21108 -1.83565,1.74958 -0.21113,1.86254 1.74958,1.83564 2.19875,0.0713 2.07368,-1.6514 -0.0268,-1.96072 -1.98761,-1.93382 m -1.94458,20.92234 q 0.12503,1.72268 2.08577,1.69578 1.96072,-0.0268 1.73748,-1.51154 0.21108,-1.86255 -1.74958,-1.83565 -1.86254,-0.21113 -2.07367,1.65141 m 1.36361,15.60232 q -1.62451,-0.11298 -1.83564,1.74958 0.0268,1.96071 1.9876,1.93382 1.96072,-0.0268 1.83565,-1.74958 0.21118,-1.86254 -1.98761,-1.93382 m 30.94647,-41.26909 q 0.12503,1.72268 1.98761,1.93382 2.29691,-0.16675 2.17184,-1.88944 -0.0268,-1.96071 -1.98761,-1.93381 -2.19873,-0.0713 -2.17184,1.88943 m 1.96474,17.52135 q -2.19874,-0.0713 -2.17185,1.88944 0.0268,1.96071 1.98761,1.93381 2.19874,0.0713 2.17184,-1.88943 -0.0268,-1.96071 -1.9876,-1.93382 m -17.97051,3.72911 q 0.0268,1.96072 1.98761,1.93382 1.96071,-0.0268 1.83564,-1.74957 0.21114,-1.86255 -1.74958,-1.83566 -2.10057,-0.30928 -2.07367,1.65141 m 17.4151,12.47434 -2.17184,1.88944 q 0.12503,1.72268 1.9876,1.93382 1.96071,-0.0268 1.93382,-1.98761 0.21113,-1.86255 -1.74958,-1.83565 m -0.36176,20.46107 q 1.96072,-0.0268 2.07368,-1.65141 -0.0268,-1.96071 -1.98761,-1.93381 -1.96071,0.0268 -1.93381,1.9876 l 1.84774,1.59762 M 134.53542,192.4731 q 0.0268,1.96072 1.98761,1.93382 1.96071,-0.0268 1.83564,-1.74958 0.21108,-1.86254 -1.74958,-1.83564 -2.10057,-0.30929 -2.07367,1.6514 m -14.2683,19.73892 q -1.72268,0.12503 -1.93381,1.9876 0.12503,1.72269 1.98761,1.93382 2.2969,-0.16674 2.17184,-1.88944 -0.0268,-1.96071 -2.22564,-2.03198 m 15.98021,-0.92925 q 1.96071,-0.0268 1.83565,-1.74958 0.21118,-1.86254 -1.74958,-1.83565 -1.86254,-0.21113 -2.07367,1.65141 0.0268,1.96071 1.9876,1.93382" />
    <path
       inkscape:connector-curvature="0"
       style="fill:url(#gradient36);fill-rule:evenodd;stroke:none;stroke-width:5.14957"
       id="path86"
       d="m 143.82939,78.771994 14.06119,-0.328131 c 2.34443,-1.632583 2.35027,-3.672636 0.0175,-6.120164 l -2.53494,0.0688 -11.52624,0.259539 -1.6958,2.085781 0.26495,2.058879"
       sodipodi:nodetypes="ccccccc" />
    <path
       inkscape:connector-curvature="0"
       style="fill:url(#gradient37);fill-rule:evenodd;stroke:none;stroke-width:5.14957"
       id="path88"
       d="m 142.41597,76.796434 1.03549,1.541142 1.28832,0.252792 q 2.3386,0.407486 2.40988,-1.791267 0.16947,-2.43677 -2.3655,-2.368193 -2.24043,-0.645499 -2.40987,1.791272 l 0.0417,0.574223" />
    <path
       inkscape:connector-curvature="0"
       style="fill:url(#gradient38);fill-rule:evenodd;stroke:none;stroke-width:5.14957"
       id="path90"
       d="m 117.08136,76.095784 0.26494,2.05889 1.41335,1.97558 14.01951,-0.902354 c 2.34443,-1.632583 2.31752,-3.593291 -0.0807,-5.882135 l -4.25762,0.193675 -9.42567,0.568878 -1.93382,1.987605"
       sodipodi:nodetypes="cccccccc" />
    <path
       inkscape:connector-curvature="0"
       style="fill:url(#gradient39);fill-rule:evenodd;stroke:none;stroke-width:5.14957"
       id="path92"
       d="m 117.34628,78.154674 1.03549,1.541132 1.28832,0.252792 q 2.53493,-0.06875 2.50804,-2.029296 0.16948,-2.43677 -2.36549,-2.368188 -2.43677,-0.169473 -2.50805,2.029295 l 0.0417,0.574229" />
    <path
       inkscape:connector-curvature="0"
       style="fill:url(#gradient34);fill-rule:evenodd;stroke:none;stroke-width:5.14957"
       id="path82"
       d="m 108.59167,56.161866 q 0.40749,-2.338599 -3.89184,-2.719178 l -8.893135,-0.04686 q -7.982712,-0.228589 -9.440472,1.955333 l -0.840528,74.295949 q 0.293113,75.59906 3.427836,104.46511 l 18.958929,6.70495 -1.06503,-97.36324 1.74424,-87.292063 m -15.634602,8.870271 q 0.184251,-3.823251 2.621006,-3.653809 3.109165,-0.110253 2.924929,3.712983 0.151964,3.683398 -2.85904,3.555643 -2.772965,-0.02935 -2.686895,-3.614817" />
    <path
       inkscape:connector-curvature="0"
       style="fill:url(#gradient30);fill-rule:evenodd;stroke:none;stroke-width:5.14957"
       id="path70"
       d="m 142.3688,85.689584 -25.93842,2.114011 0.14656,62.448295 49.23164,-7.2686 -0.0386,-5.30791 0.32679,-8.22074 -0.19228,-31.273239 -0.81898,-12.871037 -22.7163,0.379215"
       sodipodi:nodetypes="ccccccccc" />
    <path
       inkscape:connector-curvature="0"
       style="fill:url(#gradient31);fill-rule:evenodd;stroke:none;stroke-width:5.14957"
       id="path72"
       d="m 140.88424,85.912807 -23.97771,2.087115 0.38725,57.812788 45.45008,-6.87861 -0.0386,-5.30792 0.14527,-9.13116 -0.0433,-22.85616 -0.69122,-15.882038 -12.00231,0.06319 -4.39748,-0.14254 -4.83185,0.235335"
       sodipodi:nodetypes="ccccccccccc" />
    <path
       inkscape:connector-curvature="0"
       style="fill:url(#gradient40);fill-rule:evenodd;stroke:none;stroke-width:5.14957"
       id="path94"
       d="m 131.69388,140.61104 q -4.23475,-15.39388 3.64307,-27.7418 8.21402,-12.48777 12.78633,-24.249351 l -29.14576,2.462302 -0.0299,52.070509 12.74598,-2.54166" />
  </g>
</svg>
