<?xml version="1.0" encoding="UTF-8" standalone="no"?>
<svg
   inkscape:export-ydpi="96"
   inkscape:export-xdpi="96"
   inkscape:export-filename="character-set.png"
   sodipodi:docname="character-set.svg"
   inkscape:version="1.2.2 (b0a8486541, 2022-12-01)"
   id="svg8"
   version="1.1"
   viewBox="0 0 16 16"
   height="16"
   width="16"
   xmlns:inkscape="http://www.inkscape.org/namespaces/inkscape"
   xmlns:sodipodi="http://sodipodi.sourceforge.net/DTD/sodipodi-0.dtd"
   xmlns:xlink="http://www.w3.org/1999/xlink"
   xmlns="http://www.w3.org/2000/svg"
   xmlns:svg="http://www.w3.org/2000/svg"
   xmlns:rdf="http://www.w3.org/1999/02/22-rdf-syntax-ns#"
   xmlns:cc="http://creativecommons.org/ns#"
   xmlns:dc="http://purl.org/dc/elements/1.1/">
  <defs
     id="defs2">
    <linearGradient
       id="linearGradient1159"
       inkscape:collect="always">
      <stop
         id="stop1155"
         offset="0"
         style="stop-color:#0088ee;stop-opacity:1" />
      <stop
         id="stop1157"
         offset="1"
         style="stop-color:#003399;stop-opacity:1" />
    </linearGradient>
    <linearGradient
       id="linearGradient1151"
       inkscape:collect="always">
      <stop
         id="stop1147"
         offset="0"
         style="stop-color:#ff9933;stop-opacity:1" />
      <stop
         id="stop1149"
         offset="1"
         style="stop-color:#ff3300;stop-opacity:1" />
    </linearGradient>
    <linearGradient
       gradientUnits="userSpaceOnUse"
       y2="83.17775"
       x2="9.1269293"
       y1="83.17775"
       x1="0.072128415"
       id="linearGradient1153"
       xlink:href="#linearGradient1151"
       inkscape:collect="always" />
    <linearGradient
       gradientUnits="userSpaceOnUse"
       y2="82.670723"
       x2="-15.330586"
       y1="73.643463"
       x1="-12.699667"
       id="linearGradient1161"
       xlink:href="#linearGradient1159"
       inkscape:collect="always" />
  </defs>
  <sodipodi:namedview
     inkscape:snap-global="true"
     inkscape:bbox-paths="false"
     fit-margin-bottom="0"
     fit-margin-right="0"
     fit-margin-left="0"
     fit-margin-top="0"
     inkscape:bbox-nodes="true"
     inkscape:snap-bbox="true"
     inkscape:window-maximized="1"
     inkscape:window-y="0"
     inkscape:window-x="1280"
     inkscape:window-height="2061"
     inkscape:window-width="3840"
     units="px"
     showgrid="false"
     inkscape:document-rotation="0"
     inkscape:current-layer="layer1"
     inkscape:document-units="px"
     inkscape:cy="14.153185"
     inkscape:cx="11.578874"
     inkscape:zoom="45.254832"
     inkscape:pageshadow="2"
     inkscape:pageopacity="0.0"
     borderopacity="1.0"
     bordercolor="#666666"
     pagecolor="#ffffff"
     id="base"
     inkscape:object-paths="false"
     inkscape:snap-smooth-nodes="true"
     inkscape:snap-others="true"
     inkscape:snap-grids="true"
     showguides="false"
     inkscape:pagecheckerboard="0"
     inkscape:showpageshadow="2"
     inkscape:deskcolor="#d1d1d1">
    <inkscape:grid
       originy="0"
       originx="0"
       id="grid1504"
       type="xygrid"
       spacingy="1"
       spacingx="1"
       units="px"
       visible="false" />
    <inkscape:grid
       originy="0"
       originx="0"
       spacingy="0.5"
       spacingx="0.5"
       id="grid1507"
       type="xygrid"
       units="px"
       visible="false" />
  </sodipodi:namedview>
  <metadata
     id="metadata5">
    <rdf:RDF>
      <cc:Work
         rdf:about="">
        <dc:format>image/svg+xml</dc:format>
        <dc:type
           rdf:resource="http://purl.org/dc/dcmitype/StillImage" />
      </cc:Work>
    </rdf:RDF>
  </metadata>
  <g
     transform="translate(-12.567709)"
     id="layer1"
     inkscape:groupmode="layer"
     inkscape:label="Layer 1">
    <g
       style="stroke-width:0.80409;stroke-miterlimit:4;stroke-dasharray:none"
       transform="matrix(0.62182083,0,0,0.62182083,13.31121,-46.936267)"
       id="g1169">
      <path
         d="m -12.154753,83.145844 -2.34862,-3.842544 h -2.485085 v 3.842544 h -2.118785 V 73.025949 h 5.056356 q 0.948067,0 1.651935,0.215469 0.71105,0.208288 1.185083,0.603316 0.474034,0.387845 0.703868,0.948066 0.237017,0.553039 0.237017,1.249725 0,0.567403 -0.172376,1.041437 -0.165194,0.466851 -0.466851,0.833149 -0.294476,0.366299 -0.703868,0.61768 -0.409393,0.244199 -0.890608,0.359117 l 2.7364653,4.251936 z m -0.251382,-7.017131 q 0,-0.73978 -0.488398,-1.098896 -0.481216,-0.359116 -1.379006,-0.359116 h -2.714919 v 2.987847 h 2.772378 q 0.474033,0 0.811602,-0.107735 0.344752,-0.114917 0.560221,-0.316022 0.222653,-0.208288 0.330387,-0.488398 0.107735,-0.280111 0.107735,-0.61768 z"
         id="text1131"
         style="font-weight:bold;font-size:14.7094px;line-height:1.25;font-family:Arial;-inkscape-font-specification:'Arial Bold';text-align:center;letter-spacing:0px;word-spacing:0px;text-anchor:middle;fill:url(#linearGradient1161);stroke:#0066cc;stroke-width:0.80409;stroke-dasharray:none"
         transform="scale(-0.95023822,1.0523677)"
         aria-label="R" />
      <path
         d="m 5.4450299,76.782084 q 1.0133058,0 1.8686937,0.171077 0.8553879,0.171078 1.4738992,0.579032 0.6185113,0.394794 0.9606664,1.052785 0.3421548,0.657991 0.3421548,1.618657 v 8.040647 l 1.237023,0.315835 v 0.868548 H 6.7741712 L 6.4846553,88.481159 q -0.2500365,0.171077 -0.5921917,0.381634 -0.3289953,0.210557 -0.7632692,0.394795 -0.4342739,0.184237 -0.9738263,0.302675 -0.5395523,0.131598 -1.1975431,0.131598 -1.0791047,0 -1.8160543,-0.276356 -0.72378981,-0.276356 -1.1712235,-0.763269 -0.44743368,-0.500073 -0.6448309,-1.171223 -0.19739721,-0.684311 -0.19739721,-1.4739 0,-1.276502 0.44743369,-2.039771 0.44743368,-0.763269 1.1975431,-1.171223 Q 1.5365651,82.375005 2.536711,82.243407 3.5500167,82.111808 4.6817607,82.085489 l 1.6054974,-0.03948 v -1.802894 q 0,-1.092265 -0.4474337,-1.658137 -0.4474337,-0.579032 -1.3817805,-0.579032 -0.7237898,0 -1.3291413,0.210557 -0.5921916,0.197398 -1.1449038,0.473754 l -0.500073,1.539698 H 0.61537811 V 77.242677 Q 1.2207296,77.150558 1.7602819,77.0716 q 0.5527122,-0.07896 1.1185843,-0.144758 0.565872,-0.0658 1.1843832,-0.105279 0.6316711,-0.03948 1.3817805,-0.03948 z m 0.8422282,6.435149 -1.1054244,0.03948 q -0.5790319,0.02632 -1.0001459,0.157918 -0.4211141,0.131598 -0.71063,0.447434 -0.2763561,0.302675 -0.4211141,0.802748 -0.1315981,0.500073 -0.1315981,1.263343 0,1.118584 0.3947944,1.644976 0.3947945,0.526393 1.0264655,0.526393 0.6316711,0 1.0791048,-0.131598 0.4474337,-0.144758 0.8685478,-0.328996 z"
         id="text1115"
         style="font-weight:bold;font-size:26.9513px;line-height:1.25;font-family:'Times New Roman';-inkscape-font-specification:'Times New Roman, Bold';text-align:center;letter-spacing:0px;word-spacing:0px;text-anchor:middle;fill:url(#linearGradient1153);stroke:#ff794b;stroke-width:0.80409;stroke-dasharray:none"
         transform="scale(0.93872854,1.0652707)"
         aria-label="a" />
      <path
         d="m 13.811526,91.484102 c 0.846547,0.312571 1.901475,0.729333 2.865236,1.13307 h -5.938853 v 1.497737 h 5.170449 v 4.024355 c 0,0.182333 -0.07814,0.234428 -0.325595,0.247452 -0.260476,0 -1.224237,0 -2.005665,-0.02605 0.234428,0.403738 0.494904,1.054928 0.573047,1.497737 1.120047,0 1.979617,-0.01302 2.578712,-0.234428 0.625143,-0.221405 0.807476,-0.625143 0.807476,-1.445642 v -4.063426 h 2.734998 c -0.312571,0.599095 -0.677238,1.172142 -1.002833,1.588904 l 1.341452,0.781428 c 0.729332,-0.885618 1.523784,-2.201022 2.096831,-3.412236 l -1.276332,-0.560023 -0.286524,0.10419 h -2.070784 l 0.312571,-0.507928 -1.107023,-0.455833 c 1.080976,-0.729333 2.174975,-1.640999 3.021522,-2.474522 l -1.120047,-0.885618 -0.351642,0.07814 h -7.827304 v 1.445641 h 6.303519 c -0.507928,0.429786 -1.093999,0.872595 -1.654023,1.211214 l -2.044736,-0.729333 z"
         id="text1119"
         style="font-weight:bold;font-size:13.0238px;line-height:1.25;font-family:Arial;-inkscape-font-specification:'Arial Bold';text-align:center;letter-spacing:0px;word-spacing:0px;text-anchor:middle;fill:#66cc33;stroke:#009900;stroke-width:0.80409;stroke-dasharray:none"
         aria-label="予" />
    </g>
  </g>
</svg>
