<?xml version="1.0" encoding="UTF-8" standalone="no"?>
<svg
   sodipodi:docname="class-reference.svg"
   inkscape:version="1.2.2 (b0a8486541, 2022-12-01)"
   id="svg8"
   version="1.1"
   viewBox="0 0 16 16"
   height="16"
   width="16"
   inkscape:export-filename="/media/klapeto/Αρχεία/WindowsXP Theme/Vectors/RASTER/module.png"
   inkscape:export-xdpi="96"
   inkscape:export-ydpi="96"
   xmlns:inkscape="http://www.inkscape.org/namespaces/inkscape"
   xmlns:sodipodi="http://sodipodi.sourceforge.net/DTD/sodipodi-0.dtd"
   xmlns:xlink="http://www.w3.org/1999/xlink"
   xmlns="http://www.w3.org/2000/svg"
   xmlns:svg="http://www.w3.org/2000/svg"
   xmlns:rdf="http://www.w3.org/1999/02/22-rdf-syntax-ns#"
   xmlns:cc="http://creativecommons.org/ns#"
   xmlns:dc="http://purl.org/dc/elements/1.1/">
  <defs
     id="defs2">
    <linearGradient
       inkscape:collect="always"
       id="linearGradient1217">
      <stop
         style="stop-color:#996600;stop-opacity:1"
         offset="0"
         id="stop1213" />
      <stop
         style="stop-color:#cc9900;stop-opacity:1"
         offset="1"
         id="stop1215" />
    </linearGradient>
    <linearGradient
       inkscape:collect="always"
       id="linearGradient1211">
      <stop
         style="stop-color:#ffcc00;stop-opacity:1"
         offset="0"
         id="stop1207" />
      <stop
         style="stop-color:#ffff00;stop-opacity:1"
         offset="1"
         id="stop1209" />
    </linearGradient>
    <linearGradient
       id="linearGradient1172"
       inkscape:collect="always">
      <stop
         id="stop1168"
         offset="0"
         style="stop-color:#0083d7;stop-opacity:1" />
      <stop
         id="stop1170"
         offset="1"
         style="stop-color:#b4e2ff;stop-opacity:1" />
    </linearGradient>
    <linearGradient
       id="linearGradient1166"
       inkscape:collect="always">
      <stop
         id="stop1162"
         offset="0"
         style="stop-color:#003399;stop-opacity:1" />
      <stop
         id="stop1164"
         offset="1"
         style="stop-color:#0066cc;stop-opacity:1" />
    </linearGradient>
    <linearGradient
       inkscape:collect="always"
       id="linearGradient1125">
      <stop
         style="stop-color:#ff3300;stop-opacity:1"
         offset="0"
         id="stop1121" />
      <stop
         style="stop-color:#ff794b;stop-opacity:1"
         offset="1"
         id="stop1123" />
    </linearGradient>
    <linearGradient
       inkscape:collect="always"
       id="linearGradient1117">
      <stop
         style="stop-color:#990000;stop-opacity:1"
         offset="0"
         id="stop1113" />
      <stop
         style="stop-color:#ff3300;stop-opacity:1"
         offset="1"
         id="stop1115" />
    </linearGradient>
    <linearGradient
       gradientUnits="userSpaceOnUse"
       y2="123.19199"
       x2="20.958782"
       y1="123.1142"
       x1="-19.166828"
       id="linearGradient1226-7-2"
       xlink:href="#linearGradient1211"
       inkscape:collect="always"
       gradientTransform="matrix(0.13590484,0,0,0.13590484,8.7417145,-3.8839915)" />
    <linearGradient
       gradientUnits="userSpaceOnUse"
       y2="133.46864"
       x2="24.762819"
       y1="131.37627"
       x1="-22.381079"
       id="linearGradient1218-3-8"
       xlink:href="#linearGradient1217"
       inkscape:collect="always"
       gradientTransform="matrix(0.13590484,0,0,0.13590484,8.7417145,-3.8839915)" />
    <linearGradient
       inkscape:collect="always"
       xlink:href="#linearGradient1125"
       id="linearGradient1"
       gradientUnits="userSpaceOnUse"
       gradientTransform="matrix(0.11393444,0,0,0.11393444,13.104106,5.4441549)"
       x1="8.4128761"
       y1="143.38161"
       x2="8.4128761"
       y2="121.259" />
    <linearGradient
       inkscape:collect="always"
       xlink:href="#linearGradient1117"
       id="linearGradient2"
       gradientUnits="userSpaceOnUse"
       gradientTransform="matrix(0.11393444,0,0,0.11393444,13.104106,5.4441549)"
       x1="0.66918129"
       y1="147.55653"
       x2="1.2367043"
       y2="118.30983" />
    <linearGradient
       inkscape:collect="always"
       xlink:href="#linearGradient1172"
       id="linearGradient3"
       gradientUnits="userSpaceOnUse"
       gradientTransform="matrix(0.11393444,0,0,0.11393444,8.4055986,10.14266)"
       x1="8.4128761"
       y1="143.38161"
       x2="8.4128761"
       y2="121.259" />
    <linearGradient
       inkscape:collect="always"
       xlink:href="#linearGradient1166"
       id="linearGradient4"
       gradientUnits="userSpaceOnUse"
       gradientTransform="matrix(0.11393444,0,0,0.11393444,8.4055986,10.14266)"
       x1="0.66918129"
       y1="147.55653"
       x2="1.2367043"
       y2="118.30983" />
    <filter
       inkscape:collect="always"
       style="color-interpolation-filters:sRGB"
       id="filter17"
       x="-0.14958025"
       y="-0.14450727"
       width="1.2991605"
       height="1.2890145">
      <feGaussianBlur
         inkscape:collect="always"
         stdDeviation="0.89973632"
         id="feGaussianBlur17" />
    </filter>
    <linearGradient
       gradientTransform="matrix(0,1.4350343,1.1636296,0,-5.5671927,13.926722)"
       gradientUnits="userSpaceOnUse"
       y2="16.873842"
       x2="-0.29736015"
       y1="19.022291"
       x1="-2.7363262"
       id="linearGradient1618"
       xlink:href="#linearGradient1616"
       inkscape:collect="always" />
    <linearGradient
       id="linearGradient1616"
       inkscape:collect="always">
      <stop
         id="stop1612"
         offset="0"
         style="stop-color:#66cc33;stop-opacity:1" />
      <stop
         id="stop1614"
         offset="1"
         style="stop-color:#99ff66;stop-opacity:1" />
    </linearGradient>
    <filter
       inkscape:collect="always"
       style="color-interpolation-filters:sRGB"
       id="filter913"
       x="-0.16542361"
       y="-0.13226785"
       width="1.3308472"
       height="1.2645357">
      <feGaussianBlur
         inkscape:collect="always"
         stdDeviation="0.34126517"
         id="feGaussianBlur915" />
    </filter>
  </defs>
  <sodipodi:namedview
     inkscape:snap-global="true"
     inkscape:bbox-paths="true"
     fit-margin-bottom="0"
     fit-margin-right="0"
     fit-margin-left="0"
     fit-margin-top="0"
     inkscape:bbox-nodes="true"
     inkscape:snap-bbox="true"
     inkscape:window-maximized="1"
     inkscape:window-y="0"
     inkscape:window-x="1280"
     inkscape:window-height="2061"
     inkscape:window-width="3840"
     units="px"
     showgrid="true"
     inkscape:document-rotation="0"
     inkscape:current-layer="layer1"
     inkscape:document-units="px"
     inkscape:cy="7.2809901"
     inkscape:cx="3.1156893"
     inkscape:zoom="45.254834"
     inkscape:pageshadow="2"
     inkscape:pageopacity="0.0"
     borderopacity="1.0"
     bordercolor="#666666"
     pagecolor="#ffffff"
     id="base"
     showguides="false"
     inkscape:guide-bbox="true"
     inkscape:object-paths="false"
     inkscape:snap-midpoints="false"
     inkscape:snap-smooth-nodes="false"
     inkscape:snap-bbox-edge-midpoints="true"
     inkscape:pagecheckerboard="0"
     inkscape:showpageshadow="2"
     inkscape:deskcolor="#d1d1d1">
    <inkscape:grid
       originy="0"
       originx="0"
       id="grid1504"
       type="xygrid"
       spacingy="1"
       spacingx="1"
       units="px"
       visible="true" />
    <inkscape:grid
       spacingy="0.5"
       spacingx="0.5"
       id="grid1765"
       type="xygrid"
       originx="0"
       originy="0"
       units="px"
       visible="true" />
  </sodipodi:namedview>
  <metadata
     id="metadata5">
    <rdf:RDF>
      <cc:Work
         rdf:about="">
        <dc:format>image/svg+xml</dc:format>
        <dc:type
           rdf:resource="http://purl.org/dc/dcmitype/StillImage" />
      </cc:Work>
    </rdf:RDF>
  </metadata>
  <g
     transform="translate(-12.567709)"
     id="layer1"
     inkscape:groupmode="layer"
     inkscape:label="Layer 1">
    <path
       id="path3"
       style="color:#000000;fill:#000000;fill-rule:evenodd;-inkscape-stroke:none;fill-opacity:1;filter:url(#filter17);opacity:0.75"
       d="m 17.678108,0.5 c -0.21943,9e-8 -0.439421,0.0819993 -0.605468,0.24804688 L 13.31678,4.5039062 c -0.332095,0.3320955 -0.332095,0.8788416 0,1.2109375 l 1.931641,1.9296875 c 0.274285,0.2742843 0.692582,0.3213682 1.017578,0.1425782 v 5.4101566 h 4.970703 c 0.02519,0.149938 0.09245,0.293618 0.207031,0.408203 l 1.619141,1.617188 c 0.293747,0.293746 0.778519,0.293746 1.072266,0 l 3.148437,-3.148438 c 0.293747,-0.293747 0.293747,-0.778519 0,-1.072265 l -1.61914,-1.6171884 c -0.293747,-0.2937467 -0.776566,-0.2937467 -1.070313,0 l -3.150391,3.1484384 c -0.05011,0.05011 -0.09003,0.104752 -0.123046,0.164062 H 16.765999 V 7.3359375 l 0.888672,-0.8886719 h 3.570312 c 0.0061,0.1861871 0.07783,0.3708095 0.21875,0.5117188 l 1.619141,1.6191406 c 0.293747,0.2937467 0.776566,0.2937484 1.070313,0 l 3.15039,-3.1484375 c 0.293747,-0.2937467 0.293747,-0.7785189 0,-1.0722657 l -1.61914,-1.6191406 c -0.293747,-0.2937467 -0.776566,-0.2937467 -1.070313,0 l -3.150391,3.1503906 c -0.01836,0.018359 -0.03863,0.03885 -0.05469,0.058594 H 18.154668 L 20.213262,3.888672 c 0.332095,-0.3320951 0.332094,-0.8768885 0,-1.2089843 L 18.283577,0.74804688 C 18.117529,0.58199893 17.897538,0.49999991 17.678108,0.5 Z" />
    <path
       style="fill:none;fill-rule:evenodd;stroke:#070707;stroke-width:0.5;stroke-dasharray:none;stroke-opacity:1"
       d="M 16.067709,3.7081613 V 12.5 h 6"
       id="path1"
       sodipodi:nodetypes="ccc" />
    <path
       style="fill:none;fill-rule:evenodd;stroke:#070707;stroke-width:0.5;stroke-dasharray:none;stroke-opacity:1"
       d="m 16.721192,5.75 h 4.846517"
       id="path2"
       sodipodi:nodetypes="cc" />
    <rect
       style="fill:url(#linearGradient1226-7-2);fill-opacity:1;fill-rule:evenodd;stroke:url(#linearGradient1218-3-8);stroke-width:0.5;stroke-linecap:round;stroke-linejoin:round;stroke-miterlimit:4;stroke-dasharray:none;stroke-opacity:1"
       id="rect1134-6-2"
       width="6.5234318"
       height="3.9412405"
       x="5.6249962"
       y="12.219135"
       rx="0.60555822"
       ry="0.60555822"
       transform="rotate(-45)" />
    <rect
       style="fill:url(#linearGradient1);fill-opacity:1;fill-rule:evenodd;stroke:url(#linearGradient2);stroke-width:0.5;stroke-linecap:round;stroke-linejoin:round;stroke-miterlimit:4;stroke-dasharray:none;stroke-opacity:1"
       id="rect1134-3"
       width="5.4688535"
       height="3.3040991"
       x="10.491236"
       y="18.94405"
       rx="0.50766361"
       ry="0.50766361"
       transform="rotate(-45)" />
    <rect
       y="23.642557"
       x="5.7927289"
       height="3.3040991"
       width="5.4688535"
       id="rect1134-6-1"
       style="fill:url(#linearGradient3);fill-opacity:1;fill-rule:evenodd;stroke:url(#linearGradient4);stroke-width:0.5;stroke-linecap:round;stroke-linejoin:round;stroke-miterlimit:4;stroke-dasharray:none;stroke-opacity:1"
       rx="0.50766361"
       ry="0.50766361"
       transform="rotate(-45)" />
    <path
       id="path904"
       style="color:#000000;opacity:0.75;fill:#000000;fill-opacity:1;stroke-width:0.5;stroke-linejoin:round;stroke-miterlimit:5.8;-inkscape-stroke:none;filter:url(#filter913)"
       d="M 13.614864,9.7250364 A 0.250025,0.250025 0 0 0 13.43713,10.150818 l 1.230469,1.230468 c -0.700233,0.716824 -0.91405,1.594081 -0.732422,2.388672 0.186582,0.81626 0.712543,1.497272 1.269531,1.958985 0.0014,0.0047 -0.0014,0.007 0,0.01172 l 0.0059,-0.0039 c 0.03713,0.03061 0.04639,0.102665 0.08398,0.13086 a 0.250025,0.250025 0 0 0 0.388672,-0.273438 c -0.221879,-0.71989 -0.171013,-1.272146 0.01563,-1.65625 0.167596,-0.344927 0.469811,-0.523066 0.80664,-0.621094 l 1.382813,1.408203 a 0.250025,0.250025 0 0 0 0.427734,-0.175781 V 9.9750364 a 0.250025,0.250025 0 0 0 -0.25,-0.25 z" />
    <g
       id="path1610">
      <path
         style="color:#000000;fill:url(#linearGradient1618);stroke-width:0.5;stroke-linejoin:round;stroke-miterlimit:5.8;-inkscape-stroke:none"
         d="M 14.945074,15.167456 C 14.473497,13.637416 15.129045,12.683963 16.048895,12.5 l 1.518814,1.548758 V 9.4742218 h -4.452732 l 1.370173,1.3701162 c -1.655731,1.379717 -0.643895,3.495286 0.459924,4.323118 z"
         id="path653" />
      <path
         style="color:#000000;fill:#009900;stroke-linejoin:round;stroke-miterlimit:5.8;-inkscape-stroke:none"
         d="M 13.115234,9.2246094 A 0.250025,0.250025 0 0 0 12.9375,9.6503906 l 1.230469,1.2304684 c -0.700103,0.716798 -0.912084,1.594137 -0.730469,2.388672 0.186923,0.817755 0.711299,1.501307 1.269531,1.962891 9.56e-4,0.0031 -9.64e-4,0.0047 0,0.0078 l 0.0039,-0.002 c 0.03676,0.03027 0.04677,0.100997 0.08398,0.128907 a 0.250025,0.250025 0 0 0 0.388672,-0.273438 c -0.221879,-0.719891 -0.171008,-1.272146 0.01563,-1.65625 0.168048,-0.345855 0.470532,-0.525421 0.808593,-0.623047 l 1.38086,1.410156 a 0.250025,0.250025 0 0 0 0.429687,-0.175781 V 9.4746094 a 0.250025,0.250025 0 0 0 -0.25,-0.25 z m 0.603516,0.5 h 3.599609 V 13.4375 L 16.226562,12.324219 A 0.250025,0.250025 0 0 0 16,12.253906 c -0.530169,0.10603 -0.996791,0.443722 -1.25,0.964844 -0.147278,0.303109 -0.03724,0.767958 -0.02539,1.175781 -0.320034,-0.377065 -0.685807,-0.735291 -0.800781,-1.238281 -0.168151,-0.735632 -0.03964,-1.485545 0.720703,-2.119141 a 0.250025,0.250025 0 0 0 0.01758,-0.36914 z"
         id="path655" />
    </g>
  </g>
</svg>
