<?xml version="1.0" encoding="UTF-8" standalone="no"?>
<svg
   sodipodi:docname="color-picker.svg"
   inkscape:version="1.2.2 (b0a8486541, 2022-12-01)"
   id="svg8"
   version="1.1"
   viewBox="0 0 16 16"
   height="16"
   width="16"
   inkscape:export-filename="color-picker.png"
   inkscape:export-xdpi="96"
   inkscape:export-ydpi="96"
   xmlns:inkscape="http://www.inkscape.org/namespaces/inkscape"
   xmlns:sodipodi="http://sodipodi.sourceforge.net/DTD/sodipodi-0.dtd"
   xmlns:xlink="http://www.w3.org/1999/xlink"
   xmlns="http://www.w3.org/2000/svg"
   xmlns:svg="http://www.w3.org/2000/svg"
   xmlns:rdf="http://www.w3.org/1999/02/22-rdf-syntax-ns#"
   xmlns:cc="http://creativecommons.org/ns#"
   xmlns:dc="http://purl.org/dc/elements/1.1/">
  <defs
     id="defs2">
    <linearGradient
       inkscape:collect="always"
       id="linearGradient8849">
      <stop
         style="stop-color:#ffdb9d;stop-opacity:1"
         offset="0"
         id="stop8845" />
      <stop
         style="stop-color:#ff3300;stop-opacity:1"
         offset="1"
         id="stop8847" />
    </linearGradient>
    <linearGradient
       inkscape:collect="always"
       id="linearGradient6225">
      <stop
         style="stop-color:#d3d3d3;stop-opacity:1;"
         offset="0"
         id="stop6221" />
      <stop
         style="stop-color:#494949;stop-opacity:1"
         offset="1"
         id="stop6223" />
    </linearGradient>
    <linearGradient
       inkscape:collect="always"
       id="linearGradient5451">
      <stop
         style="stop-color:#deffff;stop-opacity:1"
         offset="0"
         id="stop5447" />
      <stop
         style="stop-color:#99ccff;stop-opacity:1"
         offset="1"
         id="stop5449" />
    </linearGradient>
    <linearGradient
       inkscape:collect="always"
       xlink:href="#linearGradient5451"
       id="linearGradient5453"
       x1="120.87302"
       y1="172.98"
       x2="142.97995"
       y2="107.44395"
       gradientUnits="userSpaceOnUse"
       gradientTransform="rotate(45,128.92532,123.4315)" />
    <radialGradient
       inkscape:collect="always"
       xlink:href="#linearGradient6225"
       id="radialGradient6227"
       cx="120.87949"
       cy="29.069555"
       fx="120.87949"
       fy="29.069555"
       r="19.999969"
       gradientTransform="matrix(0.70710678,0.70710678,-0.95630118,0.95630118,134.59567,-63.306651)"
       gradientUnits="userSpaceOnUse" />
    <linearGradient
       inkscape:collect="always"
       xlink:href="#linearGradient6225"
       id="linearGradient6767"
       x1="96.359406"
       y1="66.054787"
       x2="157.35884"
       y2="66.054787"
       gradientUnits="userSpaceOnUse"
       gradientTransform="rotate(45,128.48763,124.48818)" />
    <linearGradient
       inkscape:collect="always"
       xlink:href="#linearGradient8849"
       id="linearGradient8851"
       x1="55.418365"
       y1="180.7269"
       x2="114.69144"
       y2="180.7269"
       gradientUnits="userSpaceOnUse" />
    <filter
       inkscape:collect="always"
       style="color-interpolation-filters:sRGB"
       id="filter882"
       x="-0.14704144"
       y="-0.14695859"
       width="1.2940829"
       height="1.2939172">
      <feGaussianBlur
         inkscape:collect="always"
         stdDeviation="0.85727279"
         id="feGaussianBlur884" />
    </filter>
  </defs>
  <sodipodi:namedview
     inkscape:snap-global="false"
     inkscape:bbox-paths="true"
     fit-margin-bottom="0"
     fit-margin-right="0"
     fit-margin-left="0"
     fit-margin-top="0"
     inkscape:bbox-nodes="true"
     inkscape:snap-bbox="true"
     inkscape:window-maximized="1"
     inkscape:window-y="0"
     inkscape:window-x="1280"
     inkscape:window-height="2061"
     inkscape:window-width="3840"
     units="px"
     showgrid="true"
     inkscape:document-rotation="0"
     inkscape:current-layer="layer1"
     inkscape:document-units="px"
     inkscape:cy="4.7421876"
     inkscape:cx="10.101563"
     inkscape:zoom="63.999999"
     inkscape:pageshadow="2"
     inkscape:pageopacity="0.0"
     borderopacity="1.0"
     bordercolor="#666666"
     pagecolor="#ffffff"
     id="base"
     showguides="true"
     inkscape:guide-bbox="true"
     inkscape:object-paths="false"
     inkscape:snap-midpoints="false"
     inkscape:snap-smooth-nodes="true"
     inkscape:snap-bbox-edge-midpoints="true"
     inkscape:pagecheckerboard="0"
     inkscape:showpageshadow="2"
     inkscape:deskcolor="#d1d1d1">
    <inkscape:grid
       originy="0"
       originx="0"
       id="grid1504"
       type="xygrid"
       spacingy="1"
       spacingx="1"
       units="px"
       visible="true" />
    <inkscape:grid
       spacingy="0.5"
       spacingx="0.5"
       id="grid1765"
       type="xygrid"
       originx="0"
       originy="0"
       units="px"
       visible="true" />
  </sodipodi:namedview>
  <metadata
     id="metadata5">
    <rdf:RDF>
      <cc:Work
         rdf:about="">
        <dc:format>image/svg+xml</dc:format>
        <dc:type
           rdf:resource="http://purl.org/dc/dcmitype/StillImage" />
      </cc:Work>
    </rdf:RDF>
  </metadata>
  <g
     transform="translate(-12.567709)"
     id="layer1"
     inkscape:groupmode="layer"
     inkscape:label="Layer 1">
    <path
       id="path151"
       style="opacity:0.75;fill:#000000;fill-opacity:1;fill-rule:evenodd;stroke:none;stroke-width:0.531344;stroke-linecap:round;stroke-linejoin:round;stroke-miterlimit:4;stroke-dasharray:none;stroke-opacity:1;filter:url(#filter882);stop-color:#000000"
       d="m 26.469933,1.4999974 c -0.267367,-0.00669 -0.54919,0.048272 -0.828125,0.1757812 C 24.962632,1.9862482 24.314451,2.7066123 23.839073,3.962888 23.701109,3.890235 23.5292,3.7946363 23.352745,3.6933568 c -0.334178,-0.1918077 -0.703756,-0.3989137 -1.099609,-0.4375 -0.242998,-0.023687 -0.435968,-0.00667 -0.599609,0.074219 -0.163642,0.080893 -0.263669,0.1895163 -0.40625,0.3144531 a 0.26569857,0.26569857 0 0 0 -0.01172,0.3867185 l 1.253906,1.2539062 -7.21875,7.2187494 a 0.26569857,0.26569857 0 0 0 -0.07227,0.132813 c -0.113733,0.545933 -0.428219,1.104442 -0.697265,1.552734 -0.134523,0.224147 -0.255184,0.418047 -0.337891,0.591797 -0.04135,0.08687 -0.07621,0.16681 -0.08984,0.267578 -0.01253,0.0926 0.0263,0.233463 0.121094,0.328125 0.09234,0.08853 0.226288,0.131982 0.320313,0.121094 0.102499,-0.01187 0.183449,-0.04661 0.269531,-0.08789 0.172164,-0.08255 0.360729,-0.204401 0.578125,-0.341797 0.434792,-0.274789 0.977098,-0.607153 1.529297,-0.759765 a 0.26569857,0.26569857 0 0 0 0.117187,-0.06836 l 7.216797,-7.2167961 1.251953,1.2519531 a 0.26569857,0.26569857 0 0 0 0.369141,0.00586 c 0.155503,-0.1454076 0.275026,-0.3073331 0.328125,-0.5 0.0531,-0.1926669 0.04332,-0.3898817 0.01172,-0.6269531 C 26.133951,6.7583055 25.918799,6.3884102 25.716027,6.0507786 25.617189,5.8862086 25.520353,5.7276771 25.442589,5.5898412 26.743932,5.1802808 27.504454,4.5815082 27.850792,3.9296849 28.230261,3.2155094 28.072586,2.4523068 27.610558,1.9843724 27.379544,1.7504051 27.073097,1.5884385 26.731652,1.5273412 26.64629,1.5120668 26.559055,1.5022275 26.469933,1.4999974 Z" />
    <g
       id="g9871"
       transform="matrix(0.08220508,0,0,0.08220508,9.7638247,-1.9960821)"
       style="stroke-width:6.46364;stroke-miterlimit:4;stroke-dasharray:none">
      <path
         id="rect1698"
         style="fill:url(#linearGradient5453);fill-opacity:1;fill-rule:evenodd;stroke:none;stroke-width:6.46364;stroke-linecap:round;stroke-linejoin:round;stroke-miterlimit:4;stroke-dasharray:none;stroke-opacity:1;stop-color:#000000"
         d="m 153.35021,82.441309 16.5653,16.565306 -90.138573,90.138575 c -14.672112,4.05495 -27.309256,16.95789 -29.823848,13.93257 -2.941013,-2.31278 10.19578,-15.79553 13.258542,-30.49788 z"
         sodipodi:nodetypes="cccccc" />
      <path
         id="rect1996"
         style="fill:url(#radialGradient6227);fill-opacity:1;fill-rule:evenodd;stroke:#2c2c2c;stroke-width:6.46364;stroke-linecap:round;stroke-linejoin:round;stroke-miterlimit:4;stroke-dasharray:none;stroke-opacity:1;stop-color:#000000"
         d="M 179.12627,84.441036 166.6106,71.925366 c 22.7787,-70.2778304 85.35177,-6.744914 12.51567,12.51567 z"
         sodipodi:nodetypes="ccc" />
      <path
         style="fill:url(#linearGradient8851);fill-opacity:1;stroke:none;stroke-width:6.46364;stroke-linecap:butt;stroke-linejoin:miter;stroke-miterlimit:4;stroke-dasharray:none;stroke-opacity:1"
         d="m 92.064322,143.87368 h 32.939208 l -42.449737,43.2151 -10.811768,6.03342 -21.091799,10.59999 0.7144,-5.79553 12.182962,-26.32402 z"
         id="path8744"
         sodipodi:nodetypes="cccccccc" />
      <path
         id="path9359"
         style="fill:none;fill-opacity:1;fill-rule:evenodd;stroke:#0001e0;stroke-width:6.46364;stroke-linecap:round;stroke-linejoin:round;stroke-miterlimit:4;stroke-dasharray:none;stroke-opacity:1;stop-color:#000000"
         d="m 153.35021,82.441309 16.5653,16.565306 -90.138573,90.138575 c -14.672112,4.05495 -27.309256,16.95789 -29.823848,13.93257 -2.941013,-2.31278 10.19578,-15.79553 13.258542,-30.49788 z"
         sodipodi:nodetypes="cccccc" />
      <path
         id="rect1873"
         style="fill:url(#linearGradient6767);fill-opacity:1;fill-rule:evenodd;stroke:#2c2c2c;stroke-width:6.46364;stroke-linecap:round;stroke-linejoin:round;stroke-miterlimit:4;stroke-dasharray:none;stroke-opacity:1;stop-color:#000000"
         d="m 167.69039,71.047422 11.867,11.866998 c 1.48694,5.527594 9.92141,15.059596 10.94444,22.73525 0.72379,5.43058 0.17282,7.84523 -3.12717,10.93102 L 135.75405,64.96008 c 3.62081,-3.172717 4.40315,-4.458129 9.77691,-3.934307 7.57642,0.738532 17.29442,9.01351 22.15943,10.021649 z"
         sodipodi:nodetypes="ccsccsc" />
    </g>
  </g>
</svg>
