<?xml version="1.0" encoding="UTF-8" standalone="no"?>
<svg
   sodipodi:docname="column-key.svg"
   inkscape:version="1.3.2 (1:1.3.2+202311252150+091e20ef0f)"
   id="svg8"
   version="1.1"
   viewBox="0 0 16 16"
   height="16"
   width="16"
   inkscape:export-filename="/media/klapeto/Αρχεία/WindowsXP Theme/Vectors/RASTER/table.png"
   inkscape:export-xdpi="96"
   inkscape:export-ydpi="96"
   xml:space="preserve"
   xmlns:inkscape="http://www.inkscape.org/namespaces/inkscape"
   xmlns:sodipodi="http://sodipodi.sourceforge.net/DTD/sodipodi-0.dtd"
   xmlns:xlink="http://www.w3.org/1999/xlink"
   xmlns="http://www.w3.org/2000/svg"
   xmlns:svg="http://www.w3.org/2000/svg"
   xmlns:rdf="http://www.w3.org/1999/02/22-rdf-syntax-ns#"
   xmlns:cc="http://creativecommons.org/ns#"
   xmlns:dc="http://purl.org/dc/elements/1.1/"><defs
     id="defs2"><linearGradient
       inkscape:collect="always"
       id="linearGradient34105"><stop
         style="stop-color:#fcfdfd;stop-opacity:1"
         offset="0"
         id="stop34101" /><stop
         style="stop-color:#b4e2ff;stop-opacity:1"
         offset="1"
         id="stop34103" /></linearGradient><linearGradient
       inkscape:collect="always"
       id="linearGradient20111"><stop
         style="stop-color:#0083d7;stop-opacity:1"
         offset="0"
         id="stop20107" /><stop
         style="stop-color:#003399;stop-opacity:1"
         offset="1"
         id="stop20109" /></linearGradient><linearGradient
       inkscape:collect="always"
       id="linearGradient13415"><stop
         style="stop-color:#99ccff;stop-opacity:1"
         offset="0"
         id="stop13411" /><stop
         style="stop-color:#0099ff;stop-opacity:1"
         offset="1"
         id="stop13413" /></linearGradient><linearGradient
       inkscape:collect="always"
       id="linearGradient1388"><stop
         style="stop-color:#0099ff;stop-opacity:1"
         offset="0"
         id="stop1384" /><stop
         style="stop-color:#0066cc;stop-opacity:1"
         offset="1"
         id="stop1386" /></linearGradient><linearGradient
       inkscape:collect="always"
       xlink:href="#linearGradient1388"
       id="linearGradient1390"
       x1="19.857172"
       y1="7.1070185"
       x2="27.762505"
       y2="7.1070185"
       gradientUnits="userSpaceOnUse" /><linearGradient
       inkscape:collect="always"
       xlink:href="#linearGradient13415"
       id="linearGradient13417"
       x1="20.735542"
       y1="6.6678333"
       x2="27.11042"
       y2="6.6678333"
       gradientUnits="userSpaceOnUse" /><linearGradient
       inkscape:collect="always"
       xlink:href="#linearGradient20111"
       id="linearGradient20113"
       x1="19.857172"
       y1="8.863759"
       x2="27.32332"
       y2="15.890721"
       gradientUnits="userSpaceOnUse" /><linearGradient
       inkscape:collect="always"
       xlink:href="#linearGradient34105"
       id="linearGradient34107"
       x1="21.174728"
       y1="8.4245739"
       x2="27.32332"
       y2="15.451536"
       gradientUnits="userSpaceOnUse" /><linearGradient
       inkscape:collect="always"
       id="linearGradient305363"><stop
         style="stop-color:#ff9933;stop-opacity:1"
         offset="0"
         id="stop305359" /><stop
         style="stop-color:#ff9933;stop-opacity:1"
         offset="1"
         id="stop305361" /></linearGradient><linearGradient
       inkscape:collect="always"
       id="linearGradient237937"><stop
         style="stop-color:#ffff00;stop-opacity:1"
         offset="0"
         id="stop237931" /><stop
         style="stop-color:#ffff99;stop-opacity:1"
         offset="0.61025214"
         id="stop239091" /><stop
         style="stop-color:#fefdf4;stop-opacity:0"
         offset="1"
         id="stop237935" /></linearGradient><linearGradient
       inkscape:collect="always"
       id="linearGradient200486"><stop
         style="stop-color:#f7ad40;stop-opacity:1"
         offset="0"
         id="stop200482" /><stop
         style="stop-color:#fdca60;stop-opacity:1"
         offset="1"
         id="stop200484" /></linearGradient><linearGradient
       inkscape:collect="always"
       id="linearGradient154100"><stop
         style="stop-color:#ffffff;stop-opacity:1;"
         offset="0"
         id="stop154096" /><stop
         style="stop-color:#fbf638;stop-opacity:0"
         offset="0.17431498"
         id="stop163065" /><stop
         style="stop-color:#fcf996;stop-opacity:0"
         offset="0.75"
         id="stop181540" /><stop
         style="stop-color:#fefdf4;stop-opacity:1"
         offset="1"
         id="stop154098" /></linearGradient><linearGradient
       inkscape:collect="always"
       id="linearGradient69702"><stop
         style="stop-color:#fffefd;stop-opacity:1"
         offset="0"
         id="stop69698" /><stop
         style="stop-color:#cc9900;stop-opacity:1"
         offset="0.28"
         id="stop75990" /><stop
         style="stop-color:#ffff00;stop-opacity:1"
         offset="0.63999999"
         id="stop112612" /><stop
         style="stop-color:#ff9933;stop-opacity:1"
         offset="1"
         id="stop69700" /></linearGradient><linearGradient
       inkscape:collect="always"
       id="linearGradient2976"><stop
         style="stop-color:#fffcf5;stop-opacity:1"
         offset="0"
         id="stop2972" /><stop
         style="stop-color:#ffcc00;stop-opacity:1"
         offset="0.41281581"
         id="stop16719" /><stop
         style="stop-color:#cc9900;stop-opacity:1"
         offset="0.62598419"
         id="stop16849" /><stop
         style="stop-color:#ffcc00;stop-opacity:1"
         offset="0.91688526"
         id="stop16979" /><stop
         style="stop-color:#ffff99;stop-opacity:1"
         offset="1"
         id="stop2974" /></linearGradient><radialGradient
       inkscape:collect="always"
       xlink:href="#linearGradient2976"
       id="radialGradient2978"
       cx="-40.701576"
       cy="2.863358"
       fx="-40.701576"
       fy="2.863358"
       r="12.031582"
       gradientUnits="userSpaceOnUse"
       gradientTransform="translate(86.499998,8.4999998)" /><linearGradient
       inkscape:collect="always"
       xlink:href="#linearGradient69702"
       id="linearGradient69704"
       x1="-34.932289"
       y1="23.5"
       x2="-30.932291"
       y2="27.5"
       gradientUnits="userSpaceOnUse"
       gradientTransform="translate(59,3.9999996)" /><radialGradient
       inkscape:collect="always"
       xlink:href="#linearGradient154100"
       id="radialGradient154102"
       cx="-64.670082"
       cy="9.8947163"
       fx="-64.670082"
       fy="9.8947163"
       r="12.03125"
       gradientUnits="userSpaceOnUse"
       gradientTransform="matrix(0.56507903,-0.84745625,0.81983579,0.54666187,75.195087,-46.692728)" /><filter
       inkscape:collect="always"
       style="color-interpolation-filters:sRGB"
       id="filter200459"
       x="-0.14871855"
       y="-0.14124295"
       width="1.2974371"
       height="1.2824859"><feGaussianBlur
         inkscape:collect="always"
         stdDeviation="0.48638432"
         id="feGaussianBlur200461" /></filter><linearGradient
       inkscape:collect="always"
       xlink:href="#linearGradient200486"
       id="linearGradient200488"
       x1="-69.946632"
       y1="17.447788"
       x2="-74.671204"
       y2="12.581718"
       gradientUnits="userSpaceOnUse"
       gradientTransform="translate(110.5,3.9999996)" /><radialGradient
       inkscape:collect="always"
       xlink:href="#linearGradient237937"
       id="radialGradient237897"
       gradientUnits="userSpaceOnUse"
       gradientTransform="matrix(0.27909552,-0.48340761,0.42558781,0.24571323,59.023333,-23.008203)"
       cx="-60.812794"
       cy="8.0397205"
       fx="-60.812794"
       fy="8.0397205"
       r="12.03125" /><linearGradient
       inkscape:collect="always"
       xlink:href="#linearGradient305363"
       id="linearGradient305365"
       x1="-97.932289"
       y1="19.001196"
       x2="-51.932289"
       y2="19.001196"
       gradientUnits="userSpaceOnUse"
       gradientTransform="translate(110.5,3.9999996)" /><filter
       inkscape:collect="always"
       style="color-interpolation-filters:sRGB"
       id="filter31"
       x="-0.14857055"
       y="-0.14546231"
       width="1.2971411"
       height="1.2909246"><feGaussianBlur
         inkscape:collect="always"
         stdDeviation="0.91061492"
         id="feGaussianBlur31" /></filter></defs><sodipodi:namedview
     inkscape:snap-global="true"
     inkscape:bbox-paths="false"
     fit-margin-bottom="0"
     fit-margin-right="0"
     fit-margin-left="0"
     fit-margin-top="0"
     inkscape:bbox-nodes="true"
     inkscape:snap-bbox="true"
     inkscape:window-maximized="1"
     inkscape:window-y="0"
     inkscape:window-x="3840"
     inkscape:window-height="2058"
     inkscape:window-width="3840"
     units="px"
     showgrid="true"
     inkscape:document-rotation="0"
     inkscape:current-layer="layer1"
     inkscape:document-units="px"
     inkscape:cy="-1.7456699"
     inkscape:cx="-7.7560775"
     inkscape:zoom="22.627417"
     inkscape:pageshadow="2"
     inkscape:pageopacity="0.0"
     borderopacity="1.0"
     bordercolor="#666666"
     pagecolor="#ffffff"
     id="base"
     inkscape:pagecheckerboard="0"
     inkscape:showpageshadow="2"
     inkscape:deskcolor="#d1d1d1"><inkscape:grid
       originy="0"
       originx="0"
       id="grid1504"
       type="xygrid"
       spacingy="1"
       spacingx="1"
       units="px"
       visible="true" /><inkscape:grid
       originy="0"
       originx="0"
       spacingy="0.5"
       spacingx="0.5"
       id="grid1507"
       type="xygrid"
       units="px"
       visible="true" /></sodipodi:namedview><metadata
     id="metadata5"><rdf:RDF><cc:Work
         rdf:about=""><dc:format>image/svg+xml</dc:format><dc:type
           rdf:resource="http://purl.org/dc/dcmitype/StillImage" /></cc:Work></rdf:RDF></metadata><g
     transform="translate(-12.567709)"
     id="layer1"
     inkscape:groupmode="layer"
     inkscape:label="Layer 1"><path
       id="path30"
       style="color:#000000;fill:#000000;fill-rule:evenodd;stroke-linecap:round;-inkscape-stroke:none;fill-opacity:1;filter:url(#filter31);opacity:0.75"
       d="m 24.427084,0.50026868 c -0.8487,-0.0107536 -1.700873,0.30127731 -2.355469,0.93945312 -0.0617,0.060158 -0.119785,0.1218913 -0.175781,0.1855469 h -8.703125 v 3.75 9.0000003 h 9.394531 v 0.02734 a 0.19860136,0.19860136 0 0 0 0.05664,0.142578 l 0.904297,0.925781 a 0.19860136,0.19860136 0 0 0 0.251953,0.01563 l 0.384766,0.02734 a 0.12952295,0.12952295 0 0 0 0.09961,-0.03516 l 0.880859,-0.859375 a 0.12952295,0.12952295 0 0 0 0.03906,-0.0918 l 0.0039,-0.3125 0.146484,-0.142578 a 0.12952295,0.12952295 0 0 0 0.002,-0.183594 l -0.166016,-0.169922 a 0.19860136,0.19860136 0 0 0 -0.05469,-0.15625 L 24.5931,13.006128 25.192709,12.422144 a 0.12952295,0.12952295 0 0 0 0.002,-0.183594 l -0.08984,-0.09375 0.277344,-0.269531 a 0.12952295,0.12952295 0 0 0 0.0039,-0.183594 L 25.2181,11.5198 a 0.19860136,0.19860136 0 0 0 -0.05469,-0.154297 l -0.361328,-0.371093 0.04297,-0.04297 a 0.12952295,0.12952295 0 0 0 0.002,-0.183594 l -0.08984,-0.09375 0.833985,-0.8125002 a 0.12952295,0.12952295 0 0 0 0.002,-0.1816406 l -0.166016,-0.171875 a 0.19860136,0.19860136 0 0 0 -0.05469,-0.15625 L 25.100912,9.0744875 25.237631,8.9416749 a 0.12952295,0.12952295 0 0 0 0.002,-0.1835937 L 25.071615,8.5881593 a 0.19860136,0.19860136 0 0 0 0,-0.027344 l 0.357422,-0.3496094 a 0.12952295,0.12952295 0 0 0 0.03906,-0.089844 l 0.01758,-0.9257813 c 0.5341,-0.1421691 1.038267,-0.3923905 1.4375,-0.7792969 C 28.118163,5.2511447 28.22302,3.3864678 27.220052,2.0998775 27.091608,1.8876743 26.93956,1.685357 26.759115,1.5002687 26.120907,0.84571143 25.275784,0.51102227 24.427084,0.50026868 Z M 24.304037,3.0608156 c 0.06452,8.285e-4 0.127459,0.015063 0.189453,0.035156 0.165396,0.2293003 0.144656,0.546155 -0.06445,0.75 -0.209665,0.2044181 -0.526812,0.217427 -0.751953,0.044922 -0.06499,-0.2222513 -0.01214,-0.4708331 0.166016,-0.6445312 0.128583,-0.1253653 0.29542,-0.1876723 0.460937,-0.1855469 z" /><g
       id="g34295"
       transform="matrix(1.138472,0,0,1.138472,-9.5391255,-4.5911417)"
       style="stroke-width:0.658778;stroke-miterlimit:4;stroke-dasharray:none"><rect
         style="fill:url(#linearGradient34107);fill-opacity:1;fill-rule:evenodd;stroke:url(#linearGradient20113);stroke-width:0.658778;stroke-linecap:round;stroke-linejoin:miter;stroke-miterlimit:4;stroke-dasharray:none;stroke-opacity:1;stop-color:#000000"
         id="rect931"
         width="7.905333"
         x="19.857172"
         y="7.1070185"
         height="8.7837029" /><rect
         style="fill:url(#linearGradient13417);fill-opacity:1;fill-rule:evenodd;stroke:url(#linearGradient1390);stroke-width:0.658778;stroke-linecap:round;stroke-linejoin:miter;stroke-miterlimit:4;stroke-dasharray:none;stroke-opacity:1;stop-color:#000000"
         id="rect1302"
         width="7.905333"
         height="2.6351109"
         x="19.857172"
         y="5.3502779" /></g><path
       style="fill:none;stroke:#0083d7;stroke-width:0.75;stroke-linecap:butt;stroke-linejoin:miter;stroke-dasharray:none;stroke-opacity:1"
       d="m 13.394291,7.5 8.309901,5.26e-5"
       id="path34456-3-5"
       sodipodi:nodetypes="cc" /><path
       style="fill:none;stroke:#0083d7;stroke-width:0.75;stroke-linecap:butt;stroke-linejoin:miter;stroke-dasharray:none;stroke-opacity:1"
       d="m 13.394291,10.5 h 8.308054"
       id="path34456-3-5-3"
       sodipodi:nodetypes="cc" /><path
       id="path39"
       style="color:#000000;fill:#0099ff;fill-rule:evenodd;stroke-linecap:round;stroke-linejoin:round;-inkscape-stroke:none"
       d="M 21.446615 1.125 C 21.316197 1.2192544 21.190251 1.3237936 21.071615 1.4394531 C 19.762495 2.7158755 19.736678 4.8177697 21.013022 6.1269531 A 0.19860136 0.19860136 0 0 0 21.013022 6.1289062 C 21.18048 6.299366 21.368433 6.4417765 21.569662 6.5703125 C 21.607442 6.6012915 21.645712 6.6309883 21.684897 6.6601562 L 21.5931 13.875 L 22.442709 13.875 L 22.442709 3.125 L 22.442709 1.125 L 21.446615 1.125 z " /><g
       id="g838"
       transform="matrix(0.1854618,-0.18081954,0.18081828,0.18546053,13.082862,9.3138727)"><path
         id="path269305"
         style="fill:url(#linearGradient305365);fill-opacity:1;fill-rule:evenodd;stroke:#996600;stroke-width:1;stroke-linecap:round;stroke-linejoin:round;stroke-miterlimit:4;stroke-dasharray:none;stroke-opacity:1;stop-color:#000000"
         d="m 46.036459,1.9999996 c -6.6446,1.833e-4 -12.031067,5.3866501 -12.03125,12.0312504 0.0046,1.211995 0.147307,2.355794 0.511721,3.511716 v 0 L 13.067709,39 v 3.590412 l 1.252914,1.411978 4.747086,-0.0024 1,-1 h 1 v -5 h 4 v -1 h 2 v -4 h 1 v -1 h 5 v -3.5 h 1.5 V 27 h 2.5 l 2.735346,-2.700054 c 1.873986,1.144158 4.029433,1.755933 6.233404,1.762555 6.6446,-1.84e-4 12.031067,-5.386651 12.03125,-12.031251 C 58.067526,7.3866497 52.681059,2.0001829 46.036459,1.9999996 Z m 0.03125,7 c 1.656854,0 3,1.3431454 3,3.0000004 0,1.656854 -1.343146,3 -3,3 -1.656854,0 -3,-1.343146 -3,-3 0,-1.656855 1.343146,-3.0000004 3,-3.0000004 z"
         sodipodi:nodetypes="ccccccccccccccccccccccccccsssss" /><path
         id="path2670"
         style="fill:url(#radialGradient2978);fill-opacity:1;fill-rule:evenodd;stroke:none;stroke-width:1;stroke-linecap:round;stroke-linejoin:round;stroke-miterlimit:4;stroke-dasharray:none;stroke-opacity:1;stop-color:#000000"
         d="M 46.036459,0.4999996 A 12.031582,12.031582 0 0 0 34.005209,12.53125 12.031582,12.031582 0 0 0 46.036459,24.5625 12.031582,12.031582 0 0 0 58.067709,12.53125 12.031582,12.031582 0 0 0 46.036459,0.4999996 Z m 0.03125,7 a 3,3 0 0 1 3,3.0000004 3,3 0 0 1 -3,3 3,3 0 0 1 -3,-3 3,3 0 0 1 3,-3.0000004 z" /><path
         id="path153962"
         style="fill:url(#radialGradient154102);fill-opacity:1;fill-rule:evenodd;stroke:none;stroke-width:1;stroke-linecap:round;stroke-linejoin:round;stroke-miterlimit:4;stroke-dasharray:none;stroke-opacity:1;stop-color:#000000"
         d="M 46.036459,0.4999996 A 12.031582,12.031582 0 0 0 34.005209,12.53125 12.031582,12.031582 0 0 0 46.036459,24.5625 12.031582,12.031582 0 0 0 58.067709,12.53125 12.031582,12.031582 0 0 0 46.036459,0.4999996 Z m 0.03125,7 a 3,3 0 0 1 3,3.0000004 3,3 0 0 1 -3,3 3,3 0 0 1 -3,-3 3,3 0 0 1 3,-3.0000004 z" /><path
         style="fill:url(#linearGradient69704);fill-opacity:1;stroke:none;stroke-width:1px;stroke-linecap:round;stroke-linejoin:round;stroke-opacity:1"
         d="m 35.067709,16 -22,21.5 v 5 h 6 l 1,-1 h 1 v -5 h 4 v -1 h 2 v -4 h 1 v -1 h 5 V 27 h 1.5 v -1.5 h 2.5 l 2.90934,-3.310493"
         id="path68835"
         sodipodi:nodetypes="ccccccccccccccccccc" /><path
         id="path237796"
         style="fill:url(#radialGradient237897);fill-opacity:1;fill-rule:evenodd;stroke:none;stroke-width:1;stroke-linecap:round;stroke-linejoin:round;stroke-miterlimit:4;stroke-dasharray:none;stroke-opacity:1;stop-color:#000000"
         d="M 46.036459,0.4999996 A 12.031582,12.031582 0 0 0 34.005209,12.53125 12.031582,12.031582 0 0 0 46.036459,24.5625 12.031582,12.031582 0 0 0 58.067709,12.53125 12.031582,12.031582 0 0 0 46.036459,0.4999996 Z m 0.03125,7 a 3,3 0 0 1 3,3.0000004 3,3 0 0 1 -3,3 3,3 0 0 1 -3,-3 3,3 0 0 1 3,-3.0000004 z" /><path
         style="mix-blend-mode:normal;fill:url(#linearGradient200488);fill-opacity:1;stroke:none;stroke-width:1px;stroke-linecap:butt;stroke-linejoin:miter;stroke-opacity:1;filter:url(#filter200459)"
         d="m 34.46092,17.184594 2.085845,-1.893776 1.349043,1.343261 4.414317,4.395401 -3.122957,2.52598 z"
         id="path199955"
         sodipodi:nodetypes="cccccc" /><path
         id="path181377"
         style="fill:none;fill-opacity:1;fill-rule:evenodd;stroke:#996600;stroke-width:1.53333;stroke-linecap:round;stroke-linejoin:round;stroke-miterlimit:4;stroke-dasharray:none;stroke-opacity:1;stop-color:#000000"
         d="m 46.03646,0.4999996 c -6.6446,1.833e-4 -12.031067,5.3866501 -12.03125,12.0312504 0.0046,1.211995 0.147307,2.355794 0.511721,3.511716 v 0 L 13.06771,37.5 v 5 h 6 l 1,-1 h 1 v -5 h 4 v -1 h 2 v -4 h 1 v -1 h 5 V 27 h 1.5 v -1.5 h 2.5 l 2.735346,-2.700054 c 1.873986,1.144158 4.029433,1.755933 6.233404,1.762555 C 52.68106,24.562317 58.067527,19.17585 58.06771,12.53125 58.067527,5.8866497 52.68106,0.5001829 46.03646,0.4999996 Z m 0.03125,7 c 1.656854,0 3,1.3431458 3,3.0000004 0,1.656854 -1.343146,3 -3,3 -1.656854,0 -3,-1.343146 -3,-3 0,-1.6568546 1.343146,-3.0000004 3,-3.0000004 z"
         sodipodi:nodetypes="cccccccccccccccccccccccccsssss" /></g></g></svg>
