<?xml version="1.0" encoding="UTF-8" standalone="no"?>
<svg
   sodipodi:docname="column-index-unique.svg"
   inkscape:version="1.3.2 (1:1.3.2+202311252150+091e20ef0f)"
   id="svg8"
   version="1.1"
   viewBox="0 0 16 16"
   height="16"
   width="16"
   inkscape:export-filename="/media/klapeto/Αρχεία/WindowsXP Theme/Vectors/RASTER/table.png"
   inkscape:export-xdpi="96"
   inkscape:export-ydpi="96"
   xml:space="preserve"
   xmlns:inkscape="http://www.inkscape.org/namespaces/inkscape"
   xmlns:sodipodi="http://sodipodi.sourceforge.net/DTD/sodipodi-0.dtd"
   xmlns:xlink="http://www.w3.org/1999/xlink"
   xmlns="http://www.w3.org/2000/svg"
   xmlns:svg="http://www.w3.org/2000/svg"
   xmlns:rdf="http://www.w3.org/1999/02/22-rdf-syntax-ns#"
   xmlns:cc="http://creativecommons.org/ns#"
   xmlns:dc="http://purl.org/dc/elements/1.1/"><defs
     id="defs2"><linearGradient
       inkscape:collect="always"
       id="linearGradient34105"><stop
         style="stop-color:#fcfdfd;stop-opacity:1"
         offset="0"
         id="stop34101" /><stop
         style="stop-color:#b4e2ff;stop-opacity:1"
         offset="1"
         id="stop34103" /></linearGradient><linearGradient
       inkscape:collect="always"
       id="linearGradient20111"><stop
         style="stop-color:#0083d7;stop-opacity:1"
         offset="0"
         id="stop20107" /><stop
         style="stop-color:#003399;stop-opacity:1"
         offset="1"
         id="stop20109" /></linearGradient><linearGradient
       inkscape:collect="always"
       id="linearGradient13415"><stop
         style="stop-color:#99ccff;stop-opacity:1"
         offset="0"
         id="stop13411" /><stop
         style="stop-color:#0099ff;stop-opacity:1"
         offset="1"
         id="stop13413" /></linearGradient><linearGradient
       inkscape:collect="always"
       id="linearGradient1388"><stop
         style="stop-color:#0099ff;stop-opacity:1"
         offset="0"
         id="stop1384" /><stop
         style="stop-color:#0066cc;stop-opacity:1"
         offset="1"
         id="stop1386" /></linearGradient><linearGradient
       inkscape:collect="always"
       xlink:href="#linearGradient1388"
       id="linearGradient1390"
       x1="19.857172"
       y1="7.1070185"
       x2="27.762505"
       y2="7.1070185"
       gradientUnits="userSpaceOnUse" /><linearGradient
       inkscape:collect="always"
       xlink:href="#linearGradient13415"
       id="linearGradient13417"
       x1="20.735542"
       y1="6.6678333"
       x2="27.11042"
       y2="6.6678333"
       gradientUnits="userSpaceOnUse" /><linearGradient
       inkscape:collect="always"
       xlink:href="#linearGradient20111"
       id="linearGradient20113"
       x1="19.857172"
       y1="8.863759"
       x2="27.32332"
       y2="15.890721"
       gradientUnits="userSpaceOnUse" /><linearGradient
       inkscape:collect="always"
       xlink:href="#linearGradient34105"
       id="linearGradient34107"
       x1="21.174728"
       y1="8.4245739"
       x2="27.32332"
       y2="15.451536"
       gradientUnits="userSpaceOnUse" /><linearGradient
       id="linearGradient1048"
       x1="-11.248465"
       x2="-5.0813107"
       y1="11.325686"
       y2="11.264601"
       gradientTransform="matrix(-1.1690919,0,0,-1.1690919,14.12719,22.240642)"
       gradientUnits="userSpaceOnUse"><stop
         stop-color="#159a0c"
         offset="0"
         id="stop1" /><stop
         stop-color="#8cf25a"
         offset="1"
         id="stop2" /></linearGradient><linearGradient
       inkscape:collect="always"
       xlink:href="#linearGradient4"
       id="linearGradient5"
       x1="7.3077435"
       y1="13.754494"
       x2="7.3077435"
       y2="0.49454418"
       gradientUnits="userSpaceOnUse"
       gradientTransform="matrix(0,0.57143385,-0.57143385,0,27.559084,4.4284031)" /><linearGradient
       id="linearGradient4"
       inkscape:collect="always"><stop
         style="stop-color:#009900;stop-opacity:1"
         offset="0"
         id="stop4" /><stop
         style="stop-color:#006600;stop-opacity:1"
         offset="1"
         id="stop5" /></linearGradient><filter
       inkscape:collect="always"
       style="color-interpolation-filters:sRGB"
       id="filter54"
       x="-0.13727751"
       y="-0.15820462"
       width="1.274555"
       height="1.3164092"><feGaussianBlur
         inkscape:collect="always"
         stdDeviation="0.8825624"
         id="feGaussianBlur54" /></filter></defs><sodipodi:namedview
     inkscape:snap-global="true"
     inkscape:bbox-paths="false"
     fit-margin-bottom="0"
     fit-margin-right="0"
     fit-margin-left="0"
     fit-margin-top="0"
     inkscape:bbox-nodes="true"
     inkscape:snap-bbox="true"
     inkscape:window-maximized="1"
     inkscape:window-y="0"
     inkscape:window-x="3840"
     inkscape:window-height="2058"
     inkscape:window-width="3840"
     units="px"
     showgrid="true"
     inkscape:document-rotation="0"
     inkscape:current-layer="layer1"
     inkscape:document-units="px"
     inkscape:cy="4.6328125"
     inkscape:cx="6.3671875"
     inkscape:zoom="64"
     inkscape:pageshadow="2"
     inkscape:pageopacity="0.0"
     borderopacity="1.0"
     bordercolor="#666666"
     pagecolor="#ffffff"
     id="base"
     inkscape:pagecheckerboard="0"
     inkscape:showpageshadow="2"
     inkscape:deskcolor="#d1d1d1"><inkscape:grid
       originy="0"
       originx="0"
       id="grid1504"
       type="xygrid"
       spacingy="1"
       spacingx="1"
       units="px"
       visible="true" /><inkscape:grid
       originy="0"
       originx="0"
       spacingy="0.5"
       spacingx="0.5"
       id="grid1507"
       type="xygrid"
       units="px"
       visible="true" /></sodipodi:namedview><metadata
     id="metadata5"><rdf:RDF><cc:Work
         rdf:about=""><dc:format>image/svg+xml</dc:format><dc:type
           rdf:resource="http://purl.org/dc/dcmitype/StillImage" /></cc:Work></rdf:RDF></metadata><g
     transform="translate(-12.567709)"
     id="layer1"
     inkscape:groupmode="layer"
     inkscape:label="Layer 1"><path
       id="path52"
       style="color:#000000;fill:#000000;fill-opacity:1;fill-rule:evenodd;stroke-linecap:round;-inkscape-stroke:none;filter:url(#filter54);opacity:0.75"
       d="m 24.622397,0.986 c -0.316563,0 -0.570313,0.2537498 -0.570313,0.5703125 V 3.3727188 A 1.7142259,1.7142259 0 0 0 23.886068,3.439125 L 22.942709,2.4957657 V 1.6246719 h -9.75 v 3.75 9.0000001 h 9.75 v -0.578125 -0.962891 l 0.634766,0.589844 a 0.28574558,0.28574558 0 0 0 0.480468,-0.208984 v -2 H 27.7806 a 0.28574558,0.28574558 0 0 0 0.287109,-0.28711 l -0.0098,-2.8574216 A 0.28574558,0.28574558 0 0 0 27.772787,7.7848281 h -0.601562 c 0.05269,-0.026735 0.102329,-0.061314 0.146484,-0.1054687 0.223844,-0.2238436 0.223844,-0.5847501 0,-0.8085937 L 26.169272,5.7223281 a 1.7142259,1.7142259 0 0 0 0.06641,-0.1660156 h 1.816406 c 0.316563,0 0.570313,-0.2537498 0.570313,-0.5703125 0,-0.3165627 -0.25375,-0.5722656 -0.570313,-0.5722656 h -1.8125 a 1.7142259,1.7142259 0 0 0 -0.06836,-0.1679687 l 1.146484,-1.1464844 c 0.223845,-0.2238447 0.223845,-0.5847491 0,-0.8085938 -0.223845,-0.2238446 -0.584749,-0.2238446 -0.808594,0 l -1.148437,1.1464844 a 1.7142259,1.7142259 0 0 0 -0.166016,-0.068359 v -1.8125 C 25.194662,1.2397498 24.938959,0.986 24.622397,0.986 Z m -1.679688,3.1269531 0.134766,0.1347657 a 1.7142259,1.7142259 0 0 0 -0.06641,0.1660156 h -0.06836 z m 0,1.4433594 h 0.06836 a 1.7142259,1.7142259 0 0 0 0.06641,0.1660156 l -0.134766,0.1347657 z m 2.417969,0.9746094 1.148437,1.1484375 c 0.04415,0.044155 0.0938,0.078734 0.146485,0.1054687 h -1.460938 v -1.1875 a 1.7142259,1.7142259 0 0 0 0.166016,-0.066406 z" /><g
       id="g1"><g
         id="g34295"
         transform="matrix(1.138472,0,0,1.138472,-9.5391255,-4.5911417)"
         style="stroke-width:0.658778;stroke-miterlimit:4;stroke-dasharray:none"><rect
           style="fill:url(#linearGradient34107);fill-opacity:1;fill-rule:evenodd;stroke:url(#linearGradient20113);stroke-width:0.658778;stroke-linecap:round;stroke-linejoin:miter;stroke-miterlimit:4;stroke-dasharray:none;stroke-opacity:1;stop-color:#000000"
           id="rect931"
           width="7.905333"
           x="19.857172"
           y="7.1070185"
           height="8.7837029" /><rect
           style="fill:url(#linearGradient13417);fill-opacity:1;fill-rule:evenodd;stroke:url(#linearGradient1390);stroke-width:0.658778;stroke-linecap:round;stroke-linejoin:miter;stroke-miterlimit:4;stroke-dasharray:none;stroke-opacity:1;stop-color:#000000"
           id="rect1302"
           width="7.905333"
           height="2.6351109"
           x="19.857172"
           y="5.3502779" /></g><path
         style="fill:none;stroke:#0083d7;stroke-width:0.75;stroke-linecap:butt;stroke-linejoin:miter;stroke-dasharray:none;stroke-opacity:1"
         d="m 13.394291,7.5 8.309901,5.26e-5"
         id="path34456-3-5"
         sodipodi:nodetypes="cc" /><path
         style="fill:none;stroke:#0083d7;stroke-width:0.75;stroke-linecap:butt;stroke-linejoin:miter;stroke-dasharray:none;stroke-opacity:1"
         d="m 13.394291,10.5 h 8.308054"
         id="path34456-3-5-3"
         sodipodi:nodetypes="cc" /></g><path
       id="path2"
       style="color:#000000;fill:#0099ff;fill-opacity:1;stroke-linecap:round;stroke-linejoin:round;-inkscape-stroke:none"
       d="m 22.442709,5.7021487 -3.865234,3.5878906 a 0.28574558,0.28574558 0 0 0 0,0.4199219 l 3.865234,3.5878898 z" /><path
       d="m 27.281992,10.428459 h -4.008663 v 2.285735 l -4.000036,-3.7143201 4.000036,-3.71432 v 2.2857354 h 4.000037 z"
       fill="url(#linearGradient1048)"
       stroke="#418924"
       id="path3"
       style="fill:url(#linearGradient1048);stroke:url(#linearGradient5);stroke-width:0.571434;stroke-linecap:round;stroke-linejoin:round;stroke-dasharray:none"
       sodipodi:nodetypes="cccccccc" /><g
       transform="matrix(1.4398,0,0,1.4398,25.075696,-3.3240618)"
       id="g6"><g
         fill="#ff3300"
         id="g4"><rect
           transform="rotate(90)"
           x="2.6458001"
           y="0.26458001"
           width="5.5563002"
           height="0.79374999"
           rx="0.39686999"
           ry="0.39686999"
           id="rect1" /><rect
           transform="rotate(45)"
           x="0.72175997"
           y="3.9061999"
           width="5.2916999"
           height="0.79374999"
           rx="0.39686999"
           ry="0.39686999"
           id="rect2" /><rect
           x="-3.4396"
           y="5.0271001"
           width="5.5563002"
           height="0.79374999"
           rx="0.39686999"
           ry="0.39686999"
           id="rect3" /><rect
           transform="matrix(-0.70711,0.70711,0.70711,0.70711,0,0)"
           x="1.6572"
           y="2.9707"
           width="5.2916999"
           height="0.79374999"
           rx="0.39686999"
           ry="0.39686999"
           id="rect4" /></g><g
         transform="translate(-1.1906)"
         id="g5"><circle
           cx="0.52916998"
           cy="5.4239998"
           r="1.1906"
           fill="#ffcc00"
           id="circle4" /><circle
           cx="0.52916998"
           cy="5.4239998"
           r="0.39686999"
           fill="#ffff99"
           id="circle5" /></g></g></g></svg>
