<?xml version="1.0" encoding="UTF-8" standalone="no"?>
<svg
   inkscape:export-ydpi="96"
   inkscape:export-xdpi="96"
   inkscape:export-filename="/media/klapeto/Αρχεία/WindowsXP Theme/Vectors/RASTER/configure.png"
   width="16"
   height="16"
   viewBox="0 0 16 16"
   version="1.1"
   id="svg8"
   inkscape:version="1.3.2 (1:1.3.2+202311252150+091e20ef0f)"
   sodipodi:docname="configure.svg"
   xmlns:inkscape="http://www.inkscape.org/namespaces/inkscape"
   xmlns:sodipodi="http://sodipodi.sourceforge.net/DTD/sodipodi-0.dtd"
   xmlns:xlink="http://www.w3.org/1999/xlink"
   xmlns="http://www.w3.org/2000/svg"
   xmlns:svg="http://www.w3.org/2000/svg"
   xmlns:rdf="http://www.w3.org/1999/02/22-rdf-syntax-ns#"
   xmlns:cc="http://creativecommons.org/ns#"
   xmlns:dc="http://purl.org/dc/elements/1.1/">
  <defs
     id="defs2">
    <linearGradient
       id="linearGradient1068"
       inkscape:collect="always">
      <stop
         id="stop1064"
         offset="0"
         style="stop-color:#ccccff;stop-opacity:1" />
      <stop
         id="stop1066"
         offset="1"
         style="stop-color:#6666cc;stop-opacity:1" />
    </linearGradient>
    <linearGradient
       gradientTransform="translate(109.97268,-2.0157549)"
       gradientUnits="userSpaceOnUse"
       y2="3.6782823"
       x2="-67.432755"
       y1="48.839687"
       x1="-67.432755"
       id="linearGradient1070"
       xlink:href="#linearGradient1068"
       inkscape:collect="always" />
    <filter
       inkscape:collect="always"
       style="color-interpolation-filters:sRGB"
       id="filter3"
       x="-0.15554809"
       y="-0.1393425"
       width="1.3110962"
       height="1.278685">
      <feGaussianBlur
         inkscape:collect="always"
         stdDeviation="0.81261865"
         id="feGaussianBlur3" />
    </filter>
  </defs>
  <sodipodi:namedview
     inkscape:snap-bbox-edge-midpoints="true"
     inkscape:snap-smooth-nodes="false"
     inkscape:snap-midpoints="false"
     inkscape:object-paths="false"
     inkscape:guide-bbox="true"
     showguides="true"
     id="base"
     pagecolor="#ffffff"
     bordercolor="#666666"
     borderopacity="1.0"
     inkscape:pageopacity="0.0"
     inkscape:pageshadow="2"
     inkscape:zoom="64"
     inkscape:cx="1.5546875"
     inkscape:cy="4.7890625"
     inkscape:document-units="px"
     inkscape:current-layer="layer1"
     inkscape:document-rotation="0"
     showgrid="true"
     units="px"
     inkscape:window-width="3840"
     inkscape:window-height="2058"
     inkscape:window-x="3840"
     inkscape:window-y="0"
     inkscape:window-maximized="1"
     inkscape:snap-bbox="true"
     inkscape:bbox-nodes="true"
     fit-margin-top="0"
     fit-margin-left="0"
     fit-margin-right="0"
     fit-margin-bottom="0"
     inkscape:bbox-paths="true"
     inkscape:snap-global="false"
     inkscape:pagecheckerboard="0"
     inkscape:showpageshadow="2"
     inkscape:deskcolor="#d1d1d1">
    <inkscape:grid
       type="xygrid"
       id="grid1504"
       originx="0"
       originy="0"
       spacingy="1"
       spacingx="1"
       units="px"
       visible="true" />
    <inkscape:grid
       type="xygrid"
       id="grid1765"
       spacingx="0.5"
       spacingy="0.5"
       originx="0"
       originy="0"
       units="px"
       visible="true" />
  </sodipodi:namedview>
  <metadata
     id="metadata5">
    <rdf:RDF>
      <cc:Work
         rdf:about="">
        <dc:format>image/svg+xml</dc:format>
        <dc:type
           rdf:resource="http://purl.org/dc/dcmitype/StillImage" />
      </cc:Work>
    </rdf:RDF>
  </metadata>
  <g
     inkscape:label="Layer 1"
     inkscape:groupmode="layer"
     id="layer1"
     transform="translate(-12.567709)">
    <path
       id="path2"
       style="opacity:0.75;fill:#000000;fill-opacity:1;stroke:none;stroke-width:0.29786px;stroke-linecap:butt;stroke-linejoin:miter;stroke-opacity:1;filter:url(#filter3)"
       d="m 20.315714,0.50143124 c -0.328651,0.015065 -0.652254,0.2305682 -0.716797,0.3535157 C 19.404337,1.2256052 19.589817,1.9905923 19.358683,2.3354156 19.204367,2.1378817 19.041381,1.9273827 18.862589,1.8393219 l -0.002,-0.00195 C 18.715731,1.7047778 18.478048,1.5890627 18.077433,1.5326812 17.444045,1.4435402 16.777476,2.006267 16.835245,2.4252593 c 0.07568,0.548909 0.644167,1.3080623 0.423828,1.546875 C 17.04297,4.2063546 16.053541,3.84708 15.75712,3.8178375 c -0.439513,-0.043359 -1.297065,1.1763339 -0.884765,1.5800781 0.383655,0.375696 1.045626,0.740822 0.982421,1.0351563 -0.13241,0.6166211 -1.013017,0.4816826 -1.394531,0.7578124 -0.189144,0.1368978 -0.232286,1.3773605 0.138672,1.6484376 0.291879,0.2132904 0.549838,0.2803937 0.759766,0.3007812 0.157913,0.069322 0.364368,0.1022886 0.568359,0.1308594 0.02623,0.4642674 -0.628703,0.6821934 -0.945312,1.2519535 -0.223108,0.401495 0.780104,2.144705 1.683593,1.646484 0.128763,-0.01913 0.240847,-0.06158 0.339844,-0.115234 -0.05763,0.26507 -0.160762,0.581151 -0.166016,0.964843 -0.0044,0.319157 0.859168,0.858312 1.478516,0.980469 0.0014,2.81e-4 0.0025,0.0017 0.0039,0.002 0.237576,0.07441 0.479892,0.08177 0.646485,-0.0293 0.193944,-0.129297 0.309945,-0.348675 0.404297,-0.550781 0.03345,0.23357 0.08065,0.47788 0.21875,0.667969 0.08955,0.123267 0.441053,0.257806 0.787109,0.33789 0.106473,0.05015 0.278133,0.0709 0.462891,0.06836 0.07589,0.0025 0.146159,9.69e-4 0.195312,-0.01172 0.274243,-0.02647 0.530551,-0.095 0.585938,-0.189453 0.242049,-0.412769 0.197084,-1.156785 0.40039,-1.466797 0.09541,0.118169 0.203586,0.23924 0.351563,0.337891 0.251349,0.167566 0.523977,0.289812 0.783203,0.316406 0.470331,0.162824 1.302348,-0.580736 1.296875,-0.980469 -0.0096,-0.699153 -0.558054,-1.162274 -0.351563,-1.509765 0.127592,-0.214716 0.461064,0.06568 1.085938,0.113281 0.643932,0.04906 1.290337,-1.0396 1.060547,-1.4531251 -0.317965,-0.5721909 -1.072048,-0.6230859 -1.00586,-1.0878907 0.06639,-0.4662532 0.912203,-0.4171528 1.322266,-0.6425781 0.402618,-0.2213343 0.329811,-1.6239559 0.123047,-1.7324219 -0.01678,-0.0088 -0.03478,-0.016222 -0.05273,-0.023437 -0.138655,-0.1361397 -0.32149,-0.2026026 -0.408202,-0.2480903 -0.215307,-0.1129477 -0.590318,-0.088954 -0.927734,-0.09375 -3.48e-4,-0.0015 -0.0016,-0.00239 -0.002,-0.00391 C 25.226722,5.4945214 26.002908,5.0634072 26.333292,4.6401031 26.580007,4.3240004 26.03999,3.3150924 25.690714,3.1440093 25.491276,2.9557746 25.25852,2.8269503 25.053995,2.8451812 24.896893,2.859185 24.53956,3.0594491 24.208292,3.2104156 24.267879,2.8698123 24.464953,2.4242207 24.522745,2.1322906 24.570771,1.8896923 24.341906,1.5770611 24.020792,1.3920562 23.628627,1.1122283 22.95468,0.88170714 22.561808,0.98775944 22.25534,1.0704874 22.090841,1.5401178 21.91923,1.8861969 21.884264,1.5141092 21.895019,1.0887609 21.774698,0.90963444 21.741517,0.86023604 21.694225,0.82026054 21.63798,0.78658754 21.436998,0.60672884 20.6261,0.48720379 20.315714,0.50143124 Z m 0.912109,3.62499996 c 0.185083,0 0.360093,0.017982 0.525391,0.052734 1.015518,0.6050776 1.490234,1.9460343 1.490234,3.1289063 0,1.3893083 -1.443873,3.5156255 -3.246093,3.5156255 -0.162167,0 -0.315944,-0.01862 -0.462891,-0.04883 -1.077109,-0.646692 -1.576266,-2.1056377 -1.587891,-2.8593733 -0.02346,-1.5209968 1.247206,-3.7890625 3.28125,-3.7890625 z" />
    <g
       transform="matrix(0.29785955,0,0,0.29785955,7.5652616,-0.11899971)"
       id="g1076">
      <path
         d="m 41.130068,0.40334362 c -1.103376,0.050577 -2.193323,0.77431798 -2.410011,1.18708858 -0.734923,1.39996 0.150902,4.4838714 -1.163866,5.3393462 -1.207191,0.7854777 0.808468,-2.3942924 -3.939453,-3.0625 -2.126465,-0.299272 -4.36872,1.5899662 -4.174774,2.9966468 0.254083,1.8428484 2.164747,4.3936658 1.425003,5.1954308 -0.725517,0.786346 -4.049264,-0.41917 -5.044433,-0.517346 -1.475579,-0.14557 -4.35563,3.950249 -2.971421,5.305737 1.288047,1.261322 3.514932,2.482537 3.302735,3.470703 -0.444546,2.070179 -3.404696,1.619826 -4.685547,2.546875 -0.63501,0.459606 -0.778614,4.621165 0.466797,5.53125 2.578141,1.883978 4.389164,0.418606 4.458984,1.433594 0.108173,1.572512 -2.108282,2.299674 -3.175781,4.220703 -0.771479,1.388325 2.826423,7.555592 5.92569,5.357207 1.140638,-0.809083 0.129913,-3.024839 0.750091,-2.07791 0.743521,1.135257 -0.407313,2.754298 -0.439453,5.101562 -0.01952,1.42561 5.123566,4.164383 6.623566,3.164383 1.5,-1 -0.211132,-4.513683 0.815887,-4.265945 1.387507,0.334695 0.642292,3.105329 1.798828,4.697266 0.558275,0.768449 4.168356,1.689558 5.010056,1.268214 1.752303,-0.877179 0.0067,-6.546801 1.394242,-6.881496 1.027019,-0.247738 1.441406,1.507813 2.941406,2.507813 1.5,1 3.241544,1.550672 4.514413,0.591197 1.874572,-1.413032 -1.756492,-7.645267 -1.063241,-8.8119 0.42836,-0.720863 1.546649,0.22298 3.644531,0.382812 2.161872,0.164708 4.332026,-3.492534 3.560547,-4.880859 -1.067499,-1.921029 -3.599165,-2.089905 -3.376953,-3.650391 0.222904,-1.565349 6.054775,-2.090576 6.858932,-3.44017 2.025678,-3.399637 -0.504648,-4.157018 -1.198815,-4.52117 -1.462186,-0.767048 -5.12707,0.33815 -5.476524,-1.253504 -0.239758,-1.092024 3.950344,-3.161957 5.05954,-4.583113 C 61.467023,11.594084 58.895822,8.1092905 57.033563,8.275289 56.037512,8.364075 52.638669,10.717534 51.974161,9.8789971 51.279766,9.0027461 53.643266,6.8430349 54.54283,4.9881017 55.162448,3.7104322 50.742687,1.4775559 48.669474,2.0372002 46.919581,2.5095672 46.548946,6.774022 45.093302,6.2813409 43.672478,5.8004453 46.401742,2.5664489 45.666488,1.4718463 45.22089,0.80846698 42.233445,0.35276682 41.130068,0.40334362 Z m 0.70542,11.25104438 c 6.260402,0 9.123048,6.280897 9.123048,11.603515 0,4.664316 -4.847855,11.800782 -10.898438,11.800782 -6.341987,0 -9.187212,-7.372269 -9.238282,-10.683594 -0.07876,-5.106433 4.184789,-12.720703 11.013672,-12.720703 z"
         style="opacity:1;fill:#9999cc;fill-opacity:1;stroke:none;stroke-width:1px;stroke-linecap:butt;stroke-linejoin:miter;stroke-opacity:1"
         id="path1072"
         sodipodi:nodetypes="sssssssssssssssssssssssssssssssssssssssssss" />
      <path
         id="path1057"
         style="opacity:1;fill:url(#linearGradient1070);fill-opacity:1;stroke:none;stroke-width:1px;stroke-linecap:butt;stroke-linejoin:miter;stroke-opacity:1"
         d="m 43.315005,0.94550139 c -1.103377,0.050577 -1.962944,0.10604431 -2.365235,0.78320311 -0.80757,1.3593491 -0.256312,5.6699978 -1.041016,6.1230469 -1.247283,0.720119 -2.40573,-2.6781909 -3.939453,-3.0625 -2.083023,-0.5219485 -4.66681,1.7790236 -4.380859,3.1699218 0.282838,1.3757573 1.852335,4.0226068 1.083984,4.8847658 -0.941331,1.056259 -3.837356,-0.490345 -4.837356,-0.490345 -1.118034,0 -3.537373,4.255342 -2.631394,5.416126 1.109196,1.421156 3.463517,2.677298 3.203675,3.611221 -0.567551,2.03989 -3.305636,1.479308 -4.586487,2.406357 -0.63501,0.459606 -0.884916,4.788166 0.466797,5.53125 1.376698,0.756819 4.389164,0.418606 4.458984,1.433594 0.108173,1.572512 -2.108282,2.299674 -3.175781,4.220703 -0.771479,1.388325 0.916253,4.801427 3.078125,4.636719 2.097882,-0.159832 2.977478,-2.304351 3.597656,-1.357422 0.743521,1.135257 -0.407313,2.754298 -0.439453,5.101562 -0.01952,1.42561 3.298828,3.275391 4.798828,2.275391 1.5,-1 1.613606,-3.624691 2.640625,-3.376953 1.387507,0.334695 0.642292,3.105329 1.798828,4.697266 0.558275,0.768449 4.07212,0.444754 4.472657,-0.238282 0.991258,-1.69039 0.544134,-5.040305 1.931641,-5.375 1.027019,-0.247738 1.441406,1.507813 2.941406,2.507813 1.5,1 4.654286,-1.722828 4.634766,-3.148438 -0.03214,-2.347264 -1.876845,-3.905632 -1.183594,-5.072265 0.42836,-0.720863 1.546649,0.22298 3.644531,0.382812 2.161872,0.164708 4.332026,-3.492534 3.560547,-4.880859 -1.067499,-1.921029 -3.599165,-2.089905 -3.376953,-3.650391 0.222904,-1.565349 3.066661,-1.403337 4.443359,-2.160156 1.351712,-0.743084 1.106275,-5.448348 0.412109,-5.8125 -1.462186,-0.767048 -4.322421,0.349466 -4.671875,-1.242188 -0.239758,-1.092024 2.36932,-2.535875 3.478516,-3.957031 0.905979,-1.160784 -1.356575,-5.1132809 -2.474609,-5.1132809 -1,0 -3.866742,2.4498649 -4.53125,1.6113279 C 53.632329,9.9247191 54.967931,7.3264699 55.254458,5.8790951 55.530212,4.4861394 53.09525,2.3995289 51.022037,2.9591732 49.272144,3.4315402 48.901509,7.695995 47.445865,7.2033139 46.025041,6.7224183 46.761197,2.8721352 46.025943,1.7775326 45.580345,1.1141533 44.418382,0.89492459 43.315005,0.94550139 Z M 44.188052,12.576361 c 6.260401,0 9.123047,6.280897 9.123047,11.603515 0,4.664316 -4.847855,11.800782 -10.898438,11.800782 -6.341987,0 -9.187212,-7.372269 -9.238282,-10.683594 -0.07876,-5.106433 4.184789,-12.720703 11.013673,-12.720703 z"
         sodipodi:nodetypes="sssssssssssssssssssssssssssssssssssssssssss" />
    </g>
  </g>
</svg>
