<?xml version="1.0" encoding="UTF-8" standalone="no"?>
<svg
   inkscape:export-ydpi="96"
   inkscape:export-xdpi="96"
   inkscape:export-filename="my-pictures.png"
   width="16"
   height="16"
   viewBox="0 0 16 16"
   version="1.1"
   id="svg8"
   inkscape:version="1.2.2 (b0a8486541, 2022-12-01)"
   sodipodi:docname="config-folder.svg"
   xml:space="preserve"
   xmlns:inkscape="http://www.inkscape.org/namespaces/inkscape"
   xmlns:sodipodi="http://sodipodi.sourceforge.net/DTD/sodipodi-0.dtd"
   xmlns:xlink="http://www.w3.org/1999/xlink"
   xmlns="http://www.w3.org/2000/svg"
   xmlns:svg="http://www.w3.org/2000/svg"
   xmlns:rdf="http://www.w3.org/1999/02/22-rdf-syntax-ns#"
   xmlns:cc="http://creativecommons.org/ns#"
   xmlns:dc="http://purl.org/dc/elements/1.1/"><defs
     id="defs2"><linearGradient
       id="linearGradient38"
       x1="-3.9323001"
       x2="-3.9323001"
       y1="12.5"
       y2="4.5"
       gradientUnits="userSpaceOnUse"
       gradientTransform="translate(18.000009,1)"><stop
         stop-color="#fc6"
         offset="0"
         id="stop35"
         style="stop-color:#000000;stop-opacity:1;" /><stop
         stop-color="#ffd46e"
         offset=".5"
         id="stop37" /><stop
         stop-color="#ff9"
         offset="1"
         id="stop38" /></linearGradient><linearGradient
       id="linearGradient12"
       x1="-819.20001"
       x2="819.20001"
       gradientTransform="matrix(0,0.011456,0.0096573,0,-11.256,16.014)"
       gradientUnits="userSpaceOnUse"><stop
         stop-color="#999"
         offset="0"
         id="stop11"
         style="stop-color:#b8babe;stop-opacity:1" /><stop
         stop-color="#666"
         offset="1"
         id="stop12"
         style="stop-color:#807a6d;stop-opacity:1" /></linearGradient><linearGradient
       id="gradient5-1"
       x1="-819.20001"
       x2="819.20001"
       gradientTransform="matrix(0,0.011456,0.0096573,0,-11.256,16.014)"
       gradientUnits="userSpaceOnUse"><stop
         stop-color="#999"
         offset="0"
         id="stop19" /><stop
         stop-color="#666"
         offset="1"
         id="stop21" /></linearGradient><linearGradient
       id="gradient6-0"
       x1="-819.20001"
       x2="819.20001"
       gradientTransform="matrix(0,0.010769,0.0091017,0,-11.23,16.014)"
       gradientUnits="userSpaceOnUse"><stop
         stop-color="#fff"
         offset="0"
         id="stop24" /><stop
         stop-color="#ddd"
         offset="1"
         id="stop26"
         style="stop-color:#99ccff;stop-opacity:1;" /></linearGradient><linearGradient
       id="gradient7-6-6"
       x1="-819.20001"
       x2="819.20001"
       gradientTransform="matrix(3.4623535e-4,0.00548771,0.00559117,6.4246743e-4,22.94339,5.9822669)"
       gradientUnits="userSpaceOnUse"><stop
         stop-color="#09f"
         offset="0"
         id="stop29" /><stop
         stop-color="#9cf"
         offset="1"
         id="stop31" /></linearGradient><linearGradient
       id="gradient8-7-2"
       x1="-819.20001"
       x2="819.20001"
       gradientTransform="matrix(-0.00346245,0.00317275,0.00306848,0.00315022,-11.181548,22.165968)"
       gradientUnits="userSpaceOnUse"><stop
         stop-color="#ccc"
         offset="0"
         id="stop34" /><stop
         stop-color="#ccf"
         offset="1"
         id="stop36" /></linearGradient><linearGradient
       id="gradient9-5-8"
       x1="-819.20001"
       x2="819.20001"
       gradientTransform="matrix(-0.00380155,0.00348348,0.00389616,0.00399995,-16.575972,16.107508)"
       gradientUnits="userSpaceOnUse"><stop
         stop-color="#ccc"
         offset="0"
         id="stop39" /><stop
         stop-color="#ccf"
         offset="1"
         id="stop41" /></linearGradient><linearGradient
       id="gradient10-3-2"
       x1="-819.20001"
       x2="819.20001"
       gradientTransform="matrix(-0.00299842,0.00274755,0.00543036,0.00557502,-8.9822567,13.03167)"
       gradientUnits="userSpaceOnUse"><stop
         stop-color="#999"
         offset="0"
         id="stop44" /><stop
         stop-color="#ccc"
         offset="1"
         id="stop46" /></linearGradient><radialGradient
       id="gradient11-5-3"
       cx="0"
       cy="0"
       r="819.20001"
       gradientTransform="matrix(0.00322467,0.00360908,-0.00285097,0.00284799,21.530356,4.5136653)"
       gradientUnits="userSpaceOnUse"><stop
         stop-color="#fff"
         offset="0"
         id="stop49" /><stop
         stop-color="#fff"
         offset=".49412"
         id="stop51" /><stop
         stop-color="#cff"
         offset=".76471"
         id="stop53" /><stop
         stop-color="#cff"
         offset="1"
         id="stop55" /></radialGradient><radialGradient
       id="gradient12-2"
       cx="-283.77985"
       cy="588.15289"
       r="819.20001"
       gradientTransform="matrix(0.00372973,0.00372973,-0.00289914,0.00324135,23.54019,3.5966176)"
       gradientUnits="userSpaceOnUse"
       fx="-283.77985"
       fy="588.15289"><stop
         stop-color="#fff"
         offset="0"
         id="stop58" /><stop
         stop-color="#fff"
         offset="0.11993618"
         id="stop16"
         style="stop-color:#ffffff;stop-opacity:1;" /><stop
         stop-color="#ff9980"
         offset=".48627"
         id="stop60" /><stop
         stop-color="#f30"
         offset="1"
         id="stop62" /></radialGradient><linearGradient
       id="linearGradient17865-3"
       x1="-3.9323001"
       x2="-3.9323001"
       y1="12.5"
       y2="4.5"
       gradientUnits="userSpaceOnUse"
       gradientTransform="translate(18.000009,0.95242437)"><stop
         stop-color="#fc6"
         offset="0"
         id="stop1-6" /><stop
         stop-color="#ffd46e"
         offset=".5"
         id="stop2-7" /><stop
         stop-color="#ff9"
         offset="1"
         id="stop3" /></linearGradient><linearGradient
       id="linearGradient38453"
       x1="-2.4017999"
       x2="-4.4418001"
       y1="7.0517998"
       y2="4.0086999"
       gradientUnits="userSpaceOnUse"
       gradientTransform="translate(18.000009,0.95242437)"><stop
         stop-color="#b07d17"
         offset="0"
         id="stop4" /><stop
         stop-color="#c93"
         offset="1"
         id="stop5" /></linearGradient><linearGradient
       id="linearGradient70029-5"
       x1="-1.4323"
       x2="-1.4323"
       y1="15.5"
       y2="11.5"
       gradientTransform="translate(22.000009,-1.9999996)"
       gradientUnits="userSpaceOnUse"><stop
         stop-color="#ffd46e"
         offset="0"
         id="stop8" /><stop
         stop-color="#ff9"
         offset="1"
         id="stop9" /></linearGradient><linearGradient
       id="linearGradient99494-3"
       x1="7.0676999"
       x2="7.0676999"
       y1="12.5"
       y2="8.5"
       gradientUnits="userSpaceOnUse"><stop
         stop-color="#d3a03a"
         offset="0"
         id="stop10" /><stop
         stop-color="#f8c55f"
         offset="1"
         id="stop11-5" /></linearGradient><linearGradient
       id="linearGradient52101"
       x1="0.067708999"
       x2="-3.9677999"
       y1="15"
       y2="11.01"
       gradientTransform="translate(22.000009,-1.9999996)"
       gradientUnits="userSpaceOnUse"><stop
         stop-color="#9a6701"
         offset="0"
         id="stop6" /><stop
         stop-color="#c5922c"
         offset="1"
         id="stop7" /></linearGradient><linearGradient
       id="linearGradient2219"
       x1="7.7286"
       x2="-19.308"
       y1="-2.8029"
       y2="-2.8029"
       gradientTransform="matrix(0.50311,0,0,0.50311,10.21417,3.9055905)"
       gradientUnits="userSpaceOnUse"><stop
         stop-color="#333367"
         offset="0"
         id="stop1"
         style="stop-color:#333366;stop-opacity:1" /><stop
         stop-color="#039"
         offset="1"
         id="stop2"
         style="stop-color:#003399;stop-opacity:1" /></linearGradient><linearGradient
       id="linearGradient2227"
       x1="-14.94538"
       x2="8.9062634"
       y1="-3.5063713"
       y2="-3.5063713"
       gradientTransform="matrix(0.50311,0,0,0.50311,9.01917,3.7640905)"
       gradientUnits="userSpaceOnUse"><stop
         stop-color="#0082d6"
         offset="0"
         id="stop3-6"
         style="stop-color:#3e9ade;stop-opacity:1" /><stop
         stop-color="#00359a"
         offset="1"
         id="stop4-7"
         style="stop-color:#0066cc;stop-opacity:1" /></linearGradient><linearGradient
       id="linearGradient2235"
       x1="8.2623434"
       x2="-17.941"
       y1="22.242006"
       y2="4.0003"
       gradientTransform="matrix(0.50311404,0,0,0.50311404,9.526524,1.8097343)"
       gradientUnits="userSpaceOnUse"><stop
         stop-color="#343467"
         offset="0"
         id="stop5-5" /><stop
         stop-color="#99cbfe"
         offset="1"
         id="stop6-3" /></linearGradient><linearGradient
       id="linearGradient2243"
       x1="6.9190454"
       x2="-15.330188"
       y1="17.364056"
       gradientTransform="matrix(0.50311404,0,0,0.50311404,9.0189312,3.7640907)"
       gradientUnits="userSpaceOnUse"
       y2="0.85438818"><stop
         stop-color="#9cf"
         offset="0"
         id="stop7-5" /><stop
         stop-color="#fff"
         offset="1"
         id="stop8-6" /></linearGradient><linearGradient
       id="linearGradient1848-0-9-5"
       x1="6.6138"
       x2="6.6138"
       y1="0.14749117"
       y2="13.792339"
       gradientTransform="matrix(0.62294575,0,0,0.62294575,9.3799614,4.408121)"
       gradientUnits="userSpaceOnUse"><stop
         stop-color="#9fa0ff"
         offset="0"
         id="stop9-2" /><stop
         stop-color="#cbcaff"
         offset="1"
         id="stop10-9" /></linearGradient><linearGradient
       id="linearGradient1850-2-8-9"
       x1="1.2051"
       x2="18.862751"
       y1="10.068"
       y2="10.067942"
       gradientTransform="matrix(0.62294575,0,0,0.62294575,0.74952968,7.2282185)"
       gradientUnits="userSpaceOnUse"><stop
         stop-color="#ccccf2"
         offset="0"
         id="stop11-1" /><stop
         stop-color="#ccf"
         offset="1"
         id="stop12-2" /></linearGradient><filter
       id="filter1344"
       x="-0.00039105549"
       y="-0.00043617727"
       width="1.0007821"
       height="1.0008724"
       color-interpolation-filters="sRGB"><feGaussianBlur
         stdDeviation="0.0023626268"
         id="feGaussianBlur12" /></filter><linearGradient
       inkscape:collect="always"
       id="linearGradient14"><stop
         style="stop-color:#996600;stop-opacity:1"
         offset="0"
         id="stop13" /><stop
         style="stop-color:#ffff00;stop-opacity:1"
         offset="1"
         id="stop14" /></linearGradient><linearGradient
       id="linearGradient932"
       inkscape:collect="always"><stop
         id="stop928"
         offset="0"
         style="stop-color:#deffff;stop-opacity:1" /><stop
         id="stop930"
         offset="1"
         style="stop-color:#ffffff;stop-opacity:1;" /></linearGradient><linearGradient
       inkscape:collect="always"
       xlink:href="#linearGradient932"
       id="linearGradient7"
       gradientUnits="userSpaceOnUse"
       gradientTransform="matrix(0.35927017,0,0,0.35927017,37.079128,1.0951345)"
       x1="-51.1353"
       y1="24.864975"
       x2="-41.783092"
       y2="15.044014" /><linearGradient
       inkscape:collect="always"
       xlink:href="#linearGradient14"
       id="linearGradient17"
       gradientUnits="userSpaceOnUse"
       gradientTransform="matrix(0.75528919,0,0,1,11.041915,-0.38971569)"
       x1="16.817709"
       y1="4"
       x2="17.38752"
       y2="1.5290419" /><linearGradient
       inkscape:collect="always"
       xlink:href="#linearGradient14"
       id="linearGradient1"
       gradientUnits="userSpaceOnUse"
       gradientTransform="matrix(0.75528919,0,0,1,8.6932708,-0.28489699)"
       x1="16.817709"
       y1="4"
       x2="17.38752"
       y2="1.5290419" /><linearGradient
       inkscape:collect="always"
       xlink:href="#linearGradient14"
       id="linearGradient2"
       gradientUnits="userSpaceOnUse"
       gradientTransform="matrix(0.75528919,0,0,1,6.3446259,-0.12025797)"
       x1="16.817709"
       y1="4"
       x2="17.38752"
       y2="1.5290419" /><linearGradient
       inkscape:collect="always"
       xlink:href="#linearGradient14"
       id="linearGradient3"
       gradientUnits="userSpaceOnUse"
       gradientTransform="matrix(0.75528919,0,0,1,3.995982,0.02203182)"
       x1="16.817709"
       y1="4"
       x2="17.38752"
       y2="1.5290419" /><linearGradient
       inkscape:collect="always"
       xlink:href="#linearGradient1297"
       id="linearGradient1299-3-9"
       x1="-610.89648"
       y1="-86.140625"
       x2="-482.89648"
       y2="-86.140625"
       gradientUnits="userSpaceOnUse" /><linearGradient
       inkscape:collect="always"
       id="linearGradient1297"><stop
         style="stop-color:#ffcc66;stop-opacity:1"
         offset="0"
         id="stop1293" /><stop
         style="stop-color:#cc9900;stop-opacity:1"
         offset="1"
         id="stop1295" /></linearGradient><linearGradient
       inkscape:collect="always"
       xlink:href="#linearGradient1330"
       id="linearGradient1195-3-3"
       gradientUnits="userSpaceOnUse"
       gradientTransform="matrix(0.18365648,0,0,0.18365648,75.346995,-42.269155)"
       x1="-183.65593"
       y1="270.01913"
       x2="-151.74518"
       y2="270.01913" /><linearGradient
       inkscape:collect="always"
       id="linearGradient1330"><stop
         style="stop-color:#8f520c;stop-opacity:1"
         offset="0"
         id="stop1326" /><stop
         style="stop-color:#8f520c;stop-opacity:0"
         offset="1"
         id="stop1328" /></linearGradient><linearGradient
       inkscape:collect="always"
       xlink:href="#linearGradient1047"
       id="linearGradient1097-9"
       gradientUnits="userSpaceOnUse"
       gradientTransform="matrix(0.18365648,0,0,0.18365648,106.93914,-11.745146)"
       x1="-383.65329"
       y1="83.663925"
       x2="-351.65329"
       y2="83.663925" /><linearGradient
       inkscape:collect="always"
       id="linearGradient1047"><stop
         style="stop-color:#ececec;stop-opacity:1"
         offset="0"
         id="stop1043" /><stop
         style="stop-color:#29292d;stop-opacity:1"
         offset="1"
         id="stop1045" /></linearGradient><linearGradient
       inkscape:collect="always"
       xlink:href="#linearGradient1307"
       id="linearGradient1099-8"
       gradientUnits="userSpaceOnUse"
       gradientTransform="matrix(0.18365648,0,0,0.18365648,106.93914,-11.745146)"
       x1="-381.32599"
       y1="51.977211"
       x2="-352.63574"
       y2="60.823318" /><linearGradient
       id="linearGradient1307"
       inkscape:collect="always"><stop
         id="stop1303"
         offset="0"
         style="stop-color:#99ccff;stop-opacity:1" /><stop
         style="stop-color:#5e6b77;stop-opacity:1"
         offset="0.51075882"
         id="stop1309" /><stop
         id="stop1305"
         offset="1"
         style="stop-color:#4c4c4c;stop-opacity:1" /></linearGradient><filter
       inkscape:collect="always"
       style="color-interpolation-filters:sRGB"
       id="filter2852"
       x="-0.14652456"
       y="-0.14747853"
       width="1.2930491"
       height="1.2949571"><feGaussianBlur
         inkscape:collect="always"
         stdDeviation="0.92174083"
         id="feGaussianBlur2854" /></filter></defs><sodipodi:namedview
     showguides="true"
     id="base"
     pagecolor="#ffffff"
     bordercolor="#666666"
     borderopacity="1.0"
     inkscape:pageopacity="0.0"
     inkscape:pageshadow="2"
     inkscape:zoom="45.254834"
     inkscape:cx="12.341223"
     inkscape:cy="8.8277862"
     inkscape:document-units="px"
     inkscape:current-layer="layer1"
     inkscape:document-rotation="0"
     showgrid="true"
     units="px"
     inkscape:window-width="3840"
     inkscape:window-height="2061"
     inkscape:window-x="1280"
     inkscape:window-y="0"
     inkscape:window-maximized="1"
     inkscape:snap-bbox="true"
     inkscape:bbox-nodes="true"
     fit-margin-top="0"
     fit-margin-left="0"
     fit-margin-right="0"
     fit-margin-bottom="0"
     inkscape:bbox-paths="false"
     inkscape:snap-global="true"
     inkscape:pagecheckerboard="0"
     scale-x="0.26458"
     inkscape:showpageshadow="2"
     inkscape:deskcolor="#d1d1d1"><inkscape:grid
       type="xygrid"
       id="grid1504"
       originx="0"
       originy="0"
       spacingy="1"
       spacingx="1"
       units="px"
       visible="true" /><inkscape:grid
       type="xygrid"
       id="grid1507"
       spacingx="0.5"
       spacingy="0.5"
       originx="0"
       originy="0"
       units="px"
       visible="true" /></sodipodi:namedview><metadata
     id="metadata5"><rdf:RDF><cc:Work
         rdf:about=""><dc:format>image/svg+xml</dc:format><dc:type
           rdf:resource="http://purl.org/dc/dcmitype/StillImage" /></cc:Work></rdf:RDF></metadata><g
     inkscape:label="Layer 1"
     inkscape:groupmode="layer"
     id="layer1"
     transform="translate(-12.567709)"><path
       id="path2037"
       style="fill:#000000;fill-opacity:1;filter:url(#filter2852);opacity:0.75"
       d="m 24.055992,0.5 c -0.492106,0 -0.863394,0.5967532 -0.873047,1.2480469 l -0.130859,0.00586 c -0.02727,-0.629641 -0.393494,-1.16992241 -0.873047,-1.16992253 -0.498639,0 -0.875,0.61213153 -0.875,1.27343753 l -0.132812,0.00781 c -0.0343,-0.6207405 -0.396809,-1.15039054 -0.871094,-1.15039065 -0.492803,0 -0.864408,0.59958425 -0.873047,1.25195315 l -0.132812,0.00781 C 19.258314,1.3560226 18.896193,0.83007324 18.42318,0.83007312 c -0.492309,0 -0.863691,0.59643798 -0.873047,1.24804688 L 17.069664,2.105464 V 3.5 h -1.501953 c -0.229166,0 -0.364332,0.081476 -0.492187,0.1601562 -0.127856,0.07868 -0.244068,0.1733289 -0.363282,0.2792969 -0.238429,0.211936 -0.482464,0.4715893 -0.708984,0.7304688 C 13.550219,5.1876808 13.16732,5.6992188 13.16732,5.6992188 A 0.50005,0.50005 0 0 0 13.067711,6 v 8 c 0,0.82235 0.677651,1.5 1.5,1.5 h 11 1 c 0.82235,0 1.5,-0.67765 1.5,-1.5 V 8 a 0.50005,0.50005 0 0 0 -0.5,-0.5 h -0.234375 c -0.0054,-0.033487 -0.02215,-0.062242 -0.04883,-0.083984 L 26.975914,7.0390625 c 0.0057,-0.010496 0.01208,-0.020679 0.01758,-0.03125 l 0.888672,-0.091797 c 0.155803,-0.016115 0.283203,-0.1949612 0.283203,-0.4375 V 5.8027344 c 0,-0.2425388 -0.126568,-0.4375001 -0.283203,-0.4375 l -0.75,-0.087891 c -0.01457,-0.06097 -0.03448,-0.1221353 -0.05664,-0.1816407 L 27.28451,4.865234 C 27.395268,4.77497 27.33529,4.0781246 27.33529,4.0781246 h -0.002 C 27.334077,3.9744892 27.251778,3.836562 27.10482,3.7167969 26.894382,3.5452959 26.654737,3.5110152 26.524742,3.5703125 l -0.720703,0.328125 C 25.691465,3.852593 25.574614,3.8143113 25.45443,3.78125 V 3.2597656 A 0.90475076,0.62201613 0 0 0 24.864586,2.6757812 V 2.2128906 c 0.04158,-0.1458528 0.06445,-0.3043019 0.06445,-0.4667968 C 24.929039,1.084788 24.554632,0.50000032 24.055992,0.5 Z m 0,0.7988281 c 0.133879,0 0.269531,0.1725113 0.269532,0.4472657 0,0.017172 10e-4,0.036372 0,0.052734 l -0.458985,-0.091797 -0.08008,0.00391 c 0.01113,-0.2542073 0.141449,-0.4121094 0.269531,-0.4121094 z m -1.876953,0.083984 c 0.127441,0 0.255412,0.1562408 0.267578,0.4082031 l -0.539062,0.03125 c 0.0026,-0.2701525 0.138891,-0.4394531 0.271484,-0.4394531 z M 20.300133,1.515625 c 0.123492,0 0.248854,0.1464419 0.267578,0.3847656 l -0.537109,0.03125 C 20.040302,1.6747318 20.17128,1.515625 20.300133,1.515625 Z M 18.42318,1.6289062 c 0.122825,0 0.245857,0.1448173 0.265625,0.3808594 l -0.535156,0.03125 c 0.01113,-0.2542073 0.141449,-0.4121094 0.269531,-0.4121094 z" /><g
       id="g902"
       transform="translate(0,0.047576)"><path
         d="m 15.067709,3.4524244 h 3 c 0.5,0 1.9378,2 1.9378,2 h 5.0622 v 8.9999996 h -11 c -0.554,0 -1,-0.446 -1,-1 V 5.4524244 c 0,0 1.5,-2 2,-2 z"
         fill="url(#linearGradient17865)"
         fill-rule="evenodd"
         stop-color="#000000"
         id="path13"
         style="fill:url(#linearGradient17865-3)" /><path
         d="m 13.148609,6.8495244 2.0474,-2.3804 2.6693,-0.04805 1.7025,2.0314 h 5.5"
         fill="none"
         stroke="#ffffff"
         stroke-width="1px"
         id="path14" /><path
         d="m 15.067709,3.4524244 h 3 c 0.5,0 1.9378,2 1.9378,2 h 5.0622 v 8.9999996 h -11 c -0.554,0 -1,-0.446 -1,-1 V 5.4524244 c 0,0 1.5,-2 2,-2 z"
         fill="none"
         stop-color="#000000"
         stroke="url(#linearGradient38453)"
         stroke-linecap="round"
         stroke-linejoin="round"
         id="path15"
         style="stroke:url(#linearGradient38453)" /><path
         style="fill:none;stroke:#ffffff;stroke-width:1px;stroke-linecap:butt;stroke-linejoin:miter;stroke-opacity:1"
         d="m 19.567709,6.4524244 h 5.5"
         id="path50009"
         sodipodi:nodetypes="cc" /></g><rect
       x="15.067709"
       y="7.5000005"
       width="12"
       height="7"
       rx="1"
       ry="1"
       fill="url(#linearGradient70029)"
       fill-rule="evenodd"
       stop-color="#000000"
       id="rect15-2"
       style="fill:url(#linearGradient70029-5)" /><rect
       x="24.567709"
       y="7.9524245"
       width="1"
       height="1"
       fill="#ffe680"
       fill-rule="evenodd"
       stop-color="#000000"
       id="rect20" /><rect
       style="fill:#ffe680;fill-opacity:1;fill-rule:evenodd;stroke:none;stroke-width:1;stroke-linecap:round;stroke-linejoin:round;stroke-miterlimit:4;stroke-dasharray:none;stroke-opacity:1;stop-color:#000000"
       id="rect109807"
       width="1"
       height="1"
       x="24.567709"
       y="7.9524245" /><path
       style="fill:none;stroke:#ffffff;stroke-width:1px;stroke-linecap:butt;stroke-linejoin:miter;stroke-opacity:1"
       d="m 15.067709,8.5000004 h 12"
       id="path84301"
       sodipodi:nodetypes="cc" /><g
       stroke-width="1px"
       id="g19"
       transform="translate(18.000009,1.0000004)"
       style="fill:none"><path
         d="m -1.9323,7.5 v 6"
         stroke="#ffff99"
         id="path16" /><path
         d="m -2.9323,7.5 h 12"
         stroke="#ffffff"
         id="path18" /><path
         d="m 7.0677,6.5 v 7"
         stroke="url(#linearGradient99494)"
         id="path19"
         style="stroke:url(#linearGradient99494-3)" /><path
         d="m 8.0677,7.5 v 6"
         stroke="#ffff99"
         id="path17" /></g><path
       id="path904"
       style="fill:#bf9d40;fill-opacity:0.501961;stroke:none;stroke-width:0.287227px;stroke-linecap:butt;stroke-linejoin:miter;stroke-opacity:1"
       d="m 16.569662,8 v 4.049253 l 0.800781,0.199219 6.994141,-1.199219 v -0.929687 c 0.11375,-0.04602 0.186136,-0.114439 0.203125,-0.1855469 l 0.09766,-0.6582031 c 0.0018,-0.00451 0.0048,-0.00913 0.0059,-0.013672 l 0.05469,-0.3535157 c 0.05377,-0.013037 0.06438,-0.022398 0.121094,-0.039062 L 26.024787,9.45941 c 0.123639,0.071611 0.36964,0.025017 0.580078,-0.1464844 0.21044,-0.1715008 0.200286,-0.2883998 0.21875,-0.4726562 l 0.01172,-0.9610519 -0.002,-0.00195 z"
       sodipodi:nodetypes="cccccccccccscccc" /><g
       id="g754"
       transform="matrix(0.79947307,0,0,0.79947307,21.70758,6.1619254)"><g
         id="g1"
         transform="translate(-21.243487,-8.4484209)"><path
           id="path3864"
           style="fill:#6666cc;fill-opacity:1;stroke:none;stroke-width:0.35927px;stroke-linecap:butt;stroke-linejoin:miter;stroke-opacity:1"
           d="m 23.317709,2.25 -8.5,0.5 v 11.5 l 1,0.25 8.75,-12 z"
           sodipodi:nodetypes="cccccc" /><path
           style="fill:url(#linearGradient7);fill-opacity:1;stroke:none;stroke-width:0.35927px;stroke-linecap:butt;stroke-linejoin:miter;stroke-opacity:1"
           d="m 15.817709,3 v 11.5 l 8.75,-1.5 V 2.5 Z"
           id="path3870-5-9"
           sodipodi:nodetypes="ccccc" /><path
           style="color:#000000;fill:url(#linearGradient17);fill-rule:evenodd;stroke-width:0.869074;stroke-linecap:round;stroke-linejoin:round;-inkscape-stroke:none"
           d="m 23.555662,0.74093747 c -0.623711,0 -1.092534,0.76671903 -1.092534,1.59389713 l 0.753244,-0.035303 c 0,-0.3436696 0.171831,-0.5585937 0.33929,-0.5585937 0.16746,0 0.337815,0.2149241 0.337815,0.5585937 0,0.3436697 -0.170355,0.5605469 -0.337815,0.5605469 -0.208567,0 -0.377644,0.2238576 -0.377644,0.5 0,0.2761424 0.169077,0.5 0.377644,0.5 0.623711,0 1.093105,-0.7333687 1.093104,-1.5605469 0,-0.8271781 -0.469393,-1.55859373 -1.093104,-1.55859413 z"
           id="path11-4"
           sodipodi:nodetypes="sccsssssss" /><path
           style="color:#000000;fill:url(#linearGradient1);fill-rule:evenodd;stroke-width:0.869074;stroke-linecap:round;stroke-linejoin:round;-inkscape-stroke:none"
           d="m 21.207018,0.84575617 c -0.623711,0 -1.092534,0.76671903 -1.092534,1.59389713 l 0.753244,-0.035303 c 0,-0.3436696 0.171831,-0.5585937 0.33929,-0.5585937 0.16746,0 0.337815,0.2149241 0.337815,0.5585937 0,0.3436697 -0.170355,0.5605469 -0.337815,0.5605469 -0.208567,0 -0.377644,0.2238576 -0.377644,0.5 0,0.2761424 0.169077,0.5 0.377644,0.5 0.623711,0 1.093105,-0.7333687 1.093104,-1.5605469 0,-0.8271781 -0.469393,-1.55859373 -1.093104,-1.55859413 z"
           id="path11-4-7"
           sodipodi:nodetypes="sccsssssss" /><path
           style="color:#000000;fill:url(#linearGradient2);fill-rule:evenodd;stroke-width:0.869074;stroke-linecap:round;stroke-linejoin:round;-inkscape-stroke:none"
           d="m 18.858373,1.0103952 c -0.623711,0 -1.092534,0.766719 -1.092534,1.5938971 l 0.753244,-0.035303 c 0,-0.3436696 0.171831,-0.5585937 0.33929,-0.5585937 0.16746,0 0.337815,0.2149241 0.337815,0.5585937 0,0.3436697 -0.170355,0.5605469 -0.337815,0.5605469 -0.208567,0 -0.377644,0.2238576 -0.377644,0.5 0,0.2761424 0.169077,0.5 0.377644,0.5 0.623711,0 1.093105,-0.7333687 1.093104,-1.5605469 0,-0.8271781 -0.469393,-1.5585937 -1.093104,-1.5585941 z"
           id="path11-4-5"
           sodipodi:nodetypes="sccsssssss" /><path
           sodipodi:nodetypes="cc"
           id="path3882-9-3-6-2"
           d="m 17.567709,6.5 h 3.5"
           style="fill:#3e9ade;stroke:#3e9ade;stroke-width:1;stroke-linecap:butt;stroke-linejoin:miter;stroke-dasharray:none;stroke-opacity:1" /><path
           sodipodi:nodetypes="cc"
           id="path3882-9-3-6-2-9"
           d="m 17.567709,8.5 h 4.5"
           style="fill:#3e9ade;stroke:#3e9ade;stroke-width:1;stroke-linecap:butt;stroke-linejoin:miter;stroke-dasharray:none;stroke-opacity:1" /><path
           sodipodi:nodetypes="cc"
           id="path3882-9-3-6-2-9-1"
           d="m 17.567709,10.5 h 4.5"
           style="fill:#3e9ade;stroke:#3e9ade;stroke-width:1;stroke-linecap:butt;stroke-linejoin:miter;stroke-dasharray:none;stroke-opacity:1" /><path
           sodipodi:nodetypes="cc"
           id="path3882-9-3-6-2-9-2"
           d="m 17.567709,12.5 h 1.5"
           style="fill:#3e9ade;stroke:#3e9ade;stroke-width:1;stroke-linecap:butt;stroke-linejoin:miter;stroke-dasharray:none;stroke-opacity:1" /><path
           style="color:#000000;fill:url(#linearGradient3);fill-rule:evenodd;stroke-width:0.869074;stroke-linecap:round;stroke-linejoin:round;-inkscape-stroke:none"
           d="m 16.509729,1.152685 c -0.623711,0 -1.092534,0.766719 -1.092534,1.5938971 l 0.753244,-0.035303 c 0,-0.3436696 0.171831,-0.5585937 0.33929,-0.5585937 0.16746,0 0.337815,0.2149241 0.337815,0.5585937 0,0.3436697 -0.170355,0.5605469 -0.337815,0.5605469 -0.208567,0 -0.377644,0.2238576 -0.377644,0.5 0,0.2761424 0.169077,0.5 0.377644,0.5 0.623711,0 1.093105,-0.7333687 1.093104,-1.5605469 0,-0.8271781 -0.469393,-1.5585937 -1.093104,-1.5585941 z"
           id="path11-4-9"
           sodipodi:nodetypes="sccsssssss" /></g><g
         id="g2"
         transform="matrix(0.38512243,0,0,0.38512243,-12.250286,-3.7561091)"><path
           id="path1126-1"
           style="fill:#3e9ade;fill-opacity:1;fill-rule:evenodd;stroke:none;stroke-width:0.207246;stroke-linecap:round;stroke-linejoin:round"
           d="m 40.355715,1.5593328 c -0.676268,0.100487 -1.128703,0.387937 -1.220703,0.708984 l -0.605469,2.115234 c -0.660481,0.141343 -1.296458,0.342529 -1.892578,0.597657 l -2.185547,-1.132813 c -0.411976,-0.213594 -1.199335,-0.08045 -1.882812,0.476563 -0.683478,0.557008 -0.94371,1.240039 -0.583984,1.533203 l 1.390625,1.621094 c -0.43326,0.598712 -0.735215,1.245938 -0.894532,1.916015 l -2.435547,0.28125 c -0.505383,0.05824 -0.919922,0.6341432 -0.919921,1.4218752 0,0.787732 0.411194,1.421875 0.919921,1.421875 l 2.884766,0.298828 c 0.193596,0.37193 0.433654,0.729952 0.716797,1.06836 l -1.662109,2.449218 c -0.359726,0.293165 -0.09949,0.978146 0.583984,1.535157 0.683477,0.557009 1.481588,0.709726 1.882812,0.476562 l 3.292969,-1.914062 c 0.22792,0.06733 0.458528,0.127262 0.69336,0.179687 l 0.439453,3.300781 c 0,0.33956 0.695683,0.631151 1.478515,0.726563 z" /><g
           id="g1245-9-2"
           transform="matrix(0.18365648,0,0,0.14967375,164.49252,-21.218223)"
           style="fill:#893500;fill-opacity:1"><path
             id="path1237-3-9"
             style="opacity:1;fill:#990000;fill-opacity:1;fill-rule:evenodd;stroke:none;stroke-width:1.12844;stroke-linecap:round;stroke-linejoin:round"
             d="m -546.89648,-126.34375 c -5.263,0 -8.87813,1.90411 -9.5,4.07422 l -3.30274,11.52734 c -3.59629,0.7696 -7.05494,1.86084 -10.30078,3.25 l -11.89844,-6.16797 c -2.24319,-1.163 -14.31566,-2.97869 -14.31566,-2.97869 0,0 -1.07857,12.33165 0.88012,13.92791 l 7.57226,8.822268 c -2.35934,3.26057 -4.00389,6.782428 -4.87109,10.431641 l -18.26367,-2.683595 V -74.1875 c 0,4.289165 2.23,7.742188 5,7.742188 l 15.70703,1.628906 c 1.05474,2.025193 2.36192,3.971898 3.90429,5.814453 l -9.92894,3.359552 0.30186,9.869399 c 0.16643,2.234521 0.0384,5.435417 3.7599,8.468314 3.7215,3.032898 8.06925,3.861367 10.2539,2.591797 l 20.49336,-10.416015 c 1.24105,0.365927 1.5471,0.665963 2.82571,0.950775 l 2.35365,17.625755 c 0.46475,2.261297 4.06624,4.523079 9.32924,4.523079 5.263,0 8.71658,-2.084329 9.24117,-4.279986 l 2.66731,-18.104079 c 1.07842,-0.250842 1.2219,-0.394958 2.27298,-0.703826 l 20.82049,10.404297 c 2.18649,1.266401 6.53045,0.441101 10.25195,-2.591797 3.7215,-3.032897 3.53872,-5.087231 3.86524,-8.345703 l 0.19726,-9.992187 -7.41211,-6.779297 c 0.50305,-0.786171 0.96627,-1.586218 1.38867,-2.398437 l 15.70704,-1.625 c 2.7553,-0.284986 5,-3.453023 5,-7.742188 v -11.953126 l -18.26954,2.654298 c -0.89322,-3.736703 -2.60147,-7.338601 -5.05664,-10.66211 l 7.76172,-8.562502 c 1.95869,-1.59626 0.88012,-13.92791 0.88012,-13.92791 0,0 -12.01483,1.93005 -14.31371,2.97869 l -12.74609,5.81446 c -2.83106,-1.15346 -5.81525,-2.08361 -8.9043,-2.77539 l -3.85156,-11.64844 c 0,-2.25746 -4.237,-4.07422 -9.5,-4.07422 z"
             transform="matrix(1,0,0,1.2270454,-134.20708,293.9699)"
             sodipodi:nodetypes="scccccccccscccccsccccsccccscccccscccccccccs" /></g><g
           transform="matrix(0.18365648,0,0,0.14967375,164.49252,-23.413629)"
           id="g1401-4-1-8-0-3"><path
             id="rect1061-6-20-7-7-9-6-1"
             style="opacity:1;fill:url(#linearGradient1299-3-9);fill-opacity:1;fill-rule:evenodd;stroke:none;stroke-width:1.12844;stroke-linecap:round;stroke-linejoin:round"
             d="m -546.89648,-138.29883 c -5.263,0 -8.87813,1.90607 -9.5,4.07617 l -3.30274,11.52735 c -3.59629,0.7696 -7.05494,1.86084 -10.30078,3.25 l -11.89844,-6.16992 c -2.24319,-1.16301 -6.5324,-0.43915 -10.2539,2.59375 -3.72151,3.03289 -5.14033,6.7592 -3.18164,8.35546 l 7.57226,8.82422 c -2.35908,3.25996 -4.00362,6.781149 -4.87109,10.429691 l -13.26367,1.529297 c -2.75179,0.317135 -5,3.453022 -5,7.742187 0,4.289165 2.23,7.742187 5,7.742187 l 15.70898,1.628907 c 1.05412,2.025139 2.36064,3.971843 3.90234,5.814453 l -9.04882,13.339844 c -1.95869,1.596261 -0.53987,5.322571 3.18164,8.355468 3.7215,3.032898 8.06925,3.86332 10.2539,2.59375 l 17.92578,-10.417968 c 1.24101,0.366587 2.5026,0.693061 3.78125,0.978515 l 2.38508,17.975383 c 0,2.257456 5.64685,4.147664 10.90985,4.147664 5.263,0 10.52778,-2.025354 11.05237,-4.221011 l 2.78942,-18.027036 c 1.0778,-0.251518 2.14296,-0.532304 3.19336,-0.841797 l 17.9668,10.40625 c 2.18649,1.266401 6.53045,0.439148 10.25195,-2.59375 3.7215,-3.032897 5.14033,-6.759207 3.18164,-8.355468 l -10.01953,-12.230469 c 1.97034,-2.164459 3.6064,-4.48849 4.87695,-6.927735 l 15.70704,-1.625 c 2.7553,-0.284985 5,-3.453022 5,-7.742187 0,-4.289165 -2.23,-7.742188 -5,-7.742187 l -13.26954,-1.556641 c -0.89322,-3.736702 -2.60147,-7.338597 -5.05664,-10.662107 l 7.76172,-8.56446 c 1.95869,-1.59626 0.53986,-5.32257 -3.18164,-8.35546 -3.7215,-3.0329 -7.95307,-3.64239 -10.25195,-2.59375 l -12.74805,5.81445 c -2.83054,-1.1527 -5.81407,-2.08219 -8.90234,-2.77344 l -3.85156,-11.64844 c 0,-2.25745 -4.237,-4.07617 -9.5,-4.07617 z"
             transform="matrix(1,0,0,1.2270454,-134.20708,308.63784)"
             sodipodi:nodetypes="sccccsccccsccccsccccscccssccccsccccsccccs" /></g><path
           sodipodi:nodetypes="cccccc"
           id="path1324-7-2-2-9"
           d="m 39.306686,9.1565928 c 1.607087,0 2.005612,-0.05502 2.904736,-0.72004 l 5.072155,-0.01304 c 0.999925,-0.01025 -0.430904,-2.936845 -1.199439,-2.936845 h -3.858679 z"
           style="fill:url(#linearGradient1195-3-3);fill-opacity:1;stroke:none;stroke-width:0.183657px;stroke-linecap:butt;stroke-linejoin:miter;stroke-opacity:1" /><path
           sodipodi:nodetypes="cccc"
           id="path932-9-2-6-3-1-4"
           d="m 36.478721,-1.2954112 v 7.835356 c 0,3.456147 5.877007,3.5231352 5.877007,-0.0044 v -7.830899"
           style="fill:url(#linearGradient1097-9);fill-opacity:1;stroke:none;stroke-width:0.183657px;stroke-linecap:butt;stroke-linejoin:miter;stroke-opacity:1" /><ellipse
           rx="2.9385042"
           ry="2.0202215"
           cy="-1.2954115"
           cx="39.417225"
           id="path930-1-9-8-1-8-7"
           style="fill:url(#linearGradient1099-8);fill-opacity:1;fill-rule:evenodd;stroke:none;stroke-width:0.242327;stroke-linecap:round;stroke-linejoin:round" /></g></g><path
       id="rect15"
       style="opacity:0.5;mix-blend-mode:hard-light;fill:#e6c56b;fill-rule:evenodd;stroke-linecap:round"
       d="M 26.630209,7.3664353 16.569662,7.3789062 V 10.800781 L 17.370443,11 24.364584,9.8007812 V 8.8710938 c 0.11375,-0.046019 0.186136,-0.1144391 0.203125,-0.1855469 l 0.09766,-0.6582031 c 0.0018,-0.00451 0.0048,-0.00913 0.0059,-0.013672 l 0.05469,-0.3535157 c 0.05377,-0.013037 0.06438,-0.022398 0.121094,-0.039062 l 1.177734,0.5898437 c 0.123639,0.071611 0.369641,0.025016 0.580078,-0.1464844 0.0039,-0.00319 0.006,-0.00661 0.0098,-0.00977 z"
       sodipodi:nodetypes="ccccccccccccscc" /><path
       style="opacity:0.5;fill:none;stroke:#ffffff;stroke-width:1px;stroke-linecap:butt;stroke-linejoin:miter;stroke-opacity:1"
       d="m 15.567709,8.5000004 h 11.5"
       id="path2306"
       sodipodi:nodetypes="cc" /><path
       d="m 16.067709,7.5000004 h 11 V 13.5 c 0,0.554 -0.446,1 -1,1 h -10 c -0.554,0 -1,-0.446 -1,-1 V 8.5000004 c 0,-0.554 0.446,-1 1,-1 z"
       stop-color="#000000"
       stroke="url(#linearGradient52101)"
       stroke-linecap="round"
       stroke-linejoin="round"
       id="path20"
       style="fill:none;stroke:url(#linearGradient52101)" /></g></svg>
