<?xml version="1.0" encoding="UTF-8" standalone="no"?>
<svg
   inkscape:export-ydpi="96"
   inkscape:export-xdpi="96"
   inkscape:export-filename="config-file.png"
   sodipodi:docname="config-file.svg"
   inkscape:version="1.3.2 (1:1.3.2+202311252150+091e20ef0f)"
   id="svg8"
   version="1.1"
   viewBox="0 0 16 16"
   height="16"
   width="16"
   xml:space="preserve"
   xmlns:inkscape="http://www.inkscape.org/namespaces/inkscape"
   xmlns:sodipodi="http://sodipodi.sourceforge.net/DTD/sodipodi-0.dtd"
   xmlns:xlink="http://www.w3.org/1999/xlink"
   xmlns="http://www.w3.org/2000/svg"
   xmlns:svg="http://www.w3.org/2000/svg"
   xmlns:rdf="http://www.w3.org/1999/02/22-rdf-syntax-ns#"
   xmlns:cc="http://creativecommons.org/ns#"
   xmlns:dc="http://purl.org/dc/elements/1.1/"><defs
     id="defs2"><linearGradient
       inkscape:collect="always"
       id="linearGradient14"><stop
         style="stop-color:#996600;stop-opacity:1"
         offset="0"
         id="stop13" /><stop
         style="stop-color:#ffff00;stop-opacity:1"
         offset="1"
         id="stop14" /></linearGradient><linearGradient
       id="linearGradient932"
       inkscape:collect="always"><stop
         id="stop928"
         offset="0"
         style="stop-color:#deffff;stop-opacity:1" /><stop
         id="stop930"
         offset="1"
         style="stop-color:#ffffff;stop-opacity:1;" /></linearGradient><linearGradient
       inkscape:collect="always"
       xlink:href="#linearGradient932"
       id="linearGradient7"
       gradientUnits="userSpaceOnUse"
       gradientTransform="matrix(0.35927017,0,0,0.35927017,37.079128,1.0951345)"
       x1="-51.1353"
       y1="24.864975"
       x2="-41.783092"
       y2="15.044014" /><linearGradient
       inkscape:collect="always"
       xlink:href="#linearGradient14"
       id="linearGradient17"
       gradientUnits="userSpaceOnUse"
       gradientTransform="matrix(0.75528919,0,0,1,11.041915,-0.38971569)"
       x1="16.817709"
       y1="4"
       x2="17.38752"
       y2="1.5290419" /><linearGradient
       inkscape:collect="always"
       xlink:href="#linearGradient14"
       id="linearGradient1"
       gradientUnits="userSpaceOnUse"
       gradientTransform="matrix(0.75528919,0,0,1,8.6932708,-0.28489699)"
       x1="16.817709"
       y1="4"
       x2="17.38752"
       y2="1.5290419" /><linearGradient
       inkscape:collect="always"
       xlink:href="#linearGradient14"
       id="linearGradient2"
       gradientUnits="userSpaceOnUse"
       gradientTransform="matrix(0.75528919,0,0,1,6.3446259,-0.12025797)"
       x1="16.817709"
       y1="4"
       x2="17.38752"
       y2="1.5290419" /><linearGradient
       inkscape:collect="always"
       xlink:href="#linearGradient14"
       id="linearGradient3"
       gradientUnits="userSpaceOnUse"
       gradientTransform="matrix(0.75528919,0,0,1,3.995982,0.02203182)"
       x1="16.817709"
       y1="4"
       x2="17.38752"
       y2="1.5290419" /><linearGradient
       inkscape:collect="always"
       xlink:href="#linearGradient1297"
       id="linearGradient1299-3-9"
       x1="-610.89648"
       y1="-86.140625"
       x2="-482.89648"
       y2="-86.140625"
       gradientUnits="userSpaceOnUse" /><linearGradient
       inkscape:collect="always"
       id="linearGradient1297"><stop
         style="stop-color:#ffcc66;stop-opacity:1"
         offset="0"
         id="stop1293" /><stop
         style="stop-color:#cc9900;stop-opacity:1"
         offset="1"
         id="stop1295" /></linearGradient><linearGradient
       inkscape:collect="always"
       xlink:href="#linearGradient1330"
       id="linearGradient1195-3-3"
       gradientUnits="userSpaceOnUse"
       gradientTransform="matrix(0.18365648,0,0,0.18365648,75.346995,-42.269155)"
       x1="-183.65593"
       y1="270.01913"
       x2="-151.74518"
       y2="270.01913" /><linearGradient
       inkscape:collect="always"
       id="linearGradient1330"><stop
         style="stop-color:#8f520c;stop-opacity:1"
         offset="0"
         id="stop1326" /><stop
         style="stop-color:#8f520c;stop-opacity:0"
         offset="1"
         id="stop1328" /></linearGradient><linearGradient
       inkscape:collect="always"
       xlink:href="#linearGradient1047"
       id="linearGradient1097-9"
       gradientUnits="userSpaceOnUse"
       gradientTransform="matrix(0.18365648,0,0,0.18365648,106.93914,-11.745146)"
       x1="-383.65329"
       y1="83.663925"
       x2="-351.65329"
       y2="83.663925" /><linearGradient
       inkscape:collect="always"
       id="linearGradient1047"><stop
         style="stop-color:#ececec;stop-opacity:1"
         offset="0"
         id="stop1043" /><stop
         style="stop-color:#29292d;stop-opacity:1"
         offset="1"
         id="stop1045" /></linearGradient><linearGradient
       inkscape:collect="always"
       xlink:href="#linearGradient1307"
       id="linearGradient1099-8"
       gradientUnits="userSpaceOnUse"
       gradientTransform="matrix(0.18365648,0,0,0.18365648,106.93914,-11.745146)"
       x1="-381.32599"
       y1="51.977211"
       x2="-352.63574"
       y2="60.823318" /><linearGradient
       id="linearGradient1307"
       inkscape:collect="always"><stop
         id="stop1303"
         offset="0"
         style="stop-color:#99ccff;stop-opacity:1" /><stop
         style="stop-color:#5e6b77;stop-opacity:1"
         offset="0.51075882"
         id="stop1309" /><stop
         id="stop1305"
         offset="1"
         style="stop-color:#4c4c4c;stop-opacity:1" /></linearGradient><filter
       inkscape:collect="always"
       style="color-interpolation-filters:sRGB"
       id="filter31"
       x="-0.14637933"
       y="-0.14762595"
       width="1.2927587"
       height="1.2952519"><feGaussianBlur
         inkscape:collect="always"
         stdDeviation="0.8463744"
         id="feGaussianBlur31" /></filter></defs><sodipodi:namedview
     inkscape:guide-bbox="true"
     inkscape:snap-object-midpoints="true"
     showguides="true"
     inkscape:snap-global="true"
     inkscape:bbox-paths="false"
     fit-margin-bottom="0"
     fit-margin-right="0"
     fit-margin-left="0"
     fit-margin-top="0"
     inkscape:bbox-nodes="true"
     inkscape:snap-bbox="true"
     inkscape:window-maximized="1"
     inkscape:window-y="0"
     inkscape:window-x="0"
     inkscape:window-height="2058"
     inkscape:window-width="3840"
     units="px"
     showgrid="false"
     inkscape:document-rotation="0"
     inkscape:current-layer="layer1"
     inkscape:document-units="px"
     inkscape:cy="13.740918"
     inkscape:cx="-3.7723999"
     inkscape:zoom="25.580533"
     inkscape:pageshadow="2"
     inkscape:pageopacity="0.0"
     borderopacity="1.0"
     bordercolor="#666666"
     pagecolor="#ffffff"
     id="base"
     inkscape:pagecheckerboard="0"
     inkscape:showpageshadow="2"
     inkscape:deskcolor="#d1d1d1"><inkscape:grid
       originy="0"
       originx="0"
       id="grid1504"
       type="xygrid"
       spacingy="1"
       spacingx="1"
       units="px"
       visible="false" /><inkscape:grid
       originy="0"
       originx="0"
       spacingy="0.5"
       spacingx="0.5"
       id="grid1507"
       type="xygrid"
       units="px"
       visible="false" /><inkscape:grid
       id="grid7"
       units="px"
       originx="0"
       originy="0"
       spacingx="0.25"
       spacingy="0.25"
       empcolor="#3f3fff"
       empopacity="0.25098039"
       color="#3f3fff"
       opacity="0.1254902"
       empspacing="5"
       dotted="false"
       gridanglex="30"
       gridanglez="30"
       visible="false" /></sodipodi:namedview><metadata
     id="metadata5"><rdf:RDF><cc:Work
         rdf:about=""><dc:format>image/svg+xml</dc:format><dc:type
           rdf:resource="http://purl.org/dc/dcmitype/StillImage" /></cc:Work></rdf:RDF></metadata><g
     transform="translate(-12.567709)"
     id="layer1"
     inkscape:groupmode="layer"
     inkscape:label="Layer 1"><path
       id="path1"
       style="fill:#000000;fill-opacity:1;stroke:none;stroke-width:0.35927px;stroke-linecap:butt;stroke-linejoin:miter;stroke-opacity:1;filter:url(#filter31);opacity:0.75"
       d="m 22.80599,1.24 c -0.61522,0 -1.081217,0.7463825 -1.09375,1.5605468 l -0.164062,0.00977 C 21.514598,2.0220824 21.056613,1.3454734 20.456381,1.345473 c -0.623224,0 -1.091066,0.7673133 -1.091797,1.59375 l -0.166016,0.00781 c -0.04358,-0.7755582 -0.497114,-1.4374996 -1.089843,-1.4375 -0.616719,0 -1.083396,0.7499303 -1.09375,1.5664063 l -0.166016,0.00977 c -0.04447,-0.7743946 -0.4978,-1.4335934 -1.089844,-1.4335937 -0.615719,0 -1.079988,0.7475644 -1.091797,1.5625 l -0.599609,0.035156 V 14.749766 l 1,0.25 8.75,-1.5 v -1.164062 c 0.141682,-0.05756 0.232707,-0.14174 0.253906,-0.230469 l 0.121094,-0.824219 c 0.0024,-0.0059 0.0064,-0.01166 0.0078,-0.01758 l 0.06836,-0.441406 c 0.06682,-0.01624 0.08158,-0.02609 0.152344,-0.04687 l 1.472656,0.734375 c 0.154651,0.08957 0.461387,0.03288 0.724609,-0.181641 0.263222,-0.214518 0.250343,-0.361324 0.273438,-0.591797 l 0.01367,-0.705078 -0.002,-0.002 C 26.90324,9.972921 26.886846,9.924453 26.844996,9.8903466 L 26.458334,9.4177344 c 0.0068,-0.012486 0.01495,-0.02454 0.02148,-0.037109 L 27.591143,9.265391 C 27.786025,9.245234 27.944658,9.0218893 27.944658,8.718516 V 7.8728125 c 0,-0.3033733 -0.157594,-0.5468751 -0.353515,-0.546875 l -0.9375,-0.1113281 C 26.63545,7.1384877 26.610979,7.0642971 26.583334,6.99 l 0.261719,-0.2890625 c 0.138539,-0.1129037 0.06055,-0.984375 0.06055,-0.984375 h -0.002 C 26.904446,5.5869574 26.802197,5.4131523 26.61849,5.2634375 26.355268,5.04892 26.056481,5.0076263 25.893881,5.0817968 L 24.991537,5.4919531 C 24.851202,5.4348034 24.705784,5.3867379 24.55599,5.3454687 V 4.693125 A 1.1316838,0.7780326 0 0 0 23.817709,3.9646094 V 3.3845312 c 0.05234,-0.1829524 0.08203,-0.3819947 0.08203,-0.5859375 0,-0.8271772 -0.470039,-1.5585933 -1.09375,-1.5585937 z m 0,1 c 0.16746,0 0.337891,0.2149245 0.337891,0.5585937 0,0.021479 -6.65e-4,0.045939 -0.002,0.066406 L 22.567709,2.7497656 22.4681,2.755625 C 22.481926,2.4374748 22.64573,2.24 22.80599,2.24 Z m -2.349609,0.1054687 c 0.158954,0 0.319935,0.1942245 0.335937,0.5078125 l -0.673828,0.041016 c 0.0033,-0.3378206 0.172066,-0.5488281 0.337891,-0.5488285 z m -2.347656,0.1640625 c 0.154541,0 0.310679,0.1840701 0.333984,0.4824219 l -0.671875,0.039063 c 0.01205,-0.3215863 0.17665,-0.5214844 0.337891,-0.5214849 z m -2.34961,0.1425782 c 0.153951,0 0.309753,0.1821819 0.333985,0.4785156 l -0.669922,0.039063 c 0.01324,-0.3192942 0.17535,-0.5175782 0.335937,-0.5175786 z" /><g
       id="g1"
       transform="translate(-1.25)"><path
         id="path3864"
         style="fill:#6666cc;fill-opacity:1;stroke:none;stroke-width:0.35927px;stroke-linecap:butt;stroke-linejoin:miter;stroke-opacity:1"
         d="m 23.317709,2.25 -8.5,0.5 v 11.5 l 1,0.25 8.75,-12 z"
         sodipodi:nodetypes="cccccc" /><path
         style="fill:url(#linearGradient7);fill-opacity:1;stroke:none;stroke-width:0.35927px;stroke-linecap:butt;stroke-linejoin:miter;stroke-opacity:1"
         d="m 15.817709,3 v 11.5 l 8.75,-1.5 V 2.5 Z"
         id="path3870-5-9"
         sodipodi:nodetypes="ccccc" /><path
         style="color:#000000;fill:url(#linearGradient17);fill-rule:evenodd;stroke-width:0.869074;stroke-linecap:round;stroke-linejoin:round;-inkscape-stroke:none"
         d="m 23.555662,0.74093747 c -0.623711,0 -1.092534,0.76671903 -1.092534,1.59389713 l 0.753244,-0.035303 c 0,-0.3436696 0.171831,-0.5585937 0.33929,-0.5585937 0.16746,0 0.337815,0.2149241 0.337815,0.5585937 0,0.3436697 -0.170355,0.5605469 -0.337815,0.5605469 -0.208567,0 -0.377644,0.2238576 -0.377644,0.5 0,0.2761424 0.169077,0.5 0.377644,0.5 0.623711,0 1.093105,-0.7333687 1.093104,-1.5605469 0,-0.8271781 -0.469393,-1.55859373 -1.093104,-1.55859413 z"
         id="path11-4"
         sodipodi:nodetypes="sccsssssss" /><path
         style="color:#000000;fill:url(#linearGradient1);fill-rule:evenodd;stroke-width:0.869074;stroke-linecap:round;stroke-linejoin:round;-inkscape-stroke:none"
         d="m 21.207018,0.84575617 c -0.623711,0 -1.092534,0.76671903 -1.092534,1.59389713 l 0.753244,-0.035303 c 0,-0.3436696 0.171831,-0.5585937 0.33929,-0.5585937 0.16746,0 0.337815,0.2149241 0.337815,0.5585937 0,0.3436697 -0.170355,0.5605469 -0.337815,0.5605469 -0.208567,0 -0.377644,0.2238576 -0.377644,0.5 0,0.2761424 0.169077,0.5 0.377644,0.5 0.623711,0 1.093105,-0.7333687 1.093104,-1.5605469 0,-0.8271781 -0.469393,-1.55859373 -1.093104,-1.55859413 z"
         id="path11-4-7"
         sodipodi:nodetypes="sccsssssss" /><path
         style="color:#000000;fill:url(#linearGradient2);fill-rule:evenodd;stroke-width:0.869074;stroke-linecap:round;stroke-linejoin:round;-inkscape-stroke:none"
         d="m 18.858373,1.0103952 c -0.623711,0 -1.092534,0.766719 -1.092534,1.5938971 l 0.753244,-0.035303 c 0,-0.3436696 0.171831,-0.5585937 0.33929,-0.5585937 0.16746,0 0.337815,0.2149241 0.337815,0.5585937 0,0.3436697 -0.170355,0.5605469 -0.337815,0.5605469 -0.208567,0 -0.377644,0.2238576 -0.377644,0.5 0,0.2761424 0.169077,0.5 0.377644,0.5 0.623711,0 1.093105,-0.7333687 1.093104,-1.5605469 0,-0.8271781 -0.469393,-1.5585937 -1.093104,-1.5585941 z"
         id="path11-4-5"
         sodipodi:nodetypes="sccsssssss" /><path
         sodipodi:nodetypes="cc"
         id="path3882-9-3-6-2"
         d="m 17.567709,6.5 h 3.5"
         style="fill:#3e9ade;stroke:#3e9ade;stroke-width:1;stroke-linecap:butt;stroke-linejoin:miter;stroke-dasharray:none;stroke-opacity:1" /><path
         sodipodi:nodetypes="cc"
         id="path3882-9-3-6-2-9"
         d="m 17.567709,8.5 h 4.5"
         style="fill:#3e9ade;stroke:#3e9ade;stroke-width:1;stroke-linecap:butt;stroke-linejoin:miter;stroke-dasharray:none;stroke-opacity:1" /><path
         sodipodi:nodetypes="cc"
         id="path3882-9-3-6-2-9-1"
         d="m 17.567709,10.5 h 4.5"
         style="fill:#3e9ade;stroke:#3e9ade;stroke-width:1;stroke-linecap:butt;stroke-linejoin:miter;stroke-dasharray:none;stroke-opacity:1" /><path
         sodipodi:nodetypes="cc"
         id="path3882-9-3-6-2-9-2"
         d="m 17.567709,12.5 h 1.5"
         style="fill:#3e9ade;stroke:#3e9ade;stroke-width:1;stroke-linecap:butt;stroke-linejoin:miter;stroke-dasharray:none;stroke-opacity:1" /><path
         style="color:#000000;fill:url(#linearGradient3);fill-rule:evenodd;stroke-width:0.869074;stroke-linecap:round;stroke-linejoin:round;-inkscape-stroke:none"
         d="m 16.509729,1.152685 c -0.623711,0 -1.092534,0.766719 -1.092534,1.5938971 l 0.753244,-0.035303 c 0,-0.3436696 0.171831,-0.5585937 0.33929,-0.5585937 0.16746,0 0.337815,0.2149241 0.337815,0.5585937 0,0.3436697 -0.170355,0.5605469 -0.337815,0.5605469 -0.208567,0 -0.377644,0.2238576 -0.377644,0.5 0,0.2761424 0.169077,0.5 0.377644,0.5 0.623711,0 1.093105,-0.7333687 1.093104,-1.5605469 0,-0.8271781 -0.469393,-1.5585937 -1.093104,-1.5585941 z"
         id="path11-4-9"
         sodipodi:nodetypes="sccsssssss" /></g><g
       id="g2"
       transform="matrix(0.38512243,0,0,0.38512243,7.7432007,4.6923118)"><path
         id="path1126-1"
         style="fill:#3e9ade;fill-opacity:1;fill-rule:evenodd;stroke:none;stroke-width:0.207246;stroke-linecap:round;stroke-linejoin:round"
         d="m 40.355715,1.5593328 c -0.676268,0.100487 -1.128703,0.387937 -1.220703,0.708984 l -0.605469,2.115234 c -0.660481,0.141343 -1.296458,0.342529 -1.892578,0.597657 l -2.185547,-1.132813 c -0.411976,-0.213594 -1.199335,-0.08045 -1.882812,0.476563 -0.683478,0.557008 -0.94371,1.240039 -0.583984,1.533203 l 1.390625,1.621094 c -0.43326,0.598712 -0.735215,1.245938 -0.894532,1.916015 l -2.435547,0.28125 c -0.505383,0.05824 -0.919922,0.6341432 -0.919921,1.4218752 0,0.787732 0.411194,1.421875 0.919921,1.421875 l 2.884766,0.298828 c 0.193596,0.37193 0.433654,0.729952 0.716797,1.06836 l -1.662109,2.449218 c -0.359726,0.293165 -0.09949,0.978146 0.583984,1.535157 0.683477,0.557009 1.481588,0.709726 1.882812,0.476562 l 3.292969,-1.914062 c 0.22792,0.06733 0.458528,0.127262 0.69336,0.179687 l 0.439453,3.300781 c 0,0.33956 0.695683,0.631151 1.478515,0.726563 z" /><g
         id="g1245-9-2"
         transform="matrix(0.18365648,0,0,0.14967375,164.49252,-21.218223)"
         style="fill:#893500;fill-opacity:1"><path
           id="path1237-3-9"
           style="opacity:1;fill:#990000;fill-opacity:1;fill-rule:evenodd;stroke:none;stroke-width:1.12844;stroke-linecap:round;stroke-linejoin:round"
           d="m -546.89648,-126.34375 c -5.263,0 -8.87813,1.90411 -9.5,4.07422 l -3.30274,11.52734 c -3.59629,0.7696 -7.05494,1.86084 -10.30078,3.25 l -11.89844,-6.16797 c -2.24319,-1.163 -14.31566,-2.97869 -14.31566,-2.97869 0,0 -1.07857,12.33165 0.88012,13.92791 l 7.57226,8.822268 c -2.35934,3.26057 -4.00389,6.782428 -4.87109,10.431641 l -18.26367,-2.683595 V -74.1875 c 0,4.289165 2.23,7.742188 5,7.742188 l 15.70703,1.628906 c 1.05474,2.025193 2.36192,3.971898 3.90429,5.814453 l -9.92894,3.359552 0.30186,9.869399 c 0.16643,2.234521 0.0384,5.435417 3.7599,8.468314 3.7215,3.032898 8.06925,3.861367 10.2539,2.591797 l 20.49336,-10.416015 c 1.24105,0.365927 1.5471,0.665963 2.82571,0.950775 l 2.35365,17.625755 c 0.46475,2.261297 4.06624,4.523079 9.32924,4.523079 5.263,0 8.71658,-2.084329 9.24117,-4.279986 l 2.66731,-18.104079 c 1.07842,-0.250842 1.2219,-0.394958 2.27298,-0.703826 l 20.82049,10.404297 c 2.18649,1.266401 6.53045,0.441101 10.25195,-2.591797 3.7215,-3.032897 3.53872,-5.087231 3.86524,-8.345703 l 0.19726,-9.992187 -7.41211,-6.779297 c 0.50305,-0.786171 0.96627,-1.586218 1.38867,-2.398437 l 15.70704,-1.625 c 2.7553,-0.284986 5,-3.453023 5,-7.742188 v -11.953126 l -18.26954,2.654298 c -0.89322,-3.736703 -2.60147,-7.338601 -5.05664,-10.66211 l 7.76172,-8.562502 c 1.95869,-1.59626 0.88012,-13.92791 0.88012,-13.92791 0,0 -12.01483,1.93005 -14.31371,2.97869 l -12.74609,5.81446 c -2.83106,-1.15346 -5.81525,-2.08361 -8.9043,-2.77539 l -3.85156,-11.64844 c 0,-2.25746 -4.237,-4.07422 -9.5,-4.07422 z"
           transform="matrix(1,0,0,1.2270454,-134.20708,293.9699)"
           sodipodi:nodetypes="scccccccccscccccsccccsccccscccccscccccccccs" /></g><g
         transform="matrix(0.18365648,0,0,0.14967375,164.49252,-23.413629)"
         id="g1401-4-1-8-0-3"><path
           id="rect1061-6-20-7-7-9-6-1"
           style="opacity:1;fill:url(#linearGradient1299-3-9);fill-opacity:1;fill-rule:evenodd;stroke:none;stroke-width:1.12844;stroke-linecap:round;stroke-linejoin:round"
           d="m -546.89648,-138.29883 c -5.263,0 -8.87813,1.90607 -9.5,4.07617 l -3.30274,11.52735 c -3.59629,0.7696 -7.05494,1.86084 -10.30078,3.25 l -11.89844,-6.16992 c -2.24319,-1.16301 -6.5324,-0.43915 -10.2539,2.59375 -3.72151,3.03289 -5.14033,6.7592 -3.18164,8.35546 l 7.57226,8.82422 c -2.35908,3.25996 -4.00362,6.781149 -4.87109,10.429691 l -13.26367,1.529297 c -2.75179,0.317135 -5,3.453022 -5,7.742187 0,4.289165 2.23,7.742187 5,7.742187 l 15.70898,1.628907 c 1.05412,2.025139 2.36064,3.971843 3.90234,5.814453 l -9.04882,13.339844 c -1.95869,1.596261 -0.53987,5.322571 3.18164,8.355468 3.7215,3.032898 8.06925,3.86332 10.2539,2.59375 l 17.92578,-10.417968 c 1.24101,0.366587 2.5026,0.693061 3.78125,0.978515 l 2.38508,17.975383 c 0,2.257456 5.64685,4.147664 10.90985,4.147664 5.263,0 10.52778,-2.025354 11.05237,-4.221011 l 2.78942,-18.027036 c 1.0778,-0.251518 2.14296,-0.532304 3.19336,-0.841797 l 17.9668,10.40625 c 2.18649,1.266401 6.53045,0.439148 10.25195,-2.59375 3.7215,-3.032897 5.14033,-6.759207 3.18164,-8.355468 l -10.01953,-12.230469 c 1.97034,-2.164459 3.6064,-4.48849 4.87695,-6.927735 l 15.70704,-1.625 c 2.7553,-0.284985 5,-3.453022 5,-7.742187 0,-4.289165 -2.23,-7.742188 -5,-7.742187 l -13.26954,-1.556641 c -0.89322,-3.736702 -2.60147,-7.338597 -5.05664,-10.662107 l 7.76172,-8.56446 c 1.95869,-1.59626 0.53986,-5.32257 -3.18164,-8.35546 -3.7215,-3.0329 -7.95307,-3.64239 -10.25195,-2.59375 l -12.74805,5.81445 c -2.83054,-1.1527 -5.81407,-2.08219 -8.90234,-2.77344 l -3.85156,-11.64844 c 0,-2.25745 -4.237,-4.07617 -9.5,-4.07617 z"
           transform="matrix(1,0,0,1.2270454,-134.20708,308.63784)"
           sodipodi:nodetypes="sccccsccccsccccsccccscccssccccsccccsccccs" /></g><path
         sodipodi:nodetypes="cccccc"
         id="path1324-7-2-2-9"
         d="m 39.306686,9.1565928 c 1.607087,0 2.005612,-0.05502 2.904736,-0.72004 l 5.072155,-0.01304 c 0.999925,-0.01025 -0.430904,-2.936845 -1.199439,-2.936845 h -3.858679 z"
         style="fill:url(#linearGradient1195-3-3);fill-opacity:1;stroke:none;stroke-width:0.183657px;stroke-linecap:butt;stroke-linejoin:miter;stroke-opacity:1" /><path
         sodipodi:nodetypes="cccc"
         id="path932-9-2-6-3-1-4"
         d="m 36.478721,-1.2954112 v 7.835356 c 0,3.456147 5.877007,3.5231352 5.877007,-0.0044 v -7.830899"
         style="fill:url(#linearGradient1097-9);fill-opacity:1;stroke:none;stroke-width:0.183657px;stroke-linecap:butt;stroke-linejoin:miter;stroke-opacity:1" /><ellipse
         rx="2.9385042"
         ry="2.0202215"
         cy="-1.2954115"
         cx="39.417225"
         id="path930-1-9-8-1-8-7"
         style="fill:url(#linearGradient1099-8);fill-opacity:1;fill-rule:evenodd;stroke:none;stroke-width:0.242327;stroke-linecap:round;stroke-linejoin:round" /></g></g></svg>
