<?xml version="1.0" encoding="UTF-8" standalone="no"?>
<svg
   width="16"
   height="16"
   viewBox="0 0 16 16"
   version="1.1"
   id="svg8"
   inkscape:version="1.3.2 (1:1.3.2+202311252150+091e20ef0f)"
   sodipodi:docname="console.svg"
   inkscape:export-filename="console.png"
   inkscape:export-xdpi="96"
   inkscape:export-ydpi="96"
   xml:space="preserve"
   xmlns:inkscape="http://www.inkscape.org/namespaces/inkscape"
   xmlns:sodipodi="http://sodipodi.sourceforge.net/DTD/sodipodi-0.dtd"
   xmlns:xlink="http://www.w3.org/1999/xlink"
   xmlns="http://www.w3.org/2000/svg"
   xmlns:svg="http://www.w3.org/2000/svg"
   xmlns:rdf="http://www.w3.org/1999/02/22-rdf-syntax-ns#"
   xmlns:cc="http://creativecommons.org/ns#"
   xmlns:dc="http://purl.org/dc/elements/1.1/"><defs
     id="defs2"><linearGradient
       inkscape:collect="always"
       xlink:href="#linearGradient3813-6"
       id="linearGradient1119-0"
       gradientUnits="userSpaceOnUse"
       x1="-94.14949"
       y1="7.382513"
       x2="-94.14949"
       y2="1.2452079"
       gradientTransform="matrix(0.32587593,0,0,0.32587593,50.248761,1.5942167)" /><linearGradient
       inkscape:collect="always"
       id="linearGradient3813-6"><stop
         style="stop-color:#003399;stop-opacity:1"
         offset="0"
         id="stop3809-2" /><stop
         style="stop-color:#0099ff;stop-opacity:1"
         offset="0.625"
         id="stop2" /><stop
         style="stop-color:#99ccff;stop-opacity:1"
         offset="1"
         id="stop1" /></linearGradient><filter
       inkscape:collect="always"
       style="color-interpolation-filters:sRGB"
       id="filter9"
       x="-0.1372"
       y="-0.1583077"
       width="1.2744"
       height="1.3166154"><feGaussianBlur
         inkscape:collect="always"
         stdDeviation="0.8575"
         id="feGaussianBlur9" /></filter></defs><sodipodi:namedview
     inkscape:guide-bbox="true"
     id="base"
     pagecolor="#ffffff"
     bordercolor="#666666"
     borderopacity="1.0"
     inkscape:pageopacity="0.0"
     inkscape:pageshadow="2"
     inkscape:zoom="32"
     inkscape:cx="0.296875"
     inkscape:cy="16.390625"
     inkscape:document-units="px"
     inkscape:current-layer="layer1"
     inkscape:document-rotation="0"
     showgrid="true"
     units="px"
     inkscape:window-width="3840"
     inkscape:window-height="2058"
     inkscape:window-x="3840"
     inkscape:window-y="0"
     inkscape:window-maximized="1"
     inkscape:snap-bbox="true"
     inkscape:bbox-nodes="true"
     fit-margin-top="0"
     fit-margin-left="0"
     fit-margin-right="0"
     fit-margin-bottom="0"
     inkscape:bbox-paths="false"
     inkscape:snap-global="true"
     showguides="true"
     inkscape:pagecheckerboard="0"
     inkscape:showpageshadow="2"
     inkscape:deskcolor="#d1d1d1"><inkscape:grid
       type="xygrid"
       id="grid1504"
       originx="0"
       originy="0"
       spacingy="1"
       spacingx="1"
       units="px"
       visible="true" /><inkscape:grid
       type="xygrid"
       id="grid1507"
       spacingx="0.5"
       spacingy="0.5"
       originx="0"
       originy="0"
       units="px"
       visible="true" /></sodipodi:namedview><metadata
     id="metadata5"><rdf:RDF><cc:Work
         rdf:about=""><dc:format>image/svg+xml</dc:format><dc:type
           rdf:resource="http://purl.org/dc/dcmitype/StillImage" /></cc:Work></rdf:RDF></metadata><g
     inkscape:label="Layer 1"
     inkscape:groupmode="layer"
     id="layer1"
     transform="translate(-12.567709)"><path
       id="path1"
       style="fill:#000000;fill-opacity:1;stroke:none;stroke-width:0.428294;stroke-linecap:butt;stroke-linejoin:miter;stroke-miterlimit:4;stroke-dasharray:none;stroke-opacity:1;filter:url(#filter9);opacity:0.75"
       d="M 15.067709,1.5 C 14.484378,1.5 13.957044,1.6536339 13.589193,2.0214844 13.221343,2.3893347 13.067709,2.9166679 13.067709,3.5 v 11 h 15 v -11 c 0,-0.5833321 -0.153634,-1.1106653 -0.521484,-1.4785156 C 27.178374,1.6536339 26.651041,1.5 26.067709,1.5 Z" /><path
       style="fill:#050101;fill-opacity:1;stroke:none;stroke-width:0.428294;stroke-linecap:butt;stroke-linejoin:miter;stroke-miterlimit:4;stroke-dasharray:none;stroke-opacity:1"
       d="M 13.067709,3.7283233 V 13.5 h 14 V 3.8244982 Z"
       id="path3642-2-1"
       sodipodi:nodetypes="ccccc" /><path
       style="fill:url(#linearGradient1119-0);fill-opacity:1;stroke:none;stroke-width:0.428294;stroke-linecap:butt;stroke-linejoin:miter;stroke-miterlimit:4;stroke-dasharray:none;stroke-opacity:1"
       d="m 13.067709,4 0.13205,-1.7571548 0.7359,-0.4856904 12.718278,0.1158807 0.401992,0.5412967 L 27.067709,4"
       id="path3338-0-8"
       sodipodi:nodetypes="cccccc" /><path
       style="fill:none;stroke:#0066cc;stroke-width:1;stroke-linecap:butt;stroke-linejoin:miter;stroke-miterlimit:4;stroke-dasharray:none;stroke-opacity:1"
       d="m 27.067709,3 c 0,-1 -0.5,-1.5 -1.5,-1.5 h -11 c -1,0 -1.5,0.5 -1.5,1.5 v 10.5 h 14 z"
       id="path116814-6-7"
       sodipodi:nodetypes="ccccccc" /><path
       id="rect162598-0-9"
       style="fill:#ff794b;fill-rule:evenodd;stroke-width:0.428294;stroke-linecap:round;stroke-linejoin:round;stroke-miterlimit:4;stroke-dasharray:none;stop-color:#000000"
       d="m 24.568183,2.4995076 h 1 l -9.48e-4,1.0009848 -0.999052,-9.848e-4 z"
       sodipodi:nodetypes="ccccc" /><path
       id="rect162598-0-5"
       style="fill:#99ccff;fill-rule:evenodd;stroke-width:0.428294;stroke-linecap:round;stroke-linejoin:round;stroke-miterlimit:4;stroke-dasharray:none;stop-color:#000000"
       d="m 22.568183,2.4995076 h 1 l -9.5e-4,1.0009847 -0.99905,-9.847e-4 z"
       sodipodi:nodetypes="ccccc" /><path
       id="rect162598-0-5-3"
       style="fill:#99ccff;fill-rule:evenodd;stroke-width:0.428294;stroke-linecap:round;stroke-linejoin:round;stroke-miterlimit:4;stroke-dasharray:none;stop-color:#000000"
       d="m 20.567709,2.5 h 1 L 21.566759,3.5009847 20.567709,3.5 Z"
       sodipodi:nodetypes="ccccc" /><g
       id="g1"
       transform="matrix(1.3841034,0,0,1.3841034,-6.0395361,-3.2517062)"><path
         id="path26711"
         style="color:#000000;font-weight:bold;font-size:12.3044px;font-family:'Times New Roman';-inkscape-font-specification:'Microsoft Sans Serif';text-align:center;letter-spacing:0px;word-spacing:0px;text-anchor:middle;fill:#fdf7f7;fill-opacity:1;stroke:none;stroke-width:0.37833;stroke-dasharray:none"
         d="m 16.574752,6.2612188 c -0.504287,0 -0.923157,0.1675197 -1.230029,0.4981538 -0.305724,0.3295655 -0.456207,0.776258 -0.456207,1.3229191 0,0.5466623 0.150625,0.9941438 0.456207,1.3251665 v 7.565e-4 c 0.306926,0.3290817 0.72585,0.4951569 1.230029,0.4951569 0.403317,0 0.746863,-0.1028877 1.018783,-0.3116263 0.274014,-0.2103536 0.430737,-0.515268 0.465194,-0.8906863 l 0.0089,-0.1018784 h -0.658465 l -0.0075,0.085403 c -0.01998,0.2174541 -0.09981,0.3703888 -0.24346,0.4816741 -0.144903,0.1122507 -0.337169,0.1715457 -0.588794,0.1715457 -0.321094,0 -0.558498,-0.1046629 -0.741617,-0.3183706 -0.181795,-0.2121566 -0.278666,-0.5199624 -0.278666,-0.9371298 0,-0.4186258 0.0972,-0.7266345 0.280166,-0.9371285 h 7.57e-4 c 0.184548,-0.2137136 0.424703,-0.3176212 0.749107,-0.3176212 0.240476,0 0.42924,0.05641 0.578307,0.1670499 v 7.564e-4 c 0.149896,0.1102435 0.227567,0.2482682 0.244208,0.4367275 l 0.0075,0.085403 h 0.659959 L 18.058723,7.4148582 C 18.023824,7.071724 17.861076,6.7849402 17.581544,6.5751121 17.303089,6.3660928 16.963348,6.2619868 16.574748,6.2619868 Z m 1.961156,0.9805774 v 0.6547176 h 0.669699 V 7.8021304 7.2417996 Z m 0,1.9499204 V 9.846433 h 0.669699 V 9.7520497 9.1917201 Z" /><path
         style="color:#000000;fill:#fdf7f7;fill-opacity:1;stroke-width:0.37833;stroke-dasharray:none"
         d="M 20.513122,6.6802994 19.915259,7.0357922 21.515548,9.8153579 22.11341,9.4598651 Z"
         id="path26507"
         sodipodi:nodetypes="ccccc" /></g></g></svg>
