<?xml version="1.0" encoding="UTF-8" standalone="no"?>
<svg
   width="16"
   height="16"
   viewBox="0 0 16 16"
   version="1.1"
   id="svg8"
   inkscape:version="1.3.2 (1:1.3.2+202311252150+091e20ef0f)"
   sodipodi:docname="cover-all.svg"
   inkscape:export-filename="/media/klapeto/Αρχεία/WindowsXP Theme/Vectors/RASTER/security.png"
   inkscape:export-xdpi="96"
   inkscape:export-ydpi="96"
   xmlns:inkscape="http://www.inkscape.org/namespaces/inkscape"
   xmlns:sodipodi="http://sodipodi.sourceforge.net/DTD/sodipodi-0.dtd"
   xmlns:xlink="http://www.w3.org/1999/xlink"
   xmlns="http://www.w3.org/2000/svg"
   xmlns:svg="http://www.w3.org/2000/svg"
   xmlns:rdf="http://www.w3.org/1999/02/22-rdf-syntax-ns#"
   xmlns:cc="http://creativecommons.org/ns#"
   xmlns:dc="http://purl.org/dc/elements/1.1/">
  <defs
     id="defs2">
    <linearGradient
       inkscape:collect="always"
       id="linearGradient3">
      <stop
         style="stop-color:#848ace;stop-opacity:1"
         offset="0"
         id="stop2" />
      <stop
         style="stop-color:#6666cc;stop-opacity:1"
         offset="1"
         id="stop3" />
    </linearGradient>
    <linearGradient
       inkscape:collect="always"
       id="linearGradient43875">
      <stop
         style="stop-color:#ffffff;stop-opacity:0.99792176"
         offset="0"
         id="stop43871" />
      <stop
         style="stop-color:#ffffff;stop-opacity:0"
         offset="0.41335297"
         id="stop46208" />
      <stop
         style="stop-color:#ffffff;stop-opacity:0"
         offset="0.69808322"
         id="stop44412" />
      <stop
         style="stop-color:#ffffff;stop-opacity:0.40000001"
         offset="0.89826292"
         id="stop45374" />
      <stop
         style="stop-color:#ffffff;stop-opacity:0.40000001"
         offset="1"
         id="stop43873" />
    </linearGradient>
    <linearGradient
       inkscape:collect="always"
       id="linearGradient2056">
      <stop
         style="stop-color:#ffffff;stop-opacity:1"
         offset="0"
         id="stop2052" />
      <stop
         style="stop-color:#9999ff;stop-opacity:1"
         offset="0.2"
         id="stop2109" />
      <stop
         style="stop-color:#ccccff;stop-opacity:1"
         offset="1"
         id="stop2054" />
    </linearGradient>
    <linearGradient
       inkscape:collect="always"
       xlink:href="#linearGradient2056"
       id="linearGradient2058"
       x1="-62.210537"
       y1="41.485077"
       x2="-62.210537"
       y2="80.711922"
       gradientUnits="userSpaceOnUse"
       gradientTransform="matrix(1.0182075,0,0,1.0182075,99.667191,-39.313791)" />
    <radialGradient
       inkscape:collect="always"
       xlink:href="#linearGradient43875"
       id="radialGradient43879"
       cx="-27.432291"
       cy="47.161766"
       fx="-27.432291"
       fy="47.161766"
       r="15"
       gradientTransform="matrix(0.58155276,2.0240512,-1.6752601,0.48133772,123.21943,43.494249)"
       gradientUnits="userSpaceOnUse" />
    <linearGradient
       inkscape:collect="always"
       xlink:href="#linearGradient3"
       id="linearGradient15454"
       x1="-65.111061"
       y1="46.475666"
       x2="-65.111061"
       y2="38.752747"
       gradientUnits="userSpaceOnUse"
       gradientTransform="matrix(1.0182075,0,0,1.0182075,99.118528,-35.474191)" />
    <linearGradient
       inkscape:collect="always"
       xlink:href="#linearGradient3"
       id="linearGradient48845"
       gradientUnits="userSpaceOnUse"
       x1="-65.111061"
       y1="46.475666"
       x2="-65.111061"
       y2="38.752747"
       gradientTransform="matrix(-1.0182075,0,0,1.0182075,-25.991092,-35.446217)" />
    <filter
       inkscape:collect="always"
       style="color-interpolation-filters:sRGB"
       id="filter11"
       x="-0.16219892"
       y="-0.13440547"
       width="1.3243978"
       height="1.2688109">
      <feGaussianBlur
         inkscape:collect="always"
         stdDeviation="0.8400342"
         id="feGaussianBlur11" />
    </filter>
    <linearGradient
       inkscape:collect="always"
       xlink:href="#linearGradient1698"
       id="linearGradient4"
       gradientUnits="userSpaceOnUse"
       gradientTransform="matrix(0.0382093,0,0,0.0382093,14.008855,1.1211473)"
       x1="317.28595"
       y1="273.63574"
       x2="260.22446"
       y2="181.2579" />
    <linearGradient
       inkscape:collect="always"
       id="linearGradient1698">
      <stop
         style="stop-color:#009900;stop-opacity:1"
         offset="0"
         id="stop1694" />
      <stop
         style="stop-color:#99ff66;stop-opacity:1"
         offset="1"
         id="stop1696" />
    </linearGradient>
    <linearGradient
       inkscape:collect="always"
       xlink:href="#linearGradient13090"
       id="linearGradient5"
       gradientUnits="userSpaceOnUse"
       gradientTransform="matrix(0.0382093,0,0,0.0382093,19.815698,6.0146376)"
       x1="148.29961"
       y1="173.03317"
       x2="106.65976"
       y2="38.476788" />
    <linearGradient
       inkscape:collect="always"
       id="linearGradient13090">
      <stop
         style="stop-color:#006600;stop-opacity:1"
         offset="0"
         id="stop13086" />
      <stop
         style="stop-color:#66cc33;stop-opacity:1"
         offset="1"
         id="stop13088" />
    </linearGradient>
    <linearGradient
       inkscape:collect="always"
       xlink:href="#linearGradient1698"
       id="linearGradient1700"
       x1="317.28595"
       y1="273.63574"
       x2="260.22446"
       y2="181.2579"
       gradientUnits="userSpaceOnUse"
       gradientTransform="matrix(0.0382093,0,0,0.0382093,10.789825,1.1306228)" />
    <linearGradient
       inkscape:collect="always"
       xlink:href="#linearGradient13090"
       id="linearGradient13092"
       x1="148.29961"
       y1="173.03317"
       x2="106.65976"
       y2="38.476788"
       gradientUnits="userSpaceOnUse"
       gradientTransform="matrix(0.0382093,0,0,0.0382093,16.596668,6.0241131)" />
    <filter
       inkscape:collect="always"
       style="color-interpolation-filters:sRGB"
       id="filter9"
       x="-0.15743833"
       y="-0.13785975"
       width="1.3148767"
       height="1.2757195">
      <feGaussianBlur
         inkscape:collect="always"
         stdDeviation="0.71992683"
         id="feGaussianBlur9" />
    </filter>
  </defs>
  <sodipodi:namedview
     inkscape:snap-object-midpoints="false"
     inkscape:snap-bbox-midpoints="false"
     showguides="false"
     id="base"
     pagecolor="#ffffff"
     bordercolor="#666666"
     borderopacity="1.0"
     inkscape:pageopacity="0.0"
     inkscape:pageshadow="2"
     inkscape:zoom="64"
     inkscape:cx="2.0390625"
     inkscape:cy="6.3515625"
     inkscape:document-units="px"
     inkscape:current-layer="layer1"
     inkscape:document-rotation="0"
     showgrid="false"
     units="px"
     inkscape:window-width="3840"
     inkscape:window-height="2058"
     inkscape:window-x="3840"
     inkscape:window-y="0"
     inkscape:window-maximized="1"
     inkscape:snap-bbox="true"
     inkscape:bbox-nodes="true"
     fit-margin-top="0"
     fit-margin-left="0"
     fit-margin-right="0"
     fit-margin-bottom="0"
     inkscape:bbox-paths="false"
     inkscape:snap-global="true"
     inkscape:pagecheckerboard="0"
     inkscape:showpageshadow="2"
     inkscape:deskcolor="#d1d1d1">
    <inkscape:grid
       type="xygrid"
       id="grid1504"
       originx="0"
       originy="0"
       spacingy="1"
       spacingx="1"
       units="px"
       visible="false" />
    <inkscape:grid
       type="xygrid"
       id="grid1507"
       spacingx="0.5"
       spacingy="0.5"
       originx="0"
       originy="0"
       units="px"
       visible="false" />
  </sodipodi:namedview>
  <metadata
     id="metadata5">
    <rdf:RDF>
      <cc:Work
         rdf:about="">
        <dc:format>image/svg+xml</dc:format>
        <dc:type
           rdf:resource="http://purl.org/dc/dcmitype/StillImage" />
      </cc:Work>
    </rdf:RDF>
  </metadata>
  <g
     inkscape:label="Layer 1"
     inkscape:groupmode="layer"
     id="layer1"
     transform="translate(-12.567709)">
    <path
       id="path1"
       style="color:#000000;opacity:0.75;fill:#000000;fill-opacity:1;fill-rule:evenodd;stroke-linecap:round;stroke-linejoin:round;-inkscape-stroke:none;filter:url(#filter11)"
       d="m 18.819186,0.50000001 a 0.36889588,0.36889588 0 0 0 -0.201172,0.0605469 C 18.095535,0.90291134 17.234095,1.6516333 16.258639,2.328125 15.283184,3.0046167 14.200816,3.5693287 13.473483,3.5722656 a 0.36889588,0.36889588 0 0 0 -0.367188,0.3691406 c 0,4.7469203 1.36499,7.6429928 2.824219,9.3417968 0.729615,0.849402 1.478949,1.398189 2.085938,1.736328 0.303493,0.16907 0.571645,0.285282 0.787109,0.361328 0.215464,0.07605 0.342238,0.119141 0.517578,0.119141 0.165095,0 0.294316,-0.03804 0.509766,-0.109375 0.215449,-0.07133 0.484952,-0.18128 0.789062,-0.34375 0.608222,-0.32494 1.359057,-0.859359 2.089844,-1.699219 1.461574,-1.679719 2.826172,-4.5770503 2.826172,-9.4062498 A 0.36889588,0.36889588 0 0 0 25.166842,3.5722656 c -0.753877,0 -1.839307,-0.574789 -2.810547,-1.2578125 C 21.385054,1.6314297 20.545951,0.88281419 20.014498,0.55468751 a 0.36889588,0.36889588 0 0 0 -0.193359,-0.0546875 z" />
    <g
       id="g3"
       transform="matrix(0.32807451,0,0,0.32807451,6.8243629,0.11832333)">
      <path
         id="path50814"
         style="fill:none;fill-opacity:1;fill-rule:evenodd;stroke:#484848;stroke-width:2.24863;stroke-linecap:round;stroke-linejoin:round;stroke-miterlimit:4;stroke-dasharray:none;stroke-opacity:1;stop-color:#000000"
         d="M 35.040394,0.76365508 C 32.201544,2.6238632 24.206057,10.104356 18.749074,10.126391 c 0,28.50981 16.29132,34.109951 17.818631,34.109951 1.527311,0 17.818631,-5.091038 17.818631,-34.109951 -5.616303,0 -13.51199,-7.6467386 -16.29132,-9.36273592 z" />
      <path
         id="rect20883"
         style="fill:#ff3300;fill-opacity:1;fill-rule:evenodd;stroke:none;stroke-width:15.2731;stroke-linecap:round;stroke-linejoin:round;stop-color:#000000"
         d="m 35.255174,3.5080418 c -1.748921,1.3116905 -6.162308,5.0850473 -14.469683,8.1456602 0,4.924113 0.612497,9.78319 1.527311,13.236697 H 37.076811 V 3.5080418 Z"
         sodipodi:nodetypes="cccccc" />
      <path
         id="rect20883-5"
         style="fill:#ffff00;fill-opacity:1;fill-rule:evenodd;stroke:none;stroke-width:15.2731;stroke-linecap:round;stroke-linejoin:round;stop-color:#000000"
         d="m 36.56373,23.872192 -0.01638,18.364222 c 1.052132,0 11.685662,-4.389094 15.289497,-18.364222 z"
         sodipodi:nodetypes="cccc" />
      <path
         id="rect20883-3"
         style="fill:#66cc33;fill-opacity:1;fill-rule:evenodd;stroke:none;stroke-width:15.2731;stroke-linecap:round;stroke-linejoin:round;stop-color:#000000"
         d="M 36.567707,3.5080418 36.567139,24.381295 H 50.818635 C 51.707692,20.933667 52.345946,16.076207 52.345946,11.144598 47.536412,10.270137 39.62916,4.8197323 37.880239,3.5080418 Z"
         sodipodi:nodetypes="cccccc" />
      <path
         id="rect20883-5-2"
         style="fill:#0099ff;fill-opacity:1;fill-rule:evenodd;stroke:none;stroke-width:15.2731;stroke-linecap:round;stroke-linejoin:round;stop-color:#000000"
         d="M 22.312802,24.381295 C 25.94685,38.100169 35.519808,41.690823 36.567707,41.690823 L 36.567139,24.381295 Z"
         sodipodi:nodetypes="cccc" />
      <path
         style="mix-blend-mode:normal;fill:url(#radialGradient43879);fill-opacity:1;stroke:none;stroke-width:0.872749px;stroke-linecap:butt;stroke-linejoin:miter;stroke-opacity:1"
         d="M 19.603115,12.234297 C 27.894233,9.1796745 32.713065,4.8171665 34.458564,3.5080418 h 2.618247 c 1.745499,1.3091247 10.244859,7.5315992 15.04498,8.4043482 0,24.873355 -14.886414,30.525796 -16.195537,30.525796 -1.309124,0 -16.323139,-5.766909 -16.323139,-30.203889 z"
         id="path1054-7"
         sodipodi:nodetypes="cccczc" />
      <path
         id="path1054"
         style="fill:url(#linearGradient2058);fill-opacity:1;stroke:none;stroke-width:1.01821px;stroke-linecap:butt;stroke-linejoin:miter;stroke-opacity:1"
         d="M 35.040396,0.76455597 C 32.201545,2.6247641 24.206059,10.104355 18.749076,10.12639 c 0,28.50981 16.29132,34.109952 17.818631,34.109952 1.527311,0 17.818631,-5.091038 17.818631,-34.109952 -5.616303,0 -13.51199,-7.6458367 -16.29132,-9.36183403 z M 34.527315,4.2359013 c 0,0 0.736131,8.8368327 2.019457,8.8368327 1.283327,0 2.053373,-8.8368327 2.053373,-8.8368327 1.745499,1.3091246 9.22678,7.4926157 13.236697,7.6365567 0,24.873354 -13.963989,29.235679 -15.273112,29.235679 -1.309124,0 -15.273113,-4.798699 -15.273113,-29.235679 3.711333,0.09308 11.491199,-6.3274321 13.236698,-7.6365567 z"
         sodipodi:nodetypes="ccscccczccscc" />
      <path
         style="fill:url(#linearGradient15454);stroke:none;stroke-width:1.01821px;stroke-linecap:butt;stroke-linejoin:miter;stroke-opacity:1"
         d="m 21.286139,12.815652 c 4.044341,0 11.455648,-6.6336251 12.935678,-7.4147755 0.304697,2.0144909 0.58941,5.3850765 1.920105,7.2449315 C 35.123714,11.118496 35.052429,3.5815372 35.052429,3.5815372 30.470496,6.127056 24.870197,11.844484 21.290592,11.844484 Z"
         id="path878"
         sodipodi:nodetypes="cccccc" />
      <path
         style="fill:url(#linearGradient48845);fill-opacity:1;stroke:none;stroke-width:1.01821px;stroke-linecap:butt;stroke-linejoin:miter;stroke-opacity:1"
         d="m 51.841298,12.737294 c -4.195214,0 -11.455648,-6.5272928 -12.935678,-7.3084433 -0.304698,2.014491 -0.589411,5.3850763 -1.920105,7.2449313 1.018207,-1.527311 1.089492,-9.0642706 1.089492,-9.0642706 4.581934,2.5455188 9.574874,7.8877106 13.761837,8.2629466 z"
         id="path878-2"
         sodipodi:nodetypes="cccccc" />
    </g>
    <path
       id="path8"
       style="color:#000000;opacity:0.75;fill:#000000;fill-opacity:1;-inkscape-stroke:none;filter:url(#filter9)"
       d="M 26.020546,7.7777946 28.719765,10.906701 26.520546,8.6488883 V 8.393029 l -0.179688,0.072266 -0.07031,-0.072266 v 0.1015625 l -0.179688,0.072266 z m 0,0 V 8.393029 12.797326 L 21.143593,7.7914665 23.842812,10.920373 21.643593,8.6625602 V 8.4067009 l -0.179688,0.072266 -0.07031,-0.072266 v 0.1015624 l -0.17969,0.074219 -0.07031,-0.7910156 V 8.4067009 20.310999 l 4.876953,-5.005861 v 4.990236 l 6.097656,-6.257814 z"
       transform="matrix(0.66005377,0,0,0.66005377,6.7446723,1.7386938)" />
    <path
       style="fill:url(#linearGradient1700);fill-opacity:1;stroke:url(#linearGradient13092);stroke-width:0.330027;stroke-linecap:butt;stroke-linejoin:miter;stroke-miterlimit:4;stroke-dasharray:none;stroke-opacity:1"
       d="m 20.535783,6.9575408 v 7.4508122 l 3.629884,-3.725406 z"
       id="path969"
       sodipodi:nodetypes="cccc" />
    <path
       style="fill:url(#linearGradient4);fill-opacity:1;stroke:url(#linearGradient5);stroke-width:0.330027;stroke-linecap:butt;stroke-linejoin:miter;stroke-miterlimit:4;stroke-dasharray:none;stroke-opacity:1"
       d="m 23.754813,6.9480653 v 7.4508127 l 3.629884,-3.725406 z"
       id="path969-3"
       sodipodi:nodetypes="cccc" />
  </g>
</svg>
