<?xml version="1.0" encoding="UTF-8" standalone="no"?>
<!-- Created with Inkscape (http://www.inkscape.org/) -->

<svg
   version="1.1"
   id="svg335"
   xml:space="preserve"
   width="16"
   height="16"
   sodipodi:docname="create-horizontal-chain.svg"
   inkscape:version="1.2.2 (b0a8486541, 2022-12-01)"
   xmlns:inkscape="http://www.inkscape.org/namespaces/inkscape"
   xmlns:sodipodi="http://sodipodi.sourceforge.net/DTD/sodipodi-0.dtd"
   xmlns:xlink="http://www.w3.org/1999/xlink"
   xmlns="http://www.w3.org/2000/svg"
   xmlns:svg="http://www.w3.org/2000/svg"><defs
     id="defs339"><linearGradient
       id="linearGradient1819"
       inkscape:collect="always"><stop
         id="stop1815"
         offset="0"
         style="stop-color:#ffffff;stop-opacity:1;" /><stop
         id="stop1817"
         offset="1"
         style="stop-color:#6666cc;stop-opacity:1" /></linearGradient><linearGradient
       inkscape:collect="always"
       id="linearGradient1813"><stop
         style="stop-color:#9999ff;stop-opacity:1"
         offset="0"
         id="stop1809" /><stop
         style="stop-color:#003399;stop-opacity:1"
         offset="1"
         id="stop1811" /></linearGradient><linearGradient
       gradientTransform="matrix(-0.06521739,0,0,0.06521739,8.7115318,-4.3235516)"
       gradientUnits="userSpaceOnUse"
       y2="240.85242"
       x2="45.816982"
       y1="178.55479"
       x1="107.48401"
       id="linearGradient1273"
       xlink:href="#linearGradient1819"
       inkscape:collect="always" /><linearGradient
       gradientTransform="matrix(-0.06521739,0,0,0.06521739,7.8918985,-4.3235516)"
       gradientUnits="userSpaceOnUse"
       y2="240.87659"
       x2="26.450947"
       y1="170.95531"
       x1="90.645256"
       id="linearGradient1316"
       xlink:href="#linearGradient1813"
       inkscape:collect="always" /><linearGradient
       inkscape:collect="always"
       xlink:href="#linearGradient1819"
       id="linearGradient1273-2"
       x1="32.582561"
       y1="180.72769"
       x2="114.92464"
       y2="237.74887"
       gradientUnits="userSpaceOnUse"
       gradientTransform="matrix(0.06521739,0,0,0.06521739,6.4623809,-4.3235516)" /><linearGradient
       gradientUnits="userSpaceOnUse"
       y2="211.31137"
       x2="181.1674"
       y1="201.56973"
       x1="89.114876"
       id="linearGradient1308"
       xlink:href="#linearGradient1819"
       inkscape:collect="always"
       gradientTransform="matrix(0.06521739,0,0,0.06521739,-1.0376189,-4.3235516)" /><linearGradient
       gradientUnits="userSpaceOnUse"
       y2="218.53453"
       x2="180.96582"
       y1="194.74399"
       x1="88.308655"
       id="linearGradient1357"
       xlink:href="#linearGradient1813"
       inkscape:collect="always"
       gradientTransform="matrix(0.06521739,0,0,0.06521739,-1.0376189,-4.3235516)" /><filter
       inkscape:collect="always"
       style="color-interpolation-filters:sRGB"
       id="filter1791"
       x="-0.10120086"
       y="-0.26852099"
       width="1.2024017"
       height="1.537042"><feGaussianBlur
         inkscape:collect="always"
         stdDeviation="0.6398352"
         id="feGaussianBlur1793" /></filter><linearGradient
       inkscape:collect="always"
       xlink:href="#linearGradient1813"
       id="linearGradient1807"
       x1="156.00182"
       y1="171.2469"
       x2="238.63846"
       y2="227.92976"
       gradientUnits="userSpaceOnUse"
       gradientTransform="matrix(0.06521739,0,0,0.06521739,-1.0376189,-4.3235516)" /><filter
       inkscape:collect="always"
       style="color-interpolation-filters:sRGB"
       id="filter2591"
       x="-0.097405015"
       y="-0.29948809"
       width="1.19481"
       height="1.5989762"><feGaussianBlur
         inkscape:collect="always"
         stdDeviation="0.2578601"
         id="feGaussianBlur2593" /></filter><filter
       id="filter1190"
       x="-0.10799958"
       y="-0.10799941"
       width="1.2159992"
       height="1.2159988"
       color-interpolation-filters="sRGB"><feGaussianBlur
         stdDeviation="5.76"
         id="feGaussianBlur1" /></filter><filter
       id="filter963"
       x="-0.13823217"
       y="-0.11059464"
       width="1.2764643"
       height="1.2211893"
       color-interpolation-filters="sRGB"><feGaussianBlur
         stdDeviation="0.69118713"
         id="feGaussianBlur2" /></filter><linearGradient
       id="linearGradient32816-3"
       x1="-28.683"
       x2="-38.225"
       y1="21.128"
       y2="9.0369"
       gradientUnits="userSpaceOnUse"><stop
         stop-color="#9cf"
         offset="0"
         id="stop2" /><stop
         stop-color="#fff"
         offset="1"
         id="stop3" /></linearGradient><linearGradient
       id="linearGradient26952-6"
       x1="8.0956"
       x2="7.2706"
       y1="1.4188"
       y2=".45848"
       gradientTransform="matrix(1.5872,0,0,1.5872,-42.561,7.9305)"
       gradientUnits="userSpaceOnUse"><stop
         stop-color="#2da8ff"
         offset="0"
         id="stop4" /><stop
         stop-color="#74c0ff"
         offset="1"
         id="stop5" /></linearGradient><linearGradient
       id="linearGradient57243-7"
       x1="-31.156"
       x2="-28.432"
       y1="10.5"
       y2="10.5"
       gradientTransform="translate(0,-0.25)"
       gradientUnits="userSpaceOnUse"><stop
         stop-color="#0096fc"
         offset="0"
         id="stop6" /><stop
         stop-color="#0068ce"
         offset="1"
         id="stop7" /></linearGradient><linearGradient
       id="linearGradient33220-5"
       x1="-30.932"
       x2="-28.932"
       y1="11"
       y2="11"
       gradientUnits="userSpaceOnUse"><stop
         stop-color="#ccd5ff"
         offset="0"
         id="stop8" /><stop
         stop-color="#aab3f5"
         offset="1"
         id="stop9" /></linearGradient><linearGradient
       id="linearGradient19558-3"
       x1="-27.932"
       x2="-27.932"
       y1="21"
       y2="11.5"
       gradientUnits="userSpaceOnUse"><stop
         stop-color="#a5bdee"
         offset="0"
         id="stop10" /><stop
         stop-color="#bac9f4"
         offset="1"
         id="stop11" /></linearGradient><linearGradient
       id="linearGradient10737-5"
       x1="-37.932"
       x2="-28.932"
       y1="22"
       y2="22"
       gradientUnits="userSpaceOnUse"><stop
         stop-color="#9dadd9"
         offset="0"
         id="stop12" /><stop
         stop-color="#8b8eb8"
         offset="1"
         id="stop13" /></linearGradient><linearGradient
       id="linearGradient1922-6"
       x1="-38.932"
       x2="-38.932"
       y1="22.025"
       y2="14.78"
       gradientUnits="userSpaceOnUse"><stop
         stop-color="#6e7bae"
         offset="0"
         id="stop14" /><stop
         stop-color="#87a9dc"
         offset="1"
         id="stop15" /></linearGradient><filter
       inkscape:collect="always"
       style="color-interpolation-filters:sRGB"
       id="filter51"
       x="-0.14700004"
       y="-0.14699996"
       width="1.2940001"
       height="1.2939999"><feGaussianBlur
         inkscape:collect="always"
         stdDeviation="0.47504628"
         id="feGaussianBlur51" /></filter></defs><sodipodi:namedview
     id="namedview337"
     pagecolor="#ffffff"
     bordercolor="#666666"
     borderopacity="1.0"
     inkscape:showpageshadow="2"
     inkscape:pageopacity="0.0"
     inkscape:pagecheckerboard="0"
     inkscape:deskcolor="#d1d1d1"
     showgrid="false"
     inkscape:zoom="44.423531"
     inkscape:cx="2.8926111"
     inkscape:cy="10.973914"
     inkscape:window-width="3840"
     inkscape:window-height="2061"
     inkscape:window-x="1280"
     inkscape:window-y="0"
     inkscape:window-maximized="1"
     inkscape:current-layer="svg335" /><g
     id="g484"
     transform="translate(0,0.7430304)"><path
       id="path1780"
       style="color:#000000;opacity:0.75;fill:#000000;fill-opacity:1;fill-rule:evenodd;stroke-width:0.5;stroke-linecap:square;-inkscape-stroke:none;filter:url(#filter1791)"
       d="m 3.3589795,6.7924689 c -1.5793899,0 -2.859375,1.2799852 -2.859375,2.859375 0,1.5793901 1.279985,2.8593751 2.859375,2.8593751 h 1.9550781 c 1.2147677,0 2.2516521,-0.75793 2.6660157,-1.826172 h 0.2128906 c 0.4143637,1.068242 1.4512483,1.826172 2.6660151,1.826172 h 1.955078 c 1.57939,0 2.859375,-1.279985 2.859375,-2.8593751 0,-1.5793899 -1.279985,-2.859375 -2.859375,-2.859375 h -1.955078 c -1.2147668,0 -2.2516514,0.7579299 -2.6660151,1.8261719 H 7.9800733 C 7.5657096,7.5503988 6.5288252,6.7924689 5.3140576,6.7924689 Z m 0,1.8046875 h 1.9550781 c 0.073554,0 0.1457799,0.00759 0.2148438,0.021484 H 5.3140576 c -0.5223141,4e-7 -0.9023437,0.4878263 -0.9023437,1.0332035 0,0.5453771 0.3800296,1.0332031 0.9023437,1.0332031 h 0.2148438 c -0.069064,0.0139 -0.1412898,0.02148 -0.2148438,0.02148 H 3.3589795 c -0.5884321,0 -1.0546875,-0.466255 -1.0546875,-1.0546871 0,-0.5884318 0.4662555,-1.0546875 1.0546875,-1.0546875 z m 7.4999995,0 h 1.955078 c 0.588433,0 1.054688,0.4662558 1.054688,1.0546875 0,0.5884321 -0.466255,1.0546871 -1.054688,1.0546871 h -1.955078 c -0.07355,0 -0.14578,-0.0076 -0.214844,-0.02148 h 0.541016 c 0.522314,0 0.902344,-0.487825 0.902344,-1.0332027 0,-0.5453772 -0.38003,-1.0332031 -0.902344,-1.0332031 h -0.541016 c 0.06906,-0.013899 0.14129,-0.021484 0.214844,-0.021485 z" /><path
       id="rect1118"
       style="fill:url(#linearGradient1273);fill-opacity:1;fill-rule:evenodd;stroke:url(#linearGradient1316);stroke-width:0.5;stroke-linecap:square;stroke-miterlimit:4;stroke-dasharray:none;stroke-opacity:1"
       d="m 4.8152172,6.5431688 c 1.4452174,0 2.6086957,1.1634783 2.6086957,2.6086956 0,1.4452176 -1.1634783,2.6086966 -2.6086957,2.6086966 H 2.8586955 c -1.4452174,0 -2.60869551,-1.163479 -2.60869551,-2.6086966 0,-1.4452173 1.16347811,-2.6086956 2.60869551,-2.6086956 z m 0,1.3043478 H 2.8586955 c -0.7226089,0 -1.3043478,0.5817392 -1.3043478,1.3043478 0,0.7226087 0.5817389,1.3043476 1.3043478,1.3043476 h 1.9565217 c 0.7226088,0 1.3043479,-0.5817389 1.3043479,-1.3043476 0,-0.7226086 -0.5817391,-1.3043478 -1.3043479,-1.3043478 z" /><path
       d="m 10.358695,6.5431688 c -1.4452169,0 -2.6086952,1.1634783 -2.6086952,2.6086956 0,1.4452176 1.1634783,2.6086966 2.6086952,2.6086966 h 1.956522 c 1.445217,0 2.608696,-1.163479 2.608696,-2.6086966 0,-1.4452173 -1.163479,-2.6086956 -2.608696,-2.6086956 z m 0,1.3043478 h 1.956522 c 0.722609,0 1.304348,0.5817392 1.304348,1.3043478 0,0.7226087 -0.581739,1.3043476 -1.304348,1.3043476 h -1.956522 c -0.7226082,0 -1.3043474,-0.5817389 -1.3043474,-1.3043476 0,-0.7226086 0.5817392,-1.3043478 1.3043474,-1.3043478 z"
       style="fill:url(#linearGradient1273-2);fill-opacity:1;fill-rule:evenodd;stroke:url(#linearGradient1807);stroke-width:0.5;stroke-linecap:square;stroke-miterlimit:4;stroke-dasharray:none;stroke-opacity:1"
       id="rect1118-2" /><path
       id="path1825"
       style="color:#000000;opacity:0.75;fill:#000000;fill-opacity:1;fill-rule:evenodd;stroke-width:0.5;stroke-linecap:square;stroke-dasharray:none;-inkscape-stroke:none;filter:url(#filter2591)"
       d="m 5.849344,8.6188642 c -0.5223144,0 -0.902344,0.4878261 -0.902344,1.0332033 0,0.5453775 0.3800296,1.0332035 0.902344,1.0332035 h 4.548828 c 0.522314,0 0.902343,-0.487826 0.902343,-1.0332035 0,-0.5453772 -0.380029,-1.0332033 -0.902343,-1.0332033 z" /><rect
       style="fill:url(#linearGradient1308);fill-opacity:1;fill-rule:evenodd;stroke:url(#linearGradient1357);stroke-width:0.5;stroke-linecap:square;stroke-miterlimit:4;stroke-dasharray:none;stroke-opacity:1"
       id="rect1205"
       width="5.8543062"
       height="1.5652174"
       x="4.6969466"
       y="8.3692198"
       rx="0.65217388"
       ry="0.78260869" /></g><inkscape:clipboard
     style="font-variation-settings:normal;opacity:1;vector-effect:none;fill:url(#linearGradient1308);fill-opacity:1;stroke-width:5;stroke-linecap:square;stroke-linejoin:miter;stroke-miterlimit:4;stroke-dasharray:none;stroke-dashoffset:0;stroke-opacity:1;-inkscape-stroke:none;stop-color:#000000;stop-opacity:1;stroke:url(#linearGradient1357)"
     min="12.961498,159.66541"
     max="242.9615,244.66541"
     geom-min="15.461498,162.16541"
     geom-max="240.4615,242.16541" /><path
     id="rect46"
     style="opacity:0.75;fill:#000000;fill-opacity:1;stroke-width:1.39586;filter:url(#filter51)"
     d="m 4.4479251,0.5763502 c -0.306902,0 -0.554688,0.245833 -0.554688,0.5527344 v 1.7617187 a 1.6619085,1.6619085 0 0 0 -0.160156,0.064453 L 2.6197991,1.8419752 c -0.2170115,-0.217012 -0.5661905,-0.217012 -0.7832025,0 -0.217012,0.217012 -0.217012,0.5661911 0,0.7832031 l 1.1132805,1.1132813 a 1.6619085,1.6619085 0 0 0 -0.06445,0.1601563 H 1.1237066 c -0.30690196,0 -0.55468796,0.2477861 -0.55468796,0.5546874 0,0.3069014 0.247786,0.5546876 0.55468796,0.5546876 h 1.7617175 a 1.6619085,1.6619085 0 0 0 0.06445,0.1601562 L 1.8365966,6.2814283 c -0.217013,0.2170131 -0.217013,0.5661902 0,0.7832032 0.217013,0.217013 0.56619,0.217013 0.7832025,0 l 1.113282,-1.1132813 a 1.6619085,1.6619085 0 0 0 0.160156,0.064453 v 1.7617186 c 0,0.306902 0.247786,0.554688 0.554688,0.554688 0.306901,0 0.552734,-0.247786 0.552734,-0.554688 V 6.0158033 a 1.6619085,1.6619085 0 0 0 0.162109,-0.064453 l 1.113281,1.1132813 c 0.217013,0.217012 0.566192,0.217012 0.783204,0 0.217012,-0.217012 0.217012,-0.5661911 0,-0.7832032 L 5.9459711,5.1681471 a 1.6619085,1.6619085 0 0 0 0.06445,-0.1601562 h 1.759765 c 0.306901,0 0.554688,-0.2477862 0.554688,-0.5546876 0,-0.3069013 -0.247787,-0.5546874 -0.554688,-0.5546874 h -1.755859 a 1.6619085,1.6619085 0 0 0 -0.06641,-0.1621094 l 1.111328,-1.1113282 c 0.217013,-0.217013 0.217013,-0.5661901 0,-0.7832031 -0.217013,-0.217013 -0.56619,-0.217013 -0.783204,0 L 5.1627681,2.9552565 A 1.6619085,1.6619085 0 0 0 5.0006591,2.8868971 V 1.1290846 c 0,-0.3069014 -0.245833,-0.5527344 -0.552734,-0.5527344 z" /><g
     transform="matrix(1.3958579,0,0,1.3958579,4.8588061,-3.5999657)"
     id="g29"><g
       fill="#ff3300"
       id="g27"><rect
         transform="rotate(90)"
         x="2.6458001"
         y="0.26458001"
         width="5.5563002"
         height="0.79374999"
         rx="0.39686999"
         ry="0.39686999"
         id="rect24" /><rect
         transform="rotate(45)"
         x="0.72175997"
         y="3.9061999"
         width="5.2916999"
         height="0.79374999"
         rx="0.39686999"
         ry="0.39686999"
         id="rect25" /><rect
         x="-3.4396"
         y="5.0271001"
         width="5.5563002"
         height="0.79374999"
         rx="0.39686999"
         ry="0.39686999"
         id="rect26" /><rect
         transform="matrix(-0.70711,0.70711,0.70711,0.70711,0,0)"
         x="1.6572"
         y="2.9707"
         width="5.2916999"
         height="0.79374999"
         rx="0.39686999"
         ry="0.39686999"
         id="rect27" /></g><g
       transform="translate(-1.1906)"
       id="g28"><circle
         cx="0.52916998"
         cy="5.4239998"
         r="1.1906"
         fill="#ffcc00"
         id="circle27" /><circle
         cx="0.52916998"
         cy="5.4239998"
         r="0.39686999"
         fill="#ffff99"
         id="circle28" /></g></g></svg>
