<?xml version="1.0" encoding="UTF-8" standalone="no"?>
<svg
   inkscape:export-ydpi="96"
   inkscape:export-xdpi="96"
   inkscape:export-filename="/media/klapeto/Αρχεία/WindowsXP Theme/Vectors/RASTER/database.png"
   width="16"
   height="16"
   viewBox="0 0 16 16"
   version="1.1"
   id="svg8"
   inkscape:version="1.3.2 (1:1.3.2+202311252150+091e20ef0f)"
   sodipodi:docname="database-time.svg"
   xml:space="preserve"
   xmlns:inkscape="http://www.inkscape.org/namespaces/inkscape"
   xmlns:sodipodi="http://sodipodi.sourceforge.net/DTD/sodipodi-0.dtd"
   xmlns:xlink="http://www.w3.org/1999/xlink"
   xmlns="http://www.w3.org/2000/svg"
   xmlns:svg="http://www.w3.org/2000/svg"
   xmlns:rdf="http://www.w3.org/1999/02/22-rdf-syntax-ns#"
   xmlns:cc="http://creativecommons.org/ns#"
   xmlns:dc="http://purl.org/dc/elements/1.1/"><defs
     id="defs2"><linearGradient
       id="linearGradient6"
       inkscape:collect="always"><stop
         style="stop-color:#ffff99;stop-opacity:1"
         offset="0"
         id="stop7" /><stop
         style="stop-color:#cc9900;stop-opacity:1"
         offset="1"
         id="stop8" /></linearGradient><linearGradient
       id="linearGradient3"
       inkscape:collect="always"><stop
         style="stop-color:#cc9900;stop-opacity:1"
         offset="0"
         id="stop3" /><stop
         style="stop-color:#ffff99;stop-opacity:1"
         offset="0.25999999"
         id="stop5" /><stop
         style="stop-color:#ffcc00;stop-opacity:1"
         offset="0.51999998"
         id="stop6" /><stop
         style="stop-color:#996600;stop-opacity:1"
         offset="1"
         id="stop4" /></linearGradient><linearGradient
       inkscape:collect="always"
       xlink:href="#linearGradient3"
       id="linearGradient4"
       x1="23.567709"
       y1="25.3125"
       x2="48.567711"
       y2="25.3125"
       gradientUnits="userSpaceOnUse"
       gradientTransform="matrix(0.32531351,0,0,0.32531351,9.334396,-0.11805329)" /><linearGradient
       inkscape:collect="always"
       xlink:href="#linearGradient6"
       id="linearGradient8"
       x1="30.198246"
       y1="15.241911"
       x2="49.567715"
       y2="15.241911"
       gradientUnits="userSpaceOnUse"
       gradientTransform="matrix(0.32531351,0,0,0.32531351,9.334396,-0.11805329)" /><linearGradient
       inkscape:collect="always"
       xlink:href="#linearGradient6"
       id="linearGradient30"
       gradientUnits="userSpaceOnUse"
       gradientTransform="matrix(0.32531351,0,0,0.32531351,9.334396,3.6900758)"
       x1="30.198246"
       y1="15.241911"
       x2="49.567715"
       y2="15.241911" /><linearGradient
       inkscape:collect="always"
       xlink:href="#linearGradient3"
       id="linearGradient35"
       gradientUnits="userSpaceOnUse"
       gradientTransform="matrix(0.32531351,0,0,0.32531351,6.267977,-0.11805329)"
       x1="23.567709"
       y1="25.3125"
       x2="48.567711"
       y2="25.3125" /><filter
       inkscape:collect="always"
       style="color-interpolation-filters:sRGB"
       id="filter12"
       x="-0.18984122"
       y="-0.11993453"
       width="1.3796824"
       height="1.2398691"><feGaussianBlur
         inkscape:collect="always"
         stdDeviation="0.75456787"
         id="feGaussianBlur12" /></filter><filter
       inkscape:collect="always"
       style="color-interpolation-filters:sRGB"
       id="filter42"
       x="-0.14699999"
       y="-0.14699999"
       width="1.294"
       height="1.294"><feGaussianBlur
         inkscape:collect="always"
         stdDeviation="0.55125"
         id="feGaussianBlur42" /></filter><linearGradient
       gradientTransform="matrix(0.88888894,0,0,0.88888894,61.383336,1.190625)"
       inkscape:collect="always"
       xlink:href="#linearGradient910"
       id="linearGradient1500"
       gradientUnits="userSpaceOnUse"
       x1="-48.914181"
       y1="4.4842973"
       x2="-53.541794"
       y2="-0.22511943" /><linearGradient
       id="linearGradient910"
       inkscape:collect="always"><stop
         id="stop904"
         offset="0"
         style="stop-color:#ccccff;stop-opacity:1" /><stop
         style="stop-color:#adadad;stop-opacity:1"
         offset="0.5"
         id="stop906" /><stop
         id="stop908"
         offset="1"
         style="stop-color:#fdfdfd;stop-opacity:1" /></linearGradient><linearGradient
       gradientTransform="matrix(0.88888894,0,0,0.88888894,61.383336,1.190625)"
       inkscape:collect="always"
       xlink:href="#linearGradient894"
       id="linearGradient1502"
       gradientUnits="userSpaceOnUse"
       x1="-49.344791"
       y1="4.8947916"
       x2="-53.313541"
       y2="-0.39687502" /><linearGradient
       id="linearGradient894"
       inkscape:collect="always"><stop
         id="stop890"
         offset="0"
         style="stop-color:#353535;stop-opacity:1" /><stop
         id="stop892"
         offset="1"
         style="stop-color:#a5a5a5;stop-opacity:1" /></linearGradient><radialGradient
       inkscape:collect="always"
       xlink:href="#linearGradient934"
       id="radialGradient936"
       cx="-52.313507"
       cy="1.4548606"
       fx="-52.313507"
       fy="1.4548606"
       r="2.9104166"
       gradientUnits="userSpaceOnUse"
       gradientTransform="matrix(0.62683241,0.68752562,-0.67165687,0.61236452,48.726656,37.626386)" /><linearGradient
       inkscape:collect="always"
       id="linearGradient934"><stop
         style="stop-color:#deffff;stop-opacity:1"
         offset="0"
         id="stop930" /><stop
         id="stop1358"
         offset="0.64871162"
         style="stop-color:#b4e2ff;stop-opacity:1" /><stop
         style="stop-color:#99ccff;stop-opacity:1"
         offset="1"
         id="stop932" /></linearGradient><linearGradient
       gradientTransform="matrix(0.88888894,0,0,0.88888894,61.383336,1.190625)"
       inkscape:collect="always"
       xlink:href="#linearGradient888"
       id="linearGradient928"
       x1="-49.741669"
       y1="4.3656249"
       x2="-52.916668"
       y2="0.26458332"
       gradientUnits="userSpaceOnUse"
       spreadMethod="reflect" /><linearGradient
       id="linearGradient888"
       inkscape:collect="always"><stop
         id="stop884"
         offset="0"
         style="stop-color:#4e5256;stop-opacity:1" /><stop
         id="stop886"
         offset="1"
         style="stop-color:#9fa5ab;stop-opacity:1" /></linearGradient></defs><sodipodi:namedview
     inkscape:snap-intersection-paths="true"
     inkscape:object-paths="true"
     inkscape:snap-grids="true"
     inkscape:guide-bbox="true"
     showguides="true"
     id="base"
     pagecolor="#ffffff"
     bordercolor="#666666"
     borderopacity="1.0"
     inkscape:pageopacity="0.0"
     inkscape:pageshadow="2"
     inkscape:zoom="29.981026"
     inkscape:cx="-7.4880693"
     inkscape:cy="4.0525631"
     inkscape:document-units="px"
     inkscape:current-layer="layer1"
     inkscape:document-rotation="0"
     showgrid="true"
     units="px"
     inkscape:window-width="3840"
     inkscape:window-height="2058"
     inkscape:window-x="3840"
     inkscape:window-y="0"
     inkscape:window-maximized="1"
     inkscape:snap-bbox="true"
     inkscape:bbox-nodes="true"
     fit-margin-top="0"
     fit-margin-left="0"
     fit-margin-right="0"
     fit-margin-bottom="0"
     inkscape:bbox-paths="false"
     inkscape:pagecheckerboard="0"
     inkscape:showpageshadow="2"
     inkscape:deskcolor="#d1d1d1"><inkscape:grid
       type="xygrid"
       id="grid1504"
       originx="0"
       originy="0"
       spacingy="1"
       spacingx="1"
       units="px"
       visible="true" /><inkscape:grid
       type="xygrid"
       id="grid1507"
       spacingx="0.5"
       spacingy="0.5"
       originx="0"
       originy="0"
       units="px"
       visible="true" /></sodipodi:namedview><metadata
     id="metadata5"><rdf:RDF><cc:Work
         rdf:about=""><dc:format>image/svg+xml</dc:format><dc:type
           rdf:resource="http://purl.org/dc/dcmitype/StillImage" /></cc:Work></rdf:RDF></metadata><g
     inkscape:label="Layer 1"
     inkscape:groupmode="layer"
     id="layer1"
     transform="translate(-12.567709)"><path
       id="path11"
       style="color:#000000;opacity:0.75;fill:#000000;fill-opacity:1;fill-rule:evenodd;stroke-linecap:round;stroke-linejoin:round;-inkscape-stroke:none;filter:url(#filter12)"
       d="m 18.501767,0.5 c -1.095564,6.2797e-4 -2.098326,0.12558575 -2.871094,0.34179688 -0.386384,0.10810555 -0.715235,0.23830982 -0.980468,0.40234372 -0.265234,0.164034 -0.490671,0.3705953 -0.5625,0.6796875 l 0.0293,-0.023437 a 0.37503801,0.37503801 0 0 1 0.25,-0.1992187 l -0.25,0.1992187 a 0.37503801,0.37503801 0 0 0 -0.05664,0.1074219 v 0.083984 2.5859375 c -0.03033,0.068602 -0.09455,0.138145 -0.117188,0.2109375 -0.04731,0.1521664 -0.08503,0.3216533 -0.115234,0.4902343 -0.05784,0.3227852 -0.08703,0.6020428 -0.08984,0.7890626 a 0.37503801,0.37503801 0 0 0 -0.0078,0.00781 c -3.47e-4,0.00439 0.0062,0.011202 0.0059,0.015625 -1.4e-5,0.0027 -0.002,0.00906 -0.002,0.011719 v 0.00195 h -0.0039 c 0,0.064528 0.0083,0.1092048 0.01563,0.1464844 1.77e-4,0.00118 -1.8e-4,0.00273 0,0.00391 v 0.00195 c 7.72e-4,0.00387 0.0012,0.012054 0.002,0.015625 7.15e-4,0.00354 0.0079,0.033943 0.01367,0.058594 7.76e-4,0.0033 9.53e-4,0.00416 0.002,0.00781 0.0028,0.01095 0.0015,0.00944 0.0059,0.023437 a 0.37503801,0.37503801 0 0 0 0.09375,0.087891 c 0.03202,0.1805907 0.07968,0.3577537 0.197266,0.5546876 v 1.3808593 c -0.03033,0.068602 -0.09455,0.1381451 -0.117188,0.2109375 -0.04731,0.1521666 -0.08503,0.3216533 -0.115234,0.4902344 -0.05784,0.3227852 -0.08703,0.6020428 -0.08984,0.7890625 a 0.37503801,0.37503801 0 0 0 -0.0078,0.00781 c -3.47e-4,0.00439 0.0062,0.011197 0.0059,0.015625 -1.4e-5,0.0027 -0.002,0.0091 -0.002,0.01172 v 0.002 h -0.0039 c 0,0.0449 0.01285,0.08026 0.01953,0.121094 0.0061,0.03897 0.0081,0.08681 0.01563,0.117187 l 0.0039,-0.002 c 0.0023,0.0077 0.0015,0.0179 0.0039,0.02539 a 0.37503801,0.37503801 0 0 0 0.08984,0.08398 c 0.03213,0.180006 0.08002,0.356506 0.197266,0.552734 v 1.994141 c 0,0.93709 0.639187,1.647994 1.476562,2.072266 0.837374,0.42427 1.900745,0.621093 2.964844,0.621093 1.0641,0 2.127469,-0.196823 2.964844,-0.621093 0.837375,-0.424272 1.476562,-1.135176 1.476562,-2.072266 v -1.964844 c 0.12874,-0.217242 0.21356,-0.434576 0.25,-0.644531 a 0.37503801,0.37503801 0 0 0 0.03711,-0.01953 c 0.0017,-0.0054 0.0038,-0.01904 0.0059,-0.02539 0.0097,-0.03035 0.02134,-0.06414 0.0293,-0.121094 h -0.0078 c 6.75e-4,-0.0074 0.0092,-0.01614 0.0098,-0.02344 a 0.37503801,0.37503801 0 0 0 -0.0078,-0.01953 c 0.0028,-0.0274 0.0098,-0.04553 0.0098,-0.07617 0,-0.1855225 -0.03529,-0.4870467 -0.0957,-0.8242198 C 23.143306,9.018913 23.10768,8.849444 23.060361,8.6972656 23.037768,8.6246041 22.973404,8.5548108 22.943173,8.4863281 V 7.1328125 c 0.12955,-0.2186088 0.215756,-0.4373598 0.251953,-0.6484375 a 0.37503801,0.37503801 0 0 0 0.03711,-0.019531 c 0.0022,-0.00712 0.0036,-0.017848 0.0059,-0.025391 0.01028,-0.034832 0.02084,-0.07065 0.02734,-0.1171875 h -0.0078 c 6.75e-4,-0.00736 0.0092,-0.01614 0.0098,-0.023437 a 0.37503801,0.37503801 0 0 0 -0.0078,-0.017578 c 0.0026,-0.027301 0.0098,-0.048595 0.0098,-0.078125 0,-0.1855213 -0.03529,-0.4870457 -0.0957,-0.8242188 -0.03034,-0.1685869 -0.06596,-0.338056 -0.113281,-0.4902343 -0.02259,-0.072662 -0.08696,-0.142455 -0.117188,-0.2109375 v -2.585938 -0.083984 a 0.37503801,0.37503801 0 0 0 -0.03125,-0.09375 L 22.607236,1.671875 a 0.37503801,0.37503801 0 0 1 0.304687,0.2421875 l 0.01172,0.00977 C 22.851712,1.6143144 22.624943,1.4063306 22.359189,1.2421875 22.093436,1.0780444 21.763923,0.94990962 21.376767,0.84179688 20.602457,0.62557138 19.598874,0.4999978 18.501767,0.5 Z" /><path
       id="path31"
       style="fill:url(#linearGradient35);fill-rule:evenodd;stroke:#996600;stroke-width:0.750001;stroke-linecap:round;stroke-linejoin:round;stroke-dasharray:none;stroke-opacity:1"
       d="m 18.00129,0.375 a 4.0664186,1.2172943 0 0 0 -4.048828,1.1328125 h -0.01758 v 0.083984 2.6386719 c -0.196919,0.172171 -0.326172,1.2410367 -0.326172,1.4726562 0,0.032294 0.003,0.064437 0.0078,0.095703 0.0027,0.017915 0.0075,0.035168 0.01172,0.052734 -0.0055,-0.017388 -0.0082,-0.035485 -0.01172,-0.052734 -0.0064,-0.031644 -0.01172,-0.062561 -0.01172,-0.09375 -0.01565,0.1979866 0.05694,0.5666291 0.330078,0.8984375 v 1.4355469 c -0.196919,0.172171 -0.326172,1.2410368 -0.326172,1.4726563 0,0.051857 0.0094,0.1012153 0.02148,0.1503906 -0.01596,-0.050085 -0.02539,-0.099486 -0.02539,-0.1484375 -0.01565,0.1979625 0.05702,0.5647071 0.330078,0.8964841 v 1.996094 c 0,3.090475 8.132812,3.090475 8.132812,0 v -1.988281 c 0.215213,-0.270278 0.305174,-0.5793458 0.326172,-0.839844 -0.0039,0.027667 -0.01251,0.055958 -0.02148,0.083984 0.01216,-0.049175 0.02148,-0.098534 0.02148,-0.1503906 0,-0.2315951 -0.129182,-1.3004964 -0.326172,-1.4726563 V 6.609375 c 0.215213,-0.2702777 0.305174,-0.5793456 0.326172,-0.8398438 -0.0038,0.026897 -0.01094,0.054794 -0.01953,0.082031 0.01168,-0.048226 0.01953,-0.09764 0.01953,-0.1484375 0,-0.2315951 -0.129182,-1.3004963 -0.326172,-1.4726562 V 1.5917969 1.5078125 h -0.0098 A 4.0664186,1.2172943 0 0 0 18.00129,0.375 Z" /><g
       id="g30"
       transform="translate(-3.066419)"><path
         style="fill:url(#linearGradient4);fill-rule:evenodd;stroke:none;stroke-width:0.750001;stroke-linecap:round;stroke-linejoin:round;stroke-dasharray:none"
         d="M 17.00129,1.5085143 V 12.406517 c 0,3.090478 8.132838,3.090478 8.132838,0 V 1.5085143 H 17.00129"
         id="path2"
         sodipodi:nodetypes="ccccc" /><ellipse
         style="fill:#ffff99;fill-opacity:1;fill-rule:evenodd;stroke:none;stroke-width:0.750001;stroke-linecap:round;stroke-linejoin:round;stroke-dasharray:none"
         id="path3"
         cx="21.067709"
         cy="1.592474"
         rx="4.0664186"
         ry="1.2172943" /><path
         id="path3-6-5"
         style="color:#000000;fill:#996600;fill-rule:evenodd;stroke-width:0.750001;stroke-linecap:round;stroke-linejoin:round;stroke-dasharray:none"
         d="m 17.760567,7.1269398 c 0.909427,0.3388205 2.022334,0.5121147 3.307142,0.5121147 1.284808,0 2.473549,-0.22517 3.307142,-0.5121147 0.833594,-0.2869447 1.070231,-0.9531832 1.089038,-1.4216311 0,0.1676181 -0.09025,0.3416817 -0.296721,0.5235514 -0.206474,0.1818698 -0.523717,-0.5037372 -0.92384,-0.3546652 -0.800245,0.2981433 -1.928672,0.6258053 -3.175619,0.6258053 -1.246946,0 -2.376009,-0.327662 -3.176254,-0.6258053 -0.400123,-0.149072 -0.717367,0.536535 -0.92384,0.3546652 -0.206473,-0.1818684 -0.296086,-0.355932 -0.296086,-0.5235501 -0.02529,0.3199006 0.179611,1.0828093 1.089038,1.4216298 z"
         sodipodi:nodetypes="zszcssssscz" /><path
         id="path3-6"
         style="color:#000000;fill:url(#linearGradient8);fill-rule:evenodd;stroke-width:0.750001;stroke-linecap:round;stroke-linejoin:round;stroke-dasharray:none"
         d="m 17.00129,4.2311089 c -0.196919,0.1721712 -0.325313,1.2400401 -0.325313,1.4716598 0,0.2583519 0.158522,0.4844936 0.395205,0.6677821 0.236683,0.1832881 0.560688,0.3372212 0.954973,0.4663675 0.788568,0.2582917 1.859333,0.4136309 3.041554,0.4136309 1.182222,0 2.25235,-0.1553392 3.040919,-0.4136309 0.394284,-0.1291463 0.71829,-0.2830794 0.954973,-0.4663675 0.236683,-0.1832885 0.39584,-0.4094302 0.39584,-0.6677821 0,-0.2315953 -0.128323,-1.2994997 -0.325313,-1.4716598 v 0.6093275 0.046382 h -0.0038 c -0.01735,0.1118184 -0.09786,0.2341825 -0.265588,0.3640714 -0.191321,0.1481608 -0.486734,0.2927386 -0.85776,0.4142666 -0.742052,0.2430557 -1.78583,0.3977465 -2.939258,0.3977465 -1.153428,0 -2.197841,-0.1546908 -2.939894,-0.3977465 C 17.756789,5.5436289 17.461377,5.3990511 17.270055,5.2508903 17.102327,5.1210014 17.022333,4.9986373 17.005102,4.8868189 h -0.0038 v -0.046382 z"
         sodipodi:nodetypes="csssssssccccssssscccc" /><path
         id="path29"
         style="color:#000000;fill:#996600;fill-rule:evenodd;stroke-width:0.750001;stroke-linecap:round;stroke-linejoin:round;stroke-dasharray:none"
         d="m 17.760567,10.935069 c 0.909427,0.33882 2.022334,0.512115 3.307142,0.512115 1.284808,0 2.473549,-0.22517 3.307142,-0.512115 0.833594,-0.286945 1.070231,-0.9531834 1.089038,-1.4216313 0,0.1676181 -0.09025,0.3416817 -0.296721,0.5235513 -0.206474,0.18187 -0.523717,-0.5037371 -0.92384,-0.3546651 -0.800245,0.2981433 -1.928672,0.6258051 -3.175619,0.6258051 -1.246946,0 -2.376009,-0.3276618 -3.176254,-0.6258051 -0.400123,-0.149072 -0.717367,0.5365351 -0.92384,0.3546651 -0.206473,-0.1818683 -0.296086,-0.3559319 -0.296086,-0.52355 -0.02529,0.3199006 0.179611,1.082809 1.089038,1.42163 z"
         sodipodi:nodetypes="zszcssssscz" /><path
         id="path30"
         style="color:#000000;fill:url(#linearGradient30);fill-rule:evenodd;stroke-width:0.750001;stroke-linecap:round;stroke-linejoin:round;stroke-dasharray:none"
         d="m 17.00129,8.0392379 c -0.196919,0.1721712 -0.325313,1.2400401 -0.325313,1.4716598 0,0.2583519 0.158522,0.4844936 0.395205,0.6677823 0.236683,0.183288 0.560688,0.337221 0.954973,0.466367 0.788568,0.258292 1.859333,0.413631 3.041554,0.413631 1.182222,0 2.25235,-0.155339 3.040919,-0.413631 0.394284,-0.129146 0.71829,-0.283079 0.954973,-0.466367 0.236683,-0.1832887 0.39584,-0.4094304 0.39584,-0.6677823 0,-0.2315953 -0.128323,-1.2994997 -0.325313,-1.4716598 v 0.6093275 0.046382 h -0.0038 c -0.01735,0.1118184 -0.09786,0.2341825 -0.265588,0.3640714 -0.191321,0.1481608 -0.486734,0.2927386 -0.85776,0.4142666 -0.742052,0.2430557 -1.78583,0.3977465 -2.939258,0.3977465 -1.153428,0 -2.197841,-0.1546908 -2.939894,-0.3977465 C 17.756789,9.3517579 17.461377,9.2071801 17.270055,9.0590193 17.102327,8.9291304 17.022333,8.8067663 17.005102,8.6949479 h -0.0038 v -0.046382 z"
         sodipodi:nodetypes="csssssssccccssssscccc" /></g><path
       id="path41"
       style="color:#000000;opacity:0.75;fill:#000000;fill-opacity:1;stroke-linecap:round;stroke-linejoin:round;-inkscape-stroke:none;filter:url(#filter42)"
       d="m 23.567709,6.6630938 c -2.483519,0 -4.5,2.0164807 -4.5,4.5000002 0,2.483519 2.016481,4.5 4.5,4.5 2.48352,0 4.5,-2.016481 4.5,-4.5 0,-2.4835195 -2.01648,-4.5000002 -4.5,-4.5000002 z" /><g
       id="g951"
       transform="matrix(1.4233146,0,0,1.4233146,0.63995993,6.1231484)"><circle
         inkscape:export-ydpi="111.48387"
         inkscape:export-xdpi="111.48387"
         r="3.0574076"
         cy="3.1896992"
         cx="15.757408"
         id="path878"
         style="fill:url(#linearGradient1500);fill-opacity:1;stroke:url(#linearGradient1502);stroke-width:0.208453;stroke-linecap:round;stroke-linejoin:round;stroke-miterlimit:4;stroke-dasharray:none" /><circle
         inkscape:export-ydpi="111.48387"
         inkscape:export-xdpi="111.48387"
         r="2.4694445"
         cy="3.1896992"
         cx="15.757408"
         id="circle1360"
         style="fill:url(#radialGradient936);fill-opacity:1;stroke:none;stroke-width:0.235185;stroke-linecap:round;stroke-linejoin:round" /><path
         inkscape:export-ydpi="111.48387"
         inkscape:export-xdpi="111.48387"
         sodipodi:nodetypes="ccsc"
         id="path1362"
         d="M 14.311619,3.3586892 C 14.310319,2.0827431 14.974222,1.557403 16.296512,1.4548246 16.636066,0.73597838 14.90275,0.46439758 14.144365,1.2809594 12.55595,2.9912243 13.516362,3.9287769 14.311619,3.3586892 Z"
         style="fill:#ffffff;fill-opacity:1;stroke:none;stroke-width:0.235185px;stroke-linecap:butt;stroke-linejoin:miter;stroke-opacity:1" /><circle
         inkscape:export-ydpi="111.48387"
         inkscape:export-xdpi="111.48387"
         style="fill:none;fill-opacity:1;stroke:url(#linearGradient928);stroke-width:0.208453;stroke-linecap:round;stroke-linejoin:round;stroke-miterlimit:4;stroke-dasharray:none"
         id="circle912"
         cx="15.757408"
         cy="3.1896992"
         r="2.4694445" /><path
         inkscape:export-ydpi="111.48387"
         inkscape:export-xdpi="111.48387"
         style="fill:#ffffff;fill-opacity:1;stroke:none;stroke-width:0.235185px;stroke-linecap:butt;stroke-linejoin:miter;stroke-opacity:1"
         d="m 17.54783,2.0524854 c 0.399047,0.8605215 0.253227,1.6552123 -0.610238,2.4277972 -0.863466,0.7725848 -2.14697,0.7564089 -2.582522,0.2694183 0.593201,0.7164527 1.877725,0.9105729 2.859852,-0.00299 C 18.197049,3.833148 18.01868,2.8708517 17.54783,2.0524798 Z"
         id="path1362-6"
         sodipodi:nodetypes="czczcc" /><circle
         inkscape:export-ydpi="111.48387"
         inkscape:export-xdpi="111.48387"
         style="fill:#ff9933;fill-opacity:1;stroke:none;stroke-width:0.235185;stroke-linecap:round;stroke-miterlimit:4;stroke-dasharray:none"
         id="path912"
         cx="13.758333"
         cy="3.1896992"
         r="0.23518519" /><path
         inkscape:export-ydpi="111.48387"
         inkscape:export-xdpi="111.48387"
         sodipodi:nodetypes="cc"
         id="path1463"
         d="m 15.890312,3.4555075 h 1.175314"
         style="fill:#99ccff;stroke:#99ccff;stroke-width:0.264583;stroke-linecap:round;stroke-linejoin:miter;stroke-miterlimit:4;stroke-dasharray:none;stroke-opacity:1" /><circle
         inkscape:export-ydpi="111.48387"
         inkscape:export-xdpi="111.48387"
         r="0.42074165"
         style="fill:#99ccff;fill-opacity:1;stroke:none;stroke-width:0.235185;stroke-linecap:round;stroke-linejoin:round;stroke-opacity:1"
         id="circle1461"
         cx="15.874999"
         cy="3.3072915" /><path
         inkscape:export-ydpi="111.48387"
         inkscape:export-xdpi="111.48387"
         sodipodi:nodetypes="cc"
         id="path1407"
         d="m 15.742709,3.1750001 1.322917,10e-8"
         style="fill:none;stroke:#333333;stroke-width:0.398712;stroke-linecap:round;stroke-linejoin:miter;stroke-miterlimit:4;stroke-dasharray:none;stroke-opacity:1" /><path
         inkscape:export-ydpi="111.48387"
         inkscape:export-xdpi="111.48387"
         id="path1405"
         d="M 15.742709,3.1750001 17.065626,1.8520834"
         style="fill:none;stroke:#333333;stroke-width:0.398712;stroke-linecap:round;stroke-linejoin:miter;stroke-miterlimit:4;stroke-dasharray:none;stroke-opacity:1"
         sodipodi:nodetypes="cc" /><circle
         inkscape:export-ydpi="111.48387"
         inkscape:export-xdpi="111.48387"
         r="0.27928242"
         cy="3.175"
         cx="15.742709"
         id="path1385"
         style="fill:#b2b2b2;fill-opacity:1;stroke:#333333;stroke-width:0.264583;stroke-linecap:round;stroke-linejoin:round;stroke-miterlimit:4;stroke-dasharray:none;stroke-opacity:1" /><circle
         inkscape:export-ydpi="111.48387"
         inkscape:export-xdpi="111.48387"
         r="0.23518519"
         cy="1.1906248"
         cx="15.757406"
         id="path912-3"
         style="fill:#ff9933;fill-opacity:1;stroke:none;stroke-width:0.235185;stroke-linecap:round;stroke-miterlimit:4;stroke-dasharray:none" /><circle
         inkscape:export-ydpi="111.48387"
         inkscape:export-xdpi="111.48387"
         style="fill:#ff3300;fill-opacity:1;stroke:none;stroke-width:0.235185;stroke-linecap:round;stroke-miterlimit:4;stroke-dasharray:none"
         id="path912-3-6"
         cx="15.757406"
         cy="5.1887732"
         r="0.23518519" /><circle
         inkscape:export-ydpi="111.48387"
         inkscape:export-xdpi="111.48387"
         r="0.23518519"
         cy="3.1896992"
         cx="17.756479"
         id="path912-3-6-7"
         style="fill:#ff3300;fill-opacity:1;stroke:none;stroke-width:0.235185;stroke-linecap:round;stroke-miterlimit:4;stroke-dasharray:none" /></g></g></svg>
