<?xml version="1.0" encoding="UTF-8" standalone="no"?>
<svg
   inkscape:export-ydpi="96"
   inkscape:export-xdpi="96"
   inkscape:export-filename="/media/klapeto/Αρχεία/WindowsXP Theme/Vectors/RASTER/database.png"
   width="16"
   height="16"
   viewBox="0 0 16 16"
   version="1.1"
   id="svg8"
   inkscape:version="1.3.2 (1:1.3.2+202311252150+091e20ef0f)"
   sodipodi:docname="database-connect.svg"
   xml:space="preserve"
   xmlns:inkscape="http://www.inkscape.org/namespaces/inkscape"
   xmlns:sodipodi="http://sodipodi.sourceforge.net/DTD/sodipodi-0.dtd"
   xmlns:xlink="http://www.w3.org/1999/xlink"
   xmlns="http://www.w3.org/2000/svg"
   xmlns:svg="http://www.w3.org/2000/svg"
   xmlns:rdf="http://www.w3.org/1999/02/22-rdf-syntax-ns#"
   xmlns:cc="http://creativecommons.org/ns#"
   xmlns:dc="http://purl.org/dc/elements/1.1/"><defs
     id="defs2"><linearGradient
       id="linearGradient6"
       inkscape:collect="always"><stop
         style="stop-color:#ffff99;stop-opacity:1"
         offset="0"
         id="stop7" /><stop
         style="stop-color:#cc9900;stop-opacity:1"
         offset="1"
         id="stop8" /></linearGradient><linearGradient
       id="linearGradient3"
       inkscape:collect="always"><stop
         style="stop-color:#cc9900;stop-opacity:1"
         offset="0"
         id="stop3" /><stop
         style="stop-color:#ffff99;stop-opacity:1"
         offset="0.25999999"
         id="stop5" /><stop
         style="stop-color:#ffcc00;stop-opacity:1"
         offset="0.51999998"
         id="stop6" /><stop
         style="stop-color:#996600;stop-opacity:1"
         offset="1"
         id="stop4" /></linearGradient><linearGradient
       inkscape:collect="always"
       xlink:href="#linearGradient3"
       id="linearGradient4"
       x1="23.567709"
       y1="25.3125"
       x2="48.567711"
       y2="25.3125"
       gradientUnits="userSpaceOnUse"
       gradientTransform="matrix(0.32531351,0,0,0.32531351,9.334396,-0.11805329)" /><linearGradient
       inkscape:collect="always"
       xlink:href="#linearGradient6"
       id="linearGradient8"
       x1="30.198246"
       y1="15.241911"
       x2="49.567715"
       y2="15.241911"
       gradientUnits="userSpaceOnUse"
       gradientTransform="matrix(0.32531351,0,0,0.32531351,9.334396,-0.11805329)" /><linearGradient
       inkscape:collect="always"
       xlink:href="#linearGradient6"
       id="linearGradient30"
       gradientUnits="userSpaceOnUse"
       gradientTransform="matrix(0.32531351,0,0,0.32531351,9.334396,3.6900758)"
       x1="30.198246"
       y1="15.241911"
       x2="49.567715"
       y2="15.241911" /><linearGradient
       inkscape:collect="always"
       xlink:href="#linearGradient3"
       id="linearGradient35"
       gradientUnits="userSpaceOnUse"
       gradientTransform="matrix(0.32531351,0,0,0.32531351,6.267977,-0.11805329)"
       x1="23.567709"
       y1="25.3125"
       x2="48.567711"
       y2="25.3125" /><filter
       inkscape:collect="always"
       style="color-interpolation-filters:sRGB"
       id="filter12"
       x="-0.18984122"
       y="-0.11993453"
       width="1.3796824"
       height="1.2398691"><feGaussianBlur
         inkscape:collect="always"
         stdDeviation="0.75456787"
         id="feGaussianBlur12" /></filter><linearGradient
       x2="819.20001"
       x1="-819.20001"
       spreadMethod="pad"
       id="gradient0-1"
       gradientUnits="userSpaceOnUse"
       gradientTransform="matrix(-0.06721779,-0.06721779,-0.06721779,0.06721779,-139.50058,17.615253)"><stop
         id="stop4093"
         stop-color="#003399"
         offset="0.0" /><stop
         id="stop4095"
         stop-color="#0099ff"
         offset="0.47058823529411764" /><stop
         id="stop4097"
         stop-color="#ccffff"
         offset="1.0" /></linearGradient><radialGradient
       spreadMethod="pad"
       r="819.20001"
       id="gradient1-6"
       gradientUnits="userSpaceOnUse"
       gradientTransform="matrix(0.14927588,0,0,0.14927588,-148.88488,-20.358437)"
       cy="0"
       cx="0"
       fx="0"
       fy="0"
       fr="0"><stop
         id="stop4100"
         stop-color="#ffffff"
         offset="0.0" /><stop
         id="stop4102"
         stop-color="#ccffff"
         offset="0.0784313725490196" /><stop
         id="stop4104"
         stop-color="#0099ff"
         offset="0.2980392156862745" /><stop
         id="stop4106"
         stop-color="#0066cc"
         offset="0.5372549019607843" /><stop
         id="stop4108"
         stop-color="#003399"
         offset="0.7529411764705882" /><stop
         id="stop4110"
         stop-color="#9999ff"
         offset="1.0"
         style="stop-color:#003399;stop-opacity:1" /></radialGradient><radialGradient
       xlink:href="#linearGradient112945"
       id="radialGradient112947"
       cx="17.520464"
       cy="11.413896"
       fx="17.520464"
       fy="11.413896"
       r="18.71875"
       gradientTransform="matrix(2.902442,4.2729138,-4.0226818,2.732468,-164.46482,-137.93413)"
       gradientUnits="userSpaceOnUse" /><linearGradient
       id="linearGradient112945"><stop
         style="stop-color:#c1fabb;stop-opacity:1"
         offset="0"
         id="stop112941" /><stop
         style="stop-color:#6ccf3b;stop-opacity:1"
         offset="0.28949517"
         id="stop133158" /><stop
         style="stop-color:#009100;stop-opacity:1"
         offset="0.61972094"
         id="stop173606" /><stop
         style="stop-color:#0f661e;stop-opacity:1"
         offset="1"
         id="stop112943" /></linearGradient><radialGradient
       spreadMethod="pad"
       r="819.20001"
       id="gradient1-6-7"
       gradientUnits="userSpaceOnUse"
       gradientTransform="matrix(0.14927588,0,0,0.14927588,-148.88488,-20.358437)"
       cy="0"
       cx="0"
       fx="0"
       fy="0"
       fr="0"><stop
         id="stop4100-5"
         stop-color="#ffffff"
         offset="0.0"
         style="stop-color:#ffffff;stop-opacity:0" /><stop
         id="stop4108-8"
         stop-color="#003399"
         offset="0.7529411764705882"
         style="stop-color:#9999ff;stop-opacity:0.05691801" /><stop
         id="stop4110-9"
         stop-color="#9999ff"
         offset="1.0" /></radialGradient><linearGradient
       gradientTransform="matrix(0.21435543,0,0,0.21435543,26.010768,5.6047885)"
       gradientUnits="userSpaceOnUse"
       y2="24.99218"
       x2="-10.432291"
       y1="34.148121"
       x1="-10.432291"
       id="linearGradient1273"
       xlink:href="#linearGradient1271"
       inkscape:collect="always" /><linearGradient
       id="linearGradient1271"
       inkscape:collect="always"><stop
         id="stop1267"
         offset="0"
         style="stop-color:#0099ff;stop-opacity:1" /><stop
         id="stop1269"
         offset="1"
         style="stop-color:#000000;stop-opacity:1" /></linearGradient><linearGradient
       inkscape:collect="always"
       xlink:href="#linearGradient1"
       id="linearGradient2"
       x1="146.1698"
       y1="153.37938"
       x2="232.58752"
       y2="153.37938"
       gradientUnits="userSpaceOnUse"
       gradientTransform="matrix(0.18761702,0,0,0.18761702,58.789187,-0.2264752)" /><linearGradient
       id="linearGradient1"
       inkscape:collect="always"><stop
         style="stop-color:#dcf8fe;stop-opacity:1"
         offset="0"
         id="stop1" /><stop
         style="stop-color:#c3eeff;stop-opacity:1"
         offset="1"
         id="stop2" /></linearGradient><linearGradient
       gradientTransform="matrix(0.99999737,0,0,0.99999737,95.858873,0.1697108)"
       gradientUnits="userSpaceOnUse"
       y2="32.75"
       x2="-1.7357032"
       y1="32.75"
       x1="-9.3464603"
       id="linearGradient1281"
       xlink:href="#linearGradient1279"
       inkscape:collect="always" /><linearGradient
       id="linearGradient1279"
       inkscape:collect="always"><stop
         id="stop1275"
         offset="0"
         style="stop-color:#7298d2;stop-opacity:1" /><stop
         id="stop1277"
         offset="1"
         style="stop-color:#b4e2ff;stop-opacity:1" /></linearGradient><linearGradient
       gradientTransform="matrix(0.99999737,0,0,0.99999737,95.858873,0.1697108)"
       gradientUnits="userSpaceOnUse"
       y2="32.682362"
       x2="-0.67190677"
       y1="36.641697"
       x1="1.3280014"
       id="linearGradient1297"
       xlink:href="#linearGradient1295"
       inkscape:collect="always" /><linearGradient
       id="linearGradient1295"
       inkscape:collect="always"><stop
         id="stop1291"
         offset="0"
         style="stop-color:#99ccff;stop-opacity:1" /><stop
         id="stop1293"
         offset="1"
         style="stop-color:#7298d2;stop-opacity:1" /></linearGradient><linearGradient
       gradientTransform="matrix(0.99999737,0,0,0.99999737,95.858873,0.1697108)"
       gradientUnits="userSpaceOnUse"
       y2="33.875141"
       x2="2.0320563"
       y1="41.497559"
       x1="2.0320563"
       id="linearGradient1321"
       xlink:href="#linearGradient1319"
       inkscape:collect="always" /><linearGradient
       id="linearGradient1319"
       inkscape:collect="always"><stop
         id="stop1315"
         offset="0"
         style="stop-color:#b4e2ff;stop-opacity:1" /><stop
         id="stop1317"
         offset="1"
         style="stop-color:#ffffff;stop-opacity:1;" /></linearGradient><linearGradient
       gradientUnits="userSpaceOnUse"
       y2="184.282"
       x2="219.79272"
       y1="237.79044"
       x1="219.79272"
       id="linearGradient1532"
       xlink:href="#linearGradient1530"
       inkscape:collect="always"
       gradientTransform="matrix(0.18761702,0,0,0.18761702,58.789187,-0.2264752)" /><linearGradient
       id="linearGradient1530"
       inkscape:collect="always"><stop
         id="stop1526"
         offset="0"
         style="stop-color:#99ccff;stop-opacity:1" /><stop
         id="stop1528"
         offset="1"
         style="stop-color:#b4e2ff;stop-opacity:1" /></linearGradient><filter
       inkscape:collect="always"
       style="color-interpolation-filters:sRGB"
       id="filter22"
       x="-0.15134893"
       y="-0.14289402"
       width="1.3026979"
       height="1.285788"><feGaussianBlur
         inkscape:collect="always"
         stdDeviation="0.5953915"
         id="feGaussianBlur22" /></filter></defs><sodipodi:namedview
     inkscape:snap-intersection-paths="true"
     inkscape:object-paths="true"
     inkscape:snap-grids="true"
     inkscape:guide-bbox="true"
     showguides="true"
     id="base"
     pagecolor="#ffffff"
     bordercolor="#666666"
     borderopacity="1.0"
     inkscape:pageopacity="0.0"
     inkscape:pageshadow="2"
     inkscape:zoom="42.399574"
     inkscape:cx="-3.4316383"
     inkscape:cy="5.2476943"
     inkscape:document-units="px"
     inkscape:current-layer="layer1"
     inkscape:document-rotation="0"
     showgrid="true"
     units="px"
     inkscape:window-width="3840"
     inkscape:window-height="2058"
     inkscape:window-x="3840"
     inkscape:window-y="0"
     inkscape:window-maximized="1"
     inkscape:snap-bbox="true"
     inkscape:bbox-nodes="true"
     fit-margin-top="0"
     fit-margin-left="0"
     fit-margin-right="0"
     fit-margin-bottom="0"
     inkscape:bbox-paths="false"
     inkscape:pagecheckerboard="0"
     inkscape:showpageshadow="2"
     inkscape:deskcolor="#d1d1d1"><inkscape:grid
       type="xygrid"
       id="grid1504"
       originx="0"
       originy="0"
       spacingy="1"
       spacingx="1"
       units="px"
       visible="true" /><inkscape:grid
       type="xygrid"
       id="grid1507"
       spacingx="0.5"
       spacingy="0.5"
       originx="0"
       originy="0"
       units="px"
       visible="true" /></sodipodi:namedview><metadata
     id="metadata5"><rdf:RDF><cc:Work
         rdf:about=""><dc:format>image/svg+xml</dc:format><dc:type
           rdf:resource="http://purl.org/dc/dcmitype/StillImage" /></cc:Work></rdf:RDF></metadata><g
     inkscape:label="Layer 1"
     inkscape:groupmode="layer"
     id="layer1"
     transform="translate(-12.567709)"><path
       id="path11"
       style="color:#000000;opacity:0.75;fill:#000000;fill-opacity:1;fill-rule:evenodd;stroke-linecap:round;stroke-linejoin:round;-inkscape-stroke:none;filter:url(#filter12)"
       d="m 18.501767,0.5 c -1.095564,6.2797e-4 -2.098326,0.12558575 -2.871094,0.34179688 -0.386384,0.10810555 -0.715235,0.23830982 -0.980468,0.40234372 -0.265234,0.164034 -0.490671,0.3705953 -0.5625,0.6796875 l 0.0293,-0.023437 a 0.37503801,0.37503801 0 0 1 0.25,-0.1992187 l -0.25,0.1992187 a 0.37503801,0.37503801 0 0 0 -0.05664,0.1074219 v 0.083984 2.5859375 c -0.03033,0.068602 -0.09455,0.138145 -0.117188,0.2109375 -0.04731,0.1521664 -0.08503,0.3216533 -0.115234,0.4902343 -0.05784,0.3227852 -0.08703,0.6020428 -0.08984,0.7890626 a 0.37503801,0.37503801 0 0 0 -0.0078,0.00781 c -3.47e-4,0.00439 0.0062,0.011202 0.0059,0.015625 -1.4e-5,0.0027 -0.002,0.00906 -0.002,0.011719 v 0.00195 h -0.0039 c 0,0.064528 0.0083,0.1092048 0.01563,0.1464844 1.77e-4,0.00118 -1.8e-4,0.00273 0,0.00391 v 0.00195 c 7.72e-4,0.00387 0.0012,0.012054 0.002,0.015625 7.15e-4,0.00354 0.0079,0.033943 0.01367,0.058594 7.76e-4,0.0033 9.53e-4,0.00416 0.002,0.00781 0.0028,0.01095 0.0015,0.00944 0.0059,0.023437 a 0.37503801,0.37503801 0 0 0 0.09375,0.087891 c 0.03202,0.1805907 0.07968,0.3577537 0.197266,0.5546876 v 1.3808593 c -0.03033,0.068602 -0.09455,0.1381451 -0.117188,0.2109375 -0.04731,0.1521666 -0.08503,0.3216533 -0.115234,0.4902344 -0.05784,0.3227852 -0.08703,0.6020428 -0.08984,0.7890625 a 0.37503801,0.37503801 0 0 0 -0.0078,0.00781 c -3.47e-4,0.00439 0.0062,0.011197 0.0059,0.015625 -1.4e-5,0.0027 -0.002,0.0091 -0.002,0.01172 v 0.002 h -0.0039 c 0,0.0449 0.01285,0.08026 0.01953,0.121094 0.0061,0.03897 0.0081,0.08681 0.01563,0.117187 l 0.0039,-0.002 c 0.0023,0.0077 0.0015,0.0179 0.0039,0.02539 a 0.37503801,0.37503801 0 0 0 0.08984,0.08398 c 0.03213,0.180006 0.08002,0.356506 0.197266,0.552734 v 1.994141 c 0,0.93709 0.639187,1.647994 1.476562,2.072266 0.837374,0.42427 1.900745,0.621093 2.964844,0.621093 1.0641,0 2.127469,-0.196823 2.964844,-0.621093 0.837375,-0.424272 1.476562,-1.135176 1.476562,-2.072266 v -1.964844 c 0.12874,-0.217242 0.21356,-0.434576 0.25,-0.644531 a 0.37503801,0.37503801 0 0 0 0.03711,-0.01953 c 0.0017,-0.0054 0.0038,-0.01904 0.0059,-0.02539 0.0097,-0.03035 0.02134,-0.06414 0.0293,-0.121094 h -0.0078 c 6.75e-4,-0.0074 0.0092,-0.01614 0.0098,-0.02344 a 0.37503801,0.37503801 0 0 0 -0.0078,-0.01953 c 0.0028,-0.0274 0.0098,-0.04553 0.0098,-0.07617 0,-0.1855225 -0.03529,-0.4870467 -0.0957,-0.8242198 C 23.143306,9.018913 23.10768,8.849444 23.060361,8.6972656 23.037768,8.6246041 22.973404,8.5548108 22.943173,8.4863281 V 7.1328125 c 0.12955,-0.2186088 0.215756,-0.4373598 0.251953,-0.6484375 a 0.37503801,0.37503801 0 0 0 0.03711,-0.019531 c 0.0022,-0.00712 0.0036,-0.017848 0.0059,-0.025391 0.01028,-0.034832 0.02084,-0.07065 0.02734,-0.1171875 h -0.0078 c 6.75e-4,-0.00736 0.0092,-0.01614 0.0098,-0.023437 a 0.37503801,0.37503801 0 0 0 -0.0078,-0.017578 c 0.0026,-0.027301 0.0098,-0.048595 0.0098,-0.078125 0,-0.1855213 -0.03529,-0.4870457 -0.0957,-0.8242188 -0.03034,-0.1685869 -0.06596,-0.338056 -0.113281,-0.4902343 -0.02259,-0.072662 -0.08696,-0.142455 -0.117188,-0.2109375 v -2.585938 -0.083984 a 0.37503801,0.37503801 0 0 0 -0.03125,-0.09375 L 22.607236,1.671875 a 0.37503801,0.37503801 0 0 1 0.304687,0.2421875 l 0.01172,0.00977 C 22.851712,1.6143144 22.624943,1.4063306 22.359189,1.2421875 22.093436,1.0780444 21.763923,0.94990962 21.376767,0.84179688 20.602457,0.62557138 19.598874,0.4999978 18.501767,0.5 Z" /><path
       id="path31"
       style="fill:url(#linearGradient35);fill-rule:evenodd;stroke:#996600;stroke-width:0.750001;stroke-linecap:round;stroke-linejoin:round;stroke-dasharray:none;stroke-opacity:1"
       d="m 18.00129,0.375 a 4.0664186,1.2172943 0 0 0 -4.048828,1.1328125 h -0.01758 v 0.083984 2.6386719 c -0.196919,0.172171 -0.326172,1.2410367 -0.326172,1.4726562 0,0.032294 0.003,0.064437 0.0078,0.095703 0.0027,0.017915 0.0075,0.035168 0.01172,0.052734 -0.0055,-0.017388 -0.0082,-0.035485 -0.01172,-0.052734 -0.0064,-0.031644 -0.01172,-0.062561 -0.01172,-0.09375 -0.01565,0.1979866 0.05694,0.5666291 0.330078,0.8984375 v 1.4355469 c -0.196919,0.172171 -0.326172,1.2410368 -0.326172,1.4726563 0,0.051857 0.0094,0.1012153 0.02148,0.1503906 -0.01596,-0.050085 -0.02539,-0.099486 -0.02539,-0.1484375 -0.01565,0.1979625 0.05702,0.5647071 0.330078,0.8964841 v 1.996094 c 0,3.090475 8.132812,3.090475 8.132812,0 v -1.988281 c 0.215213,-0.270278 0.305174,-0.5793458 0.326172,-0.839844 -0.0039,0.027667 -0.01251,0.055958 -0.02148,0.083984 0.01216,-0.049175 0.02148,-0.098534 0.02148,-0.1503906 0,-0.2315951 -0.129182,-1.3004964 -0.326172,-1.4726563 V 6.609375 c 0.215213,-0.2702777 0.305174,-0.5793456 0.326172,-0.8398438 -0.0038,0.026897 -0.01094,0.054794 -0.01953,0.082031 0.01168,-0.048226 0.01953,-0.09764 0.01953,-0.1484375 0,-0.2315951 -0.129182,-1.3004963 -0.326172,-1.4726562 V 1.5917969 1.5078125 h -0.0098 A 4.0664186,1.2172943 0 0 0 18.00129,0.375 Z" /><g
       id="g30"
       transform="translate(-3.066419)"><path
         style="fill:url(#linearGradient4);fill-rule:evenodd;stroke:none;stroke-width:0.750001;stroke-linecap:round;stroke-linejoin:round;stroke-dasharray:none"
         d="M 17.00129,1.5085143 V 12.406517 c 0,3.090478 8.132838,3.090478 8.132838,0 V 1.5085143 H 17.00129"
         id="path2"
         sodipodi:nodetypes="ccccc" /><ellipse
         style="fill:#ffff99;fill-opacity:1;fill-rule:evenodd;stroke:none;stroke-width:0.750001;stroke-linecap:round;stroke-linejoin:round;stroke-dasharray:none"
         id="path3"
         cx="21.067709"
         cy="1.592474"
         rx="4.0664186"
         ry="1.2172943" /><path
         id="path3-6-5"
         style="color:#000000;fill:#996600;fill-rule:evenodd;stroke-width:0.750001;stroke-linecap:round;stroke-linejoin:round;stroke-dasharray:none"
         d="m 17.760567,7.1269398 c 0.909427,0.3388205 2.022334,0.5121147 3.307142,0.5121147 1.284808,0 2.473549,-0.22517 3.307142,-0.5121147 0.833594,-0.2869447 1.070231,-0.9531832 1.089038,-1.4216311 0,0.1676181 -0.09025,0.3416817 -0.296721,0.5235514 -0.206474,0.1818698 -0.523717,-0.5037372 -0.92384,-0.3546652 -0.800245,0.2981433 -1.928672,0.6258053 -3.175619,0.6258053 -1.246946,0 -2.376009,-0.327662 -3.176254,-0.6258053 -0.400123,-0.149072 -0.717367,0.536535 -0.92384,0.3546652 -0.206473,-0.1818684 -0.296086,-0.355932 -0.296086,-0.5235501 -0.02529,0.3199006 0.179611,1.0828093 1.089038,1.4216298 z"
         sodipodi:nodetypes="zszcssssscz" /><path
         id="path3-6"
         style="color:#000000;fill:url(#linearGradient8);fill-rule:evenodd;stroke-width:0.750001;stroke-linecap:round;stroke-linejoin:round;stroke-dasharray:none"
         d="m 17.00129,4.2311089 c -0.196919,0.1721712 -0.325313,1.2400401 -0.325313,1.4716598 0,0.2583519 0.158522,0.4844936 0.395205,0.6677821 0.236683,0.1832881 0.560688,0.3372212 0.954973,0.4663675 0.788568,0.2582917 1.859333,0.4136309 3.041554,0.4136309 1.182222,0 2.25235,-0.1553392 3.040919,-0.4136309 0.394284,-0.1291463 0.71829,-0.2830794 0.954973,-0.4663675 0.236683,-0.1832885 0.39584,-0.4094302 0.39584,-0.6677821 0,-0.2315953 -0.128323,-1.2994997 -0.325313,-1.4716598 v 0.6093275 0.046382 h -0.0038 c -0.01735,0.1118184 -0.09786,0.2341825 -0.265588,0.3640714 -0.191321,0.1481608 -0.486734,0.2927386 -0.85776,0.4142666 -0.742052,0.2430557 -1.78583,0.3977465 -2.939258,0.3977465 -1.153428,0 -2.197841,-0.1546908 -2.939894,-0.3977465 C 17.756789,5.5436289 17.461377,5.3990511 17.270055,5.2508903 17.102327,5.1210014 17.022333,4.9986373 17.005102,4.8868189 h -0.0038 v -0.046382 z"
         sodipodi:nodetypes="csssssssccccssssscccc" /><path
         id="path29"
         style="color:#000000;fill:#996600;fill-rule:evenodd;stroke-width:0.750001;stroke-linecap:round;stroke-linejoin:round;stroke-dasharray:none"
         d="m 17.760567,10.935069 c 0.909427,0.33882 2.022334,0.512115 3.307142,0.512115 1.284808,0 2.473549,-0.22517 3.307142,-0.512115 0.833594,-0.286945 1.070231,-0.9531834 1.089038,-1.4216313 0,0.1676181 -0.09025,0.3416817 -0.296721,0.5235513 -0.206474,0.18187 -0.523717,-0.5037371 -0.92384,-0.3546651 -0.800245,0.2981433 -1.928672,0.6258051 -3.175619,0.6258051 -1.246946,0 -2.376009,-0.3276618 -3.176254,-0.6258051 -0.400123,-0.149072 -0.717367,0.5365351 -0.92384,0.3546651 -0.206473,-0.1818683 -0.296086,-0.3559319 -0.296086,-0.52355 -0.02529,0.3199006 0.179611,1.082809 1.089038,1.42163 z"
         sodipodi:nodetypes="zszcssssscz" /><path
         id="path30"
         style="color:#000000;fill:url(#linearGradient30);fill-rule:evenodd;stroke-width:0.750001;stroke-linecap:round;stroke-linejoin:round;stroke-dasharray:none"
         d="m 17.00129,8.0392379 c -0.196919,0.1721712 -0.325313,1.2400401 -0.325313,1.4716598 0,0.2583519 0.158522,0.4844936 0.395205,0.6677823 0.236683,0.183288 0.560688,0.337221 0.954973,0.466367 0.788568,0.258292 1.859333,0.413631 3.041554,0.413631 1.182222,0 2.25235,-0.155339 3.040919,-0.413631 0.394284,-0.129146 0.71829,-0.283079 0.954973,-0.466367 0.236683,-0.1832887 0.39584,-0.4094304 0.39584,-0.6677823 0,-0.2315953 -0.128323,-1.2994997 -0.325313,-1.4716598 v 0.6093275 0.046382 h -0.0038 c -0.01735,0.1118184 -0.09786,0.2341825 -0.265588,0.3640714 -0.191321,0.1481608 -0.486734,0.2927386 -0.85776,0.4142666 -0.742052,0.2430557 -1.78583,0.3977465 -2.939258,0.3977465 -1.153428,0 -2.197841,-0.1546908 -2.939894,-0.3977465 C 17.756789,9.3517579 17.461377,9.2071801 17.270055,9.0590193 17.102327,8.9291304 17.022333,8.8067663 17.005102,8.6949479 h -0.0038 v -0.046382 z"
         sodipodi:nodetypes="csssssssccccssssscccc" /></g><path
       id="path1"
       style="fill:#000000;fill-opacity:1;fill-rule:evenodd;stroke:none;stroke-width:0.0528671;filter:url(#filter22);opacity:0.85"
       d="m 23.292646,6.104 c -1.163681,0 -2.158789,0.4088399 -2.984375,1.2265625 -0.817722,0.8177227 -1.226562,1.8070208 -1.226562,2.9707035 0,1.155818 0.40884,2.14707 1.226562,2.972656 0.825586,0.817722 1.820694,1.226562 2.984375,1.226562 0.78187,0 1.486435,-0.188309 2.117188,-0.5625 l 0.582031,0.460938 0.929688,-0.414063 h 0.002 c 0.240701,0.150736 0.416775,0.263279 0.517578,0.376953 0.134406,0.151567 0.171875,0.264934 0.171875,0.414063 0,0.121497 -0.02321,0.147572 -0.15625,0.21289 -0.133041,0.06532 -0.334559,0.105218 -0.564453,0.128907 -0.459787,0.04738 -1.021759,0.02793 -1.414063,0.08398 -0.595458,0.08507 -1.259571,0.446045 -1.496093,0.902344 l 0.203125,-0.0039 0.478515,-0.002 -0.002,0.002 0.3125,-0.002 -0.002,0.002 h 0.285156 c 0.0676,-0.0676 0.288653,-0.117993 0.5625,-0.152343 0.273847,-0.03435 0.591601,-0.04297 0.857422,-0.04297 0.445468,0 0.915126,-0.07468 1.255859,-0.273438 0.340732,-0.19876 0.589844,-0.528313 0.589844,-0.894531 0,-0.363007 -0.247565,-0.690442 -0.482422,-0.941406 -0.138118,-0.147591 -0.28365,-0.269318 -0.404297,-0.359375 l 0.164063,-0.972656 -0.658203,-0.457032 c 0.231375,-0.521375 0.347656,-1.090262 0.347656,-1.705077 0,-1.1636827 -0.408839,-2.1529808 -1.226562,-2.9707035 C 25.437765,6.5128399 24.448467,6.104 23.292646,6.104 Z" /><g
       id="g1529"
       transform="matrix(0.05404193,0,0,0.05404193,30.330602,8.8493425)"><path
         d="m -217.41211,17.615253 q 0,32.08121 22.69691,54.996374 22.91517,22.696914 55.21462,22.696914 32.08124,0 54.996379,-22.696914 22.696933,-22.915164 22.696933,-54.996374 0,-32.29946 -22.696933,-54.996379 -22.915139,-22.696917 -54.996379,-22.696917 -32.29945,0 -55.21462,22.696917 -22.69691,22.696919 -22.69691,54.996379"
         id="path3998"
         style="fill:url(#gradient0-1);fill-rule:evenodd;stroke:none;stroke-width:0.978261" /><path
         d="m -213.04731,17.615253 q 0,30.335298 21.38747,51.94102 21.60572,21.605723 52.15926,21.605723 30.33531,0 52.159275,-21.605723 21.387473,-21.605722 21.387473,-51.94102 0,-30.553544 -21.387473,-52.159264 -21.823965,-21.605719 -52.159275,-21.605719 -30.55354,0 -52.15926,21.605719 -21.38747,21.60572 -21.38747,52.159264"
         id="path4000"
         style="fill:url(#gradient1-6);fill-rule:evenodd;stroke:none;stroke-width:0.978261" /><path
         d="m -147.79343,-55.273706 v 0.433557 h -0.43356 v 0.433556 h -1.74867 v 0.440782 h -1.74868 v 0.650335 h -0.43356 v 1.748677 h 0.87434 v 0.433556 h 3.92369 v 0.440782 h -2.18223 v 0.874339 h -0.43356 v -0.440782 h -1.74868 v 0.874338 h 0.44078 v 1.307895 h -0.44078 v 0.874339 h -0.86711 v 0.433556 h -0.44078 v 0.440782 h -0.43356 v 0.433556 h -0.44078 v 1.091117 h -0.65034 v 0.440783 h -0.44078 v 0.867112 h 0.44078 v 0.440782 h 1.09112 v 0.433557 h 1.74145 v 0.440782 h 1.74868 v -0.440782 h 0.87434 v -1.307895 h 0.43355 v -0.433556 h 0.87434 v -0.440783 h 0.43356 v -0.433556 h 0.44078 v -0.657561 h 0.43356 v -0.874338 h 0.65756 v -0.433556 h 1.74145 v -0.433557 h 0.44078 v 0.867113 h -0.44078 v 0.874338 h 1.31512 v 1.091117 h 0.43355 v 0.440783 h -0.43355 v 0.433556 h -1.74868 v 0.433556 h -0.43355 v 0.440782 h -2.40624 v 0.433557 h -0.43356 v 0.440782 h -0.43356 v 0.433556 h 0.43356 v 0.440782 h 0.87434 v 0.433557 h 1.09112 v 0.433556 h 0.43355 v 0.440782 h -1.96545 v 1.307895 h 0.44078 v 0.874339 h 2.83257 v 1.091116 h 0.87434 v -0.65756 h 1.30789 v -0.433556 h 3.49736 v 0.433556 h 0.65033 v 0.65756 h 0.44078 v 1.307895 h 0.43356 v 0.433557 h 0.43355 v 3.497352 h -0.43355 v 0.433558 h -0.43356 v 0.433558 h 1.74145 v 0.44078 h -0.43355 v 0.433558 h 0.43355 v 0.44078 h 1.31512 v 0.650338 h 0.43356 v 0.440779 h -0.43356 v 0.433559 h -0.87433 v 0.874338 h -0.44079 v 0.433554 h -0.43355 v 0.440784 h 0.43355 v 1.741451 h 0.44079 v 0.874338 h 0.43355 v 0.874338 h 0.44078 v 0.874338 h 0.43356 v 0.433558 h 0.43356 v 1.091117 h 0.44078 v 0.44078 h 0.43356 v 0.433558 h 2.18223 v 0.433555 h 1.96546 v -1.307893 h 0.43355 v -1.524675 h 1.09112 v -1.307893 h 0.44078 v -0.874338 h 1.3079 v -0.440783 h 1.30789 v -0.433555 h 0.44078 v -0.440784 h 0.43356 v -0.433558 h 0.43356 v -0.874338 h 1.74867 v -0.433554 h 0.43356 v -0.440784 h 0.44078 v 0.440784 h 0.87434 v -0.440784 h 1.52467 v -0.433554 h 0.43356 v -0.433559 h 1.31512 v -0.440779 h 0.43355 v -1.091118 h 0.44079 v -1.741454 h -0.44079 v -0.44078 h -0.43355 v -1.741451 h 1.30789 v -0.440783 h 0.43356 v -0.433556 h 0.44078 v -0.440782 h 0.43356 v -0.433557 h 0.44078 v -1.307895 h -0.44078 v -0.65756 h -0.43356 v -0.433556 h 2.18223 v -0.874339 h -0.44078 v -0.433556 h -0.43355 v -0.874339 h -0.43356 v -0.874338 h -1.31512 v -0.433557 h -1.3079 v 1.741452 h -0.43355 v 0.874338 h -0.44078 v -1.748677 h -0.43356 v -0.433556 h 0.43356 v -1.307895 h 0.87433 v 0.433556 h 0.87434 v -1.307895 h 1.74868 v -0.874338 h -0.44078 v -0.433556 h -1.74145 v 0.867112 h -0.87434 v 0.440782 h -0.44078 v -1.307894 h 0.44078 v -0.440783 h 3.49013 v -0.433556 h 0.43355 v -0.657561 h -2.18223 v -0.433556 h 0.44078 v -0.874338 h 0.43356 v -0.433557 h 0.87434 v -0.440782 h 0.43355 v -1.307895 h 0.44078 v -0.874338 h -0.87433 v -0.433557 h -2.18224 v 1.307895 h -0.43355 v 0.433557 h -0.44079 v 0.440782 h -0.87433 v -0.440782 h 0.44078 v -0.433557 h 0.43355 v -0.433556 h 0.44079 v -1.315121 h -2.62302 v -0.433556 h 0.43356 v -0.874339 h -0.43356 v -0.433556 h -1.96545 v -0.440782 h -1.74145 v -0.650335 h -1.74868 v -0.440782 h -5.02203 v 0.440782 h -0.86711 v 0.650335 h -1.5319 v 0.440782 h -0.43356 v 0.433556 h -1.30789 v 0.440782 h -0.44078 v 0.433557 h -2.18224 v 0.433556 h -2.18223 v 0.440782 h -2.39901 v 0.433557 h -1.3079 v -0.433557 h 0.86711 v -0.440782 h 0.87435 v -0.433556 h -0.43356 v -0.433557 h -0.44079 v -1.965455 h -0.43355 v -0.440782 h -0.43356 v -0.433556 h -0.44078 v -0.433557 h -3.05657 v 0.433557 h -1.3079 v -0.433557 z m -10.26083,1.95823 v 0.874338 h -0.43356 v 1.307895 h -0.43355 v -0.433556 h -0.87434 v -0.874339 h -1.74868 v 0.440782 h -1.52467 v 0.433557 h 1.09112 v 0.433556 h 0.43355 v 0.440782 h 0.87434 v 0.433557 h 1.3079 v -0.433557 h 0.44078 v 0.874339 h 0.43355 v 0.433556 h -0.43355 v 0.433557 h 0.86711 v 0.874338 h -0.43356 v 0.440782 h 0.43356 v 1.307895 h 3.05657 v -0.874338 h 0.44078 v -0.433557 h 0.65034 v -0.874338 h 0.44078 v -1.307895 h -1.09112 v -1.748677 h -0.44078 v -0.433557 h -0.43355 v -0.440782 h -1.3079 v -0.874338 z m -6.3227,1.748677 v 0.433556 h 0.43356 v -0.433556 z m -3.05657,1.307895 v 0.440782 h -1.3079 v 0.433556 h -0.87433 v 0.874339 h 1.74145 v 1.741451 h 1.31512 v 0.440782 h 0.43356 v -0.440782 h 0.43355 v 0.440782 h 0.44079 v 3.706907 h -0.87434 v 0.874338 h -0.43356 v 0.440782 h -0.44078 v 0.867113 h 0.44078 v 3.056572 h 1.3079 v -1.307895 h 0.43355 v -0.433556 h 0.87434 v -0.440782 h 0.43356 v -0.433557 h 0.44078 v -1.307895 h 0.43355 v -0.440782 h 3.27336 v -0.433556 h 0.87433 v 0.433556 h 1.3079 v 1.748677 h 4.58847 v -1.307895 h -0.44078 v -0.874338 h -2.8398 v -3.056572 h -0.86711 v -0.657561 h -1.74868 v -0.433556 h -1.74867 v 0.433556 h -1.74145 v -0.433556 h -0.65757 v -0.440782 h -0.87433 v -0.867113 h -0.43356 v -0.874338 h -1.74868 v -0.440782 h -0.43355 v -0.433557 h -0.87434 v -0.874338 z m -4.14769,1.748677 v 0.433556 h -0.87434 v 0.440782 h -0.87434 v 0.433557 h -0.87433 v 0.433556 h 0.44078 v 0.440782 h 0.87434 v 0.433556 h 0.43355 v 1.091117 h 0.44079 v 0.440783 h 1.52467 v 0.433556 h 2.61579 v -0.433556 h 0.87434 v -1.965456 h -3.05657 v 1.091117 h -0.43356 v -2.399012 h 0.43356 v -0.874338 z m -5.67236,3.27335 v 0.433556 h -0.87434 v 0.440783 h -0.44078 v 0.433556 h -1.09112 v 0.433556 h -0.43355 v 0.440782 h -0.87434 v 0.433557 h 0.87434 v 0.874338 h 2.39901 v -0.433556 h 1.74868 v -0.440782 h 0.87433 v -0.874339 h 0.43356 v -0.867112 h -0.43356 v -0.440783 h -1.31512 v -0.433556 z m 4.36447,2.182233 v 0.433557 h -0.44079 v 1.748677 h -1.30789 v 1.307895 h 0.43356 v 0.440782 h 0.44078 v 0.433556 h 0.43355 v 0.874339 h 0.87434 v 0.433556 h 2.39902 v -0.433556 h 0.44078 v 1.091116 h -0.44078 v 0.433557 h -0.43356 v 0.874338 h -1.09112 v 0.874339 h -0.87434 v -1.307895 h -1.30789 v -0.440782 h -1.3079 v -1.091117 h -0.44078 v -2.61579 h -0.43355 v -0.440782 h -1.3079 v 0.440782 h -0.44078 v -0.440782 h -1.96546 v -0.433556 h -1.30789 v 0.874338 h -0.43356 v -1.307895 h -0.87434 v -0.440782 h -0.43355 v 0.440782 h -0.44079 v 0.867113 h -0.43355 v -0.433556 h -0.44078 v 0.433556 h -0.43356 v 0.440782 h -0.43356 v 0.433557 h -0.44078 v 0.440782 h -0.87434 v 0.433556 h -0.43355 v 0.433557 h 0.87434 v -0.433557 h 0.43355 v 0.874339 h 0.44078 v 1.524673 h 0.86712 v 0.440782 h 1.74867 v -0.440782 h 0.87434 v 0.440782 h 0.87434 v 0.433556 h -3.49735 v 1.307895 h 0.44078 v 0.440783 h 1.30789 v 0.433556 h 0.43356 v 0.433556 h 2.18223 v -0.433556 h 2.40624 v -0.433556 h 1.3079 v 0.433556 h 2.18223 v -0.433556 h 0.43355 v -0.874339 h 0.44079 v 1.307895 h 0.87434 v 0.433556 h 0.86711 v -0.433556 h 1.09112 v 0.433556 h 0.44078 v 0.874339 h 0.43355 v 0.44078 h 0.44078 v 0.867116 h -0.44078 v 0.44078 h -1.30789 v -0.44078 h 0.43356 v -0.867116 h -2.83257 v 1.307896 h -1.74868 v 0.433558 h -0.43356 v -0.433558 h -0.44078 v -0.44078 h -0.43355 v -0.433558 h -1.3079 v -0.874338 h -0.44078 v -0.433557 h -0.43356 v 0.433557 h -1.96545 v 0.44078 h -0.43356 v 1.307896 h 0.43356 v 0.433558 h -0.43356 v 0.44078 h -0.44078 v -0.874338 h -0.43356 v -0.44078 h -0.87434 v 0.44078 h -2.18223 v -0.44078 h 0.43356 v -1.307896 h -0.43356 v -0.433557 h -0.43356 v -0.440782 h -0.87433 v 0.874339 h -0.44079 v -0.433557 h -0.43355 v -0.440782 h -0.65756 v -0.433556 h -0.86712 v -0.433556 h -0.87433 v -0.440783 l -3.04935,-0.0072 c -0.6911,0.643684 -3.2026,3.213602 -6.75625,7.861821 -2.43507,3.185088 -4.64239,6.676703 -5.60733,8.714483 l 0.57085,0.02183 v 0.867113 h 0.43355 v 0.440783 h 0.44079 v 0.433555 h 1.96545 v 0.440783 h 1.3079 v 0.433555 h 0.43355 v 0.433558 h 0.44078 v 0.874186 h 0.86712 v 1.531898 h 0.44078 v 0.433558 h 0.87434 v 0.433558 h -0.44078 v 1.3151179 h 0.44078 v 1.5246754 h 0.43355 v 0.4335544 h 0.43356 v 0.4407836 h 0.44078 v 0.8743381 h 0.65034 v 0.4335545 h 0.87434 v 0.4335582 h 0.44078 v 0.4407836 h 0.87434 v 0.4335544 h 0.43355 v 0.4407837 h 0.43356 v 3.2733478 h -0.43356 v 2.1822343 h -0.43355 v 4.364465 h 0.43355 v 0.8743418 h 0.43356 v 1.0911135 h 0.44078 v 0.4335582 h 0.43356 v 0.8743381 h 0.87434 v 0.874338 h 0.43355 v 0.4335582 h 0.44079 v 0.4335543 h 1.30789 v 0.440784 h 0.43356 v 1.307896 h 0.65756 v 0.433555 h 0.43355 v 0.874338 h 0.44079 v 0.440783 h 0.43355 v 1.091117 h 0.44078 v 0.874339 h 0.86712 v 0.433554 h 0.44078 v 0.433558 h 0.43355 v 0.874338 h 0.44079 v 0.440784 h 0.43355 v 0.867109 h 0.87434 v 0.440783 h 1.3079 v -0.874338 h -0.43356 V 18.05512 h -0.44078 v -0.874342 h -0.43356 v -0.44078 h -0.44078 v -0.867112 h 0.87434 v 0.867112 h 0.44078 v 0.44078 h 0.86711 v 0.874342 h 1.09112 v 0.433554 h 0.44078 v 0.433555 h 0.43356 v 1.74868 h 0.44078 v 1.307892 h 0.86711 v 0.440784 h 1.74868 v 0.650333 h 0.87434 v 0.440784 h 2.18223 v 0.867113 h 5.02203 v 0.44078 h 0.43356 v 0.433558 h 0.43355 v 0.440783 h 0.44079 v 0.433555 h 1.30789 v 0.433558 h 0.87434 v 0.44078 h 0.43355 v 0.874338 h 0.65757 v 1.307896 h 0.87433 v 0.433558 h 3.04935 v 0.44078 h 1.74868 v 0.433559 h 0.43355 v 1.965455 h -0.43355 v 0.874338 h -0.43356 v 0.867112 h -0.44078 v 1.315122 h -0.43356 v 0.874338 h -0.87434 v 0.433555 h -0.43355 v 1.748676 h -0.44078 v 1.091117 h 0.44078 v 1.307896 h 0.43355 v 0.433555 h 0.43356 v 0.440783 h 0.44078 v 0.867113 h 0.43356 v 0.874338 h 0.44078 v 2.182235 h 0.43356 v 0.440779 h 0.43355 v 0.433559 h 0.44079 v 0.433558 h 0.43355 v 0.657559 h 1.09112 v 0.433554 h 0.87434 v 0.440784 h 0.44078 v 0.433558 h 0.43355 v 0.44078 h 0.43356 v 7.197037 h -0.43356 v 1.315118 h -0.43355 v 3.049347 h -0.44078 v 2.406238 h -0.43356 v 1.307893 h -0.44078 v 3.273352 h 0.44078 v 0.433558 h -0.44078 v 0.874338 h -0.65034 v 0.874338 h 0.65034 v 3.490127 h -0.65034 v 0.440783 h -0.44078 v 1.95823 h -0.43355 v 5.238803 h 0.43355 v 0.440784 h 0.44078 v 0.433554 h 0.65034 v 0.433559 h 0.87434 v -0.433559 h 0.87433 v 0.433559 h 0.43356 V 83.7389 h -0.86711 v 1.315118 h 0.86711 v 0.867116 h 1.74868 v 0.44078 h 0.87434 v -0.44078 h 0.87433 v 0.44078 h 0.86712 v -0.874338 h 0.44078 V 84.17968 h -0.44078 V 83.7389 h -0.43356 v -0.433558 h -1.30789 v -0.657559 h -0.44078 v -0.433559 h -0.43356 v -1.748676 h -0.43356 v -0.867112 h 0.43356 v -0.440784 h 0.43356 v -0.874338 h 0.44078 v -0.433555 h 0.43355 v -0.433558 h 0.44078 v -2.18223 h -0.87433 V 73.70207 h 0.87433 v -0.433555 h 0.43356 v -1.315121 h 0.43356 v -0.867113 h 0.44078 v -1.315122 h -0.44078 v -0.433554 h 1.5319 v -0.874338 h 0.43355 V 67.15537 h 1.3079 v 0.433555 h 0.87434 V 67.15537 h 0.87433 v -0.433558 h 0.43356 v -2.839793 h -0.43356 v -0.433555 h 2.61579 v -0.657562 h 0.44079 v -0.874338 h 0.43356 v -0.874338 h 0.44078 v -0.867113 h 0.65033 v -1.315122 h 0.44078 v -0.433554 h 0.43356 v -0.874338 h 0.43355 v -0.874338 h 0.44079 v -1.524676 h 0.43355 v -0.433554 h 0.44079 v -0.440784 h 0.87433 v -0.874338 h 1.74146 v -0.433554 h 0.87433 v -0.440784 h 0.43356 v -0.433558 h 0.44078 v -0.433555 h 0.43356 v -0.440783 h 0.44078 v -0.874338 h 0.65034 v -2.182235 h 0.44078 v -1.95823 h 0.43356 v -0.874338 h 0.43355 v -0.874338 h 0.44078 v -0.433554 h 0.65034 v -0.874338 h 0.44078 V 42.71002 h 0.43355 v -3.706906 h -0.87433 v -0.433558 h -1.09112 v -0.44078 h -0.43355 v -0.433558 h -1.52468 v -0.44078 h -1.74868 V 36.82088 h -1.30789 v -1.307893 h -3.93091 v -2.182234 h -0.43356 v -0.440784 h -0.44078 v -0.433554 h -0.65033 v -0.440784 h -0.87434 v -0.433554 h -0.44079 v -0.657563 h -1.74145 V 30.49096 h -0.87434 v -0.433559 h -0.43355 v -0.44078 h -0.44078 v -0.433558 h -0.43356 V 28.74228 h -0.44078 v -0.433555 h -0.43356 v -0.433558 h -0.87434 v -0.44078 h -2.83257 v 0.44078 h -0.44078 v -0.44078 h -0.43355 v -0.433558 h -0.87434 v -0.874338 h -2.18224 v 0.433558 h -0.87433 v 0.44078 h -1.52468 v 0.433558 h -0.44078 v 0.874338 h -0.43355 v 0.433555 h -0.44079 v -0.433555 h -1.74145 v 0.433555 h -0.87434 v -0.433555 h -0.87433 v -0.433558 h -0.43356 v -0.874338 h -0.44078 v -0.44078 h 0.44078 v -3.049347 h -2.8398 v -2.839793 h 0.65757 v -1.307897 h -2.39902 v 0.433559 h -1.31512 v 0.874338 h -0.43355 v 0.433554 h -0.87434 v 0.440784 h -1.3079 v -0.440784 h -1.30789 v -0.433554 h -0.44078 v -1.307897 h -0.43356 v -0.874338 h -0.65756 v -1.307896 h -0.43356 v -1.748676 h 0.43356 v -0.433555 h 0.65756 v -0.657562 h 0.87434 V 13.90743 h 3.92368 v -0.440783 h 4.14769 v 0.440783 h 0.44078 v 1.524672 h 0.43356 v 0.874338 h 0.43356 v 0.433558 h 0.44078 v 0.44078 h 0.43356 v 0.433558 h 1.30789 v -0.433558 h 0.44078 v -1.307892 h -0.44078 v -0.874339 h -0.43356 V 13.90743 h -0.43355 v -1.748676 h 0.43355 v -0.874342 h 0.87434 v -0.433554 h 0.43356 v -0.440784 h 0.44078 V 9.5429615 h 0.86711 V 9.1021816 h 0.44079 V 8.6686235 h 0.43355 V 7.7942854 h -0.43355 V 7.3607272 h 0.87433 V 6.2696137 h 1.09112 v -2.623018 h 3.05657 V 3.2130413 h 0.43356 V 2.7722577 h -0.43356 V 2.3387032 H -150.85 V 1.905145 h 0.44078 V 1.4643614 h 0.43356 V 1.0308069 h 0.87434 v 0.4335545 h 1.74145 V 1.0308069 h 0.87434 V 0.59002331 h 1.09111 v -0.86711262 h -0.43355 v -0.44077993 h -0.65756 V -1.1514274 h -0.87434 v -0.657559 h -0.43356 v -1.3078963 h 0.43356 v -1.7486762 h -1.3079 v 0.4407837 h -0.43355 v -0.4407837 h 0.43355 v -0.4335544 h 3.27335 v -0.4407836 h 1.3079 v 0.4407836 h 0.87434 v -0.4407836 h 0.44078 v -0.4335582 h 0.43355 v -0.4335545 h 0.43356 v -0.4407836 h 0.87434 v -0.4335545 h 0.44078 v -1.7486761 h -0.44078 v -1.0911172 h -0.43356 v -0.433558 h -0.44078 v -0.44078 h -1.74145 v -0.433558 h -0.44078 v -1.524672 h -0.43356 v -0.440784 h -0.43355 v -0.874338 h -0.44079 v -1.307896 h -0.43355 v -0.874338 h -0.65756 v -0.867113 h -0.43356 v -0.874338 h -0.87434 v 0.433555 h -0.43356 v 1.307896 h -0.87433 v 0.440784 h -1.3079 v -0.440784 H -150.85 v -3.049347 h -0.87434 v -0.44078 h -0.43356 v -0.433558 h -0.43355 v -0.657559 h -2.83979 v -0.433558 h -0.44079 v -0.44078 h 1.31512 v -1.741451 h -0.87433 v 0.433555 h -0.44079 v 0.440783 h -0.86711 v -0.440783 h -0.44078 v -0.433555 h -0.43356 v -0.874338 h -0.87434 v -0.440784 h -0.43355 v -0.433558 h -0.87434 v -0.874338 h -0.44078 v 0.440784 h -0.43356 v 0.433554 h -0.87434 v 0.874342 h -0.43355 v 1.307893 h 0.87433 v 0.874338 h 1.3079 v -0.433555 h 0.43356 v -0.440783 h 0.87433 v 0.440783 h 0.87434 v 2.39901 h -0.44078 v 1.741451 h 0.44078 v 1.315121 h -0.44078 v 2.615789 h 0.44078 v 1.74868 h 0.43356 v 0.650334 h -0.43356 v 0.44078 h -0.44078 v 0.433558 h -0.43356 v 0.433558 h -0.43355 v 3.2733477 h 0.43355 v 0.8743381 h -0.43355 v 0.4407836 h -0.44078 v -0.4407836 h -0.43356 v -0.8743381 h -0.44078 v -0.4335544 h -0.43356 v -1.5246754 h -0.43356 v -1.3151179 h -0.44078 v -0.433558 h -4.14769 v -0.433558 h -0.43355 v -0.44078 h -0.43356 v -1.524676 h -0.44078 v -0.874338 h -0.87434 v -0.433554 h -0.43356 v -0.874338 h -0.43356 v 0.433554 h -0.44078 v -0.433554 h -0.43355 v -0.440784 h -0.44078 v -0.867113 h 0.44078 v -1.315121 h 0.43355 v -0.433555 h 0.44078 v -0.433558 h 0.43356 v -0.44078 h 0.43356 v -1.091117 h 0.87434 v -0.433558 h 2.18223 v -2.182231 h 0.44078 v -0.874338 h 0.43356 v -0.440784 h 0.43356 v -1.307896 h -0.86712 v -0.433554 h 1.3079 v 0.433554 h 1.09112 v -0.433554 h 1.74145 v -0.874338 h 0.44078 v -0.433559 h 0.43356 v -2.406235 h -0.87434 v -0.433558 h 0.44078 v -0.433558 h 0.43356 v -1.315119 h -0.87434 v -1.307895 h -2.39902 v 1.307895 h 0.65757 v 0.440782 h -0.65757 v 0.433557 h -0.43355 v 1.307896 h -0.44078 v -0.433558 h -0.43356 v -1.748677 h -0.87434 v 0.440782 h -0.43355 v -0.440782 h -1.3079 v -2.182233 h -0.44078 v -1.741452 h -0.43356 v -1.965455 h -2.18223 v -3.93091 h -0.44078 v -0.433557 z m 13.0934,20.514439 v 0.874338 h 1.74145 v -0.874338 z m 1.74145,-16.149972 v 1.307895 h -0.43356 v 1.531899 h -0.43355 v 0.867113 h 0.43355 v 0.440782 h 0.43356 v 0.874339 h 0.44078 v 1.307894 h 0.87434 v 0.433557 h 0.86711 v 1.748676 h 0.87434 v 0.433558 h 0.44078 v -0.433558 h 0.65034 v -1.748676 h 0.87434 v 0.44078 h 1.30789 v 0.433558 h 0.44078 v 0.433558 h 0.43356 v 0.44078 h 0.44078 v 2.399014 H -150.85 v 1.307892 h -0.43356 v 0.440784 h -0.44078 v -0.440784 h -0.86711 v 0.874338 h -0.44078 v 0.874342 h 0.44078 v 0.433555 h 2.18223 v 0.440783 h 0.86712 v 0.874338 h 0.44078 v 0.433555 h 0.87433 v 0.433558 h 0.43356 v 0.44078 h 1.3079 v -0.874338 h 0.65756 v 0.433558 h 0.87434 v -1.741451 h -0.44079 v -0.874338 h -0.43355 v -0.440784 h 0.43355 v -0.433558 h 1.3079 v -0.433554 h 0.87434 v -0.874338 h -0.43356 v -1.307897 h -1.30789 v -1.091117 h -0.44079 v -0.44078 h -1.09111 v -0.433558 h -0.87434 v -0.44078 h 0.87434 v -2.182235 h -0.87434 v -0.867112 h -0.43356 v -0.440783 h -0.87434 v -0.874338 h -1.30789 v -0.867113 h -0.43356 v -0.440782 h -2.62301 v -0.433557 h -0.87434 v -0.65756 h 0.44078 v -0.433556 h -0.44078 v -0.874339 z m 73.567279,7.197033 -0.672014,0.0074 v 0.433558 h -0.433554 v 0.874338 h -0.657559 v 1.524675 h -0.433558 v 0.874339 h -0.440784 v 0.874338 h -0.433554 v 1.307892 h -0.874338 v 0.874342 h -0.433559 v 0.874338 h -0.44078 v 0.874338 h -0.433558 v 0.433555 h -0.44078 v 0.433558 h -0.433558 v 0.44078 h -0.433558 v 0.433558 h -0.44078 v 0.657559 h -0.433558 v 0.433558 h -0.874338 v 0.44078 h -0.433555 v 0.433558 h -0.440783 v 0.433555 h -1.091117 v 0.440783 h 0.657562 v 0.433555 h -0.657562 v 1.307896 h 0.657562 v 1.748676 h -0.657562 v 0.874338 h 0.657562 v 1.524676 h 0.433555 v 0.440779 h 2.182234 v -0.440779 h 0.44078 v -0.650334 h 0.433558 v -0.874342 h 0.433558 v -0.44078 h 0.44078 v -0.433558 h 0.433558 v 1.74868 h -0.433558 v 1.091113 h 0.433558 v 1.307897 h 0.44078 v 0.8743378 h 0.433559 V -9.22985 h 1.748676 v -0.6503372 h 1.091117 v -0.8743378 h 0.433554 v -1.307897 h 0.433559 v -1.091113 h 0.440783 v -0.874342 h 0.433555 v -0.44078 h 0.440783 v -1.74145 h -0.874338 v -2.623018 h 0.433555 v -0.433555 h 0.440783 v -0.433558 h 0.867113 v -0.44078 h 0.44078 v 4.364465 h 0.433558 v 0.440784 h 0.874338 v 0.433554 h 0.433555 v 0.433558 h -0.433555 v 1.965456 h 0.433555 v 0.874338 h -0.433555 v -0.433559 h -0.433558 v -0.440779 h -0.44078 v 0.440779 h -0.433558 v 0.433559 h -0.44078 v 0.433558 h -0.433558 v 1.3151178 h -0.433555 V -8.78907 h -0.874338 v 0.4335581 h -0.440783 V -8.78907 h -0.867113 v 0.4335581 h -0.657559 v 0.4335545 h -1.74868 v -0.4335545 h -2.182231 v -1.9654551 h 0.44078 v -0.874338 h -0.44078 v -1.30807 h -0.433558 v 0.44078 h -0.874338 v 0.433558 h -0.433558 v 0.433558 h -0.44078 v 1.9654552 h 0.44078 v 1.7486761 h -0.874338 v 0.4335545 h -1.965455 v 0.8743381 h -0.433555 v 0.8743418 h -0.440784 v 0.4335544 h -0.433554 v 0.4407837 h -0.440784 v -1.7486799 h -0.433558 v -0.4335545 h -0.433554 v -0.4407836 h -0.440784 v -0.8743381 h -0.433554 v -0.4335544 h -0.440784 v -3.7069093 h -1.307893 v -0.44078 h -0.43356 v -0.650334 h 0.43356 v -0.874342 h -1.74145 v 0.433558 h -0.44078 v 1.531898 h -0.65034 v 1.741454 h 0.65034 v 1.0911172 h -2.83257 v 1.3078925 h -0.44079 v -0.4335544 h -0.87433 v 0.4335544 h -0.43356 v 0.8743381 h 0.87434 v 2.623018 h 1.74145 v -0.4407837 h 1.31512 v -0.4335544 h 0.65034 v 0.4335544 h 0.87433 v 0.4407837 h -0.87433 v 0.4335544 h -0.65034 v 0.4407837 h -0.44078 v 0.8671126 h 1.96545 v -0.4335582 h 1.74868 v 0.4335582 h -1.31512 v 0.4407799 h -0.86711 v 1.52467536 h 0.86711 v 0.44077993 h 0.44078 v 0.43355816 h 0.43356 v 0.43355446 h 0.44078 V 3.2130413 h -4.14769 V 2.7722577 h -0.87434 v 0.4407836 h -0.87434 v 6.3299202 h 0.87434 v 0.8671125 h 0.43356 v 0.440784 h -0.43356 v 1.307896 h -0.43355 v 0.433555 h -0.44079 v 0.440783 h -0.43355 v 0.874338 h -0.44078 v 1.091117 h -0.43356 v 0.433555 h -0.43356 v 0.440784 h -0.44078 v 0.433554 h -0.87434 v 0.433558 h -0.43355 v 0.44078 h -0.43356 v 0.874342 h -1.5319 v 2.18223 h -0.87434 v 0.433559 h -0.43355 v 0.874338 h -0.43356 v 0.433554 h 0.43356 v 1.965455 h 0.43355 v 0.874339 h -0.43355 v 0.433558 h -0.43356 v 2.623014 h 0.43356 v 0.433558 h 0.43355 v 0.433555 h 0.44078 v 0.440783 h 0.43356 v 0.433558 h 1.09112 v 0.44078 h 0.44078 v 0.433559 h 0.43356 v 1.091117 h 0.43355 v 0.874338 h 0.87434 v 0.433554 h 0.44078 v 0.440784 h 0.43356 v 0.433554 h 0.43356 v 0.433558 h 2.62301 v -0.433558 h 3.27335 v 0.433558 h 0.43356 v -0.433558 h 1.748677 v -0.433554 h 2.182234 v 0.433554 h 0.874338 v 0.433558 h 2.832568 v 0.44078 h 0.44078 v 1.307897 h -0.44078 v 0.874338 h -0.433558 v 1.748676 h 0.433558 v 0.433558 h 0.874338 v 1.524672 h 0.44078 v 0.440783 h 0.433558 v 1.741451 h 0.433558 v 0.440784 h 0.44078 v 0.874338 h 0.433558 v 1.307892 h -0.433558 v 0.433559 h -0.44078 v 0.440779 h 0.44078 v 0.867117 h -0.874338 v 1.965455 h -0.433558 v 1.307893 h 0.433558 v 0.874338 h 0.433558 v 0.874338 h 0.44078 v 1.307896 h 0.433558 v 1.315122 h 0.44078 v 1.524671 h 0.433559 v 0.874338 h 0.433554 v 1.741451 h 0.440784 v 0.440784 h 0.433554 v 0.433554 h 0.440784 v 0.874342 h 0.433558 v 2.182231 h 1.091113 v 0.657562 h 2.182235 v -0.657562 l 1.669192,0.01443 c 4.743886,-6.395796 15.362346,-19.645802 15.362346,-45.292184 0,-25.6463811 -11.112131,-40.433197 -18.541759,-49.006315 z m -70.944259,0.0074 h 0.43355 v 0.867116 h -0.43355 z m 37.53874,1.307896 h 0.43356 v 0.433558 h -0.43356 z m -29.46737,3.273352 h 0.44078 v 0.874338 h -0.44078 z m 31.20883,0.433554 v 0.440784 h -0.43356 v 0.867112 h -0.44078 v 0.874338 h 0.87434 v 0.440784 h -0.43356 v 0.433555 h -0.44078 v 0.874338 h 1.31512 v 0.433558 h 0.87434 v 0.44078 h 0.43355 v 0.433558 h 1.3079 v 0.657559 h 2.18223 v -0.657733 h 2.8398 v -0.433558 h 0.87433 v -0.44078 h 0.86712 v -0.433558 h 0.44078 v -0.433555 h 0.43355 v -1.315121 h -0.43355 v -0.433555 h -0.44078 v -0.440784 h -0.43356 v -0.433558 h -0.43356 v -0.433554 h -1.74867 v 0.433554 h -2.39902 v -0.433554 h -1.74867 v 0.433554 h -0.43356 v 0.433558 h -0.44078 v -0.433558 h -0.43356 v -0.433554 h -0.43355 v -0.440784 z m 35.356514,3.056573 h 1.307893 v 0.874338 h -0.433555 v 0.433558 h -0.440783 v 0.44078 h -0.433555 v 0.433558 h -0.433558 v 0.657559 h -0.44078 v -1.965455 h 0.44078 v -0.433555 h 0.433558 z m 2.615789,7.637816 h 1.091117 v 0.440784 h -0.433558 v 0.433554 h -1.965455 v -0.433554 h 1.307896 z m -23.563783,7.8545956 h 0.86711 v 0.8743381 h -1.30789 v -0.4335545 h 0.44078 z m -48.23314,3.4973561 h 0.43356 v 0.4335544 h -0.43356 z m -0.87434,0.4333805 h 0.44078 v 0.4407837 H -150.85 Z m -14.84208,0.4407837 h 1.31512 v 0.4335544 h 0.43356 v 0.4335582 h 0.87434 v 0.4407799 h -1.3079 v -0.4407799 h -0.44078 v 0.4407799 h -1.74145 v -0.4407799 h 0.43356 v -0.4335582 h 0.43355 z m 69.181137,0 h 0.874338 v 0.8671126 h 0.440784 v 0.4407799 h -3.056572 v -0.4407799 h 0.874338 v -0.4335582 h 0.867112 z m -3.923687,1.7414507 h 0.87434 v 1.53189709 h -0.44078 v -0.44077993 h -0.43356 z m -61.10976,0.657559 h 1.74868 v 0.43355816 h 0.43356 v 0.44077993 h -0.43356 v -0.44077993 h -0.44078 v 1.30789255 h -0.43356 v -1.30789255 h -0.87434 z m 2.62302,0.43355816 h 0.43355 v 0.44077993 h -0.43355 z m -4.58847,0.87433809 h 0.44078 V 1.0308069 h -0.44078 v 1.3078963 h -0.86712 V 1.905145 h 0.43356 V 0.59002331 h 0.43356 z m 5.89636,0 h 0.87434 v 0.43355446 h -0.44078 V 1.4643614 h -0.43356 V 1.905145 h -0.44078 v 0.4335582 h -1.74145 V 1.905145 h 0.43356 V 1.4643614 h 1.74867 z m 1.74145,0 h 0.44079 v 0.43355446 h -0.44079 z m 68.74758,3.49012685 h 0.874342 v 0.4407837 h 0.657559 v 0.4335544 h 0.433554 V 4.954492 h 0.874342 v 0.4407799 h 0.433555 v 1.5246754 h 0.440783 v 1.7486762 h 0.433555 v 0.874338 h 0.433558 v 0.4335582 h 0.44078 v 0.4335543 h 1.307896 V 9.5429615 h 0.433555 V 9.1021816 h 0.440783 V 7.3607272 h 0.433555 V 6.9199473 h 0.440783 v 1.7486762 h 0.433558 v 0.4335581 h 0.433555 v 0.8743381 h 0.657559 v 0.4335543 h 0.874342 v 0.440784 h 1.748676 v -0.440784 h 0.433554 v 0.440784 h 2.182235 v 0.433554 h 0.433558 v 0.874342 h -0.433558 v 0.433555 h -0.433555 v 0.874338 h -0.440783 v 0.440783 h -0.433559 v 0.433555 h -5.022024 V 13.90743 h -2.182234 v -0.440783 h -3.056572 v 0.440783 h -0.433555 v 1.091117 h 0.433555 v 0.433555 h -1.307897 v -0.433555 h -1.091113 v -0.657562 h -0.433558 v -0.874338 h -0.440784 v -0.433555 h -1.307892 v -0.440783 h -1.307897 v -0.433555 h -0.44078 V 9.5429615 h -0.433558 V 9.1021816 h -4.147689 v 0.4407799 h -3.056573 v 0.4335582 h -0.874338 V 8.2278435 h 0.440784 V 7.7942854 h 0.433554 V 6.2696137 h 0.874338 V 5.8288301 h 1.307896 V 5.3952719 h 0.440784 V 4.0873794 h 0.433555 v 0.4335544 h 1.965455 V 4.0873794 h 0.874338 v 1.3078925 h -0.44078 v 2.8325716 h 1.315118 V 7.7942854 h 0.433558 V 4.5209338 h 0.433558 V 4.954492 h 0.874338 v 0.8743381 h 0.44078 v 0.4407836 h 0.867113 v 1.9582298 h -1.307893 v 0.8743381 h 0.44078 v 0.4407799 h 1.741451 v 0.4335582 h 0.440784 V 9.1021816 h 1.091117 V 8.6686235 h 0.867113 v -0.44078 h 0.440783 V 6.2696137 h -0.440783 V 5.3952719 h -0.867113 V 4.954492 h -0.657559 V 4.5209338 h -0.874342 z m -9.820051,3.2733516 v 0.8743381 h 1.307896 V 6.9199473 Z m -4.364469,2.6230142 h 1.74868 v 0.8671125 h -0.87434 v 0.440784 h -1.74867 v -0.440784 h -1.09112 V 9.9765197 h 1.96545 z m -82.71531,3.9236855 h 0.44078 v 0.440783 h -0.44078 z m 96.466276,0.440783 h 0.433554 v 0.433555 h -0.433554 z m -69.181136,1.524672 v 0.440784 h 1.74145 v -0.440784 z m 2.18223,0 v 1.748676 h 0.65034 v -0.44078 h 0.44078 v -1.307896 z m 77.46929,0.440784 h 0.440784 v 0.433554 h 0.433554 v 0.433558 h 0.440784 v 0.44078 h 0.433554 v 0.874342 h -0.874338 v -0.440784 h -0.874338 z m -78.34362,1.74145 v 0.874338 h 0.43355 v 0.874338 h 1.09112 v -1.748676 z m 0.43355,1.748676 h -0.87434 v -0.440783 h -1.30789 v -0.433555 h -1.3079 V 18.05512 h -1.74867 v 0.433554 h -0.86712 v 1.307897 h 1.3079 v -0.433559 h 0.43356 v 0.433559 h 1.30789 v 0.440779 h 0.44078 v 0.433559 h 0.87434 v 0.433554 h 1.3079 v 1.965455 h 0.87433 v -1.091117 h -0.44078 v -0.433554 h 1.09112 v 0.874338 h 1.31512 v 0.650333 h 1.74145 v -0.650333 h 1.3079 v -1.315122 h -0.86712 v -0.433554 h -0.87434 v -0.874338 h -1.74867 v 0.440779 h -0.87434 v -0.440779 h -1.09112 z m 1.5319,-1.748676 v 0.874338 h 1.74145 v -0.874338 z m 80.309081,0 h 0.874338 v 0.440784 h 0.433558 v 0.433554 h 0.44078 v 0.874338 h 0.433558 v 0.433559 h 0.44078 v 0.874338 h 0.433558 v 0.874338 h 0.657559 v 0.874338 h 0.433558 v 0.650333 h 0.433555 v 0.440784 h 0.440783 v 1.307893 h 0.433555 v 0.433558 h 0.440783 v 1.307896 h 0.433559 v 0.874338 h -0.433559 v -0.433558 h -0.874338 v -0.44078 h -0.440783 v -0.433558 h -0.433555 v -0.874338 h -1.091117 v -1.741451 h -0.433558 v -1.091117 h -0.44078 v -0.874338 h -0.433558 v -0.874338 h -0.44078 v -0.874338 h -0.433558 v -0.874342 h -0.433555 V 18.05512 h -0.440783 z m -44.735791,3.056573 v 0.874338 h -0.44078 v 1.524671 h 0.87434 v -0.650333 h 0.43356 v -0.874338 h 0.44078 v -0.874338 z m -31.20882,0.874338 v 1.524671 h 1.74145 v -0.650333 h 1.5319 v -0.874338 z m 3.7069,0.433554 v 0.440784 h 0.44079 v -0.440784 z m 0.87434,0 v 0.440784 h 0.43356 v -0.440784 z m 0,1.091117 v 0.440784 h -0.43355 v 2.182234 h 0.43355 v 0.433555 h 0.87434 v -3.056573 z m 6.76348,12.443069 h 0.44078 v 0.433555 h -0.44078 v 0.440783 h -0.65033 v -0.440783 h 0.65033 z"
         style="fill:url(#radialGradient112947);fill-opacity:1;fill-rule:evenodd;stroke:none;stroke-width:0.978262"
         id="path4002" /><path
         d="m -213.04731,17.615253 q 0,30.335298 21.38747,51.94102 21.60572,21.605723 52.15926,21.605723 30.33531,0 52.159275,-21.605723 21.387473,-21.605722 21.387473,-51.94102 0,-30.553544 -21.387473,-52.159264 -21.823965,-21.605719 -52.159275,-21.605719 -30.55354,0 -52.15926,21.605719 -21.38747,21.60572 -21.38747,52.159264"
         id="path4000-7"
         style="fill:url(#gradient1-6-7);fill-rule:evenodd;stroke:none;stroke-width:0.978261" /></g><path
       style="fill:url(#linearGradient1273);fill-opacity:1;stroke:none;stroke-width:0.214355px;stroke-linecap:butt;stroke-linejoin:miter;stroke-opacity:1"
       d="m 25.771551,10.08469 c -0.720632,0.312703 -1.65026,0.475461 -2.087466,0.487116 0.02137,0.518066 -0.121818,2.013056 -0.639961,2.488871 0.508639,0.112725 1.916443,-0.312926 2.193267,-0.599016 0.209763,-0.3781 0.556417,-1.404047 0.53416,-2.376971 z"
       id="path1240"
       sodipodi:nodetypes="ccccc" /><g
       id="g2"
       transform="matrix(0.21435599,0,0,0.21435599,15.559106,5.6026095)"><g
         id="g8"
         style="opacity:1"
         transform="translate(-47.654803)"><path
           style="fill:url(#linearGradient2);stroke:none;stroke-width:0.938085;stroke-linecap:butt;stroke-linejoin:round;stroke-miterlimit:4;stroke-dasharray:none;stroke-opacity:1"
           d="m 86.706461,26.567244 7.771395,-2.415003 7.948704,5.517391 -7.298966,3.188623 z"
           id="path1242"
           sodipodi:nodetypes="ccccc" /><path
           style="fill:url(#linearGradient1281);fill-opacity:1;stroke:none;stroke-width:0.938085;stroke-linecap:butt;stroke-linejoin:round;stroke-miterlimit:4;stroke-dasharray:none;stroke-opacity:1"
           d="m 93.987694,38.70441 1.199274,-5.852424 -8.480507,-6.284742 -0.650004,5.85655 z"
           id="path1244"
           sodipodi:nodetypes="ccccc" /><path
           style="fill:url(#linearGradient1297);fill-opacity:1;stroke:none;stroke-width:0.938085;stroke-linecap:butt;stroke-linejoin:round;stroke-miterlimit:4;stroke-dasharray:none;stroke-opacity:1"
           d="m 93.987694,38.70441 7.487376,-3.33605 0.95149,-5.698728 -7.499975,2.999992 z"
           id="path1248"
           sodipodi:nodetypes="ccccc" /><path
           id="path1329"
           style="fill:#7298d2;fill-opacity:1;stroke:none;stroke-width:0.999997px;stroke-linecap:butt;stroke-linejoin:miter;stroke-opacity:1"
           d="m 93.732074,24.383997 -0.850447,0.264281 3.306366,2.292696 -0.552733,0.20703 -3.315204,-2.325215 -0.684404,0.212682 3.456794,2.42217 -0.552731,0.207032 -3.507063,-2.441816 -0.888251,0.276029 3.660954,2.541004 -0.554686,0.207032 -3.665955,-2.574111 -1.349354,0.419319 4.690322,3.220711 5.053629,-1.996718 z"
           sodipodi:nodetypes="ccccccccccccccccc" /></g><g
         id="g7"
         style="opacity:1"
         transform="translate(-47.393134,-0.41001892)"><path
           style="fill:url(#linearGradient1321);fill-opacity:1;stroke:none;stroke-width:0.799997;stroke-linecap:butt;stroke-linejoin:miter;stroke-miterlimit:4;stroke-dasharray:none;stroke-opacity:1"
           d="m 97.426578,35.669617 c 3.378682,2.661649 4.499992,3.418851 4.499992,4.999986 0,2.999992 -7.030433,2.154787 -10.530425,2.654786 -2.665512,0.380788 -5.069142,1.918778 -6.557969,3.723538 l 4.986082,-0.01049 c 0.999997,-0.999997 4.602328,-1.367835 7.102321,-1.367835 3.999991,0 7.999981,-1.999996 7.999981,-4.999988 0,-2.999993 -3.78729,-5.687106 -4.72224,-6.300184 -2.286146,-1.499103 -3.609208,0.645185 -2.777742,1.300196 z"
           id="path1250"
           sodipodi:nodetypes="sssccsssss" /><path
           style="fill:url(#linearGradient1532);fill-opacity:1;stroke:none;stroke-width:0.999997px;stroke-linecap:butt;stroke-linejoin:miter;stroke-opacity:1"
           d="m 100.42427,34.78219 c 1.5023,0.887427 3.67022,3.642321 3.63474,5.856031 -0.0477,2.976098 -5.249541,4.191452 -7.759061,4.074304 -6.154259,-0.287289 -7.900956,1.373378 -8.772426,2.337638 l 2.296735,-0.01274 1.623487,-0.957112 7.987471,-0.52865 3.526024,-1.456129 2.04048,-2.492947 -1.08264,-4.008818 z"
           id="path1325"
           sodipodi:nodetypes="csscccccccc" /><path
           style="color:#000000;font-style:normal;font-variant:normal;font-weight:normal;font-stretch:normal;font-size:medium;line-height:normal;font-family:sans-serif;font-variant-ligatures:normal;font-variant-position:normal;font-variant-caps:normal;font-variant-numeric:normal;font-variant-alternates:normal;font-variant-east-asian:normal;font-feature-settings:normal;font-variation-settings:normal;text-indent:0;text-align:start;text-decoration:none;text-decoration-line:none;text-decoration-style:solid;text-decoration-color:#000000;letter-spacing:normal;word-spacing:normal;text-transform:none;writing-mode:lr-tb;direction:ltr;text-orientation:mixed;dominant-baseline:auto;baseline-shift:baseline;text-anchor:start;white-space:normal;shape-padding:0;shape-margin:0;inline-size:0;clip-rule:nonzero;display:inline;overflow:visible;visibility:visible;isolation:auto;mix-blend-mode:normal;color-interpolation:sRGB;color-interpolation-filters:linearRGB;solid-color:#000000;solid-opacity:1;vector-effect:none;fill:#7298d2;fill-opacity:1;fill-rule:nonzero;stroke:none;stroke-width:0.938085;stroke-linecap:round;stroke-linejoin:miter;stroke-miterlimit:4;stroke-dasharray:none;stroke-dashoffset:0;stroke-opacity:1;color-rendering:auto;image-rendering:auto;shape-rendering:auto;text-rendering:auto;enable-background:accumulate;stop-color:#000000"
           d="m 97.090796,33.823815 c -0.30532,0.313375 -0.554707,0.645581 -0.607191,1.041055 -0.05248,0.395474 -0.0066,1.304954 0.370486,1.545929 1.755979,1.122048 3.010067,1.821415 3.637079,2.528495 0.62702,0.707078 0.80397,1.237627 0.80397,1.933333 0,0.566801 -0.1079,0.681385 -0.72855,0.986105 -0.620655,0.304722 -1.568447,0.498508 -2.640932,0.609024 -2.144969,0.22103 -4.765761,0.131005 -6.595911,0.392455 -2.777897,0.396844 -5.877322,2.072474 -6.980732,4.201175 l 0.956504,-0.01437 c 1.408368,-1.707225 3.603749,-2.89352 6.156879,-3.258253 1.669841,-0.23855 4.314389,-0.156328 6.559634,-0.387692 1.122621,-0.115683 2.150968,-0.30409 2.957898,-0.700267 0.80693,-0.396176 1.2533,-0.894985 1.2533,-1.828183 0,-0.885427 -0.30252,-1.723895 -1.04033,-2.555914 -0.7378,-0.83202 -1.782489,-1.476056 -3.589848,-2.580182 -0.243668,-0.148858 -0.308092,-0.616208 -0.119962,-0.9965 0.42758,-0.864324 1.318872,-0.61923 2.485461,0.03469 0.453499,0.254202 1.620199,1.078002 2.633239,2.160528 1.01305,1.082524 1.99409,2.447691 1.99409,3.754207 0,1.291533 -0.87456,2.53682 -2.28499,3.359571 -1.41043,0.822751 -3.462332,1.15163 -5.384153,1.15163 -1.259899,0 -2.780327,-0.0083 -4.120246,0.207773 -1.864425,0.300712 -2.669261,0.354776 -3.831626,1.637713 l 1.329989,-0.0017 c 0.315368,-0.315367 1.340999,-0.545011 2.618532,-0.705258 1.277533,-0.160246 2.763257,-0.200443 4.003351,-0.200443 2.078168,0 4.267293,-0.352273 5.856863,-1.279517 1.58956,-0.927245 2.75037,-2.46131 2.75037,-4.169769 0,-1.693476 -1.15166,-3.224327 -2.2473,-4.39511 -1.09564,-1.170783 -2.29031,-1.997755 -2.84651,-2.330554 -1.18318,-0.712133 -2.58918,-0.92021 -3.349364,-0.139971 z"
           id="path1536"
           sodipodi:nodetypes="sscsssssccsssssssssssssccsssssss" /></g></g></g></svg>
