<?xml version="1.0" encoding="UTF-8" standalone="no"?>
<svg
   height="16"
   width="16"
   id="svg2"
   version="1.1"
   inkscape:version="1.3.2 (1:1.3.2+202311252150+091e20ef0f)"
   sodipodi:docname="device-settings.svg"
   inkscape:export-filename="/media/klapeto/Αρχεία/WindowsXP Theme/Vectors/RASTER/smartphonetrusted.png"
   inkscape:export-xdpi="96"
   inkscape:export-ydpi="96"
   xml:space="preserve"
   xmlns:inkscape="http://www.inkscape.org/namespaces/inkscape"
   xmlns:sodipodi="http://sodipodi.sourceforge.net/DTD/sodipodi-0.dtd"
   xmlns:xlink="http://www.w3.org/1999/xlink"
   xmlns="http://www.w3.org/2000/svg"
   xmlns:svg="http://www.w3.org/2000/svg"
   xmlns:rdf="http://www.w3.org/1999/02/22-rdf-syntax-ns#"
   xmlns:cc="http://creativecommons.org/ns#"
   xmlns:dc="http://purl.org/dc/elements/1.1/"><metadata
     id="metadata341"><rdf:RDF><cc:Work
         rdf:about=""><dc:format>image/svg+xml</dc:format><dc:type
           rdf:resource="http://purl.org/dc/dcmitype/StillImage" /></cc:Work></rdf:RDF></metadata><sodipodi:namedview
     pagecolor="#ffffff"
     bordercolor="#666666"
     borderopacity="1"
     objecttolerance="10"
     gridtolerance="10"
     guidetolerance="10"
     inkscape:pageopacity="0"
     inkscape:pageshadow="2"
     inkscape:window-width="3840"
     inkscape:window-height="2058"
     id="namedview339"
     showgrid="false"
     inkscape:zoom="29.283018"
     inkscape:cx="16.374678"
     inkscape:cy="21.189756"
     inkscape:window-x="0"
     inkscape:window-y="0"
     inkscape:window-maximized="1"
     inkscape:current-layer="svg2"
     fit-margin-top="0"
     fit-margin-left="0"
     fit-margin-right="0"
     fit-margin-bottom="0"
     inkscape:pagecheckerboard="0"
     height="256px"
     inkscape:showpageshadow="2"
     inkscape:deskcolor="#d1d1d1"
     showguides="false"><inkscape:grid
       type="xygrid"
       id="grid982"
       originx="0"
       originy="0"
       spacingy="1"
       spacingx="1"
       units="px"
       visible="false" /><inkscape:grid
       type="xygrid"
       id="grid984"
       spacingx="0.5"
       spacingy="0.5"
       originx="0"
       originy="0"
       units="px"
       visible="false" /></sodipodi:namedview><defs
     id="defs98"><linearGradient
       gradientTransform="matrix(-0.01501331,-6.4557372e-5,-1.8290428e-4,0.02610517,105.71248,21.273825)"
       gradientUnits="userSpaceOnUse"
       id="gradient29"
       spreadMethod="pad"
       x1="-819.20001"
       x2="819.20001"><stop
         offset="0.0"
         stop-color="#6666cc"
         id="stop264" /><stop
         offset="0.4823529411764706"
         stop-color="#000000"
         id="stop266" /><stop
         offset="1.0"
         stop-color="#666666"
         id="stop268" /></linearGradient><linearGradient
       gradientTransform="matrix(0.03121272,0.03236926,0.03469573,-0.0341524,139.63357,117.98351)"
       gradientUnits="userSpaceOnUse"
       id="gradient30"
       spreadMethod="pad"
       x1="-819.20001"
       x2="819.20001"><stop
         offset="0.0"
         stop-color="#333333"
         id="stop271" /><stop
         offset="0.5882352941176471"
         stop-color="#333333"
         id="stop273" /><stop
         offset="1.0"
         stop-color="#333333"
         id="stop275" /></linearGradient><linearGradient
       gradientTransform="matrix(0.02942144,0.02995942,0.03256561,-0.03168874,138.31836,115.76997)"
       gradientUnits="userSpaceOnUse"
       id="gradient31"
       spreadMethod="pad"
       x1="-819.20001"
       x2="819.20001"><stop
         offset="0.0"
         stop-color="#009900"
         id="stop278" /><stop
         offset="0.5882352941176471"
         stop-color="#66cc33"
         id="stop280" /><stop
         offset="1.0"
         stop-color="#99ff66"
         id="stop282" /></linearGradient><linearGradient
       gradientTransform="matrix(0.01337283,0.01373635,0.01448742,-0.01414478,10.249151,28.26042)"
       gradientUnits="userSpaceOnUse"
       id="gradient32"
       spreadMethod="pad"
       x1="-819.20001"
       x2="819.20001"><stop
         offset="0.0"
         stop-color="#666666"
         id="stop285" /><stop
         offset="0.5882352941176471"
         stop-color="#dddddd"
         id="stop287" /><stop
         offset="1.0"
         stop-color="#ccccff"
         id="stop289" /></linearGradient><linearGradient
       gradientTransform="matrix(-0.0226598,-4.330351e-4,1.3716686e-4,0.00506988,105.15168,46.944636)"
       gradientUnits="userSpaceOnUse"
       id="gradient33"
       spreadMethod="pad"
       x1="-819.20001"
       x2="819.20001"><stop
         offset="0.0"
         stop-color="#333333"
         id="stop292" /><stop
         offset="0.3686274509803922"
         stop-color="#333333"
         id="stop294" /><stop
         offset="1.0"
         stop-color="#999999"
         id="stop296" /></linearGradient><linearGradient
       gradientTransform="matrix(-0.06309781,-0.06445879,-0.06078751,0.05959863,96.017786,150.12815)"
       gradientUnits="userSpaceOnUse"
       id="gradient34"
       spreadMethod="pad"
       x1="-819.20001"
       x2="819.20001"><stop
         offset="0.0"
         stop-color="#999999"
         id="stop299" /><stop
         offset="1.0"
         stop-color="#dddddd"
         id="stop301" /></linearGradient><linearGradient
       gradientTransform="matrix(0.00229691,-1.6675366e-4,-1.6675366e-4,-0.00229691,151.89404,205.7597)"
       gradientUnits="userSpaceOnUse"
       id="gradient35"
       spreadMethod="pad"
       x1="-819.20001"
       x2="819.20001"><stop
         offset="0.0"
         stop-color="#dddddd"
         id="stop304" /><stop
         offset="1.0"
         stop-color="#999999"
         id="stop306" /></linearGradient><linearGradient
       gradientTransform="matrix(-5.3790032e-5,-0.00392143,-0.01033606,7.5039113e-4,150.9877,75.596883)"
       gradientUnits="userSpaceOnUse"
       id="gradient36"
       spreadMethod="pad"
       x1="-819.20001"
       x2="819.20001"><stop
         offset="0.0"
         stop-color="#333333"
         id="stop309" /><stop
         offset="0.6235294117647059"
         stop-color="#999999"
         id="stop311" /><stop
         offset="1.0"
         stop-color="#333333"
         id="stop313" /></linearGradient><linearGradient
       gradientTransform="matrix(-0.00198761,-0.00193382,-0.00193382,0.00198761,145.04909,76.489829)"
       gradientUnits="userSpaceOnUse"
       id="gradient37"
       spreadMethod="pad"
       x1="-819.20001"
       x2="819.20001"><stop
         offset="0.0"
         stop-color="#999999"
         id="stop316" /><stop
         offset="1.0"
         stop-color="#cccccc"
         id="stop318" /></linearGradient><linearGradient
       gradientTransform="matrix(-5.2984779e-4,-0.00411777,-0.01033606,7.5039113e-4,125.77816,76.618918)"
       gradientUnits="userSpaceOnUse"
       id="gradient38"
       spreadMethod="pad"
       x1="-819.20001"
       x2="819.20001"><stop
         offset="0.0"
         stop-color="#333333"
         id="stop321" /><stop
         offset="0.6235294117647059"
         stop-color="#999999"
         id="stop323" /><stop
         offset="1.0"
         stop-color="#333333"
         id="stop325" /></linearGradient><linearGradient
       gradientTransform="matrix(-0.00198761,-0.00193382,-0.00193382,0.00198761,119.97939,77.848058)"
       gradientUnits="userSpaceOnUse"
       id="gradient39"
       spreadMethod="pad"
       x1="-819.20001"
       x2="819.20001"><stop
         offset="0.0"
         stop-color="#999999"
         id="stop328" /><stop
         offset="1.0"
         stop-color="#cccccc"
         id="stop330" /></linearGradient><linearGradient
       gradientTransform="matrix(0.01920367,0.0196179,0.0254193,-0.02516651,127.80071,115.60994)"
       gradientUnits="userSpaceOnUse"
       id="gradient40"
       spreadMethod="pad"
       x1="-819.20001"
       x2="819.20001"><stop
         offset="0.0"
         stop-color="#ccffcc"
         id="stop333" /><stop
         offset="0.23529411764705882"
         stop-color="#99ff66"
         id="stop335" /><stop
         offset="1.0"
         stop-color="#66cc33"
         id="stop337" /></linearGradient><linearGradient
       gradientTransform="matrix(0.0688643,0.07073627,0.07460396,-0.07283951,135.51444,145.52896)"
       gradientUnits="userSpaceOnUse"
       id="gradient32-3"
       spreadMethod="pad"
       x1="-819.20001"
       x2="819.20001"><stop
         offset="0.0"
         stop-color="#666666"
         id="stop285-6" /><stop
         offset="0.5882352941176471"
         stop-color="#dddddd"
         id="stop287-7" /><stop
         offset="1.0"
         stop-color="#ccccff"
         id="stop289-5" /></linearGradient><filter
       inkscape:collect="always"
       style="color-interpolation-filters:sRGB"
       id="filter26"
       x="-0.27241301"
       y="-0.10065886"
       width="1.544826"
       height="1.2013177"><feGaussianBlur
         inkscape:collect="always"
         stdDeviation="0.62913954"
         id="feGaussianBlur26" /></filter><linearGradient
       id="linearGradient1068"
       inkscape:collect="always"><stop
         id="stop1064"
         offset="0"
         style="stop-color:#ccccff;stop-opacity:1" /><stop
         id="stop1066"
         offset="1"
         style="stop-color:#6666cc;stop-opacity:1" /></linearGradient><linearGradient
       gradientTransform="translate(109.97268,-2.0157549)"
       gradientUnits="userSpaceOnUse"
       y2="3.6782823"
       x2="-67.432755"
       y1="48.839687"
       x1="-67.432755"
       id="linearGradient1070"
       xlink:href="#linearGradient1068"
       inkscape:collect="always" /><filter
       inkscape:collect="always"
       style="color-interpolation-filters:sRGB"
       id="filter3"
       x="-0.15554809"
       y="-0.1393425"
       width="1.3110962"
       height="1.278685"><feGaussianBlur
         inkscape:collect="always"
         stdDeviation="0.81261865"
         id="feGaussianBlur3" /></filter></defs><path
     id="path1"
     style="opacity:0.75;fill:#000000;fill-opacity:1;stroke:none;stroke-width:0.0612245px;stroke-linecap:butt;stroke-linejoin:miter;stroke-opacity:1;filter:url(#filter26)"
     d="m 4.2079602,0.50029226 c -0.3240597,0.008893 -0.5249865,0.0982783 -0.6054688,0.26757812 l -0.054687,0.42187502 -0.013672,-0.00586 -0.00781,0.1835938 v 0.2050781 l -0.015625,-0.00586 -0.00781,0.1835938 0.015625,0.00586 -0.044922,1.2265625 c -0.2858687,0.086725 -0.4739951,0.2531068 -0.5644531,0.5 -0.066416,0.1886003 -0.083297,2.1430845 -0.048828,5.8632812 0.030463,3.7299102 0.094504,5.6278982 0.1933593,5.6914052 0.5800182,0.330161 1.0918908,0.483552 1.5332031,0.460938 L 6.4560071,15.14287 c 1.0056378,-0.233225 1.5625898,-0.440759 1.6718748,-0.623047 0.125313,-0.22115 0.20632,-1.920789 0.24414,-5.0996088 l 0.0039,-0.4238281 -0.0078,-0.021484 0.01758,-3.2675782 c -0.0089,-1.356486 -0.05585,-2.085131 -0.138672,-2.1875 L 8.1864759,3.4612298 8.0009289,3.3323235 7.6396009,3.2170892 7.4892099,3.2073235 7.1630379,3.1741204 6.8349133,3.1409173 5.4267102,3.1233392 C 5.4199039,3.0295879 5.2699114,2.9682563 4.9755383,2.9377923 L 4.9032727,1.7483392 4.8349133,0.71318288 4.2743664,0.50029226 c -0.022687,-1.2007e-4 -0.044802,-5.9286e-4 -0.066406,0 z" /><g
     id="g4663"
     transform="matrix(0.06122449,0,0,0.06122449,-2.7228485,0)"><path
       style="fill:#000000;fill-opacity:1;stroke:none;stroke-width:1px;stroke-linecap:butt;stroke-linejoin:miter;stroke-opacity:1"
       d="m 96.588549,37.789481 -9.074292,7.595167 -3.184039,8.435515 0.431271,104.148947 1.96753,77.44125 17.743791,7.28944 h 10.45081 l 28.20374,-4.89988 24.72196,-8.78671 2.75363,-42.18046 0.29394,-92.167327 -2.40764,-45.966853 -33.69723,-2.151076 -12.56802,-2.75216 -6.47775,-4.133627 z"
       id="path1218"
       sodipodi:nodetypes="cccccccccccccccc" /><rect
       style="fill:#83e950;fill-opacity:1;fill-rule:evenodd;stroke:none;stroke-width:5;stroke-linecap:round;stroke-linejoin:round;stop-color:#000000"
       id="rect1511"
       width="42.864441"
       height="58.782917"
       x="118.07281"
       y="86.34684" /><path
       style="fill:#333333;fill-rule:evenodd;stroke:none;stroke-width:5.14957"
       inkscape:connector-curvature="0"
       id="path76"
       d="m 173.12167,138.75793 -0.13986,-0.33622 0.28245,-53.358813 c -0.14614,-22.155961 -0.89564,-34.069959 -2.24848,-35.741988 l -0.99381,-0.966914 -3.03789,-2.088469 -5.90903,-1.880025 -2.43677,-0.169472 -5.3496,-0.535231 -5.3496,-0.535236 -22.99601,-0.293165 c -0.11117,-1.531272 -2.5708,-2.545698 -7.3789,-3.043276 l 0.0268,1.960713 c -2.4278,0.484122 -5.71448,0.799698 -9.86004,0.946728 l -4.73369,-0.0027 -9.886932,-1.013981 -0.08337,-1.148457 c -4.669137,1.416516 -7.742448,4.14107 -9.219931,8.173663 -1.084801,3.080475 -1.345706,35.00235 -0.782714,95.765623 0.497562,60.92195 1.553661,91.90158 3.168298,92.93886 9.47364,5.39263 17.814509,7.90427 25.022619,7.53491 l 30.52015,-5.79472 c 16.42543,-3.80934 25.53065,-7.20271 27.31564,-10.18009 2.04678,-3.61211 3.37903,-31.37857 3.99677,-83.29935 l 0.0739,-6.93243"
       sodipodi:nodetypes="ccccccccccccccccccccccccc" /><path
       inkscape:connector-curvature="0"
       style="fill:url(#gradient32-3);fill-rule:evenodd;stroke:none;stroke-width:5.14957"
       id="path74-3"
       d="m 151.1706,49.491703 -12.57653,0.104896 c -16.10617,0.784458 -24.90204,2.077251 -26.38759,3.87838 -1.48555,1.801127 -2.10552,33.017877 -1.8599,93.650251 0.18017,60.79106 0.93279,91.8312 2.25787,93.12041 1.25963,1.4479 9.97615,0.12238 26.14956,-3.97655 16.26666,-3.87481 25.17549,-6.79213 26.72648,-8.75194 1.93382,-1.98761 3.08453,-30.66449 3.45214,-86.03064 l 0.0713,-2.19874 0.0592,-5.54594 -0.0619,-39.017918 c -0.24563,-27.767351 -1.14305,-42.249011 -2.69226,-43.44498 l -1.19015,-0.490805 -0.95211,-0.392706 -0.47603,-0.196302 -7.31031,-0.508314 -5.20974,-0.19903 m 4.20248,22.900529 5.06988,-0.137184 c 2.54705,3.278613 2.43812,6.01886 -0.32679,8.22074 l -16.35811,0.494873 c -2.0154,-2.316636 -2.55107,-4.394346 -1.60702,-6.23313 l 1.69579,-2.085781 11.52625,-0.259538 m -26.93265,1.147107 6.65271,-0.598446 c 2.77117,3.185375 2.74157,5.958346 -0.0888,8.318911 l -16.07839,1.167273 c -2.17408,-2.382084 -2.7891,-4.492518 -1.84505,-6.331301 l 1.93382,-1.987605 9.42567,-0.568873 m 11.4119,77.67812 c 3.48302,-0.79163 5.44373,-0.81853 5.88214,-0.0807 0.82122,0.71005 1.24483,2.83439 1.27083,6.373 0.0915,3.37991 -0.18513,5.40114 -0.82974,6.06367 l -5.61721,2.13958 c -3.19345,0.53971 -5.34557,0.58047 -6.45637,0.1223 l -0.75308,-5.60242 0.88622,-6.87595 5.61721,-2.13957 m -22.52265,4.63685 5.71539,-2.3776 c 3.48303,-0.79163 5.68177,-0.72036 6.59623,0.21381 0.82122,0.71005 1.13276,2.881 0.93463,6.51285 0.25013,3.44537 -0.0264,5.4666 -0.82974,6.06369 l -5.95342,2.27942 -6.55453,0.36042 -0.79478,-6.17665 0.88622,-6.87594 m 11.92296,16.33659 c 0.82122,0.71005 1.32417,2.8671 1.50886,6.47115 0.0257,3.53861 -0.31629,5.71853 -1.02608,6.53975 l -5.85525,2.0414 c -3.32433,0.85708 -5.58852,0.94448 -6.79256,0.26221 l -0.55656,-6.07846 0.74637,-7.21214 c 0.55137,-0.88667 2.50311,-1.56714 5.85524,-2.0414 3.48302,-0.79163 5.52308,-0.7858 6.12017,0.0175 m -11.83153,19.90835 c 0.39269,-0.95211 2.26509,-1.6653 5.61722,-2.13956 3.64171,-0.72619 5.87317,-0.73426 6.69439,-0.0242 0.82122,0.71005 1.13276,2.881 0.93463,6.51285 0.18466,3.60406 -0.15737,5.78398 -1.02608,6.53975 l -5.85524,2.0414 c -3.10021,0.76384 -5.28505,0.88398 -6.55454,0.36041 l -0.55674,-6.07847 0.74636,-7.21214 m 45.20131,-37.3396 c 0.15689,3.22124 -0.15242,5.32181 -0.92791,6.30172 l -5.28102,1.99971 c -3.19345,0.53971 -5.34557,0.58047 -6.45637,0.1223 l -0.51504,-5.50425 0.88623,-6.87594 c 0.48592,-0.72798 2.24626,-1.39455 5.28101,-1.99971 3.25889,-0.69839 5.29895,-0.69256 6.12017,0.0175 l 0.89294,5.93856 m -16.9404,14.73762 c 0.59709,0.80329 0.94135,2.89489 1.03279,6.27481 -0.0672,3.31448 -0.42314,5.30299 -1.06776,5.96552 l -5.47736,2.47576 c -2.96931,0.44648 -5.12144,0.48725 -6.45637,0.12231 l 0.13317,-12.47837 5.71539,-2.37759 c 3.32433,-0.85708 5.36439,-0.85125 6.12017,0.0175 m 4.69198,-0.57155 5.14116,-2.33591 c 3.35213,-0.47426 5.35947,-0.38909 6.022,0.25552 l 1.13097,6.03679 c 0.0915,3.37993 -0.26446,5.36843 -1.06777,5.96552 l -5.37919,2.23774 -6.12016,-0.0175 -0.51504,-5.50426 0.78805,-6.63791 m -0.27571,16.87585 5.37919,-2.23774 c 3.25889,-0.69839 5.2196,-0.72529 5.88214,-0.0807 0.75577,0.86874 1.17938,2.99307 1.27083,6.37299 -0.002,3.15579 -0.3252,5.06495 -0.96961,5.72748 l -5.61721,2.13957 c -2.87607,0.67061 -4.8695,0.77684 -5.9803,0.31871 l -0.65492,-5.84046 0.68988,-6.39988 m -3.51933,7.18256 c -0.0672,3.31447 -0.42314,5.30298 -1.06777,5.96551 l -5.61722,2.13957 c -3.03475,0.60516 -5.2196,0.7253 -6.55453,0.36042 -0.46261,-7.43225 -0.3855,-11.67105 0.23131,-12.7164 l 5.85525,-2.0414 c 3.32433,-0.85708 5.28504,-0.88398 5.88213,-0.0807 0.75578,0.86874 1.17939,2.99307 1.27083,6.37299 m 14.92455,8.38347 c 0.82122,0.71005 1.24483,2.83438 1.27083,6.37298 -0.002,3.15579 -0.3252,5.06496 -0.96961,5.72749 l -5.61721,2.13957 -6.21833,0.22056 0.035,-12.24034 5.61722,-2.13956 c 3.41758,-0.63295 5.37829,-0.65985 5.88214,-0.0807 m -16.04477,15.94256 -5.51905,1.90154 -6.21834,0.22055 -0.6549,-5.84044 0.78805,-6.63792 c 0.55137,-0.88667 2.42377,-1.59985 5.61721,-2.13956 3.25889,-0.6984 5.26623,-0.61323 6.022,0.25552 0.72799,0.48592 1.02563,2.46546 0.89294,5.93862 0.25013,3.44537 -0.0592,5.54594 -0.92791,6.30172 m -16.0098,3.70221 -5.71538,2.37759 c -3.25889,0.6984 -5.49036,0.70647 -6.6944,0.0242 l -0.5568,-6.07849 0.74637,-7.21214 5.61722,-2.13956 c 3.6417,-0.72619 5.87316,-0.73426 6.69439,-0.0242 0.75577,0.86873 1.11394,3.15175 1.07449,6.84904 0.0915,3.37992 -0.2972,5.44777 -1.16595,6.20354"
       sodipodi:nodetypes="ccscccccccccccccccccccccccccccccccccccccccccccccccccccccccccsccccccccccccccccccccccccccccccccccccccccccccccccccccccccccccccccccccccccccc" /><path
       inkscape:connector-curvature="0"
       style="fill:url(#gradient29);fill-rule:evenodd;stroke:none;stroke-width:5.14957"
       id="path68"
       d="M 116.38478,20.383575 115.27398,3.4929352 106.13072,4.9543491e-4 Q 97.237585,-0.04657161 95.134315,4.3778015 l -0.88622,6.8759425 8.458765,0.424958 12.91274,-0.244744 0.0688,2.534939 -12.43668,0.441086 -9.369193,-0.24341 0.01236,3.347195 q 6.06321,0.829744 10.558863,0.734265 4.39748,0.142551 11.62442,-0.497566 l 0.3066,2.633111 -11.62442,0.497567 Q 99.592303,21.256342 93.766643,20.524769 L 93.027,40.551472 l 0.08337,1.148457 9.88693,1.013981 1.38649,0.01493 3.3472,-0.01236 q 6.21833,-0.220556 9.86004,-0.946733 l -0.0268,-1.960714 -1.17937,-19.425581" /><path
       style="fill:#999999;fill-rule:evenodd;stroke:none;stroke-width:5.14957"
       inkscape:connector-curvature="0"
       id="path78"
       d="m 116.38478,20.383575 -0.3066,-2.633111 q -7.22694,0.640119 -11.62442,0.497567 -4.495653,0.09548 -10.559342,-0.734264 l -0.238013,-0.09817 -0.127761,3.010998 0.238013,0.09817 q 5.82566,0.731572 10.993713,0.356376 l 11.62442,-0.497567 m -22.502474,-6.217003 9.369194,0.24341 12.43667,-0.441086 -0.0687,-2.534938 -12.91274,0.244743 -8.458764,-0.424958 -0.238013,-0.09817 -0.127761,3.010999" /><path
       inkscape:connector-curvature="0"
       style="fill:url(#gradient33);fill-rule:evenodd;stroke:none;stroke-width:5.14957"
       id="path80"
       d="m 107.73101,42.716598 -3.3472,0.01236 -1.38648,-0.01493 q -14.537252,0.131778 -16.515448,6.278843 -0.112981,1.624514 14.088088,1.632588 13.62682,0.04995 22.05869,-1.485985 l 1.3031,-1.133667 q 0.0149,-1.386485 -1.79126,-2.409874 l -14.40949,-2.879217" /><path
       inkscape:connector-curvature="0"
       style="fill:url(#gradient35);fill-rule:evenodd;stroke:none;stroke-width:5.14957"
       id="path84"
       d="m 138.70161,156.03451 q 0.21113,-1.86254 -1.74958,-1.83565 -1.86254,-0.21108 -2.07368,1.65141 0.0268,1.96071 1.98761,1.93382 1.96072,-0.0268 1.83565,-1.74958 m -18.33361,1.90826 q -1.86254,-0.21108 -1.83565,1.74958 -0.21113,1.86254 1.74958,1.83564 2.19875,0.0713 2.07368,-1.6514 -0.0268,-1.96072 -1.98761,-1.93382 m -1.94458,20.92234 q 0.12503,1.72268 2.08577,1.69578 1.96072,-0.0268 1.73748,-1.51154 0.21108,-1.86255 -1.74958,-1.83565 -1.86254,-0.21113 -2.07367,1.65141 m 1.36361,15.60232 q -1.62451,-0.11298 -1.83564,1.74958 0.0268,1.96071 1.9876,1.93382 1.96072,-0.0268 1.83565,-1.74958 0.21118,-1.86254 -1.98761,-1.93382 m 30.94647,-41.26909 q 0.12503,1.72268 1.98761,1.93382 2.29691,-0.16675 2.17184,-1.88944 -0.0268,-1.96071 -1.98761,-1.93381 -2.19873,-0.0713 -2.17184,1.88943 m 1.96474,17.52135 q -2.19874,-0.0713 -2.17185,1.88944 0.0268,1.96071 1.98761,1.93381 2.19874,0.0713 2.17184,-1.88943 -0.0268,-1.96071 -1.9876,-1.93382 m -17.97051,3.72911 q 0.0268,1.96072 1.98761,1.93382 1.96071,-0.0268 1.83564,-1.74957 0.21114,-1.86255 -1.74958,-1.83566 -2.10057,-0.30928 -2.07367,1.65141 m 17.4151,12.47434 -2.17184,1.88944 q 0.12503,1.72268 1.9876,1.93382 1.96071,-0.0268 1.93382,-1.98761 0.21113,-1.86255 -1.74958,-1.83565 m -0.36176,20.46107 q 1.96072,-0.0268 2.07368,-1.65141 -0.0268,-1.96071 -1.98761,-1.93381 -1.96071,0.0268 -1.93381,1.9876 l 1.84774,1.59762 M 134.53542,192.4731 q 0.0268,1.96072 1.98761,1.93382 1.96071,-0.0268 1.83564,-1.74958 0.21108,-1.86254 -1.74958,-1.83564 -2.10057,-0.30929 -2.07367,1.6514 m -14.2683,19.73892 q -1.72268,0.12503 -1.93381,1.9876 0.12503,1.72269 1.98761,1.93382 2.2969,-0.16674 2.17184,-1.88944 -0.0268,-1.96071 -2.22564,-2.03198 m 15.98021,-0.92925 q 1.96071,-0.0268 1.83565,-1.74958 0.21118,-1.86254 -1.74958,-1.83565 -1.86254,-0.21113 -2.07367,1.65141 0.0268,1.96071 1.9876,1.93382" /><path
       inkscape:connector-curvature="0"
       style="fill:url(#gradient36);fill-rule:evenodd;stroke:none;stroke-width:5.14957"
       id="path86"
       d="m 143.82939,78.771994 14.06119,-0.328131 c 2.34443,-1.632583 2.35027,-3.672636 0.0175,-6.120164 l -2.53494,0.0688 -11.52624,0.259539 -1.6958,2.085781 0.26495,2.058879"
       sodipodi:nodetypes="ccccccc" /><path
       inkscape:connector-curvature="0"
       style="fill:url(#gradient37);fill-rule:evenodd;stroke:none;stroke-width:5.14957"
       id="path88"
       d="m 142.41597,76.796434 1.03549,1.541142 1.28832,0.252792 q 2.3386,0.407486 2.40988,-1.791267 0.16947,-2.43677 -2.3655,-2.368193 -2.24043,-0.645499 -2.40987,1.791272 l 0.0417,0.574223" /><path
       inkscape:connector-curvature="0"
       style="fill:url(#gradient38);fill-rule:evenodd;stroke:none;stroke-width:5.14957"
       id="path90"
       d="m 117.08136,76.095784 0.26494,2.05889 1.41335,1.97558 14.01951,-0.902354 c 2.34443,-1.632583 2.31752,-3.593291 -0.0807,-5.882135 l -4.25762,0.193675 -9.42567,0.568878 -1.93382,1.987605"
       sodipodi:nodetypes="cccccccc" /><path
       inkscape:connector-curvature="0"
       style="fill:url(#gradient39);fill-rule:evenodd;stroke:none;stroke-width:5.14957"
       id="path92"
       d="m 117.34628,78.154674 1.03549,1.541132 1.28832,0.252792 q 2.53493,-0.06875 2.50804,-2.029296 0.16948,-2.43677 -2.36549,-2.368188 -2.43677,-0.169473 -2.50805,2.029295 l 0.0417,0.574229" /><path
       inkscape:connector-curvature="0"
       style="fill:url(#gradient34);fill-rule:evenodd;stroke:none;stroke-width:5.14957"
       id="path82"
       d="m 108.59167,56.161866 q 0.40749,-2.338599 -3.89184,-2.719178 l -8.893135,-0.04686 q -7.982712,-0.228589 -9.440472,1.955333 l -0.840528,74.295949 q 0.293113,75.59906 3.427836,104.46511 l 18.958929,6.70495 -1.06503,-97.36324 1.74424,-87.292063 m -15.634602,8.870271 q 0.184251,-3.823251 2.621006,-3.653809 3.109165,-0.110253 2.924929,3.712983 0.151964,3.683398 -2.85904,3.555643 -2.772965,-0.02935 -2.686895,-3.614817" /><path
       inkscape:connector-curvature="0"
       style="fill:url(#gradient30);fill-rule:evenodd;stroke:none;stroke-width:5.14957"
       id="path70"
       d="m 142.3688,85.689584 -25.93842,2.114011 0.14656,62.448295 49.23164,-7.2686 -0.0386,-5.30791 0.32679,-8.22074 -0.19228,-31.273239 -0.81898,-12.871037 -22.7163,0.379215"
       sodipodi:nodetypes="ccccccccc" /><path
       inkscape:connector-curvature="0"
       style="fill:url(#gradient31);fill-rule:evenodd;stroke:none;stroke-width:5.14957"
       id="path72"
       d="m 140.88424,85.912807 -23.97771,2.087115 0.38725,57.812788 45.45008,-6.87861 -0.0386,-5.30792 0.14527,-9.13116 -0.0433,-22.85616 -0.69122,-15.882038 -12.00231,0.06319 -4.39748,-0.14254 -4.83185,0.235335"
       sodipodi:nodetypes="ccccccccccc" /><path
       inkscape:connector-curvature="0"
       style="fill:url(#gradient40);fill-rule:evenodd;stroke:none;stroke-width:5.14957"
       id="path94"
       d="m 131.69388,140.61104 q -4.23475,-15.39388 3.64307,-27.7418 8.21402,-12.48777 12.78633,-24.249351 l -29.14576,2.462302 -0.0299,52.070509 12.74598,-2.54166" /></g><g
     inkscape:label="Layer 1"
     id="layer1"
     transform="matrix(0.61069986,0,0,0.61069986,-0.91752987,6.3996573)"><path
       id="path2"
       style="opacity:0.75;fill:#000000;fill-opacity:1;stroke:none;stroke-width:0.29786px;stroke-linecap:butt;stroke-linejoin:miter;stroke-opacity:1;filter:url(#filter3)"
       d="m 20.315714,0.50143124 c -0.328651,0.015065 -0.652254,0.2305682 -0.716797,0.3535157 C 19.404337,1.2256052 19.589817,1.9905923 19.358683,2.3354156 19.204367,2.1378817 19.041381,1.9273827 18.862589,1.8393219 l -0.002,-0.00195 C 18.715731,1.7047778 18.478048,1.5890627 18.077433,1.5326812 17.444045,1.4435402 16.777476,2.006267 16.835245,2.4252593 c 0.07568,0.548909 0.644167,1.3080623 0.423828,1.546875 C 17.04297,4.2063546 16.053541,3.84708 15.75712,3.8178375 c -0.439513,-0.043359 -1.297065,1.1763339 -0.884765,1.5800781 0.383655,0.375696 1.045626,0.740822 0.982421,1.0351563 -0.13241,0.6166211 -1.013017,0.4816826 -1.394531,0.7578124 -0.189144,0.1368978 -0.232286,1.3773605 0.138672,1.6484376 0.291879,0.2132904 0.549838,0.2803937 0.759766,0.3007812 0.157913,0.069322 0.364368,0.1022886 0.568359,0.1308594 0.02623,0.4642674 -0.628703,0.6821934 -0.945312,1.2519535 -0.223108,0.401495 0.780104,2.144705 1.683593,1.646484 0.128763,-0.01913 0.240847,-0.06158 0.339844,-0.115234 -0.05763,0.26507 -0.160762,0.581151 -0.166016,0.964843 -0.0044,0.319157 0.859168,0.858312 1.478516,0.980469 0.0014,2.81e-4 0.0025,0.0017 0.0039,0.002 0.237576,0.07441 0.479892,0.08177 0.646485,-0.0293 0.193944,-0.129297 0.309945,-0.348675 0.404297,-0.550781 0.03345,0.23357 0.08065,0.47788 0.21875,0.667969 0.08955,0.123267 0.441053,0.257806 0.787109,0.33789 0.106473,0.05015 0.278133,0.0709 0.462891,0.06836 0.07589,0.0025 0.146159,9.69e-4 0.195312,-0.01172 0.274243,-0.02647 0.530551,-0.095 0.585938,-0.189453 0.242049,-0.412769 0.197084,-1.156785 0.40039,-1.466797 0.09541,0.118169 0.203586,0.23924 0.351563,0.337891 0.251349,0.167566 0.523977,0.289812 0.783203,0.316406 0.470331,0.162824 1.302348,-0.580736 1.296875,-0.980469 -0.0096,-0.699153 -0.558054,-1.162274 -0.351563,-1.509765 0.127592,-0.214716 0.461064,0.06568 1.085938,0.113281 0.643932,0.04906 1.290337,-1.0396 1.060547,-1.4531251 -0.317965,-0.5721909 -1.072048,-0.6230859 -1.00586,-1.0878907 0.06639,-0.4662532 0.912203,-0.4171528 1.322266,-0.6425781 0.402618,-0.2213343 0.329811,-1.6239559 0.123047,-1.7324219 -0.01678,-0.0088 -0.03478,-0.016222 -0.05273,-0.023437 -0.138655,-0.1361397 -0.32149,-0.2026026 -0.408202,-0.2480903 -0.215307,-0.1129477 -0.590318,-0.088954 -0.927734,-0.09375 -3.48e-4,-0.0015 -0.0016,-0.00239 -0.002,-0.00391 C 25.226722,5.4945214 26.002908,5.0634072 26.333292,4.6401031 26.580007,4.3240004 26.03999,3.3150924 25.690714,3.1440093 25.491276,2.9557746 25.25852,2.8269503 25.053995,2.8451812 24.896893,2.859185 24.53956,3.0594491 24.208292,3.2104156 24.267879,2.8698123 24.464953,2.4242207 24.522745,2.1322906 24.570771,1.8896923 24.341906,1.5770611 24.020792,1.3920562 23.628627,1.1122283 22.95468,0.88170714 22.561808,0.98775944 22.25534,1.0704874 22.090841,1.5401178 21.91923,1.8861969 21.884264,1.5141092 21.895019,1.0887609 21.774698,0.90963444 21.741517,0.86023604 21.694225,0.82026054 21.63798,0.78658754 21.436998,0.60672884 20.6261,0.48720379 20.315714,0.50143124 Z m 0.912109,3.62499996 c 0.185083,0 0.360093,0.017982 0.525391,0.052734 1.015518,0.6050776 1.490234,1.9460343 1.490234,3.1289063 0,1.3893083 -1.443873,3.5156255 -3.246093,3.5156255 -0.162167,0 -0.315944,-0.01862 -0.462891,-0.04883 -1.077109,-0.646692 -1.576266,-2.1056377 -1.587891,-2.8593733 -0.02346,-1.5209968 1.247206,-3.7890625 3.28125,-3.7890625 z" /><g
       transform="matrix(0.29785955,0,0,0.29785955,7.5652616,-0.11899971)"
       id="g1076"><path
         d="m 41.130068,0.40334362 c -1.103376,0.050577 -2.193323,0.77431798 -2.410011,1.18708858 -0.734923,1.39996 0.150902,4.4838714 -1.163866,5.3393462 -1.207191,0.7854777 0.808468,-2.3942924 -3.939453,-3.0625 -2.126465,-0.299272 -4.36872,1.5899662 -4.174774,2.9966468 0.254083,1.8428484 2.164747,4.3936658 1.425003,5.1954308 -0.725517,0.786346 -4.049264,-0.41917 -5.044433,-0.517346 -1.475579,-0.14557 -4.35563,3.950249 -2.971421,5.305737 1.288047,1.261322 3.514932,2.482537 3.302735,3.470703 -0.444546,2.070179 -3.404696,1.619826 -4.685547,2.546875 -0.63501,0.459606 -0.778614,4.621165 0.466797,5.53125 2.578141,1.883978 4.389164,0.418606 4.458984,1.433594 0.108173,1.572512 -2.108282,2.299674 -3.175781,4.220703 -0.771479,1.388325 2.826423,7.555592 5.92569,5.357207 1.140638,-0.809083 0.129913,-3.024839 0.750091,-2.07791 0.743521,1.135257 -0.407313,2.754298 -0.439453,5.101562 -0.01952,1.42561 5.123566,4.164383 6.623566,3.164383 1.5,-1 -0.211132,-4.513683 0.815887,-4.265945 1.387507,0.334695 0.642292,3.105329 1.798828,4.697266 0.558275,0.768449 4.168356,1.689558 5.010056,1.268214 1.752303,-0.877179 0.0067,-6.546801 1.394242,-6.881496 1.027019,-0.247738 1.441406,1.507813 2.941406,2.507813 1.5,1 3.241544,1.550672 4.514413,0.591197 1.874572,-1.413032 -1.756492,-7.645267 -1.063241,-8.8119 0.42836,-0.720863 1.546649,0.22298 3.644531,0.382812 2.161872,0.164708 4.332026,-3.492534 3.560547,-4.880859 -1.067499,-1.921029 -3.599165,-2.089905 -3.376953,-3.650391 0.222904,-1.565349 6.054775,-2.090576 6.858932,-3.44017 2.025678,-3.399637 -0.504648,-4.157018 -1.198815,-4.52117 -1.462186,-0.767048 -5.12707,0.33815 -5.476524,-1.253504 -0.239758,-1.092024 3.950344,-3.161957 5.05954,-4.583113 C 61.467023,11.594084 58.895822,8.1092905 57.033563,8.275289 56.037512,8.364075 52.638669,10.717534 51.974161,9.8789971 51.279766,9.0027461 53.643266,6.8430349 54.54283,4.9881017 55.162448,3.7104322 50.742687,1.4775559 48.669474,2.0372002 46.919581,2.5095672 46.548946,6.774022 45.093302,6.2813409 43.672478,5.8004453 46.401742,2.5664489 45.666488,1.4718463 45.22089,0.80846698 42.233445,0.35276682 41.130068,0.40334362 Z m 0.70542,11.25104438 c 6.260402,0 9.123048,6.280897 9.123048,11.603515 0,4.664316 -4.847855,11.800782 -10.898438,11.800782 -6.341987,0 -9.187212,-7.372269 -9.238282,-10.683594 -0.07876,-5.106433 4.184789,-12.720703 11.013672,-12.720703 z"
         style="opacity:1;fill:#9999cc;fill-opacity:1;stroke:none;stroke-width:1px;stroke-linecap:butt;stroke-linejoin:miter;stroke-opacity:1"
         id="path1072"
         sodipodi:nodetypes="sssssssssssssssssssssssssssssssssssssssssss" /><path
         id="path1057"
         style="opacity:1;fill:url(#linearGradient1070);fill-opacity:1;stroke:none;stroke-width:1px;stroke-linecap:butt;stroke-linejoin:miter;stroke-opacity:1"
         d="m 43.315005,0.94550139 c -1.103377,0.050577 -1.962944,0.10604431 -2.365235,0.78320311 -0.80757,1.3593491 -0.256312,5.6699978 -1.041016,6.1230469 -1.247283,0.720119 -2.40573,-2.6781909 -3.939453,-3.0625 -2.083023,-0.5219485 -4.66681,1.7790236 -4.380859,3.1699218 0.282838,1.3757573 1.852335,4.0226068 1.083984,4.8847658 -0.941331,1.056259 -3.837356,-0.490345 -4.837356,-0.490345 -1.118034,0 -3.537373,4.255342 -2.631394,5.416126 1.109196,1.421156 3.463517,2.677298 3.203675,3.611221 -0.567551,2.03989 -3.305636,1.479308 -4.586487,2.406357 -0.63501,0.459606 -0.884916,4.788166 0.466797,5.53125 1.376698,0.756819 4.389164,0.418606 4.458984,1.433594 0.108173,1.572512 -2.108282,2.299674 -3.175781,4.220703 -0.771479,1.388325 0.916253,4.801427 3.078125,4.636719 2.097882,-0.159832 2.977478,-2.304351 3.597656,-1.357422 0.743521,1.135257 -0.407313,2.754298 -0.439453,5.101562 -0.01952,1.42561 3.298828,3.275391 4.798828,2.275391 1.5,-1 1.613606,-3.624691 2.640625,-3.376953 1.387507,0.334695 0.642292,3.105329 1.798828,4.697266 0.558275,0.768449 4.07212,0.444754 4.472657,-0.238282 0.991258,-1.69039 0.544134,-5.040305 1.931641,-5.375 1.027019,-0.247738 1.441406,1.507813 2.941406,2.507813 1.5,1 4.654286,-1.722828 4.634766,-3.148438 -0.03214,-2.347264 -1.876845,-3.905632 -1.183594,-5.072265 0.42836,-0.720863 1.546649,0.22298 3.644531,0.382812 2.161872,0.164708 4.332026,-3.492534 3.560547,-4.880859 -1.067499,-1.921029 -3.599165,-2.089905 -3.376953,-3.650391 0.222904,-1.565349 3.066661,-1.403337 4.443359,-2.160156 1.351712,-0.743084 1.106275,-5.448348 0.412109,-5.8125 -1.462186,-0.767048 -4.322421,0.349466 -4.671875,-1.242188 -0.239758,-1.092024 2.36932,-2.535875 3.478516,-3.957031 0.905979,-1.160784 -1.356575,-5.1132809 -2.474609,-5.1132809 -1,0 -3.866742,2.4498649 -4.53125,1.6113279 C 53.632329,9.9247191 54.967931,7.3264699 55.254458,5.8790951 55.530212,4.4861394 53.09525,2.3995289 51.022037,2.9591732 49.272144,3.4315402 48.901509,7.695995 47.445865,7.2033139 46.025041,6.7224183 46.761197,2.8721352 46.025943,1.7775326 45.580345,1.1141533 44.418382,0.89492459 43.315005,0.94550139 Z M 44.188052,12.576361 c 6.260401,0 9.123047,6.280897 9.123047,11.603515 0,4.664316 -4.847855,11.800782 -10.898438,11.800782 -6.341987,0 -9.187212,-7.372269 -9.238282,-10.683594 -0.07876,-5.106433 4.184789,-12.720703 11.013673,-12.720703 z"
         sodipodi:nodetypes="sssssssssssssssssssssssssssssssssssssssssss" /></g></g></svg>
