<?xml version="1.0" encoding="UTF-8" standalone="no"?>
<svg
   height="16"
   width="16"
   version="1.1"
   id="svg19"
   sodipodi:docname="down-right.svg"
   inkscape:version="1.2.2 (b0a8486541, 2022-12-01)"
   inkscape:export-filename="generalise.png"
   inkscape:export-xdpi="96"
   inkscape:export-ydpi="96"
   xmlns:inkscape="http://www.inkscape.org/namespaces/inkscape"
   xmlns:sodipodi="http://sodipodi.sourceforge.net/DTD/sodipodi-0.dtd"
   xmlns:xlink="http://www.w3.org/1999/xlink"
   xmlns="http://www.w3.org/2000/svg"
   xmlns:svg="http://www.w3.org/2000/svg"
   xmlns:rdf="http://www.w3.org/1999/02/22-rdf-syntax-ns#"
   xmlns:cc="http://creativecommons.org/ns#"
   xmlns:dc="http://purl.org/dc/elements/1.1/">
  <metadata
     id="metadata23">
    <rdf:RDF>
      <cc:Work
         rdf:about="">
        <dc:format>image/svg+xml</dc:format>
        <dc:type
           rdf:resource="http://purl.org/dc/dcmitype/StillImage" />
      </cc:Work>
    </rdf:RDF>
  </metadata>
  <sodipodi:namedview
     inkscape:bbox-nodes="true"
     inkscape:bbox-paths="false"
     inkscape:snap-bbox="true"
     inkscape:document-rotation="0"
     pagecolor="#ffffff"
     bordercolor="#666666"
     borderopacity="1"
     objecttolerance="10"
     gridtolerance="10"
     guidetolerance="10"
     inkscape:pageopacity="0"
     inkscape:pageshadow="2"
     inkscape:window-width="3840"
     inkscape:window-height="2061"
     id="namedview21"
     showgrid="false"
     inkscape:zoom="64.000003"
     inkscape:cx="3.4062499"
     inkscape:cy="8.3046871"
     inkscape:window-x="1280"
     inkscape:window-y="0"
     inkscape:window-maximized="1"
     inkscape:current-layer="svg19"
     showguides="false"
     inkscape:snap-grids="true"
     inkscape:snap-to-guides="true"
     inkscape:object-nodes="true"
     inkscape:snap-intersection-paths="false"
     inkscape:snap-others="true"
     inkscape:snap-nodes="true"
     inkscape:pagecheckerboard="0"
     inkscape:showpageshadow="2"
     inkscape:deskcolor="#d1d1d1">
    <inkscape:grid
       id="grid881"
       type="xygrid"
       originx="0"
       originy="0"
       spacingy="1"
       spacingx="1"
       units="px"
       visible="false" />
    <inkscape:grid
       spacingy="0.5"
       spacingx="0.5"
       id="grid883"
       type="xygrid"
       originx="0"
       originy="0"
       units="px"
       visible="false" />
  </sodipodi:namedview>
  <defs
     id="defs17">
    <linearGradient
       inkscape:collect="always"
       id="linearGradient893">
      <stop
         style="stop-color:#0066cc;stop-opacity:1"
         offset="0"
         id="stop889" />
      <stop
         style="stop-color:#99ccff;stop-opacity:1"
         offset="1"
         id="stop891" />
    </linearGradient>
    <linearGradient
       inkscape:collect="always"
       xlink:href="#linearGradient893"
       id="linearGradient2524"
       x1="103"
       y1="121.19001"
       x2="73.063965"
       y2="72.675407"
       gradientUnits="userSpaceOnUse"
       gradientTransform="matrix(-0.04465205,0.04465205,-0.04465205,-0.04465205,19.504042,8.0731171)" />
    <filter
       inkscape:collect="always"
       style="color-interpolation-filters:sRGB"
       id="filter884"
       x="-0.14700112"
       y="-0.14699889"
       width="1.2940022"
       height="1.2939978">
      <feGaussianBlur
         inkscape:collect="always"
         stdDeviation="0.70939404"
         id="feGaussianBlur886" />
    </filter>
  </defs>
  <path
     id="path875"
     style="color:#000000;opacity:0.75;fill:#000000;fill-opacity:1;fill-rule:evenodd;stroke-width:0.500003;stroke-linejoin:round;-inkscape-stroke:none;filter:url(#filter884)"
     d="m 4.5374944,2.7085457 c -0.4682116,0 -0.9363155,0.178503 -1.2929688,0.5351562 -0.7133067,0.7133066 -0.7133064,1.872631 0,2.5859375 l 4.8046875,4.8046876 h -2.53125 c -1.0087687,0 -1.8300781,0.819356 -1.8300781,1.828125 -3e-7,1.008769 0.8213089,1.828125 1.8300781,1.828125 h 6.9453129 c 0.50444,0 0.964446,-0.202729 1.294921,-0.533204 0.330475,-0.330475 0.533204,-0.790547 0.533204,-1.294921 V 5.5171394 c -2e-6,-1.0087691 -0.819357,-1.830078 -1.828125,-1.8300781 -1.00877,1e-7 -1.828125,0.8213093 -1.828125,1.8300781 v 2.53125 L 5.8304631,3.2437019 C 5.4738099,2.8870488 5.0057059,2.7085457 4.5374944,2.7085457 Z" />
  <path
     id="rect1475"
     style="fill:url(#linearGradient2524);fill-opacity:1;fill-rule:evenodd;stroke:#003399;stroke-width:0.500003;stroke-linejoin:round;stroke-dasharray:none;stroke-opacity:1;stop-color:#000000"
     d="m 13.080319,13.080145 c 0.285348,-0.285348 0.461346,-0.679877 0.461346,-1.117174 l 10e-7,-6.9463583 c -10e-7,-0.8745939 -0.704101,-1.578694 -1.578694,-1.5786941 -0.874594,10e-8 -1.578695,0.7041009 -1.578695,1.5786941 l 8.7e-5,3.1351494 -5.2316707,-5.2316707 c -0.6184308,-0.6184307 -1.6141714,-0.6184307 -2.2326022,10e-8 -0.618431,0.6184309 -0.618431,1.6141715 -3e-7,2.2326023 l 5.2314959,5.2314962 -3.1348875,10e-7 c -0.8745933,0 -1.5786932,0.7041 -1.5786932,1.578693 -3e-7,0.874594 0.7040996,1.578694 1.5786935,1.578694 l 6.9462715,8.7e-5 c 0.437297,0 0.832,-0.176172 1.117348,-0.46152 z"
     sodipodi:nodetypes="sccsccssscssccs" />
</svg>
