<?xml version="1.0" encoding="UTF-8" standalone="no"?>
<svg
   width="16"
   height="16"
   viewBox="0 0 16 16"
   version="1.1"
   id="svg8"
   inkscape:version="1.2.2 (b0a8486541, 2022-12-01)"
   sodipodi:docname="draw-path-disabled.svg"
   inkscape:export-filename="draw-path.png"
   inkscape:export-xdpi="96"
   inkscape:export-ydpi="96"
   xml:space="preserve"
   xmlns:inkscape="http://www.inkscape.org/namespaces/inkscape"
   xmlns:sodipodi="http://sodipodi.sourceforge.net/DTD/sodipodi-0.dtd"
   xmlns:xlink="http://www.w3.org/1999/xlink"
   xmlns="http://www.w3.org/2000/svg"
   xmlns:svg="http://www.w3.org/2000/svg"
   xmlns:rdf="http://www.w3.org/1999/02/22-rdf-syntax-ns#"
   xmlns:cc="http://creativecommons.org/ns#"
   xmlns:dc="http://purl.org/dc/elements/1.1/"><defs
     id="defs2"><linearGradient
       inkscape:collect="always"
       xlink:href="#linearGradient3"
       id="linearGradient2957"
       x1="24.479174"
       y1="17.558094"
       x2="21.758028"
       y2="11.328145"
       gradientUnits="userSpaceOnUse"
       gradientTransform="translate(1,3)" /><linearGradient
       inkscape:collect="always"
       id="linearGradient3"><stop
         style="stop-color:#0066cc;stop-opacity:1"
         offset="0"
         id="stop2" /><stop
         style="stop-color:#deffff;stop-opacity:1"
         offset="1"
         id="stop3" /></linearGradient><radialGradient
       inkscape:collect="always"
       xlink:href="#linearGradient15964"
       id="radialGradient15966"
       cx="31.567709"
       cy="8.7382793"
       fx="31.567709"
       fy="8.7382793"
       r="3.0544956"
       gradientTransform="matrix(1.6590264,0,0,1.9510234,-19.803953,-5.5485885)"
       gradientUnits="userSpaceOnUse" /><linearGradient
       inkscape:collect="always"
       id="linearGradient15964"><stop
         style="stop-color:#deffff;stop-opacity:1"
         offset="0"
         id="stop15960" /><stop
         style="stop-color:#0066cc;stop-opacity:1"
         offset="1"
         id="stop15962" /></linearGradient><linearGradient
       inkscape:collect="always"
       xlink:href="#linearGradient3"
       id="linearGradient61354"
       gradientUnits="userSpaceOnUse"
       x1="16.718599"
       y1="19.727787"
       x2="14.77217"
       y2="15.75722"
       gradientTransform="translate(1,3)" /><linearGradient
       inkscape:collect="always"
       xlink:href="#linearGradient3"
       id="linearGradient34222"
       x1="9.5537748"
       y1="22.036865"
       x2="9.6436214"
       y2="18.750189"
       gradientUnits="userSpaceOnUse"
       gradientTransform="translate(1,3)" /><filter
       inkscape:collect="always"
       style="color-interpolation-filters:sRGB"
       id="filter913"
       x="-0.14539697"
       y="-0.14863877"
       width="1.2907939"
       height="1.2972775"><feGaussianBlur
         inkscape:collect="always"
         stdDeviation="0.70432712"
         id="feGaussianBlur915" /></filter><filter
       id="filter963"
       x="-0.10875862"
       y="-0.10725574"
       width="1.2175173"
       height="1.2145115"
       color-interpolation-filters="sRGB"><feGaussianBlur
         stdDeviation="10.814775"
         id="feGaussianBlur1" /></filter><filter
       inkscape:collect="always"
       style="color-interpolation-filters:sRGB"
       id="filter6"
       x="-0.14802936"
       y="-0.14598486"
       width="1.2960587"
       height="1.2919697"><feGaussianBlur
         inkscape:collect="always"
         stdDeviation="0.85157836"
         id="feGaussianBlur6" /></filter></defs><sodipodi:namedview
     showguides="false"
     id="base"
     pagecolor="#ffffff"
     bordercolor="#666666"
     borderopacity="1.0"
     inkscape:pageopacity="0.0"
     inkscape:pageshadow="2"
     inkscape:zoom="31.951974"
     inkscape:cx="-5.3048366"
     inkscape:cy="8.7788003"
     inkscape:document-units="px"
     inkscape:current-layer="layer1"
     inkscape:document-rotation="0"
     showgrid="true"
     units="px"
     inkscape:window-width="3840"
     inkscape:window-height="2061"
     inkscape:window-x="1280"
     inkscape:window-y="0"
     inkscape:window-maximized="1"
     inkscape:snap-bbox="true"
     inkscape:bbox-nodes="true"
     fit-margin-top="0"
     fit-margin-left="0"
     fit-margin-right="0"
     fit-margin-bottom="0"
     inkscape:bbox-paths="false"
     inkscape:snap-global="true"
     inkscape:pagecheckerboard="0"
     inkscape:showpageshadow="2"
     inkscape:deskcolor="#d1d1d1"><inkscape:grid
       type="xygrid"
       id="grid1504"
       originx="0"
       originy="0"
       spacingy="1"
       spacingx="1"
       units="px"
       visible="true" /><inkscape:grid
       spacingy="0.5"
       spacingx="0.5"
       id="grid908"
       type="xygrid"
       originx="0"
       originy="0"
       units="px"
       visible="true" /></sodipodi:namedview><metadata
     id="metadata5"><rdf:RDF><cc:Work
         rdf:about=""><dc:format>image/svg+xml</dc:format><dc:type
           rdf:resource="http://purl.org/dc/dcmitype/StillImage" /></cc:Work></rdf:RDF></metadata><g
     inkscape:label="Layer 1"
     inkscape:groupmode="layer"
     id="layer1"
     transform="translate(-12.567709)"><path
       style="fill:none;stroke:#000000;stroke-width:1;stroke-linecap:round;stroke-linejoin:round;stroke-miterlimit:4;stroke-dasharray:none;stroke-opacity:1"
       d="M 26.734354,13.5 H 15.067709 l 2e-6,-10.0000019"
       id="path894-3"
       sodipodi:nodetypes="ccc" /><rect
       style="fill:#ffffff;fill-opacity:1;fill-rule:evenodd;stroke:#000000;stroke-width:1;stroke-linecap:round;stroke-linejoin:round;stroke-miterlimit:4;stroke-dasharray:none;stop-color:#000000"
       id="rect998"
       width="1.9999963"
       height="1.9999963"
       x="14.067713"
       y="1.5000019" /><rect
       style="fill:#ffffff;fill-opacity:1;fill-rule:evenodd;stroke:#000000;stroke-width:1;stroke-linecap:round;stroke-linejoin:round;stroke-miterlimit:4;stroke-dasharray:none;stop-color:#000000"
       id="rect998-3"
       width="1.9999963"
       height="1.9999963"
       x="25.067711"
       y="12.5" /><path
       id="path352"
       style="color:#000000;fill:#000000;fill-opacity:1;stroke-width:0.276636;stroke-linecap:round;stroke-linejoin:round;-inkscape-stroke:none;filter:url(#filter913);opacity:0.75"
       d="m 26.083604,1.6758876 c -0.307936,-0.011397 -0.617083,0.086312 -0.873047,0.3300782 L 24.446885,2.7325283 23.814073,2.6055752 C 23.615074,2.5655365 23.350915,2.5880117 23.15587,2.7794033 l -1.705078,1.671875 c -0.18254,0.1791628 -0.251093,0.4374148 -0.171875,0.6503906 l 0.195312,0.5253906 -0.166016,0.7070313 -3.376953,3.6152344 a 0.13833183,0.13833183 0 0 0 -0.02539,0.037109 l -1.310547,2.8671878 a 0.13833183,0.13833183 0 0 0 0.173828,0.185546 l 2.923828,-1.08789 a 0.13833183,0.13833183 0 0 0 0.04883,-0.0293 l 3.117188,-3.0507811 1.226562,-0.4550782 a 0.13833183,0.13833183 0 0 0 0.04883,-0.03125 L 27.954698,4.5860439 C 28.228442,4.3137553 28.259964,3.9142351 28.151963,3.5274502 28.043962,3.1406651 27.801206,2.7479085 27.487901,2.4200283 27.174597,2.0921479 26.791401,1.8285078 26.388292,1.7227626 26.287514,1.6963264 26.186249,1.6796865 26.083604,1.6758876 Z" /><g
       id="g184386"
       transform="matrix(0.41781883,-0.15541225,0.15541225,0.41781883,9.7227287,2.6990046)"
       style="stroke-width:0.620557;stroke-dasharray:none"><path
         style="fill:#0083d7;fill-opacity:1;stroke:#003399;stroke-width:0.620557;stroke-linecap:round;stroke-linejoin:round;stroke-miterlimit:4;stroke-dasharray:none;stroke-opacity:1"
         d="m 22.067709,15.5 v -2.85523 c 0,-0.337622 0.280848,-0.763633 0.688776,-0.945724 l 4.892358,-2.1838607 c 0.441437,-0.1970493 0.90522,-0.072453 1.228298,0.1277023 L 31.067709,11"
         id="path62389"
         sodipodi:nodetypes="cssssc" /><path
         style="fill:url(#linearGradient2957);fill-opacity:1;stroke:none;stroke-width:0.620557;stroke-linecap:round;stroke-linejoin:round;stroke-dasharray:none;stroke-opacity:1"
         d="m 11.067709,20.5 10,-5 1,-1.5 10.5,-4.5 c 3.5,-1.5 6.154152,5.793567 3.5,7 l -11,5 h -3 l -9,4 h -7 z"
         id="path980"
         sodipodi:nodetypes="cccssccccc" /><path
         style="fill:url(#radialGradient15966);fill-opacity:1;stroke:none;stroke-width:0.620557;stroke-linecap:butt;stroke-linejoin:miter;stroke-dasharray:none;stroke-opacity:1"
         d="m 36.067709,16.5 1,-2 -0.5,-2.5 -1,-2 L 34.092689,9.3741103 32.567709,9.5 c -1.277849,0.564304 -1.704408,1.615134 -1.591651,2.742278 0.241893,2.418029 2.965812,5.187267 5.091651,4.257722 z"
         id="path2529"
         sodipodi:nodetypes="ccccccsc" /><path
         style="fill:url(#linearGradient61354);stroke:none;stroke-width:0.620557;stroke-linecap:round;stroke-linejoin:round;stroke-dasharray:none;stroke-opacity:1"
         d="m 11.067709,20.5 10,-5 c 0.427555,2.151345 1.272042,4.134827 2.410384,6 h -1.410384 l -9,4 h -7 z"
         id="path61120"
         sodipodi:nodetypes="ccccccc" /><path
         style="fill:url(#linearGradient34222);stroke:none;stroke-width:0.620557;stroke-linecap:butt;stroke-linejoin:miter;stroke-dasharray:none;stroke-opacity:1"
         d="m 11.067709,20.5 c 0.10876,1.695466 0.805472,3.360582 2,5 h -7 z"
         id="path2378"
         sodipodi:nodetypes="cccc" /><path
         style="fill:none;fill-opacity:1;stroke:#003399;stroke-width:0.620557;stroke-linecap:round;stroke-linejoin:round;stroke-miterlimit:4;stroke-dasharray:none;stroke-opacity:1"
         d="m 11.067709,20.5 10,-5 1,-1.5 10.5,-4.5 c 3.5,-1.5 6.154152,5.793567 3.5,7 l -11,5 h -3 l -9,4 h -7 z"
         id="path26207"
         sodipodi:nodetypes="cccssccccc" /></g><g
       id="g176"
       transform="matrix(0.57548604,0,0,0.57548604,19.687919,7.1530438)"><path
         id="circle5"
         style="opacity:0.75;fill-rule:evenodd;stroke-width:0.312784;filter:url(#filter6)"
         d="M 7.2246093,0.5 A 6.7248594,6.7248594 0 0 0 0.5,7.2246094 6.7248594,6.7248594 0 0 0 1.7773437,11.140625 6.7248594,6.7248594 0 0 0 7.5800781,14.5 6.7248594,6.7248594 0 0 0 14.30664,7.7753906 6.7248594,6.7248594 0 0 0 13.037109,3.8476562 6.7248594,6.7248594 0 0 0 7.2246093,0.5 Z" /><g
         transform="matrix(0.31278416,0,0,0.31278416,27.937216,-0.31278416)"
         id="g3"
         style="fill-rule:evenodd"><circle
           cx="-67.309998"
           cy="22.757"
           r="18.249001"
           fill="#ffffff"
           id="circle1" /><path
           d="m -66.692,2.7593 a 21.5,21.5 0 0 0 -21.5,21.5 21.5,21.5 0 0 0 21.5,21.5 21.5,21.5 0 0 0 21.5,-21.5 21.5,21.5 0 0 0 -21.5,-21.5 z m 0,5.5 a 16,16 0 0 1 16,16 16,16 0 0 1 -2.0996,7.9219 l -22.107,-21.656 a 16,16 0 0 1 8.207,-2.2656 z m -12.713,6.2871 22.426,22.426 a 16,16 0 0 1 -9.7129,3.2871 16,16 0 0 1 -16,-16 16,16 0 0 1 3.2871,-9.7129 z"
           fill="#a21907"
           id="path2" /><path
           d="m -67.833,1 a 21.5,21.5 0 0 0 -21.5,21.5 21.5,21.5 0 0 0 21.5,21.5 21.5,21.5 0 0 0 21.5,-21.5 21.5,21.5 0 0 0 -21.5,-21.5 z m 0,5.5 a 16,16 0 0 1 16,16 16,16 0 0 1 -2.0996,7.9219 l -22.107,-21.656 a 16,16 0 0 1 8.207,-2.2656 z m -12.713,6.2871 22.426,22.426 a 16,16 0 0 1 -9.7129,3.2871 16,16 0 0 1 -16,-16 16,16 0 0 1 3.2871,-9.7129 z"
           fill="#f52e14"
           id="path3" /></g></g></g></svg>
