<?xml version="1.0" encoding="UTF-8" standalone="no"?>
<svg
   inkscape:export-ydpi="96"
   inkscape:export-xdpi="96"
   inkscape:export-filename="/home/klapeto/Folder-closed.png"
   width="16"
   height="16"
   viewBox="0 0 16 16"
   version="1.1"
   id="svg8"
   inkscape:version="1.3.2 (1:1.3.2+202311252150+091e20ef0f)"
   sodipodi:docname="edit-folder.svg"
   xml:space="preserve"
   xmlns:inkscape="http://www.inkscape.org/namespaces/inkscape"
   xmlns:sodipodi="http://sodipodi.sourceforge.net/DTD/sodipodi-0.dtd"
   xmlns:xlink="http://www.w3.org/1999/xlink"
   xmlns="http://www.w3.org/2000/svg"
   xmlns:svg="http://www.w3.org/2000/svg"
   xmlns:rdf="http://www.w3.org/1999/02/22-rdf-syntax-ns#"
   xmlns:cc="http://creativecommons.org/ns#"
   xmlns:dc="http://purl.org/dc/elements/1.1/"><defs
     id="defs2"><linearGradient
       inkscape:collect="always"
       id="linearGradient99492"><stop
         style="stop-color:#d3a03a;stop-opacity:1"
         offset="0"
         id="stop99488" /><stop
         style="stop-color:#f8c55f;stop-opacity:1"
         offset="1"
         id="stop99490" /></linearGradient><linearGradient
       inkscape:collect="always"
       id="linearGradient70027"><stop
         style="stop-color:#ffd46e;stop-opacity:1"
         offset="0"
         id="stop70023" /><stop
         style="stop-color:#ffff99;stop-opacity:1"
         offset="1"
         id="stop70025" /></linearGradient><linearGradient
       inkscape:collect="always"
       id="linearGradient52099"><stop
         style="stop-color:#9a6701;stop-opacity:1"
         offset="0"
         id="stop52095" /><stop
         style="stop-color:#c5922c;stop-opacity:1"
         offset="1"
         id="stop52097" /></linearGradient><linearGradient
       inkscape:collect="always"
       id="linearGradient38451"><stop
         style="stop-color:#b07d17;stop-opacity:1"
         offset="0"
         id="stop38447" /><stop
         style="stop-color:#cc9933;stop-opacity:1"
         offset="1"
         id="stop38449" /></linearGradient><linearGradient
       inkscape:collect="always"
       id="linearGradient17863"><stop
         style="stop-color:#ffcc66;stop-opacity:1"
         offset="0"
         id="stop17859" /><stop
         style="stop-color:#ffd46e;stop-opacity:1"
         offset="0.5"
         id="stop30484" /><stop
         style="stop-color:#ffff99;stop-opacity:1"
         offset="1"
         id="stop17861" /></linearGradient><linearGradient
       inkscape:collect="always"
       xlink:href="#linearGradient17863"
       id="linearGradient17865"
       x1="-3.932291"
       y1="12.5"
       x2="-3.932291"
       y2="4.5"
       gradientUnits="userSpaceOnUse" /><linearGradient
       inkscape:collect="always"
       xlink:href="#linearGradient38451"
       id="linearGradient38453"
       x1="-2.4017735"
       y1="7.0517826"
       x2="-4.4417763"
       y2="4.0086713"
       gradientUnits="userSpaceOnUse" /><linearGradient
       inkscape:collect="always"
       xlink:href="#linearGradient52099"
       id="linearGradient52101"
       x1="0.067708999"
       y1="15"
       x2="-3.9678185"
       y2="11.01023"
       gradientUnits="userSpaceOnUse"
       gradientTransform="translate(4,-3)" /><linearGradient
       inkscape:collect="always"
       xlink:href="#linearGradient70027"
       id="linearGradient70029"
       x1="-1.432291"
       y1="15.5"
       x2="-1.432291"
       y2="11.5"
       gradientUnits="userSpaceOnUse"
       gradientTransform="translate(4,-3)" /><linearGradient
       inkscape:collect="always"
       xlink:href="#linearGradient99492"
       id="linearGradient99494"
       x1="7.067709"
       y1="12.5"
       x2="7.067709"
       y2="8.5"
       gradientUnits="userSpaceOnUse" /><linearGradient
       inkscape:collect="always"
       id="linearGradient6896"><stop
         style="stop-color:#ffcc00;stop-opacity:1"
         offset="0"
         id="stop6892" /><stop
         style="stop-color:#996600;stop-opacity:1"
         offset="1"
         id="stop6894" /></linearGradient><linearGradient
       inkscape:collect="always"
       xlink:href="#linearGradient981"
       id="linearGradient922"
       gradientUnits="userSpaceOnUse"
       x1="-14.022917"
       y1="8.4666662"
       x2="-17.727083"
       y2="3.8364584"
       gradientTransform="matrix(13.024315,3.5297332,-3.5297332,13.024315,1257.7697,473.78705)" /><linearGradient
       id="linearGradient981"
       inkscape:collect="always"><stop
         id="stop977"
         offset="0"
         style="stop-color:#3e9ade;stop-opacity:1" /><stop
         id="stop979"
         offset="1"
         style="stop-color:#b4e2ff;stop-opacity:1" /></linearGradient><linearGradient
       id="linearGradient989"
       inkscape:collect="always"><stop
         id="stop985"
         offset="0"
         style="stop-color:#fdfbfc;stop-opacity:1" /><stop
         style="stop-color:#f5f5f5;stop-opacity:1"
         offset="0.30000001"
         id="stop993" /><stop
         id="stop987"
         offset="1"
         style="stop-color:#9e9b9c;stop-opacity:1" /></linearGradient><radialGradient
       inkscape:collect="always"
       xlink:href="#linearGradient971"
       id="radialGradient973-5"
       cx="-2.1064258"
       cy="6.5068331"
       fx="-2.1064258"
       fy="6.5068331"
       r="3.8953962"
       gradientTransform="matrix(12.973097,2.249343,-2.5968235,14.977191,-927.86217,-970.43349)"
       gradientUnits="userSpaceOnUse" /><linearGradient
       id="linearGradient971"
       inkscape:collect="always"><stop
         id="stop967"
         offset="0"
         style="stop-color:#ff794b;stop-opacity:1" /><stop
         id="stop969"
         offset="1"
         style="stop-color:#990000;stop-opacity:1" /></linearGradient><linearGradient
       inkscape:collect="always"
       xlink:href="#linearGradient6896"
       id="linearGradient6898"
       x1="844.7998"
       y1="587.94043"
       x2="849.34631"
       y2="538.7973"
       gradientUnits="userSpaceOnUse" /><radialGradient
       inkscape:collect="always"
       xlink:href="#linearGradient989"
       id="radialGradient103313"
       cx="1203.6345"
       cy="413.57504"
       fx="1203.6345"
       fy="413.57504"
       r="64.543816"
       gradientTransform="matrix(0.82509604,0,0,0.78993633,210.52044,87.203388)"
       gradientUnits="userSpaceOnUse" /><filter
       inkscape:collect="always"
       style="color-interpolation-filters:sRGB"
       id="filter28"
       x="-0.14073863"
       y="-0.15384443"
       width="1.2814773"
       height="1.3076889"><feGaussianBlur
         inkscape:collect="always"
         stdDeviation="0.88002339"
         id="feGaussianBlur28" /></filter></defs><sodipodi:namedview
     showguides="false"
     id="base"
     pagecolor="#ffffff"
     bordercolor="#666666"
     borderopacity="1.0"
     inkscape:pageopacity="0.0"
     inkscape:pageshadow="2"
     inkscape:zoom="32"
     inkscape:cx="-2.515625"
     inkscape:cy="18.328125"
     inkscape:document-units="px"
     inkscape:current-layer="layer1"
     inkscape:document-rotation="0"
     showgrid="false"
     units="px"
     inkscape:window-width="3840"
     inkscape:window-height="2058"
     inkscape:window-x="0"
     inkscape:window-y="0"
     inkscape:window-maximized="1"
     inkscape:snap-bbox="true"
     inkscape:bbox-nodes="true"
     fit-margin-top="0"
     fit-margin-left="0"
     fit-margin-right="0"
     fit-margin-bottom="0"
     inkscape:bbox-paths="false"
     inkscape:snap-global="true"
     inkscape:pagecheckerboard="0"
     scale-x="0.26458"
     inkscape:showpageshadow="2"
     inkscape:deskcolor="#d1d1d1"><inkscape:grid
       type="xygrid"
       id="grid1504"
       originx="0"
       originy="0"
       spacingy="1"
       spacingx="1"
       units="px"
       visible="false" /><inkscape:grid
       type="xygrid"
       id="grid1507"
       spacingx="0.5"
       spacingy="0.5"
       originx="0"
       originy="0"
       units="px"
       visible="false" /></sodipodi:namedview><metadata
     id="metadata5"><rdf:RDF><cc:Work
         rdf:about=""><dc:format>image/svg+xml</dc:format><dc:type
           rdf:resource="http://purl.org/dc/dcmitype/StillImage" /></cc:Work></rdf:RDF></metadata><g
     inkscape:label="Layer 1"
     inkscape:groupmode="layer"
     id="layer1"
     transform="translate(-12.567709)"><path
       id="path1"
       style="fill:#000000;fill-opacity:1;fill-rule:evenodd;stroke:none;stroke-linecap:round;stroke-linejoin:round;stop-color:#000000;opacity:0.75;filter:url(#filter28)"
       d="m 26.481775,0.77100242 c -0.311586,5.8938e-4 -0.61011,0.10911664 -0.835938,0.33593748 a 0.27157649,0.27157649 0 0 0 -0.02734,0.019531 l -0.990234,0.9824218 -0.0039,0.00586 c -0.008,0.00872 -0.01384,0.018449 -0.02148,0.027344 L 22.296228,4.499518 H 20.7474 C 20.638245,4.3504719 20.453649,4.0906099 20.104821,3.6772524 19.886002,3.4179536 19.650425,3.1559743 19.417321,2.9428774 19.300768,2.8363289 19.186941,2.7413328 19.0599,2.6616274 18.932858,2.5819219 18.796879,2.499518 18.567712,2.499518 h -3 c -0.229166,0 -0.364332,0.081476 -0.492187,0.1601562 -0.127856,0.07868 -0.244068,0.1733289 -0.363282,0.2792969 -0.238429,0.211936 -0.482464,0.4715893 -0.708984,0.7304688 -0.453039,0.5177589 -0.835938,1.0292968 -0.835938,1.0292969 a 0.50005,0.50005 0 0 0 -0.09961,0.3007812 v 8 c 0,0.82235 0.677651,1.5 1.5,1.5 h 11 1 c 0.82235,0 1.5,-0.67765 1.5,-1.5 v -6 a 0.50005,0.50005 0 0 0 -0.5,-0.5 h -1.5 v -1.5 a 0.50005,0.50005 0 0 0 -0.0332,-0.125 l 0.728516,-0.7441406 a 0.27157649,0.27157649 0 0 0 0.02734,-0.033203 L 27.64779,3.2475649 c 0.04631,-0.036641 0.08957,-0.077938 0.13086,-0.1230469 0.489157,-0.5344299 0.344708,-1.3935955 -0.232422,-1.921875 -0.3066,-0.28064843 -0.693821,-0.43234166 -1.064453,-0.43164058 z" /><g
       id="g118660"
       transform="translate(18)"><g
         id="g51229"><path
           id="path50157"
           style="opacity:1;fill:url(#linearGradient17865);fill-opacity:1;fill-rule:evenodd;stroke:none;stroke-linecap:round;stroke-linejoin:round;stop-color:#000000"
           d="m -2.932291,2.5 h 2.99999997 c 0.5,0 1.93777903,2 1.93777903,2 h 5.062221 v 9 h -11 c -0.554,0 -1,-0.446 -1,-1 v -8 c 0,0 1.5,-2 2,-2 z"
           sodipodi:nodetypes="cccccsscc" /><path
           style="fill:none;stroke:#ffffff;stroke-width:1px;stroke-linecap:butt;stroke-linejoin:miter;stroke-opacity:1"
           d="M -4.8514149,5.8970732 -2.804,3.5166649 -0.13474153,3.4686151 1.567709,5.5 h 5.5"
           id="path50009"
           sodipodi:nodetypes="ccccc" /><path
           id="rect1090"
           style="opacity:1;fill:none;fill-opacity:1;fill-rule:evenodd;stroke:url(#linearGradient38453);stroke-linecap:round;stroke-linejoin:round;stop-color:#000000"
           d="m -2.932291,2.5 h 2.99999997 c 0.50000003,0 1.93777903,2 1.93777903,2 h 5.062221 v 9 h -11 c -0.554,0 -1,-0.446 -1,-1 v -8 c 0,0 1.5,-2 2,-2 z"
           sodipodi:nodetypes="cccccsscc" /></g><rect
         style="opacity:1;fill:url(#linearGradient70029);fill-opacity:1;fill-rule:evenodd;stroke:none;stroke-width:1;stroke-linecap:round;stroke-linejoin:round;stroke-miterlimit:4;stroke-dasharray:none;stroke-opacity:1;stop-color:#000000"
         id="rect51881"
         width="12"
         height="7"
         x="-2.932291"
         y="6.5"
         rx="1"
         ry="1" /><path
         style="fill:none;fill-opacity:1;stroke:#ffff99;stroke-width:1px;stroke-linecap:butt;stroke-linejoin:miter;stroke-opacity:1"
         d="m -1.932291,7.5 v 6"
         id="path90149" /><path
         style="fill:none;fill-opacity:1;stroke:#ffff99;stroke-width:1px;stroke-linecap:butt;stroke-linejoin:miter;stroke-opacity:1"
         d="m 8.067709,7.5 v 6"
         id="path90149-3" /><path
         style="fill:none;stroke:#ffffff;stroke-width:1px;stroke-linecap:butt;stroke-linejoin:miter;stroke-opacity:1"
         d="m -2.932291,7.5 h 12"
         id="path84301"
         sodipodi:nodetypes="cc" /><path
         style="fill:none;stroke:url(#linearGradient99494);stroke-width:1px;stroke-linecap:butt;stroke-linejoin:miter;stroke-opacity:1"
         d="m 7.067709,6.5 v 7"
         id="path99486" /><path
         id="rect83870"
         style="opacity:1;fill:none;fill-rule:evenodd;stroke:url(#linearGradient52101);stroke-linecap:round;stroke-linejoin:round;stop-color:#000000"
         d="m -1.932291,6.5 h 11 v 6 c 0,0.554 -0.446,1 -1,1 h -10 c -0.554,0 -1,-0.446 -1,-1 v -5 c 0,-0.554 0.446,-1 1,-1 z"
         sodipodi:nodetypes="scssssss" /><rect
         style="opacity:1;fill:#ffe680;fill-opacity:1;fill-rule:evenodd;stroke:none;stroke-width:1;stroke-linecap:round;stroke-linejoin:round;stroke-miterlimit:4;stroke-dasharray:none;stroke-opacity:1;stop-color:#000000"
         id="rect109807"
         width="1"
         height="1"
         x="6.567709"
         y="7" /></g><path
       id="path39"
       style="color:#000000;mix-blend-mode:soft-light;fill:#000000;fill-opacity:1;stroke-linecap:round;stroke-linejoin:round;-inkscape-stroke:none"
       d="M 22.786459 4 L 19.378256 7.484375 A 0.27160365 0.27160365 0 0 0 19.372397 7.4921875 C 19.295757 7.5759234 19.237143 7.6684672 19.190756 7.765625 A 0.27160365 0.27160365 0 0 0 19.179037 7.7832031 L 18.286459 9.9121094 L 18.282553 9.9199219 L 18.24349 10.015625 A 0.27157649 0.27157649 0 0 0 18.235678 10.048828 L 17.964193 10.779297 C 17.917573 10.904844 18.079181 11.021232 18.188803 10.976562 L 19.077475 10.615234 C 19.077893 10.609034 19.077545 10.602003 19.077475 10.595703 L 20.917318 9.8203125 C 21.151839 9.7742305 21.367831 9.6609783 21.538412 9.4746094 L 25.567709 5.3535156 L 25.567709 4.5 A 0.50005 0.50005 0 0 0 25.067709 4 L 22.786459 4 z " /><g
       id="g220242"
       style="stroke-width:22.9422;stroke-miterlimit:4;stroke-dasharray:none"
       transform="matrix(0.02184134,-0.00913452,0.00913418,0.02184215,-4.8126613,4.2310722)"><path
         sodipodi:nodetypes="cccc"
         id="path963-2"
         d="M 810.92803,598.28781 907.17971,597.96038 873.81603,510 800.94362,581.74228"
         style="fill:url(#linearGradient6898);fill-opacity:1;stroke:#996600;stroke-width:22.9422;stroke-linecap:round;stroke-linejoin:round;stroke-miterlimit:4;stroke-dasharray:none;stroke-opacity:1" /><path
         id="path930-5-3"
         style="fill:url(#linearGradient922);fill-opacity:1;stroke:#0066cc;stroke-width:22.9422;stroke-linecap:round;stroke-linejoin:round;stroke-miterlimit:4;stroke-dasharray:none;stroke-opacity:1"
         d="M 1216.316,472.5 925.30111,595.72343 c -20.97743,9.70912 -47.48788,-2.95623 -59.21276,-28.28885 -11.72488,-25.33263 -4.22421,-53.73958 16.75323,-63.44871 L 1173.8565,380.76244"
         sodipodi:nodetypes="ccscc" /><path
         sodipodi:nodetypes="ccscc"
         d="m 1271.9445,449.74979 -54.3523,22.03401 c -20.9774,9.70912 -47.4879,-2.95622 -59.2128,-28.28885 -11.7248,-25.33263 -4.2242,-53.73959 16.7532,-63.44872 l 54.3523,-22.034"
         style="fill:url(#radialGradient103313);fill-opacity:1;stroke:#74706b;stroke-width:22.9422;stroke-linecap:round;stroke-miterlimit:4;stroke-dasharray:none;stroke-opacity:1"
         id="path930-6" /><ellipse
         style="fill:url(#radialGradient973-5);fill-opacity:1;stroke:#831d19;stroke-width:22.9422;stroke-linecap:round;stroke-miterlimit:4;stroke-dasharray:none;stroke-opacity:1"
         id="path930-7-0"
         ry="50.54353"
         rx="41.854046"
         cy="-892.06311"
         cx="-965.25616"
         transform="rotate(155.16355)" /><path
         style="fill:#000000;fill-opacity:1;stroke:none;stroke-width:22.9422;stroke-linecap:butt;stroke-linejoin:miter;stroke-miterlimit:4;stroke-dasharray:none;stroke-opacity:1"
         d="m 769.57338,598.72894 26.66841,-28.5325 c 8.5,-0.5 25.3513,28.2483 19.3513,40.2483 l -40.47092,-0.37158 c -4.99978,-0.0459 -9.41152,-7.2115 -5.54879,-11.34422 z"
         id="path1716"
         sodipodi:nodetypes="sccss" /></g></g></svg>
