<?xml version="1.0" encoding="UTF-8" standalone="no"?>
<svg
   inkscape:export-ydpi="36"
   inkscape:export-xdpi="36"
   inkscape:export-filename="dialog-error.png"
   width="16"
   height="16"
   viewBox="0 0 16 16"
   version="1.1"
   id="svg8"
   inkscape:version="1.2.2 (b0a8486541, 2022-12-01)"
   sodipodi:docname="error.svg"
   xmlns:inkscape="http://www.inkscape.org/namespaces/inkscape"
   xmlns:sodipodi="http://sodipodi.sourceforge.net/DTD/sodipodi-0.dtd"
   xmlns:xlink="http://www.w3.org/1999/xlink"
   xmlns="http://www.w3.org/2000/svg"
   xmlns:svg="http://www.w3.org/2000/svg"
   xmlns:rdf="http://www.w3.org/1999/02/22-rdf-syntax-ns#"
   xmlns:cc="http://creativecommons.org/ns#"
   xmlns:dc="http://purl.org/dc/elements/1.1/">
  <defs
     id="defs2">
    <linearGradient
       inkscape:collect="always"
       id="linearGradient1053">
      <stop
         style="stop-color:#fc4c4c;stop-opacity:1"
         offset="0"
         id="stop1047" />
      <stop
         id="stop1049"
         offset="0.53080672"
         style="stop-color:#ce0000;stop-opacity:1" />
      <stop
         style="stop-color:#9e0000;stop-opacity:1"
         offset="0.83750206"
         id="stop1055" />
      <stop
         style="stop-color:#770101;stop-opacity:1"
         offset="1"
         id="stop1051" />
    </linearGradient>
    <linearGradient
       id="linearGradient1045"
       inkscape:collect="always">
      <stop
         id="stop1037"
         offset="0"
         style="stop-color:#d10100;stop-opacity:0" />
      <stop
         style="stop-color:#d10100;stop-opacity:0"
         offset="0.22104843"
         id="stop1039" />
      <stop
         id="stop1041"
         offset="0.73682809"
         style="stop-color:#ff2121;stop-opacity:0.51653874" />
      <stop
         id="stop1043"
         offset="1"
         style="stop-color:#ffa0a0;stop-opacity:1" />
    </linearGradient>
    <radialGradient
       inkscape:collect="always"
       xlink:href="#linearGradient1053"
       id="radialGradient892-1"
       cx="-73.449471"
       cy="6.6143513"
       fx="-73.449471"
       fy="6.6143513"
       r="22.5"
       gradientUnits="userSpaceOnUse"
       gradientTransform="matrix(3.8635202,9.282772,-7.848616,3.26662,431.96578,673.89845)" />
    <radialGradient
       inkscape:collect="always"
       xlink:href="#linearGradient1045"
       id="radialGradient908-6"
       gradientUnits="userSpaceOnUse"
       gradientTransform="matrix(2.1491218,-0.58449829,0.25031403,0.92037085,-118.37948,168.04356)"
       cx="-47.658783"
       cy="15.382224"
       fx="-47.658783"
       fy="15.382224"
       r="22.5" />
    <filter
       inkscape:collect="always"
       style="color-interpolation-filters:sRGB"
       id="filter916-5"
       x="-0.048000657"
       width="1.0960013"
       y="-0.07938596"
       height="1.1587719">
      <feGaussianBlur
         inkscape:collect="always"
         stdDeviation="0.81563614"
         id="feGaussianBlur918-7" />
    </filter>
    <filter
       height="1.1079605"
       y="-0.053980248"
       width="1.1088644"
       x="-0.054432203"
       id="filter1071"
       style="color-interpolation-filters:sRGB"
       inkscape:collect="always">
      <feGaussianBlur
         id="feGaussianBlur1073"
         stdDeviation="4.9"
         inkscape:collect="always" />
    </filter>
    <filter
       inkscape:collect="always"
       style="color-interpolation-filters:sRGB"
       id="filter904"
       x="-0.147"
       y="-0.147"
       width="1.294"
       height="1.294">
      <feGaussianBlur
         inkscape:collect="always"
         stdDeviation="0.91875"
         id="feGaussianBlur906" />
    </filter>
  </defs>
  <sodipodi:namedview
     id="base"
     pagecolor="#ffffff"
     bordercolor="#666666"
     borderopacity="1.0"
     inkscape:pageopacity="0.0"
     inkscape:pageshadow="2"
     inkscape:zoom="13.929449"
     inkscape:cx="-20.711516"
     inkscape:cy="3.4818319"
     inkscape:document-units="px"
     inkscape:current-layer="layer1"
     inkscape:document-rotation="0"
     showgrid="false"
     units="px"
     inkscape:window-width="3840"
     inkscape:window-height="2061"
     inkscape:window-x="1280"
     inkscape:window-y="0"
     inkscape:window-maximized="1"
     inkscape:snap-bbox="true"
     inkscape:bbox-nodes="true"
     fit-margin-top="0"
     fit-margin-left="0"
     fit-margin-right="0"
     fit-margin-bottom="0"
     inkscape:bbox-paths="false"
     inkscape:snap-global="true"
     inkscape:pagecheckerboard="0"
     inkscape:showpageshadow="2"
     inkscape:deskcolor="#d1d1d1">
    <inkscape:grid
       type="xygrid"
       id="grid1504"
       originx="0"
       originy="0"
       spacingy="1"
       spacingx="1"
       units="px"
       visible="false" />
    <inkscape:grid
       type="xygrid"
       id="grid1507"
       spacingx="0.5"
       spacingy="0.5"
       originx="0"
       originy="0"
       units="px"
       visible="false" />
  </sodipodi:namedview>
  <metadata
     id="metadata5">
    <rdf:RDF>
      <cc:Work
         rdf:about="">
        <dc:format>image/svg+xml</dc:format>
        <dc:type
           rdf:resource="http://purl.org/dc/dcmitype/StillImage" />
      </cc:Work>
    </rdf:RDF>
  </metadata>
  <g
     inkscape:label="Layer 1"
     inkscape:groupmode="layer"
     id="layer1"
     transform="translate(-12.567709)">
    <path
       id="circle338"
       style="fill:#000000;fill-opacity:1;fill-rule:evenodd;stroke-width:1.56174;stroke-linecap:round;stop-color:#000000;filter:url(#filter904);opacity:0.75"
       d="m 20.567709,0.5 a 7.4999999,7.4999999 0 0 0 -7.5,7.5 7.4999999,7.4999999 0 0 0 7.5,7.5 7.4999999,7.4999999 0 0 0 7.5,-7.5 7.4999999,7.4999999 0 0 0 -7.5,-7.5 z" />
    <g
       id="g1131"
       transform="matrix(0.06198347,0,0,0.06198347,11.788715,-3.389428e-6)">
      <circle
         style="opacity:1;fill:#ffffff;fill-opacity:1;fill-rule:evenodd;stroke-width:25.196;stroke-linecap:round;stop-color:#000000"
         id="path855"
         cx="135.4584"
         cy="119.19077"
         r="100.98163" />
      <path
         transform="matrix(0.9877551,0,0,0.9877551,378.93181,-109.21165)"
         d="m -243.34382,124.39877 c -67.65488,0 -112.18591,45.06145 -112.18591,112.71633 0,67.65488 44.53103,105.14114 112.18591,105.14114 67.65488,0 103.86267,-37.48626 103.86267,-105.14114 0,-67.65488 -36.20779,-112.71633 -103.86267,-112.71633 z m -47.79841,43.15081 47.03276,47.03276 47.03275,-47.03276 24.5,24.5 -47.03276,47.03276 47.03276,47.03276 -24.5,24.5 -47.03275,-47.03276 -47.03276,47.03276 -24.5,-24.5 47.03276,-47.03276 -47.03276,-47.03276 z"
         style="fill:#212121;fill-opacity:1;fill-rule:evenodd;stroke:none;stroke-width:192.907;stroke-linecap:round;filter:url(#filter1071);stop-color:#000000"
         id="path1069"
         sodipodi:nodetypes="sssssccccccccccccc" />
      <path
         id="path884-4"
         style="fill:url(#radialGradient892-1);fill-opacity:1;fill-rule:evenodd;stroke:none;stroke-width:190.545;stroke-linecap:round;stop-color:#000000"
         d="M 133.5677,-3.613399e-6 A 121,121 0 0 0 12.567705,121 121,121 0 0 0 133.5677,242 a 121,121 0 0 0 121,-121 121,121 0 0 0 -121,-121.000003613399 z M 86.354581,52.286299 l 46.456849,46.456849 46.45684,-46.456849 24.2,24.2 -46.45685,46.456851 46.45685,46.45685 -24.2,24.2 -46.45684,-46.45685 -46.456849,46.45685 -24.2,-24.2 46.456849,-46.45685 -46.456849,-46.456851 z" />
      <path
         sodipodi:nodetypes="sscccccccccss"
         transform="matrix(5.3777777,0,0,5.3777777,1299.9455,-989.37764)"
         id="circle906-1"
         style="fill:url(#radialGradient908-6);fill-opacity:1;fill-rule:evenodd;stroke:none;stroke-width:32.1106;stroke-linecap:round;filter:url(#filter916-5);stop-color:#000000"
         d="m -216.88844,186.08456 c -11.26159,0 -20.39063,9.12904 -20.39063,20.39062 0,3.60563 2.91975,4.26773 6.71433,4.26773 l 9.03567,-3.9064 -8.63867,-8.63867 4.5,-4.5 8.63867,8.63867 8.63867,-8.63867 4.5,4.5 -8.63867,8.63867 11.54569,1.79035 c 2.88679,0 4.48556,-0.47198 4.48556,-2.15168 0,-11.26158 -9.12904,-20.39062 -20.39062,-20.39062 z" />
    </g>
  </g>
</svg>
