<?xml version="1.0" encoding="UTF-8" standalone="no"?>
<svg
   inkscape:export-ydpi="96"
   inkscape:export-xdpi="96"
   inkscape:export-filename="/media/klapeto/Αρχεία/WindowsXP Theme/Vectors/RASTER/method.png"
   width="16"
   height="16"
   viewBox="0 0 16 16"
   version="1.1"
   id="svg8"
   inkscape:version="1.3.2 (1:1.3.2+202311252150+091e20ef0f)"
   sodipodi:docname="function.svg"
   xml:space="preserve"
   xmlns:inkscape="http://www.inkscape.org/namespaces/inkscape"
   xmlns:sodipodi="http://sodipodi.sourceforge.net/DTD/sodipodi-0.dtd"
   xmlns:xlink="http://www.w3.org/1999/xlink"
   xmlns="http://www.w3.org/2000/svg"
   xmlns:svg="http://www.w3.org/2000/svg"
   xmlns:rdf="http://www.w3.org/1999/02/22-rdf-syntax-ns#"
   xmlns:cc="http://creativecommons.org/ns#"
   xmlns:dc="http://purl.org/dc/elements/1.1/"><defs
     id="defs2"><linearGradient
       id="linearGradient2"
       inkscape:collect="always"><stop
         id="stop1"
         offset="0"
         style="stop-color:#ffff99;stop-opacity:1" /><stop
         id="stop2"
         offset="1"
         style="stop-color:#8a99ae;stop-opacity:1" /></linearGradient><linearGradient
       gradientUnits="userSpaceOnUse"
       y2="104"
       x2="117.11422"
       y1="104"
       x1="67.719681"
       id="linearGradient1830"
       xlink:href="#linearGradient2"
       inkscape:collect="always"
       gradientTransform="matrix(0.19232894,0,0,0.19232894,7.0432548,-3.0022101)" /><linearGradient
       gradientUnits="userSpaceOnUse"
       y2="136"
       x2="117.28139"
       y1="136"
       x1="36.690292"
       id="linearGradient1838"
       xlink:href="#linearGradient2"
       inkscape:collect="always"
       gradientTransform="matrix(0.19232894,0,0,0.19232894,7.0111038,-3.1567361)" /><linearGradient
       gradientUnits="userSpaceOnUse"
       y2="168"
       x2="117.16476"
       y1="168"
       x1="52.17194"
       id="linearGradient1846"
       xlink:href="#linearGradient2"
       inkscape:collect="always"
       gradientTransform="matrix(0.19232894,0,0,0.19232894,7.0335348,-3.3112621)" /></defs><sodipodi:namedview
     inkscape:snap-bbox-edge-midpoints="true"
     inkscape:snap-smooth-nodes="false"
     inkscape:snap-midpoints="false"
     inkscape:object-paths="false"
     inkscape:guide-bbox="true"
     showguides="true"
     id="base"
     pagecolor="#ffffff"
     bordercolor="#666666"
     borderopacity="1.0"
     inkscape:pageopacity="0.0"
     inkscape:pageshadow="2"
     inkscape:zoom="61.763507"
     inkscape:cx="3.5214969"
     inkscape:cy="5.9339247"
     inkscape:document-units="px"
     inkscape:current-layer="layer1"
     inkscape:document-rotation="0"
     showgrid="true"
     units="px"
     inkscape:window-width="3840"
     inkscape:window-height="2058"
     inkscape:window-x="3840"
     inkscape:window-y="0"
     inkscape:window-maximized="1"
     inkscape:snap-bbox="true"
     inkscape:bbox-nodes="true"
     fit-margin-top="0"
     fit-margin-left="0"
     fit-margin-right="0"
     fit-margin-bottom="0"
     inkscape:bbox-paths="true"
     inkscape:snap-global="true"
     inkscape:pagecheckerboard="0"
     inkscape:showpageshadow="2"
     inkscape:deskcolor="#d1d1d1"><inkscape:grid
       type="xygrid"
       id="grid1504"
       originx="0"
       originy="0"
       spacingy="1"
       spacingx="1"
       units="px"
       visible="true" /><inkscape:grid
       type="xygrid"
       id="grid1765"
       spacingx="0.5"
       spacingy="0.5"
       originx="0"
       originy="0"
       units="px"
       visible="true" /></sodipodi:namedview><metadata
     id="metadata5"><rdf:RDF><cc:Work
         rdf:about=""><dc:format>image/svg+xml</dc:format><dc:type
           rdf:resource="http://purl.org/dc/dcmitype/StillImage" /></cc:Work></rdf:RDF></metadata><g
     inkscape:label="Layer 1"
     inkscape:groupmode="layer"
     id="layer1"
     transform="translate(-12.567709)"><path
       id="path12"
       style="color:#000000;opacity:0.75;fill:#000000;fill-opacity:1;stroke-linecap:round;stroke-linejoin:round;-inkscape-stroke:none"
       d="m 23.429037,1.7294921 a 0.16386839,0.16386839 0 0 0 -0.115234,0.048828 l -3.398438,3.3984374 a 0.16386839,0.16386839 0 0 0 -0.0078,0.013672 0.16386839,0.16386839 0 0 0 -0.02344,0.041016 0.16386839,0.16386839 0 0 0 -0.0098,0.035156 0.16386839,0.16386839 0 0 0 -0.0078,0.025391 V 9.731446 a 0.16386839,0.16386839 0 0 0 0.05078,0.11914 l 4.509766,4.298828 a 0.16386839,0.16386839 0 0 0 0.02734,0.01367 0.16386839,0.16386839 0 0 0 0.04102,0.01953 0.16386839,0.16386839 0 0 0 0.04492,0.0039 0.16386839,0.16386839 0 0 0 0.04297,-0.0039 0.16386839,0.16386839 0 0 0 0.03906,-0.01758 0.16386839,0.16386839 0 0 0 0.02734,-0.01367 l 3.365235,-3.121093 a 0.16386839,0.16386839 0 0 0 0.05273,-0.119141 V 6.401367 a 0.16386839,0.16386839 0 0 0 -0.04883,-0.1152344 l -0.0078,-0.00977 a 0.16386839,0.16386839 0 0 0 -0.0059,-0.00391 L 23.546225,1.7783202 A 0.16386839,0.16386839 0 0 0 23.429037,1.7294921 Z M 15.442709,5.2099608 A 0.40950051,0.40950051 0 0 0 15.032553,5.620117 0.40950051,0.40950051 0 0 0 15.442709,6.0283201 H 18.55599 A 0.40950051,0.40950051 0 0 0 18.966147,5.620117 0.40950051,0.40950051 0 0 0 18.55599,5.2099608 Z M 13.475912,7.1767576 A 0.40963,0.40963 0 0 0 13.067709,7.5869139 0.40963,0.40963 0 0 0 13.475912,7.995117 H 18.55599 A 0.40963,0.40963 0 0 0 18.966147,7.5869139 0.40963,0.40963 0 0 0 18.55599,7.1767576 Z m 0.984375,1.9648438 a 0.40963,0.40963 0 0 0 -0.410156,0.4101562 0.40963,0.40963 0 0 0 0.410156,0.4101565 H 18.55599 A 0.40963,0.40963 0 0 0 18.966147,9.5517576 0.40963,0.40963 0 0 0 18.55599,9.1416014 Z" /><g
       inkscape:label="Layer 1"
       id="layer1-6"
       transform="matrix(0.32770416,0,0,0.32770416,8.3672925,-0.45125756)"><g
         id="g1867"
         transform="matrix(0.19232894,0,0,0.19232894,6.9664996,-1.8658053)"
         style="stroke-width:5.19943;stroke-dasharray:none"><path
           sodipodi:nodetypes="ccccc"
           id="path1781"
           d="m 140.91072,92.891924 53.92407,-53.924073 70.98169,71.531939 -53.37383,48.97186 z"
           style="fill:#ff794b;fill-opacity:1;stroke:#ff3300;stroke-width:5.19943;stroke-linecap:round;stroke-linejoin:round;stroke-miterlimit:4;stroke-dasharray:none;stroke-opacity:1" /><path
           sodipodi:nodetypes="ccccc"
           id="path1779"
           d="M 212.44265,159.47165 140.91072,92.891924 v 70.431446 l 71.53193,68.23046 z"
           style="fill:#ff3300;fill-opacity:1;stroke:#990000;stroke-width:5.19943;stroke-linecap:round;stroke-linejoin:round;stroke-miterlimit:4;stroke-dasharray:none;stroke-opacity:1" /><path
           sodipodi:nodetypes="ccccc"
           id="path1777"
           d="m 212.44265,159.47165 53.37383,-48.97186 v 71.53193 l -53.37383,49.52211 z"
           style="fill:#990000;fill-opacity:1;stroke:#700000;stroke-width:5.19943;stroke-linecap:butt;stroke-linejoin:round;stroke-miterlimit:4;stroke-dasharray:none;stroke-opacity:1" /></g><path
         sodipodi:nodetypes="cc"
         id="path1783"
         d="m 20.067709,17 h 9.5"
         style="fill:none;stroke:url(#linearGradient1830);stroke-width:2.49921;stroke-linecap:round;stroke-linejoin:miter;stroke-miterlimit:4;stroke-dasharray:none;stroke-opacity:1" /><path
         style="fill:none;stroke:url(#linearGradient1838);stroke-width:2.5;stroke-linecap:round;stroke-linejoin:miter;stroke-miterlimit:4;stroke-dasharray:none;stroke-opacity:1"
         d="m 14.067709,23 h 15.5"
         id="path1783-7"
         sodipodi:nodetypes="cc" /><path
         sodipodi:nodetypes="cc"
         id="path1783-7-9"
         d="m 17.067709,29 h 12.5"
         style="fill:none;stroke:url(#linearGradient1846);stroke-width:2.5;stroke-linecap:round;stroke-linejoin:miter;stroke-miterlimit:4;stroke-dasharray:none;stroke-opacity:1" /></g></g></svg>
