<?xml version="1.0" encoding="UTF-8" standalone="no"?>
<svg
   width="16"
   height="16"
   viewBox="0 0 16 16"
   version="1.1"
   id="svg8"
   inkscape:version="1.3.2 (1:1.3.2+202311252150+091e20ef0f)"
   sodipodi:docname="generate-code.svg"
   inkscape:export-filename="/media/klapeto/Αρχεία/WindowsXP Theme/Vectors/RASTER/key.png"
   inkscape:export-xdpi="96"
   inkscape:export-ydpi="96"
   xml:space="preserve"
   xmlns:inkscape="http://www.inkscape.org/namespaces/inkscape"
   xmlns:sodipodi="http://sodipodi.sourceforge.net/DTD/sodipodi-0.dtd"
   xmlns:xlink="http://www.w3.org/1999/xlink"
   xmlns="http://www.w3.org/2000/svg"
   xmlns:svg="http://www.w3.org/2000/svg"
   xmlns:rdf="http://www.w3.org/1999/02/22-rdf-syntax-ns#"
   xmlns:cc="http://creativecommons.org/ns#"
   xmlns:dc="http://purl.org/dc/elements/1.1/"><defs
     id="defs2"><linearGradient
       inkscape:collect="always"
       id="linearGradient8884"><stop
         style="stop-color:#6f8097;stop-opacity:1"
         offset="0"
         id="stop8880" /><stop
         style="stop-color:#485b75;stop-opacity:1"
         offset="1"
         id="stop8882" /></linearGradient><linearGradient
       inkscape:collect="always"
       xlink:href="#linearGradient8884"
       id="linearGradient1045"
       x1="1573.5859"
       y1="-10.545431"
       x2="1579.6951"
       y2="-10.545431"
       gradientUnits="userSpaceOnUse"
       gradientTransform="matrix(0.98214184,0,0,0.98214184,-1523.9169,15.857109)" /><linearGradient
       inkscape:collect="always"
       xlink:href="#linearGradient8884"
       id="linearGradient8706"
       gradientUnits="userSpaceOnUse"
       x1="1573.4768"
       y1="-10.490883"
       x2="1584.6769"
       y2="-10.490883"
       gradientTransform="matrix(0.98214184,0,0,0.98214184,-1529.8097,18.803535)" /><linearGradient
       inkscape:collect="always"
       xlink:href="#linearGradient8884"
       id="linearGradient20419"
       gradientUnits="userSpaceOnUse"
       x1="1573.5496"
       y1="-10.436334"
       x2="1579.6587"
       y2="-10.436334"
       gradientTransform="matrix(0.98214184,0,0,0.98214184,-1525.8812,21.74996)" /><linearGradient
       inkscape:collect="always"
       xlink:href="#linearGradient8884"
       id="linearGradient20442"
       gradientUnits="userSpaceOnUse"
       x1="1574.4406"
       y1="-10.436334"
       x2="1579.5315"
       y2="-10.436334"
       gradientTransform="matrix(0.98214184,0,0,0.98214184,-1532.7562,21.74996)" /><filter
       inkscape:collect="always"
       style="color-interpolation-filters:sRGB"
       id="filter13"
       x="-0.14699998"
       y="-0.14700001"
       width="1.294"
       height="1.294"><feGaussianBlur
         inkscape:collect="always"
         stdDeviation="0.55125007"
         id="feGaussianBlur13" /></filter></defs><sodipodi:namedview
     inkscape:guide-bbox="true"
     id="base"
     pagecolor="#ffffff"
     bordercolor="#666666"
     borderopacity="1.0"
     inkscape:pageopacity="0.0"
     inkscape:pageshadow="2"
     inkscape:zoom="64"
     inkscape:cx="1.6171875"
     inkscape:cy="9.2890625"
     inkscape:document-units="px"
     inkscape:current-layer="layer1"
     inkscape:document-rotation="0"
     showgrid="true"
     units="px"
     inkscape:window-width="3840"
     inkscape:window-height="2058"
     inkscape:window-x="3840"
     inkscape:window-y="0"
     inkscape:window-maximized="1"
     inkscape:snap-bbox="true"
     inkscape:bbox-nodes="true"
     fit-margin-top="0"
     fit-margin-left="0"
     fit-margin-right="0"
     fit-margin-bottom="0"
     inkscape:bbox-paths="false"
     inkscape:snap-global="true"
     showguides="false"
     inkscape:pagecheckerboard="0"
     inkscape:showpageshadow="2"
     inkscape:deskcolor="#d1d1d1"><inkscape:grid
       type="xygrid"
       id="grid1504"
       originx="0"
       originy="0"
       spacingy="1"
       spacingx="1"
       units="px"
       visible="true" /><inkscape:grid
       type="xygrid"
       id="grid1507"
       spacingx="0.5"
       spacingy="0.5"
       originx="0"
       originy="0"
       units="px"
       visible="true" /></sodipodi:namedview><metadata
     id="metadata5"><rdf:RDF><cc:Work
         rdf:about=""><dc:format>image/svg+xml</dc:format><dc:type
           rdf:resource="http://purl.org/dc/dcmitype/StillImage" /></cc:Work></rdf:RDF></metadata><g
     inkscape:label="Layer 1"
     inkscape:groupmode="layer"
     id="layer1"
     transform="translate(-12.567709)"><path
       id="rect13"
       style="fill:#000000;fill-opacity:1;fill-rule:evenodd;stroke:none;stroke-width:11.7857;stroke-linecap:round;stroke-linejoin:round;stop-color:#000000;opacity:0.75"
       d="m 21.067709,6.5 v 3 h 7 v -3 z m -7,1 v 1 h 0.5 5 0.5 v -1 h -0.5 -5 z m 1,3 v 1 h 0.5 10 0.5 v -1 h -0.5 -10 z m 1,3 v 1 h 0.5 5 0.5 v -1 h -0.5 -5 z m 7,0 v 1 h 0.5 4 0.5 v -1 h -0.5 -4 z" /><g
       id="g1"
       transform="matrix(-1,0,0,1,41.135418,2)"><rect
         style="fill:#5fe916;fill-opacity:1;fill-rule:evenodd;stroke:none;stroke-width:11.7857;stroke-linecap:round;stroke-linejoin:round;stop-color:#000000"
         id="rect20630"
         width="7"
         height="3"
         x="13.567709"
         y="4" /><path
         style="fill:none;fill-opacity:1;stroke:url(#linearGradient1045);stroke-width:1;stroke-linecap:square;stroke-linejoin:miter;stroke-dasharray:none;stroke-opacity:1"
         d="m 22.067709,5.5 h 5"
         id="path996"
         sodipodi:nodetypes="cc" /><path
         style="fill:none;fill-opacity:1;stroke:url(#linearGradient20419);stroke-width:1;stroke-linecap:square;stroke-linejoin:miter;stroke-dasharray:none;stroke-opacity:1"
         d="m 20.067709,11.5 h 5"
         id="path996-7"
         sodipodi:nodetypes="cc" /><path
         style="fill:none;fill-opacity:1;stroke:url(#linearGradient20442);stroke-width:1;stroke-linecap:square;stroke-linejoin:miter;stroke-dasharray:none;stroke-opacity:1"
         d="m 14.067709,11.5 h 4"
         id="path996-88"
         sodipodi:nodetypes="cc" /><path
         style="fill:none;fill-opacity:1;stroke:url(#linearGradient8706);stroke-width:1;stroke-linecap:square;stroke-linejoin:miter;stroke-dasharray:none;stroke-opacity:1"
         d="m 16.067709,8.5 h 10"
         id="path996-8"
         sodipodi:nodetypes="cc" /><path
         style="fill:none;stroke:#000000;stroke-width:1;stroke-linecap:square;stroke-linejoin:miter;stroke-dasharray:none;stroke-opacity:1"
         d="m 15.067709,5.5 h 4"
         id="path20573"
         sodipodi:nodetypes="cc" /></g><path
       id="rect8"
       style="opacity:0.75;fill:#000000;fill-opacity:1;stroke:none;stroke-width:0.371154;stroke-linecap:round;stroke-linejoin:round;stroke-miterlimit:4;stroke-dasharray:none;stroke-opacity:1;filter:url(#filter13)"
       d="m 18.074662,1.0204102 c -0.356142,0 -0.642578,0.2883888 -0.642578,0.6445312 v 2.0429688 a 1.9285713,1.9285713 0 0 0 -0.1875,0.074219 L 15.953568,2.4911133 c -0.251831,-0.2518308 -0.658325,-0.2518308 -0.910156,0 -0.251831,0.2518308 -0.251831,0.6563724 0,0.9082031 l 1.292969,1.2929688 a 1.9285713,1.9285713 0 0 0 -0.07422,0.1855468 h -2.044922 c -0.356142,0 -0.642578,0.2864357 -0.642578,0.6425782 0,0.3561425 0.286436,0.6445312 0.642578,0.6445312 h 2.044922 a 1.9285713,1.9285713 0 0 0 0.07422,0.1855469 L 15.043412,7.643457 c -0.251831,0.2518308 -0.251831,0.6563724 0,0.9082032 0.251831,0.2518307 0.658325,0.2518307 0.910156,0 l 1.291016,-1.2910156 a 1.9285713,1.9285713 0 0 0 0.1875,0.074219 v 2.0429687 c 0,0.3561425 0.286436,0.6425777 0.642578,0.6425777 0.356142,0 0.642578,-0.2864352 0.642578,-0.6425777 v -2.042969 a 1.9285713,1.9285713 0 0 0 0.1875,-0.074219 l 1.291016,1.2910159 c 0.251831,0.2518307 0.658325,0.2518307 0.910156,0 0.251831,-0.2518308 0.251831,-0.6563724 0,-0.9082032 L 19.812943,6.3504883 a 1.9285713,1.9285713 0 0 0 0.07422,-0.1855469 h 2.044922 c 0.356142,0 0.642578,-0.2883887 0.642578,-0.6445312 0,-0.3561425 -0.286436,-0.6425782 -0.642578,-0.6425782 h -2.039063 a 1.9285713,1.9285713 0 0 0 -0.07813,-0.1875 l 1.291016,-1.2910156 c 0.251831,-0.2518307 0.251831,-0.6563723 0,-0.9082031 -0.251831,-0.2518308 -0.658325,-0.2518308 -0.910156,0 l -1.291016,1.2910156 a 1.9285713,1.9285713 0 0 0 -0.1875,-0.078125 V 1.6649414 c 4e-6,-0.3561424 -0.286432,-0.6445312 -0.642574,-0.6445312 z" /><g
       transform="matrix(1.6197975,0,0,1.6197975,18.146089,-4.2647326)"
       id="g4993"><rect
         ry="0.39687499"
         rx="0.39687499"
         y="0.26458335"
         x="2.6458335"
         height="0.79374999"
         width="5.5562501"
         id="rect4900-2"
         style="fill:#ff3300;fill-opacity:1;stroke:none;stroke-width:0.229136;stroke-linecap:round;stroke-linejoin:round;stroke-miterlimit:4;stroke-dasharray:none;stroke-opacity:1"
         transform="rotate(90)" /><rect
         ry="0.39687499"
         rx="0.39687499"
         y="3.9061642"
         x="0.72176301"
         height="0.79374999"
         width="5.2916665"
         id="rect4900-0"
         style="fill:#ff3300;fill-opacity:1;stroke:none;stroke-width:0.229136;stroke-linecap:round;stroke-linejoin:round;stroke-miterlimit:4;stroke-dasharray:none;stroke-opacity:1"
         transform="rotate(45)" /><rect
         style="fill:#ff3300;fill-opacity:1;stroke:none;stroke-width:0.229136;stroke-linecap:round;stroke-linejoin:round;stroke-miterlimit:4;stroke-dasharray:none;stroke-opacity:1"
         id="rect4900"
         width="5.5562501"
         height="0.79374999"
         x="-3.4395831"
         y="5.0270834"
         rx="0.39687499"
         ry="0.39687499" /><rect
         transform="matrix(-0.70710678,0.70710678,0.70710678,0.70710678,0,0)"
         style="fill:#ff3300;fill-opacity:1;stroke:none;stroke-width:0.229136;stroke-linecap:round;stroke-linejoin:round;stroke-miterlimit:4;stroke-dasharray:none;stroke-opacity:1"
         id="rect4900-0-1"
         width="5.2916665"
         height="0.79374999"
         x="1.6572058"
         y="2.9707212"
         rx="0.39687499"
         ry="0.39687499" /><g
         id="g4898"
         transform="translate(-1.1906254)"><circle
           r="1.190625"
           cy="5.4239583"
           cx="0.52916735"
           id="path4879"
           style="fill:#ffcc00;fill-opacity:1;stroke:none;stroke-width:0.264583;stroke-linecap:round;stroke-linejoin:round;stroke-miterlimit:4;stroke-dasharray:none;stroke-opacity:1" /><circle
           style="fill:#ffff99;fill-opacity:1;stroke:none;stroke-width:0.264583;stroke-linecap:round;stroke-linejoin:round;stroke-miterlimit:4;stroke-dasharray:none;stroke-opacity:1"
           id="path4879-9"
           cx="0.52916735"
           cy="5.4239583"
           r="0.39687493" /></g></g></g></svg>
