<?xml version="1.0" encoding="UTF-8" standalone="no"?>
<svg
   version="1.1"
   viewBox="0 0 16 16"
   id="svg23"
   sodipodi:docname="h.svg"
   inkscape:version="1.3.2 (1:1.3.2+202311252150+091e20ef0f)"
   xmlns:inkscape="http://www.inkscape.org/namespaces/inkscape"
   xmlns:sodipodi="http://sodipodi.sourceforge.net/DTD/sodipodi-0.dtd"
   xmlns="http://www.w3.org/2000/svg"
   xmlns:svg="http://www.w3.org/2000/svg">
  <sodipodi:namedview
     id="namedview23"
     pagecolor="#ffffff"
     bordercolor="#000000"
     borderopacity="0.25"
     inkscape:showpageshadow="2"
     inkscape:pageopacity="0.0"
     inkscape:pagecheckerboard="0"
     inkscape:deskcolor="#d1d1d1"
     inkscape:zoom="112.4375"
     inkscape:cx="8"
     inkscape:cy="8"
     inkscape:window-width="3840"
     inkscape:window-height="2058"
     inkscape:window-x="0"
     inkscape:window-y="0"
     inkscape:window-maximized="1"
     inkscape:current-layer="svg23" />
  <defs
     id="defs14">
    <filter
       id="filter963"
       x="-0.16536761"
       y="-0.13230474"
       width="1.3307352"
       height="1.2646095"
       color-interpolation-filters="sRGB">
      <feGaussianBlur
         stdDeviation="0.82686947"
         id="feGaussianBlur1" />
    </filter>
    <linearGradient
       id="linearGradient32816-3"
       x1="-28.683"
       x2="-38.225"
       y1="21.128"
       y2="9.0369"
       gradientUnits="userSpaceOnUse">
      <stop
         stop-color="#9cf"
         offset="0"
         id="stop1" />
      <stop
         stop-color="#fff"
         offset="1"
         id="stop2" />
    </linearGradient>
    <linearGradient
       id="linearGradient26952-6"
       x1="8.0956"
       x2="7.2706"
       y1="1.4188"
       y2=".45848"
       gradientTransform="matrix(1.5872 0 0 1.5872 -42.561 7.9305)"
       gradientUnits="userSpaceOnUse">
      <stop
         stop-color="#2da8ff"
         offset="0"
         id="stop3" />
      <stop
         stop-color="#74c0ff"
         offset="1"
         id="stop4" />
    </linearGradient>
    <linearGradient
       id="linearGradient57243-7"
       x1="-31.156"
       x2="-28.432"
       y1="10.5"
       y2="10.5"
       gradientTransform="translate(0 -.25)"
       gradientUnits="userSpaceOnUse">
      <stop
         stop-color="#0096fc"
         offset="0"
         id="stop5" />
      <stop
         stop-color="#0068ce"
         offset="1"
         id="stop6" />
    </linearGradient>
    <linearGradient
       id="linearGradient33220-5"
       x1="-30.932"
       x2="-28.932"
       y1="11"
       y2="11"
       gradientUnits="userSpaceOnUse">
      <stop
         stop-color="#ccd5ff"
         offset="0"
         id="stop7" />
      <stop
         stop-color="#aab3f5"
         offset="1"
         id="stop8" />
    </linearGradient>
    <linearGradient
       id="linearGradient19558-3"
       x1="-27.932"
       x2="-27.932"
       y1="21"
       y2="11.5"
       gradientUnits="userSpaceOnUse">
      <stop
         stop-color="#a5bdee"
         offset="0"
         id="stop9" />
      <stop
         stop-color="#bac9f4"
         offset="1"
         id="stop10" />
    </linearGradient>
    <linearGradient
       id="linearGradient10737-5"
       x1="-37.932"
       x2="-28.932"
       y1="22"
       y2="22"
       gradientUnits="userSpaceOnUse">
      <stop
         stop-color="#9dadd9"
         offset="0"
         id="stop11" />
      <stop
         stop-color="#8b8eb8"
         offset="1"
         id="stop12" />
    </linearGradient>
    <linearGradient
       id="linearGradient1922-6"
       x1="-38.932"
       x2="-38.932"
       y1="22.025"
       y2="14.78"
       gradientUnits="userSpaceOnUse">
      <stop
         stop-color="#6e7bae"
         offset="0"
         id="stop13" />
      <stop
         stop-color="#87a9dc"
         offset="1"
         id="stop14" />
    </linearGradient>
  </defs>
  <path
     d="m2.9 0.90009v14.499a0.49998 0.49998 0 0 0 0.0625 0.2246 0.49998 0.49998 0 0 0 0.03516 0.05469 0.49998 0.49998 0 0 0 0.12109 0.12304 0.49998 0.49998 0 0 0 0.05664 0.03711 0.49998 0.49998 0 0 0 0.2246 0.06055h11a0.49998 0.49998 0 0 0 0.49998-0.49998v-10.978a0.49998 0.49998 0 0 0-0.01953-0.1621 0.49998 0.49998 0 0 0-2e-3 -0.0059 0.49998 0.49998 0 0 0-0.02344-0.06055 0.49998 0.49998 0 0 0-0.01953-0.03711 0.49998 0.49998 0 0 0-2e-3 -2e-3 0.49998 0.49998 0 0 0-0.01172-0.02344 0.49998 0.49998 0 0 0-0.0098-0.01367 0.49998 0.49998 0 0 0-0.0039-0.0039 0.49998 0.49998 0 0 0-0.04297-0.05274l-2.4823-2.9803a0.49998 0.49998 0 0 0 0-0.00195 0.49998 0.49998 0 0 0-0.0957-0.085933 0.49998 0.49998 0 0 0-0.0039-0.00195 0.49998 0.49998 0 0 0-0.2246-0.08398 0.49998 0.49998 0 0 0-0.0293-0.00391 0.49998 0.49998 0 0 0-0.0293-0.00195z"
     fill-rule="evenodd"
     filter="url(#filter963)"
     opacity=".83"
     stop-color="#000000"
     stroke-linecap="round"
     stroke-linejoin="round"
     id="path14"
     style="filter:url(#filter963);opacity:0.75" />
  <g
     transform="translate(41.438 -7.4946)"
     id="g23">
    <path
       d="m-38.932 8h8.5041l2.4959 3.1204v10.88h-11z"
       fill="url(#linearGradient32816-3)"
       fill-rule="evenodd"
       stop-color="#000000"
       stroke-linecap="round"
       stroke-linejoin="round"
       id="path15" />
    <path
       d="m-31.432 8.1405v2.8595h3.5l-3.0801-2.8595z"
       fill="url(#linearGradient26952-6)"
       id="path16" />
    <path
       d="m-31.432 10.25h3"
       fill="none"
       stroke="url(#linearGradient57243-7)"
       stroke-width=".5"
       id="path17" />
    <path
       d="m-27.932 11h-3.5"
       fill="#aab3f5"
       stroke="url(#linearGradient33220-5)"
       stroke-width="1px"
       id="path18" />
    <g
       fill="none"
       stroke-linecap="round"
       stroke-width="1px"
       id="g22">
      <path
         d="m-27.932 22v-11"
         stroke="url(#linearGradient19558-3)"
         id="path19" />
      <path
         d="m-38.932 22h11"
         stroke="url(#linearGradient10737-5)"
         id="path20" />
      <path
         d="m-30.432 8h-8.5v14"
         stroke="url(#linearGradient1922-6)"
         id="path21" />
      <path
         d="m-30.432 8 2.5 3"
         stroke="#87a9dc"
         id="path22" />
    </g>
  </g>
  <path
     d="m6.9701 5.9305c0.27245-0.30838 0.74251-0.46108 1.4162-0.46108 1.3802 0 2.0719 0.74551 2.0719 2.2365v3.7994h-1.4162v-3.7575c0-0.39521-0.05988-0.66766-0.18263-0.81437-0.11976-0.1497-0.32934-0.22455-0.62275-0.22455-0.42814 0-0.8503 0.24551-1.2665 0.73653v4.0599h-1.4162v-8h1.4162z"
     fill="#004fae"
     fill-rule="evenodd"
     stroke-linejoin="round"
     stroke-width=".084498"
     id="path23" />
</svg>
