<?xml version="1.0" encoding="UTF-8" standalone="no"?>
<svg
   version="1.1"
   viewBox="0 0 16 16"
   id="svg14"
   sodipodi:docname="help-suggestion.svg"
   width="16"
   height="16"
   inkscape:version="1.3.2 (1:1.3.2+202311252150+091e20ef0f)"
   xml:space="preserve"
   xmlns:inkscape="http://www.inkscape.org/namespaces/inkscape"
   xmlns:sodipodi="http://sodipodi.sourceforge.net/DTD/sodipodi-0.dtd"
   xmlns="http://www.w3.org/2000/svg"
   xmlns:svg="http://www.w3.org/2000/svg"><sodipodi:namedview
     id="namedview14"
     pagecolor="#ffffff"
     bordercolor="#000000"
     borderopacity="0.25"
     inkscape:showpageshadow="2"
     inkscape:pageopacity="0.0"
     inkscape:pagecheckerboard="0"
     inkscape:deskcolor="#d1d1d1"
     inkscape:zoom="56.21875"
     inkscape:cx="11.908838"
     inkscape:cy="11.499722"
     inkscape:window-width="3840"
     inkscape:window-height="2058"
     inkscape:window-x="3840"
     inkscape:window-y="0"
     inkscape:window-maximized="1"
     inkscape:current-layer="svg14"
     showgrid="true"><inkscape:grid
       id="grid1"
       units="px"
       originx="0"
       originy="0"
       spacingx="1"
       spacingy="1"
       empcolor="#0099e5"
       empopacity="0.30196078"
       color="#0099e5"
       opacity="0.14901961"
       empspacing="5"
       dotted="false"
       gridanglex="30"
       gridanglez="30"
       visible="true" /></sodipodi:namedview><defs
     id="defs9"><radialGradient
       id="radialGradient1141-3"
       cx="33.141998"
       cy="22.190001"
       r="14.5"
       gradientTransform="matrix(0.76989,0.98375,-0.95772,0.74952,-109.65,53.927)"
       gradientUnits="userSpaceOnUse"><stop
         stop-color="#36c"
         offset="0"
         id="stop1" /><stop
         stop-color="#3466cc"
         offset=".82759"
         id="stop2" /><stop
         stop-color="#2f5fbd"
         offset="1"
         id="stop3" /></radialGradient><radialGradient
       id="radialGradient1237"
       cx="33.743"
       cy="27.531"
       r="14.42"
       gradientTransform="matrix(2.5046,-0.42644,0.20304,1.1925,-194.99,85.584)"
       gradientUnits="userSpaceOnUse"><stop
         stop-color="#36c"
         stop-opacity="0"
         offset="0"
         id="stop4" /><stop
         stop-color="#36c"
         stop-opacity="0"
         offset=".5"
         id="stop5" /><stop
         stop-color="#cbfeff"
         offset="1"
         id="stop6" /></radialGradient><linearGradient
       id="linearGradient1534"
       x1="-212.25"
       x2="-189.72"
       y1="92.586998"
       y2="128.03999"
       gradientTransform="matrix(5.33,0,0,5.33,861.33,-443.42)"
       gradientUnits="userSpaceOnUse"><stop
         stop-color="#fff"
         offset="0"
         id="stop7" /><stop
         stop-color="#f0f0f0"
         offset="1"
         id="stop8" /></linearGradient><filter
       id="filter1576"
       x="-0.059381627"
       y="-0.052579633"
       width="1.1187633"
       height="1.1051593"
       color-interpolation-filters="sRGB"><feGaussianBlur
         stdDeviation="3.7342383"
         id="feGaussianBlur8" /></filter><filter
       id="filter1677"
       x="-0.04800031"
       y="-0.04800031"
       width="1.0960006"
       height="1.0960006"
       color-interpolation-filters="sRGB"><feGaussianBlur
         stdDeviation="4.8020312"
         id="feGaussianBlur9" /></filter><filter
       inkscape:collect="always"
       style="color-interpolation-filters:sRGB"
       id="filter24"
       x="-0.14951667"
       y="-0.14456665"
       width="1.2990333"
       height="1.2891333"><feGaussianBlur
         inkscape:collect="always"
         stdDeviation="0.93460083"
         id="feGaussianBlur24" /></filter></defs><path
     id="path23"
     style="color:#000000;fill:#000000;fill-opacity:1;fill-rule:evenodd;stroke-linejoin:round;-inkscape-stroke:none;filter:url(#filter24);opacity:0.75"
     d="m 8,0.5 c -3.8642589,0 -7,3.1357411 -7,7 0,3.864259 3.1357411,7 7,7 0.1386689,0 0.275428,-0.0057 0.4121094,-0.01367 0.015998,0.02039 0.033931,0.03979 0.052734,0.05859 0.2520632,0.252063 0.6580929,0.252063 0.9101562,0 L 9.6074219,14.3125 C 10.040367,14.210587 10.45763,14.066875 10.855469,13.888672 v 1.484375 c 0,0.356471 0.286107,0.642578 0.642578,0.642578 0.356471,0 0.644531,-0.286107 0.644531,-0.642578 v -2.044922 a 1.9303519,1.9303519 0 0 0 0.185547,-0.07617 l 1.292969,1.292969 c 0.252063,0.252063 0.658093,0.252063 0.910156,0 0.252063,-0.252063 0.252063,-0.658093 0,-0.910156 L 13.238281,12.341797 A 1.9303519,1.9303519 0 0 0 13.3125,12.15625 h 2.046875 c 0.356471,0 0.642578,-0.28806 0.642578,-0.644531 0,-0.356472 -0.286107,-0.642578 -0.642578,-0.642578 H 14.134766 C 14.68526,9.869345 15,8.7213549 15,7.5 15,3.6357411 11.864259,0.5 8,0.5 Z" /><g
     transform="matrix(0.05710906,0,0,0.05710906,19.293592,-1.1243345)"
     stroke-width="5.105"
     id="g13"
     style="fill-rule:evenodd"><circle
       cx="-206.50999"
       cy="142.25999"
       r="120.02"
       fill="url(#linearGradient1534)"
       stop-color="#000000"
       stroke="#d5e2f9"
       stroke-linejoin="round"
       stroke-width="5.105"
       id="circle9"
       style="fill:url(#linearGradient1534)" /><path
       d="m -203.57,59.171 c -52.386,0 -73.23,33.674 -74.883,79.993 -0.082,1.5957 -0.12305,3.1932 -0.12305,4.791 -2.9e-4,51.543 23.525,85.665 75.068,85.665 51.543,2.9e-4 75.857,-34.307 75.857,-85.85 -6e-4,-1.9526 -0.0625,-3.9048 -0.18555,-5.8535 -2.2002,-46.165 -23.877,-78.746 -75.733,-78.746 z m 2.7784,10.395 c 10.194,0 20.696,2.7443 29.086,9.7441 8.39,6.9998 13.73,18.4 13.73,31.543 0,0.71599 -0.0272,1.4194 -0.0664,2.1172 -0.008,0.14552 -0.0156,0.29081 -0.0254,0.43555 -0.0465,0.68608 -0.10511,1.3663 -0.1875,2.0352 -7.9e-4,0.006 -0.001,0.0131 -0.002,0.0195 -0.004,0.0283 -0.0101,0.0557 -0.0137,0.084 -0.0791,0.62741 -0.17822,1.2448 -0.28711,1.8574 -0.0302,0.16981 -0.0613,0.33912 -0.0937,0.50782 -0.12308,0.64095 -0.25643,1.2772 -0.41016,1.9023 -1.5e-4,6.1e-4 1.5e-4,10e-4 0,0.002 -6.4e-4,0.003 -0.001,0.005 -0.002,0.008 -0.14845,0.60297 -0.31505,1.1965 -0.49024,1.7852 -0.0593,0.19929 -0.1213,0.39802 -0.18359,0.5957 -0.0749,0.23787 -0.1573,0.47147 -0.23633,0.70704 -0.21665,0.6453 -0.44731,1.2817 -0.69336,1.9102 -0.082,0.2095 -0.163,0.41929 -0.24805,0.62696 -0.65909,1.6083 -1.4059,3.1638 -2.2266,4.668 -0.0621,0.11396 -0.12651,0.22646 -0.18945,0.33985 -0.37227,0.67028 -0.75827,1.3314 -1.1562,1.9824 -0.0628,0.10272 -0.12414,0.20634 -0.1875,0.30859 -0.93222,1.5039 -1.925,2.9604 -2.959,4.3691 -0.009,0.0116 -0.0169,0.0236 -0.0254,0.0352 -0.017,0.0232 -0.0357,0.0452 -0.0527,0.0684 -0.41385,0.56191 -0.83509,1.1121 -1.2598,1.6602 -0.55902,0.72145 -1.1254,1.4301 -1.6973,2.1289 -2.3594,2.8832 -4.7952,5.586 -7.0742,8.1543 -4.3576,4.9108 -8.4934,9.3027 -11.139,12.586 -2.6452,3.2833 -2.582,6.0396 -2.582,2.4258 v 15.99 h -23.984 v -15.99 c 0,-8.9438 4.257,-12.959 7.8906,-17.469 1.4107,-1.751 2.9238,-3.4883 4.4668,-5.2246 0.0141,-2e-5 0.0269,2e-5 0.041,0 2.43,-2.7344 4.9149,-5.4687 7.3691,-8.2344 8.0284,-9.0475 13.721,-18.672 13.721,-22.393 0,-7.3581 -2.0873,-10.604 -5.1113,-13.127 -3.024,-2.523 -7.9246,-4.1738 -13.721,-4.1738 -11.187,0 -20.776,6.1286 -23.891,17.291 l -23.1,-6.4551 c 6.0666,-21.74 26.198,-34.822 46.99,-34.822 z m -2.9453,123.92 h 0.01 c 0.0905,-7.7e-4 0.18099,-7.7e-4 0.27149,0 8.8312,-1.9e-4 15.99,7.159 15.99,15.99 1.9e-4,8.8312 -7.159,15.99 -15.99,15.99 -8.8312,1.9e-4 -15.99,-7.159 -15.99,-15.99 -0.002,-8.7226 6.9878,-15.837 15.709,-15.99 z"
       fill="#212121"
       filter="url(#filter1576)"
       stop-color="#000000"
       id="path10" /><g
       transform="matrix(5.33,0,0,5.33,284.98,-410.8)"
       stroke-width="0.95778"
       id="g12"><path
         transform="translate(12.568)"
         d="m -104.84,86.256 a 17.51,17.51 0 0 0 -17.453,17.51 17.51,17.51 0 0 0 17.51,17.51 17.51,17.51 0 0 0 17.51,-17.51 17.51,17.51 0 0 0 -17.51,-17.51 17.51,17.51 0 0 0 -0.0566,0 z m 0.56641,3.4941 c 1.9126,0 3.883,0.51482 5.457,1.8281 1.574,1.31328 2.5762,3.4522 2.5762,5.918 0,3.1483 -2.0738,5.3448 -3.709,7.1875 -0.81757,0.92136 -1.5935,1.7453 -2.0898,2.3613 -0.49629,0.61601 -0.48437,1.1331 -0.48437,0.45508 v 3 h -4.5 v -3 c 0,-1.678 0.79873,-2.4312 1.4805,-3.2773 0.68174,-0.84617 1.4754,-1.6767 2.2285,-2.5254 1.5063,-1.6975 2.5742,-3.5031 2.5742,-4.2012 0,-1.3805 -0.39163,-1.9895 -0.95899,-2.4629 -0.56735,-0.47337 -1.4868,-0.7832 -2.5742,-0.7832 -2.099,0 -3.898,1.1499 -4.4824,3.2441 l -4.334,-1.2109 c 1.1382,-4.0788 4.9154,-6.5332 8.8164,-6.5332 z m -0.55274,23.25 a 3,3 0 0 1 0.002,0 3,3 0 0 1 0.0508,0 3,3 0 0 1 3,3 3,3 0 0 1 -3,3 3,3 0 0 1 -3,-3 3,3 0 0 1 2.9473,-3 z"
         fill="url(#radialGradient1141-3)"
         stop-color="#000000"
         id="path11"
         style="fill:url(#radialGradient1141-3)" /><path
         transform="translate(12.568)"
         d="m -104.78,86.233 c -10.043,0 -17.502,8.2938 -17.502,17.204 0,0 7.7415,-0.18129 17.584,-0.19531 0.45591,-0.51303 0.92235,-1.026 1.3828,-1.5449 1.5063,-1.6975 2.5742,-3.5031 2.5742,-4.2012 0,-1.3805 -0.39163,-1.9895 -0.95899,-2.4629 -0.56735,-0.47337 -1.4868,-0.7832 -2.5742,-0.7832 -2.099,0 -3.898,1.1499 -4.4824,3.2441 l -4.334,-1.2109 c 1.1382,-4.0788 4.9154,-6.5332 8.8164,-6.5332 1.9126,0 3.883,0.51482 5.457,1.8281 1.574,1.31328 2.5762,3.4522 2.5762,5.918 0,2.3714 -1.1756,4.2031 -2.4551,5.75 3.7172,0.0273 7.579,0.082 11.406,0.19141 0,-8.9654 -7.4735,-17.204 -17.49,-17.204 z"
         color="#000000"
         color-rendering="auto"
         dominant-baseline="auto"
         fill="url(#radialGradient1237)"
         image-rendering="auto"
         shape-rendering="auto"
         solid-color="#000000"
         stop-color="#000000"
         style="font-variant-ligatures:normal;font-variant-position:normal;font-variant-caps:normal;font-variant-numeric:normal;font-variant-alternates:normal;font-variant-east-asian:normal;font-feature-settings:normal;font-variation-settings:normal;text-indent:0;text-decoration-line:none;text-decoration-style:solid;text-decoration-color:#000000;text-transform:none;text-orientation:mixed;white-space:normal;shape-padding:0;shape-margin:0;inline-size:0;isolation:auto;mix-blend-mode:normal;fill:url(#radialGradient1237)"
         id="path12" /></g></g><g
     transform="matrix(1.621293,0,0,1.621293,12.070572,2.2183287)"
     id="g4993"><rect
       ry="0.39687499"
       rx="0.39687499"
       y="0.26458335"
       x="2.6458335"
       height="0.79374999"
       width="5.5562501"
       id="rect4900-2"
       style="fill:#ff3300;fill-opacity:1;stroke:none;stroke-width:0.229136;stroke-linecap:round;stroke-linejoin:round;stroke-miterlimit:4;stroke-dasharray:none;stroke-opacity:1"
       transform="rotate(90)" /><rect
       ry="0.39687499"
       rx="0.39687499"
       y="3.9061642"
       x="0.72176301"
       height="0.79374999"
       width="5.2916665"
       id="rect4900-0"
       style="fill:#ff3300;fill-opacity:1;stroke:none;stroke-width:0.229136;stroke-linecap:round;stroke-linejoin:round;stroke-miterlimit:4;stroke-dasharray:none;stroke-opacity:1"
       transform="rotate(45)" /><rect
       style="fill:#ff3300;fill-opacity:1;stroke:none;stroke-width:0.229136;stroke-linecap:round;stroke-linejoin:round;stroke-miterlimit:4;stroke-dasharray:none;stroke-opacity:1"
       id="rect4900"
       width="5.5562501"
       height="0.79374999"
       x="-3.4395831"
       y="5.0270834"
       rx="0.39687499"
       ry="0.39687499" /><rect
       transform="matrix(-0.70710678,0.70710678,0.70710678,0.70710678,0,0)"
       style="fill:#ff3300;fill-opacity:1;stroke:none;stroke-width:0.229136;stroke-linecap:round;stroke-linejoin:round;stroke-miterlimit:4;stroke-dasharray:none;stroke-opacity:1"
       id="rect4900-0-1"
       width="5.2916665"
       height="0.79374999"
       x="1.6572058"
       y="2.9707212"
       rx="0.39687499"
       ry="0.39687499" /><g
       id="g4898"
       transform="translate(-1.1906254)"><circle
         r="1.190625"
         cy="5.4239583"
         cx="0.52916735"
         id="path4879"
         style="fill:#ffcc00;fill-opacity:1;stroke:none;stroke-width:0.264583;stroke-linecap:round;stroke-linejoin:round;stroke-miterlimit:4;stroke-dasharray:none;stroke-opacity:1" /><circle
         style="fill:#ffff99;fill-opacity:1;stroke:none;stroke-width:0.264583;stroke-linecap:round;stroke-linejoin:round;stroke-miterlimit:4;stroke-dasharray:none;stroke-opacity:1"
         id="path4879-9"
         cx="0.52916735"
         cy="5.4239583"
         r="0.39687493" /></g></g></svg>
