<?xml version="1.0" encoding="UTF-8" standalone="no"?>
<!-- Created with Inkscape (http://www.inkscape.org/) -->

<svg
   version="1.1"
   id="svg335"
   xml:space="preserve"
   width="16"
   height="16"
   sodipodi:docname="chain.svg"
   inkscape:version="1.2.2 (b0a8486541, 2022-12-01)"
   xmlns:inkscape="http://www.inkscape.org/namespaces/inkscape"
   xmlns:sodipodi="http://sodipodi.sourceforge.net/DTD/sodipodi-0.dtd"
   xmlns:xlink="http://www.w3.org/1999/xlink"
   xmlns="http://www.w3.org/2000/svg"
   xmlns:svg="http://www.w3.org/2000/svg"><defs
     id="defs339"><linearGradient
       id="linearGradient1819"
       inkscape:collect="always"><stop
         id="stop1815"
         offset="0"
         style="stop-color:#ffffff;stop-opacity:1;" /><stop
         id="stop1817"
         offset="1"
         style="stop-color:#6666cc;stop-opacity:1" /></linearGradient><linearGradient
       inkscape:collect="always"
       id="linearGradient1813"><stop
         style="stop-color:#9999ff;stop-opacity:1"
         offset="0"
         id="stop1809" /><stop
         style="stop-color:#003399;stop-opacity:1"
         offset="1"
         id="stop1811" /></linearGradient><linearGradient
       gradientTransform="matrix(-0.06521739,0,0,0.06521739,8.7115318,-5.4754161)"
       gradientUnits="userSpaceOnUse"
       y2="240.85242"
       x2="45.816982"
       y1="178.55479"
       x1="107.48401"
       id="linearGradient1273"
       xlink:href="#linearGradient1819"
       inkscape:collect="always" /><linearGradient
       gradientTransform="matrix(-0.06521739,0,0,0.06521739,7.8918985,-5.4754161)"
       gradientUnits="userSpaceOnUse"
       y2="240.87659"
       x2="26.450947"
       y1="170.95531"
       x1="90.645256"
       id="linearGradient1316"
       xlink:href="#linearGradient1813"
       inkscape:collect="always" /><linearGradient
       inkscape:collect="always"
       xlink:href="#linearGradient1819"
       id="linearGradient1273-2"
       x1="32.582561"
       y1="180.72769"
       x2="114.92464"
       y2="237.74887"
       gradientUnits="userSpaceOnUse"
       gradientTransform="matrix(0.06521739,0,0,0.06521739,6.4623809,-5.4754161)" /><linearGradient
       gradientUnits="userSpaceOnUse"
       y2="211.31137"
       x2="181.1674"
       y1="201.56973"
       x1="89.114876"
       id="linearGradient1308"
       xlink:href="#linearGradient1819"
       inkscape:collect="always"
       gradientTransform="matrix(0.06521739,0,0,0.06521739,-1.0376189,-5.4754161)" /><linearGradient
       gradientUnits="userSpaceOnUse"
       y2="218.53453"
       x2="180.96582"
       y1="194.74399"
       x1="88.308655"
       id="linearGradient1357"
       xlink:href="#linearGradient1813"
       inkscape:collect="always"
       gradientTransform="matrix(0.06521739,0,0,0.06521739,-1.0376189,-5.4754161)" /><filter
       inkscape:collect="always"
       style="color-interpolation-filters:sRGB"
       id="filter1791"
       x="-0.10120086"
       y="-0.26852101"
       width="1.2024017"
       height="1.537042"><feGaussianBlur
         inkscape:collect="always"
         stdDeviation="0.6398352"
         id="feGaussianBlur1793" /></filter><linearGradient
       inkscape:collect="always"
       xlink:href="#linearGradient1813"
       id="linearGradient1807"
       x1="156.00182"
       y1="171.2469"
       x2="238.63846"
       y2="227.92976"
       gradientUnits="userSpaceOnUse"
       gradientTransform="matrix(0.06521739,0,0,0.06521739,-1.0376189,-5.4754161)" /><filter
       inkscape:collect="always"
       style="color-interpolation-filters:sRGB"
       id="filter2591"
       x="-0.097405015"
       y="-0.29948813"
       width="1.19481"
       height="1.5989763"><feGaussianBlur
         inkscape:collect="always"
         stdDeviation="0.2578601"
         id="feGaussianBlur2593" /></filter></defs><sodipodi:namedview
     id="namedview337"
     pagecolor="#ffffff"
     bordercolor="#666666"
     borderopacity="1.0"
     inkscape:showpageshadow="2"
     inkscape:pageopacity="0.0"
     inkscape:pagecheckerboard="0"
     inkscape:deskcolor="#d1d1d1"
     showgrid="false"
     inkscape:zoom="125.64872"
     inkscape:cx="9.3474891"
     inkscape:cy="8.9654717"
     inkscape:window-width="3840"
     inkscape:window-height="2061"
     inkscape:window-x="1280"
     inkscape:window-y="0"
     inkscape:window-maximized="1"
     inkscape:current-layer="svg335" /><path
     id="path1780"
     style="color:#000000;opacity:0.75;fill:#000000;fill-opacity:1;fill-rule:evenodd;stroke-width:0.5;stroke-linecap:square;-inkscape-stroke:none;filter:url(#filter1791)"
     d="m 3.3589795,5.6406044 c -1.5793899,0 -2.859375,1.2799852 -2.859375,2.859375 0,1.5793896 1.279985,2.8593746 2.859375,2.8593746 h 1.9550781 c 1.2147677,0 2.2516521,-0.75793 2.6660157,-1.8261715 h 0.2128906 c 0.4143637,1.0682415 1.4512483,1.8261715 2.6660151,1.8261715 h 1.955078 c 1.57939,0 2.859375,-1.279985 2.859375,-2.8593746 0,-1.5793899 -1.279985,-2.859375 -2.859375,-2.859375 h -1.955078 c -1.2147668,0 -2.2516514,0.7579299 -2.6660151,1.8261719 H 7.9800733 C 7.5657096,6.3985343 6.5288252,5.6406044 5.3140576,5.6406044 Z m 0,1.8046875 h 1.9550781 c 0.073554,0 0.1457799,0.00759 0.2148438,0.021484 H 5.3140576 c -0.5223141,4e-7 -0.9023437,0.4878263 -0.9023437,1.0332035 0,0.5453772 0.3800296,1.0332031 0.9023437,1.0332031 h 0.2148438 c -0.069064,0.013898 -0.1412898,0.021484 -0.2148438,0.021484 H 3.3589795 c -0.5884321,4e-7 -1.0546875,-0.4662552 -1.0546875,-1.0546871 0,-0.5884318 0.4662555,-1.0546875 1.0546875,-1.0546875 z m 7.4999995,0 h 1.955078 c 0.588433,0 1.054688,0.4662558 1.054688,1.0546875 0,0.5884319 -0.466255,1.0546875 -1.054688,1.0546875 h -1.955078 c -0.07355,0 -0.14578,-0.00759 -0.214844,-0.021484 h 0.541016 c 0.522314,0 0.902344,-0.4878259 0.902344,-1.0332031 0,-0.5453772 -0.38003,-1.0332031 -0.902344,-1.0332031 h -0.541016 c 0.06906,-0.013899 0.14129,-0.021484 0.214844,-0.021485 z" /><path
     id="rect1118"
     style="fill:url(#linearGradient1273);fill-opacity:1;fill-rule:evenodd;stroke:url(#linearGradient1316);stroke-width:0.5;stroke-linecap:square;stroke-miterlimit:4;stroke-dasharray:none;stroke-opacity:1"
     d="m 4.8152172,5.3913043 c 1.4452174,0 2.6086957,1.1634783 2.6086957,2.6086956 0,1.4452174 -1.1634783,2.6086961 -2.6086957,2.6086961 H 2.8586955 c -1.4452174,0 -2.60869551,-1.1634787 -2.60869551,-2.6086961 0,-1.4452173 1.16347811,-2.6086956 2.60869551,-2.6086956 z m 0,1.3043478 H 2.8586955 c -0.7226089,0 -1.3043478,0.5817392 -1.3043478,1.3043478 0,0.7226087 0.5817389,1.3043478 1.3043478,1.3043478 h 1.9565217 c 0.7226088,0 1.3043479,-0.5817391 1.3043479,-1.3043478 0,-0.7226086 -0.5817391,-1.3043478 -1.3043479,-1.3043478 z" /><path
     d="m 10.358695,5.3913043 c -1.4452169,0 -2.6086952,1.1634783 -2.6086952,2.6086956 0,1.4452174 1.1634783,2.6086961 2.6086952,2.6086961 h 1.956522 c 1.445217,0 2.608696,-1.1634787 2.608696,-2.6086961 0,-1.4452173 -1.163479,-2.6086956 -2.608696,-2.6086956 z m 0,1.3043478 h 1.956522 c 0.722609,0 1.304348,0.5817392 1.304348,1.3043478 0,0.7226087 -0.581739,1.3043478 -1.304348,1.3043478 h -1.956522 c -0.7226082,0 -1.3043474,-0.5817391 -1.3043474,-1.3043478 0,-0.7226086 0.5817392,-1.3043478 1.3043474,-1.3043478 z"
     style="fill:url(#linearGradient1273-2);fill-opacity:1;fill-rule:evenodd;stroke:url(#linearGradient1807);stroke-width:0.5;stroke-linecap:square;stroke-miterlimit:4;stroke-dasharray:none;stroke-opacity:1"
     id="rect1118-2" /><path
     id="path1825"
     style="color:#000000;fill:#000000;fill-opacity:1;fill-rule:evenodd;stroke-width:0.5;stroke-linecap:square;stroke-dasharray:none;-inkscape-stroke:none;filter:url(#filter2591);opacity:0.75"
     d="m 5.849344,7.4669997 c -0.5223144,0 -0.902344,0.4878261 -0.902344,1.0332033 0,0.5453771 0.3800296,1.0332032 0.902344,1.0332032 h 4.548828 c 0.522314,0 0.902343,-0.4878261 0.902343,-1.0332032 0,-0.5453772 -0.380029,-1.0332033 -0.902343,-1.0332033 z" /><rect
     style="fill:url(#linearGradient1308);fill-opacity:1;fill-rule:evenodd;stroke:url(#linearGradient1357);stroke-width:0.5;stroke-linecap:square;stroke-miterlimit:4;stroke-dasharray:none;stroke-opacity:1"
     id="rect1205"
     width="5.8543062"
     height="1.5652174"
     x="4.6969466"
     y="7.2173553"
     rx="0.65217388"
     ry="0.78260869" /><inkscape:clipboard
     style="font-variation-settings:normal;opacity:1;vector-effect:none;fill:url(#linearGradient1308);fill-opacity:1;stroke-width:5;stroke-linecap:square;stroke-linejoin:miter;stroke-miterlimit:4;stroke-dasharray:none;stroke-dashoffset:0;stroke-opacity:1;-inkscape-stroke:none;stop-color:#000000;stop-opacity:1;stroke:url(#linearGradient1357)"
     min="12.961498,159.66541"
     max="242.9615,244.66541"
     geom-min="15.461498,162.16541"
     geom-max="240.4615,242.16541" /></svg>
