<?xml version="1.0" encoding="UTF-8" standalone="no"?>
<svg
   inkscape:export-ydpi="96"
   inkscape:export-xdpi="96"
   inkscape:export-filename="/media/klapeto/Αρχεία/WindowsXP Theme/Vectors/RASTER/index.png"
   sodipodi:docname="interface-implement.svg"
   inkscape:version="1.3.2 (1:1.3.2+202311252150+091e20ef0f)"
   id="svg8"
   version="1.1"
   viewBox="0 0 16 16"
   height="16"
   width="16"
   xmlns:inkscape="http://www.inkscape.org/namespaces/inkscape"
   xmlns:sodipodi="http://sodipodi.sourceforge.net/DTD/sodipodi-0.dtd"
   xmlns:xlink="http://www.w3.org/1999/xlink"
   xmlns="http://www.w3.org/2000/svg"
   xmlns:svg="http://www.w3.org/2000/svg"
   xmlns:rdf="http://www.w3.org/1999/02/22-rdf-syntax-ns#"
   xmlns:cc="http://creativecommons.org/ns#"
   xmlns:dc="http://purl.org/dc/elements/1.1/">
  <defs
     id="defs2">
    <linearGradient
       id="linearGradient6"
       inkscape:collect="always">
      <stop
         id="stop5"
         offset="0"
         style="stop-color:#0083d7;stop-opacity:1" />
      <stop
         id="stop6"
         offset="1"
         style="stop-color:#003399;stop-opacity:1" />
    </linearGradient>
    <linearGradient
       id="linearGradient4"
       inkscape:collect="always">
      <stop
         id="stop3"
         offset="0"
         style="stop-color:#0083d7;stop-opacity:1" />
      <stop
         id="stop4"
         offset="1"
         style="stop-color:#003399;stop-opacity:1" />
    </linearGradient>
    <linearGradient
       id="linearGradient2"
       inkscape:collect="always">
      <stop
         id="stop1"
         offset="0"
         style="stop-color:#0099ff;stop-opacity:1" />
      <stop
         id="stop2"
         offset="1"
         style="stop-color:#99ccff;stop-opacity:0" />
    </linearGradient>
    <linearGradient
       id="linearGradient1260"
       inkscape:collect="always">
      <stop
         id="stop1256"
         offset="0"
         style="stop-color:#0083d7;stop-opacity:1" />
      <stop
         id="stop1258"
         offset="1"
         style="stop-color:#003399;stop-opacity:1" />
    </linearGradient>
    <linearGradient
       id="linearGradient1214"
       inkscape:collect="always">
      <stop
         id="stop1210"
         offset="0"
         style="stop-color:#0099ff;stop-opacity:1" />
      <stop
         id="stop1212"
         offset="1"
         style="stop-color:#99ccff;stop-opacity:0" />
    </linearGradient>
    <linearGradient
       id="linearGradient1144"
       inkscape:collect="always">
      <stop
         id="stop1140"
         offset="0"
         style="stop-color:#ffffff;stop-opacity:1" />
      <stop
         style="stop-color:#b4e2ff;stop-opacity:1"
         offset="0.5"
         id="stop1148" />
      <stop
         id="stop1150"
         offset="0.94999999"
         style="stop-color:#99ccff;stop-opacity:1" />
      <stop
         id="stop1142"
         offset="1"
         style="stop-color:#0099ff;stop-opacity:1" />
    </linearGradient>
    <linearGradient
       id="linearGradient986"
       inkscape:collect="always">
      <stop
         id="stop982"
         offset="0"
         style="stop-color:#ffffff;stop-opacity:1" />
      <stop
         style="stop-color:#99ccff;stop-opacity:1"
         offset="0.5"
         id="stop992" />
      <stop
         id="stop984"
         offset="1"
         style="stop-color:#0099ff;stop-opacity:1" />
    </linearGradient>
    <linearGradient
       gradientUnits="userSpaceOnUse"
       y2="158.32126"
       x2="156.42662"
       y1="153.6647"
       x1="151.61974"
       id="linearGradient980"
       xlink:href="#linearGradient1260"
       inkscape:collect="always"
       gradientTransform="matrix(0.45251549,0,0,0.45251549,-55.316509,-66.592416)" />
    <radialGradient
       gradientTransform="matrix(0.35469056,0.35018964,-0.31792712,0.32201338,8.6856257,-99.777158)"
       gradientUnits="userSpaceOnUse"
       r="4"
       fy="154.3755"
       fx="153.03362"
       cy="154.3755"
       cx="153.03362"
       id="radialGradient990"
       xlink:href="#linearGradient986"
       inkscape:collect="always" />
    <linearGradient
       gradientUnits="userSpaceOnUse"
       y2="161.69122"
       x2="181.38327"
       y1="151.3634"
       x1="162.5125"
       id="linearGradient1146"
       xlink:href="#linearGradient1144"
       inkscape:collect="always"
       gradientTransform="matrix(0.45251549,0,0,0.45251549,-55.316509,-66.854994)" />
    <linearGradient
       gradientUnits="userSpaceOnUse"
       y2="156"
       x2="162.5677"
       y1="156"
       x1="155.0677"
       id="linearGradient1158"
       xlink:href="#linearGradient6"
       inkscape:collect="always"
       gradientTransform="matrix(0.45251549,0,0,0.45251549,-55.299765,-66.592415)" />
    <linearGradient
       gradientUnits="userSpaceOnUse"
       y2="156.5"
       x2="182.5677"
       y1="156.5"
       x1="161.5677"
       id="linearGradient1180"
       xlink:href="#linearGradient4"
       inkscape:collect="always"
       gradientTransform="matrix(0.45251549,0,0,0.45251549,-55.316509,-66.854994)" />
    <linearGradient
       gradientUnits="userSpaceOnUse"
       y2="156"
       x2="180.0677"
       y1="156"
       x1="181.5677"
       id="linearGradient1216"
       xlink:href="#linearGradient2"
       inkscape:collect="always"
       gradientTransform="matrix(0.45251549,0,0,0.45251549,-55.316509,-66.854994)" />
    <linearGradient
       gradientTransform="matrix(0,0.45251549,-0.45251549,0,91.555407,-75.935944)"
       inkscape:collect="always"
       xlink:href="#linearGradient1214"
       id="linearGradient1216-6"
       x1="181.85866"
       y1="156"
       x2="180.0677"
       y2="156"
       gradientUnits="userSpaceOnUse" />
    <linearGradient
       inkscape:collect="always"
       xlink:href="#linearGradient893"
       id="linearGradient2524"
       x1="179.43341"
       y1="219.34944"
       x2="73.063965"
       y2="72.675407"
       gradientUnits="userSpaceOnUse"
       gradientTransform="matrix(0.03367852,0,0,0.03367852,11.886214,6.5987838)" />
    <linearGradient
       inkscape:collect="always"
       id="linearGradient893">
      <stop
         style="stop-color:#0066cc;stop-opacity:1"
         offset="0"
         id="stop889" />
      <stop
         id="stop899"
         offset="0.5"
         style="stop-color:#0066cc;stop-opacity:1" />
      <stop
         style="stop-color:#57b6ff;stop-opacity:1"
         offset="1"
         id="stop891" />
    </linearGradient>
    <filter
       inkscape:collect="always"
       style="color-interpolation-filters:sRGB"
       id="filter3"
       x="-0.14928296"
       y="-0.1447858"
       width="1.2985659"
       height="1.2895716">
      <feGaussianBlur
         inkscape:collect="always"
         stdDeviation="0.48261936"
         id="feGaussianBlur3" />
    </filter>
    <filter
       inkscape:collect="always"
       style="color-interpolation-filters:sRGB"
       id="filter25"
       x="-0.10257597"
       y="-0.25929773"
       width="1.2051519"
       height="1.5185955">
      <feGaussianBlur
         inkscape:collect="always"
         stdDeviation="0.64001467"
         id="feGaussianBlur25" />
    </filter>
  </defs>
  <sodipodi:namedview
     inkscape:snap-global="true"
     inkscape:bbox-paths="false"
     fit-margin-bottom="0"
     fit-margin-right="0"
     fit-margin-left="0"
     fit-margin-top="0"
     inkscape:bbox-nodes="true"
     inkscape:snap-bbox="true"
     inkscape:window-maximized="1"
     inkscape:window-y="0"
     inkscape:window-x="3840"
     inkscape:window-height="2058"
     inkscape:window-width="3840"
     units="px"
     showgrid="true"
     inkscape:document-rotation="0"
     inkscape:current-layer="layer1"
     inkscape:document-units="px"
     inkscape:cy="7.1870772"
     inkscape:cx="7.77265"
     inkscape:zoom="90.509672"
     inkscape:pageshadow="2"
     inkscape:pageopacity="0.0"
     borderopacity="1.0"
     bordercolor="#666666"
     pagecolor="#ffffff"
     id="base"
     showguides="false"
     inkscape:pagecheckerboard="0"
     inkscape:showpageshadow="2"
     inkscape:deskcolor="#d1d1d1">
    <inkscape:grid
       originy="0"
       originx="0"
       id="grid1504"
       type="xygrid"
       spacingy="1"
       spacingx="1"
       units="px"
       visible="true" />
    <inkscape:grid
       spacingy="0.5"
       spacingx="0.5"
       id="grid966"
       type="xygrid"
       originx="0"
       originy="0"
       units="px"
       visible="true" />
  </sodipodi:namedview>
  <metadata
     id="metadata5">
    <rdf:RDF>
      <cc:Work
         rdf:about="">
        <dc:format>image/svg+xml</dc:format>
        <dc:type
           rdf:resource="http://purl.org/dc/dcmitype/StillImage" />
      </cc:Work>
    </rdf:RDF>
  </metadata>
  <g
     transform="translate(-12.567709)"
     id="layer1"
     inkscape:groupmode="layer"
     inkscape:label="Layer 1">
    <path
       id="path14"
       style="color:#000000;fill:#000000;fill-opacity:1;-inkscape-stroke:none;filter:url(#filter25);opacity:0.75"
       d="m 19.292319,1.5 c -0.686404,0 -1.246094,0.5596906 -1.246094,1.2460938 V 4.0039063 H 16.661459 C 16.444903,3.2347251 15.736592,2.6679688 14.89974,2.6679688 c -1.008036,0 -1.832031,0.8220426 -1.832031,1.8300781 0,1.0080355 0.823995,1.8300781 1.832031,1.8300781 0.836852,0 1.545163,-0.5667563 1.761719,-1.3359375 h 1.384766 v 1.1855469 c 0,0.6864032 0.55969,1.2460938 1.246094,1.2460937 h 7.503906 c 0.686403,0 1.246094,-0.5596905 1.246094,-1.2460937 V 2.7460938 C 28.042319,2.0596906 27.482628,1.5 26.796225,1.5 Z" />
    <path
       style="fill:none;stroke:url(#linearGradient1158);stroke-width:0.986801;stroke-linecap:butt;stroke-linejoin:miter;stroke-miterlimit:4;stroke-dasharray:none;stroke-opacity:1"
       d="M 18.264642,4 H 14.870776"
       id="path968"
       sodipodi:nodetypes="cc" />
    <rect
       style="fill:url(#linearGradient1146);fill-opacity:1;fill-rule:evenodd;stroke:none;stroke-width:0.452515;stroke-linecap:round;stroke-linejoin:round;stroke-miterlimit:4;stroke-dasharray:none"
       id="rect964"
       width="9.5028248"
       height="5.4301858"
       x="17.79538"
       y="1.2485871"
       rx="0.90503097"
       ry="0.90503097" />
    <circle
       style="fill:url(#radialGradient990);fill-opacity:1;fill-rule:evenodd;stroke:url(#linearGradient980);stroke-width:0.4934;stroke-linecap:round;stroke-linejoin:round;stroke-miterlimit:4;stroke-dasharray:none"
       id="path972"
       cx="14.401513"
       cy="4"
       r="1.5838042" />
    <path
       style="fill:#0099ff;stroke:url(#linearGradient1216);stroke-width:1.23424;stroke-linecap:round;stroke-linejoin:miter;stroke-miterlimit:4;stroke-dasharray:none;stroke-opacity:1"
       d="M 26.619435,6.030486 V 1.925211"
       id="path1208"
       sodipodi:nodetypes="cc" />
    <path
       sodipodi:nodetypes="cc"
       id="path1208-3"
       d="m 18.431117,5.9999999 h 8.274472"
       style="fill:#ced4e0;fill-opacity:1;stroke:url(#linearGradient1216-6);stroke-width:1.23413;stroke-linecap:round;stroke-linejoin:miter;stroke-miterlimit:4;stroke-dasharray:none;stroke-opacity:1" />
    <rect
       ry="1"
       rx="1"
       y="1.2485871"
       x="17.79538"
       height="5.4301858"
       width="9.5028257"
       id="rect1218"
       style="fill:none;fill-opacity:1;fill-rule:evenodd;stroke:url(#linearGradient1180);stroke-width:0.4934;stroke-linecap:round;stroke-linejoin:round;stroke-miterlimit:4;stroke-dasharray:none" />
    <path
       id="path2"
       style="color:#000000;opacity:0.75;fill:#000000;fill-opacity:1;fill-rule:evenodd;stroke-width:1.0339;stroke-linejoin:round;-inkscape-stroke:none;filter:url(#filter3)"
       d="m 16.44683,7.464603 c -0.276009,0 -0.553692,0.10001 -0.764127,0.296875 l -2.799713,2.61914 c -0.420879,0.393734 -0.420879,1.035954 0,1.429688 0.420879,0.393733 1.105288,0.393733 1.526167,0 l 0.958291,-0.896485 v 3.541016 c 0,0.556823 0.48417,1.009766 1.079382,1.009766 0.595211,0 1.079383,-0.452943 1.079383,-1.009766 v -3.539062 l 0.956203,0.894531 c 0.42088,0.393733 1.107375,0.393733 1.528255,0 0.420879,-0.393734 0.420879,-1.035954 0,-1.429688 L 17.210958,7.761478 C 17.000489,7.5645851 16.722841,7.464603 16.44683,7.464603 Z" />
    <g
       id="rect1475">
      <path
         style="color:#000000;fill:url(#linearGradient2524);fill-rule:evenodd;stroke-linejoin:round;-inkscape-stroke:none"
         d="m 16.196999,7.1330508 c -0.215222,0 -0.43038,0.08241 -0.595294,0.247326 L 12.982081,10 c -0.329828,0.329828 -0.329828,0.860892 0,1.19072 0.329829,0.329828 0.860892,0.329828 1.19072,0 l 1.182302,-1.182366 v 3.945953 c 0,0.466448 0.375515,0.841963 0.841963,0.841963 0.466446,0 0.841963,-0.375515 0.841963,-0.841963 v -3.945821 l 1.182234,1.182234 c 0.329828,0.329828 0.860891,0.329828 1.19072,0 0.329829,-0.329828 0.329829,-0.860892 0,-1.19072 L 16.792425,7.3803768 C 16.62751,7.2154628 16.412222,7.1330508 16.196999,7.1330508 Z"
         id="path12" />
      <path
         style="color:#000000;fill:#003399;fill-rule:evenodd;stroke-linejoin:round;-inkscape-stroke:none"
         d="m 16.197266,6.9648437 c -0.258208,0 -0.517981,0.1000098 -0.714844,0.296875 l -2.619141,2.6191407 c -0.393734,0.3937346 -0.393734,1.0359536 0,1.4296876 0.393735,0.393734 1.034001,0.393734 1.427735,0 L 15.1875,10.414063 v 3.541015 c 0,0.556824 0.452942,1.009766 1.009766,1.009766 0.556822,0 1.009765,-0.452941 1.009765,-1.009766 v -3.541015 l 0.894531,0.896484 c 0.393735,0.393734 1.035953,0.393734 1.429688,0 0.393735,-0.393734 0.393735,-1.035954 0,-1.4296876 L 16.912109,7.2617187 C 16.715215,7.0648256 16.455475,6.9648437 16.197266,6.9648437 Z m 0,0.3359375 c 0.172236,0 0.343627,0.066284 0.476562,0.1992188 l 2.619141,2.619141 c 0.265922,0.265921 0.265922,0.687203 0,0.953125 -0.265923,0.265921 -0.687204,0.265921 -0.953125,0 L 17.158203,9.8886719 a 0.16840933,0.16840933 0 0 0 -0.287109,0.1191411 v 3.947265 c 0,0.376071 -0.29776,0.671875 -0.673828,0.671875 -0.376071,0 -0.673829,-0.295804 -0.673828,-0.671875 v -3.947265 a 0.16840933,0.16840933 0 0 0 -0.28711,-0.1191411 l -1.18164,1.1835941 c -0.265922,0.265921 -0.687203,0.265921 -0.953125,0 -0.265922,-0.265921 -0.265922,-0.687204 0,-0.953125 L 15.720703,7.5 C 15.853668,7.3670335 16.02503,7.3007813 16.197266,7.3007812 Z"
         id="path13" />
    </g>
  </g>
</svg>
