<?xml version="1.0" encoding="UTF-8" standalone="no"?>
<svg
   width="16"
   height="16"
   viewBox="0 0 16 16"
   version="1.1"
   id="svg8"
   inkscape:version="1.3.2 (1:1.3.2+202311252150+091e20ef0f)"
   sodipodi:docname="key.svg"
   inkscape:export-filename="/media/klapeto/Αρχεία/WindowsXP Theme/Vectors/RASTER/key.png"
   inkscape:export-xdpi="96"
   inkscape:export-ydpi="96"
   xmlns:inkscape="http://www.inkscape.org/namespaces/inkscape"
   xmlns:sodipodi="http://sodipodi.sourceforge.net/DTD/sodipodi-0.dtd"
   xmlns:xlink="http://www.w3.org/1999/xlink"
   xmlns="http://www.w3.org/2000/svg"
   xmlns:svg="http://www.w3.org/2000/svg"
   xmlns:rdf="http://www.w3.org/1999/02/22-rdf-syntax-ns#"
   xmlns:cc="http://creativecommons.org/ns#"
   xmlns:dc="http://purl.org/dc/elements/1.1/">
  <defs
     id="defs2">
    <linearGradient
       inkscape:collect="always"
       id="linearGradient305363">
      <stop
         style="stop-color:#ff9933;stop-opacity:1"
         offset="0"
         id="stop305359" />
      <stop
         style="stop-color:#ff9933;stop-opacity:1"
         offset="1"
         id="stop305361" />
    </linearGradient>
    <linearGradient
       inkscape:collect="always"
       id="linearGradient237937">
      <stop
         style="stop-color:#ffff00;stop-opacity:1"
         offset="0"
         id="stop237931" />
      <stop
         style="stop-color:#ffff99;stop-opacity:1"
         offset="0.61025214"
         id="stop239091" />
      <stop
         style="stop-color:#fefdf4;stop-opacity:0"
         offset="1"
         id="stop237935" />
    </linearGradient>
    <linearGradient
       inkscape:collect="always"
       id="linearGradient200486">
      <stop
         style="stop-color:#f7ad40;stop-opacity:1"
         offset="0"
         id="stop200482" />
      <stop
         style="stop-color:#fdca60;stop-opacity:1"
         offset="1"
         id="stop200484" />
    </linearGradient>
    <linearGradient
       inkscape:collect="always"
       id="linearGradient154100">
      <stop
         style="stop-color:#ffffff;stop-opacity:1;"
         offset="0"
         id="stop154096" />
      <stop
         style="stop-color:#fbf638;stop-opacity:0"
         offset="0.17431498"
         id="stop163065" />
      <stop
         style="stop-color:#fcf996;stop-opacity:0"
         offset="0.75"
         id="stop181540" />
      <stop
         style="stop-color:#fefdf4;stop-opacity:1"
         offset="1"
         id="stop154098" />
    </linearGradient>
    <linearGradient
       inkscape:collect="always"
       id="linearGradient69702">
      <stop
         style="stop-color:#fffefd;stop-opacity:1"
         offset="0"
         id="stop69698" />
      <stop
         style="stop-color:#cc9900;stop-opacity:1"
         offset="0.28"
         id="stop75990" />
      <stop
         style="stop-color:#ffff00;stop-opacity:1"
         offset="0.63999999"
         id="stop112612" />
      <stop
         style="stop-color:#ff9933;stop-opacity:1"
         offset="1"
         id="stop69700" />
    </linearGradient>
    <linearGradient
       inkscape:collect="always"
       id="linearGradient2976">
      <stop
         style="stop-color:#fffcf5;stop-opacity:1"
         offset="0"
         id="stop2972" />
      <stop
         style="stop-color:#ffcc00;stop-opacity:1"
         offset="0.41281581"
         id="stop16719" />
      <stop
         style="stop-color:#cc9900;stop-opacity:1"
         offset="0.62598419"
         id="stop16849" />
      <stop
         style="stop-color:#ffcc00;stop-opacity:1"
         offset="0.91688526"
         id="stop16979" />
      <stop
         style="stop-color:#ffff99;stop-opacity:1"
         offset="1"
         id="stop2974" />
    </linearGradient>
    <radialGradient
       inkscape:collect="always"
       xlink:href="#linearGradient2976"
       id="radialGradient2978"
       cx="-40.701576"
       cy="2.863358"
       fx="-40.701576"
       fy="2.863358"
       r="12.031582"
       gradientUnits="userSpaceOnUse"
       gradientTransform="translate(86.499998,8.4999998)" />
    <linearGradient
       inkscape:collect="always"
       xlink:href="#linearGradient69702"
       id="linearGradient69704"
       x1="-34.932289"
       y1="23.5"
       x2="-30.932291"
       y2="27.5"
       gradientUnits="userSpaceOnUse"
       gradientTransform="translate(59,3.9999996)" />
    <radialGradient
       inkscape:collect="always"
       xlink:href="#linearGradient154100"
       id="radialGradient154102"
       cx="-64.670082"
       cy="9.8947163"
       fx="-64.670082"
       fy="9.8947163"
       r="12.03125"
       gradientUnits="userSpaceOnUse"
       gradientTransform="matrix(0.56507903,-0.84745625,0.81983579,0.54666187,75.195087,-46.692728)" />
    <filter
       inkscape:collect="always"
       style="color-interpolation-filters:sRGB"
       id="filter200459"
       x="-0.14871855"
       y="-0.14124295"
       width="1.2974371"
       height="1.2824859">
      <feGaussianBlur
         inkscape:collect="always"
         stdDeviation="0.48638432"
         id="feGaussianBlur200461" />
    </filter>
    <linearGradient
       inkscape:collect="always"
       xlink:href="#linearGradient200486"
       id="linearGradient200488"
       x1="-69.946632"
       y1="17.447788"
       x2="-74.671204"
       y2="12.581718"
       gradientUnits="userSpaceOnUse"
       gradientTransform="translate(110.5,3.9999996)" />
    <radialGradient
       inkscape:collect="always"
       xlink:href="#linearGradient237937"
       id="radialGradient237897"
       gradientUnits="userSpaceOnUse"
       gradientTransform="matrix(0.27909552,-0.48340761,0.42558781,0.24571323,59.023333,-23.008203)"
       cx="-60.812794"
       cy="8.0397205"
       fx="-60.812794"
       fy="8.0397205"
       r="12.03125" />
    <linearGradient
       inkscape:collect="always"
       xlink:href="#linearGradient305363"
       id="linearGradient305365"
       x1="-97.932289"
       y1="19.001196"
       x2="-51.932289"
       y2="19.001196"
       gradientUnits="userSpaceOnUse"
       gradientTransform="translate(110.5,3.9999996)" />
    <filter
       inkscape:collect="always"
       style="color-interpolation-filters:sRGB"
       id="filter10"
       x="-0.14421086"
       y="-0.14989915"
       width="1.2884217"
       height="1.2997983">
      <feGaussianBlur
         inkscape:collect="always"
         stdDeviation="0.84123077"
         id="feGaussianBlur10" />
    </filter>
  </defs>
  <sodipodi:namedview
     inkscape:guide-bbox="true"
     id="base"
     pagecolor="#ffffff"
     bordercolor="#666666"
     borderopacity="1.0"
     inkscape:pageopacity="0.0"
     inkscape:pageshadow="2"
     inkscape:zoom="53.880858"
     inkscape:cx="2.8859971"
     inkscape:cy="9.0477401"
     inkscape:document-units="px"
     inkscape:current-layer="layer1"
     inkscape:document-rotation="0"
     showgrid="false"
     units="px"
     inkscape:window-width="3840"
     inkscape:window-height="2058"
     inkscape:window-x="3840"
     inkscape:window-y="0"
     inkscape:window-maximized="1"
     inkscape:snap-bbox="true"
     inkscape:bbox-nodes="true"
     fit-margin-top="0"
     fit-margin-left="0"
     fit-margin-right="0"
     fit-margin-bottom="0"
     inkscape:bbox-paths="false"
     inkscape:snap-global="true"
     showguides="false"
     inkscape:pagecheckerboard="0"
     inkscape:showpageshadow="2"
     inkscape:deskcolor="#d1d1d1">
    <inkscape:grid
       type="xygrid"
       id="grid1504"
       originx="0"
       originy="0"
       spacingy="1"
       spacingx="1"
       units="px"
       visible="false" />
    <inkscape:grid
       type="xygrid"
       id="grid1507"
       spacingx="0.5"
       spacingy="0.5"
       originx="0"
       originy="0"
       units="px"
       visible="false" />
  </sodipodi:namedview>
  <metadata
     id="metadata5">
    <rdf:RDF>
      <cc:Work
         rdf:about="">
        <dc:format>image/svg+xml</dc:format>
        <dc:type
           rdf:resource="http://purl.org/dc/dcmitype/StillImage" />
      </cc:Work>
    </rdf:RDF>
  </metadata>
  <g
     inkscape:label="Layer 1"
     inkscape:groupmode="layer"
     id="layer1"
     transform="translate(-12.567709)">
    <path
       id="path9"
       style="color:#000000;fill:#000000;fill-opacity:1;fill-rule:evenodd;stroke-linecap:round;stroke-linejoin:round;-inkscape-stroke:none;filter:url(#filter10);opacity:0.75"
       d="m 23.216157,1.5 c -2.123739,5.86e-5 -3.849551,1.7258827 -3.84961,3.8496094 a 0.23068057,0.23068057 0 0 0 0,0.00195 c 0.0011,0.2707832 0.04094,0.5352057 0.101563,0.7988281 0.0067,0.063394 0.01343,0.1265295 0.02344,0.1894532 l -6.357422,6.3593753 a 0.23068057,0.23068057 0 0 0 -0.06641,0.164062 v 1.503907 a 0.23068057,0.23068057 0 0 0 0.197266,0.216796 l 0.296875,0.333985 a 0.15044455,0.15044455 0 0 0 0.113281,0.05078 h 1.427734 a 0.15044455,0.15044455 0 0 0 0.105469,-0.04492 l 0.257813,-0.255859 h 0.238281 a 0.15044455,0.15044455 0 0 0 0.15039,-0.150391 v -0.283203 a 0.23068057,0.23068057 0 0 0 0.08008,-0.167969 V 13.16406 h 0.972656 a 0.15044455,0.15044455 0 0 0 0.15039,-0.15039 v -0.150391 h 0.451172 a 0.15044455,0.15044455 0 0 0 0.150391,-0.15039 v -0.277344 a 0.23068057,0.23068057 0 0 0 0.08008,-0.175781 v -0.601563 h 0.07031 a 0.15044455,0.15044455 0 0 0 0.15039,-0.150391 v -0.15039 h 1.355469 a 0.15044455,0.15044455 0 0 0 0.150391,-0.150391 v -0.283203 a 0.23068057,0.23068057 0 0 0 0.08008,-0.167969 v -0.451169 h 0.220703 a 0.15044455,0.15044455 0 0 0 0.15039,-0.150391 V 9.8710938 a 0.23068057,0.23068057 0 0 0 0.01758,-0.017578 h 0.583984 a 0.15044455,0.15044455 0 0 0 0.105469,-0.042969 l 0.763672,-0.7558594 c 0.559955,0.3155319 1.181677,0.5156358 1.828125,0.5175781 1.93427,-5.35e-5 3.531166,-1.4624 3.746093,-3.3398437 0.06695,-0.2839504 0.105461,-0.5787154 0.105469,-0.8828125 C 27.067661,3.2258824 25.339895,1.5000586 23.216157,1.5 Z m 0.0098,2.9375 c 0.289153,0 0.536166,0.1641475 0.66211,0.4023438 -0.04846,0.3249216 -0.322985,0.5722656 -0.66211,0.5722656 -0.339124,0 -0.613651,-0.247344 -0.662109,-0.5722656 C 22.689693,4.6014439 22.936618,4.4375 23.225922,4.4375 Z" />
    <g
       id="g838"
       transform="matrix(0.30085962,0,0,0.30085753,8.8668213,1.0802283)">
      <path
         id="path269305"
         style="fill:url(#linearGradient305365);fill-opacity:1;fill-rule:evenodd;stroke:#996600;stroke-width:1;stroke-linecap:round;stroke-linejoin:round;stroke-miterlimit:4;stroke-dasharray:none;stroke-opacity:1;stop-color:#000000"
         d="m 46.036459,1.9999996 c -6.6446,1.833e-4 -12.031067,5.3866501 -12.03125,12.0312504 0.0046,1.211995 0.147307,2.355794 0.511721,3.511716 v 0 L 13.067709,39 v 3.590412 l 1.252914,1.411978 4.747086,-0.0024 1,-1 h 1 v -5 h 4 v -1 h 2 v -4 h 1 v -1 h 5 v -3.5 h 1.5 V 27 h 2.5 l 2.735346,-2.700054 c 1.873986,1.144158 4.029433,1.755933 6.233404,1.762555 6.6446,-1.84e-4 12.031067,-5.386651 12.03125,-12.031251 C 58.067526,7.3866497 52.681059,2.0001829 46.036459,1.9999996 Z m 0.03125,7 c 1.656854,0 3,1.3431454 3,3.0000004 0,1.656854 -1.343146,3 -3,3 -1.656854,0 -3,-1.343146 -3,-3 0,-1.656855 1.343146,-3.0000004 3,-3.0000004 z"
         sodipodi:nodetypes="ccccccccccccccccccccccccccsssss" />
      <path
         id="path2670"
         style="fill:url(#radialGradient2978);fill-opacity:1;fill-rule:evenodd;stroke:none;stroke-width:1;stroke-linecap:round;stroke-linejoin:round;stroke-miterlimit:4;stroke-dasharray:none;stroke-opacity:1;stop-color:#000000"
         d="M 46.036459,0.4999996 A 12.031582,12.031582 0 0 0 34.005209,12.53125 12.031582,12.031582 0 0 0 46.036459,24.5625 12.031582,12.031582 0 0 0 58.067709,12.53125 12.031582,12.031582 0 0 0 46.036459,0.4999996 Z m 0.03125,7 a 3,3 0 0 1 3,3.0000004 3,3 0 0 1 -3,3 3,3 0 0 1 -3,-3 3,3 0 0 1 3,-3.0000004 z" />
      <path
         id="path153962"
         style="fill:url(#radialGradient154102);fill-opacity:1;fill-rule:evenodd;stroke:none;stroke-width:1;stroke-linecap:round;stroke-linejoin:round;stroke-miterlimit:4;stroke-dasharray:none;stroke-opacity:1;stop-color:#000000"
         d="M 46.036459,0.4999996 A 12.031582,12.031582 0 0 0 34.005209,12.53125 12.031582,12.031582 0 0 0 46.036459,24.5625 12.031582,12.031582 0 0 0 58.067709,12.53125 12.031582,12.031582 0 0 0 46.036459,0.4999996 Z m 0.03125,7 a 3,3 0 0 1 3,3.0000004 3,3 0 0 1 -3,3 3,3 0 0 1 -3,-3 3,3 0 0 1 3,-3.0000004 z" />
      <path
         style="fill:url(#linearGradient69704);fill-opacity:1;stroke:none;stroke-width:1px;stroke-linecap:round;stroke-linejoin:round;stroke-opacity:1"
         d="m 35.067709,16 -22,21.5 v 5 h 6 l 1,-1 h 1 v -5 h 4 v -1 h 2 v -4 h 1 v -1 h 5 V 27 h 1.5 v -1.5 h 2.5 l 2.90934,-3.310493"
         id="path68835"
         sodipodi:nodetypes="ccccccccccccccccccc" />
      <path
         id="path237796"
         style="fill:url(#radialGradient237897);fill-opacity:1;fill-rule:evenodd;stroke:none;stroke-width:1;stroke-linecap:round;stroke-linejoin:round;stroke-miterlimit:4;stroke-dasharray:none;stroke-opacity:1;stop-color:#000000"
         d="M 46.036459,0.4999996 A 12.031582,12.031582 0 0 0 34.005209,12.53125 12.031582,12.031582 0 0 0 46.036459,24.5625 12.031582,12.031582 0 0 0 58.067709,12.53125 12.031582,12.031582 0 0 0 46.036459,0.4999996 Z m 0.03125,7 a 3,3 0 0 1 3,3.0000004 3,3 0 0 1 -3,3 3,3 0 0 1 -3,-3 3,3 0 0 1 3,-3.0000004 z" />
      <path
         style="mix-blend-mode:normal;fill:url(#linearGradient200488);fill-opacity:1;stroke:none;stroke-width:1px;stroke-linecap:butt;stroke-linejoin:miter;stroke-opacity:1;filter:url(#filter200459)"
         d="m 34.46092,17.184594 2.085845,-1.893776 1.349043,1.343261 4.414317,4.395401 -3.122957,2.52598 z"
         id="path199955"
         sodipodi:nodetypes="cccccc" />
      <path
         id="path181377"
         style="fill:none;fill-opacity:1;fill-rule:evenodd;stroke:#996600;stroke-width:1.53333;stroke-linecap:round;stroke-linejoin:round;stroke-miterlimit:4;stroke-dasharray:none;stroke-opacity:1;stop-color:#000000"
         d="m 46.03646,0.4999996 c -6.6446,1.833e-4 -12.031067,5.3866501 -12.03125,12.0312504 0.0046,1.211995 0.147307,2.355794 0.511721,3.511716 v 0 L 13.06771,37.5 v 5 h 6 l 1,-1 h 1 v -5 h 4 v -1 h 2 v -4 h 1 v -1 h 5 V 27 h 1.5 v -1.5 h 2.5 l 2.735346,-2.700054 c 1.873986,1.144158 4.029433,1.755933 6.233404,1.762555 C 52.68106,24.562317 58.067527,19.17585 58.06771,12.53125 58.067527,5.8866497 52.68106,0.5001829 46.03646,0.4999996 Z m 0.03125,7 c 1.656854,0 3,1.3431458 3,3.0000004 0,1.656854 -1.343146,3 -3,3 -1.656854,0 -3,-1.343146 -3,-3 0,-1.6568546 1.343146,-3.0000004 3,-3.0000004 z"
         sodipodi:nodetypes="cccccccccccccccccccccccccsssss" />
    </g>
  </g>
</svg>
