<?xml version="1.0" encoding="UTF-8" standalone="no"?>
<svg
   width="16"
   height="16"
   viewBox="0 0 16 16"
   version="1.1"
   id="svg8"
   inkscape:version="1.2.2 (b0a8486541, 2022-12-01)"
   sodipodi:docname="keyboard.svg"
   inkscape:export-filename="/media/klapeto/Αρχεία/WindowsXP Theme/Vectors/RASTER/keyboard.png"
   inkscape:export-xdpi="96"
   inkscape:export-ydpi="96"
   xml:space="preserve"
   xmlns:inkscape="http://www.inkscape.org/namespaces/inkscape"
   xmlns:sodipodi="http://sodipodi.sourceforge.net/DTD/sodipodi-0.dtd"
   xmlns:xlink="http://www.w3.org/1999/xlink"
   xmlns="http://www.w3.org/2000/svg"
   xmlns:svg="http://www.w3.org/2000/svg"
   xmlns:rdf="http://www.w3.org/1999/02/22-rdf-syntax-ns#"
   xmlns:cc="http://creativecommons.org/ns#"
   xmlns:dc="http://purl.org/dc/elements/1.1/"><defs
     id="defs2"><linearGradient
       id="linearGradient17"
       inkscape:collect="always"><stop
         style="stop-color:#9999cc;stop-opacity:1"
         offset="0"
         id="stop16" /><stop
         style="stop-color:#ffffff;stop-opacity:1;"
         offset="1"
         id="stop17" /></linearGradient><linearGradient
       id="linearGradient12"
       inkscape:collect="always"><stop
         style="stop-color:#ffffff;stop-opacity:1;"
         offset="0"
         id="stop12" /><stop
         style="stop-color:#9999ff;stop-opacity:1"
         offset="1"
         id="stop13" /></linearGradient><linearGradient
       inkscape:collect="always"
       xlink:href="#linearGradient12"
       id="linearGradient13"
       x1="26.592098"
       y1="21.303751"
       x2="32.431908"
       y2="33.116798"
       gradientUnits="userSpaceOnUse" /><linearGradient
       inkscape:collect="always"
       xlink:href="#linearGradient17"
       id="linearGradient22"
       x1="13.09387"
       y1="30.124086"
       x2="26.704996"
       y2="30.124086"
       gradientUnits="userSpaceOnUse"
       gradientTransform="translate(-0.21341324,0.26604462)" /><filter
       inkscape:collect="always"
       style="color-interpolation-filters:sRGB"
       id="filter1017"
       x="-0.11224942"
       y="-0.21291498"
       width="1.2244988"
       height="1.42583"><feGaussianBlur
         inkscape:collect="always"
         stdDeviation="0.701559"
         id="feGaussianBlur1019" /></filter></defs><sodipodi:namedview
     inkscape:snap-object-midpoints="false"
     inkscape:snap-bbox-midpoints="false"
     showguides="false"
     id="base"
     pagecolor="#ffffff"
     bordercolor="#666666"
     borderopacity="1.0"
     inkscape:pageopacity="0.0"
     inkscape:pageshadow="2"
     inkscape:zoom="64"
     inkscape:cx="4.1875"
     inkscape:cy="6.6484375"
     inkscape:document-units="px"
     inkscape:current-layer="layer1"
     inkscape:document-rotation="0"
     showgrid="false"
     units="px"
     inkscape:window-width="3840"
     inkscape:window-height="2061"
     inkscape:window-x="1280"
     inkscape:window-y="0"
     inkscape:window-maximized="1"
     inkscape:snap-bbox="true"
     inkscape:bbox-nodes="true"
     fit-margin-top="0"
     fit-margin-left="0"
     fit-margin-right="0"
     fit-margin-bottom="0"
     inkscape:bbox-paths="false"
     inkscape:snap-global="true"
     inkscape:pagecheckerboard="0"
     inkscape:showpageshadow="2"
     inkscape:deskcolor="#d1d1d1"><inkscape:grid
       type="xygrid"
       id="grid1504"
       originx="0"
       originy="0"
       spacingy="1"
       spacingx="1"
       units="px"
       visible="false" /><inkscape:grid
       type="xygrid"
       id="grid1507"
       spacingx="0.5"
       spacingy="0.5"
       originx="0"
       originy="0"
       units="px"
       visible="false" /></sodipodi:namedview><metadata
     id="metadata5"><rdf:RDF><cc:Work
         rdf:about=""><dc:format>image/svg+xml</dc:format><dc:type
           rdf:resource="http://purl.org/dc/dcmitype/StillImage" /></cc:Work></rdf:RDF></metadata><g
     inkscape:label="Layer 1"
     inkscape:groupmode="layer"
     id="layer1"
     transform="translate(-12.567709)"><path
       id="path817"
       style="fill:#000000;fill-opacity:1;stroke:none;stroke-width:0.121951;stroke-linecap:butt;stroke-linejoin:round;stroke-miterlimit:4;stroke-dasharray:none;stroke-opacity:1;filter:url(#filter1017);opacity:0.75"
       d="m 15.821614,4.5464071 c -0.01274,0.00248 -0.01479,0.017361 -0.0078,0.041016 0.01903,0.2104517 0.234703,0.6009523 0.480469,0.7226563 0.309601,0.1533168 0.523245,0.040215 0.945312,-0.033203 0.151891,-0.026423 0.434422,0.1036648 0.419922,0.2949218 v 0.00195 c -0.08283,0.1146645 -0.255044,0.2112634 -0.542969,0.2402343 -1.090835,0.1097599 -2.098561,-0.013946 -2.52539,0.019531 -0.877476,0.068822 -1.345847,0.5838919 -1.277344,1.0097656 0.04569,0.5984337 0.543858,0.8183594 1.125,0.8183594 0.243903,0 2.325105,-0.1175645 2.425781,-0.1113282 0.08206,0.00508 0.172934,0.028975 0.242188,0.050781 -1.612257,0.2958502 -3.076294,0.7348867 -4.013684,1.4140658 a 0.0609816,0.0609816 0 0 0 -0.02539,0.048828 v 1.0371099 a 0.0609816,0.0609816 0 0 0 0.01953,0.04492 c 0.199443,0.184101 0.650395,0.585719 1.146485,0.974609 0.496089,0.388889 1.032243,0.764852 1.421875,0.902344 1.485703,0.524269 4.062727,0.552385 5.953125,0.18164 1.748689,-0.342954 2.43749,-0.814406 3.33789,-1.658203 0.498182,-0.466864 1.306058,-0.7951446 2.142578,-0.8027344 l 0.917969,-0.00781 a 0.0609816,0.0609816 0 0 0 0.06055,-0.060547 V 8.638204 a 0.0609816,0.0609816 0 0 0 -0.0059,-0.025391 C 27.985764,8.4437365 27.819957,8.2655197 27.602864,8.0835165 27.38577,7.9015132 27.116347,7.7182562 26.835286,7.5483602 26.273167,7.2085685 25.665948,6.9272439 25.307942,6.8510946 a 0.0609816,0.0609816 0 0 0 -0.01758,0 C 24.145344,6.9576131 21.769639,7.0094721 19.347005,7.278829 19.01913,7.3152832 18.691342,7.3569398 18.364583,7.4018759 17.947337,7.1579538 17.130794,6.9410424 16.085286,7.0522665 15.10737,7.1563001 14.393288,7.188931 14.048177,7.0151571 c -0.05141,-0.2695286 0.09887,-0.5175212 0.564453,-0.609375 1.010287,-0.1993181 2.049255,0.00206 2.697266,-0.1074219 0.480986,-0.081269 0.941406,-0.282489 0.941406,-0.8007812 l -0.0039,0.00195 c 9.37e-4,-0.011017 0.0021,-0.022228 0.002,-0.033203 C 18.244993,5.1284742 17.762033,4.7599986 17.23763,4.8491415 16.635266,4.9515373 16.400449,4.9996694 16.17513,4.8003133 15.963468,4.6130397 15.855582,4.5398046 15.821614,4.5464071 Z" /><g
       id="g22"
       transform="matrix(0.32608696,0,0,0.32608696,8.469543,0.21582672)"><path
         sodipodi:nodetypes="ccccsssscc"
         id="path17"
         d="M 12.754701,25.604564 C 20.971918,19.65084 43.009068,19.656649 50.067709,19 c 2.093435,0.445283 7.471545,3.425702 8.313008,5.295621 v 3.178862 L 55.567709,27.5 c -2.612716,0.0237 -5.130128,1.039706 -6.699343,2.510275 C 46.116095,32.589528 44.067709,34 38.7273,35.04736 32.963628,36.17773 25.061143,36.085627 20.567709,34.5 18.281608,33.693289 13.970148,29.905376 12.754701,28.783425 Z"
         style="opacity:1;fill:url(#linearGradient13);fill-opacity:1;stroke:none;stroke-width:0.373984;stroke-linecap:butt;stroke-linejoin:round;stroke-miterlimit:4;stroke-dasharray:none;stroke-opacity:1" /><path
         style="opacity:1;fill:url(#linearGradient22);fill-opacity:1;stroke:none;stroke-width:1px;stroke-linecap:butt;stroke-linejoin:miter;stroke-opacity:1"
         d="m 12.880457,25.734491 c 1.685294,1.685294 5.733396,5.174725 9.454425,6.878331 2.480412,1.135611 11.162545,1.890867 17.626342,0.158898 3.737345,-1.001419 6.554098,-2.600798 8.673623,-4.603465 -1.705877,2.457923 -4.295661,4.350107 -7.963472,5.721967 -4.275105,1.599005 -12.642354,1.788321 -18.172494,0.481269 -3.477789,-0.821978 -7.080842,-3.962121 -9.652748,-6.14465 z"
         id="path2-5"
         sodipodi:nodetypes="csscsscc" /><path
         style="opacity:1;fill:#7e7e7e;fill-opacity:1;stroke:none;stroke-width:0.186992px;stroke-linecap:butt;stroke-linejoin:miter;stroke-opacity:1"
         d="m 13.30768,18.514357 c 0,2.046709 1.597427,2.789394 3.467346,2.789394 0.747968,0 7.130133,-0.362461 7.438873,-0.343336 0.503276,0.03118 1.101148,0.283084 1.101148,0.283084 l 1.796018,-0.301002 -3.043356,-1.134681 -3.365854,0.186992 -4.487805,0.373984 z"
         id="path1160"
         sodipodi:nodetypes="csscccccc" /><path
         style="opacity:1;fill:#7e7e7e;fill-opacity:1;stroke:none;stroke-width:0.186992px;stroke-linecap:butt;stroke-linejoin:miter;stroke-opacity:1"
         d="m 15.653075,19.620824 c -0.33979,-0.9368 0.05279,-1.856004 1.652745,-2.171657 3.098217,-0.611243 6.285354,0.0064 8.272587,-0.329336 1.475028,-0.249225 2.883611,-0.86486 2.883611,-2.454291 l -1.215447,0.280487 -1.495935,1.028456 -4.113821,0.0935 h -4.861789 l -2.617886,1.495935 0.373984,1.682926 z"
         id="path1158"
         sodipodi:nodetypes="csscccccccc" /><path
         style="opacity:1;fill:#7e7e7e;fill-opacity:1;stroke:none;stroke-width:0.186992px;stroke-linecap:butt;stroke-linejoin:miter;stroke-opacity:1"
         d="m 20.985456,11.784472 c 0,0.617529 0.687352,1.916312 1.476824,2.307263 0.949447,0.470172 1.601926,0.121582 2.896265,-0.103566 0.505192,-0.08788 1.491598,0.386224 1.26443,1.054923 l 0.973912,-0.01564 -0.636259,-1.866879 -2.482,-0.146738 -1.601323,0.323416 z"
         id="path1219"
         sodipodi:nodetypes="csscccccc" /><path
         style="opacity:1;fill:#b8b8b8;fill-opacity:1;stroke:none;stroke-width:0.186992px;stroke-linecap:butt;stroke-linejoin:miter;stroke-opacity:1"
         d="m 25.989712,21.184794 c -0.280488,-1.308943 -5.848781,-0.720952 -9.047195,-0.616095 -5.309767,0.174076 -4.468304,-4.500721 0.299989,-4.874704 1.308943,-0.102662 4.394309,0.280488 7.739539,-0.05611 2.825501,-0.284301 2.012713,-2.701444 0.23747,-2.212483 -2.539941,0.699585 -3.272197,0.02102 -3.912983,-0.966777 -0.547228,-0.843572 -0.50604,-1.077083 0.792157,0.07153 0.690976,0.611359 1.409591,0.459963 3.256843,0.145949 1.608171,-0.273372 3.087888,0.855906 3.101245,1.891995 0.01023,0.793274 -0.876385,1.637445 -3.675734,1.813478 -3.076674,0.193473 -9.788786,-0.404757 -9.915064,1.741969 -0.104574,1.777761 2.563519,1.777761 6.957828,1.310281 3.358568,-0.357294 5.95189,0.385698 7.16862,1.1757"
         id="path1156"
         sodipodi:nodetypes="csssssssssssc" /><path
         sodipodi:nodetypes="ccccsssscc"
         id="path1181"
         d="M 12.754701,25.604564 C 20.971918,19.65084 43.009068,19.656649 50.067709,19 c 2.093435,0.445283 7.471545,3.425702 8.313008,5.295621 v 3.178862 L 55.567709,27.5 c -2.612716,0.0237 -5.130128,1.039706 -6.699343,2.510275 C 46.116095,32.589528 44.067709,34 38.7273,35.04736 32.963628,36.17773 25.061143,36.085627 20.567709,34.5 18.281608,33.693289 13.970148,29.905376 12.754701,28.783425 Z"
         style="opacity:1;fill:none;fill-opacity:1;stroke:#212121;stroke-width:0.373984;stroke-linecap:butt;stroke-linejoin:round;stroke-miterlimit:4;stroke-dasharray:none;stroke-opacity:1" /><path
         style="opacity:1;fill:#ffffff;fill-opacity:1;stroke:none;stroke-width:1px;stroke-linecap:butt;stroke-linejoin:miter;stroke-opacity:1"
         d="m 33.872586,28.825895 c -0.999206,2.320218 3.864338,3.49079 5.782416,3.253234 -3.153359,1.152283 -12.077309,1.784119 -15.01888,-0.753304 z"
         id="path4"
         sodipodi:nodetypes="cccc" /><path
         style="opacity:1;fill:#666699;fill-opacity:1;stroke:none;stroke-width:1px;stroke-linecap:butt;stroke-linejoin:miter;stroke-opacity:1"
         d="m 22.71853,31.942409 c 3.205603,-1.27397 14.879455,-3.54278 23.349179,-4.442409 2.260489,-0.240103 2.340313,-1.931748 1.736987,-2.506589 L 43.463197,20.85688 c -5.101513,-0.419517 -21.637949,2.198996 -26.391571,4.345052 -0.635994,0.287124 -0.674047,1.328126 -0.224333,1.713197 z"
         id="path1"
         sodipodi:nodetypes="csscssc" /><path
         style="fill:#ffffff;fill-opacity:1;stroke:none;stroke-width:1px;stroke-linecap:butt;stroke-linejoin:miter;stroke-opacity:1"
         d="m 48.84826,28.094113 c 1.918812,-2.338968 6.70877,-3.101864 8.914378,-3.101864 v 1.537188 C 54.198473,26.311312 51.20604,26.97816 48.84826,28.094113 Z"
         id="path3"
         sodipodi:nodetypes="cccc" /><path
         id="path8"
         style="opacity:1;fill:#ffffff;fill-opacity:1;stroke:none;stroke-width:1px;stroke-linecap:butt;stroke-linejoin:miter;stroke-opacity:1"
         d="m 38.441165,21.750784 c -0.876035,0.08906 -1.828211,0.190421 -2.831043,0.31843 0.301525,0.283771 0.791936,0.780817 1.092353,1.09485 1.015941,-0.136749 1.995422,-0.256595 2.9375,-0.363281 -0.347467,-0.299936 -0.864336,-0.779313 -1.19881,-1.049999 z m -4.102482,0.520353 c -1.059541,0.145162 -2.297602,0.377885 -3.404186,0.553308 0.317249,0.310923 0.787916,0.779273 1.080589,1.08824 1.110344,-0.182384 2.360098,-0.421301 3.449107,-0.576745 -0.317006,-0.309334 -0.805688,-0.775284 -1.12551,-1.064803 z m 10.475666,1.07984 c -0.807013,0.03893 -1.820228,0.118761 -2.861874,0.215431 0.261119,0.256776 0.681842,0.718727 0.939596,0.992247 1.013438,-0.117678 2.030144,-0.219831 2.883359,-0.28379 z m -4.174374,0.344337 c -0.987536,0.10449 -2.037809,0.229433 -3.128907,0.371094 0.241228,0.289491 0.637416,0.79228 0.867331,1.115294 1.129074,-0.176211 2.224969,-0.333984 3.271485,-0.46875 -0.281345,-0.283071 -0.726491,-0.753537 -1.009909,-1.017638 z m -4.314453,0.53125 c -1.107839,0.15263 -2.237227,0.319712 -3.376954,0.501954 0.266388,0.31433 0.672756,0.773667 0.949758,1.14516 1.117637,-0.210702 2.262767,-0.334762 3.366792,-0.516195 -0.252792,-0.329155 -0.673284,-0.836238 -0.939596,-1.130919 z m -4.539063,0.69336 c -0.148239,0.02488 -0.297325,0.04697 -0.445312,0.07227 -1.016492,0.173783 -2.019392,0.361786 -3.00586,0.554687 0.347091,0.35385 0.777544,0.784678 1.127492,1.166645 1.064984,-0.2392 2.170425,-0.419148 3.28711,-0.638672 -0.296627,-0.379657 -0.670911,-0.830852 -0.96343,-1.15493 z m 14.785156,0.10742 c -0.872845,0.04516 -1.88776,0.132577 -3.013672,0.253906 0.393244,0.458515 0.77541,0.938752 1.140625,1.439453 0.417488,-0.06837 0.884177,-0.149104 1.289063,-0.214844 0.5183,-0.08416 0.849265,-0.211286 1.029297,-0.324218 0.18003,-0.112932 0.20624,-0.184605 0.21875,-0.240235 0.02501,-0.111259 -0.104648,-0.405433 -0.335938,-0.615234 z m -4.224609,0.390625 c -4.161,0.57897 -8.345028,1.132464 -12.34775,1.886533 0.433198,0.495126 0.864283,1.006425 1.289063,1.529296 C 36.035902,27.92465 40.141245,27.339785 43.589198,26.9062 43.191403,26.387609 42.77556,25.890318 42.347011,25.417919 Z M 27.151693,25.78125 c -1.07209,0.221554 -2.103157,0.452009 -3.068359,0.6875 0.391183,0.385242 0.737972,0.72495 1.132858,1.148359 0.936921,-0.263151 1.937068,-0.521743 2.992187,-0.771485 -0.371315,-0.394908 -0.693347,-0.706376 -1.056686,-1.064374 z m -4.210937,0.980469 c -1.387185,0.366089 -2.603562,0.739771 -3.53125,1.109375 l 1.320214,1.130721 c 0.868978,-0.407726 1.992637,-0.813918 3.296875,-1.210937 -0.416735,-0.434866 -0.679327,-0.643148 -1.085839,-1.029159 z m 5.945214,0.796737 c -1.058306,0.245814 -2.072548,0.497461 -3.015625,0.753906 0.39603,0.446435 0.788868,0.908188 1.177734,1.38086 0.848916,-0.23936 1.944228,-0.538667 3.066061,-0.758858 -0.424791,-0.512091 -0.797552,-0.895096 -1.22817,-1.375908 z m -4.089844,1.05664 c -1.284683,0.375349 -2.401732,0.75332 -3.257812,1.119141 l 1.203125,1.091797 c 0.718882,-0.269256 1.836445,-0.5696 3.210937,-0.888672 -0.382021,-0.453975 -0.769082,-0.896318 -1.15625,-1.322266 z"
         sodipodi:nodetypes="cccccccccccccccccccccccccccccccccccsssccccccccccccccccccccccccccc" /><path
         style="opacity:1;fill:#ffffff;fill-opacity:1;stroke:#666699;stroke-width:0.6;stroke-linecap:butt;stroke-linejoin:miter;stroke-dasharray:none;stroke-opacity:1"
         d="m 45.832429,21 c 1.438209,1.372518 3.125264,2.907642 4.134748,4 1.53558,-0.574197 3.303231,-0.747404 5.058686,-0.942067 C 54.128128,23.270308 52.056277,21.190769 50.933178,20.591232 49.102287,20.606413 46.760801,20.862405 45.832429,21 Z"
         id="path9"
         sodipodi:nodetypes="ccccc" /><path
         style="fill:#000000;stroke:#666699;stroke-width:0.6;stroke-dasharray:none;stroke-opacity:1"
         d="m 48.569965,20.705508 c 1.382236,1.206795 2.779011,2.659605 3.714327,3.592383"
         id="path7"
         sodipodi:nodetypes="cc" /><path
         style="fill:#000000;stroke:#666699;stroke-width:0.6;stroke-dasharray:none;stroke-opacity:1"
         d="m 47.201258,22.293193 c 0.860358,-0.266824 4.219222,-0.608295 5.178486,-0.573286"
         id="path10"
         sodipodi:nodetypes="cc" /><path
         style="fill:#000000;stroke:#666699;stroke-width:0.6;stroke-dasharray:none;stroke-opacity:1"
         d="m 48.656468,23.676109 c 0.60324,-0.398183 3.684066,-0.868392 5.089171,-0.774909"
         id="path10-3"
         sodipodi:nodetypes="cc" /><path
         id="path18"
         style="opacity:1;fill:#ff794b;fill-opacity:1;stroke:none;stroke-width:1px;stroke-linecap:butt;stroke-linejoin:miter;stroke-opacity:1"
         d="m 25.23239,23.987687 c -1.100329,0.222029 -2.176188,0.469206 -3.129525,0.693956 0.362756,0.296414 0.872533,0.703228 1.249857,1.048929 0.957766,-0.243082 1.981936,-0.478694 3.052735,-0.705078 -0.370134,-0.338952 -0.826009,-0.755304 -1.173067,-1.037807 z m -4.365853,0.996687 c -1.335784,0.343654 -2.428728,0.676411 -3.095703,0.972656 -0.189152,0.08401 -0.16352,0.107854 -0.164062,0.152344 -5.44e-4,0.04449 0.04126,0.172139 0.177734,0.287109 l 0.943216,0.816508 c 0.918594,-0.405785 2.098569,-0.79936 3.460938,-1.177734 -0.409024,-0.357749 -0.94393,-0.765941 -1.322123,-1.050883 z"
         sodipodi:nodetypes="ccccccsccccc" /><path
         id="path19"
         style="opacity:1;fill:#0099ff;fill-opacity:1;stroke:none;stroke-width:1px;stroke-linecap:butt;stroke-linejoin:miter;stroke-opacity:1"
         d="m 29.868773,23.00029 c -1.202915,0.200517 -2.532638,0.479599 -3.692367,0.70175 0.334088,0.291061 0.93212,0.840365 1.277636,1.170547 1.133751,-0.226059 2.454994,-0.537511 3.638915,-0.741624 -0.295069,-0.296362 -0.887408,-0.805629 -1.224184,-1.130673 z m -10.459267,4.870804 1.320214,1.130721 z m 2.128808,1.863143 1.203125,1.091797 z"
         sodipodi:nodetypes="ccccccccccc" /><path
         id="path20"
         style="opacity:1;fill:#66cc33;fill-opacity:1;stroke:none;stroke-width:1px;stroke-linecap:butt;stroke-linejoin:miter;stroke-opacity:1"
         d="m 39.812353,21.682084 c 0.315978,0.267676 0.767002,0.735141 1.089993,1.028005 0.979087,-0.09941 2.046063,-0.185286 2.865573,-0.241076 L 42.865117,21.62622 c -0.987242,-0.04319 -2.072025,-0.03796 -3.052764,0.05586 z"
         sodipodi:nodetypes="cccccc" /></g></g></svg>
