<?xml version="1.0" encoding="UTF-8" standalone="no"?>
<svg
   version="1.1"
   viewBox="0 0 16 16"
   id="svg2"
   sodipodi:docname="label.svg"
   width="16"
   height="16"
   inkscape:version="1.2.2 (b0a8486541, 2022-12-01)"
   xmlns:inkscape="http://www.inkscape.org/namespaces/inkscape"
   xmlns:sodipodi="http://sodipodi.sourceforge.net/DTD/sodipodi-0.dtd"
   xmlns="http://www.w3.org/2000/svg"
   xmlns:svg="http://www.w3.org/2000/svg">
  <sodipodi:namedview
     id="namedview2"
     pagecolor="#ffffff"
     bordercolor="#000000"
     borderopacity="0.25"
     inkscape:showpageshadow="2"
     inkscape:pageopacity="0.0"
     inkscape:pagecheckerboard="0"
     inkscape:deskcolor="#d1d1d1"
     inkscape:zoom="56.21875"
     inkscape:cx="1.4052251"
     inkscape:cy="12.638132"
     inkscape:window-width="3840"
     inkscape:window-height="2061"
     inkscape:window-x="1280"
     inkscape:window-y="0"
     inkscape:window-maximized="1"
     inkscape:current-layer="svg2"
     showgrid="false" />
  <defs
     id="defs1">
    <style
       id="current-color-scheme"
       type="text/css">.ColorScheme-Text {
        color:#232629;
      }</style>
    <filter
       id="filter26366"
       x="-0.044560997"
       y="-0.086088058"
       width="1.089122"
       height="1.1721761"
       color-interpolation-filters="sRGB">
      <feGaussianBlur
         stdDeviation="4.4932227"
         id="feGaussianBlur1" />
    </filter>
  </defs>
  <path
     d="M 8.009625,1.3197361 3.3276993,11.764869 C 2.8836338,12.762405 2.5104338,13.422212 2.2079533,13.74398 1.9054728,14.059327 1.519238,14.252457 1.0494287,14.323242 v 0.357001 H 5.403186 v -0.357001 c -0.6821921,-0.05148 -1.1101919,-0.128821 -1.2839311,-0.231793 -0.2960474,-0.173759 -0.444088,-0.444 -0.444088,-0.810833 0,-0.276737 0.090151,-0.627617 0.2703485,-1.052384 l 0.550229,-1.274163 h 4.6241061 l 0.694935,1.63141 c 0.1802055,0.424756 0.2767595,0.666047 0.2896375,0.723967 0.03861,0.122283 0.05806,0.241385 0.05806,0.357226 0,0.193071 -0.07092,0.341113 -0.2125188,0.444088 -0.2059388,0.141589 -0.5630168,0.212518 -1.0714361,0.212518 H 8.617925 v 0.356999 h 6.332646 v -0.356999 c -0.399012,-0.03219 -0.707914,-0.148188 -0.92673,-0.347693 -0.289613,-0.263859 -0.659715,-0.904207 -1.110213,-1.921067 L 8.1930802,1.3197235 Z M 6.8414451,5.7313468 8.7914803,10.239588 H 4.8334781 Z"
     fill="#379dff"
     stroke="#0062ff"
     stroke-linecap="round"
     stroke-linejoin="round"
     stroke-width="0.306136"
     id="path2"
     style="fill:#000000;fill-opacity:1;stroke:none;stroke-width:0.554261;stroke-dasharray:none"
     sodipodi:nodetypes="ccccccccscccccscscccccccccccc" />
</svg>
