<?xml version="1.0" encoding="UTF-8" standalone="no"?>
<svg
   version="1.1"
   viewBox="0 0 16 16"
   id="svg90"
   sodipodi:docname="lock.svg"
   width="16"
   height="16"
   inkscape:version="1.2.2 (b0a8486541, 2022-12-01)"
   xmlns:inkscape="http://www.inkscape.org/namespaces/inkscape"
   xmlns:sodipodi="http://sodipodi.sourceforge.net/DTD/sodipodi-0.dtd"
   xmlns:xlink="http://www.w3.org/1999/xlink"
   xmlns="http://www.w3.org/2000/svg"
   xmlns:svg="http://www.w3.org/2000/svg">
  <sodipodi:namedview
     id="namedview92"
     pagecolor="#ffffff"
     bordercolor="#666666"
     borderopacity="1.0"
     inkscape:showpageshadow="2"
     inkscape:pageopacity="0.0"
     inkscape:pagecheckerboard="0"
     inkscape:deskcolor="#d1d1d1"
     showgrid="false"
     inkscape:zoom="20.85965"
     inkscape:cx="3.9070646"
     inkscape:cy="25.288056"
     inkscape:window-width="3840"
     inkscape:window-height="2061"
     inkscape:window-x="1280"
     inkscape:window-y="0"
     inkscape:window-maximized="1"
     inkscape:current-layer="svg90" />
  <defs
     id="defs56">
    <linearGradient
       id="linearGradient1206">
      <stop
         stop-color="#e4bc4d"
         offset="0"
         id="stop2" />
      <stop
         stop-color="#c90"
         offset="1"
         id="stop4" />
    </linearGradient>
    <linearGradient
       id="linearGradient1150">
      <stop
         stop-color="#8d6420"
         offset="0"
         id="stop7" />
      <stop
         stop-color="#a77d35"
         offset="1"
         id="stop9" />
    </linearGradient>
    <linearGradient
       id="linearGradient1282"
       x1="70.568001"
       x2="70.568001"
       y1="21"
       y2="3"
       gradientTransform="translate(12.5)"
       gradientUnits="userSpaceOnUse">
      <stop
         stop-color="#d3a00f"
         offset="0"
         id="stop12" />
      <stop
         stop-color="#fc6"
         offset=".5"
         id="stop14" />
      <stop
         stop-color="#ff9"
         offset="1"
         id="stop16" />
    </linearGradient>
    <linearGradient
       id="linearGradient1300"
       x1="57.543999"
       x2="82.568001"
       y1="18.976999"
       y2="18.976999"
       gradientTransform="translate(12.5)"
       gradientUnits="userSpaceOnUse">
      <stop
         stop-color="#ff9"
         offset="0"
         id="stop19" />
      <stop
         stop-color="#ffcd67"
         offset=".5"
         id="stop21" />
      <stop
         stop-color="#d3a00f"
         offset="1"
         id="stop23" />
    </linearGradient>
    <linearGradient
       id="linearGradient1319"
       x1="62.568001"
       x2="62.568001"
       y1="43.5"
       y2="22.5"
       gradientTransform="translate(12.5)"
       gradientUnits="userSpaceOnUse">
      <stop
         stop-color="#ffd06a"
         offset="0"
         id="stop26" />
      <stop
         stop-color="#ffffc6"
         offset="1"
         id="stop28" />
    </linearGradient>
    <linearGradient
       id="linearGradient1327"
       x1="57.068001"
       x2="57.068001"
       y1="41"
       y2="24"
       gradientTransform="translate(12.5)"
       gradientUnits="userSpaceOnUse">
      <stop
         stop-color="#d8a518"
         offset="0"
         id="stop31" />
      <stop
         stop-color="#ffec86"
         offset="1"
         id="stop33" />
    </linearGradient>
    <linearGradient
       id="linearGradient1341"
       x1="60.817001"
       x2="60.817001"
       y1="43.862"
       y2="25.459"
       gradientTransform="translate(12.5)"
       gradientUnits="userSpaceOnUse">
      <stop
         stop-color="#fffff0"
         offset="0"
         id="stop36" />
      <stop
         stop-color="#fffd9d"
         offset=".5"
         id="stop38" />
      <stop
         stop-color="#fefbec"
         offset="1"
         id="stop40" />
    </linearGradient>
    <linearGradient
       id="linearGradient1367"
       x1="53.068001"
       x2="53.068001"
       y1="74.257004"
       y2="64.257004"
       gradientTransform="translate(32.105,-36.757)"
       gradientUnits="userSpaceOnUse">
      <stop
         stop-color="#daa943"
         offset="0"
         id="stop43" />
      <stop
         stop-color="#817a69"
         offset="1"
         id="stop45" />
    </linearGradient>
    <linearGradient
       id="linearGradient1152"
       x1="41.595001"
       x2="47.459999"
       y1="30.490999"
       y2="31.483"
       gradientTransform="translate(25.517,2.015)"
       gradientUnits="userSpaceOnUse"
       xlink:href="#linearGradient1150" />
    <linearGradient
       id="linearGradient1152-6"
       x1="41.595001"
       x2="47.459999"
       y1="30.490999"
       y2="31.483"
       gradientTransform="translate(40.722,1.2997)"
       gradientUnits="userSpaceOnUse"
       xlink:href="#linearGradient1150" />
    <linearGradient
       id="linearGradient1208"
       x1="71.568001"
       x2="96.568001"
       y1="31.061001"
       y2="31.061001"
       gradientUnits="userSpaceOnUse"
       xlink:href="#linearGradient1206" />
    <linearGradient
       id="linearGradient1216"
       x1="67.568001"
       x2="96.568001"
       y1="18.976999"
       y2="18.976999"
       gradientUnits="userSpaceOnUse"
       xlink:href="#linearGradient1206" />
    <linearGradient
       id="linearGradient1224"
       x1="78.568001"
       x2="78.568001"
       y1="2"
       y2="21"
       gradientUnits="userSpaceOnUse"
       xlink:href="#linearGradient1206" />
    <filter
       id="filter894"
       x="-0.15435106"
       y="-0.10206869"
       width="1.3087021"
       height="1.2041374"
       color-interpolation-filters="sRGB">
      <feGaussianBlur
         stdDeviation="10.291874"
         id="feGaussianBlur53" />
    </filter>
    <filter
       inkscape:collect="always"
       style="color-interpolation-filters:sRGB"
       id="filter1085"
       x="-0.18467298"
       y="-0.1220925"
       width="1.369346"
       height="1.244185">
      <feGaussianBlur
         inkscape:collect="always"
         stdDeviation="0.76316694"
         id="feGaussianBlur1087" />
    </filter>
  </defs>
  <path
     id="path390"
     style="opacity:0.75;fill:#000000;fill-opacity:1;stroke-width:0.342038;filter:url(#filter1085)"
     d="m 9.1363011,0.49955197 c -0.044733,0.001417 -0.089741,0.005117 -0.1347657,0.009766 C 7.2067387,0.69463975 5.2495823,2.1992285 5.2495823,4.6831458 V 5.8140051 C 5.1353279,5.8644699 5.0238006,5.9160126 4.9175511,5.968302 4.2948469,6.2747582 3.814592,6.6023194 3.5679417,6.983927 a 0.1710361,0.1710361 0 0 0 -0.025391,0.09375 h -0.00195 v 6.498047 c 0,0.351539 0.2338757,0.771131 0.5253906,1.152344 0.1457574,0.190605 0.3085711,0.365421 0.4765626,0.498046 0.1600385,0.126347 0.3260274,0.219825 0.5097656,0.228516 a 0.1710361,0.1710361 0 0 0 0.00195,0.002 c 1.2586431,0.179807 3.2271182,-0.2163 4.9531245,-0.798828 0.863004,-0.291264 1.662813,-0.631206 2.275391,-0.978515 0.612579,-0.347311 1.054568,-0.678294 1.169922,-1.082032 a 0.1710361,0.1710361 0 0 0 0.0059,-0.04687 V 6.062052 a 0.1710361,0.1710361 0 0 0 0,-0.00977 0.171019,0.171019 0 0 0 -0.0039,-0.037109 C 13.445522,5.8833288 13.391914,5.7574754 13.314035,5.6167395 13.228793,5.4626811 13.11122,5.2982832 12.972238,5.1421301 12.694276,4.829824 12.335247,4.5401596 11.931223,4.5132239 11.872341,4.5092984 11.81051,4.507916 11.749582,4.5054114 V 3.3159582 c 0,-0.7361258 -0.331974,-1.4655989 -0.835938,-2 C 10.441178,0.81495729 9.8072921,0.47830368 9.1363011,0.49955197 Z M 9.0601292,2.1011145 c 0.43173,-0.00558 0.725954,0.1989304 0.9453128,0.5195313 0.250695,0.3664008 0.375,0.8943533 0.375,1.3789062 V 4.546427 C 9.3434509,4.6393662 8.1930987,4.8579325 7.1284885,5.155802 6.9556796,5.2041526 6.7860471,5.2538166 6.6187229,5.3061926 V 4.8550208 c 0,-0.8094885 0.3215184,-1.4566521 0.765625,-1.9238282 0.4441068,-0.467176 1.0154516,-0.7477386 1.4824219,-0.8144531 0.067484,-0.00964 0.1316837,-0.014828 0.1933594,-0.015625 z" />
  <g
     transform="matrix(0.34203809,0,0,0.34203809,-20.070382,-0.43375549)"
     id="g86">
    <path
       d="m 68.068,20.5 v 19 c 0,1.5 2.5,5 4,5 v -20 c -1.131,-0.31087 -3.4561,-3.0983 -4,-4 z"
       fill="url(#linearGradient1327)"
       id="path60"
       style="fill:url(#linearGradient1327)" />
    <path
       d="m 72.068,24.5 v 20 c 7,1 23,-4.5 24,-8 v -19"
       fill="url(#linearGradient1319)"
       id="path62"
       style="fill:url(#linearGradient1319)" />
    <g
       fill="none"
       id="g70">
      <path
         d="m 96.068,19 c -2.1333,1.6271 -16.5,6.5 -23,6.5 v 19"
         stroke="url(#linearGradient1341)"
         stroke-width="1.5"
         id="path64"
         style="stroke:url(#linearGradient1341)" />
      <path
         d="m 68.068,20.5 v 19 c 0,1.5 2.5,5 4,5"
         stroke="#d09d07"
         stroke-width="1px"
         id="path66" />
      <path
         d="m 72.068,24.5 v 20 c 7,1 23,-4.5 24,-8 v -19"
         stroke="url(#linearGradient1208)"
         stroke-linecap="round"
         stroke-linejoin="round"
         stroke-width="1px"
         id="path68"
         style="stroke:url(#linearGradient1208)" />
    </g>
    <g
       id="g84">
      <g
         stroke-linecap="round"
         stroke-linejoin="round"
         id="g80">
        <path
           d="m 72.068,24.5 c -1,0 -3.5,-2.5 -4,-4 2.5,-3.8679 16.5,-7.5 24,-7 1.8814,0.12543 4,3 4,4 -1.1547,2 -15.667,7 -24,7 z"
           fill="url(#linearGradient1300)"
           stroke="url(#linearGradient1216)"
           stroke-width="1px"
           id="path72"
           style="fill:url(#linearGradient1300);stroke:url(#linearGradient1216)" />
        <ellipse
           transform="rotate(-9.5941)"
           cx="69.976997"
           cy="33.498001"
           rx="3.0142"
           ry="1.814"
           fill="url(#linearGradient1152)"
           fill-rule="evenodd"
           stroke-width="5"
           id="ellipse74"
           style="fill:url(#linearGradient1152)" />
        <ellipse
           transform="rotate(-9.5941)"
           cx="85.181999"
           cy="32.782001"
           rx="3.1270001"
           ry="1.814"
           fill="url(#linearGradient1152-6)"
           fill-rule="evenodd"
           stroke-width="5"
           id="ellipse76"
           style="fill:url(#linearGradient1152-6)" />
        <path
           d="m 76.068,21 v -7 c 0,-5 4,-8.0714 7,-8.5 3.5,-0.5 5,3 5,6 v 7 c 0,1 3,0 3,-1 v -8 c 0,-4 -3.6523,-8.1005 -7.481,-7.7052 C 78.5766,2.31215 73.068,6.5 73.068,13.4998 v 8 c 0,1 3,0.36287 3,-0.5 z"
           fill="url(#linearGradient1282)"
           stroke="url(#linearGradient1224)"
           stroke-width="1px"
           id="path78"
           style="fill:url(#linearGradient1282);stroke:url(#linearGradient1224)" />
      </g>
      <path
         d="m 86.568,26.724 -2.5,0.77616 v 3.5 c -1.0617,0.47721 -1.6692,1.326 -1.5098,2.1094 0.1237,0.60532 0.68922,1.0794 1.5098,1.2656 v 3.625 l 2.5,-0.73661 v -3.1814 c 1.0354,-0.48218 1.621,-1.3187 1.4629,-2.0898 -0.1215,-0.59274 -0.667,-1.0603 -1.4629,-1.2539 v -0.20703 z"
         fill="url(#linearGradient1367)"
         id="path82"
         style="fill:url(#linearGradient1367)" />
    </g>
  </g>
</svg>
