<?xml version="1.0" encoding="UTF-8" standalone="no"?>
<svg
   version="1.1"
   viewBox="0 0 16 16"
   id="svg105"
   sodipodi:docname="logo.svg"
   width="16"
   height="16"
   inkscape:version="1.2.2 (b0a8486541, 2022-12-01)"
   xmlns:inkscape="http://www.inkscape.org/namespaces/inkscape"
   xmlns:sodipodi="http://sodipodi.sourceforge.net/DTD/sodipodi-0.dtd"
   xmlns:xlink="http://www.w3.org/1999/xlink"
   xmlns="http://www.w3.org/2000/svg"
   xmlns:svg="http://www.w3.org/2000/svg">
  <sodipodi:namedview
     id="namedview107"
     pagecolor="#ffffff"
     bordercolor="#666666"
     borderopacity="1.0"
     inkscape:showpageshadow="2"
     inkscape:pageopacity="0.0"
     inkscape:pagecheckerboard="0"
     inkscape:deskcolor="#d1d1d1"
     showgrid="false"
     inkscape:zoom="59"
     inkscape:cx="5.8644068"
     inkscape:cy="4.4152543"
     inkscape:window-width="3840"
     inkscape:window-height="2061"
     inkscape:window-x="1280"
     inkscape:window-y="0"
     inkscape:window-maximized="1"
     inkscape:current-layer="svg105" />
  <defs
     id="defs77">
    <linearGradient
       id="linearGradient135223">
      <stop
         stop-color="#889d46"
         offset="0"
         id="stop2" />
      <stop
         stop-color="#4e5f20"
         offset="1"
         id="stop4" />
    </linearGradient>
    <linearGradient
       id="linearGradient98871">
      <stop
         stop-color="#254177"
         offset="0"
         id="stop7" />
      <stop
         stop-color="#9bbadd"
         offset="1"
         id="stop9" />
    </linearGradient>
    <linearGradient
       id="linearGradient2574"
       x1="-30.952999"
       x2="-47.787998"
       y1="11.537"
       y2="-4.1659999"
       gradientUnits="userSpaceOnUse">
      <stop
         stop-color="#c91200"
         offset="0"
         id="stop12" />
      <stop
         stop-color="#fd581a"
         offset="1"
         id="stop14" />
    </linearGradient>
    <linearGradient
       id="linearGradient45897"
       x1="-1.6315"
       x2="29.084"
       y1="-22.743"
       y2="-22.743"
       gradientUnits="userSpaceOnUse">
      <stop
         stop-color="#556b9c"
         offset="0"
         id="stop17" />
      <stop
         stop-color="#6c96ca"
         offset=".3"
         id="stop19" />
      <stop
         stop-color="#1e1e69"
         offset="1"
         id="stop21" />
    </linearGradient>
    <linearGradient
       id="linearGradient98873"
       x1="1.311"
       x2="1.311"
       y1="-17.354"
       y2="-40.554001"
       gradientUnits="userSpaceOnUse"
       xlink:href="#linearGradient98871" />
    <linearGradient
       id="linearGradient109036"
       x1="-0.43228999"
       x2="29.568001"
       y1="17.5"
       y2="17.5"
       gradientUnits="userSpaceOnUse">
      <stop
         stop-color="#8cbb27"
         offset="0"
         id="stop25" />
      <stop
         stop-color="#8ecb42"
         offset=".3"
         id="stop27" />
      <stop
         stop-color="#506e14"
         offset="1"
         id="stop29" />
    </linearGradient>
    <linearGradient
       id="linearGradient135225"
       x1="5.5676999"
       x2="14.568"
       y1="10"
       y2="22.5"
       gradientUnits="userSpaceOnUse"
       xlink:href="#linearGradient135223" />
    <linearGradient
       id="linearGradient156985"
       x1="-55.145"
       x2="-2.8497"
       y1="-10.98"
       y2="41.145"
       gradientUnits="userSpaceOnUse">
      <stop
         stop-color="#ffde2e"
         offset="0"
         id="stop33" />
      <stop
         stop-color="#c75627"
         offset=".45122"
         id="stop35" />
      <stop
         stop-color="#fec001"
         offset=".6272"
         id="stop37" />
      <stop
         stop-color="#fec001"
         offset=".87069"
         id="stop39" />
      <stop
         stop-color="#e5ab00"
         offset="1"
         id="stop41" />
    </linearGradient>
    <linearGradient
       id="linearGradient223860"
       x1="-46.372002"
       x2="-4.4603"
       y1="-19.952999"
       y2="21.966"
       gradientUnits="userSpaceOnUse">
      <stop
         stop-color="#d1aa5a"
         offset="0"
         id="stop44" />
      <stop
         stop-color="#8e5229"
         offset=".56323"
         id="stop46" />
      <stop
         stop-color="#dab255"
         offset=".77317"
         id="stop48" />
      <stop
         stop-color="#dab255"
         offset="1"
         id="stop50" />
    </linearGradient>
    <linearGradient
       id="linearGradient277620"
       x1="-116.63"
       x2="-84.132004"
       y1="20.532"
       y2="20.532"
       gradientUnits="userSpaceOnUse">
      <stop
         stop-color="#1e1e69"
         offset="0"
         id="stop53" />
      <stop
         stop-color="#6c96ca"
         offset=".7"
         id="stop55" />
      <stop
         stop-color="#556b9c"
         offset="1"
         id="stop57" />
    </linearGradient>
    <linearGradient
       id="linearGradient277669"
       x1="-116.63"
       x2="-84.132004"
       y1="20.532"
       y2="20.532"
       gradientUnits="userSpaceOnUse"
       xlink:href="#linearGradient98871" />
    <linearGradient
       id="linearGradient277928"
       x1="-115.43"
       x2="-84.931999"
       y1="-15"
       y2="-15"
       gradientUnits="userSpaceOnUse">
      <stop
         stop-color="#506e14"
         offset="0"
         id="stop61" />
      <stop
         stop-color="#8ecb42"
         offset=".7"
         id="stop63" />
      <stop
         stop-color="#8cbb27"
         offset="1"
         id="stop65" />
    </linearGradient>
    <linearGradient
       id="linearGradient278186"
       x1="-94.431999"
       x2="-98.431999"
       y1="-24"
       y2="-5.5"
       gradientUnits="userSpaceOnUse"
       xlink:href="#linearGradient135223" />
    <linearGradient
       id="linearGradient1414"
       x1="-49.969002"
       x2="-26.589001"
       y1="-17.76"
       y2="6.3804998"
       gradientUnits="userSpaceOnUse">
      <stop
         stop-color="#f04629"
         offset="0"
         id="stop69" />
      <stop
         stop-color="#8f1d0a"
         offset="1"
         id="stop71" />
    </linearGradient>
    <filter
       id="filter905"
       x="-0.098461277"
       y="-0.1634061"
       width="1.1969226"
       height="1.3268122"
       color-interpolation-filters="sRGB">
      <feGaussianBlur
         stdDeviation="9.9432006"
         id="feGaussianBlur74" />
    </filter>
    <filter
       inkscape:collect="always"
       style="color-interpolation-filters:sRGB"
       id="filter1197"
       x="-0.11779147"
       y="-0.19547045"
       width="1.2355829"
       height="1.3909409">
      <feGaussianBlur
         inkscape:collect="always"
         stdDeviation="0.73619746"
         id="feGaussianBlur1199" />
    </filter>
  </defs>
  <path
     id="path629"
     style="color:#000000;fill:#000000;fill-opacity:1;stroke-width:0.247557;stroke-linecap:round;stroke-linejoin:round;-inkscape-stroke:none;filter:url(#filter1197);opacity:0.75"
     d="m 3.7618594,3.9800208 a 0.1237785,0.1237785 0 0 0 -0.087891,0.037109 L 0.54115624,7.1499426 A 0.12379088,0.12379088 0 0 0 0.506,7.2358796 v 2.5273438 a 0.12379088,0.12379088 0 0 0 0.001953,0.00781 0.12379088,0.12379088 0 0 0 0.0175781,0.054687 0.12379088,0.12379088 0 0 0 0.003906,0.00586 0.12379088,0.12379088 0 0 0 0.0117187,0.019531 L 3.72475,12.983927 a 0.1237785,0.1237785 0 0 0 0.078125,0.03125 0.1237785,0.1237785 0 0 0 0.00977,0.0039 h 2.3730469 a 0.12379088,0.12379088 0 0 0 0.087891,-0.03711 L 8.041161,11.214389 9.838036,12.98392 a 0.12379088,0.12379088 0 0 0 0.085937,0.03516 h 2.324219 a 0.1237785,0.1237785 0 0 0 0.03125,-0.0039 0.1237785,0.1237785 0 0 0 0.002,0 0.1237785,0.1237785 0 0 0 0.04883,-0.02734 0.1237785,0.1237785 0 0 0 0.0059,-0.0039 l 3.132719,-3.0820442 a 0.12379088,0.12379088 0 0 0 0.03711,-0.087891 V 7.3413489 a 0.12379088,0.12379088 0 0 0 0,-0.00391 0.12379088,0.12379088 0 0 0 0,-0.00195 0.12379088,0.12379088 0 0 0 -0.02148,-0.066406 0.12379088,0.12379088 0 0 0 -0.01367,-0.017578 l -3.132812,-3.234375 a 0.1237785,0.1237785 0 0 0 -0.002,0 0.1237785,0.1237785 0 0 0 -0.05274,-0.033203 0.1237785,0.1237785 0 0 0 -0.002,0 0.1237785,0.1237785 0 0 0 -0.0332,-0.00391 h -2.222568 a 0.12379088,0.12379088 0 0 0 -0.08789,0.037113 L 8.0977968,5.8706458 6.2735781,4.0171301 A 0.12379088,0.12379088 0 0 0 6.1856875,3.9800208 Z M 12.252094,7.0034582 13.896625,8.5581458 12.252094,10.095255 10.718891,8.5366614 Z M 3.7638125,7.0054114 5.3868594,8.6030676 3.8145937,10.190958 2.1876406,8.4761145 Z" />
  <g
     transform="matrix(0.10104378,0,0,0.10104378,11.863157,8.0978104)"
     stroke-width="2.45"
     id="g101">
    <g
       id="g93">
      <g
         stroke-linecap="round"
         stroke-linejoin="round"
         stroke-width="2.45"
         id="g89">
        <path
           d="m -1.1315,-44.468 31,32 -13,12 -18,-17"
           fill="url(#linearGradient45897)"
           stroke="url(#linearGradient98873)"
           id="path81"
           style="fill:url(#linearGradient45897);stroke:url(#linearGradient98873)" />
        <path
           d="m -1.1315,16.532 31,-29 v 24.5 l -31,30.5"
           fill="url(#linearGradient109036)"
           stroke="url(#linearGradient135225)"
           id="path83"
           style="fill:url(#linearGradient109036);stroke:url(#linearGradient135225)" />
        <path
           d="m -84.632,42.532 -31.5,-31 13.5,-13 18,19"
           fill="url(#linearGradient277620)"
           stroke="url(#linearGradient277669)"
           id="path85"
           style="fill:url(#linearGradient277620);stroke:url(#linearGradient277669)" />
        <path
           d="m -85.132,-44.468 -31,31 v 25 l 31.052,-29"
           fill="url(#linearGradient277928)"
           stroke="url(#linearGradient278186)"
           id="path87"
           style="fill:url(#linearGradient277928);stroke:url(#linearGradient278186)" />
      </g>
      <path
         d="m -1.1315,42.532 h -23 l -60.948,-60 -0.05179,-27 h 24 l 60,61 z"
         fill="url(#linearGradient156985)"
         id="path91"
         style="fill:url(#linearGradient156985)" />
    </g>
    <path
       d="m -85.132,-44.468 h 24 l 60,61 m 0,26 h -23 l -60.948,-60"
       fill="none"
       stroke="url(#linearGradient223860)"
       stroke-linecap="round"
       stroke-linejoin="round"
       stroke-width="2.45"
       id="path95"
       style="stroke:url(#linearGradient223860)" />
    <path
       d="m -1.1315,-17.468 -60,60 h -23.5 v -25 l 61.5,-62 h 22 z"
       fill="url(#linearGradient2574)"
       id="path97"
       style="fill:url(#linearGradient2574)" />
    <path
       d="m -1.1315,-17.468 -60,60 h -23.5 m 0,-25 61.5,-62 h 22"
       fill="none"
       stroke="url(#linearGradient1414)"
       stroke-linecap="round"
       stroke-linejoin="round"
       stroke-width="2.45"
       id="path99"
       style="stroke:url(#linearGradient1414)" />
  </g>
</svg>
