<?xml version="1.0" encoding="UTF-8" standalone="no"?>
<svg
   inkscape:export-ydpi="96"
   inkscape:export-xdpi="96"
   inkscape:export-filename="/media/klapeto/Αρχεία/WindowsXP Theme/Vectors/RASTER/code-typedef.png"
   sodipodi:docname="member.svg"
   inkscape:version="1.2.2 (b0a8486541, 2022-12-01)"
   id="svg8"
   version="1.1"
   viewBox="0 0 16 16"
   height="16"
   width="16"
   xmlns:inkscape="http://www.inkscape.org/namespaces/inkscape"
   xmlns:sodipodi="http://sodipodi.sourceforge.net/DTD/sodipodi-0.dtd"
   xmlns:xlink="http://www.w3.org/1999/xlink"
   xmlns="http://www.w3.org/2000/svg"
   xmlns:svg="http://www.w3.org/2000/svg"
   xmlns:rdf="http://www.w3.org/1999/02/22-rdf-syntax-ns#"
   xmlns:cc="http://creativecommons.org/ns#"
   xmlns:dc="http://purl.org/dc/elements/1.1/">
  <defs
     id="defs2">
    <linearGradient
       inkscape:collect="always"
       xlink:href="#linearGradient1533-0"
       id="linearGradient1535-6"
       x1="73.080925"
       y1="80.633926"
       x2="69.067711"
       y2="78"
       gradientUnits="userSpaceOnUse"
       gradientTransform="matrix(2.4001154,0,0,2.4001154,-149.51724,-181.12817)" />
    <linearGradient
       inkscape:collect="always"
       id="linearGradient1533-0">
      <stop
         style="stop-color:#6699ff;stop-opacity:1"
         offset="0"
         id="stop1529-9" />
      <stop
         style="stop-color:#ffffff;stop-opacity:1"
         offset="1"
         id="stop1531-3" />
    </linearGradient>
    <linearGradient
       inkscape:collect="always"
       xlink:href="#linearGradient16226-1"
       id="linearGradient16228-0"
       x1="73.573524"
       y1="80.882851"
       x2="67.981888"
       y2="76.962982"
       gradientUnits="userSpaceOnUse"
       gradientTransform="matrix(2.4001154,0,0,2.4001154,-149.51724,-181.12817)" />
    <linearGradient
       inkscape:collect="always"
       id="linearGradient16226-1">
      <stop
         style="stop-color:#01429d;stop-opacity:1"
         offset="0"
         id="stop16222-2" />
      <stop
         style="stop-color:#75a4fd;stop-opacity:1"
         offset="1"
         id="stop16224-7" />
    </linearGradient>
    <radialGradient
       spreadMethod="pad"
       r="819.20001"
       id="gradient0-0-0"
       gradientUnits="userSpaceOnUse"
       gradientTransform="matrix(0.0208,0,0,0.0208,45.647671,27.19883)"
       cy="0"
       cx="0">
      <stop
         id="stop46-6-2"
         stop-color="#ccffcc"
         offset="0.0" />
      <stop
         id="stop48-3-3"
         stop-color="#009900"
         offset="1.0" />
    </radialGradient>
    <linearGradient
       x2="819.20001"
       x1="-819.20001"
       spreadMethod="pad"
       id="gradient1-2-7"
       gradientUnits="userSpaceOnUse"
       gradientTransform="matrix(-7e-4,0.0077,0.0063,5e-4,47.247671,32.34883)">
      <stop
         id="stop51-0-5"
         stop-color="#99ccff"
         offset="0.0" />
      <stop
         id="stop53-6-9"
         stop-color="#99ccff"
         offset="0.09411764705882353" />
      <stop
         id="stop55-1-2"
         stop-color="#ffffff"
         offset="0.396078431372549" />
      <stop
         id="stop57-5-2"
         stop-color="#ccffff"
         offset="1.0" />
    </linearGradient>
    <radialGradient
       spreadMethod="pad"
       r="819.20001"
       id="gradient2-5-8"
       gradientUnits="userSpaceOnUse"
       gradientTransform="matrix(0.0277,0,0,0.0277,46.397671,7.49883)"
       cy="0"
       cx="0">
      <stop
         id="stop60-9"
         stop-color="#ffff99"
         offset="0.0" />
      <stop
         id="stop62-4-7"
         stop-color="#ffcc66"
         offset="0.24313725490196078" />
      <stop
         id="stop64-7-3"
         stop-color="#ff9933"
         offset="0.7137254901960784" />
      <stop
         id="stop66-65-6"
         stop-color="#996600"
         offset="1.0" />
    </radialGradient>
    <linearGradient
       x2="819.20001"
       x1="-819.20001"
       spreadMethod="pad"
       id="gradient3-6-1"
       gradientUnits="userSpaceOnUse"
       gradientTransform="matrix(0,0.0022,0.0096,0,48.097671,12.89883)">
      <stop
         id="stop69-93-2"
         stop-color="#ff9933"
         offset="0.0" />
      <stop
         id="stop71-7-9"
         stop-color="#ff9933"
         offset="0.48627450980392156" />
      <stop
         id="stop73-4-3"
         stop-color="#ffcc66"
         offset="1.0" />
    </linearGradient>
    <radialGradient
       spreadMethod="pad"
       r="819.20001"
       id="gradient4-5-1"
       gradientUnits="userSpaceOnUse"
       gradientTransform="matrix(0.016,0,0,0.016,46.997671,6.54883)"
       cy="0"
       cx="0">
      <stop
         id="stop76-2-9"
         stop-color="#f0ddbd"
         offset="0.0" />
      <stop
         id="stop78-5-4"
         stop-color="#d8a650"
         offset="0.3803921568627451" />
      <stop
         id="stop80-4-7"
         stop-color="#996600"
         offset="0.8196078431372549" />
      <stop
         id="stop82-7-8"
         stop-color="#926821"
         offset="1.0" />
    </radialGradient>
    <linearGradient
       x2="819.20001"
       x1="-819.20001"
       spreadMethod="pad"
       id="gradient5-4-4"
       gradientUnits="userSpaceOnUse"
       gradientTransform="matrix(-0.0075,0.0035,0.0026,0.0056,48.397671,11.29883)">
      <stop
         id="stop85-4-5"
         stop-color="#996600"
         offset="0.0" />
      <stop
         id="stop87-3-0"
         stop-color="#f0ddbd"
         offset="0.3411764705882353" />
      <stop
         id="stop89-0-3"
         stop-color="#d8a650"
         offset="0.6784313725490196" />
      <stop
         id="stop91-7-6"
         stop-color="#996600"
         offset="1.0" />
    </linearGradient>
    <radialGradient
       spreadMethod="pad"
       r="819.20001"
       id="gradient6-8-1"
       gradientUnits="userSpaceOnUse"
       gradientTransform="matrix(0.0208,0,0,0.0208,27.997671,29.64883)"
       cy="0"
       cx="0">
      <stop
         id="stop94-6-0"
         stop-color="#99ccff"
         offset="0.0" />
      <stop
         id="stop96-8-6"
         stop-color="#5465fd"
         offset="0.6235294117647059" />
      <stop
         id="stop98-84-3"
         stop-color="#0236b0"
         offset="1.0" />
    </radialGradient>
    <linearGradient
       x2="819.20001"
       x1="-819.20001"
       spreadMethod="pad"
       id="gradient7-3-2"
       gradientUnits="userSpaceOnUse"
       gradientTransform="matrix(7e-4,0.0076,0.0063,-5e-4,27.847671,34.09883)">
      <stop
         id="stop101-1-0"
         stop-color="#5465fd"
         offset="0.0" />
      <stop
         id="stop103-4-6"
         stop-color="#99ccff"
         offset="0.30980392156862746" />
      <stop
         id="stop105-9-1"
         stop-color="#ccffff"
         offset="1.0" />
    </linearGradient>
    <radialGradient
       spreadMethod="pad"
       r="819.20001"
       id="gradient8-2-5"
       gradientUnits="userSpaceOnUse"
       gradientTransform="matrix(0.0274,0,0,0.0274,27.897671,9.99883)"
       cy="0"
       cx="0">
      <stop
         id="stop108-5"
         stop-color="#ffcc66"
         offset="0.0" />
      <stop
         id="stop110-0-4"
         stop-color="#ff9933"
         offset="0.34509803921568627" />
      <stop
         id="stop112-6-7"
         stop-color="#660000"
         offset="1.0" />
    </radialGradient>
    <linearGradient
       x2="819.20001"
       x1="-819.20001"
       spreadMethod="pad"
       id="gradient9-8-6"
       gradientUnits="userSpaceOnUse"
       gradientTransform="matrix(4e-4,0.002,0.0096,-0.0019,27.747671,14.99883)">
      <stop
         id="stop115-5"
         stop-color="#990000"
         offset="0.0" />
      <stop
         id="stop117-9-6"
         stop-color="#ff9933"
         offset="0.9254901960784314" />
      <stop
         id="stop119-26-9"
         stop-color="#ff9933"
         offset="1.0" />
    </linearGradient>
    <linearGradient
       x2="819.20001"
       x1="-819.20001"
       spreadMethod="pad"
       id="gradient10-6-3"
       gradientUnits="userSpaceOnUse"
       gradientTransform="matrix(0,0.0139,0.0111,0,26.647671,19.24883)">
      <stop
         id="stop122-7"
         stop-color="#996600"
         offset="0.0" />
      <stop
         id="stop124-4"
         stop-color="#660000"
         offset="1.0" />
    </linearGradient>
    <radialGradient
       spreadMethod="pad"
       r="819.20001"
       id="gradient11-4-5"
       gradientUnits="userSpaceOnUse"
       gradientTransform="matrix(0.0264,0,0,0.0264,24.647671,9.29883)"
       cy="0"
       cx="0">
      <stop
         id="stop127-2"
         stop-color="#999999"
         offset="0.0" />
      <stop
         id="stop129-5"
         stop-color="#666666"
         offset="0.1803921568627451" />
      <stop
         id="stop131-4"
         stop-color="#000000"
         offset="0.8784313725490196" />
      <stop
         id="stop133-9-7"
         stop-color="#000000"
         offset="1.0" />
    </radialGradient>
    <linearGradient
       x2="819.20001"
       x1="-819.20001"
       spreadMethod="pad"
       id="gradient12-50-4"
       gradientUnits="userSpaceOnUse"
       gradientTransform="matrix(-0.0082,0.0011,2e-4,0.0016,26.097671,12.04883)">
      <stop
         id="stop136-4"
         stop-color="#333333"
         offset="0.0" />
      <stop
         id="stop138-4-3"
         stop-color="#bdbdbd"
         offset="0.40784313725490196" />
      <stop
         id="stop140-8-0"
         stop-color="#999999"
         offset="0.5843137254901961" />
      <stop
         id="stop142-7-7"
         stop-color="#333333"
         offset="1.0" />
    </linearGradient>
    <filter
       inkscape:collect="always"
       style="color-interpolation-filters:sRGB"
       id="filter1116"
       x="-0.1274"
       y="-0.17372727"
       width="1.2548"
       height="1.3474545">
      <feGaussianBlur
         inkscape:collect="always"
         stdDeviation="0.79625"
         id="feGaussianBlur1118" />
    </filter>
  </defs>
  <sodipodi:namedview
     inkscape:snap-global="true"
     inkscape:bbox-paths="false"
     fit-margin-bottom="0"
     fit-margin-right="0"
     fit-margin-left="0"
     fit-margin-top="0"
     inkscape:bbox-nodes="true"
     inkscape:snap-bbox="true"
     inkscape:window-maximized="1"
     inkscape:window-y="0"
     inkscape:window-x="1280"
     inkscape:window-height="2061"
     inkscape:window-width="3840"
     units="px"
     showgrid="true"
     inkscape:document-rotation="0"
     inkscape:current-layer="layer1"
     inkscape:document-units="px"
     inkscape:cy="9.3671875"
     inkscape:cx="9.59375"
     inkscape:zoom="64"
     inkscape:pageshadow="2"
     inkscape:pageopacity="0.0"
     borderopacity="1.0"
     bordercolor="#666666"
     pagecolor="#ffffff"
     id="base"
     showguides="true"
     inkscape:pagecheckerboard="0"
     inkscape:snap-grids="true"
     inkscape:showpageshadow="2"
     inkscape:deskcolor="#d1d1d1">
    <inkscape:grid
       originy="0"
       originx="0"
       id="grid1504"
       type="xygrid" />
    <inkscape:grid
       spacingy="0.5"
       spacingx="0.5"
       id="grid966"
       type="xygrid"
       originx="0"
       originy="0" />
  </sodipodi:namedview>
  <metadata
     id="metadata5">
    <rdf:RDF>
      <cc:Work
         rdf:about="">
        <dc:format>image/svg+xml</dc:format>
        <dc:type
           rdf:resource="http://purl.org/dc/dcmitype/StillImage" />
      </cc:Work>
    </rdf:RDF>
  </metadata>
  <g
     transform="translate(-12.567709)"
     id="layer1"
     inkscape:groupmode="layer"
     inkscape:label="Layer 1">
    <path
       id="path473"
       style="color:#000000;fill:#000000;fill-opacity:1;fill-rule:evenodd;stroke-linecap:round;stroke-linejoin:round;-inkscape-stroke:none;filter:url(#filter1116);opacity:0.75"
       d="m 13.567709,3.5 a 0.50005,0.50005 0 0 0 -0.5,0.5 v 10 a 0.50005,0.50005 0 0 0 0.5,0.5 h 14 a 0.50005,0.50005 0 0 0 0.5,-0.5 V 4 a 0.50005,0.50005 0 0 0 -0.5,-0.5 z" />
    <rect
       style="fill:url(#linearGradient1535-6);fill-opacity:1;fill-rule:evenodd;stroke:url(#linearGradient16228-0);stroke-width:1;stroke-linecap:round;stroke-linejoin:round;stroke-miterlimit:4;stroke-dasharray:none;stroke-opacity:1;stop-color:#000000"
       id="rect1447-7"
       width="13.99999"
       height="9.999999"
       x="13.067719"
       y="3.500001" />
    <path
       id="path3679"
       style="fill:#0099ff;fill-opacity:1;stroke-width:0.203024"
       d="m 22.821968,5.2380497 c -0.305781,0.00232 -0.58393,0.08059 -0.826172,0.234375 -0.170697,0.1083637 -0.322508,0.2534641 -0.457031,0.4335938 -0.301117,0.3708437 -0.473558,0.8491986 -0.517578,1.4277344 -0.0486,0.6248859 0.05442,1.1877361 0.314453,1.6796875 0.06837,0.1299107 0.146062,0.2460299 0.230469,0.3496093 -0.05575,0.013568 -0.111455,0.027074 -0.167969,0.042969 -0.499962,0.1388785 -0.859266,0.3431843 -1.068359,0.6269533 -0.0044,0.0059 -0.0094,0.01161 -0.01367,0.01758 C 20.196134,9.9996188 20.0646,9.9536398 19.92158,9.9138311 h -0.002 c -0.0039,-0.00109 -0.0079,-8.726e-4 -0.01172,-0.00195 A 0.10152215,0.10152215 0 0 0 19.8415,9.8630497 c 0.101476,-0.1144885 0.193301,-0.2476666 0.27539,-0.4003906 0.257164,-0.4804905 0.361826,-1.0286913 0.314453,-1.6445312 -0.01629,-0.2187757 -0.0512,-0.4210151 -0.103515,-0.609375 a 0.10152215,0.10152215 0 0 0 0.002,-0.00781 c -7.33e-4,-0.00729 -0.0038,-0.0129 -0.0078,-0.017578 -0.0017,-0.00595 -0.0041,-0.011657 -0.0059,-0.017578 h 0.0039 c -6.12e-4,-0.00128 -0.0024,-0.00142 -0.0039,-0.00195 -0.003,-0.00997 -0.0067,-0.019416 -0.0098,-0.029297 -0.06062,-0.4705621 -0.239792,-0.8530603 -0.5625,-1.1015625 -0.340358,-0.2620939 -0.814594,-0.3867187 -1.414062,-0.3867187 -0.527314,0 -1.014922,0.21091 -1.449219,0.6171875 -0.405449,0.3844771 -0.68044,0.8501592 -0.820312,1.3886719 -0.146671,0.5657305 -0.10579,1.0699219 0.130859,1.4941406 0.262153,0.4747095 0.734208,0.7663364 1.380859,0.8691403 -0.170182,0.0787 -0.333861,0.174575 -0.490234,0.289063 -0.339628,0.247645 -0.597841,0.578944 -0.773438,0.986328 -0.19033,0.444105 -0.20335,0.83737 -0.01367,1.148437 0.06022,0.101126 0.170696,0.150054 0.322265,0.193359 0.152246,0.0435 0.353404,0.07558 0.607422,0.09961 0.487218,0.04118 1.024738,0.03801 1.611328,-0.0098 0.749699,-0.06475 1.32047,-0.173158 1.720703,-0.330078 0.200117,-0.07846 0.359121,-0.169559 0.47461,-0.279297 0.038,-0.03611 0.07164,-0.07457 0.09961,-0.115234 0.375684,0.105411 0.824347,0.177426 1.351563,0.216797 0.587285,0.05463 1.12505,0.05787 1.613281,0.0098 0.254017,-0.02403 0.455176,-0.05611 0.607422,-0.09961 0.152245,-0.0435 0.26223,-0.0913 0.322265,-0.193359 0.188667,-0.310818 0.176333,-0.705086 -0.01367,-1.148438 -0.175706,-0.40067 -0.436124,-0.72724 -0.775379,-0.9746147 -0.148439,-0.1108513 -0.303524,-0.2049209 -0.464844,-0.2832032 0.05339,-0.047265 0.104816,-0.099254 0.15625,-0.1542968 0.365361,-0.393465 0.609392,-0.8902723 0.734375,-1.4804688 0.122652,-0.5680712 0.0951,-1.0793503 -0.08594,-1.5253906 -0.0014,-0.00389 -0.0024,-0.00784 -0.0039,-0.011719 -0.0013,-0.00327 -0.0025,-0.0065 -0.0039,-0.00977 C 24.507546,6.185927 24.429335,6.0435828 24.333687,5.9177373 24.065596,5.5650044 23.66129,5.3457154 23.138375,5.2614873 a 0.10152215,0.10152215 0 0 0 -0.002,0 c -0.107878,-0.015916 -0.212526,-0.024209 -0.314453,-0.023438 z" />
    <g
       id="g1495"
       transform="matrix(0.20302435,0,0,0.20302435,12.684174,3.6752585)">
      <path
         id="path2"
         stroke="none"
         fill-rule="evenodd"
         fill="url(#gradient0)"
         d="m 38.147671,37.69883 q 3,1.05 7.7,1.4 4.3,0.4 7.85,0.05 3.7,-0.35 4.2,-1.2 1.25,-2.05 -0.1,-5.2 -1.25,-2.85 -3.65,-4.6 -5.55,-4.15 -13.55,-1.9 -3.6,1 -5,2.9 -1.45,1.95 -1.1,5.55 0.2,1.8 3.65,3"
         style="fill:url(#gradient0-0-0)" />
      <path
         id="path4"
         stroke-width="1"
         stroke-linejoin="round"
         stroke-linecap="round"
         stroke="#006600"
         fill="none"
         d="m 38.147671,37.69883 q -3.45,-1.2 -3.65,-3 -0.35,-3.6 1.1,-5.55 1.4,-1.9 5,-2.9 8,-2.25 13.55,1.9 2.4,1.75 3.65,4.6 1.35,3.15 0.1,5.2 -0.5,0.85 -4.2,1.2 -3.55,0.35 -7.85,-0.05 -4.7,-0.35 -7.7,-1.4 z" />
      <path
         id="path6"
         stroke="none"
         fill-rule="evenodd"
         fill="url(#gradient1)"
         d="m 52.297671,27.19883 q -2.35,-1.4 -5.6,-1.4 l -3.25,-0.2 -1.45,0.2 q -0.95,5.6 2.35,12.45 4.2,-7.3 7.95,-11.05"
         style="fill:url(#gradient1-2-7)" />
      <path
         id="path8"
         stroke-width="1"
         stroke-linejoin="round"
         stroke-linecap="round"
         stroke="#006600"
         fill="none"
         d="m 52.297671,27.19883 q -3.75,3.75 -7.95,11.05 -3.3,-6.85 -2.35,-12.45 l 1.45,-0.2 3.25,0.2 q 3.25,0 5.6,1.4 z" />
      <path
         id="path10"
         stroke="none"
         fill-rule="evenodd"
         fill="url(#gradient2)"
         d="m 46.297671,27.84883 q 3.4,0.45 6.25,-2.6 2.6,-2.8 3.5,-7.05 0.95,-4.4 -0.6,-7.7 -1.7,-3.75 -6.1,-4.5 -4.55,-0.8 -7.35,2.3 -2.55,2.7 -2.9,7.3 -0.35,4.5 1.5,8 2,3.8 5.7,4.25"
         style="fill:url(#gradient2-5-8)" />
      <path
         id="path12"
         stroke-width="1"
         stroke-linejoin="round"
         stroke-linecap="round"
         stroke="#996600"
         fill="none"
         d="m 46.297671,27.84883 q -3.7,-0.45 -5.7,-4.25 -1.85,-3.5 -1.5,-8 0.35,-4.6 2.9,-7.3 2.8,-3.1 7.35,-2.3 4.4,0.75 6.1,4.5 1.55,3.3 0.6,7.7 -0.9,4.25 -3.5,7.05 -2.85,3.05 -6.25,2.6 z" />
      <path
         id="path14"
         stroke="none"
         fill-rule="evenodd"
         fill="url(#gradient3)"
         d="m 55.947671,14.49883 q -2.3,-5.1 -8.25,-2.85 -5.1,1.95 -7.45,-0.4 4.05,5.2 8.25,2.8 3.25,-1.85 7.45,0.45"
         style="fill:url(#gradient3-6-1)" />
      <path
         id="path16"
         stroke="none"
         fill-rule="evenodd"
         fill="url(#gradient4)"
         d="m 56.447671,15.59883 q -0.05,-8.55 -7.5,-9.75 -6.1,-0.9 -8.9,5.65 1.1,1.35 3.75,1.85 1.4,0.3 2.6,-0.25 1.85,-0.85 3.95,-1.15 2.9,-0.4 4.7,1.3 1.35,1.2 1.4,2.35"
         style="fill:url(#gradient4-5-1)" />
      <path
         id="path20"
         stroke="none"
         fill-rule="evenodd"
         fill="url(#gradient5)"
         d="m 44.727964,13.182103 2.702839,-0.876434 c 1.1,-0.533334 2.022549,-0.859186 3.289215,-0.859186 2.833334,0 4.627653,0.952347 5.227653,3.452347 0.333333,-2.2 -0.6,-3.766667 -2.8,-4.7 -2.4,-1.033333 -4.45,-1.166667 -6.15,-0.4 l -1.75,1.05 c -0.633333,0.433333 -1.116667,0.683333 -1.45,0.75 -0.933333,0.233333 -1.633333,0.233333 -2.1,0 l -0.4,-0.3 -0.3,-0.15 c 0,-0.5 -0.133333,-0.533333 -0.4,-0.1 -0.266667,0.466667 -0.283333,0.8 -0.05,1 0.4,0.333333 1.033333,0.6 1.9,0.8"
         style="fill:url(#gradient5-4-4)"
         sodipodi:nodetypes="ccsccccccccccc" />
      <path
         sodipodi:nodetypes="cccccccc"
         id="path18"
         stroke-width="1"
         stroke-linejoin="round"
         stroke-linecap="round"
         stroke="#996600"
         fill="none"
         d="m 56.389154,15.600429 c -0.03333,-0.766667 -0.441483,-1.551599 -1.341483,-2.351599 -1.2,-1.133333 -2.766667,-1.566667 -4.7,-1.3 -1.4,0.2 -2.716667,0.583333 -3.95,1.15 -0.8,0.366667 -1.666667,0.45 -2.6,0.25 -1.766667,-0.333333 -3.016667,-0.95 -3.75,-1.85 1.866667,-4.3666667 4.833333,-6.25 8.9,-5.65 4.966667,0.8 7.40815,4.0515993 7.441483,9.751599 z" />
      <path
         id="path22"
         stroke="none"
         fill-rule="evenodd"
         fill="url(#gradient6)"
         d="m 19.947671,41.64883 q 3.55,0.3 7.85,-0.05 11,-0.95 11.35,-4.45 0.35,-3.55 -1.1,-5.5 -1.4,-1.9 -5,-2.9 -7.95,-2.25 -13.55,1.85 -2.4,1.75 -3.65,4.65 -1.35,3.15 -0.1,5.2 0.5,0.85 4.2,1.2"
         style="fill:url(#gradient6-8-1)" />
      <path
         id="path24"
         stroke-width="1"
         stroke-linejoin="round"
         stroke-linecap="round"
         stroke="#0236b0"
         fill="none"
         d="m 19.947671,41.64883 q 3.55,0.3 7.85,-0.05 11,-0.95 11.35,-4.45 0.35,-3.55 -1.1,-5.5 -1.4,-1.9 -5,-2.9 -7.95,-2.25 -13.55,1.85 -2.4,1.75 -3.65,4.65 -1.35,3.15 -0.1,5.2 0.5,0.85 4.2,1.2 z" />
      <path
         id="path26"
         stroke="none"
         fill-rule="evenodd"
         fill="url(#gradient7)"
         d="m 27.997671,28.49883 q -3.25,0 -5.6,1.4 3.75,3.75 8.05,10.8 3.2,-6.6 2.25,-12.2 l -1.45,-0.2 -3.25,0.2"
         style="fill:url(#gradient7-3-2)" />
      <path
         id="path28"
         stroke-width="1"
         stroke-linejoin="round"
         stroke-linecap="round"
         stroke="#0236b0"
         fill="none"
         d="m 27.997671,28.49883 q -3.25,0 -5.6,1.4 3.75,3.75 8.05,10.8 3.2,-6.6 2.25,-12.2 l -1.45,-0.2 z" />
      <path
         id="path30"
         stroke="none"
         fill-rule="evenodd"
         fill="url(#gradient8)"
         d="m 25.047671,8.54883 q -4.4,0.75 -6.15,4.45 -1.55,3.25 -0.65,7.55 0.9,4.2 3.5,6.95 2.8,3 6.2,2.6 3.7,-0.45 5.7,-4.25 1.9,-3.45 1.55,-7.85 -0.35,-4.55 -2.8,-7.2 -2.85,-3.05 -7.35,-2.25"
         style="fill:url(#gradient8-2-5)" />
      <path
         id="path34"
         stroke="none"
         fill-rule="evenodd"
         fill="url(#gradient9)"
         d="m 35.297671,15.64883 q -1.15,-4.45 -8.25,-1.55 -5.1,2.1 -8.2,1.45 5.8,2.2 9.95,0.25 3.1,-1.5 6.5,-0.15"
         style="fill:url(#gradient9-8-6)" />
      <path
         id="path36"
         stroke="none"
         fill-rule="evenodd"
         fill="url(#gradient10)"
         d="m 35.697671,17.94883 q -0.35,-4.7 -2.95,-7.5 -2.95,-3.25 -7.75,-2.4 -4.6,0.8 -6.45,4.65 -1.65,3.4 -0.7,7.9 0.9,4.4 3.65,7.25 2.95,3.1 6.55,2.65 3.95,-0.45 6.1,-4.45 1.9,-3.55 1.55,-8.1 m -0.9,0.05 q 0.3,4.3 -1.45,7.6 -1.95,3.55 -5.4,4 -3.2,0.4 -5.85,-2.45 -2.5,-2.7 -3.35,-6.7 -0.85,-4.15 0.6,-7.25 1.65,-3.55 5.8,-4.25 4.3,-0.7 6.95,2.1 2.4,2.55 2.7,6.95"
         style="fill:url(#gradient10-6-3)" />
      <path
         id="path38"
         stroke="none"
         fill-rule="evenodd"
         fill="url(#gradient11)"
         d="m 34.697671,14.94883 q -0.7,-7.2 -9.35,-7.2 -3.7,0 -6.8,2.9 -2.9,2.75 -3.9,6.6 -1.05,4.05 0.6,7 1.85,3.35 6.6,4.05 2.1,0.1 2.65,-0.9 -4.45,-0.85 -3.85,-6.55 0.2,-2.1 1.05,-3.9 0.85,-1.75 1.65,-1.85 1.95,-0.2 4.1,-1.2 1.85,-0.9 3.35,-0.85 3,0.05 3.9,1.9"
         style="fill:url(#gradient11-4-5)" />
      <path
         id="path40"
         stroke-width="1"
         stroke-linejoin="round"
         stroke-linecap="round"
         stroke="#000000"
         fill="none"
         d="m 34.697671,14.94883 q -0.7,-7.2 -9.35,-7.2 -3.7,0 -6.8,2.9 -2.9,2.75 -3.9,6.6 -1.05,4.05 0.6,7 1.85,3.35 6.6,4.05 2.1,0.1 2.65,-0.9 -4.45,-0.85 -3.85,-6.55 0.2,-2.1 1.05,-3.9 0.85,-1.75 1.65,-1.85 1.95,-0.2 4.1,-1.2 1.85,-0.9 3.35,-0.85 3,0.05 3.9,1.9 z" />
      <path
         id="path42-1"
         stroke="none"
         fill-rule="evenodd"
         fill="url(#gradient12)"
         d="m 27.847671,12.19883 q 1.25,-0.7 3.35,-0.3 l 1.55,0.25 q -0.95,-1.8 -3,-1.95 -1.7,-0.1 -3.5,0.9 -1.15,0.65 -3.35,1.35 l -3.15,0.8 q -0.85,0.1 -0.3,0.3 l 1.8,0.2 q 3.75,0.1 6.6,-1.55"
         style="fill:url(#gradient12-50-4)" />
    </g>
  </g>
</svg>
