<?xml version="1.0" encoding="UTF-8" standalone="no"?>
<svg
   version="1.1"
   viewBox="0 0 16 16"
   xml:space="preserve"
   id="svg47"
   sodipodi:docname="multiple-devices.svg"
   inkscape:version="1.3.2 (1:1.3.2+202311252150+091e20ef0f)"
   inkscape:export-filename="cellphone.png"
   inkscape:export-xdpi="32"
   inkscape:export-ydpi="32"
   width="16"
   height="16"
   xmlns:inkscape="http://www.inkscape.org/namespaces/inkscape"
   xmlns:sodipodi="http://sodipodi.sourceforge.net/DTD/sodipodi-0.dtd"
   xmlns="http://www.w3.org/2000/svg"
   xmlns:svg="http://www.w3.org/2000/svg"><sodipodi:namedview
     id="namedview47"
     pagecolor="#ffffff"
     bordercolor="#666666"
     borderopacity="1.0"
     inkscape:showpageshadow="2"
     inkscape:pageopacity="0.0"
     inkscape:pagecheckerboard="0"
     inkscape:deskcolor="#d1d1d1"
     inkscape:zoom="81.4695"
     inkscape:cx="8.4141918"
     inkscape:cy="11.188236"
     inkscape:window-width="3840"
     inkscape:window-height="2058"
     inkscape:window-x="0"
     inkscape:window-y="0"
     inkscape:window-maximized="1"
     inkscape:current-layer="svg47" /><defs
     id="defs32"><linearGradient
       id="linearGradient59"
       x1="-819.20001"
       x2="819.20001"
       gradientTransform="matrix(0,0.01009,0.017745,0,-65.603,159.54)"
       gradientUnits="userSpaceOnUse"><stop
         stop-color="#99c"
         offset="0"
         id="stop57"
         style="stop-color:#000000;stop-opacity:1;" /><stop
         stop-color="#669"
         offset="1"
         id="stop59" /></linearGradient><linearGradient
       id="linearGradient54"
       x1="-819.20001"
       x2="819.20001"
       gradientTransform="matrix(0,0.01009,0.017745,0,-65.603,159.54)"
       gradientUnits="userSpaceOnUse"><stop
         stop-color="#99c"
         offset="0"
         id="stop49"
         style="stop-color:#000000;stop-opacity:1;" /><stop
         stop-color="#669"
         offset="1"
         id="stop54" /></linearGradient><linearGradient
       id="gradient29"
       x1="-819.20001"
       x2="819.20001"
       gradientTransform="matrix(-0.015013,-6.4557e-5,-1.829e-4,0.026105,105.71,21.274)"
       gradientUnits="userSpaceOnUse"><stop
         stop-color="#66c"
         offset="0"
         id="stop1" /><stop
         offset=".48235"
         id="stop2" /><stop
         stop-color="#666"
         offset="1"
         id="stop3" /></linearGradient><linearGradient
       id="gradient30"
       x1="-819.20001"
       x2="819.20001"
       gradientTransform="matrix(0.031213,0.032369,0.034696,-0.034152,139.63,117.98)"
       gradientUnits="userSpaceOnUse"><stop
         stop-color="#333"
         offset="0"
         id="stop4" /><stop
         stop-color="#333"
         offset=".58824"
         id="stop5" /><stop
         stop-color="#333"
         offset="1"
         id="stop6" /></linearGradient><linearGradient
       id="gradient31"
       x1="-819.20001"
       x2="819.20001"
       gradientTransform="matrix(0.029421,0.029959,0.032566,-0.031689,138.32,115.77)"
       gradientUnits="userSpaceOnUse"><stop
         stop-color="#090"
         offset="0"
         id="stop7" /><stop
         stop-color="#6c3"
         offset=".58824"
         id="stop8" /><stop
         stop-color="#9f6"
         offset="1"
         id="stop9" /></linearGradient><linearGradient
       id="gradient33"
       x1="-819.20001"
       x2="819.20001"
       gradientTransform="matrix(-0.02266,-4.3304e-4,1.3717e-4,0.0050699,105.15,46.945)"
       gradientUnits="userSpaceOnUse"><stop
         stop-color="#333"
         offset="0"
         id="stop10" /><stop
         stop-color="#333"
         offset=".36863"
         id="stop11" /><stop
         stop-color="#999"
         offset="1"
         id="stop12" /></linearGradient><linearGradient
       id="gradient34"
       x1="-819.20001"
       x2="819.20001"
       gradientTransform="matrix(-0.063098,-0.064459,-0.060788,0.059599,96.018,150.13)"
       gradientUnits="userSpaceOnUse"><stop
         stop-color="#999"
         offset="0"
         id="stop13" /><stop
         stop-color="#ddd"
         offset="1"
         id="stop14" /></linearGradient><linearGradient
       id="gradient35"
       x1="-819.20001"
       x2="819.20001"
       gradientTransform="matrix(0.0022969,-1.6675e-4,-1.6675e-4,-0.0022969,151.89,205.76)"
       gradientUnits="userSpaceOnUse"><stop
         stop-color="#ddd"
         offset="0"
         id="stop15" /><stop
         stop-color="#999"
         offset="1"
         id="stop16" /></linearGradient><linearGradient
       id="gradient36"
       x1="-819.20001"
       x2="819.20001"
       gradientTransform="matrix(-5.379e-5,-0.0039214,-0.010336,7.5039e-4,150.99,75.597)"
       gradientUnits="userSpaceOnUse"><stop
         stop-color="#333"
         offset="0"
         id="stop17" /><stop
         stop-color="#999"
         offset=".62353"
         id="stop18" /><stop
         stop-color="#333"
         offset="1"
         id="stop19" /></linearGradient><linearGradient
       id="gradient37"
       x1="-819.20001"
       x2="819.20001"
       gradientTransform="matrix(-0.0019876,-0.0019338,-0.0019338,0.0019876,145.05,76.49)"
       gradientUnits="userSpaceOnUse"><stop
         stop-color="#999"
         offset="0"
         id="stop20" /><stop
         stop-color="#ccc"
         offset="1"
         id="stop21" /></linearGradient><linearGradient
       id="gradient38"
       x1="-819.20001"
       x2="819.20001"
       gradientTransform="matrix(-5.2985e-4,-0.0041178,-0.010336,7.5039e-4,125.78,76.619)"
       gradientUnits="userSpaceOnUse"><stop
         stop-color="#333"
         offset="0"
         id="stop22" /><stop
         stop-color="#999"
         offset=".62353"
         id="stop23" /><stop
         stop-color="#333"
         offset="1"
         id="stop24" /></linearGradient><linearGradient
       id="gradient39"
       x1="-819.20001"
       x2="819.20001"
       gradientTransform="matrix(-0.0019876,-0.0019338,-0.0019338,0.0019876,119.98,77.848)"
       gradientUnits="userSpaceOnUse"><stop
         stop-color="#999"
         offset="0"
         id="stop25" /><stop
         stop-color="#ccc"
         offset="1"
         id="stop26" /></linearGradient><linearGradient
       id="gradient40"
       x1="-819.20001"
       x2="819.20001"
       gradientTransform="matrix(0.019204,0.019618,0.025419,-0.025167,127.8,115.61)"
       gradientUnits="userSpaceOnUse"><stop
         stop-color="#cfc"
         offset="0"
         id="stop27" /><stop
         stop-color="#9f6"
         offset=".23529"
         id="stop28" /><stop
         stop-color="#6c3"
         offset="1"
         id="stop29" /></linearGradient><linearGradient
       id="gradient32-3"
       x1="-819.20001"
       x2="819.20001"
       gradientTransform="matrix(0.068864,0.070736,0.074604,-0.07284,135.51,145.53)"
       gradientUnits="userSpaceOnUse"><stop
         stop-color="#666"
         offset="0"
         id="stop30" /><stop
         stop-color="#ddd"
         offset=".58824"
         id="stop31" /><stop
         stop-color="#ccf"
         offset="1"
         id="stop32" /></linearGradient><linearGradient
       id="gradient0-3"
       x1="-819.20001"
       x2="819.20001"
       gradientTransform="matrix(-0.02205029,0,0,0.0215398,27.928516,19.736552)"
       gradientUnits="userSpaceOnUse"><stop
         stop-color="#669"
         offset="0"
         id="stop2-3" /><stop
         stop-color="#99c"
         offset="1"
         id="stop4-6" /></linearGradient><linearGradient
       id="gradient1-5"
       x1="-819.20001"
       x2="819.20001"
       gradientTransform="matrix(-0.02136902,0,0,0.02060329,70.19372,17.302744)"
       gradientUnits="userSpaceOnUse"><stop
         stop-color="#99c"
         offset="0"
         id="stop7-7" /><stop
         stop-color="#eee"
         offset="1"
         id="stop9-5" /></linearGradient><linearGradient
       id="gradient2-6"
       x1="-819.20001"
       x2="819.20001"
       gradientTransform="matrix(0,0.01804863,0.00629998,0,40.231726,21.993365)"
       gradientUnits="userSpaceOnUse"><stop
         stop-color="#66c"
         offset="0"
         id="stop12-3" /><stop
         stop-color="#aaa"
         offset="1"
         id="stop14-5" /></linearGradient><linearGradient
       id="gradient3-1"
       x1="-819.20001"
       x2="819.20001"
       gradientTransform="matrix(0,0.00476759,0.02128455,0,27.844046,6.540717)"
       gradientUnits="userSpaceOnUse"><stop
         stop-color="#99c"
         offset="0"
         id="stop17-6" /><stop
         stop-color="#fff"
         offset="1"
         id="stop19-2" /></linearGradient><linearGradient
       id="gradient4-0"
       x1="-819.20001"
       x2="819.20001"
       gradientTransform="matrix(-0.01225951,-0.00127704,-4.256727e-4,0.00417171,26.05549,27.05788)"
       gradientUnits="userSpaceOnUse"><stop
         stop-color="#99c"
         offset="0"
         id="stop22-9" /><stop
         stop-color="#99c"
         offset="1"
         id="stop24-1" /></linearGradient><linearGradient
       id="gradient5-6"
       x1="-819.20001"
       x2="819.20001"
       gradientTransform="matrix(0,0.00987562,0.01736754,0,14.647843,37.91225)"
       gradientUnits="userSpaceOnUse"><stop
         stop-color="#99c"
         offset="0"
         id="stop27-2" /><stop
         stop-color="#669"
         offset="1"
         id="stop29-7" /></linearGradient><radialGradient
       id="gradient6-2"
       cx="0"
       cy="0"
       r="819.20001"
       gradientTransform="matrix(0.02647761,0,0,0.02647761,6.9004936,35.783978)"
       gradientUnits="userSpaceOnUse"><stop
         stop-color="#fff"
         offset="0"
         id="stop32-0" /><stop
         stop-color="#ddd"
         offset=".28235"
         id="stop34" /><stop
         stop-color="#99c"
         offset="1"
         id="stop36" /></radialGradient><linearGradient
       id="gradient7-7"
       x1="-819.20001"
       x2="819.20001"
       gradientTransform="matrix(-0.00502302,-0.00485279,-0.00595953,0.00612975,18.989407,35.783978)"
       gradientUnits="userSpaceOnUse"><stop
         stop-color="#669"
         offset="0"
         id="stop39" /><stop
         stop-color="#99c"
         offset="1"
         id="stop41" /></linearGradient><linearGradient
       id="gradient8-0"
       x1="-819.20001"
       x2="819.20001"
       gradientTransform="matrix(-0.00229868,0.00919454,0.00689604,0.00170271,18.394446,34.166198)"
       gradientUnits="userSpaceOnUse"><stop
         stop-color="#339"
         offset="0"
         id="stop44" /><stop
         stop-color="#66c"
         offset=".27451"
         id="stop46" /><stop
         stop-color="#999"
         offset="1"
         id="stop48" /></linearGradient><linearGradient
       id="gradient9-5"
       x1="-819.20001"
       x2="819.20001"
       gradientTransform="matrix(-0.01506905,-0.01455819,-0.0162608,0.01677166,16.392879,18.161558)"
       gradientUnits="userSpaceOnUse"><stop
         stop-color="#66c"
         offset="0"
         id="stop51" /><stop
         stop-color="#999"
         offset="1"
         id="stop53" /></linearGradient><radialGradient
       id="gradient10-2"
       cx="0"
       cy="0"
       r="819.20001"
       gradientTransform="matrix(0.0343939,0,0,0.0343939,16.179868,4.7528953)"
       gradientUnits="userSpaceOnUse"><stop
         stop-color="#cff"
         offset="0"
         id="stop56" /><stop
         stop-color="#cff"
         offset=".094118"
         id="stop58" /><stop
         stop-color="#09f"
         offset="1"
         id="stop60" /></radialGradient><linearGradient
       id="gradient11-3"
       x1="-819.20001"
       x2="819.20001"
       gradientTransform="matrix(-0.01030146,-0.00996083,-0.0154947,0.01609058,18.30814,19.055285)"
       gradientUnits="userSpaceOnUse"><stop
         stop-color="#99c"
         offset="0"
         id="stop63" /><stop
         stop-color="#fff"
         offset="1"
         id="stop65" /></linearGradient><linearGradient
       id="gradient12-2"
       x1="-819.20001"
       x2="819.20001"
       gradientTransform="matrix(-0.01200408,0.00638518,7.6621454e-4,0.00153243,18.265905,27.823618)"
       gradientUnits="userSpaceOnUse"><stop
         stop-color="#66c"
         offset="0"
         id="stop68" /><stop
         stop-color="#99c"
         offset=".078431"
         id="stop70" /><stop
         stop-color="#fff"
         offset="1"
         id="stop72" /></linearGradient><linearGradient
       id="gradient13-9"
       x1="-819.20001"
       x2="819.20001"
       gradientTransform="matrix(-0.00178784,0.00510822,0.00434193,0.0014473,16.308409,36.296306)"
       gradientUnits="userSpaceOnUse"><stop
         stop-color="#99c"
         offset="0"
         id="stop75" /><stop
         stop-color="#eee"
         offset="1"
         id="stop77" /></linearGradient><linearGradient
       id="gradient5-6-9"
       x1="-819.20001"
       x2="819.20001"
       gradientTransform="matrix(0,0.01009,0.017745,0,-65.603,159.54)"
       gradientUnits="userSpaceOnUse"><stop
         stop-color="#99c"
         offset="0"
         id="stop2-36" /><stop
         stop-color="#669"
         offset="1"
         id="stop4-0" /></linearGradient><radialGradient
       id="gradient6-2-6"
       cx="0"
       cy="0"
       r="819.20001"
       gradientTransform="matrix(0.027052,0,0,0.027052,-73.518,157.36)"
       gradientUnits="userSpaceOnUse"><stop
         stop-color="#fff"
         offset="0"
         id="stop7-2" /><stop
         stop-color="#ddd"
         offset=".28235"
         id="stop9-6" /><stop
         stop-color="#99c"
         offset="1"
         id="stop11-1" /></radialGradient><linearGradient
       id="gradient7-7-8"
       x1="-819.20001"
       x2="819.20001"
       gradientTransform="matrix(-0.0051321,-0.0049581,-0.0060889,0.0062629,-61.166,157.36)"
       gradientUnits="userSpaceOnUse"><stop
         stop-color="#669"
         offset="0"
         id="stop14-7" /><stop
         stop-color="#99c"
         offset="1"
         id="stop16-9" /></linearGradient><linearGradient
       id="gradient8-0-2"
       x1="-819.20001"
       x2="819.20001"
       gradientTransform="matrix(-0.0023486,0.0093943,0.0070457,0.0017397,-61.775,155.71)"
       gradientUnits="userSpaceOnUse"><stop
         stop-color="#339"
         offset="0"
         id="stop19-0" /><stop
         stop-color="#66c"
         offset=".27451"
         id="stop21-2" /><stop
         stop-color="#999"
         offset="1"
         id="stop23-3" /></linearGradient><linearGradient
       id="gradient13-9-7"
       x1="-819.20001"
       x2="819.20001"
       gradientTransform="matrix(-0.0018267,0.0052191,0.0044362,0.0014787,-63.906,157.88)"
       gradientUnits="userSpaceOnUse"><stop
         stop-color="#99c"
         offset="0"
         id="stop26-5" /><stop
         stop-color="#eee"
         offset="1"
         id="stop28-9" /></linearGradient><linearGradient
       id="gradient9-5-2"
       x1="-819.20001"
       x2="819.20001"
       gradientTransform="matrix(-0.015396,-0.014874,-0.016614,0.017136,-63.819,139.36)"
       gradientUnits="userSpaceOnUse"><stop
         stop-color="#66c"
         offset="0"
         id="stop31-2" /><stop
         stop-color="#999"
         offset="1"
         id="stop33" /></linearGradient><radialGradient
       id="gradient10-2-8"
       cx="0"
       cy="0"
       r="819.20001"
       gradientTransform="matrix(0.035142,0,0,0.035142,-64.037,125.66)"
       gradientUnits="userSpaceOnUse"><stop
         stop-color="#cff"
         offset="0"
         id="stop36-9" /><stop
         stop-color="#cff"
         offset=".094118"
         id="stop38" /><stop
         stop-color="#09f"
         offset="1"
         id="stop40" /></radialGradient><linearGradient
       id="gradient11-3-7"
       x1="-819.20001"
       x2="819.20001"
       gradientTransform="matrix(-0.010525,-0.010177,-0.015831,0.01644,-61.862,140.27)"
       gradientUnits="userSpaceOnUse"><stop
         stop-color="#99c"
         offset="0"
         id="stop43" /><stop
         stop-color="#fff"
         offset="1"
         id="stop45" /></linearGradient><linearGradient
       id="gradient12-2-3"
       x1="-819.20001"
       x2="819.20001"
       gradientTransform="matrix(-0.012265,0.0065238,7.8286e-4,0.0015657,-61.906,149.23)"
       gradientUnits="userSpaceOnUse"><stop
         stop-color="#66c"
         offset="0"
         id="stop48-6" /><stop
         stop-color="#99c"
         offset=".078431"
         id="stop50" /><stop
         stop-color="#fff"
         offset="1"
         id="stop52" /></linearGradient><filter
       inkscape:collect="always"
       style="color-interpolation-filters:sRGB"
       id="filter27"
       x="-0.27239621"
       y="-0.10066115"
       width="1.5447924"
       height="1.2013223"><feGaussianBlur
         inkscape:collect="always"
         stdDeviation="0.47208968"
         id="feGaussianBlur27" /></filter><filter
       inkscape:collect="always"
       style="color-interpolation-filters:sRGB"
       id="filter59"
       x="-0.18805385"
       y="-0.12065905"
       width="1.3761077"
       height="1.2413181"><feGaussianBlur
         inkscape:collect="always"
         stdDeviation="0.75413833"
         id="feGaussianBlur59" /></filter></defs><path
     id="path27"
     style="fill:#000000;fill-opacity:1;fill-rule:evenodd;stroke-width:0.278;stroke-dasharray:none;filter:url(#filter59);opacity:0.75"
     d="m 10.892463,0.50233729 c -0.03123,0.003325 -0.06491,0.0110745 -0.09961,0.0214844 L 3.0057446,1.8968686 c -0.4534378,0.092541 -0.6139317,0.3384089 -0.484375,0.7363281 0.079776,0.2215997 0.6774298,3.0021488 1.7675781,8.1992183 -0.1009837,0.04972 -0.2003831,0.100541 -0.296875,0.15625 -0.9068756,0.508971 -1.359375,1.130266 -1.359375,1.861328 0,0.731062 0.4524994,1.354842 1.359375,1.873047 0.89762,0.518227 1.9891219,0.777344 3.2753906,0.777344 1.2770345,0 2.3685367,-0.259117 3.2753907,-0.777344 0.89762,-0.518227 1.347656,-1.142006 1.347656,-1.873047 0,-0.731062 -0.450036,-1.352357 -1.347656,-1.861328 -0.134,-0.07657 -0.271981,-0.145678 -0.414063,-0.210937 -0.04045,-0.490759 -0.09369,-0.9577885 -0.1601558,-1.4003907 L 11.833869,8.574603 C 12.037456,8.482064 12.125304,8.3019521 12.097541,8.0335873 L 11.292854,0.95350916 C 11.244271,0.6296201 11.111084,0.47906305 10.892463,0.50233729 Z" /><g
     transform="matrix(0.31915787,0,0,0.31915787,27.69165,-38.553734)"
     fill-rule="evenodd"
     stroke-width="0.86984"
     id="g75"
     style="stroke-width:0.871042;stroke-dasharray:none"><path
       d="m -80.085,159.49 q 0,3.4359 4.2622,5.8714 4.2187,2.4356 10.264,2.4356 6.0019,0 10.264,-2.4356 4.2187,-2.4356 4.2187,-5.8714 0,-3.4359 -4.2187,-5.828 -4.2622,-2.4356 -10.264,-2.4356 -6.0454,0 -10.264,2.4356 -4.2622,2.3921 -4.2622,5.828"
       fill="url(#gradient5-6)"
       id="path57"
       style="fill:url(#gradient5-6-9);stroke-width:0.871042;stroke-dasharray:none" /><path
       d="m -79.129,159.36 q 0,3.1749 3.9143,5.393 3.9578,2.2616 9.5248,2.2616 5.567,0 9.5248,-2.2616 3.9578,-2.2181 3.9578,-5.393 0,-3.1314 -3.9578,-5.393 -3.9578,-2.2181 -9.5248,-2.2181 -5.567,0 -9.5248,2.2181 -3.9143,2.2616 -3.9143,5.393"
       fill="url(#gradient6-2)"
       id="path59"
       style="fill:url(#gradient6-2-6);stroke-width:0.871042;stroke-dasharray:none" /><path
       d="m -57.382,148.1 -10.308,3.3924 c 0.95683,1.8847 1.7252,3.7548 2.3051,5.6105 l 1.5222,6.1759 2.1311,1.3048 c 2.7545,-0.84085 4.5667,-1.7252 5.4365,-2.653 0.02007,-0.38136 0.01235,-0.7438 0,-1.2178"
       fill="url(#gradient7-7)"
       id="path61"
       style="fill:url(#gradient7-7-8);stroke-width:0.871042;stroke-dasharray:none" /><path
       d="m -57.165,148.14 -9.1334,3.5664 c 1.8267,3.3634 3.0879,7.0022 3.7838,10.917 l 0.78286,0.69588 c 2.6095,-0.92783 4.4797,-1.7397 5.4365,-2.6095 0,-4.7262 -0.28995,-8.9159 -0.86984,-12.569"
       fill="url(#gradient8-0)"
       id="path63"
       style="fill:url(#gradient8-0-2);stroke-width:0.871042;stroke-dasharray:none" /><path
       d="m -64.167,157.41 1.1743,5.1321 1.2613,0.78286 q -0.39143,-4.6972 -1.9137,-9.8727 -1.1743,-0.5654 -2.3921,-1.0873 1.4352,3.3924 1.8702,5.0451"
       fill="url(#gradient13-9)"
       id="path65"
       style="fill:url(#gradient13-9-7);stroke-width:0.871042;stroke-dasharray:none" /><path
       d="m -73.083,155.49 21.833,-9.3943 q 0.95683,-0.43492 0.82635,-1.6962 l -2.5225,-22.181 q -0.26095,-1.7397 -1.5657,-1.3483 l -24.399,4.3057 q -2.1311,0.43493 -1.5222,2.3051 0.39143,1.0873 5.9584,27.661 0.39143,0.69588 1.3918,0.34794"
       fill="url(#gradient9-5)"
       id="path67"
       style="fill:url(#gradient9-5-2);stroke-width:0.871042;stroke-dasharray:none" /><path
       d="m -72.561,153.1 20.746,-8.307 -2.6095,-20.006 -22.138,4.6102 4.0013,23.703"
       fill="url(#gradient10-2)"
       id="path69"
       style="fill:url(#gradient10-2-8);stroke-width:0.871042;stroke-dasharray:none" /><path
       d="m -73.431,154.41 -4.9146,-26.661 q 0.26095,-0.86984 0.60889,-1.0003 l 23.094,-4.2622 q 0.69588,-1.0438 -0.47841,-0.78286 l -23.486,4.3492 q -0.78286,0.26095 -0.86984,1.4352 l 5.4365,27.357 q 0.04349,0.34793 0.43492,0.21746 0.34794,-0.087 0.17397,-0.65239"
       fill="url(#gradient11-3)"
       id="path71"
       style="fill:url(#gradient11-3-7);stroke-width:0.871042;stroke-dasharray:none" /><path
       d="m -72.561,153.1 q 0,0.5654 0.5654,0.34794 l 20.833,-8.5245 -0.65238,-0.17397 -20.746,8.3505"
       fill="url(#gradient12-2)"
       id="path73"
       style="fill:url(#gradient12-2-3);stroke-width:0.871042;stroke-dasharray:none" /></g><path
     id="path1"
     style="stroke-width:0.0459372;filter:url(#filter27);opacity:0.75"
     d="m 12.128786,4.2772193 c -0.243143,0.00667 -0.394702,0.074147 -0.455078,0.2011718 l -0.04102,0.3164063 -0.0098,-0.00586 -0.0059,0.1386719 v 0.1542968 l -0.01172,-0.00391 -0.0059,0.1367188 0.01172,0.00586 -0.0332,0.9199219 c -0.214485,0.06507 -0.355956,0.1897541 -0.423828,0.375 -0.04983,0.1415093 -0.06298,1.6071151 -0.03711,4.3984362 0.02286,2.798581 0.07231,4.221896 0.146484,4.269532 0.43519,0.247721 0.819276,0.364625 1.15039,0.347656 l 1.400391,-0.267578 c 0.754516,-0.174988 1.173862,-0.330028 1.255859,-0.466797 0.09402,-0.16593 0.155214,-1.441117 0.183594,-3.826172 l 0.0039,-0.318359 -0.0078,-0.01563 0.01367,-2.4511713 c -0.0067,-1.0177825 -0.04137,-1.5657712 -0.103516,-1.6425781 l -0.04492,-0.044922 -0.140625,-0.095703 -0.271484,-0.085938 -0.111328,-0.00781 -0.492188,-0.048828 -1.05664,-0.013672 c -0.0051,-0.070344 -0.117021,-0.1177668 -0.337891,-0.140625 L 12.650271,5.2127661 12.599489,4.4373755 12.179568,4.2772193 c -0.01702,-9e-5 -0.03457,-4.449e-4 -0.05078,0 z m 0.507813,0.8144531 v 0.00195 c -0.02767,0.00245 -0.05572,0.00378 -0.08203,0.00586 0.02725,-0.00214 0.05332,-0.00527 0.08203,-0.00781 z m -0.884766,0.00586 c 0.04342,0.00458 0.08458,0.00891 0.125,0.011719 -0.04042,-0.00281 -0.08158,-0.00714 -0.125,-0.011719 z" /><g
     transform="matrix(0.04593715,0,0,0.04593715,6.8042924,3.777357)"
     id="g47"><path
       d="m 96.589,37.789 -9.0743,7.5952 -3.184,8.4355 0.43127,104.15 1.9675,77.441 17.744,7.2894 h 10.451 l 28.204,-4.8999 24.722,-8.7867 2.7536,-42.18 0.29394,-92.167 -2.4076,-45.967 -33.697,-2.1511 -12.568,-2.7522 -6.4778,-4.1336 z"
       id="path32" /><g
       fill-rule="evenodd"
       id="g46"><rect
         x="118.07"
         y="86.347"
         width="42.863998"
         height="58.783001"
         fill="#83e950"
         stop-color="#000000"
         id="rect32" /><path
         d="m 173.12,138.76 -0.13986,-0.33622 0.28245,-53.359 c -0.14614,-22.156 -0.89564,-34.07 -2.2485,-35.742 l -0.99381,-0.96691 -3.0379,-2.0885 -5.909,-1.88 -2.4368,-0.16947 -10.699,-1.0705 -22.996,-0.29316 c -0.11117,-1.5313 -2.5708,-2.5457 -7.3789,-3.0433 l 0.0268,1.9607 c -2.4278,0.48412 -5.7145,0.7997 -9.86,0.94673 l -4.7337,-0.0027 -9.8869,-1.014 -0.08337,-1.1485 c -4.6691,1.4165 -7.7424,4.1411 -9.2199,8.1737 -1.0848,3.0805 -1.3457,35.002 -0.78271,95.766 0.49756,60.922 1.5537,91.902 3.1683,92.939 9.4736,5.3926 17.815,7.9043 25.023,7.5349 l 30.52,-5.7947 c 16.425,-3.8093 25.531,-7.2027 27.316,-10.18 2.0468,-3.6121 3.379,-31.379 3.9968,-83.299 l 0.0739,-6.9324"
         fill="#333333"
         id="path33" /><path
         d="m 151.17,49.492 -12.577,0.1049 c -16.106,0.78446 -24.902,2.0773 -26.388,3.8784 -1.4856,1.8011 -2.1055,33.018 -1.8599,93.65 0.18017,60.791 0.93279,91.831 2.2579,93.12 1.2596,1.4479 9.9762,0.12238 26.15,-3.9766 16.267,-3.8748 25.175,-6.7921 26.726,-8.7519 1.9338,-1.9876 3.0845,-30.664 3.4521,-86.031 l 0.0713,-2.1987 0.0592,-5.5459 -0.0619,-39.018 c -0.24563,-27.767 -1.143,-42.249 -2.6923,-43.445 l -1.1902,-0.4908 -0.95211,-0.39271 -0.47603,-0.1963 -7.3103,-0.50831 -5.2097,-0.19903 m 4.2025,22.901 5.0699,-0.13718 c 2.547,3.2786 2.4381,6.0189 -0.32679,8.2207 l -16.358,0.49487 c -2.0154,-2.3166 -2.5511,-4.3943 -1.607,-6.2331 l 1.6958,-2.0858 11.526,-0.25954 m -26.933,1.1471 6.6527,-0.59845 c 2.7712,3.1854 2.7416,5.9583 -0.0888,8.3189 l -16.078,1.1673 c -2.1741,-2.3821 -2.7891,-4.4925 -1.845,-6.3313 l 1.9338,-1.9876 9.4257,-0.56887 m 11.412,77.678 c 3.483,-0.79163 5.4437,-0.81853 5.8821,-0.0807 0.82122,0.71005 1.2448,2.8344 1.2708,6.373 0.0915,3.3799 -0.18513,5.4011 -0.82974,6.0637 l -5.6172,2.1396 c -3.1934,0.53971 -5.3456,0.58047 -6.4564,0.1223 l -0.75308,-5.6024 0.88622,-6.876 5.6172,-2.1396 m -22.523,4.6368 5.7154,-2.3776 c 3.483,-0.79163 5.6818,-0.72036 6.5962,0.21381 0.82122,0.71005 1.1328,2.881 0.93463,6.5128 0.25013,3.4454 -0.0264,5.4666 -0.82974,6.0637 l -5.9534,2.2794 -6.5545,0.36042 -0.79478,-6.1766 0.88622,-6.8759 m 11.923,16.337 c 0.82122,0.71005 1.3242,2.8671 1.5089,6.4712 0.0257,3.5386 -0.31629,5.7185 -1.0261,6.5398 l -5.8552,2.0414 c -3.3243,0.85708 -5.5885,0.94448 -6.7926,0.26221 l -0.55656,-6.0785 0.74637,-7.2121 c 0.55137,-0.88667 2.5031,-1.5671 5.8552,-2.0414 3.483,-0.79163 5.5231,-0.7858 6.1202,0.0175 m -11.832,19.908 c 0.39269,-0.95211 2.2651,-1.6653 5.6172,-2.1396 3.6417,-0.72619 5.8732,-0.73426 6.6944,-0.0242 0.82122,0.71005 1.1328,2.881 0.93463,6.5128 0.18466,3.6041 -0.15737,5.784 -1.0261,6.5398 l -5.8552,2.0414 c -3.1002,0.76384 -5.285,0.88398 -6.5545,0.36041 l -0.55674,-6.0785 0.74636,-7.2121 m 45.201,-37.34 c 0.15689,3.2212 -0.15242,5.3218 -0.92791,6.3017 l -5.281,1.9997 c -3.1934,0.53971 -5.3456,0.58047 -6.4564,0.1223 l -0.51504,-5.5042 0.88623,-6.8759 c 0.48592,-0.72798 2.2463,-1.3946 5.281,-1.9997 3.2589,-0.69839 5.299,-0.69256 6.1202,0.0175 l 0.89294,5.9386 m -16.94,14.738 c 0.59709,0.80329 0.94135,2.8949 1.0328,6.2748 -0.0672,3.3145 -0.42314,5.303 -1.0678,5.9655 l -5.4774,2.4758 c -2.9693,0.44648 -5.1214,0.48725 -6.4564,0.12231 l 0.13317,-12.478 5.7154,-2.3776 c 3.3243,-0.85708 5.3644,-0.85125 6.1202,0.0175 m 4.692,-0.57155 5.1412,-2.3359 c 3.3521,-0.47426 5.3595,-0.38909 6.022,0.25552 l 1.131,6.0368 c 0.0915,3.3799 -0.26446,5.3684 -1.0678,5.9655 l -5.3792,2.2377 -6.1202,-0.0175 -0.51504,-5.5043 0.78805,-6.6379 m -0.27571,16.876 5.3792,-2.2377 c 3.2589,-0.69839 5.2196,-0.72529 5.8821,-0.0807 0.75577,0.86874 1.1794,2.9931 1.2708,6.373 -0.002,3.1558 -0.3252,5.065 -0.96961,5.7275 l -5.6172,2.1396 c -2.8761,0.67061 -4.8695,0.77684 -5.9803,0.31871 l -0.65492,-5.8405 0.68988,-6.3999 m -3.5193,7.1826 c -0.0672,3.3145 -0.42314,5.303 -1.0678,5.9655 l -5.6172,2.1396 c -3.0348,0.60516 -5.2196,0.7253 -6.5545,0.36042 -0.46261,-7.4322 -0.3855,-11.671 0.23131,-12.716 l 5.8552,-2.0414 c 3.3243,-0.85708 5.285,-0.88398 5.8821,-0.0807 0.75578,0.86874 1.1794,2.9931 1.2708,6.373 m 14.925,8.3835 c 0.82122,0.71005 1.2448,2.8344 1.2708,6.373 -0.002,3.1558 -0.3252,5.065 -0.96961,5.7275 l -5.6172,2.1396 -6.2183,0.22056 0.035,-12.24 5.6172,-2.1396 c 3.4176,-0.63295 5.3783,-0.65985 5.8821,-0.0807 m -16.045,15.943 -5.519,1.9015 -6.2183,0.22055 -0.6549,-5.8404 0.78805,-6.6379 c 0.55137,-0.88667 2.4238,-1.5998 5.6172,-2.1396 3.2589,-0.6984 5.2662,-0.61323 6.022,0.25552 0.72799,0.48592 1.0256,2.4655 0.89294,5.9386 0.25013,3.4454 -0.0592,5.5459 -0.92791,6.3017 m -16.01,3.7022 -5.7154,2.3776 c -3.2589,0.6984 -5.4904,0.70647 -6.6944,0.0242 l -0.5568,-6.0785 0.74637,-7.2121 5.6172,-2.1396 c 3.6417,-0.72619 5.8732,-0.73426 6.6944,-0.0242 0.75577,0.86873 1.1139,3.1518 1.0745,6.849 0.0915,3.3799 -0.2972,5.4478 -1.166,6.2035"
         fill="url(#gradient32-3)"
         id="path34"
         style="fill:url(#gradient32-3)" /><path
         d="M 116.38,20.384 115.2692,3.493 106.1259,6e-4 q -8.8931,-0.047067 -10.996,4.3773 l -0.88622,6.8759 8.4588,0.42496 12.913,-0.24474 0.0688,2.5349 -12.437,0.44109 -9.3692,-0.24341 0.01236,3.3472 q 6.0632,0.82974 10.559,0.73426 4.3975,0.14255 11.624,-0.49757 l 0.3066,2.6331 -11.624,0.49757 q -5.168,0.3752 -10.994,-0.35638 l -0.73964,20.027 0.08337,1.1485 9.8869,1.014 1.3865,0.01493 3.3472,-0.01236 q 6.2183,-0.22056 9.86,-0.94673 l -0.0268,-1.9607 -1.1794,-19.426"
         fill="url(#gradient29)"
         id="path35"
         style="fill:url(#gradient29)" /><path
         d="m 116.38,20.384 -0.3066,-2.6331 q -7.2269,0.64012 -11.624,0.49757 -4.4957,0.09548 -10.559,-0.73426 l -0.23801,-0.09817 -0.12776,3.011 0.23801,0.09817 q 5.8257,0.73157 10.994,0.35638 l 11.624,-0.49757 m -22.502,-6.217 9.3692,0.24341 12.437,-0.44109 -0.0687,-2.5349 -12.913,0.24474 -8.4588,-0.42496 -0.23801,-0.09817 -0.12776,3.011"
         fill="#999999"
         id="path36" /><path
         d="m 107.73,42.717 -3.3472,0.01236 -1.3865,-0.01493 q -14.537,0.13178 -16.515,6.2788 -0.11298,1.6245 14.088,1.6326 13.627,0.04995 22.059,-1.486 l 1.3031,-1.1337 q 0.0149,-1.3865 -1.7913,-2.4099 l -14.409,-2.8792"
         fill="url(#gradient33)"
         id="path37"
         style="fill:url(#gradient33)" /><path
         d="m 138.7,156.03 q 0.21113,-1.8625 -1.7496,-1.8356 -1.8625,-0.21108 -2.0737,1.6514 0.0268,1.9607 1.9876,1.9338 1.9607,-0.0268 1.8356,-1.7496 m -18.334,1.9083 q -1.8625,-0.21108 -1.8356,1.7496 -0.21113,1.8625 1.7496,1.8356 2.1988,0.0713 2.0737,-1.6514 -0.0268,-1.9607 -1.9876,-1.9338 m -1.9446,20.922 q 0.12503,1.7227 2.0858,1.6958 1.9607,-0.0268 1.7375,-1.5115 0.21108,-1.8626 -1.7496,-1.8356 -1.8625,-0.21113 -2.0737,1.6514 m 1.3636,15.602 q -1.6245,-0.11298 -1.8356,1.7496 0.0268,1.9607 1.9876,1.9338 1.9607,-0.0268 1.8356,-1.7496 0.21118,-1.8625 -1.9876,-1.9338 m 30.946,-41.269 q 0.12503,1.7227 1.9876,1.9338 2.2969,-0.16675 2.1718,-1.8894 -0.0268,-1.9607 -1.9876,-1.9338 -2.1987,-0.0713 -2.1718,1.8894 m 1.9647,17.521 q -2.1987,-0.0713 -2.1718,1.8894 0.0268,1.9607 1.9876,1.9338 2.1987,0.0713 2.1718,-1.8894 -0.0268,-1.9607 -1.9876,-1.9338 m -17.971,3.7291 q 0.0268,1.9607 1.9876,1.9338 1.9607,-0.0268 1.8356,-1.7496 0.21114,-1.8626 -1.7496,-1.8357 -2.1006,-0.30928 -2.0737,1.6514 m 17.415,12.474 -2.1718,1.8894 q 0.12503,1.7227 1.9876,1.9338 1.9607,-0.0268 1.9338,-1.9876 0.21113,-1.8626 -1.7496,-1.8356 m -0.36176,20.461 q 1.9607,-0.0268 2.0737,-1.6514 -0.0268,-1.9607 -1.9876,-1.9338 -1.9607,0.0268 -1.9338,1.9876 l 1.8477,1.5976 m -17.246,-14.911 q 0.0268,1.9607 1.9876,1.9338 1.9607,-0.0268 1.8356,-1.7496 0.21108,-1.8625 -1.7496,-1.8356 -2.1006,-0.30929 -2.0737,1.6514 m -14.268,19.739 q -1.7227,0.12503 -1.9338,1.9876 0.12503,1.7227 1.9876,1.9338 2.2969,-0.16674 2.1718,-1.8894 -0.0268,-1.9607 -2.2256,-2.032 m 15.98,-0.92925 q 1.9607,-0.0268 1.8356,-1.7496 0.21118,-1.8625 -1.7496,-1.8356 -1.8625,-0.21113 -2.0737,1.6514 0.0268,1.9607 1.9876,1.9338"
         fill="url(#gradient35)"
         id="path38"
         style="fill:url(#gradient35)" /><path
         d="m 143.83,78.772 14.061,-0.32813 c 2.3444,-1.6326 2.3503,-3.6726 0.0175,-6.1202 l -2.5349,0.0688 -11.526,0.25954 -1.6958,2.0858 0.26495,2.0589"
         fill="url(#gradient36)"
         id="path39"
         style="fill:url(#gradient36)" /><path
         d="m 142.42,76.796 1.0355,1.5411 1.2883,0.25279 q 2.3386,0.40749 2.4099,-1.7913 0.16947,-2.4368 -2.3655,-2.3682 -2.2404,-0.6455 -2.4099,1.7913 l 0.0417,0.57422"
         fill="url(#gradient37)"
         id="path40"
         style="fill:url(#gradient37)" /><path
         d="m 117.08,76.096 0.26494,2.0589 1.4134,1.9756 14.02,-0.90235 c 2.3444,-1.6326 2.3175,-3.5933 -0.0807,-5.8821 l -4.2576,0.19368 -9.4257,0.56888 -1.9338,1.9876"
         fill="url(#gradient38)"
         id="path41"
         style="fill:url(#gradient38)" /><path
         d="m 117.35,78.155 1.0355,1.5411 1.2883,0.25279 q 2.5349,-0.06875 2.508,-2.0293 0.16948,-2.4368 -2.3655,-2.3682 -2.4368,-0.16947 -2.508,2.0293 l 0.0417,0.57423"
         fill="url(#gradient39)"
         id="path42"
         style="fill:url(#gradient39)" /><path
         d="m 108.59,56.162 q 0.40749,-2.3386 -3.8918,-2.7192 l -8.8931,-0.04686 q -7.9827,-0.22859 -9.4405,1.9553 l -0.84053,74.296 q 0.29311,75.599 3.4278,104.47 l 18.959,6.705 -1.065,-97.363 1.7442,-87.292 m -15.635,8.8703 q 0.18425,-3.8233 2.621,-3.6538 3.1092,-0.11025 2.9249,3.713 0.15196,3.6834 -2.859,3.5556 -2.773,-0.02935 -2.6869,-3.6148"
         fill="url(#gradient34)"
         id="path43"
         style="fill:url(#gradient34)" /><path
         d="m 142.37,85.69 -25.938,2.114 0.14656,62.448 49.232,-7.2686 -0.0386,-5.3079 0.32679,-8.2207 -0.19228,-31.273 -0.81898,-12.871 -22.716,0.37922"
         fill="url(#gradient30)"
         id="path44"
         style="fill:url(#gradient30)" /><path
         d="m 140.88,85.913 -23.978,2.0871 0.38725,57.813 45.45,-6.8786 -0.0386,-5.3079 0.14527,-9.1312 -0.0433,-22.856 -0.69122,-15.882 -12.002,0.06319 -4.3975,-0.14254 -4.8318,0.23534"
         fill="url(#gradient31)"
         id="path45"
         style="fill:url(#gradient31)" /><path
         d="m 131.69,140.61 q -4.2348,-15.394 3.6431,-27.742 8.214,-12.488 12.786,-24.249 l -29.146,2.4623 -0.0299,52.071 12.746,-2.5417"
         fill="url(#gradient40)"
         id="path46"
         style="fill:url(#gradient40)" /></g></g></svg>
