<?xml version="1.0" encoding="UTF-8" standalone="no"?>
<svg
   version="1.1"
   viewBox="0 0 16 16"
   id="svg27"
   sodipodi:docname="newFolder.svg"
   inkscape:version="1.3.2 (1:1.3.2+202311252150+091e20ef0f)"
   xmlns:inkscape="http://www.inkscape.org/namespaces/inkscape"
   xmlns:sodipodi="http://sodipodi.sourceforge.net/DTD/sodipodi-0.dtd"
   xmlns="http://www.w3.org/2000/svg"
   xmlns:svg="http://www.w3.org/2000/svg">
  <sodipodi:namedview
     id="namedview27"
     pagecolor="#ffffff"
     bordercolor="#000000"
     borderopacity="0.25"
     inkscape:showpageshadow="2"
     inkscape:pageopacity="0.0"
     inkscape:pagecheckerboard="0"
     inkscape:deskcolor="#d1d1d1"
     inkscape:zoom="56.21875"
     inkscape:cx="3.8332407"
     inkscape:cy="10.45025"
     inkscape:window-width="3840"
     inkscape:window-height="2058"
     inkscape:window-x="3840"
     inkscape:window-y="0"
     inkscape:window-maximized="1"
     inkscape:current-layer="svg27" />
  <defs
     id="defs12">
    <filter
       id="filter963"
       x="-0.14699963"
       y="-0.14700123"
       width="1.2939993"
       height="1.2940025"
       color-interpolation-filters="sRGB">
      <feGaussianBlur
         stdDeviation="0.56261475"
         id="feGaussianBlur1" />
    </filter>
    <filter
       id="filter126551"
       x="-0.11059199"
       y="-0.13823989"
       width="1.221184"
       height="1.2764798"
       color-interpolation-filters="sRGB">
      <feGaussianBlur
         stdDeviation="0.69120004"
         id="feGaussianBlur2" />
    </filter>
    <linearGradient
       id="linearGradient17865"
       x1="-3.9323"
       x2="-3.9323"
       y1="12.5"
       y2="4.5"
       gradientUnits="userSpaceOnUse">
      <stop
         stop-color="#fc6"
         offset="0"
         id="stop2" />
      <stop
         stop-color="#ffd46e"
         offset=".5"
         id="stop3" />
      <stop
         stop-color="#ff9"
         offset="1"
         id="stop4" />
    </linearGradient>
    <linearGradient
       id="linearGradient38453"
       x1="-2.4018"
       x2="-4.4418"
       y1="7.0518"
       y2="4.0087"
       gradientUnits="userSpaceOnUse">
      <stop
         stop-color="#b07d17"
         offset="0"
         id="stop5" />
      <stop
         stop-color="#c93"
         offset="1"
         id="stop6" />
    </linearGradient>
    <linearGradient
       id="linearGradient70029"
       x1="-1.4323"
       x2="-1.4323"
       y1="15.5"
       y2="11.5"
       gradientTransform="translate(4,-3)"
       gradientUnits="userSpaceOnUse">
      <stop
         stop-color="#ffd46e"
         offset="0"
         id="stop7" />
      <stop
         stop-color="#ff9"
         offset="1"
         id="stop8" />
    </linearGradient>
    <linearGradient
       id="linearGradient99494"
       x1="7.0677"
       x2="7.0677"
       y1="12.5"
       y2="8.5"
       gradientUnits="userSpaceOnUse">
      <stop
         stop-color="#d3a03a"
         offset="0"
         id="stop9" />
      <stop
         stop-color="#f8c55f"
         offset="1"
         id="stop10" />
    </linearGradient>
    <linearGradient
       id="linearGradient52101"
       x1=".067709"
       x2="-3.9678"
       y1="15"
       y2="11.01"
       gradientTransform="translate(4,-3)"
       gradientUnits="userSpaceOnUse">
      <stop
         stop-color="#9a6701"
         offset="0"
         id="stop11" />
      <stop
         stop-color="#c5922c"
         offset="1"
         id="stop12" />
    </linearGradient>
    <filter
       inkscape:collect="always"
       style="color-interpolation-filters:sRGB"
       id="filter39"
       x="-0.13229999"
       y="-0.16537501"
       width="1.2646"
       height="1.33075">
      <feGaussianBlur
         inkscape:collect="always"
         stdDeviation="0.82687506"
         id="feGaussianBlur39" />
    </filter>
    <filter
       inkscape:collect="always"
       style="color-interpolation-filters:sRGB"
       id="filter44"
       x="-0.14698438"
       y="-0.14701563"
       width="1.2939688"
       height="1.2940313">
      <feGaussianBlur
         inkscape:collect="always"
         stdDeviation="0.56267456"
         id="feGaussianBlur44" />
    </filter>
  </defs>
  <path
     id="path27"
     style="fill:#000000;fill-opacity:1;filter:url(#filter39);opacity:0.75"
     d="M 3.0000016,2.5 C 2.7708354,2.5 2.6356697,2.5814758 2.5078141,2.6601562 2.3799585,2.7388366 2.2637468,2.8334851 2.1445328,2.9394531 1.906105,3.1513891 1.662068,3.4110424 1.4355485,3.6699219 0.9825095,4.1876808 0.59961103,4.6992187 0.59961102,4.6992188 A 0.50005,0.50005 0 0 0 0.50000165,5 v 8 c 0,0.82235 0.67765025,1.5 1.49999995,1.5 h 11.0000004 1 c 0.82235,0 1.5,-0.67765 1.5,-1.5 V 7 a 0.50005,0.50005 0 0 0 -0.5,-0.5 h -1.5 V 5 a 0.50005,0.50005 0 0 0 -0.5,-0.5 H 8.1816422 C 8.0727452,4.3512958 7.888217,4.0914716 7.5390641,3.6777344 7.320242,3.4184358 7.0846704,3.1564559 6.8515641,2.9433594 6.735011,2.8368111 6.6192311,2.7418145 6.4921891,2.6621094 6.3651471,2.5824043 6.2291678,2.5 6.0000016,2.5 Z" />
  <g
     transform="translate(5.432)"
     id="g21">
    <path
       d="m -2.9323,2.5 h 3 c 0.5,0 1.9378,2 1.9378,2 h 5.0622 v 9 h -11 c -0.554,0 -1,-0.446 -1,-1 v -8 c 0,0 1.5,-2 2,-2 z"
       fill="url(#linearGradient17865)"
       fill-rule="evenodd"
       stop-color="#000000"
       id="path13"
       style="fill:url(#linearGradient17865)" />
    <path
       d="m -4.8514,5.8971 2.0474,-2.3804 2.6693,-0.04805 1.7025,2.0314 h 5.5"
       fill="none"
       stroke="#ffffff"
       stroke-width="1px"
       id="path14" />
    <path
       d="m -2.9323,2.5 h 3 c 0.5,0 1.9378,2 1.9378,2 h 5.0622 v 9 h -11 c -0.554,0 -1,-0.446 -1,-1 v -8 c 0,0 1.5,-2 2,-2 z"
       fill="none"
       stop-color="#000000"
       stroke="url(#linearGradient38453)"
       stroke-linecap="round"
       stroke-linejoin="round"
       id="path15"
       style="stroke:url(#linearGradient38453)" />
    <rect
       x="-2.9323001"
       y="6.5"
       width="12"
       height="7"
       rx="1"
       ry="1"
       fill="url(#linearGradient70029)"
       fill-rule="evenodd"
       stop-color="#000000"
       id="rect15"
       style="fill:url(#linearGradient70029)" />
    <g
       fill="none"
       id="g20">
      <g
         stroke-width="1px"
         id="g19">
        <path
           d="m -1.9323,7.5 v 6"
           stroke="#ffff99"
           id="path16" />
        <path
           d="m 8.0677,7.5 v 6"
           stroke="#ffff99"
           id="path17" />
        <path
           d="m -2.9323,7.5 h 12"
           stroke="#ffffff"
           id="path18" />
        <path
           d="m 7.0677,6.5 v 7"
           stroke="url(#linearGradient99494)"
           id="path19"
           style="stroke:url(#linearGradient99494)" />
      </g>
      <path
         d="m -1.9323,6.5 h 11 v 6 c 0,0.554 -0.446,1 -1,1 h -10 c -0.554,0 -1,-0.446 -1,-1 v -5 c 0,-0.554 0.446,-1 1,-1 z"
         stop-color="#000000"
         stroke="url(#linearGradient52101)"
         stroke-linecap="round"
         stroke-linejoin="round"
         id="path20"
         style="stroke:url(#linearGradient52101)" />
    </g>
    <rect
       x="6.5676999"
       y="7"
       width="1"
       height="1"
       fill="#ffe680"
       fill-rule="evenodd"
       stop-color="#000000"
       id="rect20" />
  </g>
  <path
     id="rect39"
     style="fill:#000000;stroke-width:1.6533;fill-opacity:1;filter:url(#filter44);opacity:0.75"
     d="m 11.63475,0.5 c -0.363504,0 -0.65625,0.29274595 -0.65625,0.65625 v 2.0859375 a 1.9684191,1.9684191 0 0 0 -0.189454,0.076172 L 9.4687344,2 C 9.2116982,1.7429638 8.7980362,1.7429638 8.541,2 8.2839638,2.2570362 8.2839638,2.6706982 8.541,2.9277344 L 9.8593594,4.2460938 A 1.9684191,1.9684191 0 0 0 9.7831875,4.4375 H 7.69725 C 7.333746,4.4375 7.041,4.7302459 7.041,5.09375 7.041,5.4572541 7.333746,5.75 7.69725,5.75 h 2.0859375 a 1.9684191,1.9684191 0 0 0 0.076172,0.1894531 L 8.541,7.2578125 c -0.2570373,0.2570373 -0.2570373,0.670697 0,0.9277344 0.2570374,0.2570373 0.6706971,0.2570373 0.9277344,0 L 10.78514,6.8671875 a 1.9684191,1.9684191 0 0 0 0.19336,0.076172 V 9.029297 c 0,0.363504 0.292746,0.65625 0.65625,0.65625 0.363504,0 0.65625,-0.292746 0.65625,-0.65625 V 6.9433594 a 1.9684191,1.9684191 0 0 0 0.189453,-0.076172 l 1.318359,1.3183594 c 0.257036,0.2570362 0.670698,0.2570362 0.927734,0 h 0.002 c 0.257036,-0.2570362 0.257036,-0.6706982 0,-0.9277344 L 13.41014,5.9394531 A 1.9684191,1.9684191 0 0 0 13.486312,5.75 h 2.085938 c 0.363504,0 0.65625,-0.2927459 0.65625,-0.65625 0,-0.3635041 -0.292746,-0.65625 -0.65625,-0.65625 h -2.082032 a 1.9684191,1.9684191 0 0 0 -0.08008,-0.1914062 l 1.31836,-1.3183594 C 14.985537,2.670697 14.985537,2.2570373 14.7285,2 h -0.002 C 14.469509,1.7429627 14.055849,1.7429627 13.798812,2 L 12.482406,3.3164062 A 1.9684191,1.9684191 0 0 0 12.291,3.2382812 V 1.15625 C 12.291,0.79274595 11.998254,0.5 11.63475,0.5 Z" />
  <g
     transform="matrix(1.6533,0,0,1.6533,12.228,-4.3743)"
     id="g26">
    <g
       fill="#ff3300"
       id="g24">
      <rect
         transform="rotate(90)"
         x="2.6458001"
         y="0.26458001"
         width="5.5563002"
         height="0.79374999"
         rx="0.39686999"
         ry="0.39686999"
         id="rect21" />
      <rect
         transform="rotate(45)"
         x="0.72175997"
         y="3.9061999"
         width="5.2916999"
         height="0.79374999"
         rx="0.39686999"
         ry="0.39686999"
         id="rect22" />
      <rect
         x="-3.4396"
         y="5.0271001"
         width="5.5563002"
         height="0.79374999"
         rx="0.39686999"
         ry="0.39686999"
         id="rect23" />
      <rect
         transform="matrix(-0.70711,0.70711,0.70711,0.70711,0,0)"
         x="1.6572"
         y="2.9707"
         width="5.2916999"
         height="0.79374999"
         rx="0.39686999"
         ry="0.39686999"
         id="rect24" />
    </g>
    <g
       transform="translate(-1.1906)"
       id="g25">
      <circle
         cx="0.52916998"
         cy="5.4239998"
         r="1.1906"
         fill="#ffcc00"
         id="circle24" />
      <circle
         cx="0.52916998"
         cy="5.4239998"
         r="0.39686999"
         fill="#ffff99"
         id="circle25" />
    </g>
  </g>
</svg>
