<?xml version="1.0" encoding="UTF-8" standalone="no"?>
<svg
   width="16"
   height="16"
   viewBox="0 0 16 16"
   version="1.1"
   id="svg8"
   inkscape:version="1.3.2 (1:1.3.2+202311252150+091e20ef0f)"
   sodipodi:docname="not-covered.svg"
   inkscape:export-filename="/media/klapeto/Αρχεία/WindowsXP Theme/Vectors/RASTER/security.png"
   inkscape:export-xdpi="96"
   inkscape:export-ydpi="96"
   xmlns:inkscape="http://www.inkscape.org/namespaces/inkscape"
   xmlns:sodipodi="http://sodipodi.sourceforge.net/DTD/sodipodi-0.dtd"
   xmlns:xlink="http://www.w3.org/1999/xlink"
   xmlns="http://www.w3.org/2000/svg"
   xmlns:svg="http://www.w3.org/2000/svg"
   xmlns:rdf="http://www.w3.org/1999/02/22-rdf-syntax-ns#"
   xmlns:cc="http://creativecommons.org/ns#"
   xmlns:dc="http://purl.org/dc/elements/1.1/">
  <defs
     id="defs2">
    <linearGradient
       inkscape:collect="always"
       id="linearGradient3">
      <stop
         style="stop-color:#848ace;stop-opacity:1"
         offset="0"
         id="stop2" />
      <stop
         style="stop-color:#6666cc;stop-opacity:1"
         offset="1"
         id="stop3" />
    </linearGradient>
    <linearGradient
       inkscape:collect="always"
       id="linearGradient43875">
      <stop
         style="stop-color:#ffffff;stop-opacity:0.99792176"
         offset="0"
         id="stop43871" />
      <stop
         style="stop-color:#ffffff;stop-opacity:0"
         offset="0.41335297"
         id="stop46208" />
      <stop
         style="stop-color:#ffffff;stop-opacity:0"
         offset="0.69808322"
         id="stop44412" />
      <stop
         style="stop-color:#ffffff;stop-opacity:0.40000001"
         offset="0.89826292"
         id="stop45374" />
      <stop
         style="stop-color:#ffffff;stop-opacity:0.40000001"
         offset="1"
         id="stop43873" />
    </linearGradient>
    <linearGradient
       inkscape:collect="always"
       id="linearGradient2056">
      <stop
         style="stop-color:#ffffff;stop-opacity:1"
         offset="0"
         id="stop2052" />
      <stop
         style="stop-color:#9999ff;stop-opacity:1"
         offset="0.2"
         id="stop2109" />
      <stop
         style="stop-color:#ccccff;stop-opacity:1"
         offset="1"
         id="stop2054" />
    </linearGradient>
    <linearGradient
       inkscape:collect="always"
       xlink:href="#linearGradient2056"
       id="linearGradient2058"
       x1="-62.210537"
       y1="41.485077"
       x2="-62.210537"
       y2="80.711922"
       gradientUnits="userSpaceOnUse"
       gradientTransform="matrix(1.0182075,0,0,1.0182075,99.667191,-39.313791)" />
    <radialGradient
       inkscape:collect="always"
       xlink:href="#linearGradient43875"
       id="radialGradient43879"
       cx="-27.432291"
       cy="47.161766"
       fx="-27.432291"
       fy="47.161766"
       r="15"
       gradientTransform="matrix(0.58155276,2.0240512,-1.6752601,0.48133772,123.21943,43.494249)"
       gradientUnits="userSpaceOnUse" />
    <linearGradient
       inkscape:collect="always"
       xlink:href="#linearGradient3"
       id="linearGradient15454"
       x1="-65.111061"
       y1="46.475666"
       x2="-65.111061"
       y2="38.752747"
       gradientUnits="userSpaceOnUse"
       gradientTransform="matrix(1.0182075,0,0,1.0182075,99.118528,-35.474191)" />
    <linearGradient
       inkscape:collect="always"
       xlink:href="#linearGradient3"
       id="linearGradient48845"
       gradientUnits="userSpaceOnUse"
       x1="-65.111061"
       y1="46.475666"
       x2="-65.111061"
       y2="38.752747"
       gradientTransform="matrix(-1.0182075,0,0,1.0182075,-25.991092,-35.446217)" />
    <filter
       inkscape:collect="always"
       style="color-interpolation-filters:sRGB"
       id="filter2"
       x="-0.14803521"
       y="-0.14597917"
       width="1.2960704"
       height="1.2919583">
      <feGaussianBlur
         inkscape:collect="always"
         stdDeviation="0.54742187"
         id="feGaussianBlur2" />
    </filter>
    <filter
       inkscape:collect="always"
       style="color-interpolation-filters:sRGB"
       id="filter11"
       x="-0.16219894"
       y="-0.13440547"
       width="1.3243979"
       height="1.2688109">
      <feGaussianBlur
         inkscape:collect="always"
         stdDeviation="0.84003423"
         id="feGaussianBlur11" />
    </filter>
  </defs>
  <sodipodi:namedview
     inkscape:snap-object-midpoints="false"
     inkscape:snap-bbox-midpoints="false"
     showguides="false"
     id="base"
     pagecolor="#ffffff"
     bordercolor="#666666"
     borderopacity="1.0"
     inkscape:pageopacity="0.0"
     inkscape:pageshadow="2"
     inkscape:zoom="64"
     inkscape:cx="2.0390625"
     inkscape:cy="6.3515625"
     inkscape:document-units="px"
     inkscape:current-layer="layer1"
     inkscape:document-rotation="0"
     showgrid="false"
     units="px"
     inkscape:window-width="3840"
     inkscape:window-height="2058"
     inkscape:window-x="3840"
     inkscape:window-y="0"
     inkscape:window-maximized="1"
     inkscape:snap-bbox="true"
     inkscape:bbox-nodes="true"
     fit-margin-top="0"
     fit-margin-left="0"
     fit-margin-right="0"
     fit-margin-bottom="0"
     inkscape:bbox-paths="false"
     inkscape:snap-global="true"
     inkscape:pagecheckerboard="0"
     inkscape:showpageshadow="2"
     inkscape:deskcolor="#d1d1d1">
    <inkscape:grid
       type="xygrid"
       id="grid1504"
       originx="0"
       originy="0"
       spacingy="1"
       spacingx="1"
       units="px"
       visible="false" />
    <inkscape:grid
       type="xygrid"
       id="grid1507"
       spacingx="0.5"
       spacingy="0.5"
       originx="0"
       originy="0"
       units="px"
       visible="false" />
  </sodipodi:namedview>
  <metadata
     id="metadata5">
    <rdf:RDF>
      <cc:Work
         rdf:about="">
        <dc:format>image/svg+xml</dc:format>
        <dc:type
           rdf:resource="http://purl.org/dc/dcmitype/StillImage" />
      </cc:Work>
    </rdf:RDF>
  </metadata>
  <g
     inkscape:label="Layer 1"
     inkscape:groupmode="layer"
     id="layer1"
     transform="translate(-12.567709)">
    <path
       id="path1"
       style="color:#000000;opacity:0.75;fill:#000000;fill-opacity:1;fill-rule:evenodd;stroke-linecap:round;stroke-linejoin:round;-inkscape-stroke:none;filter:url(#filter11)"
       d="m 18.788857,0.50000053 a 0.36889588,0.36889588 0 0 0 -0.203125,0.0605469 C 18.063251,0.90291195 17.203766,1.6516338 16.22831,2.3281255 15.252855,3.0046172 14.168534,3.5693292 13.441201,3.5722661 a 0.36889588,0.36889588 0 0 0 -0.367188,0.3691406 c 0,4.7469203 1.364989,7.6429933 2.824219,9.3417973 0.729614,0.849402 1.478949,1.398189 2.085937,1.736328 0.303494,0.16907 0.571646,0.285282 0.78711,0.361328 0.215463,0.07605 0.342237,0.119141 0.517578,0.119141 0.165095,0 0.296269,-0.03804 0.511719,-0.109375 0.215449,-0.07133 0.482998,-0.18128 0.787109,-0.34375 0.608221,-0.32494 1.359056,-0.859359 2.089844,-1.699219 1.461574,-1.679719 2.826172,-4.5770508 2.826172,-9.4062503 A 0.36889588,0.36889588 0 0 0 25.13456,3.5722661 c -0.753877,0 -1.837353,-0.574789 -2.808594,-1.2578125 C 21.354726,1.6314302 20.515623,0.88281477 19.984169,0.55468803 A 0.36889588,0.36889588 0 0 0 19.79081,0.50000053 Z" />
    <g
       id="g3"
       transform="matrix(0.32807451,0,0,0.32807451,6.7926692,0.11832333)">
      <path
         id="path50814"
         style="fill:none;fill-opacity:1;fill-rule:evenodd;stroke:#484848;stroke-width:2.24863;stroke-linecap:round;stroke-linejoin:round;stroke-miterlimit:4;stroke-dasharray:none;stroke-opacity:1;stop-color:#000000"
         d="M 35.040394,0.76365508 C 32.201544,2.6238632 24.206057,10.104356 18.749074,10.126391 c 0,28.50981 16.29132,34.109951 17.818631,34.109951 1.527311,0 17.818631,-5.091038 17.818631,-34.109951 -5.616303,0 -13.51199,-7.6467386 -16.29132,-9.36273592 z" />
      <path
         id="rect20883"
         style="fill:#ff3300;fill-opacity:1;fill-rule:evenodd;stroke:none;stroke-width:15.2731;stroke-linecap:round;stroke-linejoin:round;stop-color:#000000"
         d="m 35.255174,3.5080418 c -1.748921,1.3116905 -6.162308,5.0850473 -14.469683,8.1456602 0,4.924113 0.612497,9.78319 1.527311,13.236697 H 37.076811 V 3.5080418 Z"
         sodipodi:nodetypes="cccccc" />
      <path
         id="rect20883-5"
         style="fill:#ffff00;fill-opacity:1;fill-rule:evenodd;stroke:none;stroke-width:15.2731;stroke-linecap:round;stroke-linejoin:round;stop-color:#000000"
         d="m 36.56373,23.872192 -0.01638,18.364222 c 1.052132,0 11.685662,-4.389094 15.289497,-18.364222 z"
         sodipodi:nodetypes="cccc" />
      <path
         id="rect20883-3"
         style="fill:#66cc33;fill-opacity:1;fill-rule:evenodd;stroke:none;stroke-width:15.2731;stroke-linecap:round;stroke-linejoin:round;stop-color:#000000"
         d="M 36.567707,3.5080418 36.567139,24.381295 H 50.818635 C 51.707692,20.933667 52.345946,16.076207 52.345946,11.144598 47.536412,10.270137 39.62916,4.8197323 37.880239,3.5080418 Z"
         sodipodi:nodetypes="cccccc" />
      <path
         id="rect20883-5-2"
         style="fill:#0099ff;fill-opacity:1;fill-rule:evenodd;stroke:none;stroke-width:15.2731;stroke-linecap:round;stroke-linejoin:round;stop-color:#000000"
         d="M 22.312802,24.381295 C 25.94685,38.100169 35.519808,41.690823 36.567707,41.690823 L 36.567139,24.381295 Z"
         sodipodi:nodetypes="cccc" />
      <path
         style="mix-blend-mode:normal;fill:url(#radialGradient43879);fill-opacity:1;stroke:none;stroke-width:0.872749px;stroke-linecap:butt;stroke-linejoin:miter;stroke-opacity:1"
         d="M 19.603115,12.234297 C 27.894233,9.1796745 32.713065,4.8171665 34.458564,3.5080418 h 2.618247 c 1.745499,1.3091247 10.244859,7.5315992 15.04498,8.4043482 0,24.873355 -14.886414,30.525796 -16.195537,30.525796 -1.309124,0 -16.323139,-5.766909 -16.323139,-30.203889 z"
         id="path1054-7"
         sodipodi:nodetypes="cccczc" />
      <path
         id="path1054"
         style="fill:url(#linearGradient2058);fill-opacity:1;stroke:none;stroke-width:1.01821px;stroke-linecap:butt;stroke-linejoin:miter;stroke-opacity:1"
         d="M 35.040396,0.76455597 C 32.201545,2.6247641 24.206059,10.104355 18.749076,10.12639 c 0,28.50981 16.29132,34.109952 17.818631,34.109952 1.527311,0 17.818631,-5.091038 17.818631,-34.109952 -5.616303,0 -13.51199,-7.6458367 -16.29132,-9.36183403 z M 34.527315,4.2359013 c 0,0 0.736131,8.8368327 2.019457,8.8368327 1.283327,0 2.053373,-8.8368327 2.053373,-8.8368327 1.745499,1.3091246 9.22678,7.4926157 13.236697,7.6365567 0,24.873354 -13.963989,29.235679 -15.273112,29.235679 -1.309124,0 -15.273113,-4.798699 -15.273113,-29.235679 3.711333,0.09308 11.491199,-6.3274321 13.236698,-7.6365567 z"
         sodipodi:nodetypes="ccscccczccscc" />
      <path
         style="fill:url(#linearGradient15454);stroke:none;stroke-width:1.01821px;stroke-linecap:butt;stroke-linejoin:miter;stroke-opacity:1"
         d="m 21.286139,12.815652 c 4.044341,0 11.455648,-6.6336251 12.935678,-7.4147755 0.304697,2.0144909 0.58941,5.3850765 1.920105,7.2449315 C 35.123714,11.118496 35.052429,3.5815372 35.052429,3.5815372 30.470496,6.127056 24.870197,11.844484 21.290592,11.844484 Z"
         id="path878"
         sodipodi:nodetypes="cccccc" />
      <path
         style="fill:url(#linearGradient48845);fill-opacity:1;stroke:none;stroke-width:1.01821px;stroke-linecap:butt;stroke-linejoin:miter;stroke-opacity:1"
         d="m 51.841298,12.737294 c -4.195214,0 -11.455648,-6.5272928 -12.935678,-7.3084433 -0.304698,2.014491 -0.589411,5.3850763 -1.920105,7.2449313 1.018207,-1.527311 1.089492,-9.0642706 1.089492,-9.0642706 4.581934,2.5455188 9.574874,7.8877106 13.761837,8.2629466 z"
         id="path878-2"
         sodipodi:nodetypes="cccccc" />
    </g>
    <path
       id="circle1"
       style="opacity:0.75;fill:#000000;fill-opacity:1;fill-rule:evenodd;stroke:none;stroke-width:2.34957;stroke-linecap:round;stroke-linejoin:round;stroke-miterlimit:4;stroke-dasharray:none;filter:url(#filter2)"
       d="m 23.775183,6.7900912 a 4.3231258,4.3231258 0 0 0 -4.322266,4.3222658 4.3231258,4.3231258 0 0 0 0.81836,2.515625 4.3231258,4.3231258 0 0 0 3.734374,2.162109 4.3231258,4.3231258 0 0 0 4.322266,-4.322266 4.3231258,4.3231258 0 0 0 -0.78125,-2.4648432 4.3231258,4.3231258 0 0 0 -3.771484,-2.2128906 z" />
    <g
       transform="matrix(0.20107562,0,0,0.20107562,36.91488,6.0890154)"
       id="g940">
      <circle
         style="opacity:1;fill:#ffffff;fill-opacity:1;fill-rule:evenodd;stroke:none;stroke-width:11.685;stroke-linecap:round;stroke-linejoin:round;stroke-miterlimit:4;stroke-dasharray:none"
         id="path919"
         cx="-67.310364"
         cy="22.756973"
         r="18.249216" />
      <path
         d="m -66.691769,2.7592809 a 21.5,21.5 0 0 0 -21.5,21.5000001 21.5,21.5 0 0 0 21.5,21.5 21.5,21.5 0 0 0 21.5,-21.5 21.5,21.5 0 0 0 -21.5,-21.5000001 z m 0,5.5 a 16,16 0 0 1 16,16.0000001 16,16 0 0 1 -2.099609,7.921875 L -74.8988,10.524906 a 16,16 0 0 1 8.207031,-2.2656251 z M -79.40466,14.54639 -56.978878,36.972172 a 16,16 0 0 1 -9.712891,3.287109 16,16 0 0 1 -16,-16 16,16 0 0 1 3.287109,-9.712891 z"
         style="opacity:1;fill:#990000;fill-opacity:1;fill-rule:evenodd;stroke:none;stroke-width:11.685;stroke-linecap:round;stroke-linejoin:round;stroke-miterlimit:4;stroke-dasharray:none"
         id="path917" />
      <path
         id="path889"
         style="opacity:1;fill:#ff3300;fill-opacity:1;fill-rule:evenodd;stroke:none;stroke-width:11.685;stroke-linecap:round;stroke-linejoin:round;stroke-miterlimit:4;stroke-dasharray:none"
         d="m -67.832682,1 a 21.5,21.5 0 0 0 -21.5,21.5 21.5,21.5 0 0 0 21.5,21.5 21.5,21.5 0 0 0 21.5,-21.5 21.5,21.5 0 0 0 -21.5,-21.5 z m 0,5.5 a 16,16 0 0 1 16,16 16,16 0 0 1 -2.099609,7.921875 L -76.039713,8.765625 A 16,16 0 0 1 -67.832682,6.5 Z m -12.712891,6.287109 22.425782,22.425782 A 16,16 0 0 1 -67.832682,38.5 a 16,16 0 0 1 -16,-16 16,16 0 0 1 3.287109,-9.712891 z" />
    </g>
  </g>
</svg>
