<?xml version="1.0" encoding="UTF-8" standalone="no"?>
<svg
   version="1.1"
   viewBox="0 0 16 16"
   id="svg2"
   sodipodi:docname="number.svg"
   width="16"
   height="16"
   inkscape:version="1.2.2 (b0a8486541, 2022-12-01)"
   xmlns:inkscape="http://www.inkscape.org/namespaces/inkscape"
   xmlns:sodipodi="http://sodipodi.sourceforge.net/DTD/sodipodi-0.dtd"
   xmlns="http://www.w3.org/2000/svg"
   xmlns:svg="http://www.w3.org/2000/svg">
  <path
     id="path321"
     style="color:#000000;-inkscape-font-specification:'Times New Roman,  Bold';opacity:0.75;fill:#000000;fill-opacity:1;stroke-width:0.5;stroke-linejoin:round;-inkscape-stroke:none;filter:url(#filter901)"
     d="M 5.6683555,3.2873545 A 0.250025,0.250025 0 0 0 5.5648398,3.3088389 L 2.0980429,4.8947763 A 0.250025,0.250025 0 0 0 1.9769492,5.232667 l 0.125,0.25 a 0.250025,0.250025 0 0 0 0.3242187,0.1171875 c 0.318561,-0.1396432 0.5777525,-0.2011719 0.7617188,-0.2011719 0.1039669,0 0.1757289,0.023807 0.2441406,0.072266 a 0.250025,0.250025 0 0 0 0.00977,0.00586 c 0.079481,0.050868 0.1153353,0.099228 0.1367188,0.15625 a 0.250025,0.250025 0 0 0 0.00195,0.00391 c -2.115e-4,-5.406e-4 0.021612,0.085648 0.03125,0.2109374 0.00964,0.1252795 0.013671,0.2960263 0.013671,0.509761 v 4.884766 c 0,0.584486 -0.048632,0.977988 -0.074219,1.046874 -0.038679,0.104133 -0.1039131,0.178583 -0.2324218,0.248047 -0.07447,0.04025 -0.2390665,0.08143 -0.4785156,0.09961 -0.079816,0.0061 -0.167706,0.0098 -0.2636719,0.0098 h -0.25 a 0.250025,0.250025 0 0 0 -0.25,0.25 v 0.257813 a 0.250025,0.250025 0 0 0 0.25,0.25 h 4.9609375 a 0.250025,0.250025 0 0 0 0.25,-0.25 v -0.257813 a 0.250025,0.250025 0 0 0 -0.25,-0.25 H 7.0726523 c -0.332887,0 -0.55233,-0.05728 -0.6445312,-0.115234 C 6.3056739,12.45456 6.2452985,12.377597 6.2132773,12.279577 v -0.002 c -0.025437,-0.0819 -0.064453,-0.464497 -0.064453,-1.035144 V 3.5373545 a 0.250025,0.250025 0 0 0 -0.25,-0.25 z m 6.1289065,0 c -0.72031,0 -1.375034,0.2366399 -1.9257815,0.6972656 -0.5597753,0.4681754 -0.9594381,1.1756583 -1.21875,2.0976562 a 0.250025,0.250025 0 0 0 0.1582031,0.3027344 l 0.2558593,0.091797 A 0.250025,0.250025 0 0 0 9.3695273,6.3615732 C 9.7324179,5.7041011 10.180873,5.420167 10.810934,5.420167 c 0.373392,0 0.661656,0.1260148 0.921875,0.40625 a 0.250025,0.250025 0 0 0 0,0.00195 c 0.257709,0.2735672 0.384765,0.6022919 0.384766,1.0371094 0,0.6213517 -0.170655,1.2630205 -0.521485,1.9335937 a 0.250025,0.250025 0 0 0 0,0.00195 C 11.263004,9.4458529 10.232133,10.819898 8.5355429,12.840089 a 0.250025,0.250025 0 0 0 -0.058594,0.160156 v 0.154297 a 0.250025,0.250025 0 0 0 0.25,0.25 H 14.27187 a 0.250025,0.250025 0 0 0 0.244141,-0.203125 l 0.529297,-2.724609 a 0.250025,0.250025 0 0 0 -0.246094,-0.296875 h -0.25 a 0.250025,0.250025 0 0 0 -0.224609,0.138671 c -0.152522,0.309528 -0.281851,0.511174 -0.335938,0.56836 -0.04753,0.04708 -0.104453,0.08535 -0.179687,0.115234 -0.02508,0.01 -0.05273,0.01935 -0.08203,0.02734 a 0.250025,0.250025 0 0 0 -0.002,0 c -0.07767,0.02185 -0.412892,0.05469 -0.90625,0.05469 h -1.496093 c 1.283043,-1.2896369 2.307818,-2.4175922 2.74414,-3.2167964 0.358877,-0.6644061 0.544922,-1.3336152 0.544922,-1.9960937 0,-0.3923802 -0.129606,-0.795676 -0.367187,-1.2070313 C 14.000855,4.2377983 13.657531,3.8957409 13.226949,3.6525889 12.795544,3.4089723 12.313236,3.2873545 11.797262,3.2873545 Z" />
  <g
     aria-label="12"
     id="text347"
     style="font-weight:bold;font-size:11.3679px;line-height:1.25;font-family:'Times New Roman';-inkscape-font-specification:'Times New Roman,  Bold';stroke-width:0.399411;stroke-dasharray:none"
     transform="matrix(1.2518443,0,0,1.2518443,-1.787375,-2.1695603)">
    <path
       d="M 5.7396131,4.1589081 V 10.31467 q 0,0.693842 0.061058,0.888117 0.061058,0.188725 0.2553337,0.310841 0.1942757,0.122117 0.6216821,0.122117 h 0.1720727 v 0.205377 H 2.8865367 V 11.635745 H 3.086363 q 0.4829137,0 0.6882908,-0.111015 0.2053771,-0.111015 0.2775366,-0.30529 0.07216,-0.194276 0.07216,-0.90477 V 6.4125054 q 0,-0.5217688 -0.049957,-0.6494357 Q 4.0244368,5.6298522 3.8856685,5.5410404 3.7524509,5.446678 3.5748275,5.446678 q -0.2830874,0 -0.6882908,0.1776234 L 2.7866235,5.4244751 5.5564389,4.1589081 Z"
       id="path399"
       style="fill:#0099ff;stroke:#0062ff;stroke-width:0.399411;stroke-linejoin:round;stroke-dasharray:none;stroke-opacity:1" />
    <path
       d="M 12.428246,11.841122 H 7.9987612 V 11.719006 Q 10.03588,9.2933355 10.468837,8.4551749 q 0.438508,-0.8381606 0.438508,-1.637466 0,-0.5828269 -0.360798,-0.9658275 -0.360797,-0.3885512 -0.8825661,-0.3885512 -0.8548128,0 -1.3266251,0.8548128 L 8.1319787,6.2459834 Q 8.4317183,5.1802428 9.0422989,4.6695755 9.6528794,4.1589081 10.452185,4.1589081 q 0.571725,0 1.043538,0.2664351 0.471812,0.2664352 0.738247,0.7326967 0.266435,0.4607108 0.266435,0.8659142 0,0.7382475 -0.410754,1.4986978 -0.560624,1.0268855 -2.4478731,2.8641781 h 1.6263651 q 0.599479,0 0.777102,-0.04996 0.183174,-0.04996 0.29974,-0.166522 0.116565,-0.122116 0.30529,-0.5051164 h 0.199826 z"
       id="path401"
       style="fill:#0099ff;stroke:#0062ff;stroke-width:0.399411;stroke-linejoin:round;stroke-dasharray:none;stroke-opacity:1" />
  </g>
  <sodipodi:namedview
     id="namedview2"
     pagecolor="#ffffff"
     bordercolor="#000000"
     borderopacity="0.25"
     inkscape:showpageshadow="2"
     inkscape:pageopacity="0.0"
     inkscape:pagecheckerboard="0"
     inkscape:deskcolor="#d1d1d1"
     inkscape:zoom="28.109375"
     inkscape:cx="-1.9210673"
     inkscape:cy="12.291273"
     inkscape:window-width="3840"
     inkscape:window-height="2061"
     inkscape:window-x="1280"
     inkscape:window-y="0"
     inkscape:window-maximized="1"
     inkscape:current-layer="svg2"
     showgrid="true">
    <inkscape:grid
       type="xygrid"
       id="grid1270" />
    <inkscape:grid
       type="xygrid"
       id="grid1635"
       spacingx="0.5"
       spacingy="0.5" />
  </sodipodi:namedview>
  <defs
     id="defs1">
    <style
       id="current-color-scheme"
       type="text/css">.ColorScheme-Text {
        color:#232629;
      }</style>
    <filter
       id="filter26366"
       x="-0.044560997"
       y="-0.086088058"
       width="1.089122"
       height="1.1721761"
       color-interpolation-filters="sRGB">
      <feGaussianBlur
         stdDeviation="4.4932227"
         id="feGaussianBlur1" />
    </filter>
    <filter
       inkscape:collect="always"
       style="color-interpolation-filters:sRGB"
       id="filter901"
       x="-0.1302714"
       y="-0.16865738"
       width="1.2605428"
       height="1.3373148">
      <feGaussianBlur
         inkscape:collect="always"
         stdDeviation="0.71097739"
         id="feGaussianBlur903" />
    </filter>
  </defs>
  <g
     aria-label="12"
     id="g2015"
     style="font-weight:bold;font-size:11.3679px;line-height:1.25;font-family:'Times New Roman';-inkscape-font-specification:'Times New Roman,  Bold';stroke-width:0.399411;stroke-dasharray:none"
     transform="matrix(1.2518443,0,0,1.2518443,-1.787375,-2.1695603)">
    <path
       d="M 5.7396131,4.1589081 V 10.31467 q 0,0.693842 0.061058,0.888117 0.061058,0.188725 0.2553337,0.310841 0.1942757,0.122117 0.6216821,0.122117 h 0.1720727 v 0.205377 H 2.8865367 V 11.635745 H 3.086363 q 0.4829137,0 0.6882908,-0.111015 0.2053771,-0.111015 0.2775366,-0.30529 0.07216,-0.194276 0.07216,-0.90477 V 6.4125054 q 0,-0.5217688 -0.049957,-0.6494357 Q 4.0244368,5.6298522 3.8856685,5.5410404 3.7524509,5.446678 3.5748275,5.446678 q -0.2830874,0 -0.6882908,0.1776234 L 2.7866235,5.4244751 5.5564389,4.1589081 Z"
       id="path2011"
       style="fill:#0099ff;stroke:#0062ff;stroke-width:0.399411;stroke-linejoin:round;stroke-dasharray:none;stroke-opacity:1" />
    <path
       d="M 12.428246,11.841122 H 7.9987612 V 11.719006 Q 10.03588,9.2933355 10.468837,8.4551749 q 0.438508,-0.8381606 0.438508,-1.637466 0,-0.5828269 -0.360798,-0.9658275 -0.360797,-0.3885512 -0.8825661,-0.3885512 -0.8548128,0 -1.3266251,0.8548128 L 8.1319787,6.2459834 Q 8.4317183,5.1802428 9.0422989,4.6695755 9.6528794,4.1589081 10.452185,4.1589081 q 0.571725,0 1.043538,0.2664351 0.471812,0.2664352 0.738247,0.7326967 0.266435,0.4607108 0.266435,0.8659142 0,0.7382475 -0.410754,1.4986978 -0.560624,1.0268855 -2.4478731,2.8641781 h 1.6263651 q 0.599479,0 0.777102,-0.04996 0.183174,-0.04996 0.29974,-0.166522 0.116565,-0.122116 0.30529,-0.5051164 h 0.199826 z"
       id="path2013"
       style="fill:#0099ff;stroke:#0062ff;stroke-width:0.399411;stroke-linejoin:round;stroke-dasharray:none;stroke-opacity:1" />
  </g>
</svg>
