<?xml version="1.0" encoding="UTF-8" standalone="no"?>
<svg
   inkscape:export-ydpi="96"
   inkscape:export-xdpi="96"
   inkscape:export-filename="/media/klapeto/Αρχεία/WindowsXP Theme/Vectors/RASTER/method.png"
   width="16"
   height="16"
   viewBox="0 0 16 16"
   version="1.1"
   id="svg8"
   inkscape:version="1.3.2 (1:1.3.2+202311252150+091e20ef0f)"
   sodipodi:docname="override.svg"
   xml:space="preserve"
   xmlns:inkscape="http://www.inkscape.org/namespaces/inkscape"
   xmlns:sodipodi="http://sodipodi.sourceforge.net/DTD/sodipodi-0.dtd"
   xmlns:xlink="http://www.w3.org/1999/xlink"
   xmlns="http://www.w3.org/2000/svg"
   xmlns:svg="http://www.w3.org/2000/svg"
   xmlns:rdf="http://www.w3.org/1999/02/22-rdf-syntax-ns#"
   xmlns:cc="http://creativecommons.org/ns#"
   xmlns:dc="http://purl.org/dc/elements/1.1/"><defs
     id="defs2"><linearGradient
       inkscape:collect="always"
       id="linearGradient893"><stop
         style="stop-color:#0066cc;stop-opacity:1"
         offset="0"
         id="stop889" /><stop
         id="stop899"
         offset="0.5"
         style="stop-color:#0066cc;stop-opacity:1" /><stop
         style="stop-color:#57b6ff;stop-opacity:1"
         offset="1"
         id="stop891" /></linearGradient><linearGradient
       inkscape:collect="always"
       xlink:href="#linearGradient893"
       id="linearGradient2524"
       x1="179.43341"
       y1="219.34944"
       x2="73.063965"
       y2="72.675407"
       gradientUnits="userSpaceOnUse"
       gradientTransform="matrix(0.03367852,0,0,-0.03367852,11.886214,15.000819)" /><linearGradient
       id="linearGradient2"
       inkscape:collect="always"><stop
         id="stop1"
         offset="0"
         style="stop-color:#ffff99;stop-opacity:1" /><stop
         id="stop2"
         offset="1"
         style="stop-color:#8a99ae;stop-opacity:1" /></linearGradient><linearGradient
       gradientUnits="userSpaceOnUse"
       y2="104"
       x2="117.11422"
       y1="104"
       x1="67.719681"
       id="linearGradient1830"
       xlink:href="#linearGradient2"
       inkscape:collect="always"
       gradientTransform="matrix(0.19232894,0,0,0.19232894,7.0432548,-3.0022101)" /><linearGradient
       gradientUnits="userSpaceOnUse"
       y2="136"
       x2="117.28139"
       y1="136"
       x1="36.690292"
       id="linearGradient1838"
       xlink:href="#linearGradient2"
       inkscape:collect="always"
       gradientTransform="matrix(0.19232894,0,0,0.19232894,7.0111038,-3.1567361)" /><linearGradient
       gradientUnits="userSpaceOnUse"
       y2="168"
       x2="117.16476"
       y1="168"
       x1="52.17194"
       id="linearGradient1846"
       xlink:href="#linearGradient2"
       inkscape:collect="always"
       gradientTransform="matrix(0.19232894,0,0,0.19232894,7.0335348,-3.3112621)" /><filter
       inkscape:collect="always"
       style="color-interpolation-filters:sRGB"
       id="filter17"
       x="-0.1545077"
       y="-0.14018811"
       width="1.3090154"
       height="1.2803762"><feGaussianBlur
         inkscape:collect="always"
         stdDeviation="0.4672937"
         id="feGaussianBlur17" /></filter></defs><sodipodi:namedview
     inkscape:snap-bbox-edge-midpoints="true"
     inkscape:snap-smooth-nodes="false"
     inkscape:snap-midpoints="false"
     inkscape:object-paths="false"
     inkscape:guide-bbox="true"
     showguides="true"
     id="base"
     pagecolor="#ffffff"
     bordercolor="#666666"
     borderopacity="1.0"
     inkscape:pageopacity="0.0"
     inkscape:pageshadow="2"
     inkscape:zoom="61.763507"
     inkscape:cx="3.5214969"
     inkscape:cy="5.9339247"
     inkscape:document-units="px"
     inkscape:current-layer="layer1"
     inkscape:document-rotation="0"
     showgrid="true"
     units="px"
     inkscape:window-width="3840"
     inkscape:window-height="2058"
     inkscape:window-x="3840"
     inkscape:window-y="0"
     inkscape:window-maximized="1"
     inkscape:snap-bbox="true"
     inkscape:bbox-nodes="true"
     fit-margin-top="0"
     fit-margin-left="0"
     fit-margin-right="0"
     fit-margin-bottom="0"
     inkscape:bbox-paths="true"
     inkscape:snap-global="true"
     inkscape:pagecheckerboard="0"
     inkscape:showpageshadow="2"
     inkscape:deskcolor="#d1d1d1"><inkscape:grid
       type="xygrid"
       id="grid1504"
       originx="0"
       originy="0"
       spacingy="1"
       spacingx="1"
       units="px"
       visible="true" /><inkscape:grid
       type="xygrid"
       id="grid1765"
       spacingx="0.5"
       spacingy="0.5"
       originx="0"
       originy="0"
       units="px"
       visible="true" /></sodipodi:namedview><metadata
     id="metadata5"><rdf:RDF><cc:Work
         rdf:about=""><dc:format>image/svg+xml</dc:format><dc:type
           rdf:resource="http://purl.org/dc/dcmitype/StillImage" /></cc:Work></rdf:RDF></metadata><g
     inkscape:label="Layer 1"
     inkscape:groupmode="layer"
     id="layer1"
     transform="translate(-12.567709)"><path
       id="path12"
       style="color:#000000;fill:#000000;fill-opacity:1;stroke-linecap:round;stroke-linejoin:round;-inkscape-stroke:none;opacity:0.75"
       d="m 23.429037,0.50000073 a 0.16386839,0.16386839 0 0 0 -0.115234,0.0488281 L 19.915365,3.9472663 a 0.16386839,0.16386839 0 0 0 -0.0078,0.013672 0.16386839,0.16386839 0 0 0 -0.02344,0.041016 0.16386839,0.16386839 0 0 0 -0.0098,0.035156 0.16386839,0.16386839 0 0 0 -0.0078,0.025391 v 4.4394531 a 0.16386839,0.16386839 0 0 0 0.05078,0.1191407 l 4.509766,4.2988279 a 0.16386839,0.16386839 0 0 0 0.02734,0.01367 0.16386839,0.16386839 0 0 0 0.04102,0.01953 0.16386839,0.16386839 0 0 0 0.04492,0.0039 0.16386839,0.16386839 0 0 0 0.04297,-0.0039 0.16386839,0.16386839 0 0 0 0.03906,-0.01758 0.16386839,0.16386839 0 0 0 0.02734,-0.01367 l 3.365235,-3.1210935 a 0.16386839,0.16386839 0 0 0 0.05273,-0.1191406 V 5.1718757 a 0.16386839,0.16386839 0 0 0 -0.04883,-0.1152344 l -0.0078,-0.00977 a 0.16386839,0.16386839 0 0 0 -0.0059,-0.00391 L 23.546225,0.54882885 A 0.16386839,0.16386839 0 0 0 23.429037,0.50000073 Z M 15.442709,3.9804695 a 0.40950051,0.40950051 0 0 0 -0.410156,0.4101562 0.40950051,0.40950051 0 0 0 0.410156,0.4082031 H 18.55599 A 0.40950051,0.40950051 0 0 0 18.966147,4.3906257 0.40950051,0.40950051 0 0 0 18.55599,3.9804695 Z m -1.966797,1.9667968 a 0.40963,0.40963 0 0 0 -0.408203,0.4101563 0.40963,0.40963 0 0 0 0.408203,0.4082031 H 18.55599 A 0.40963,0.40963 0 0 0 18.966147,6.3574226 0.40963,0.40963 0 0 0 18.55599,5.9472663 Z m 0.984375,1.9648438 a 0.40963,0.40963 0 0 0 -0.410156,0.4101562 0.40963,0.40963 0 0 0 0.410156,0.4101563 H 18.55599 A 0.40963,0.40963 0 0 0 18.966147,8.3222663 0.40963,0.40963 0 0 0 18.55599,7.9121101 Z" /><g
       inkscape:label="Layer 1"
       id="layer1-6"
       transform="matrix(0.32770416,0,0,0.32770416,8.3672925,-1.6807489)"><g
         id="g1867"
         transform="matrix(0.19232894,0,0,0.19232894,6.9664996,-1.8658053)"
         style="stroke-width:5.19943;stroke-dasharray:none"><path
           sodipodi:nodetypes="ccccc"
           id="path1781"
           d="m 140.91072,92.891924 53.92407,-53.924073 70.98169,71.531939 -53.37383,48.97186 z"
           style="fill:#ff794b;fill-opacity:1;stroke:#ff3300;stroke-width:5.19943;stroke-linecap:round;stroke-linejoin:round;stroke-miterlimit:4;stroke-dasharray:none;stroke-opacity:1" /><path
           sodipodi:nodetypes="ccccc"
           id="path1779"
           d="M 212.44265,159.47165 140.91072,92.891924 v 70.431446 l 71.53193,68.23046 z"
           style="fill:#ff3300;fill-opacity:1;stroke:#990000;stroke-width:5.19943;stroke-linecap:round;stroke-linejoin:round;stroke-miterlimit:4;stroke-dasharray:none;stroke-opacity:1" /><path
           sodipodi:nodetypes="ccccc"
           id="path1777"
           d="m 212.44265,159.47165 53.37383,-48.97186 v 71.53193 l -53.37383,49.52211 z"
           style="fill:#990000;fill-opacity:1;stroke:#700000;stroke-width:5.19943;stroke-linecap:butt;stroke-linejoin:round;stroke-miterlimit:4;stroke-dasharray:none;stroke-opacity:1" /></g><path
         sodipodi:nodetypes="cc"
         id="path1783"
         d="m 20.067709,17 h 9.5"
         style="fill:none;stroke:url(#linearGradient1830);stroke-width:2.49920538;stroke-linecap:round;stroke-linejoin:miter;stroke-miterlimit:4;stroke-dasharray:none;stroke-opacity:1" /><path
         style="fill:none;stroke:url(#linearGradient1838);stroke-width:2.5;stroke-linecap:round;stroke-linejoin:miter;stroke-miterlimit:4;stroke-dasharray:none;stroke-opacity:1"
         d="m 14.067709,23 h 15.5"
         id="path1783-7"
         sodipodi:nodetypes="cc" /><path
         sodipodi:nodetypes="cc"
         id="path1783-7-9"
         d="m 17.067709,29 h 12.5"
         style="fill:none;stroke:url(#linearGradient1846);stroke-width:2.5;stroke-linecap:round;stroke-linejoin:miter;stroke-miterlimit:4;stroke-dasharray:none;stroke-opacity:1" /></g><path
       id="path14"
       style="color:#000000;fill:#000000;fill-opacity:1;fill-rule:evenodd;stroke-linejoin:round;-inkscape-stroke:none;opacity:0.75;filter:url(#filter17)"
       d="m 16.696994,7.135 c -0.556824,0 -1.009765,0.4529425 -1.009765,1.0097656 v 3.5410154 l -0.896485,-0.896485 c -0.393733,-0.393733 -1.034,-0.393733 -1.427734,0 -0.393734,0.393734 -0.393734,1.035954 0,1.429688 l 2.61914,2.619141 c 0.196862,0.196864 0.456636,0.296875 0.714844,0.296875 0.258208,0 0.517949,-0.09998 0.714843,-0.296875 l 2.619141,-2.619141 c 0.393735,-0.393734 0.393735,-1.035954 0,-1.429688 -0.393735,-0.393733 -1.035953,-0.393733 -1.429688,0 l -0.894531,0.896485 V 8.1447656 C 17.706759,7.587942 17.253816,7.135 16.696994,7.135 Z" /><path
       id="rect1475"
       style="fill:url(#linearGradient2524);fill-opacity:1;fill-rule:evenodd;stroke:#003399;stroke-width:0.336785;stroke-linejoin:round;stroke-opacity:1;stop-color:#000000"
       d="m 16.196999,14.466552 c -0.215222,0 -0.43038,-0.08241 -0.595294,-0.247326 l -2.619624,-2.619623 c -0.329828,-0.329828 -0.329828,-0.860892 0,-1.19072 0.329829,-0.329828 0.860892,-0.329828 1.19072,0 l 1.182302,1.182366 V 7.6452958 c 0,-0.4664478 0.375515,-0.8419631 0.841963,-0.8419631 0.466446,0 0.841963,0.3755153 0.841963,0.8419631 v 3.9458212 l 1.182234,-1.182234 c 0.329828,-0.329828 0.860891,-0.329828 1.19072,0 0.329829,0.329828 0.329829,0.860892 0,1.19072 l -2.619558,2.619623 c -0.164915,0.164914 -0.380203,0.247326 -0.595426,0.247326 z"
       sodipodi:nodetypes="sccsccssscssccs" /></g></svg>
