<?xml version="1.0" encoding="UTF-8" standalone="no"?>
<svg
   version="1.1"
   viewBox="0 0 16 16"
   id="svg77"
   sodipodi:docname="pair-wireless.svg"
   inkscape:export-filename="monitor.png"
   inkscape:export-xdpi="36"
   inkscape:export-ydpi="36"
   inkscape:version="1.3.2 (1:1.3.2+202311252150+091e20ef0f)"
   xml:space="preserve"
   width="16"
   height="16"
   xmlns:inkscape="http://www.inkscape.org/namespaces/inkscape"
   xmlns:sodipodi="http://sodipodi.sourceforge.net/DTD/sodipodi-0.dtd"
   xmlns:xlink="http://www.w3.org/1999/xlink"
   xmlns="http://www.w3.org/2000/svg"
   xmlns:svg="http://www.w3.org/2000/svg"><sodipodi:namedview
     id="namedview79"
     pagecolor="#ffffff"
     bordercolor="#666666"
     borderopacity="1.0"
     inkscape:pageshadow="2"
     inkscape:pageopacity="0.0"
     inkscape:pagecheckerboard="0"
     showgrid="true"
     inkscape:zoom="22.627418"
     inkscape:cx="15.843611"
     inkscape:cy="-0.90598052"
     inkscape:window-width="3840"
     inkscape:window-height="2058"
     inkscape:window-x="0"
     inkscape:window-y="0"
     inkscape:window-maximized="1"
     inkscape:current-layer="svg77"
     inkscape:showpageshadow="2"
     inkscape:deskcolor="#d1d1d1"><inkscape:grid
       id="grid1"
       units="px"
       originx="0"
       originy="0"
       spacingx="1"
       spacingy="1"
       empcolor="#0099e5"
       empopacity="0.30196078"
       color="#0099e5"
       opacity="0.14901961"
       empspacing="5"
       dotted="false"
       gridanglex="30"
       gridanglez="30"
       visible="true" /></sodipodi:namedview><defs
     id="defs55"><linearGradient
       id="linearGradient87"
       x1="-819.20001"
       x2="819.20001"
       gradientTransform="matrix(0,0.0098756,0.01736793,0,14.647362,37.918451)"
       gradientUnits="userSpaceOnUse"><stop
         stop-color="#99c"
         offset="0"
         id="stop86"
         style="stop-color:#000000;stop-opacity:1;" /><stop
         stop-color="#669"
         offset="1"
         id="stop87" /></linearGradient><linearGradient
       id="gradient5-6"
       x1="-819.20001"
       x2="819.20001"
       gradientTransform="matrix(0,0.0098756,0.01736793,0,14.647362,37.918451)"
       gradientUnits="userSpaceOnUse"><stop
         stop-color="#99c"
         offset="0"
         id="stop2" /><stop
         stop-color="#669"
         offset="1"
         id="stop4" /></linearGradient><radialGradient
       id="gradient6-2"
       cx="0"
       cy="0"
       r="819.20001"
       gradientTransform="matrix(0.02647717,0,0,0.02647717,6.9005494,35.784774)"
       gradientUnits="userSpaceOnUse"><stop
         stop-color="#fff"
         offset="0"
         id="stop7" /><stop
         stop-color="#ddd"
         offset=".28235"
         id="stop9" /><stop
         stop-color="#99c"
         offset="1"
         id="stop11" /></radialGradient><linearGradient
       id="gradient7-7"
       x1="-819.20001"
       x2="819.20001"
       gradientTransform="matrix(-0.00502305,-0.00485274,-0.00595952,0.00612982,18.990079,35.784774)"
       gradientUnits="userSpaceOnUse"><stop
         stop-color="#669"
         offset="0"
         id="stop14" /><stop
         stop-color="#99c"
         offset="1"
         id="stop16" /></linearGradient><linearGradient
       id="gradient8-0"
       x1="-819.20001"
       x2="819.20001"
       gradientTransform="matrix(-0.00229869,0.00919468,0.00689598,0.00170273,18.39402,34.169836)"
       gradientUnits="userSpaceOnUse"><stop
         stop-color="#339"
         offset="0"
         id="stop19" /><stop
         stop-color="#66c"
         offset=".27451"
         id="stop21" /><stop
         stop-color="#999"
         offset="1"
         id="stop23" /></linearGradient><linearGradient
       id="gradient13-9"
       x1="-819.20001"
       x2="819.20001"
       gradientTransform="matrix(-0.00178788,0.0051082,0.00434193,0.00144728,16.308302,36.293725)"
       gradientUnits="userSpaceOnUse"><stop
         stop-color="#99c"
         offset="0"
         id="stop26" /><stop
         stop-color="#eee"
         offset="1"
         id="stop28" /></linearGradient><linearGradient
       id="gradient9-5"
       x1="-819.20001"
       x2="819.20001"
       gradientTransform="matrix(-0.01506885,-0.01455794,-0.01626097,0.01677187,16.393453,18.16726)"
       gradientUnits="userSpaceOnUse"><stop
         stop-color="#66c"
         offset="0"
         id="stop31" /><stop
         stop-color="#999"
         offset="1"
         id="stop33" /></linearGradient><radialGradient
       id="gradient10-2"
       cx="0"
       cy="0"
       r="819.20001"
       gradientTransform="matrix(0.03439526,0,0,0.03439526,16.180086,4.7583743)"
       gradientUnits="userSpaceOnUse"><stop
         stop-color="#cff"
         offset="0"
         id="stop36" /><stop
         stop-color="#cff"
         offset=".094118"
         id="stop38" /><stop
         stop-color="#09f"
         offset="1"
         id="stop40" /></radialGradient><linearGradient
       id="gradient11-3"
       x1="-819.20001"
       x2="819.20001"
       gradientTransform="matrix(-0.01030135,-0.00996075,-0.0154946,0.01609066,18.308869,19.057923)"
       gradientUnits="userSpaceOnUse"><stop
         stop-color="#99c"
         offset="0"
         id="stop43" /><stop
         stop-color="#fff"
         offset="1"
         id="stop45" /></linearGradient><linearGradient
       id="gradient12-2"
       x1="-819.20001"
       x2="819.20001"
       gradientTransform="matrix(-0.01200438,0.00638517,7.6622484e-4,0.00153243,18.265804,27.82753)"
       gradientUnits="userSpaceOnUse"><stop
         stop-color="#66c"
         offset="0"
         id="stop48" /><stop
         stop-color="#99c"
         offset=".078431"
         id="stop50" /><stop
         stop-color="#fff"
         offset="1"
         id="stop52" /></linearGradient><linearGradient
       id="gradient29"
       x1="-819.20001"
       x2="819.20001"
       gradientTransform="matrix(-0.015013,-6.4557e-5,-1.829e-4,0.026105,105.71,21.274)"
       gradientUnits="userSpaceOnUse"><stop
         stop-color="#66c"
         offset="0"
         id="stop1" /><stop
         offset=".48235"
         id="stop2-3" /><stop
         stop-color="#666"
         offset="1"
         id="stop3" /></linearGradient><linearGradient
       id="gradient30"
       x1="-819.20001"
       x2="819.20001"
       gradientTransform="matrix(0.031213,0.032369,0.034696,-0.034152,139.63,117.98)"
       gradientUnits="userSpaceOnUse"><stop
         stop-color="#333"
         offset="0"
         id="stop4-6" /><stop
         stop-color="#333"
         offset=".58824"
         id="stop5" /><stop
         stop-color="#333"
         offset="1"
         id="stop6" /></linearGradient><linearGradient
       id="gradient31"
       x1="-819.20001"
       x2="819.20001"
       gradientTransform="matrix(0.029421,0.029959,0.032566,-0.031689,138.32,115.77)"
       gradientUnits="userSpaceOnUse"><stop
         stop-color="#090"
         offset="0"
         id="stop7-7" /><stop
         stop-color="#6c3"
         offset=".58824"
         id="stop8" /><stop
         stop-color="#9f6"
         offset="1"
         id="stop9-5" /></linearGradient><linearGradient
       id="gradient33"
       x1="-819.20001"
       x2="819.20001"
       gradientTransform="matrix(-0.02266,-4.3304e-4,1.3717e-4,0.0050699,105.15,46.945)"
       gradientUnits="userSpaceOnUse"><stop
         stop-color="#333"
         offset="0"
         id="stop10" /><stop
         stop-color="#333"
         offset=".36863"
         id="stop11-3" /><stop
         stop-color="#999"
         offset="1"
         id="stop12" /></linearGradient><linearGradient
       id="gradient34"
       x1="-819.20001"
       x2="819.20001"
       gradientTransform="matrix(-0.063098,-0.064459,-0.060788,0.059599,96.018,150.13)"
       gradientUnits="userSpaceOnUse"><stop
         stop-color="#999"
         offset="0"
         id="stop13" /><stop
         stop-color="#ddd"
         offset="1"
         id="stop14-5" /></linearGradient><linearGradient
       id="gradient35"
       x1="-819.20001"
       x2="819.20001"
       gradientTransform="matrix(0.0022969,-1.6675e-4,-1.6675e-4,-0.0022969,151.89,205.76)"
       gradientUnits="userSpaceOnUse"><stop
         stop-color="#ddd"
         offset="0"
         id="stop15" /><stop
         stop-color="#999"
         offset="1"
         id="stop16-6" /></linearGradient><linearGradient
       id="gradient36"
       x1="-819.20001"
       x2="819.20001"
       gradientTransform="matrix(-5.379e-5,-0.0039214,-0.010336,7.5039e-4,150.99,75.597)"
       gradientUnits="userSpaceOnUse"><stop
         stop-color="#333"
         offset="0"
         id="stop17" /><stop
         stop-color="#999"
         offset=".62353"
         id="stop18" /><stop
         stop-color="#333"
         offset="1"
         id="stop19-2" /></linearGradient><linearGradient
       id="gradient37"
       x1="-819.20001"
       x2="819.20001"
       gradientTransform="matrix(-0.0019876,-0.0019338,-0.0019338,0.0019876,145.05,76.49)"
       gradientUnits="userSpaceOnUse"><stop
         stop-color="#999"
         offset="0"
         id="stop20" /><stop
         stop-color="#ccc"
         offset="1"
         id="stop21-9" /></linearGradient><linearGradient
       id="gradient38"
       x1="-819.20001"
       x2="819.20001"
       gradientTransform="matrix(-5.2985e-4,-0.0041178,-0.010336,7.5039e-4,125.78,76.619)"
       gradientUnits="userSpaceOnUse"><stop
         stop-color="#333"
         offset="0"
         id="stop22" /><stop
         stop-color="#999"
         offset=".62353"
         id="stop23-1" /><stop
         stop-color="#333"
         offset="1"
         id="stop24" /></linearGradient><linearGradient
       id="gradient39"
       x1="-819.20001"
       x2="819.20001"
       gradientTransform="matrix(-0.0019876,-0.0019338,-0.0019338,0.0019876,119.98,77.848)"
       gradientUnits="userSpaceOnUse"><stop
         stop-color="#999"
         offset="0"
         id="stop25" /><stop
         stop-color="#ccc"
         offset="1"
         id="stop26-2" /></linearGradient><linearGradient
       id="gradient40"
       x1="-819.20001"
       x2="819.20001"
       gradientTransform="matrix(0.019204,0.019618,0.025419,-0.025167,127.8,115.61)"
       gradientUnits="userSpaceOnUse"><stop
         stop-color="#cfc"
         offset="0"
         id="stop27" /><stop
         stop-color="#9f6"
         offset=".23529"
         id="stop28-7" /><stop
         stop-color="#6c3"
         offset="1"
         id="stop29" /></linearGradient><linearGradient
       id="gradient32-3"
       x1="-819.20001"
       x2="819.20001"
       gradientTransform="matrix(0.068864,0.070736,0.074604,-0.07284,135.51,145.53)"
       gradientUnits="userSpaceOnUse"><stop
         stop-color="#666"
         offset="0"
         id="stop30" /><stop
         stop-color="#ddd"
         offset=".58824"
         id="stop31-0" /><stop
         stop-color="#ccf"
         offset="1"
         id="stop32" /></linearGradient><linearGradient
       inkscape:collect="always"
       id="linearGradient169255"><stop
         style="stop-color:#5b5b5b;stop-opacity:1"
         offset="0"
         id="stop169251" /><stop
         style="stop-color:#868686;stop-opacity:1"
         offset="1"
         id="stop169253" /></linearGradient><linearGradient
       inkscape:collect="always"
       id="linearGradient157573"><stop
         style="stop-color:#646464;stop-opacity:1"
         offset="0"
         id="stop157569" /><stop
         style="stop-color:#868686;stop-opacity:1"
         offset="1"
         id="stop157571" /></linearGradient><linearGradient
       inkscape:collect="always"
       id="linearGradient138919"><stop
         style="stop-color:#d9d9d9;stop-opacity:1"
         offset="0"
         id="stop138915" /><stop
         style="stop-color:#383838;stop-opacity:1"
         offset="1"
         id="stop138917" /></linearGradient><linearGradient
       inkscape:collect="always"
       xlink:href="#linearGradient138919"
       id="linearGradient138921"
       x1="-114.93316"
       y1="132.96442"
       x2="-79.326157"
       y2="132.96442"
       gradientUnits="userSpaceOnUse" /><linearGradient
       inkscape:collect="always"
       xlink:href="#linearGradient157573"
       id="linearGradient157575"
       x1="-112.93229"
       y1="132.25"
       x2="-102.43229"
       y2="132.25"
       gradientUnits="userSpaceOnUse" /><linearGradient
       inkscape:collect="always"
       xlink:href="#linearGradient169255"
       id="linearGradient165468"
       x1="-82.932289"
       y1="132"
       x2="-113.43229"
       y2="132"
       gradientUnits="userSpaceOnUse" /><linearGradient
       id="linearGradient6"
       inkscape:collect="always"><stop
         style="stop-color:#ccf4cc;stop-opacity:1"
         offset="0"
         id="stop6-6" /><stop
         style="stop-color:#66cc33;stop-opacity:0;"
         offset="1"
         id="stop7-75" /></linearGradient><linearGradient
       id="linearGradient3"
       inkscape:collect="always"><stop
         style="stop-color:#009900;stop-opacity:1"
         offset="0"
         id="stop3-3" /><stop
         style="stop-color:#99ff66;stop-opacity:1"
         offset="1"
         id="stop4-5" /></linearGradient><linearGradient
       id="linearGradient1"
       inkscape:collect="always"><stop
         style="stop-color:#5d5d81;stop-opacity:1"
         offset="0"
         id="stop1-6" /><stop
         style="stop-color:#7373a7;stop-opacity:1"
         offset="1"
         id="stop2-2" /></linearGradient><linearGradient
       inkscape:collect="always"
       xlink:href="#linearGradient1"
       id="linearGradient2"
       x1="6"
       y1="44.5"
       x2="3"
       y2="33.5"
       gradientUnits="userSpaceOnUse"
       gradientTransform="translate(0.25766182,-0.263099)" /><linearGradient
       inkscape:collect="always"
       xlink:href="#linearGradient3"
       id="linearGradient5"
       x1="4.2423382"
       y1="35.5131"
       x2="4.2423382"
       y2="43.2631"
       gradientUnits="userSpaceOnUse"
       gradientTransform="translate(0.25766182,-0.263099)" /><linearGradient
       inkscape:collect="always"
       xlink:href="#linearGradient6"
       id="linearGradient7"
       x1="4"
       y1="34.75"
       x2="4.75"
       y2="34.75"
       gradientUnits="userSpaceOnUse"
       gradientTransform="translate(0.5,0.50000067)" /><linearGradient
       inkscape:collect="always"
       xlink:href="#linearGradient3"
       id="linearGradient8"
       gradientUnits="userSpaceOnUse"
       gradientTransform="translate(9.2576618,-0.263099)"
       x1="4.2423382"
       y1="31.0131"
       x2="4.2423382"
       y2="43.2631" /><linearGradient
       inkscape:collect="always"
       xlink:href="#linearGradient1"
       id="linearGradient9"
       gradientUnits="userSpaceOnUse"
       gradientTransform="translate(9.2576618,-0.263099)"
       x1="6"
       y1="44.5"
       x2="2.7423382"
       y2="29.5131" /><linearGradient
       inkscape:collect="always"
       xlink:href="#linearGradient6"
       id="linearGradient10"
       gradientUnits="userSpaceOnUse"
       gradientTransform="translate(9.5,-3.9999993)"
       x1="4"
       y1="34.75"
       x2="4.75"
       y2="34.75" /><linearGradient
       inkscape:collect="always"
       xlink:href="#linearGradient3"
       id="linearGradient11"
       gradientUnits="userSpaceOnUse"
       gradientTransform="translate(18.257662,-0.263099)"
       x1="4.2423382"
       y1="26.5131"
       x2="4.2423382"
       y2="43.2631" /><linearGradient
       inkscape:collect="always"
       xlink:href="#linearGradient1"
       id="linearGradient12"
       gradientUnits="userSpaceOnUse"
       gradientTransform="translate(18.257662,-0.263099)"
       x1="6"
       y1="44.5"
       x2="2.7423379"
       y2="25.0131" /><linearGradient
       inkscape:collect="always"
       xlink:href="#linearGradient6"
       id="linearGradient13"
       gradientUnits="userSpaceOnUse"
       gradientTransform="translate(18.5,-8.4999993)"
       x1="4"
       y1="34.75"
       x2="4.75"
       y2="34.75" /><linearGradient
       inkscape:collect="always"
       xlink:href="#linearGradient3"
       id="linearGradient14"
       gradientUnits="userSpaceOnUse"
       gradientTransform="translate(27.257662,-0.513099)"
       x1="4.2423382"
       y1="22.2631"
       x2="4.2423382"
       y2="43.5131" /><linearGradient
       inkscape:collect="always"
       xlink:href="#linearGradient1"
       id="linearGradient15"
       gradientUnits="userSpaceOnUse"
       gradientTransform="translate(27.257662,-0.513099)"
       x1="6"
       y1="44.5"
       x2="2.4923379"
       y2="20.7631" /><linearGradient
       inkscape:collect="always"
       xlink:href="#linearGradient6"
       id="linearGradient16"
       gradientUnits="userSpaceOnUse"
       gradientTransform="translate(27.5,-12.999999)"
       x1="4"
       y1="34.75"
       x2="4.75"
       y2="34.75" /><linearGradient
       inkscape:collect="always"
       xlink:href="#linearGradient3"
       id="linearGradient17"
       gradientUnits="userSpaceOnUse"
       gradientTransform="translate(36.257662,-5.013099)"
       x1="4.2423382"
       y1="22.2631"
       x2="4.2423382"
       y2="48.0131" /><linearGradient
       inkscape:collect="always"
       xlink:href="#linearGradient1"
       id="linearGradient18"
       gradientUnits="userSpaceOnUse"
       gradientTransform="translate(36.257662,-5.013099)"
       x1="6.2423382"
       y1="49.0131"
       x2="2.4923379"
       y2="20.7631" /><linearGradient
       inkscape:collect="always"
       xlink:href="#linearGradient6"
       id="linearGradient19"
       gradientUnits="userSpaceOnUse"
       gradientTransform="translate(36.5,-17.499999)"
       x1="4"
       y1="34.75"
       x2="4.75"
       y2="34.75" /><linearGradient
       inkscape:collect="always"
       xlink:href="#linearGradient87"
       id="linearGradient41"
       gradientUnits="userSpaceOnUse"
       gradientTransform="matrix(0,0.0032203,0.00566346,0,5.2764679,12.865094)"
       x1="-819.20001"
       x2="819.20001" /><filter
       inkscape:collect="always"
       style="color-interpolation-filters:sRGB"
       id="filter87"
       x="-0.14720265"
       y="-0.14679789"
       width="1.2944053"
       height="1.2935958"><feGaussianBlur
         inkscape:collect="always"
         stdDeviation="0.91751036"
         id="feGaussianBlur87" /></filter></defs><path
     id="path2"
     style="fill:url(#linearGradient41);fill-rule:evenodd;stroke-width:0.277616;filter:url(#filter87);opacity:0.75"
     d="m 8.9161694,0.50233729 c -0.031232,0.003325 -0.064908,0.0110745 -0.099609,0.0214844 L 1.0294506,1.8968686 C 0.57601287,1.9894093 0.41356582,2.2352774 0.54312251,2.6331967 0.62288837,2.8547674 1.2227802,5.6347225 2.3126538,10.830462 c -0.1016552,0.05 -0.2017221,0.102139 -0.2988281,0.158203 -0.9068756,0.508972 -1.35937506,1.130266 -1.35937506,1.861328 0,0.731062 0.45249946,1.354841 1.35937506,1.873047 0.8976199,0.518226 1.9910749,0.777344 3.2773437,0.777344 1.2770344,0 2.3685363,-0.259118 3.2753906,-0.777344 0.8439559,-0.487244 1.2913411,-1.068767 1.3417969,-1.74414 0.00332,-0.0431 0.00586,-0.08702 0.00586,-0.13086 0,-0.04543 -0.00236,-0.0902 -0.00586,-0.134765 -6.163e-4,-0.0079 -0.00123,-0.01559 -0.00195,-0.02344 -0.00103,-0.01113 -0.00266,-0.02212 -0.00391,-0.0332 0.6727541,-0.248084 1.2607441,-0.442974 1.6835941,-0.488281 0.02234,1.8209 0.05959,2.804108 0.115234,2.839843 0.377387,0.214818 0.710911,0.315497 0.998047,0.300782 l 1.214843,-0.230469 c 0.654302,-0.151746 1.016784,-0.287647 1.087891,-0.40625 0.08153,-0.143891 0.135545,-1.25009 0.160156,-3.318359 l 0.002,-0.275391 -0.0059,-0.01367 0.01172,-2.1249997 c -0.0058,-0.8825998 -0.03595,-1.3572228 -0.08984,-1.4238281 l -0.03906,-0.039063 -0.121094,-0.083984 -0.234375,-0.074219 -0.09766,-0.00781 -0.425782,-0.041016 -0.916015,-0.011719 c -0.0044,-0.06101 -0.103396,-0.1012761 -0.29493,-0.1210982 v -0.00195 l -0.04687,-0.7734375 -0.04492,-0.671875 -0.363281,-0.1386719 c -0.236175,-0.00125 -0.381654,0.056333 -0.4375,0.1738282 l -0.03516,0.2734375 -0.0098,-0.00391 -0.0059,0.1191406 v 0.1347657 l -0.0098,-0.00391 -0.0039,0.1191406 0.0098,0.00391 -0.0293,0.7988281 c -0.185996,0.056427 -0.30833,0.1635773 -0.367187,0.3242188 -0.04222,0.1199078 -0.05365,1.356041 -0.0332,3.6699209 -0.07239,-0.0043 -0.146845,-0.0059 -0.22461,-0.0059 -0.571992,0 -1.208585,0.223642 -1.9023436,0.521484 C 9.2298343,11.428192 8.9371292,11.198787 8.56656,10.988665 8.432885,10.912278 8.2942147,10.842856 8.1524976,10.777728 8.112056,10.287038 8.0587973,9.8198842 7.9923413,9.3773373 L 9.8575757,8.574603 C 10.061162,8.4820641 10.14901,8.3019519 10.121248,8.0335873 L 9.31656,0.95350916 C 9.2679776,0.6296201 9.1347903,0.47906305 8.9161694,0.50233729 Z m 5.9785156,0.25390625 c -0.126993,0 -0.232422,0.10542841 -0.232422,0.23242187 V 4.5062436 c 0,0.1269934 0.105429,0.2324218 0.232422,0.2324218 h 0.332031 c 0.126993,0 0.232422,-0.1054284 0.232422,-0.2324218 V 0.98866541 c 0,-0.12699346 -0.105429,-0.23242187 -0.232422,-0.23242187 z M 13.699373,1.3538998 c -0.126994,0 -0.230469,0.1054284 -0.230469,0.2324219 v 2.9199219 c 0,0.1269934 0.103475,0.2324218 0.230469,0.2324218 h 0.332031 c 0.126994,0 0.232422,-0.1054284 0.232422,-0.2324218 V 1.5863217 c 0,-0.1269935 -0.105428,-0.2324219 -0.232422,-0.2324219 z m -1.19336,0.5976563 c -0.126992,0 -0.232422,0.1054285 -0.232421,0.2324219 v 2.3222656 c 0,0.1269934 0.105429,0.2324218 0.232421,0.2324218 h 0.332032 c 0.126992,0 0.232421,-0.1054284 0.232421,-0.2324218 V 2.183978 c 0,-0.1269934 -0.105429,-0.2324219 -0.232421,-0.2324219 z m -1.195312,0.5976562 c -0.126994,0 -0.232422,0.1054284 -0.232422,0.2324219 v 1.7246094 c 0,0.1269934 0.105428,0.2324218 0.232422,0.2324218 h 0.332031 c 0.126994,0 0.232422,-0.1054284 0.232422,-0.2324218 V 2.7816342 c 0,-0.1269935 -0.105428,-0.2324219 -0.232422,-0.2324219 z m -1.195313,0.5976563 c -0.1269933,0 -0.2324217,0.1054284 -0.2324217,0.2324218 v 1.1269532 c 0,0.1269934 0.1054284,0.2324219 0.2324217,0.2324218 h 0.332031 c 0.126994,0 0.232422,-0.1054284 0.232423,-0.2324218 V 3.3792904 c 0,-0.1269934 -0.105429,-0.2324218 -0.232423,-0.2324218 z" /><g
     id="g1"
     transform="matrix(0.32608696,0,0,0.32608696,3.3285e-7,-2.4845178e-6)"><path
       d="m 0.47309298,37.869513 q 0,3.36289 4.17163162,5.746638 4.129056,2.383845 10.0458984,2.383845 5.874364,0 10.045898,-2.383845 4.129056,-2.383846 4.129056,-5.746638 0,-3.362889 -4.129056,-5.704159 -4.171632,-2.383846 -10.045898,-2.383846 -5.9169403,0 -10.0458984,2.383846 -4.17163162,2.34127 -4.17163162,5.704159"
       fill="url(#gradient5-6)"
       id="path57"
       style="fill:url(#gradient5-6);fill-rule:evenodd;stroke-width:0.851357" /><path
       d="m 1.4087787,37.742276 q 0,3.107436 3.8311243,5.278403 3.8736998,2.213543 9.322405,2.213543 5.448706,0 9.322406,-2.213543 3.8737,-2.170967 3.8737,-5.278403 0,-3.06486 -3.8737,-5.278403 -3.8737,-2.170967 -9.322406,-2.170967 -5.4487052,0 -9.322405,2.170967 -3.8311243,2.213543 -3.8311243,5.278403"
       fill="url(#gradient6-2)"
       id="path59"
       style="fill:url(#gradient6-2);fill-rule:evenodd;stroke-width:0.851357" /><path
       d="m 22.693672,26.721542 -10.088963,3.320314 c 0.936498,1.844652 1.688541,3.675014 2.256118,5.491281 l 1.489855,6.044667 2.085816,1.277075 c 2.695969,-0.822983 4.469661,-1.688541 5.320978,-2.596626 0.01964,-0.373257 0.01209,-0.727995 0,-1.191923"
       fill="url(#gradient7-7)"
       id="path61"
       style="fill:url(#gradient7-7);fill-rule:evenodd;stroke-width:0.851357" /><path
       d="m 22.906061,26.760692 -8.939322,3.490617 c 1.787884,3.29193 3.022284,6.853409 3.703397,10.685022 l 0.766225,0.681093 c 2.55405,-0.908114 4.38451,-1.702732 5.320978,-2.55405 0,-4.625772 -0.283788,-8.726444 -0.851356,-12.301919"
       fill="url(#gradient8-0)"
       id="path63"
       style="fill:url(#gradient8-0);fill-rule:evenodd;stroke-width:0.851357" /><path
       d="m 16.052848,35.833712 1.149347,5.023047 1.234498,0.766225 q -0.383112,-4.597389 -1.873035,-9.662913 -1.149347,-0.553386 -2.34127,-1.064196 1.404703,3.320314 1.83046,4.937896"
       fill="url(#gradient13-9)"
       id="path65"
       style="fill:url(#gradient13-9);fill-rule:evenodd;stroke-width:0.851357" /><path
       id="path1"
       style="fill:#7979ac;fill-opacity:1;stroke:none;stroke-width:0.990059px;stroke-linecap:butt;stroke-linejoin:miter;stroke-opacity:1"
       d="m 11.777344,33.779297 c -4.4552529,0 -5.938592,1.978853 -5.9394534,3.902344 -8.2e-6,0.01828 0.00327,0.03971 0.00391,0.05859 l -0.00391,-0.002 c 0,2.866381 4.0768875,4.951172 8.4160154,4.951172 4.305589,0 9.946763,-2.290777 14.552735,-4.027344 0.0396,-0.259517 0.06055,-0.524061 0.06055,-0.792968 0,-0.885448 -0.21713,-1.716878 -0.646485,-2.496094 -4.213537,1.828495 -9.117077,4.476562 -14.607422,4.476562 -2.373376,0 -3.7166712,-0.458834 -4.4589841,-1.037109 l 0.109375,0.0098 c -0.4950281,-2.475141 3.1564601,-2.097393 5.4296871,-1.488282 0.206216,0.05527 0.422735,0.09345 0.640625,0.117188 L 14.861328,35.533203 C 14.725125,35.097348 14.577371,34.660138 14.419922,34.222656 13.52173,33.974998 12.553281,33.779297 11.777344,33.779297 Z" /><g
       id="g175380"
       transform="matrix(0.98999695,0,0,0.98999695,118.62061,-94.930361)"><path
         style="opacity:1;fill:url(#linearGradient157575);fill-opacity:1;stroke:none;stroke-width:1px;stroke-linecap:butt;stroke-linejoin:miter;stroke-opacity:1"
         d="m -104.57716,132.73309 c -0.47051,0.0223 -0.96209,-0.023 -1.4112,-0.14336 -2.29606,-0.61523 -5.98398,-0.99615 -5.48398,1.50385 l -0.95995,-0.0936 -0.5,-3.5 7.96289,0.75839 c 0.0823,0.1858 0.35489,1.21938 0.39224,1.47472 z"
         id="path136886"
         sodipodi:nodetypes="csccccc" /><path
         style="opacity:1;fill:url(#linearGradient165468);fill-opacity:1;stroke:none;stroke-width:1px;stroke-linecap:butt;stroke-linejoin:miter;stroke-opacity:1"
         d="m -114.93229,133 c 0,2.89517 4.11729,5 8.5,5 6.999999,0 17.499999,-6 21.499999,-6 1.891004,0 2.843501,1.36291 3.5,2.5 l -0.5,-3.5 -6,-1.5 -13.499999,5 -6.5,1 -2.97785,-0.46578 z"
         id="path137850"
         sodipodi:nodetypes="cssccccccc" /><path
         style="opacity:1;fill:url(#linearGradient138921);fill-opacity:1;stroke:none;stroke-width:1px;stroke-linecap:butt;stroke-linejoin:miter;stroke-opacity:1"
         d="m -82.241136,135.93294 c 0.276024,-2.61542 0.39964,-5.07039 -4.023958,-5.07039 -2.598069,0 -15.511706,6.2904 -20.654826,6.17135 -6.55776,-0.1518 -8.0138,-2.84009 -8.01324,-4.09109 C -114.93229,131 -113.43229,129 -108.93229,129 c 0.99608,0 2.30941,0.31838 3.38669,0.65993 0,0 0.71201,1.72398 0.73742,2.12179 -0.44999,-0.0779 -0.98837,-0.19357 -1.55024,-0.34586 -2.1582,-0.58496 -6.07387,-0.93586 -6.07387,1.06414 0,1 0.85335,2.63228 5.35335,2.63228 8.457738,0 15.546822,-6.23817 20.868322,-6.23817 6.366848,0 6.823127,4.73539 6.543525,7.55299 z"
         id="path135256"
         sodipodi:nodetypes="cssssccsssscc" /></g><path
       d="m 7.326306,33.95451 21.369066,-9.194678 q 0.936498,-0.425679 0.808791,-1.660157 L 27.035264,1.3900034 Q 26.779859,-0.31272932 25.502834,0.07035374 L 1.6222932,4.284561 Q -0.46352259,4.7102491 0.13243877,6.5406795 0.51555119,7.6048752 5.9642275,33.613905 q 0.3831124,0.681093 1.3622253,0.340547"
       fill="url(#gradient9-5)"
       id="path67"
       style="fill:url(#gradient9-5);fill-rule:evenodd;stroke-width:0.851357" /><path
       d="M 7.8372139,31.615296 28.142378,23.484813 25.588328,3.9039248 3.9207426,8.4161617 7.8370182,31.615492"
       fill="url(#gradient10-2)"
       id="path69"
       style="fill:url(#gradient10-2);fill-rule:evenodd;stroke-width:0.851357" /><path
       d="M 6.9857007,32.897459 2.1755321,6.8029847 Q 2.4309371,5.9516281 2.7714837,5.8239403 L 25.374754,1.6523086 Q 26.055848,0.63068856 24.90651,0.8860838 L 1.9195692,5.1428667 Q 1.1533444,5.3982718 1.0682126,6.5475699 L 6.3891913,33.323255 q 0.042566,0.340537 0.4256783,0.212839 0.3405465,-0.08515 0.1702733,-0.638527"
       fill="url(#gradient11-3)"
       id="path71"
       style="fill:url(#gradient11-3);fill-rule:evenodd;stroke-width:0.851357" /><path
       d="m 7.8372139,31.615296 q 0,0.553386 0.5533857,0.340546 L 28.780915,23.612481 28.142397,23.442208 7.8372335,31.615267"
       fill="url(#gradient12-2)"
       id="path73"
       style="fill:url(#gradient12-2);fill-rule:evenodd;stroke-width:0.851357" /><g
       transform="matrix(0.12216292,0,0,0.12216292,23.82249,15.486338)"
       id="g47"><path
         d="m 96.589,37.789 -9.0743,7.5952 -3.184,8.4355 0.43127,104.15 1.9675,77.441 17.744,7.2894 h 10.451 l 28.204,-4.8999 24.722,-8.7867 2.7536,-42.18 0.29394,-92.167 -2.4076,-45.967 -33.697,-2.1511 -12.568,-2.7522 -6.4778,-4.1336 z"
         id="path32" /><g
         fill-rule="evenodd"
         id="g46"><rect
           x="118.07"
           y="86.347"
           width="42.863998"
           height="58.783001"
           fill="#83e950"
           stop-color="#000000"
           id="rect32" /><path
           d="m 173.12,138.76 -0.13986,-0.33622 0.28245,-53.359 c -0.14614,-22.156 -0.89564,-34.07 -2.2485,-35.742 l -0.99381,-0.96691 -3.0379,-2.0885 -5.909,-1.88 -2.4368,-0.16947 -10.699,-1.0705 -22.996,-0.29316 c -0.11117,-1.5313 -2.5708,-2.5457 -7.3789,-3.0433 l 0.0268,1.9607 c -2.4278,0.48412 -5.7145,0.7997 -9.86,0.94673 l -4.7337,-0.0027 -9.8869,-1.014 -0.08337,-1.1485 c -4.6691,1.4165 -7.7424,4.1411 -9.2199,8.1737 -1.0848,3.0805 -1.3457,35.002 -0.78271,95.766 0.49756,60.922 1.5537,91.902 3.1683,92.939 9.4736,5.3926 17.815,7.9043 25.023,7.5349 l 30.52,-5.7947 c 16.425,-3.8093 25.531,-7.2027 27.316,-10.18 2.0468,-3.6121 3.379,-31.379 3.9968,-83.299 l 0.0739,-6.9324"
           fill="#333333"
           id="path33" /><path
           d="m 151.17,49.492 -12.577,0.1049 c -16.106,0.78446 -24.902,2.0773 -26.388,3.8784 -1.4856,1.8011 -2.1055,33.018 -1.8599,93.65 0.18017,60.791 0.93279,91.831 2.2579,93.12 1.2596,1.4479 9.9762,0.12238 26.15,-3.9766 16.267,-3.8748 25.175,-6.7921 26.726,-8.7519 1.9338,-1.9876 3.0845,-30.664 3.4521,-86.031 l 0.0713,-2.1987 0.0592,-5.5459 -0.0619,-39.018 c -0.24563,-27.767 -1.143,-42.249 -2.6923,-43.445 l -1.1902,-0.4908 -0.95211,-0.39271 -0.47603,-0.1963 -7.3103,-0.50831 -5.2097,-0.19903 m 4.2025,22.901 5.0699,-0.13718 c 2.547,3.2786 2.4381,6.0189 -0.32679,8.2207 l -16.358,0.49487 c -2.0154,-2.3166 -2.5511,-4.3943 -1.607,-6.2331 l 1.6958,-2.0858 11.526,-0.25954 m -26.933,1.1471 6.6527,-0.59845 c 2.7712,3.1854 2.7416,5.9583 -0.0888,8.3189 l -16.078,1.1673 c -2.1741,-2.3821 -2.7891,-4.4925 -1.845,-6.3313 l 1.9338,-1.9876 9.4257,-0.56887 m 11.412,77.678 c 3.483,-0.79163 5.4437,-0.81853 5.8821,-0.0807 0.82122,0.71005 1.2448,2.8344 1.2708,6.373 0.0915,3.3799 -0.18513,5.4011 -0.82974,6.0637 l -5.6172,2.1396 c -3.1934,0.53971 -5.3456,0.58047 -6.4564,0.1223 l -0.75308,-5.6024 0.88622,-6.876 5.6172,-2.1396 m -22.523,4.6368 5.7154,-2.3776 c 3.483,-0.79163 5.6818,-0.72036 6.5962,0.21381 0.82122,0.71005 1.1328,2.881 0.93463,6.5128 0.25013,3.4454 -0.0264,5.4666 -0.82974,6.0637 l -5.9534,2.2794 -6.5545,0.36042 -0.79478,-6.1766 0.88622,-6.8759 m 11.923,16.337 c 0.82122,0.71005 1.3242,2.8671 1.5089,6.4712 0.0257,3.5386 -0.31629,5.7185 -1.0261,6.5398 l -5.8552,2.0414 c -3.3243,0.85708 -5.5885,0.94448 -6.7926,0.26221 l -0.55656,-6.0785 0.74637,-7.2121 c 0.55137,-0.88667 2.5031,-1.5671 5.8552,-2.0414 3.483,-0.79163 5.5231,-0.7858 6.1202,0.0175 m -11.832,19.908 c 0.39269,-0.95211 2.2651,-1.6653 5.6172,-2.1396 3.6417,-0.72619 5.8732,-0.73426 6.6944,-0.0242 0.82122,0.71005 1.1328,2.881 0.93463,6.5128 0.18466,3.6041 -0.15737,5.784 -1.0261,6.5398 l -5.8552,2.0414 c -3.1002,0.76384 -5.285,0.88398 -6.5545,0.36041 l -0.55674,-6.0785 0.74636,-7.2121 m 45.201,-37.34 c 0.15689,3.2212 -0.15242,5.3218 -0.92791,6.3017 l -5.281,1.9997 c -3.1934,0.53971 -5.3456,0.58047 -6.4564,0.1223 l -0.51504,-5.5042 0.88623,-6.8759 c 0.48592,-0.72798 2.2463,-1.3946 5.281,-1.9997 3.2589,-0.69839 5.299,-0.69256 6.1202,0.0175 l 0.89294,5.9386 m -16.94,14.738 c 0.59709,0.80329 0.94135,2.8949 1.0328,6.2748 -0.0672,3.3145 -0.42314,5.303 -1.0678,5.9655 l -5.4774,2.4758 c -2.9693,0.44648 -5.1214,0.48725 -6.4564,0.12231 l 0.13317,-12.478 5.7154,-2.3776 c 3.3243,-0.85708 5.3644,-0.85125 6.1202,0.0175 m 4.692,-0.57155 5.1412,-2.3359 c 3.3521,-0.47426 5.3595,-0.38909 6.022,0.25552 l 1.131,6.0368 c 0.0915,3.3799 -0.26446,5.3684 -1.0678,5.9655 l -5.3792,2.2377 -6.1202,-0.0175 -0.51504,-5.5043 0.78805,-6.6379 m -0.27571,16.876 5.3792,-2.2377 c 3.2589,-0.69839 5.2196,-0.72529 5.8821,-0.0807 0.75577,0.86874 1.1794,2.9931 1.2708,6.373 -0.002,3.1558 -0.3252,5.065 -0.96961,5.7275 l -5.6172,2.1396 c -2.8761,0.67061 -4.8695,0.77684 -5.9803,0.31871 l -0.65492,-5.8405 0.68988,-6.3999 m -3.5193,7.1826 c -0.0672,3.3145 -0.42314,5.303 -1.0678,5.9655 l -5.6172,2.1396 c -3.0348,0.60516 -5.2196,0.7253 -6.5545,0.36042 -0.46261,-7.4322 -0.3855,-11.671 0.23131,-12.716 l 5.8552,-2.0414 c 3.3243,-0.85708 5.285,-0.88398 5.8821,-0.0807 0.75578,0.86874 1.1794,2.9931 1.2708,6.373 m 14.925,8.3835 c 0.82122,0.71005 1.2448,2.8344 1.2708,6.373 -0.002,3.1558 -0.3252,5.065 -0.96961,5.7275 l -5.6172,2.1396 -6.2183,0.22056 0.035,-12.24 5.6172,-2.1396 c 3.4176,-0.63295 5.3783,-0.65985 5.8821,-0.0807 m -16.045,15.943 -5.519,1.9015 -6.2183,0.22055 -0.6549,-5.8404 0.78805,-6.6379 c 0.55137,-0.88667 2.4238,-1.5998 5.6172,-2.1396 3.2589,-0.6984 5.2662,-0.61323 6.022,0.25552 0.72799,0.48592 1.0256,2.4655 0.89294,5.9386 0.25013,3.4454 -0.0592,5.5459 -0.92791,6.3017 m -16.01,3.7022 -5.7154,2.3776 c -3.2589,0.6984 -5.4904,0.70647 -6.6944,0.0242 l -0.5568,-6.0785 0.74637,-7.2121 5.6172,-2.1396 c 3.6417,-0.72619 5.8732,-0.73426 6.6944,-0.0242 0.75577,0.86873 1.1139,3.1518 1.0745,6.849 0.0915,3.3799 -0.2972,5.4478 -1.166,6.2035"
           fill="url(#gradient32-3)"
           id="path34"
           style="fill:url(#gradient32-3)" /><path
           d="M 116.38,20.384 115.2692,3.493 106.1259,6e-4 q -8.8931,-0.047067 -10.996,4.3773 l -0.88622,6.8759 8.4588,0.42496 12.913,-0.24474 0.0688,2.5349 -12.437,0.44109 -9.3692,-0.24341 0.01236,3.3472 q 6.0632,0.82974 10.559,0.73426 4.3975,0.14255 11.624,-0.49757 l 0.3066,2.6331 -11.624,0.49757 q -5.168,0.3752 -10.994,-0.35638 l -0.73964,20.027 0.08337,1.1485 9.8869,1.014 1.3865,0.01493 3.3472,-0.01236 q 6.2183,-0.22056 9.86,-0.94673 l -0.0268,-1.9607 -1.1794,-19.426"
           fill="url(#gradient29)"
           id="path35"
           style="fill:url(#gradient29)" /><path
           d="m 116.38,20.384 -0.3066,-2.6331 q -7.2269,0.64012 -11.624,0.49757 -4.4957,0.09548 -10.559,-0.73426 l -0.23801,-0.09817 -0.12776,3.011 0.23801,0.09817 q 5.8257,0.73157 10.994,0.35638 l 11.624,-0.49757 m -22.502,-6.217 9.3692,0.24341 12.437,-0.44109 -0.0687,-2.5349 -12.913,0.24474 -8.4588,-0.42496 -0.23801,-0.09817 -0.12776,3.011"
           fill="#999999"
           id="path36" /><path
           d="m 107.73,42.717 -3.3472,0.01236 -1.3865,-0.01493 q -14.537,0.13178 -16.515,6.2788 -0.11298,1.6245 14.088,1.6326 13.627,0.04995 22.059,-1.486 l 1.3031,-1.1337 q 0.0149,-1.3865 -1.7913,-2.4099 l -14.409,-2.8792"
           fill="url(#gradient33)"
           id="path37"
           style="fill:url(#gradient33)" /><path
           d="m 138.7,156.03 q 0.21113,-1.8625 -1.7496,-1.8356 -1.8625,-0.21108 -2.0737,1.6514 0.0268,1.9607 1.9876,1.9338 1.9607,-0.0268 1.8356,-1.7496 m -18.334,1.9083 q -1.8625,-0.21108 -1.8356,1.7496 -0.21113,1.8625 1.7496,1.8356 2.1988,0.0713 2.0737,-1.6514 -0.0268,-1.9607 -1.9876,-1.9338 m -1.9446,20.922 q 0.12503,1.7227 2.0858,1.6958 1.9607,-0.0268 1.7375,-1.5115 0.21108,-1.8626 -1.7496,-1.8356 -1.8625,-0.21113 -2.0737,1.6514 m 1.3636,15.602 q -1.6245,-0.11298 -1.8356,1.7496 0.0268,1.9607 1.9876,1.9338 1.9607,-0.0268 1.8356,-1.7496 0.21118,-1.8625 -1.9876,-1.9338 m 30.946,-41.269 q 0.12503,1.7227 1.9876,1.9338 2.2969,-0.16675 2.1718,-1.8894 -0.0268,-1.9607 -1.9876,-1.9338 -2.1987,-0.0713 -2.1718,1.8894 m 1.9647,17.521 q -2.1987,-0.0713 -2.1718,1.8894 0.0268,1.9607 1.9876,1.9338 2.1987,0.0713 2.1718,-1.8894 -0.0268,-1.9607 -1.9876,-1.9338 m -17.971,3.7291 q 0.0268,1.9607 1.9876,1.9338 1.9607,-0.0268 1.8356,-1.7496 0.21114,-1.8626 -1.7496,-1.8357 -2.1006,-0.30928 -2.0737,1.6514 m 17.415,12.474 -2.1718,1.8894 q 0.12503,1.7227 1.9876,1.9338 1.9607,-0.0268 1.9338,-1.9876 0.21113,-1.8626 -1.7496,-1.8356 m -0.36176,20.461 q 1.9607,-0.0268 2.0737,-1.6514 -0.0268,-1.9607 -1.9876,-1.9338 -1.9607,0.0268 -1.9338,1.9876 l 1.8477,1.5976 m -17.246,-14.911 q 0.0268,1.9607 1.9876,1.9338 1.9607,-0.0268 1.8356,-1.7496 0.21108,-1.8625 -1.7496,-1.8356 -2.1006,-0.30929 -2.0737,1.6514 m -14.268,19.739 q -1.7227,0.12503 -1.9338,1.9876 0.12503,1.7227 1.9876,1.9338 2.2969,-0.16674 2.1718,-1.8894 -0.0268,-1.9607 -2.2256,-2.032 m 15.98,-0.92925 q 1.9607,-0.0268 1.8356,-1.7496 0.21118,-1.8625 -1.7496,-1.8356 -1.8625,-0.21113 -2.0737,1.6514 0.0268,1.9607 1.9876,1.9338"
           fill="url(#gradient35)"
           id="path38"
           style="fill:url(#gradient35)" /><path
           d="m 143.83,78.772 14.061,-0.32813 c 2.3444,-1.6326 2.3503,-3.6726 0.0175,-6.1202 l -2.5349,0.0688 -11.526,0.25954 -1.6958,2.0858 0.26495,2.0589"
           fill="url(#gradient36)"
           id="path39"
           style="fill:url(#gradient36)" /><path
           d="m 142.42,76.796 1.0355,1.5411 1.2883,0.25279 q 2.3386,0.40749 2.4099,-1.7913 0.16947,-2.4368 -2.3655,-2.3682 -2.2404,-0.6455 -2.4099,1.7913 l 0.0417,0.57422"
           fill="url(#gradient37)"
           id="path40"
           style="fill:url(#gradient37)" /><path
           d="m 117.08,76.096 0.26494,2.0589 1.4134,1.9756 14.02,-0.90235 c 2.3444,-1.6326 2.3175,-3.5933 -0.0807,-5.8821 l -4.2576,0.19368 -9.4257,0.56888 -1.9338,1.9876"
           fill="url(#gradient38)"
           id="path41"
           style="fill:url(#gradient38)" /><path
           d="m 117.35,78.155 1.0355,1.5411 1.2883,0.25279 q 2.5349,-0.06875 2.508,-2.0293 0.16948,-2.4368 -2.3655,-2.3682 -2.4368,-0.16947 -2.508,2.0293 l 0.0417,0.57423"
           fill="url(#gradient39)"
           id="path42"
           style="fill:url(#gradient39)" /><path
           d="m 108.59,56.162 q 0.40749,-2.3386 -3.8918,-2.7192 l -8.8931,-0.04686 q -7.9827,-0.22859 -9.4405,1.9553 l -0.84053,74.296 q 0.29311,75.599 3.4278,104.47 l 18.959,6.705 -1.065,-97.363 1.7442,-87.292 m -15.635,8.8703 q 0.18425,-3.8233 2.621,-3.6538 3.1092,-0.11025 2.9249,3.713 0.15196,3.6834 -2.859,3.5556 -2.773,-0.02935 -2.6869,-3.6148"
           fill="url(#gradient34)"
           id="path43"
           style="fill:url(#gradient34)" /><path
           d="m 142.37,85.69 -25.938,2.114 0.14656,62.448 49.232,-7.2686 -0.0386,-5.3079 0.32679,-8.2207 -0.19228,-31.273 -0.81898,-12.871 -22.716,0.37922"
           fill="url(#gradient30)"
           id="path44"
           style="fill:url(#gradient30)" /><path
           d="m 140.88,85.913 -23.978,2.0871 0.38725,57.813 45.45,-6.8786 -0.0386,-5.3079 0.14527,-9.1312 -0.0433,-22.856 -0.69122,-15.882 -12.002,0.06319 -4.3975,-0.14254 -4.8318,0.23534"
           fill="url(#gradient31)"
           id="path45"
           style="fill:url(#gradient31)" /><path
           d="m 131.69,140.61 q -4.2348,-15.394 3.6431,-27.742 8.214,-12.488 12.786,-24.249 l -29.146,2.4623 -0.0299,52.071 12.746,-2.5417"
           fill="url(#gradient40)"
           id="path46"
           style="fill:url(#gradient40)" /></g></g><g
       inkscape:label="Στρώση 1"
       id="layer1"
       transform="matrix(0.4071475,0,0,0.4071475,28.164328,-5.3216374)"><rect
         style="fill:url(#linearGradient5);fill-rule:evenodd;stroke:url(#linearGradient2);stroke-width:1.5;stroke-linejoin:round;stroke-dasharray:none"
         id="rect1"
         width="4.5"
         height="10.5"
         x="2.25"
         y="33.75"
         rx="1"
         ry="1" /><rect
         style="fill:url(#linearGradient7);fill-rule:evenodd;stroke:none;stroke-width:1.5;stroke-linejoin:round;stroke-dasharray:none"
         id="rect5"
         width="3"
         height="1.5"
         x="3"
         y="34.5" /><rect
         style="fill:url(#linearGradient8);fill-rule:evenodd;stroke:url(#linearGradient9);stroke-width:1.5;stroke-linejoin:round;stroke-dasharray:none"
         id="rect1-1"
         width="4.5"
         height="15"
         x="11.25"
         y="29.25"
         rx="1"
         ry="1" /><rect
         style="fill:url(#linearGradient10);fill-rule:evenodd;stroke:none;stroke-width:1.5;stroke-linejoin:round;stroke-dasharray:none"
         id="rect5-8"
         width="3"
         height="1.5"
         x="12"
         y="30" /><rect
         style="fill:url(#linearGradient11);fill-rule:evenodd;stroke:url(#linearGradient12);stroke-width:1.5;stroke-linejoin:round;stroke-dasharray:none"
         id="rect1-1-2"
         width="4.5"
         height="19.5"
         x="20.25"
         y="24.75"
         rx="1"
         ry="1" /><rect
         style="fill:url(#linearGradient13);fill-rule:evenodd;stroke:none;stroke-width:1.5;stroke-linejoin:round;stroke-dasharray:none"
         id="rect5-8-2"
         width="3"
         height="1.5"
         x="21"
         y="25.5" /><rect
         style="fill:url(#linearGradient14);fill-rule:evenodd;stroke:url(#linearGradient15);stroke-width:1.5;stroke-linejoin:round;stroke-dasharray:none"
         id="rect1-1-2-1"
         width="4.5"
         height="24"
         x="29.25"
         y="20.25"
         rx="1"
         ry="1" /><rect
         style="fill:url(#linearGradient16);fill-rule:evenodd;stroke:none;stroke-width:1.5;stroke-linejoin:round;stroke-dasharray:none"
         id="rect5-8-2-9"
         width="3"
         height="1.5"
         x="30"
         y="21" /><rect
         style="fill:url(#linearGradient17);fill-rule:evenodd;stroke:url(#linearGradient18);stroke-width:1.5;stroke-linejoin:round;stroke-dasharray:none"
         id="rect1-1-2-1-0"
         width="4.5"
         height="28.5"
         x="38.25"
         y="15.75"
         rx="1"
         ry="1" /><rect
         style="fill:url(#linearGradient19);fill-rule:evenodd;stroke:none;stroke-width:1.5;stroke-linejoin:round;stroke-dasharray:none"
         id="rect5-8-2-9-6"
         width="3"
         height="1.5"
         x="39"
         y="16.5" /></g></g></svg>
