<?xml version="1.0" encoding="UTF-8" standalone="no"?>
<!-- Created with Inkscape (http://www.inkscape.org/) -->

<svg
   version="1.1"
   id="svg383"
   xml:space="preserve"
   width="16"
   height="16"
   sodipodi:docname="palette.svg"
   inkscape:version="1.2.2 (b0a8486541, 2022-12-01)"
   xmlns:inkscape="http://www.inkscape.org/namespaces/inkscape"
   xmlns:sodipodi="http://sodipodi.sourceforge.net/DTD/sodipodi-0.dtd"
   xmlns:xlink="http://www.w3.org/1999/xlink"
   xmlns="http://www.w3.org/2000/svg"
   xmlns:svg="http://www.w3.org/2000/svg"><defs
     id="defs387"><linearGradient
       inkscape:collect="always"
       xlink:href="#linearGradient95194"
       id="linearGradient95196"
       x1="37.671429"
       y1="5.4686208"
       x2="28.386679"
       y2="-2.2153199"
       gradientUnits="userSpaceOnUse"
       gradientTransform="translate(-12.567709)" /><linearGradient
       inkscape:collect="always"
       id="linearGradient95194"><stop
         style="stop-color:#c5c5c5;stop-opacity:1"
         offset="0"
         id="stop95190" /><stop
         style="stop-color:#ffffff;stop-opacity:1"
         offset="1"
         id="stop95192" /></linearGradient><filter
       inkscape:collect="always"
       style="color-interpolation-filters:sRGB"
       id="filter1407"
       x="-0.13445839"
       y="-0.16212192"
       width="1.2689168"
       height="1.3242438"><feGaussianBlur
         inkscape:collect="always"
         stdDeviation="0.84036494"
         id="feGaussianBlur1409" /></filter></defs><sodipodi:namedview
     id="namedview385"
     pagecolor="#ffffff"
     bordercolor="#666666"
     borderopacity="1.0"
     inkscape:showpageshadow="2"
     inkscape:pageopacity="0.0"
     inkscape:pagecheckerboard="0"
     inkscape:deskcolor="#d1d1d1"
     showgrid="false"
     inkscape:zoom="55.152707"
     inkscape:cx="11.468159"
     inkscape:cy="8.3676764"
     inkscape:window-width="3840"
     inkscape:window-height="2061"
     inkscape:window-x="1280"
     inkscape:window-y="0"
     inkscape:window-maximized="1"
     inkscape:current-layer="svg383" /><path
     id="path817"
     style="color:#000000;fill:#000000;fill-opacity:1;stroke-width:0.454263;-inkscape-stroke:none;filter:url(#filter1407);opacity:0.75"
     d="M 9.4101562,2.2816724 C 9.3287876,2.2830817 9.2432673,2.2852023 9.15625,2.291438 7.4420923,2.4138779 5.3093911,3.3702876 3.5761719,4.7738599 1.8429526,6.1774322 0.5,8.0413863 0.5,10.025813 c 0,1.118691 0.47178865,2.315737 1.578125,3.214843 1.1063364,0.899107 2.831792,1.49771 5.3320312,1.480469 C 10.079438,14.702718 12.096753,13.861006 13.447266,12.80511 14.797777,11.749212 15.5,10.498899 15.5,9.557063 15.5,8.6403476 14.892497,8.0776401 14.234375,7.7933912 13.576253,7.5091423 12.851922,7.4515943 12.457031,7.4515943 c -0.251013,0 -0.747734,-0.2145395 -0.966797,-0.5273438 C 11.380703,6.7678484 11.329323,6.6020154 11.363281,6.400813 11.397239,6.1996107 11.525728,5.9489462 11.833984,5.6605786 12.435688,5.0976995 12.480167,4.2061831 12.041016,3.5004224 11.601863,2.7946617 10.691608,2.259366 9.4101562,2.2816724 Z m 0.1699219,4.7148438 c 0.3247013,-0.00794 0.5997909,0.1039063 0.7910159,0.4667968 0.04869,0.09239 0.05319,0.1539598 0.04102,0.2128906 -0.01218,0.058931 -0.04803,0.1227143 -0.117188,0.1914063 C 10.156599,8.004994 9.8870109,8.1389723 9.5878906,8.2172193 9.2887704,8.2954663 8.9611826,8.3235017 8.7167969,8.2933912 8.594604,8.278336 8.4933297,8.2480201 8.4316406,8.2152662 8.3699517,8.1825123 8.3526301,8.1559691 8.3457031,8.135188 8.2701579,7.9085521 8.3770199,7.64549 8.625,7.4105786 8.8729801,7.1756674 9.2475277,7.0046444 9.5800781,6.9965162 Z" /><inkscape:clipboard
     style="font-variation-settings:normal;opacity:1;vector-effect:none;fill:#0065cb;fill-opacity:1;stroke-width:5.1645974px;stroke-linecap:butt;stroke-linejoin:miter;stroke-miterlimit:4;stroke-dasharray:none;stroke-dashoffset:0;stroke-opacity:1;-inkscape-stroke:none;stop-color:#000000;stop-opacity:1;stroke:none"
     min="76.815181,40.96344"
     max="241.9177,177.89234"
     geom-min="79.315182,43.463352"
     geom-max="239.4177,175.39234" /><g
     id="g393"
     transform="matrix(0.09085264,0,0,0.09085264,-8.1206718,-1.9418127)"><g
       id="g128597"
       transform="matrix(5.1645974,0,0,5.1645974,19.67267,128.57538)"><path
         id="path3578"
         style="opacity:1;fill:url(#linearGradient95196);fill-opacity:1;stroke:#979797;stroke-width:0.96813;stroke-linecap:butt;stroke-linejoin:miter;stroke-miterlimit:4;stroke-dasharray:none;stroke-opacity:1"
         d="m 19.925781,-16.478516 c -0.167345,0.0029 -0.33747,0.009 -0.511719,0.02148 -7,0.5 -17.9999995,7.9843898 -17.9999995,15.99999975 0,4.50000005 3.7418278,9.59365635 14.2415775,9.52125165 11.178268,-0.077084 16.758422,-7.0212516 16.758422,-10.5212516 0,-3.5 -4.418861,-4 -6,-4 -1.5,0 -4.500655,-1.9990305 -1.660156,-4.6562498 2.217975,-2.074862 0.359572,-6.455538 -4.828125,-6.365235 z m 0.345703,9.0820316 c 0.835186,-0.020414 1.638588,0.3308326 2.125,1.2539063 1.171537,2.22325 -4.703125,3.3105469 -5.203125,1.8105469 -0.475087,-1.4252619 1.367983,-3.0226537 3.078125,-3.0644532 z"
         transform="translate(12.567709)"
         sodipodi:nodetypes="ccsssssccssss" /><path
         style="fill:#9b8530;fill-opacity:1;stroke:none;stroke-width:1px;stroke-linecap:butt;stroke-linejoin:miter;stroke-opacity:1"
         d="m 30.032434,-13.5183 -2.394693,1.054903 c -0.0078,0.247263 -0.261511,0.566843 1.517787,1.094491 0.588034,0.174381 0.917432,0.26261 1.542313,0.28684 0.724816,0.02811 1.860904,-0.191679 2.268379,-0.675653 0.599057,-0.711525 0.509987,-1.123787 0.210372,-1.437342 z"
         id="path14697"
         sodipodi:nodetypes="ccssscc" /><path
         style="fill:#feca00;fill-opacity:1;stroke:none;stroke-width:1px;stroke-linecap:butt;stroke-linejoin:miter;stroke-opacity:1"
         d="m 30.014508,-14.510665 c -1.911962,0.478538 -2.599053,1.702138 -2.449536,2.060732 0.120948,0.290075 -0.06049,0.366678 1.260978,0.586377 0.605039,0.10059 1.162609,0.172661 1.787489,0.196891 0.724816,0.02811 1.784732,-0.227741 2.272576,-0.630575 0.735093,-0.607012 0.216165,-1.147936 -0.13121,-1.396839 -0.65326,-0.468076 -1.810869,-1.049209 -2.740297,-0.816586 z"
         id="path5807"
         sodipodi:nodetypes="sssssss" /><path
         style="fill:#8b531b;fill-opacity:1;stroke:none;stroke-width:1px;stroke-linecap:butt;stroke-linejoin:miter;stroke-opacity:1"
         d="m 21.975761,-8.8997635 4.039525,-0.642375 c 0.437821,0.895268 -0.02923,1.621242 -1.28436,2.43341 -0.445081,0.288002 0.122228,0.999591 -1.133384,1.098062 -0.903795,0.07088 -0.861188,-0.4333081 -1.92709,-0.6179085 -1.798907,-0.3115475 -1.945961,-1.5541335 -1.588908,-1.7602775 z"
         id="path28337"
         sodipodi:nodetypes="ccssscc" /><path
         style="fill:#ff9832;fill-opacity:1;stroke:none;stroke-width:1px;stroke-linecap:butt;stroke-linejoin:miter;stroke-opacity:1"
         d="m 21.942615,-9.7459525 c 1.583253,-1.3943275 6.505198,-0.4297305 2.755166,1.996828 -0.445082,0.288002 0.122227,0.999591 -1.133385,1.098062 -0.903795,0.07088 -1.096463,-0.619116 -2.177376,-0.576097 -1.521411,0.06055 -2.099013,-1.323671 -0.743038,-1.55996 0.554775,-0.09667 1.008317,-0.70316 1.298633,-0.958833 z"
         id="path6912"
         sodipodi:nodetypes="ssssss" /><path
         style="fill:#862008;fill-opacity:1;stroke:none;stroke-width:1px;stroke-linecap:butt;stroke-linejoin:miter;stroke-opacity:1"
         d="m 19.670383,1.9438665 c 1.072876,0.0026 1.344169,-0.480648 1.62206,-0.775094 0.229836,-0.243528 0.40975,-0.201309 0.691673,-0.357205 0.613031,-0.338992 0.299964,-1.280927 0.111645,-1.640459 -0.283225,-0.540723 -1.472018,-0.443679 -1.472018,-0.443679 l -4.875922,1.328252 c 0,0 -0.0091,0.822465 1.123614,1.418295 0.913871,0.480696 1.571329,0.466891 2.798948,0.46989 z"
         id="path49129"
         sodipodi:nodetypes="ssssccss" /><path
         style="fill:#ff3200;fill-opacity:1;stroke:none;stroke-width:1px;stroke-linecap:butt;stroke-linejoin:miter;stroke-opacity:1"
         d="m 19.330428,1.3847015 c 1.072876,0.0026 1.293663,-0.468107 1.571554,-0.762553 0.229836,-0.243528 0.475667,-0.151821 0.757591,-0.307717 1.535008,-0.848824 -0.279116,-2.345245 -1.414889,-2.340883 -2.272321,0.0087 -2.043331,0.854554 -2.581645,1.008648 -0.538315,0.154095 -2.456327,0.542203 -1.857102,1.400591 0.742534,1.063677 2.296872,0.998915 3.524491,1.001914 z"
         id="path7640"
         sodipodi:nodetypes="sssssss" /><path
         style="fill:#006900;fill-opacity:1;stroke:none;stroke-width:1px;stroke-linecap:butt;stroke-linejoin:miter;stroke-opacity:1"
         d="m 26.348625,3.8565855 1.62469,-0.325652 3.129861,1.037688 c 0.591505,0.675727 0.57574,1.758727 -0.19547,2.024007 -0.546121,0.187855 -1.365973,0.552204 -2.235505,0.539013 -0.89851,-0.01363 -1.628314,-0.475665 -2.088138,-0.879701 -1.556265,-1.367451 -2.097393,-2.022147 -0.235438,-2.395355 z"
         id="path57415"
         sodipodi:nodetypes="cccsssc" /><path
         style="fill:#009800;fill-opacity:1;stroke:none;stroke-width:1px;stroke-linecap:butt;stroke-linejoin:miter;stroke-opacity:1"
         d="m 26.436291,3.6921935 c 0.643895,-0.05152 1.000583,-0.811294 1.763614,-0.847855 1.280267,-0.06134 1.992927,0.226205 2.742287,1.082264 0.591505,0.675727 0.963313,1.714151 0.192104,1.979431 -0.616364,0.212017 -1.678687,0.690934 -2.615524,0.587029 -0.750973,-0.08329 -1.390105,-0.706381 -1.887616,-0.90562 -1.759179,-0.704502 -2.087806,-1.743789 -0.194865,-1.895249 z"
         id="path8498"
         sodipodi:nodetypes="sssssss" /><path
         style="fill:#003b78;fill-opacity:1;stroke:none;stroke-width:1px;stroke-linecap:butt;stroke-linejoin:miter;stroke-opacity:1"
         d="m 38.444317,3.8290728 c -3.754374,0.07502 -2.379403,-0.348969 -3.436302,-0.847646 -1.858846,-0.877058 -1.209778,-2.0654613 -1.209778,-2.0654613 l 6.490269,0.767242 c 0,0 1.178031,2.0854773 -1.844189,2.1458653 z"
         id="path9264-5"
         sodipodi:nodetypes="ssccs" /><path
         style="fill:#0065cb;fill-opacity:1;stroke:none;stroke-width:1px;stroke-linecap:butt;stroke-linejoin:miter;stroke-opacity:1"
         d="m 38.438807,3.1292815 c -3.754374,0.07502 -2.28935,-0.623558 -3.436302,-0.847646 -1.864672,-0.364314 -1.734163,-2.329383 0.451447,-2.730057 2.919137,-0.535147 3.043534,0.891549 4.167405,1.232582 1.12387,0.341032 1.83967,2.284733 -1.18255,2.345121 z"
         id="path9264"
         sodipodi:nodetypes="sssss" /></g></g></svg>
