<?xml version="1.0" encoding="UTF-8" standalone="no"?>
<svg
   inkscape:export-ydpi="96"
   inkscape:export-xdpi="96"
   inkscape:export-filename="/media/klapeto/Αρχεία/WindowsXP Theme/Vectors/RASTER/code-typedef.png"
   sodipodi:docname="regex-hovered.svg"
   inkscape:version="1.2.2 (b0a8486541, 2022-12-01)"
   id="svg8"
   version="1.1"
   viewBox="0 0 16 16"
   height="16"
   width="16"
   xml:space="preserve"
   xmlns:inkscape="http://www.inkscape.org/namespaces/inkscape"
   xmlns:sodipodi="http://sodipodi.sourceforge.net/DTD/sodipodi-0.dtd"
   xmlns="http://www.w3.org/2000/svg"
   xmlns:svg="http://www.w3.org/2000/svg"
   xmlns:rdf="http://www.w3.org/1999/02/22-rdf-syntax-ns#"
   xmlns:cc="http://creativecommons.org/ns#"
   xmlns:dc="http://purl.org/dc/elements/1.1/"><defs
     id="defs2" /><sodipodi:namedview
     inkscape:snap-global="true"
     inkscape:bbox-paths="false"
     fit-margin-bottom="0"
     fit-margin-right="0"
     fit-margin-left="0"
     fit-margin-top="0"
     inkscape:bbox-nodes="true"
     inkscape:snap-bbox="true"
     inkscape:window-maximized="1"
     inkscape:window-y="0"
     inkscape:window-x="1280"
     inkscape:window-height="2061"
     inkscape:window-width="3840"
     units="px"
     showgrid="true"
     inkscape:document-rotation="0"
     inkscape:current-layer="layer1"
     inkscape:document-units="px"
     inkscape:cy="5.0234375"
     inkscape:cx="4.78125"
     inkscape:zoom="64"
     inkscape:pageshadow="2"
     inkscape:pageopacity="0.0"
     borderopacity="1.0"
     bordercolor="#666666"
     pagecolor="#ffffff"
     id="base"
     showguides="false"
     inkscape:pagecheckerboard="0"
     inkscape:snap-grids="true"
     inkscape:showpageshadow="2"
     inkscape:deskcolor="#d1d1d1"><inkscape:grid
       originy="0"
       originx="0"
       id="grid1504"
       type="xygrid"
       spacingy="1"
       spacingx="1"
       units="px"
       visible="true" /><inkscape:grid
       spacingy="0.5"
       spacingx="0.5"
       id="grid966"
       type="xygrid"
       originx="0"
       originy="0"
       units="px"
       visible="true" /></sodipodi:namedview><metadata
     id="metadata5"><rdf:RDF><cc:Work
         rdf:about=""><dc:format>image/svg+xml</dc:format><dc:type
           rdf:resource="http://purl.org/dc/dcmitype/StillImage" /></cc:Work></rdf:RDF></metadata><g
     transform="translate(-12.567709)"
     id="layer1"
     inkscape:groupmode="layer"
     inkscape:label="Layer 1"><g
       aria-label=".*"
       id="text349"
       style="font-size:18.7229px;line-height:1.25;font-family:'Times New Roman';-inkscape-font-specification:'Times New Roman, ';fill:#0099ff;stroke:#003399;stroke-width:0.30698462;stroke-dasharray:none"
       transform="matrix(1.0847449,0,0,1.0847449,-1.7091045,-0.63375261)"><path
         d="m 15.48235,12.076807 q 0.429676,0 0.722222,0.301687 0.292545,0.292545 0.292545,0.713079 0,0.420534 -0.301687,0.722222 -0.292546,0.292545 -0.71308,0.292545 -0.420534,0 -0.722221,-0.292545 -0.292545,-0.301688 -0.292545,-0.722222 0,-0.429676 0.292545,-0.722221 0.301687,-0.292545 0.722221,-0.292545 z"
         id="path293"
         style="stroke-width:0.30698462;stroke-dasharray:none" /><path
         d="m 22.338881,4.3060718 q -0.03657,-0.6308009 -0.255977,-1.2524597 -0.310829,-0.89592 -0.310829,-1.2341755 0,-0.4753862 0.219409,-0.7222213 0.228551,-0.24683512 0.557664,-0.24683512 0.283403,0 0.49367,0.24683512 0.210267,0.2468351 0.210267,0.7039372 0,0.4113918 -0.246835,1.1518972 -0.237693,0.7313633 -0.292545,1.3530221 0.502812,-0.3199715 0.905062,-0.7770735 0.621659,-0.7222213 0.923346,-0.8959201 0.301688,-0.1736988 0.612517,-0.1736988 0.301687,0 0.502812,0.210267 0.210267,0.2011249 0.210267,0.4845282 0,0.3382555 -0.301687,0.6033747 -0.301688,0.2651192 -1.508437,0.5302384 -0.703937,0.1554147 -1.170181,0.3565396 0.475386,0.2468351 1.161039,0.3748237 1.106187,0.2011249 1.444442,0.5028122 0.347398,0.3016874 0.347398,0.658227 0,0.2742612 -0.210267,0.4753861 -0.201125,0.201125 -0.475386,0.201125 -0.274261,0 -0.612517,-0.1919829 -0.329113,-0.1919829 -0.89592,-0.8593519 -0.374824,-0.44796 -0.932488,-0.8410678 0.01828,0.5210964 0.210267,1.1336131 0.329113,1.0787609 0.329113,1.4718687 0,0.3656816 -0.219409,0.6216588 -0.219409,0.2468351 -0.466244,0.2468351 -0.338255,0 -0.612516,-0.2651192 -0.191983,-0.1919829 -0.191983,-0.6125168 0,-0.438818 0.210267,-1.0513347 0.210267,-0.6216588 0.265119,-0.8502098 0.05485,-0.2376931 0.100562,-0.6947952 -0.53938,0.3565396 -0.94163,0.7953576 -0.667369,0.7496474 -1.005625,0.9507723 -0.237693,0.1462727 -0.49367,0.1462727 -0.310829,0 -0.530238,-0.210267 -0.219409,-0.2102669 -0.219409,-0.4662441 0,-0.228551 0.182841,-0.4753861 0.191983,-0.2559772 0.566806,-0.4205339 0.246835,-0.1097045 1.124471,-0.2925454 0.566807,-0.1188465 1.106187,-0.3473975 -0.49367,-0.2468351 -1.179323,-0.3839657 -1.124471,-0.2376931 -1.38959,-0.429676 -0.411392,-0.3016873 -0.411392,-0.7313633 0,-0.2468351 0.201125,-0.44796 0.210267,-0.2102669 0.484528,-0.2102669 0.301687,0 0.639943,0.1919828 0.338255,0.1919829 0.841068,0.7770735 0.502812,0.5759486 1.023908,0.8959201 z"
         id="path295"
         style="stroke-width:0.30698462;stroke-dasharray:none" /></g><path
       id="path259"
       style="color:#000000;-inkscape-font-specification:'Times New Roman, ';fill:#ffffff;stroke-width:0.333;-inkscape-stroke:none;fill-opacity:1;opacity:0.5"
       d="M 22.74935 0.12304688 C 22.469723 0.12304688 22.215136 0.23562315 22.022787 0.44335938 L 22.022787 0.4453125 L 22.020834 0.4453125 C 21.826904 0.66348353 21.741537 0.97044726 21.741537 1.3398438 C 21.741537 1.6354571 21.860333 2.0783964 22.08724 2.7324219 L 22.08724 2.734375 C 22.187674 3.0189419 22.217437 3.3055533 22.263022 3.5917969 C 22.020879 3.4026021 21.778252 3.2315003 21.538412 2.9570312 L 21.536459 2.9550781 C 21.167816 2.5262941 20.857753 2.234985 20.581381 2.078125 C 20.318287 1.9288016 20.059476 1.8476563 19.80599 1.8476562 C 19.565104 1.8476562 19.339111 1.9473484 19.161459 2.125 C 18.991932 2.2945276 18.893881 2.5047918 18.893881 2.7285156 C 18.893881 3.0923792 19.081606 3.4157897 19.409506 3.65625 C 19.665362 3.8415246 20.16036 3.9771718 20.979818 4.1503906 L 20.981772 4.1503906 C 21.282882 4.2106126 21.505844 4.3114267 21.751303 4.4003906 C 21.522053 4.4768675 21.295853 4.5677126 21.059897 4.6171875 C 20.421766 4.7501315 20.020045 4.8501767 19.80599 4.9453125 C 19.516169 5.0727962 19.285775 5.2424481 19.126303 5.4550781 C 18.979449 5.6533307 18.893881 5.8606332 18.893881 6.0703125 C 18.893881 6.3029969 19.00186 6.5199024 19.184897 6.6953125 C 19.371922 6.8745454 19.612026 6.9707031 19.87435 6.9707031 C 20.091176 6.9707031 20.302786 6.90687 20.497397 6.7871094 C 20.778357 6.6195745 21.138754 6.2719477 21.62435 5.7265625 C 21.814913 5.5186745 22.060455 5.3424972 22.296225 5.1601562 C 22.281235 5.2570132 22.266663 5.4002143 22.251303 5.4667969 C 22.214913 5.6184417 22.11958 5.9251907 21.9681 6.3730469 C 21.812078 6.8275444 21.731772 7.2244292 21.731772 7.5683594 C 21.731772 7.8978103 21.805812 8.1677928 21.987631 8.3496094 L 21.989584 8.3515625 C 22.212513 8.56706 22.482721 8.6855469 22.770834 8.6855469 C 23.004836 8.6855469 23.220474 8.564955 23.39974 8.3632812 L 23.401693 8.3613281 L 23.401693 8.359375 C 23.585857 8.1445171 23.68099 7.8758719 23.68099 7.578125 C 23.68099 7.2473794 23.555406 6.7171584 23.315756 5.9316406 C 23.232186 5.6650209 23.215428 5.4381453 23.179037 5.1992188 C 23.40266 5.3863267 23.643553 5.568396 23.81185 5.7695312 L 23.813803 5.7714844 C 24.228889 6.260215 24.552877 6.5800517 24.827475 6.7402344 L 24.829428 6.7402344 C 25.090842 6.8886043 25.34029 6.9707031 25.577475 6.9707031 C 25.816509 6.9707031 26.038084 6.8753279 26.210287 6.703125 C 26.387549 6.5319785 26.487631 6.3096865 26.487631 6.0703125 C 26.487631 5.7592678 26.328362 5.4714866 26.054037 5.2324219 C 25.755932 4.9667581 25.217555 4.7939121 24.407553 4.6464844 L 24.4056 4.6464844 C 24.111972 4.5915744 23.90442 4.4926627 23.669272 4.4082031 C 23.908756 4.3298052 24.118185 4.2470235 24.423178 4.1796875 C 25.304374 3.9860915 25.851977 3.8126291 26.132162 3.5664062 C 26.376706 3.3515045 26.516928 3.0812227 26.516928 2.7871094 C 26.516928 2.5418856 26.418618 2.3167476 26.239584 2.1445312 C 26.065586 1.9636699 25.833413 1.8671875 25.577475 1.8671875 C 25.321681 1.8671875 25.069026 1.9401756 24.829428 2.078125 C 24.56764 2.2288515 24.238448 2.5585636 23.784506 3.0859375 C 23.609517 3.2845477 23.396379 3.4307187 23.194662 3.5917969 C 23.248782 3.2792504 23.289562 2.9743714 23.403647 2.6230469 L 23.403647 2.6210938 C 23.584565 2.0779294 23.68099 1.6506408 23.68099 1.3203125 C 23.68099 0.96422376 23.598371 0.6663423 23.413412 0.44921875 C 23.237457 0.24260397 23.002634 0.12304688 22.74935 0.12304688 z M 15.085287 12.300781 C 14.742563 12.300781 14.430822 12.425589 14.184897 12.664062 L 14.184897 12.666016 L 14.182943 12.666016 C 13.942566 12.906392 13.817709 13.217895 13.817709 13.566406 C 13.817709 13.90913 13.942516 14.220871 14.18099 14.466797 L 14.182943 14.46875 L 14.184897 14.470703 C 14.430822 14.709176 14.742563 14.833984 15.085287 14.833984 C 15.42801 14.833984 15.736146 14.708515 15.975912 14.46875 C 16.221432 14.223229 16.352865 13.910336 16.352865 13.566406 C 16.352865 13.224591 16.226162 12.917228 15.987631 12.677734 C 15.747714 12.43032 15.43498 12.300781 15.085287 12.300781 z " /></g></svg>
