<?xml version="1.0" encoding="UTF-8" standalone="no"?>
<svg
   inkscape:export-ydpi="96"
   inkscape:export-xdpi="96"
   inkscape:export-filename="/media/klapeto/Αρχεία/WindowsXP Theme/Vectors/RASTER/code-typedef.png"
   sodipodi:docname="regex-hovered.svg"
   inkscape:version="1.2.2 (b0a8486541, 2022-12-01)"
   id="svg8"
   version="1.1"
   viewBox="0 0 16 16"
   height="16"
   width="16"
   xml:space="preserve"
   xmlns:inkscape="http://www.inkscape.org/namespaces/inkscape"
   xmlns:sodipodi="http://sodipodi.sourceforge.net/DTD/sodipodi-0.dtd"
   xmlns="http://www.w3.org/2000/svg"
   xmlns:svg="http://www.w3.org/2000/svg"
   xmlns:rdf="http://www.w3.org/1999/02/22-rdf-syntax-ns#"
   xmlns:cc="http://creativecommons.org/ns#"
   xmlns:dc="http://purl.org/dc/elements/1.1/"><defs
     id="defs2" /><sodipodi:namedview
     inkscape:snap-global="true"
     inkscape:bbox-paths="false"
     fit-margin-bottom="0"
     fit-margin-right="0"
     fit-margin-left="0"
     fit-margin-top="0"
     inkscape:bbox-nodes="true"
     inkscape:snap-bbox="true"
     inkscape:window-maximized="1"
     inkscape:window-y="0"
     inkscape:window-x="1280"
     inkscape:window-height="2061"
     inkscape:window-width="3840"
     units="px"
     showgrid="true"
     inkscape:document-rotation="0"
     inkscape:current-layer="layer1"
     inkscape:document-units="px"
     inkscape:cy="5.0234375"
     inkscape:cx="4.984375"
     inkscape:zoom="64"
     inkscape:pageshadow="2"
     inkscape:pageopacity="0.0"
     borderopacity="1.0"
     bordercolor="#666666"
     pagecolor="#ffffff"
     id="base"
     showguides="false"
     inkscape:pagecheckerboard="0"
     inkscape:snap-grids="true"
     inkscape:showpageshadow="2"
     inkscape:deskcolor="#d1d1d1"><inkscape:grid
       originy="0"
       originx="0"
       id="grid1504"
       type="xygrid"
       spacingy="1"
       spacingx="1"
       units="px"
       visible="true" /><inkscape:grid
       spacingy="0.5"
       spacingx="0.5"
       id="grid966"
       type="xygrid"
       originx="0"
       originy="0"
       units="px"
       visible="true" /></sodipodi:namedview><metadata
     id="metadata5"><rdf:RDF><cc:Work
         rdf:about=""><dc:format>image/svg+xml</dc:format><dc:type
           rdf:resource="http://purl.org/dc/dcmitype/StillImage" /></cc:Work></rdf:RDF></metadata><g
     transform="translate(-12.567709)"
     id="layer1"
     inkscape:groupmode="layer"
     inkscape:label="Layer 1"><g
       aria-label=".*"
       id="text349"
       style="font-size:18.7229px;line-height:1.25;font-family:'Times New Roman';-inkscape-font-specification:'Times New Roman, ';fill:#0099ff;stroke:#003399;stroke-width:0.30698462;stroke-dasharray:none"
       transform="matrix(1.0847449,0,0,1.0847449,-1.7091045,-0.63375261)"><path
         d="m 15.48235,12.076807 q 0.429676,0 0.722222,0.301687 0.292545,0.292545 0.292545,0.713079 0,0.420534 -0.301687,0.722222 -0.292546,0.292545 -0.71308,0.292545 -0.420534,0 -0.722221,-0.292545 -0.292545,-0.301688 -0.292545,-0.722222 0,-0.429676 0.292545,-0.722221 0.301687,-0.292545 0.722221,-0.292545 z"
         id="path293"
         style="stroke-width:0.30698462;stroke-dasharray:none" /><path
         d="m 22.338881,4.3060718 q -0.03657,-0.6308009 -0.255977,-1.2524597 -0.310829,-0.89592 -0.310829,-1.2341755 0,-0.4753862 0.219409,-0.7222213 0.228551,-0.24683512 0.557664,-0.24683512 0.283403,0 0.49367,0.24683512 0.210267,0.2468351 0.210267,0.7039372 0,0.4113918 -0.246835,1.1518972 -0.237693,0.7313633 -0.292545,1.3530221 0.502812,-0.3199715 0.905062,-0.7770735 0.621659,-0.7222213 0.923346,-0.8959201 0.301688,-0.1736988 0.612517,-0.1736988 0.301687,0 0.502812,0.210267 0.210267,0.2011249 0.210267,0.4845282 0,0.3382555 -0.301687,0.6033747 -0.301688,0.2651192 -1.508437,0.5302384 -0.703937,0.1554147 -1.170181,0.3565396 0.475386,0.2468351 1.161039,0.3748237 1.106187,0.2011249 1.444442,0.5028122 0.347398,0.3016874 0.347398,0.658227 0,0.2742612 -0.210267,0.4753861 -0.201125,0.201125 -0.475386,0.201125 -0.274261,0 -0.612517,-0.1919829 -0.329113,-0.1919829 -0.89592,-0.8593519 -0.374824,-0.44796 -0.932488,-0.8410678 0.01828,0.5210964 0.210267,1.1336131 0.329113,1.0787609 0.329113,1.4718687 0,0.3656816 -0.219409,0.6216588 -0.219409,0.2468351 -0.466244,0.2468351 -0.338255,0 -0.612516,-0.2651192 -0.191983,-0.1919829 -0.191983,-0.6125168 0,-0.438818 0.210267,-1.0513347 0.210267,-0.6216588 0.265119,-0.8502098 0.05485,-0.2376931 0.100562,-0.6947952 -0.53938,0.3565396 -0.94163,0.7953576 -0.667369,0.7496474 -1.005625,0.9507723 -0.237693,0.1462727 -0.49367,0.1462727 -0.310829,0 -0.530238,-0.210267 -0.219409,-0.2102669 -0.219409,-0.4662441 0,-0.228551 0.182841,-0.4753861 0.191983,-0.2559772 0.566806,-0.4205339 0.246835,-0.1097045 1.124471,-0.2925454 0.566807,-0.1188465 1.106187,-0.3473975 -0.49367,-0.2468351 -1.179323,-0.3839657 -1.124471,-0.2376931 -1.38959,-0.429676 -0.411392,-0.3016873 -0.411392,-0.7313633 0,-0.2468351 0.201125,-0.44796 0.210267,-0.2102669 0.484528,-0.2102669 0.301687,0 0.639943,0.1919828 0.338255,0.1919829 0.841068,0.7770735 0.502812,0.5759486 1.023908,0.8959201 z"
         id="path295"
         style="stroke-width:0.30698462;stroke-dasharray:none" /></g></g></svg>
