<?xml version="1.0" encoding="UTF-8" standalone="no"?>
<svg
   width="16"
   height="16"
   viewBox="0 0 16 16"
   version="1.1"
   id="svg8"
   inkscape:version="1.2.2 (b0a8486541, 2022-12-01)"
   sodipodi:docname="rename.svg"
   inkscape:export-filename="/media/klapeto/Αρχεία/WindowsXP Theme/Vectors/RASTER/edit-rename.png"
   inkscape:export-xdpi="96"
   inkscape:export-ydpi="96"
   xmlns:inkscape="http://www.inkscape.org/namespaces/inkscape"
   xmlns:sodipodi="http://sodipodi.sourceforge.net/DTD/sodipodi-0.dtd"
   xmlns:xlink="http://www.w3.org/1999/xlink"
   xmlns="http://www.w3.org/2000/svg"
   xmlns:svg="http://www.w3.org/2000/svg"
   xmlns:rdf="http://www.w3.org/1999/02/22-rdf-syntax-ns#"
   xmlns:cc="http://creativecommons.org/ns#"
   xmlns:dc="http://purl.org/dc/elements/1.1/">
  <defs
     id="defs2">
    <linearGradient
       id="linearGradient924"
       inkscape:collect="always">
      <stop
         id="stop920"
         offset="0"
         style="stop-color:#9a9aff;stop-opacity:1" />
      <stop
         style="stop-color:#cacaff;stop-opacity:1"
         offset="0.5"
         id="stop928" />
      <stop
         id="stop922"
         offset="1"
         style="stop-color:#fcfcff;stop-opacity:1" />
    </linearGradient>
    <linearGradient
       gradientTransform="matrix(1.2324543,0,0,1.2324543,-21.42563,-20.359454)"
       gradientUnits="userSpaceOnUse"
       y2="89.033745"
       x2="99.478172"
       y1="100.01395"
       x1="103.44692"
       id="linearGradient926"
       xlink:href="#linearGradient924"
       inkscape:collect="always" />
    <filter
       inkscape:collect="always"
       style="color-interpolation-filters:sRGB"
       id="filter889"
       x="-0.14667572"
       y="-0.14732573"
       width="1.2933514"
       height="1.2946515">
      <feGaussianBlur
         inkscape:collect="always"
         stdDeviation="0.91672382"
         id="feGaussianBlur891" />
    </filter>
  </defs>
  <sodipodi:namedview
     showguides="false"
     id="base"
     pagecolor="#ffffff"
     bordercolor="#666666"
     borderopacity="1.0"
     inkscape:pageopacity="0.0"
     inkscape:pageshadow="2"
     inkscape:zoom="27.546875"
     inkscape:cx="-9.8922292"
     inkscape:cy="18.78616"
     inkscape:document-units="px"
     inkscape:current-layer="layer1"
     inkscape:document-rotation="0"
     showgrid="true"
     units="px"
     fit-margin-top="2"
     fit-margin-left="2"
     fit-margin-bottom="2"
     fit-margin-right="2"
     inkscape:window-width="3840"
     inkscape:window-height="2061"
     inkscape:window-x="1280"
     inkscape:window-y="0"
     inkscape:window-maximized="1"
     inkscape:snap-bbox="true"
     inkscape:snap-smooth-nodes="true"
     inkscape:pagecheckerboard="0"
     scale-x="1"
     inkscape:showpageshadow="2"
     inkscape:deskcolor="#d1d1d1">
    <inkscape:grid
       type="xygrid"
       id="grid847"
       originx="0"
       originy="0" />
    <inkscape:grid
       spacingy="0.5"
       spacingx="0.5"
       id="grid873"
       type="xygrid"
       originx="0"
       originy="0" />
  </sodipodi:namedview>
  <metadata
     id="metadata5">
    <rdf:RDF>
      <cc:Work
         rdf:about="">
        <dc:format>image/svg+xml</dc:format>
        <dc:type
           rdf:resource="http://purl.org/dc/dcmitype/StillImage" />
      </cc:Work>
    </rdf:RDF>
  </metadata>
  <g
     inkscape:label="Layer 1"
     inkscape:groupmode="layer"
     id="layer1"
     transform="translate(-91.93755,-88.636871)">
    <path
       id="path220"
       style="color:#000000;fill:#000000;fill-opacity:1;fill-rule:evenodd;stroke-linecap:square;-inkscape-stroke:none;filter:url(#filter889);opacity:0.75"
       d="m 100.97661,89.169871 v 1.957031 l 0.26563,0.08203 c 0.24253,0.07275 0.55328,0.103414 0.90625,0.189453 0.30047,0.07324 0.5718,0.198437 0.7832,0.333984 v 0.404297 H 92.43755 v 0.5 9.500004 h 8.57227 l -0.0332,0.01 v 1.95703 h 0.375 c 1.39449,0 2.12372,-0.439 2.76953,-0.91406 0.63724,0.50199 1.39325,0.91406 2.77344,0.91406 h 0.375 v -1.95703 l -0.0332,-0.01 h 0.20117 V 92.136668 h -2.125 v -0.439453 c 0.0998,-0.07997 0.35947,-0.214608 0.69922,-0.292969 0.37779,-0.08714 0.72953,-0.117115 0.99023,-0.195312 l 0.26758,-0.08203 v -1.957031 h -0.375 c -1.22985,0 -2.042,0.348354 -2.76172,0.912109 -0.6115,-0.492382 -1.26161,-0.912109 -2.78125,-0.912109 z" />
    <g
       transform="matrix(1.2324544,0,0,1.2324544,-21.284335,-19.777938)"
       id="g932"
       style="stroke-width:0.405695;stroke-dasharray:none">
      <rect
         style="fill:#ffffff;fill-opacity:1;fill-rule:evenodd;stroke:#000000;stroke-width:0.811389;stroke-linecap:square;stroke-miterlimit:4;stroke-dasharray:none;stroke-opacity:1"
         id="rect873"
         width="11.359454"
         height="7.302496"
         x="92.27269"
         y="90.80645" />
      <rect
         style="fill:#0236b0;fill-opacity:1;fill-rule:evenodd;stroke:none;stroke-width:0.405695;stroke-linecap:square;stroke-miterlimit:4;stroke-dasharray:none;stroke-opacity:1"
         id="rect875"
         width="5.6797299"
         height="4.8683395"
         x="93.489769"
         y="92.023537" />
    </g>
    <path
       id="path1736"
       style="color:#000000;fill:#808080;fill-opacity:1;stroke-width:0.750002;-inkscape-stroke:none"
       d="m 102.99614,92.636871 c 0.0197,0.01185 0.0418,0.02311 0.0606,0.03516 v 7.953139 l 2.38086,0.0117 v -8.000005 z"
       sodipodi:nodetypes="cccccc" />
    <path
       style="fill:url(#linearGradient926);fill-opacity:1;stroke:#212121;stroke-width:0.75;stroke-linecap:butt;stroke-linejoin:miter;stroke-dasharray:none;stroke-opacity:1"
       d="m 102.80711,91.001004 c -0.57074,-0.471212 -1.62879,-0.553874 -1.95652,-0.652175 v -1.304346 c 1.63044,0 2.09116,0.408114 2.77174,0.97826 0.72948,-0.647955 1.4674,-0.97826 2.77174,-0.97826 v 1.304346 c -0.32773,0.0983 -1.59789,0.190346 -1.95652,0.652175 v 10.271736 c 0.55497,0.46661 1.62879,0.55387 1.95652,0.65217 v 1.30435 c -1.46739,0 -2.11665,-0.415 -2.77174,-0.97826 -0.69214,0.52982 -1.30434,0.97826 -2.77174,0.97826 v -1.30435 c 0.32773,-0.0983 1.34683,-0.22744 1.95652,-0.65217 z"
       id="path877-6"
       sodipodi:nodetypes="ccccccccccccccc" />
  </g>
</svg>
