<?xml version="1.0" encoding="UTF-8" standalone="no"?>
<svg
   inkscape:export-ydpi="36"
   inkscape:export-xdpi="36"
   inkscape:export-filename="edit-reset.png"
   sodipodi:docname="reset.svg"
   inkscape:version="1.2.2 (b0a8486541, 2022-12-01)"
   id="svg8"
   version="1.1"
   viewBox="0 0 16 16"
   height="16"
   width="16"
   xmlns:inkscape="http://www.inkscape.org/namespaces/inkscape"
   xmlns:sodipodi="http://sodipodi.sourceforge.net/DTD/sodipodi-0.dtd"
   xmlns:xlink="http://www.w3.org/1999/xlink"
   xmlns="http://www.w3.org/2000/svg"
   xmlns:svg="http://www.w3.org/2000/svg"
   xmlns:rdf="http://www.w3.org/1999/02/22-rdf-syntax-ns#"
   xmlns:cc="http://creativecommons.org/ns#"
   xmlns:dc="http://purl.org/dc/elements/1.1/">
  <defs
     id="defs2">
    <linearGradient
       id="linearGradient893"
       inkscape:collect="always">
      <stop
         id="stop889"
         offset="0"
         style="stop-color:#0066cc;stop-opacity:1" />
      <stop
         id="stop891"
         offset="1"
         style="stop-color:#99ccff;stop-opacity:1" />
    </linearGradient>
    <linearGradient
       inkscape:collect="always"
       xlink:href="#linearGradient893"
       id="linearGradient895-5"
       x1="104.39191"
       y1="92.037056"
       x2="102.40325"
       y2="89.703362"
       gradientUnits="userSpaceOnUse"
       gradientTransform="matrix(2.2342676,0,0,2.2342934,-134.73851,-110.26395)" />
    <filter
       inkscape:collect="always"
       style="color-interpolation-filters:sRGB"
       id="filter905"
       x="-0.15000631"
       y="-0.14411142"
       width="1.3000126"
       height="1.2882228">
      <feGaussianBlur
         inkscape:collect="always"
         stdDeviation="0.88114038"
         id="feGaussianBlur907" />
    </filter>
  </defs>
  <sodipodi:namedview
     inkscape:snap-smooth-nodes="true"
     inkscape:snap-bbox="true"
     inkscape:window-maximized="1"
     inkscape:window-y="0"
     inkscape:window-x="1280"
     inkscape:window-height="2061"
     inkscape:window-width="3840"
     fit-margin-right="2"
     fit-margin-bottom="2"
     fit-margin-left="2"
     fit-margin-top="2"
     units="px"
     showgrid="false"
     inkscape:document-rotation="0"
     inkscape:current-layer="layer1"
     inkscape:document-units="px"
     inkscape:cy="13.157422"
     inkscape:cx="7.4169253"
     inkscape:zoom="49.211767"
     inkscape:pageshadow="2"
     inkscape:pageopacity="0.0"
     borderopacity="1.0"
     bordercolor="#666666"
     pagecolor="#ffffff"
     id="base"
     inkscape:pagecheckerboard="0"
     scale-x="1"
     inkscape:showpageshadow="2"
     inkscape:deskcolor="#d1d1d1">
    <inkscape:grid
       originy="0"
       originx="0"
       id="grid847"
       type="xygrid"
       spacingy="1"
       spacingx="1"
       units="px"
       visible="false" />
    <inkscape:grid
       type="xygrid"
       id="grid873"
       spacingx="0.13229167"
       spacingy="0.13229167"
       originx="0"
       originy="0"
       units="px"
       visible="false" />
  </sodipodi:namedview>
  <metadata
     id="metadata5">
    <rdf:RDF>
      <cc:Work
         rdf:about="">
        <dc:format>image/svg+xml</dc:format>
        <dc:type
           rdf:resource="http://purl.org/dc/dcmitype/StillImage" />
      </cc:Work>
    </rdf:RDF>
  </metadata>
  <g
     transform="translate(-91.93755,-88.636871)"
     id="layer1"
     inkscape:groupmode="layer"
     inkscape:label="Layer 1">
    <path
       id="path344"
       style="color:#000000;opacity:0.75;fill:#000000;fill-opacity:1;stroke-width:0.5;-inkscape-stroke:none;filter:url(#filter905)"
       d="m 94.67149,89.801054 c -0.726457,0 -1.283203,0.659237 -1.283203,1.431641 v 4.876953 c 0,0.726471 0.65925,1.285156 1.431641,1.285156 h 4.728515 c 0.772397,0 1.433587,-0.55868 1.433587,-1.285156 0,-0.726467 -0.66119,-1.285156 -1.433587,-1.285156 h -1.1875 c 0.905041,-0.985265 2.128327,-2.160156 3.552727,-2.160156 0.48025,0 1.17532,0.346994 1.73047,1.015625 0.55515,0.668631 0.97852,1.644148 0.97852,2.863281 0,1.138587 -0.1546,2.379843 -0.67969,3.318359 -0.52509,0.938519 -1.38889,1.597339 -2.95508,1.638669 -0.97408,0.0257 -1.877183,-0.21673 -2.519525,-0.5664 -0.642342,-0.34966 -0.984375,-0.80247 -0.984375,-1.113284 0,-0.445023 -0.187337,-0.813507 -0.464844,-1.052735 -0.277506,-0.239227 -0.635165,-0.357604 -0.992187,-0.359375 -0.357024,-0.0018 -0.720979,0.113358 -1,0.363282 -0.279022,0.249924 -0.460938,0.637 -0.460938,1.115234 0,1.202598 0.812884,2.344128 2.007813,3.187498 1.194929,0.84337 2.791625,1.40039 4.451166,1.40039 2.26857,0 3.91104,-1.10906 4.95313,-2.64844 1.04207,-1.53937 1.50781,-3.500906 1.50781,-5.283198 0,-1.672691 -0.53052,-3.333866 -1.49219,-4.595703 -0.91059,-1.194814 -2.24426,-1.977029 -3.83008,-2.082031 v -0.0625 l -0.24609,-0.002 c -2.657144,-0.03588 -4.734333,2.101878 -5.960934,3.472657 v -2.041016 c 0,-0.772396 -0.558684,-1.431641 -1.285156,-1.431641 z" />
    <path
       id="path887-2"
       style="fill:url(#linearGradient895-5);fill-opacity:1;stroke:#003399;stroke-width:0.5;stroke-linecap:butt;stroke-linejoin:miter;stroke-miterlimit:4;stroke-dasharray:none;stroke-opacity:1"
       d="m 101.41439,89.550303 c 3.25104,0.04391 5.3224,3.253332 5.3224,6.492129 0,3.476638 -1.8347,7.681458 -6.21174,7.681458 -3.206723,0 -6.207856,-2.16217 -6.207856,-4.33742 0,-1.672038 2.416762,-1.581061 2.416762,-0.067 0,0.93028 1.722804,1.98457 3.760834,1.93075 3.274,-0.0864 3.87739,-2.887312 3.87739,-5.207828 0,-2.554127 -1.77549,-4.1275 -2.95779,-4.1275 -1.77924,0 -3.263172,1.628493 -4.169212,2.660214 H 99.0498 c 0.65499,0 1.1823,0.461392 1.1823,1.034517 0,0.573136 -0.52731,1.034528 -1.1823,1.034528 h -4.729207 c -0.654988,0 -1.182282,-0.461392 -1.182282,-1.034528 v -4.877045 c 0,-0.655002 0.461399,-1.182315 1.034509,-1.182315 0.573131,0 1.034499,0.527313 1.034499,1.182315 v 2.62788 c 1.133468,-1.294829 3.45572,-3.847351 6.207071,-3.810195 z"
       sodipodi:nodetypes="sssssssscsssssssscs" />
  </g>
</svg>
