<?xml version="1.0" encoding="UTF-8" standalone="no"?>
<svg
   inkscape:export-ydpi="96"
   inkscape:export-xdpi="96"
   inkscape:export-filename="my-pictures.png"
   width="16"
   height="16"
   viewBox="0 0 16 16"
   version="1.1"
   id="svg8"
   inkscape:version="1.3.2 (1:1.3.2+202311252150+091e20ef0f)"
   sodipodi:docname="resources.svg"
   xml:space="preserve"
   xmlns:inkscape="http://www.inkscape.org/namespaces/inkscape"
   xmlns:sodipodi="http://sodipodi.sourceforge.net/DTD/sodipodi-0.dtd"
   xmlns:xlink="http://www.w3.org/1999/xlink"
   xmlns="http://www.w3.org/2000/svg"
   xmlns:svg="http://www.w3.org/2000/svg"
   xmlns:rdf="http://www.w3.org/1999/02/22-rdf-syntax-ns#"
   xmlns:cc="http://creativecommons.org/ns#"
   xmlns:dc="http://purl.org/dc/elements/1.1/"><defs
     id="defs2"><linearGradient
       id="linearGradient43"
       x1="-3.9323001"
       x2="-3.9323001"
       y1="12.5"
       y2="4.5"
       gradientUnits="userSpaceOnUse"
       gradientTransform="translate(18.000009,1)"><stop
         stop-color="#fc6"
         offset="0"
         id="stop40"
         style="stop-color:#000000;stop-opacity:1;" /><stop
         stop-color="#ffd46e"
         offset=".5"
         id="stop42" /><stop
         stop-color="#ff9"
         offset="1"
         id="stop43" /></linearGradient><linearGradient
       id="linearGradient38"
       x1="-3.9323001"
       x2="-3.9323001"
       y1="12.5"
       y2="4.5"
       gradientUnits="userSpaceOnUse"
       gradientTransform="translate(18.000009,1)"><stop
         stop-color="#fc6"
         offset="0"
         id="stop35"
         style="stop-color:#000000;stop-opacity:1;" /><stop
         stop-color="#ffd46e"
         offset=".5"
         id="stop37" /><stop
         stop-color="#ff9"
         offset="1"
         id="stop38" /></linearGradient><linearGradient
       id="linearGradient12"
       x1="-819.20001"
       x2="819.20001"
       gradientTransform="matrix(0,0.011456,0.0096573,0,-11.256,16.014)"
       gradientUnits="userSpaceOnUse"><stop
         stop-color="#999"
         offset="0"
         id="stop11"
         style="stop-color:#b8babe;stop-opacity:1" /><stop
         stop-color="#666"
         offset="1"
         id="stop12"
         style="stop-color:#807a6d;stop-opacity:1" /></linearGradient><linearGradient
       id="gradient5-1"
       x1="-819.20001"
       x2="819.20001"
       gradientTransform="matrix(0,0.011456,0.0096573,0,-11.256,16.014)"
       gradientUnits="userSpaceOnUse"><stop
         stop-color="#999"
         offset="0"
         id="stop19" /><stop
         stop-color="#666"
         offset="1"
         id="stop21" /></linearGradient><linearGradient
       id="gradient6-0"
       x1="-819.20001"
       x2="819.20001"
       gradientTransform="matrix(0,0.010769,0.0091017,0,-11.23,16.014)"
       gradientUnits="userSpaceOnUse"><stop
         stop-color="#fff"
         offset="0"
         id="stop24" /><stop
         stop-color="#ddd"
         offset="1"
         id="stop26"
         style="stop-color:#fbfafc;stop-opacity:1" /></linearGradient><linearGradient
       id="gradient7-6-6"
       x1="-819.20001"
       x2="819.20001"
       gradientTransform="matrix(3.4623535e-4,0.00548771,0.00559117,6.4246743e-4,22.94339,5.9822669)"
       gradientUnits="userSpaceOnUse"><stop
         stop-color="#09f"
         offset="0"
         id="stop29" /><stop
         stop-color="#9cf"
         offset="1"
         id="stop31" /></linearGradient><linearGradient
       id="gradient8-7-2"
       x1="-819.20001"
       x2="819.20001"
       gradientTransform="matrix(-0.00346245,0.00317275,0.00306848,0.00315022,-11.181548,22.165968)"
       gradientUnits="userSpaceOnUse"><stop
         stop-color="#ccc"
         offset="0"
         id="stop34" /><stop
         stop-color="#ccf"
         offset="1"
         id="stop36" /></linearGradient><linearGradient
       id="gradient9-5-8"
       x1="-819.20001"
       x2="819.20001"
       gradientTransform="matrix(-0.00380155,0.00348348,0.00389616,0.00399995,-16.575972,16.107508)"
       gradientUnits="userSpaceOnUse"><stop
         stop-color="#ccc"
         offset="0"
         id="stop39" /><stop
         stop-color="#ccf"
         offset="1"
         id="stop41" /></linearGradient><linearGradient
       id="gradient10-3-2"
       x1="-819.20001"
       x2="819.20001"
       gradientTransform="matrix(-0.00299842,0.00274755,0.00543036,0.00557502,-8.9822567,13.03167)"
       gradientUnits="userSpaceOnUse"><stop
         stop-color="#999"
         offset="0"
         id="stop44" /><stop
         stop-color="#ccc"
         offset="1"
         id="stop46" /></linearGradient><radialGradient
       id="gradient11-5-3"
       cx="0"
       cy="0"
       r="819.20001"
       gradientTransform="matrix(0.00322467,0.00360908,-0.00285097,0.00284799,21.530356,4.5136653)"
       gradientUnits="userSpaceOnUse"><stop
         stop-color="#fff"
         offset="0"
         id="stop49" /><stop
         stop-color="#fff"
         offset=".49412"
         id="stop51" /><stop
         stop-color="#cff"
         offset=".76471"
         id="stop53" /><stop
         stop-color="#cff"
         offset="1"
         id="stop55" /></radialGradient><radialGradient
       id="gradient12-2"
       cx="-283.77985"
       cy="588.15289"
       r="819.20001"
       gradientTransform="matrix(0.00372973,0.00372973,-0.00289914,0.00324135,23.54019,3.5966176)"
       gradientUnits="userSpaceOnUse"
       fx="-283.77985"
       fy="588.15289"><stop
         stop-color="#fff"
         offset="0"
         id="stop58" /><stop
         stop-color="#fff"
         offset="0.11993618"
         id="stop16"
         style="stop-color:#ffffff;stop-opacity:1;" /><stop
         stop-color="#ff9980"
         offset=".48627"
         id="stop60" /><stop
         stop-color="#f30"
         offset="1"
         id="stop62" /></radialGradient><linearGradient
       inkscape:collect="always"
       xlink:href="#gradient6-0"
       id="linearGradient4"
       x1="18.067709"
       y1="1.5"
       x2="27.567705"
       y2="13.387291"
       gradientUnits="userSpaceOnUse"
       gradientTransform="translate(0,-0.01543724)" /><linearGradient
       inkscape:collect="always"
       xlink:href="#linearGradient12"
       id="linearGradient6"
       x1="16.067709"
       y1="0.5"
       x2="27.067709"
       y2="11"
       gradientUnits="userSpaceOnUse"
       gradientTransform="translate(0,-0.01543724)" /><linearGradient
       id="linearGradient17865-3"
       x1="-3.9323001"
       x2="-3.9323001"
       y1="12.5"
       y2="4.5"
       gradientUnits="userSpaceOnUse"
       gradientTransform="translate(18.000009,1)"><stop
         stop-color="#fc6"
         offset="0"
         id="stop1-6" /><stop
         stop-color="#ffd46e"
         offset=".5"
         id="stop2-7" /><stop
         stop-color="#ff9"
         offset="1"
         id="stop3" /></linearGradient><linearGradient
       id="linearGradient38453"
       x1="-2.4017999"
       x2="-4.4418001"
       y1="7.0517998"
       y2="4.0086999"
       gradientUnits="userSpaceOnUse"
       gradientTransform="translate(18.000009,1)"><stop
         stop-color="#b07d17"
         offset="0"
         id="stop4" /><stop
         stop-color="#c93"
         offset="1"
         id="stop5" /></linearGradient><linearGradient
       id="linearGradient70029-5"
       x1="-1.4323"
       x2="-1.4323"
       y1="15.5"
       y2="11.5"
       gradientTransform="translate(22.000009,-2)"
       gradientUnits="userSpaceOnUse"><stop
         stop-color="#ffd46e"
         offset="0"
         id="stop8" /><stop
         stop-color="#ff9"
         offset="1"
         id="stop9" /></linearGradient><linearGradient
       id="linearGradient99494-3"
       x1="7.0676999"
       x2="7.0676999"
       y1="12.5"
       y2="8.5"
       gradientUnits="userSpaceOnUse"><stop
         stop-color="#d3a03a"
         offset="0"
         id="stop10" /><stop
         stop-color="#f8c55f"
         offset="1"
         id="stop11-5" /></linearGradient><linearGradient
       id="linearGradient52101"
       x1="0.067708999"
       x2="-3.9677999"
       y1="15"
       y2="11.01"
       gradientTransform="translate(22.000009,-2)"
       gradientUnits="userSpaceOnUse"><stop
         stop-color="#9a6701"
         offset="0"
         id="stop6" /><stop
         stop-color="#c5922c"
         offset="1"
         id="stop7" /></linearGradient><filter
       inkscape:collect="always"
       style="color-interpolation-filters:sRGB"
       id="filter43"
       x="-0.14699999"
       y="-0.14700001"
       width="1.294"
       height="1.294"><feGaussianBlur
         inkscape:collect="always"
         stdDeviation="0.91875005"
         id="feGaussianBlur43" /></filter></defs><sodipodi:namedview
     showguides="true"
     id="base"
     pagecolor="#ffffff"
     bordercolor="#666666"
     borderopacity="1.0"
     inkscape:pageopacity="0.0"
     inkscape:pageshadow="2"
     inkscape:zoom="27.687558"
     inkscape:cx="0.74040477"
     inkscape:cy="12.839702"
     inkscape:document-units="px"
     inkscape:current-layer="layer1"
     inkscape:document-rotation="0"
     showgrid="true"
     units="px"
     inkscape:window-width="3460"
     inkscape:window-height="1836"
     inkscape:window-x="4032"
     inkscape:window-y="61"
     inkscape:window-maximized="0"
     inkscape:snap-bbox="true"
     inkscape:bbox-nodes="true"
     fit-margin-top="0"
     fit-margin-left="0"
     fit-margin-right="0"
     fit-margin-bottom="0"
     inkscape:bbox-paths="false"
     inkscape:snap-global="true"
     inkscape:pagecheckerboard="0"
     scale-x="0.26458"
     inkscape:showpageshadow="2"
     inkscape:deskcolor="#d1d1d1"><inkscape:grid
       type="xygrid"
       id="grid1504"
       originx="0"
       originy="0"
       spacingy="1"
       spacingx="1"
       units="px"
       visible="true" /><inkscape:grid
       type="xygrid"
       id="grid1507"
       spacingx="0.5"
       spacingy="0.5"
       originx="0"
       originy="0"
       units="px"
       visible="true" /></sodipodi:namedview><metadata
     id="metadata5"><rdf:RDF><cc:Work
         rdf:about=""><dc:format>image/svg+xml</dc:format><dc:type
           rdf:resource="http://purl.org/dc/dcmitype/StillImage" /></cc:Work></rdf:RDF></metadata><g
     inkscape:label="Layer 1"
     inkscape:groupmode="layer"
     id="layer1"
     transform="translate(-12.567709)"><path
       id="path1"
       style="fill:#000000;fill-opacity:1;filter:url(#filter43);opacity:0.75"
       d="m 17.067711,0.5 v 3 h -1.5 c -0.229166,0 -0.364332,0.081476 -0.492187,0.1601562 -0.127856,0.07868 -0.244068,0.1733289 -0.363282,0.2792969 -0.238429,0.211936 -0.482464,0.4715893 -0.708984,0.7304688 C 13.550219,5.1876808 13.16732,5.6992187 13.16732,5.6992188 A 0.50005,0.50005 0 0 0 13.067711,6 v 8 c 0,0.82235 0.677651,1.5 1.5,1.5 h 11 1 c 0.82235,0 1.5,-0.67765 1.5,-1.5 V 8 a 0.50005,0.50005 0 0 0 -0.5,-0.5 h -0.5 v -7 z" /><g
       id="g1"><path
         d="m 15.067709,3.5 h 3 c 0.5,0 1.9378,2 1.9378,2 h 5.0622 v 9 h -11 c -0.554,0 -1,-0.446 -1,-1 v -8 c 0,0 1.5,-2 2,-2 z"
         fill="url(#linearGradient17865)"
         fill-rule="evenodd"
         stop-color="#000000"
         id="path13"
         style="fill:url(#linearGradient17865-3)" /><path
         d="m 13.148609,6.8971 2.0474,-2.3804 2.6693,-0.04805 1.7025,2.0314 h 5.5"
         fill="none"
         stroke="#ffffff"
         stroke-width="1px"
         id="path14" /><path
         d="m 15.067709,3.5 h 3 c 0.5,0 1.9378,2 1.9378,2 h 5.0622 v 9 h -11 c -0.554,0 -1,-0.446 -1,-1 v -8 c 0,0 1.5,-2 2,-2 z"
         fill="none"
         stop-color="#000000"
         stroke="url(#linearGradient38453)"
         stroke-linecap="round"
         stroke-linejoin="round"
         id="path15"
         style="stroke:url(#linearGradient38453)" /><rect
         x="15.067709"
         y="7.5"
         width="12"
         height="7"
         rx="1"
         ry="1"
         fill="url(#linearGradient70029)"
         fill-rule="evenodd"
         stop-color="#000000"
         id="rect15-2"
         style="fill:url(#linearGradient70029-5)" /><rect
         x="24.567709"
         y="8"
         width="1"
         height="1"
         fill="#ffe680"
         fill-rule="evenodd"
         stop-color="#000000"
         id="rect20" /><path
         style="fill:none;stroke:#ffffff;stroke-width:1px;stroke-linecap:butt;stroke-linejoin:miter;stroke-opacity:1"
         d="m 19.567709,6.5 h 5.5"
         id="path50009"
         sodipodi:nodetypes="cc" /><rect
         style="fill:#ffe680;fill-opacity:1;fill-rule:evenodd;stroke:none;stroke-width:1;stroke-linecap:round;stroke-linejoin:round;stroke-miterlimit:4;stroke-dasharray:none;stroke-opacity:1;stop-color:#000000"
         id="rect109807"
         width="1"
         height="1"
         x="24.567709"
         y="8" /><rect
         style="fill:#ffffff;fill-opacity:1;stroke:none;stroke-linecap:butt;stroke-linejoin:miter"
         id="rect1-3-6"
         width="1"
         height="1"
         x="18.567709"
         y="5" /><path
         style="fill:none;stroke:#ffffff;stroke-width:1px;stroke-linecap:butt;stroke-linejoin:miter;stroke-opacity:1"
         d="m 15.067709,8.5 h 12"
         id="path84301"
         sodipodi:nodetypes="cc" /><g
         stroke-width="1px"
         id="g19"
         transform="translate(18.000009,1)"
         style="fill:none"><path
           d="m -1.9323,7.5 v 6"
           stroke="#ffff99"
           id="path16" /><path
           d="m 8.0677,7.5 v 6"
           stroke="#ffff99"
           id="path17" /><path
           d="m -2.9323,7.5 h 12"
           stroke="#ffffff"
           id="path18" /><path
           d="m 7.0677,6.5 v 7"
           stroke="url(#linearGradient99494)"
           id="path19"
           style="stroke:url(#linearGradient99494-3)" /></g><rect
         style="opacity:0.5;mix-blend-mode:normal;fill:#bf9d40;fill-opacity:1;fill-rule:evenodd;stroke:none;stroke-width:1;stroke-linecap:round;stroke-dasharray:none;stroke-opacity:1"
         id="rect16"
         width="7.9999981"
         height="3.5"
         x="17.567709"
         y="9.5" /><rect
         style="fill:url(#linearGradient4);fill-opacity:1;fill-rule:evenodd;stroke:url(#linearGradient6);stroke-width:1;stroke-linecap:round;stroke-dasharray:none;stroke-opacity:1"
         id="rect2"
         width="9"
         height="11"
         x="17.067709"
         y="0.5" /><path
         id="rect15"
         style="opacity:0.5;mix-blend-mode:hard-light;fill:#e6c56b;fill-rule:evenodd;stroke-linecap:round"
         d="m 16.567709,7.5 h 10 V 12 h -10 z"
         sodipodi:nodetypes="ccccc" /><path
         d="m 24.567709,10 h -6 V 2 h 6"
         fill="url(#gradient7-6-6)"
         id="path96"
         style="fill:url(#gradient7-6-6);fill-rule:evenodd;stroke-width:0.26458"
         sodipodi:nodetypes="cccc" /><path
         d="m 21.677852,3.0274531 c 0,0 0.874274,0.1049472 1.459862,0.6147757 C 23.575289,4.0231917 23.98198,4.7455303 23.963849,5.5 23.960749,6.1342872 23.71672,6.8478218 23.275134,7.3002192 22.833272,7.7612357 22.165889,7.7234216 21.575022,7.8671014 20.472505,7.6275069 19.69758,7.3241915 19.284793,6.2858809 L 19.1647,5.4868121 c 0.0025,-0.6449434 0.336227,-1.2115824 0.787883,-1.662766 0.795778,-0.8394257 1.583453,-0.7903576 1.72535,-0.7966715"
         fill="url(#gradient11-5-3)"
         id="path104"
         style="fill:url(#gradient11-5-3);fill-rule:evenodd;stroke-width:0.218454"
         sodipodi:nodetypes="csccccccc" /><path
         d="m 21.713069,3.1364967 -0.145177,-0.057855 c 0.621983,-0.00144 1.16668,0.209604 1.634088,0.6331225 C 23.687223,4.1851002 24.079827,4.7864421 24.076321,5.5 L 23.479981,7.0528184 20.821526,7.5 c -1.958455,0 -2.86228,-3.9548884 0.509799,-4.4478344 m 0.09071,0.087556 0.145765,-0.06107"
         fill="url(#gradient12-2)"
         id="path106"
         style="fill:url(#gradient12-2);fill-rule:evenodd;stroke-width:0.218454"
         sodipodi:nodetypes="ccccccccc" /><path
         d="m 21.578595,3.1631972 c -0.639633,-0.00155 -1.280426,0.3057283 -1.626382,0.6609842 -0.451639,0.4511681 -0.642738,1.0073443 -0.681189,1.6441659 -0.0881,1.458277 1.285876,2.3987833 2.301817,2.366937 0.644886,-0.020216 1.250855,-0.3388232 1.624547,-0.69298 0.441624,-0.4524103 0.6242,-1.0049287 0.667054,-1.6300441 C 23.96078,4.1076084 22.631643,3.0700394 21.578618,3.1632127 Z M 19.282782,6.9613285 C 18.99868,6.5237813 18.85294,6.0268425 18.845673,5.4706318 c -0.0043,-0.7621507 0.259357,-1.4087459 0.790973,-1.9398077 0.369443,-0.3846211 0.790639,-0.6329029 1.263605,-0.744863 0.21209,-0.050205 0.43459,-0.072999 0.667501,-0.068382 0.761728,0.00552 1.410059,0.2876995 1.945055,0.8465878 0.519016,0.5410241 0.778013,1.1896374 0.776986,1.945832 -0.01105,0.7549394 -0.280009,1.395575 -0.806932,1.9219471 C 22.960655,7.9536086 22.326338,8.2153153 21.579968,8.2169963 21.156649,8.2115652 20.765831,8.1229445 20.407522,7.9511102 20.135981,7.8166033 19.884373,7.639641 19.652721,7.4202247 L 19.282782,6.961341 19.329752,6.998962 20.40754,7.9511193 19.329752,6.998962 19.282782,6.961341"
         fill="#666666"
         id="path108"
         style="fill-rule:evenodd;stroke-width:0.218454"
         sodipodi:nodetypes="cccscccccccscccscccccccc" /><path
         style="opacity:0.5;fill:none;stroke:#ffffff;stroke-width:1px;stroke-linecap:butt;stroke-linejoin:miter;stroke-opacity:1"
         d="m 15.567709,8.5 h 11.5"
         id="path2306"
         sodipodi:nodetypes="cc" /><path
         d="m 16.067709,7.5 h 11 v 6 c 0,0.554 -0.446,1 -1,1 h -10 c -0.554,0 -1,-0.446 -1,-1 v -5 c 0,-0.554 0.446,-1 1,-1 z"
         stop-color="#000000"
         stroke="url(#linearGradient52101)"
         stroke-linecap="round"
         stroke-linejoin="round"
         id="path20"
         style="fill:none;stroke:url(#linearGradient52101)" /></g></g></svg>
