<?xml version="1.0" encoding="UTF-8" standalone="no"?>
<svg
   version="1.1"
   viewBox="0 0 16 16"
   id="svg25"
   sodipodi:docname="search.svg"
   width="16"
   height="16"
   inkscape:version="1.3.2 (1:1.3.2+202311252150+091e20ef0f)"
   xmlns:inkscape="http://www.inkscape.org/namespaces/inkscape"
   xmlns:sodipodi="http://sodipodi.sourceforge.net/DTD/sodipodi-0.dtd"
   xmlns="http://www.w3.org/2000/svg"
   xmlns:svg="http://www.w3.org/2000/svg">
  <sodipodi:namedview
     id="namedview25"
     pagecolor="#ffffff"
     bordercolor="#000000"
     borderopacity="0.25"
     inkscape:showpageshadow="2"
     inkscape:pageopacity="0.0"
     inkscape:pagecheckerboard="0"
     inkscape:deskcolor="#d1d1d1"
     showgrid="true"
     inkscape:zoom="79.505319"
     inkscape:cx="10.634509"
     inkscape:cy="6.6725096"
     inkscape:window-width="3840"
     inkscape:window-height="2058"
     inkscape:window-x="3840"
     inkscape:window-y="0"
     inkscape:window-maximized="1"
     inkscape:current-layer="svg25">
    <inkscape:grid
       id="grid37"
       units="px"
       originx="0"
       originy="0"
       spacingx="1"
       spacingy="1"
       empcolor="#0099e5"
       empopacity="0.30196078"
       color="#0099e5"
       opacity="0.14901961"
       empspacing="5"
       dotted="false"
       gridanglex="30"
       gridanglez="30"
       visible="true" />
  </sodipodi:namedview>
  <defs
     id="defs15">
    <radialGradient
       id="radialGradient1007"
       cx="41.694"
       cy="24.958"
       r="14.862"
       gradientTransform="matrix(0.86771,-0.74222,0.83567,0.97695,-7.3399,31.446)"
       gradientUnits="userSpaceOnUse">
      <stop
         stop-color="#fff"
         offset="0"
         id="stop1" />
      <stop
         stop-color="#d9ffff"
         offset=".61435"
         id="stop2" />
      <stop
         stop-color="#a3d6ff"
         offset="1"
         id="stop3" />
    </radialGradient>
    <linearGradient
       id="linearGradient1038"
       x1="-33.431999"
       x2="-27.931999"
       y1="16.5"
       y2="22.5"
       gradientTransform="translate(-13,8)"
       gradientUnits="userSpaceOnUse">
      <stop
         stop-color="#ccc"
         offset="0"
         id="stop4" />
      <stop
         stop-color="#6c6c6c"
         offset=".5"
         id="stop5" />
      <stop
         stop-color="#aeaeae"
         offset="1"
         id="stop6" />
    </linearGradient>
    <linearGradient
       id="linearGradient1058"
       x1="-4.4323001"
       x2="1.5677"
       y1="32.5"
       y2="38.5"
       gradientTransform="translate(-51)"
       gradientUnits="userSpaceOnUse">
      <stop
         stop-color="#fdb562"
         offset="0"
         id="stop7" />
      <stop
         stop-color="#ffc761"
         offset=".25"
         id="stop8" />
      <stop
         stop-color="#b56a49"
         offset=".625"
         id="stop9" />
      <stop
         stop-color="#9b94c0"
         offset="1"
         id="stop10" />
    </linearGradient>
    <linearGradient
       id="linearGradient1072"
       x1="-34.931999"
       x2="-30.431999"
       y1="40.5"
       y2="45.5"
       gradientTransform="translate(-27)"
       gradientUnits="userSpaceOnUse">
      <stop
         stop-color="#ccc"
         offset="0"
         id="stop11" />
      <stop
         stop-color="#6c6c6c"
         offset=".5"
         id="stop12" />
      <stop
         stop-color="#aeaeae"
         offset="1"
         id="stop13" />
    </linearGradient>
    <linearGradient
       id="linearGradient1124"
       x1="44.314999"
       x2="27.815001"
       y1="27"
       y2="4.5"
       gradientTransform="translate(6.348)"
       gradientUnits="userSpaceOnUse">
      <stop
         stop-color="#6a6a9d"
         offset="0"
         id="stop14" />
      <stop
         stop-color="#8585b4"
         offset="1"
         id="stop15" />
    </linearGradient>
    <filter
       id="filter900"
       x="-0.12240892"
       y="-0.12335427"
       width="1.2448178"
       height="1.2467085"
       color-interpolation-filters="sRGB">
      <feGaussianBlur
         stdDeviation="12.291943"
         id="feGaussianBlur15" />
    </filter>
    <filter
       inkscape:collect="always"
       style="color-interpolation-filters:sRGB"
       id="filter50"
       x="-0.14644125"
       y="-0.14756303"
       width="1.2928825"
       height="1.2951261">
      <feGaussianBlur
         inkscape:collect="always"
         stdDeviation="0.8607952"
         id="feGaussianBlur50" />
    </filter>
  </defs>
  <path
     id="path37"
     style="fill:#000000;fill-opacity:1;stroke-width:0.317996;filter:url(#filter50);opacity:0.75"
     d="M 9.9921875,1 C 7.4454379,1 5.3789062,3.0684848 5.3789062,5.6152344 c 0,0.6338564 0.12766,1.2370569 0.359375,1.7871094 -0.027482,0.4217581 -0.036843,1.1927145 0.00781,1.5507812 -0.2435892,-0.021921 -0.5268151,-0.032147 -0.75781,0.052734 L 4.7929688,8.7949219 0.5,13.087891 0.61328125,13.201172 c -0.0870421,0.299292 -0.18603692,1.082467 0.20507813,1.476562 0.43578592,0.439132 1.11453612,0.345934 1.47851562,0.207032 l 0.1113281,0.111328 4.2929688,-4.134766 -0.09375,-0.101562 c 0.093111,-0.209299 0.09375,-0.585516 0.09375,-0.8515629 0.5420221,0.1084889 1.1874761,0.079573 1.7285156,0.048828 0.4881632,0.1759369 1.0140727,0.2714849 1.5625,0.2714849 2.5467495,0 4.6152345,-2.0665322 4.6152345,-4.6132817 C 14.607422,3.0684848 12.538937,1 9.9921875,1 Z" />
  <g
     transform="matrix(0.31799626,0,0,0.31799626,-4.1488972,0.18588051)"
     id="g24">
    <g
       transform="translate(74.979)"
       id="g19">
      <path
         d="m -45.418,20.586 c -0.11939,1.0676 -0.17708,4.1121 -0.01478,5.4135 -1.0009,-0.09007 -2.2233,-0.12586 -3,0.5 l 5.5,5.5 c 0.5,-0.5 0.5,-2 0.5,-3 1.9293,0.38616 4.3026,0.21991 6.1103,0.11684 z"
         fill="url(#linearGradient1038)"
         id="path16"
         style="fill:url(#linearGradient1038)" />
      <path
         d="m -61.432,39 c -0.23842,0.30889 -0.96444,3.5244 0.5,5 1.5241,1.5358 4,1 5,0.5 z"
         fill="url(#linearGradient1072)"
         id="path17"
         style="fill:url(#linearGradient1072)" />
      <path
         d="m -60.932,40 4,4"
         fill="none"
         stroke="#646365"
         stroke-linecap="round"
         stroke-width="1px"
         id="path18" />
      <path
         d="m -48.432,25.5 6,6.5 -13.5,13 -6,-6 z"
         fill="url(#linearGradient1058)"
         id="path19"
         style="fill:url(#linearGradient1058)" />
    </g>
    <g
       transform="translate(0.70898)"
       id="g23">
      <g
         transform="matrix(0.97562,0,0,0.97562,0.67522,0.024384)"
         id="g22">
        <circle
           cx="42.553001"
           cy="15.862"
           r="14.362"
           fill="url(#radialGradient1007)"
           fill-rule="evenodd"
           stroke="url(#linearGradient1124)"
           stroke-linecap="square"
           stroke-linejoin="round"
           stroke-width="1.025"
           id="circle19"
           style="fill:url(#radialGradient1007);stroke:url(#linearGradient1124)" />
        <path
           d="m 42.477,3.8607 a 12,12 0 0 0 -11.891,12 12,12 0 0 0 8.2653,11.403 11.51,11.51 0 0 1 -7.3699,-10.739 11.51,11.51 0 0 1 11.51,-11.51 11.51,11.51 0 0 1 11.51,11.51 11.51,11.51 0 0 1 -0.06696,1.236 12,12 0 0 0 0.15115,-1.8999 12,12 0 0 0 -12,-12 12,12 0 0 0 -0.10906,0 z"
           fill="#cafdff"
           fill-rule="evenodd"
           id="path20" />
        <g
           transform="translate(47.723)"
           id="g21">
          <circle
             cx="-10.495"
             cy="9.5625"
             r="4.4375"
             fill="none"
             stroke="#d8f7ff"
             stroke-linecap="square"
             stroke-linejoin="round"
             stroke-width="0.5"
             id="circle20" />
          <circle
             cx="-12.182"
             cy="7.75"
             r="2.75"
             fill="#ffffff"
             fill-rule="evenodd"
             id="circle21" />
        </g>
      </g>
    </g>
  </g>
</svg>
