<?xml version="1.0" encoding="UTF-8" standalone="no"?>
<svg
   inkscape:export-ydpi="96"
   inkscape:export-xdpi="96"
   inkscape:export-filename="services.png"
   width="16"
   height="16"
   viewBox="0 0 16 16"
   version="1.1"
   id="svg8"
   inkscape:version="1.2.2 (b0a8486541, 2022-12-01)"
   sodipodi:docname="services.svg"
   xmlns:inkscape="http://www.inkscape.org/namespaces/inkscape"
   xmlns:sodipodi="http://sodipodi.sourceforge.net/DTD/sodipodi-0.dtd"
   xmlns:xlink="http://www.w3.org/1999/xlink"
   xmlns="http://www.w3.org/2000/svg"
   xmlns:svg="http://www.w3.org/2000/svg"
   xmlns:rdf="http://www.w3.org/1999/02/22-rdf-syntax-ns#"
   xmlns:cc="http://creativecommons.org/ns#"
   xmlns:dc="http://purl.org/dc/elements/1.1/">
  <defs
     id="defs2">
    <linearGradient
       id="linearGradient1349"
       inkscape:collect="always">
      <stop
         id="stop1345"
         offset="0"
         style="stop-color:#287c24;stop-opacity:1" />
      <stop
         id="stop1347"
         offset="1"
         style="stop-color:#0ba007;stop-opacity:1" />
    </linearGradient>
    <linearGradient
       inkscape:collect="always"
       id="linearGradient1330">
      <stop
         style="stop-color:#8f520c;stop-opacity:1"
         offset="0"
         id="stop1326" />
      <stop
         style="stop-color:#8f520c;stop-opacity:0"
         offset="1"
         id="stop1328" />
    </linearGradient>
    <linearGradient
       inkscape:collect="always"
       id="linearGradient1047">
      <stop
         style="stop-color:#ececec;stop-opacity:1"
         offset="0"
         id="stop1043" />
      <stop
         style="stop-color:#29292d;stop-opacity:1"
         offset="1"
         id="stop1045" />
    </linearGradient>
    <linearGradient
       gradientUnits="userSpaceOnUse"
       y2="-86.140625"
       x2="-482.89648"
       y1="-86.140625"
       x1="-610.89648"
       id="linearGradient1299-3-9-8-3"
       xlink:href="#linearGradient1343-6"
       inkscape:collect="always" />
    <linearGradient
       id="linearGradient1343-6"
       inkscape:collect="always">
      <stop
         id="stop1337-7"
         offset="0"
         style="stop-color:#99ff66;stop-opacity:1" />
      <stop
         id="stop1341-5"
         offset="1"
         style="stop-color:#009900;stop-opacity:1" />
    </linearGradient>
    <linearGradient
       y2="270.01913"
       x2="-151.74518"
       y1="270.01913"
       x1="-183.65593"
       gradientTransform="matrix(0.13791328,0,0,0.13791328,57.756835,-20.802729)"
       gradientUnits="userSpaceOnUse"
       id="linearGradient1331-3"
       xlink:href="#linearGradient1349"
       inkscape:collect="always" />
    <linearGradient
       y2="83.663925"
       x2="-351.65329"
       y1="83.663925"
       x1="-383.65329"
       gradientTransform="matrix(0.13791328,0,0,0.13791328,81.480343,2.1186854)"
       gradientUnits="userSpaceOnUse"
       id="linearGradient1333-2"
       xlink:href="#linearGradient1047"
       inkscape:collect="always" />
    <linearGradient
       y2="60.823318"
       x2="-352.63574"
       y1="51.977211"
       x1="-381.32599"
       gradientTransform="matrix(0.13791328,0,0,0.13791328,81.480343,2.1186854)"
       gradientUnits="userSpaceOnUse"
       id="linearGradient1335-2"
       xlink:href="#linearGradient3"
       inkscape:collect="always" />
    <linearGradient
       id="linearGradient3"
       inkscape:collect="always">
      <stop
         id="stop1"
         offset="0"
         style="stop-color:#99ccff;stop-opacity:1" />
      <stop
         style="stop-color:#5e6b77;stop-opacity:1"
         offset="0.51075882"
         id="stop2" />
      <stop
         id="stop3"
         offset="1"
         style="stop-color:#4c4c4c;stop-opacity:1" />
    </linearGradient>
    <linearGradient
       inkscape:collect="always"
       xlink:href="#linearGradient1297-0"
       id="linearGradient1299-3-9-7"
       x1="-610.89648"
       y1="-86.140625"
       x2="-482.89648"
       y2="-86.140625"
       gradientUnits="userSpaceOnUse" />
    <linearGradient
       inkscape:collect="always"
       id="linearGradient1297-0">
      <stop
         style="stop-color:#ffcc66;stop-opacity:1"
         offset="0"
         id="stop1293-9" />
      <stop
         style="stop-color:#cc9900;stop-opacity:1"
         offset="1"
         id="stop1295-3" />
    </linearGradient>
    <linearGradient
       inkscape:collect="always"
       xlink:href="#linearGradient1330"
       id="linearGradient1195-3-3-6"
       gradientUnits="userSpaceOnUse"
       gradientTransform="matrix(0.14876762,0,0,0.14876762,68.328459,-12.738233)"
       x1="-183.65593"
       y1="270.01913"
       x2="-151.74518"
       y2="270.01913" />
    <linearGradient
       inkscape:collect="always"
       xlink:href="#linearGradient1047"
       id="linearGradient1097-9-2"
       gradientUnits="userSpaceOnUse"
       gradientTransform="matrix(0.14876762,0,0,0.14876762,93.919103,11.98719)"
       x1="-383.65329"
       y1="83.663925"
       x2="-351.65329"
       y2="83.663925" />
    <linearGradient
       inkscape:collect="always"
       xlink:href="#linearGradient3"
       id="linearGradient1099-8-6"
       gradientUnits="userSpaceOnUse"
       gradientTransform="matrix(0.14876762,0,0,0.14876762,93.919103,11.98719)"
       x1="-381.32599"
       y1="51.977211"
       x2="-352.63574"
       y2="60.823318" />
    <filter
       inkscape:collect="always"
       style="color-interpolation-filters:sRGB"
       id="filter1001"
       x="-0.15093185"
       y="-0.1432678"
       width="1.3018637"
       height="1.2865356">
      <feGaussianBlur
         inkscape:collect="always"
         stdDeviation="0.89542376"
         id="feGaussianBlur1003" />
    </filter>
  </defs>
  <sodipodi:namedview
     inkscape:guide-bbox="true"
     showguides="false"
     id="base"
     pagecolor="#ffffff"
     bordercolor="#666666"
     borderopacity="1.0"
     inkscape:pageopacity="0.0"
     inkscape:pageshadow="2"
     inkscape:zoom="26.480802"
     inkscape:cx="6.9861932"
     inkscape:cy="26.339837"
     inkscape:document-units="px"
     inkscape:current-layer="layer1"
     inkscape:document-rotation="0"
     showgrid="false"
     units="px"
     inkscape:window-width="3840"
     inkscape:window-height="2061"
     inkscape:window-x="1280"
     inkscape:window-y="0"
     inkscape:window-maximized="1"
     inkscape:snap-bbox="true"
     inkscape:bbox-nodes="true"
     fit-margin-top="0"
     fit-margin-left="0"
     fit-margin-right="0"
     fit-margin-bottom="0"
     inkscape:bbox-paths="false"
     inkscape:pagecheckerboard="0"
     inkscape:showpageshadow="2"
     inkscape:deskcolor="#d1d1d1">
    <inkscape:grid
       type="xygrid"
       id="grid1504"
       originx="0"
       originy="0"
       spacingy="1"
       spacingx="1"
       units="px"
       visible="false" />
    <inkscape:grid
       type="xygrid"
       id="grid942"
       spacingx="0.5"
       spacingy="0.5"
       originx="0"
       originy="0"
       units="px"
       visible="false" />
  </sodipodi:namedview>
  <metadata
     id="metadata5">
    <rdf:RDF>
      <cc:Work
         rdf:about="">
        <dc:format>image/svg+xml</dc:format>
        <dc:type
           rdf:resource="http://purl.org/dc/dcmitype/StillImage" />
      </cc:Work>
    </rdf:RDF>
  </metadata>
  <g
     inkscape:label="Layer 1"
     inkscape:groupmode="layer"
     id="layer1"
     transform="translate(-12.567709)">
    <path
       id="path426"
       style="fill:#000000;fill-opacity:1;fill-rule:evenodd;stroke:none;stroke-width:0.0826957;stroke-linecap:round;stroke-linejoin:round;filter:url(#filter1001);opacity:0.75"
       d="M 18.333071,0.50000049 A 1.1725309,0.80611485 0 0 0 17.161196,1.3066411 v 0.671875 c -0.181688,0.049516 -0.35733,0.1097139 -0.525391,0.1816406 l -0.873046,-0.453125 c -0.164388,-0.085229 -0.47923,-0.030854 -0.751954,0.1914063 -0.189811,0.1546894 -0.295146,0.3326344 -0.294921,0.4667969 -8e-6,-1.1e-6 -0.002,0 -0.002,0 0,0 -0.07909,0.9045055 0.06445,1.0214844 l 0.265625,0.3105468 c -0.02694,0.073819 -0.0504,0.1490794 -0.06836,0.2246094 l -0.970703,0.1113281 c -0.20166,0.023241 -0.367187,0.2540361 -0.367187,0.5683594 v 0.875 c 0,0.3143232 0.164193,0.5683594 0.367187,0.5683594 l 1.132813,0.1171875 -0.359375,0.5292968 c -0.04364,0.035563 -0.0624,0.085928 -0.0625,0.1445313 h -0.002 l 0.02149,0.7226563 c 0.0122,0.1637525 0.0027,0.3988336 0.27539,0.6210937 0.272724,0.2222601 0.591856,0.2824911 0.751954,0.1894531 l 1.501953,-0.7636718 c 0.09017,0.026586 0.113377,0.0496 0.205078,0.070312 l 0.05859,0.4433594 c 0,0.01034 0.0027,0.021148 0.0059,0.03125 1.71e-4,5.531e-4 -1.8e-4,0.0014 0,0.00195 l 0.109375,0.8144531 c 0.03406,0.1657148 0.297905,0.3320312 0.683594,0.3320312 0.310628,0 0.533159,-0.1000345 0.628906,-0.2226562 0.0094,0.019792 0.01896,0.034908 0.03125,0.044922 l 0.289062,0.3359374 c -0.02914,0.079774 -0.05481,0.1605611 -0.07422,0.2421876 L 18.153384,9.820313 c -0.217531,0.02507 -0.396485,0.272266 -0.396485,0.611328 v 0.945312 c 0,0.339062 0.177514,0.611328 0.396485,0.611328 l 1.222656,0.126953 -0.388672,0.572266 c -0.04694,0.03825 -0.06617,0.09327 -0.06641,0.15625 h -0.002 l 0.02344,0.779297 c 0.01316,0.176641 0.0027,0.430169 0.296875,0.669922 0.294188,0.239753 0.637848,0.305439 0.810547,0.205078 l 1.619141,-0.824219 c 0.09734,0.0287 0.123566,0.05382 0.222656,0.07617 l 0.0625,0.476562 c 0,0.01307 0.0032,0.02635 0.0078,0.03906 l 0.117188,0.876953 c 0.0368,0.178762 0.322297,0.357427 0.738341,0.357427 0.416045,0 0.688999,-0.164323 0.730469,-0.337891 l 0.136719,-0.921875 c 0.0025,-0.0062 0.0044,-0.01326 0.0059,-0.01953 l 0.07617,-0.492187 c 0.07574,-0.01832 0.09237,-0.02937 0.171875,-0.05274 l 1.644531,0.822266 c 0.172844,0.100111 0.516359,0.03468 0.810547,-0.205078 0.294187,-0.239753 0.280829,-0.402572 0.306641,-0.660157 l 0.01563,-0.789062 -0.002,-0.002 c -6.9e-4,-0.06213 -0.02191,-0.116445 -0.06836,-0.154297 l -0.431641,-0.527344 c 0.008,-0.01455 0.01777,-0.02832 0.02539,-0.04297 l 1.242188,-0.128907 c 0.217807,-0.02253 0.394531,-0.272266 0.394531,-0.611328 v -0.945312 c 0,-0.339062 -0.175562,-0.6113281 -0.394531,-0.611328 L 26.43268,9.6972661 C 26.41241,9.6124841 26.38336,9.5280704 26.3526,9.445313 l 0.292969,-0.3242187 c 0.154836,-0.1261856 0.07031,-1.0996094 0.07031,-1.0996094 h -0.002 C 26.714483,7.8767007 26.598639,7.6827109 26.393618,7.5156255 26.09943,7.2758724 25.7648,7.2276516 25.583071,7.3105474 L 24.575259,7.7714849 C 24.417884,7.7073962 24.25499,7.6516876 24.086977,7.6054693 V 6.8789067 A 1.2648139,0.86955941 0 0 0 22.823305,6.007813 1.2648139,0.86955941 0 0 0 22.754945,6.011723 C 22.90656,5.936014 23.018617,5.734828 23.018617,5.4765667 v -0.875 c 0,-0.3143233 -0.164193,-0.5683595 -0.367188,-0.5683594 L 21.678774,3.9199224 c -0.01876,-0.078485 -0.04381,-0.1558076 -0.07227,-0.2324219 l 0.271484,-0.3007812 c 0.143539,-0.1169789 0.06445,-1.0214844 0.06445,-1.0214844 0,0 -0.0019,-1.2e-6 -0.002,0 2.8e-4,-0.1341625 -0.107009,-0.3121075 -0.29682,-0.4667969 -0.272724,-0.2222603 -0.581531,-0.2682539 -0.75,-0.1914063 L 19.958071,2.1347661 C 19.812445,2.0754621 19.662353,2.0252212 19.506899,1.9824224 V 1.3066411 A 1.1725309,0.80611485 0 0 0 18.333071,0.50000049 Z M 22.329165,6.0781255 A 1.2648139,0.86955941 0 0 0 21.702212,6.476563 l -0.22461,-0.2734375 c 0.0075,-0.013752 0.01623,-0.027165 0.02344,-0.041016 z" />
    <g
       id="g1"
       transform="matrix(0.53137134,0,0,0.53137134,1.4803523,-4.4893789)">
      <g
         style="fill:#893500;fill-opacity:1"
         transform="matrix(0.13791329,0,0,0.11239461,124.69894,-4.9949388)"
         id="g1245-9-2-5-2">
        <path
           sodipodi:nodetypes="scccccccccscccccsccccsccccscccccscccccccccs"
           transform="matrix(1,0,0,1.2270454,-134.20708,293.9699)"
           d="m -546.89648,-126.34375 c -5.263,0 -8.87813,1.90411 -9.5,4.07422 l -3.30274,11.52734 c -3.59629,0.7696 -7.05494,1.86084 -10.30078,3.25 l -11.89844,-6.16797 c -2.24319,-1.163 -14.31566,-2.97869 -14.31566,-2.97869 0,0 -1.07857,12.33165 0.88012,13.92791 l 7.57226,8.822268 c -2.35934,3.26057 -4.00389,6.782428 -4.87109,10.431641 l -18.26367,-2.683595 V -74.1875 c 0,4.289165 2.23,7.742188 5,7.742188 l 15.70703,1.628906 c 1.05474,2.025193 2.36192,3.971898 3.90429,5.814453 l -9.92894,3.359552 0.30186,9.869399 c 0.16643,2.234521 0.0384,5.435417 3.7599,8.468314 3.7215,3.032898 8.06925,3.861367 10.2539,2.591797 l 20.49336,-10.416015 c 1.24105,0.365927 1.5471,0.665963 2.82571,0.950775 l 2.35365,17.625755 c 0.46475,2.261297 4.06624,4.523079 9.32924,4.523079 5.263,0 8.71658,-2.084329 9.24117,-4.279986 l 2.66731,-18.104079 c 1.07842,-0.250842 1.2219,-0.394958 2.27298,-0.703826 l 20.82049,10.404297 c 2.18649,1.266401 6.53045,0.441101 10.25195,-2.591797 3.7215,-3.032897 3.53872,-5.087231 3.86524,-8.345703 l 0.19726,-9.992187 -7.41211,-6.779297 c 0.50305,-0.786171 0.96627,-1.586218 1.38867,-2.398437 l 15.70704,-1.625 c 2.7553,-0.284986 5,-3.453023 5,-7.742188 v -11.953126 l -18.26954,2.654298 c -0.89322,-3.736703 -2.60147,-7.338601 -5.05664,-10.66211 l 7.76172,-8.562502 c 1.95869,-1.59626 0.88012,-13.92791 0.88012,-13.92791 0,0 -12.01483,1.93005 -14.31371,2.97869 l -12.74609,5.81446 c -2.83106,-1.15346 -5.81525,-2.08361 -8.9043,-2.77539 l -3.85156,-11.64844 c 0,-2.25746 -4.237,-4.07422 -9.5,-4.07422 z"
           style="opacity:1;fill:#006600;fill-opacity:1;fill-rule:evenodd;stroke:none;stroke-width:1.12844;stroke-linecap:round;stroke-linejoin:round"
           id="path1237-3-9-5-0" />
      </g>
      <g
         id="g1401-4-1-8-0-3-4-2"
         transform="matrix(0.13791329,0,0,0.11239461,124.69894,-6.6435361)">
        <path
           sodipodi:nodetypes="sccccsccccsccccsccccscccssccccsccccsccccs"
           transform="matrix(1,0,0,1.2270454,-134.20708,308.63784)"
           d="m -546.89648,-138.29883 c -5.263,0 -8.87813,1.90607 -9.5,4.07617 l -3.30274,11.52735 c -3.59629,0.7696 -7.05494,1.86084 -10.30078,3.25 l -11.89844,-6.16992 c -2.24319,-1.16301 -6.5324,-0.43915 -10.2539,2.59375 -3.72151,3.03289 -5.14033,6.7592 -3.18164,8.35546 l 7.57226,8.82422 c -2.35908,3.25996 -4.00362,6.781149 -4.87109,10.429691 l -13.26367,1.529297 c -2.75179,0.317135 -5,3.453022 -5,7.742187 0,4.289165 2.23,7.742187 5,7.742187 l 15.70898,1.628907 c 1.05412,2.025139 2.36064,3.971843 3.90234,5.814453 l -9.04882,13.339844 c -1.95869,1.596261 -0.53987,5.322571 3.18164,8.355468 3.7215,3.032898 8.06925,3.86332 10.2539,2.59375 l 17.92578,-10.417968 c 1.24101,0.366587 2.5026,0.693061 3.78125,0.978515 l 2.38508,17.975383 c 0,2.257456 5.64685,4.147664 10.90985,4.147664 5.263,0 10.52778,-2.025354 11.05237,-4.221011 l 2.78942,-18.027036 c 1.0778,-0.251518 2.14296,-0.532304 3.19336,-0.841797 l 17.9668,10.40625 c 2.18649,1.266401 6.53045,0.439148 10.25195,-2.59375 3.7215,-3.032897 5.14033,-6.759207 3.18164,-8.355468 l -10.01953,-12.230469 c 1.97034,-2.164459 3.6064,-4.48849 4.87695,-6.927735 l 15.70704,-1.625 c 2.7553,-0.284985 5,-3.453022 5,-7.742187 0,-4.289165 -2.23,-7.742188 -5,-7.742187 l -13.26954,-1.556641 c -0.89322,-3.736702 -2.60147,-7.338597 -5.05664,-10.662107 l 7.76172,-8.56446 c 1.95869,-1.59626 0.53986,-5.32257 -3.18164,-8.35546 -3.7215,-3.0329 -7.95307,-3.64239 -10.25195,-2.59375 l -12.74805,5.81445 c -2.83054,-1.1527 -5.81407,-2.08219 -8.90234,-2.77344 l -3.85156,-11.64844 c 0,-2.25745 -4.237,-4.07617 -9.5,-4.07617 z"
           style="opacity:1;fill:url(#linearGradient1299-3-9-8-3);fill-opacity:1;fill-rule:evenodd;stroke:none;stroke-width:1.12844;stroke-linecap:round;stroke-linejoin:round"
           id="rect1061-6-20-7-7-9-6-1-7-3" />
      </g>
      <path
         style="fill:url(#linearGradient1331-3);fill-opacity:1;stroke:none;stroke-width:0.137913px;stroke-linecap:butt;stroke-linejoin:miter;stroke-opacity:1"
         d="m 30.693062,17.814442 c 1.206811,0 1.506076,-0.04132 2.181256,-0.5407 l 3.808836,-0.0098 c 0.750875,-0.0077 -0.323579,-2.205367 -0.900694,-2.205367 h -2.897601 z"
         id="path1324-7-2-2-9-6-7"
         sodipodi:nodetypes="cccccc" />
      <path
         style="fill:url(#linearGradient1333-2);fill-opacity:1;stroke:none;stroke-width:0.137913px;stroke-linecap:butt;stroke-linejoin:miter;stroke-opacity:1"
         d="m 28.569457,9.9657115 v 5.8838095 c 0,2.595326 4.413225,2.64563 4.413225,-0.0033 V 9.9657202"
         id="path932-9-2-6-3-1-4-5-5"
         sodipodi:nodetypes="cccc" />
      <ellipse
         style="fill:url(#linearGradient1335-2);fill-opacity:1;fill-rule:evenodd;stroke:none;stroke-width:0.181971;stroke-linecap:round;stroke-linejoin:round"
         id="path930-1-9-8-1-8-7-6-9"
         cx="30.77607"
         cy="9.9657116"
         ry="1.5170462"
         rx="2.2066131" />
      <g
         id="g1245-9-2-2"
         transform="matrix(0.14876762,0,0,0.12124052,140.53918,4.3136944)"
         style="fill:#893500;fill-opacity:1">
        <path
           id="path1237-3-9-2"
           style="opacity:1;fill:#990000;fill-opacity:1;fill-rule:evenodd;stroke:none;stroke-width:1.12844;stroke-linecap:round;stroke-linejoin:round"
           d="m -546.89648,-126.34375 c -5.263,0 -8.87813,1.90411 -9.5,4.07422 l -3.30274,11.52734 c -3.59629,0.7696 -7.05494,1.86084 -10.30078,3.25 l -11.89844,-6.16797 c -2.24319,-1.163 -14.31566,-2.97869 -14.31566,-2.97869 0,0 -1.07857,12.33165 0.88012,13.92791 l 7.57226,8.822268 c -2.35934,3.26057 -4.00389,6.782428 -4.87109,10.431641 l -18.26367,-2.683595 V -74.1875 c 0,4.289165 2.23,7.742188 5,7.742188 l 15.70703,1.628906 c 1.05474,2.025193 2.36192,3.971898 3.90429,5.814453 l -9.92894,3.359552 0.30186,9.869399 c 0.16643,2.234521 0.0384,5.435417 3.7599,8.468314 3.7215,3.032898 8.06925,3.861367 10.2539,2.591797 l 20.49336,-10.416015 c 1.24105,0.365927 1.5471,0.665963 2.82571,0.950775 l 2.35365,17.625755 c 0.46475,2.261297 4.06624,4.523079 9.32924,4.523079 5.263,0 8.71658,-2.084329 9.24117,-4.279986 l 2.66731,-18.104079 c 1.07842,-0.250842 1.2219,-0.394958 2.27298,-0.703826 l 20.82049,10.404297 c 2.18649,1.266401 6.53045,0.441101 10.25195,-2.591797 3.7215,-3.032897 3.53872,-5.087231 3.86524,-8.345703 l 0.19726,-9.992187 -7.41211,-6.779297 c 0.50305,-0.786171 0.96627,-1.586218 1.38867,-2.398437 l 15.70704,-1.625 c 2.7553,-0.284986 5,-3.453023 5,-7.742188 v -11.953126 l -18.26954,2.654298 c -0.89322,-3.736703 -2.60147,-7.338601 -5.05664,-10.66211 l 7.76172,-8.562502 c 1.95869,-1.59626 0.88012,-13.92791 0.88012,-13.92791 0,0 -12.01483,1.93005 -14.31371,2.97869 l -12.74609,5.81446 c -2.83106,-1.15346 -5.81525,-2.08361 -8.9043,-2.77539 l -3.85156,-11.64844 c 0,-2.25746 -4.237,-4.07422 -9.5,-4.07422 z"
           transform="matrix(1,0,0,1.2270454,-134.20708,293.9699)"
           sodipodi:nodetypes="scccccccccscccccsccccsccccscccccscccccccccs" />
      </g>
      <g
         transform="matrix(0.14876762,0,0,0.12124052,140.53918,2.5353458)"
         id="g1401-4-1-8-0-3-8">
        <path
           id="rect1061-6-20-7-7-9-6-1-9"
           style="opacity:1;fill:url(#linearGradient1299-3-9-7);fill-opacity:1;fill-rule:evenodd;stroke:none;stroke-width:1.12844;stroke-linecap:round;stroke-linejoin:round"
           d="m -546.89648,-138.29883 c -5.263,0 -8.87813,1.90607 -9.5,4.07617 l -3.30274,11.52735 c -3.59629,0.7696 -7.05494,1.86084 -10.30078,3.25 l -11.89844,-6.16992 c -2.24319,-1.16301 -6.5324,-0.43915 -10.2539,2.59375 -3.72151,3.03289 -5.14033,6.7592 -3.18164,8.35546 l 7.57226,8.82422 c -2.35908,3.25996 -4.00362,6.781149 -4.87109,10.429691 l -13.26367,1.529297 c -2.75179,0.317135 -5,3.453022 -5,7.742187 0,4.289165 2.23,7.742187 5,7.742187 l 15.70898,1.628907 c 1.05412,2.025139 2.36064,3.971843 3.90234,5.814453 l -9.04882,13.339844 c -1.95869,1.596261 -0.53987,5.322571 3.18164,8.355468 3.7215,3.032898 8.06925,3.86332 10.2539,2.59375 l 17.92578,-10.417968 c 1.24101,0.366587 2.5026,0.693061 3.78125,0.978515 l 2.38508,17.975383 c 0,2.257456 5.64685,4.147664 10.90985,4.147664 5.263,0 10.52778,-2.025354 11.05237,-4.221011 l 2.78942,-18.027036 c 1.0778,-0.251518 2.14296,-0.532304 3.19336,-0.841797 l 17.9668,10.40625 c 2.18649,1.266401 6.53045,0.439148 10.25195,-2.59375 3.7215,-3.032897 5.14033,-6.759207 3.18164,-8.355468 l -10.01953,-12.230469 c 1.97034,-2.164459 3.6064,-4.48849 4.87695,-6.927735 l 15.70704,-1.625 c 2.7553,-0.284985 5,-3.453022 5,-7.742187 0,-4.289165 -2.23,-7.742188 -5,-7.742187 l -13.26954,-1.556641 c -0.89322,-3.736702 -2.60147,-7.338597 -5.05664,-10.662107 l 7.76172,-8.56446 c 1.95869,-1.59626 0.53986,-5.32257 -3.18164,-8.35546 -3.7215,-3.0329 -7.95307,-3.64239 -10.25195,-2.59375 l -12.74805,5.81445 c -2.83054,-1.1527 -5.81407,-2.08219 -8.90234,-2.77344 l -3.85156,-11.64844 c 0,-2.25745 -4.237,-4.07617 -9.5,-4.07617 z"
           transform="matrix(1,0,0,1.2270454,-134.20708,308.63784)"
           sodipodi:nodetypes="sccccsccccsccccsccccscccssccccsccccsccccs" />
      </g>
      <path
         sodipodi:nodetypes="cccccc"
         id="path1324-7-2-2-9-7"
         d="m 39.134657,28.918266 c 1.301792,0 1.62461,-0.04457 2.352929,-0.583255 l 4.108608,-0.01056 c 0.809971,-0.0083 -0.349046,-2.378938 -0.971584,-2.378938 h -3.125653 z"
         style="fill:url(#linearGradient1195-3-3-6);fill-opacity:1;stroke:none;stroke-width:0.148768px;stroke-linecap:butt;stroke-linejoin:miter;stroke-opacity:1" />
      <path
         sodipodi:nodetypes="cccc"
         id="path932-9-2-6-3-1-4-3"
         d="m 36.843915,20.451809 v 6.346889 c 0,2.799589 4.760564,2.853852 4.760564,-0.0036 V 20.45182"
         style="fill:url(#linearGradient1097-9-2);fill-opacity:1;stroke:none;stroke-width:0.148768px;stroke-linecap:butt;stroke-linejoin:miter;stroke-opacity:1" />
      <ellipse
         rx="2.3802824"
         ry="1.636444"
         cy="20.451809"
         cx="39.224197"
         id="path930-1-9-8-1-8-7-61"
         style="fill:url(#linearGradient1099-8-6);fill-opacity:1;fill-rule:evenodd;stroke:none;stroke-width:0.196293;stroke-linecap:round;stroke-linejoin:round" />
    </g>
  </g>
</svg>
