<?xml version="1.0" encoding="UTF-8" standalone="no"?>
<svg
   inkscape:export-ydpi="96"
   inkscape:export-xdpi="96"
   inkscape:export-filename="/home/klapeto/Folder-closed.png"
   width="16"
   height="16"
   viewBox="0 0 16 16"
   version="1.1"
   id="svg8"
   inkscape:version="1.3.2 (1:1.3.2+202311252150+091e20ef0f)"
   sodipodi:docname="service-folder.svg"
   xml:space="preserve"
   xmlns:inkscape="http://www.inkscape.org/namespaces/inkscape"
   xmlns:sodipodi="http://sodipodi.sourceforge.net/DTD/sodipodi-0.dtd"
   xmlns:xlink="http://www.w3.org/1999/xlink"
   xmlns="http://www.w3.org/2000/svg"
   xmlns:svg="http://www.w3.org/2000/svg"
   xmlns:rdf="http://www.w3.org/1999/02/22-rdf-syntax-ns#"
   xmlns:cc="http://creativecommons.org/ns#"
   xmlns:dc="http://purl.org/dc/elements/1.1/"><defs
     id="defs2"><linearGradient
       inkscape:collect="always"
       id="linearGradient99492"><stop
         style="stop-color:#d3a03a;stop-opacity:1"
         offset="0"
         id="stop99488" /><stop
         style="stop-color:#f8c55f;stop-opacity:1"
         offset="1"
         id="stop99490" /></linearGradient><linearGradient
       inkscape:collect="always"
       id="linearGradient70027"><stop
         style="stop-color:#ffd46e;stop-opacity:1"
         offset="0"
         id="stop70023" /><stop
         style="stop-color:#ffff99;stop-opacity:1"
         offset="1"
         id="stop70025" /></linearGradient><linearGradient
       inkscape:collect="always"
       id="linearGradient52099"><stop
         style="stop-color:#9a6701;stop-opacity:1"
         offset="0"
         id="stop52095" /><stop
         style="stop-color:#c5922c;stop-opacity:1"
         offset="1"
         id="stop52097" /></linearGradient><linearGradient
       inkscape:collect="always"
       id="linearGradient38451"><stop
         style="stop-color:#b07d17;stop-opacity:1"
         offset="0"
         id="stop38447" /><stop
         style="stop-color:#cc9933;stop-opacity:1"
         offset="1"
         id="stop38449" /></linearGradient><linearGradient
       inkscape:collect="always"
       id="linearGradient17863"><stop
         style="stop-color:#ffcc66;stop-opacity:1"
         offset="0"
         id="stop17859" /><stop
         style="stop-color:#ffd46e;stop-opacity:1"
         offset="0.5"
         id="stop30484" /><stop
         style="stop-color:#ffff99;stop-opacity:1"
         offset="1"
         id="stop17861" /></linearGradient><linearGradient
       inkscape:collect="always"
       xlink:href="#linearGradient17863"
       id="linearGradient17865"
       x1="-3.932291"
       y1="12.5"
       x2="-3.932291"
       y2="4.5"
       gradientUnits="userSpaceOnUse" /><linearGradient
       inkscape:collect="always"
       xlink:href="#linearGradient38451"
       id="linearGradient38453"
       x1="-2.4017735"
       y1="7.0517826"
       x2="-4.4417763"
       y2="4.0086713"
       gradientUnits="userSpaceOnUse" /><linearGradient
       inkscape:collect="always"
       xlink:href="#linearGradient52099"
       id="linearGradient52101"
       x1="0.067708999"
       y1="15"
       x2="-3.9678185"
       y2="11.01023"
       gradientUnits="userSpaceOnUse"
       gradientTransform="translate(4,-3)" /><linearGradient
       inkscape:collect="always"
       xlink:href="#linearGradient70027"
       id="linearGradient70029"
       x1="-1.432291"
       y1="15.5"
       x2="-1.432291"
       y2="11.5"
       gradientUnits="userSpaceOnUse"
       gradientTransform="translate(4,-3)" /><linearGradient
       inkscape:collect="always"
       xlink:href="#linearGradient99492"
       id="linearGradient99494"
       x1="7.067709"
       y1="12.5"
       x2="7.067709"
       y2="8.5"
       gradientUnits="userSpaceOnUse" /><filter
       inkscape:collect="always"
       style="color-interpolation-filters:sRGB"
       id="filter12"
       x="-0.13229999"
       y="-0.16537501"
       width="1.2646"
       height="1.33075"><feGaussianBlur
         inkscape:collect="always"
         stdDeviation="0.82687505"
         id="feGaussianBlur12" /></filter><linearGradient
       id="linearGradient1349"
       inkscape:collect="always"><stop
         id="stop1345"
         offset="0"
         style="stop-color:#287c24;stop-opacity:1" /><stop
         id="stop1347"
         offset="1"
         style="stop-color:#0ba007;stop-opacity:1" /></linearGradient><linearGradient
       inkscape:collect="always"
       id="linearGradient1330"><stop
         style="stop-color:#8f520c;stop-opacity:1"
         offset="0"
         id="stop1326" /><stop
         style="stop-color:#8f520c;stop-opacity:0"
         offset="1"
         id="stop1328" /></linearGradient><linearGradient
       inkscape:collect="always"
       id="linearGradient1047"><stop
         style="stop-color:#ececec;stop-opacity:1"
         offset="0"
         id="stop1043" /><stop
         style="stop-color:#29292d;stop-opacity:1"
         offset="1"
         id="stop1045" /></linearGradient><linearGradient
       gradientUnits="userSpaceOnUse"
       y2="-86.140625"
       x2="-482.89648"
       y1="-86.140625"
       x1="-610.89648"
       id="linearGradient1299-3-9-8-3"
       xlink:href="#linearGradient1343-6"
       inkscape:collect="always" /><linearGradient
       id="linearGradient1343-6"
       inkscape:collect="always"><stop
         id="stop1337-7"
         offset="0"
         style="stop-color:#99ff66;stop-opacity:1" /><stop
         id="stop1341-5"
         offset="1"
         style="stop-color:#009900;stop-opacity:1" /></linearGradient><linearGradient
       y2="270.01913"
       x2="-151.74518"
       y1="270.01913"
       x1="-183.65593"
       gradientTransform="matrix(0.13791328,0,0,0.13791328,57.756835,-20.802729)"
       gradientUnits="userSpaceOnUse"
       id="linearGradient1331-3"
       xlink:href="#linearGradient1349"
       inkscape:collect="always" /><linearGradient
       y2="83.663925"
       x2="-351.65329"
       y1="83.663925"
       x1="-383.65329"
       gradientTransform="matrix(0.13791328,0,0,0.13791328,81.480343,2.1186854)"
       gradientUnits="userSpaceOnUse"
       id="linearGradient1333-2"
       xlink:href="#linearGradient1047"
       inkscape:collect="always" /><linearGradient
       y2="60.823318"
       x2="-352.63574"
       y1="51.977211"
       x1="-381.32599"
       gradientTransform="matrix(0.13791328,0,0,0.13791328,81.480343,2.1186854)"
       gradientUnits="userSpaceOnUse"
       id="linearGradient1335-2"
       xlink:href="#linearGradient3"
       inkscape:collect="always" /><linearGradient
       id="linearGradient3"
       inkscape:collect="always"><stop
         id="stop1"
         offset="0"
         style="stop-color:#99ccff;stop-opacity:1" /><stop
         style="stop-color:#5e6b77;stop-opacity:1"
         offset="0.51075882"
         id="stop2" /><stop
         id="stop3"
         offset="1"
         style="stop-color:#4c4c4c;stop-opacity:1" /></linearGradient><linearGradient
       inkscape:collect="always"
       xlink:href="#linearGradient1297-0"
       id="linearGradient1299-3-9-7"
       x1="-610.89648"
       y1="-86.140625"
       x2="-482.89648"
       y2="-86.140625"
       gradientUnits="userSpaceOnUse" /><linearGradient
       inkscape:collect="always"
       id="linearGradient1297-0"><stop
         style="stop-color:#ffcc66;stop-opacity:1"
         offset="0"
         id="stop1293-9" /><stop
         style="stop-color:#cc9900;stop-opacity:1"
         offset="1"
         id="stop1295-3" /></linearGradient><linearGradient
       inkscape:collect="always"
       xlink:href="#linearGradient1330"
       id="linearGradient1195-3-3-6"
       gradientUnits="userSpaceOnUse"
       gradientTransform="matrix(0.14876762,0,0,0.14876762,68.328459,-12.738233)"
       x1="-183.65593"
       y1="270.01913"
       x2="-151.74518"
       y2="270.01913" /><linearGradient
       inkscape:collect="always"
       xlink:href="#linearGradient1047"
       id="linearGradient1097-9-2"
       gradientUnits="userSpaceOnUse"
       gradientTransform="matrix(0.14876762,0,0,0.14876762,93.919103,11.98719)"
       x1="-383.65329"
       y1="83.663925"
       x2="-351.65329"
       y2="83.663925" /><linearGradient
       inkscape:collect="always"
       xlink:href="#linearGradient3"
       id="linearGradient1099-8-6"
       gradientUnits="userSpaceOnUse"
       gradientTransform="matrix(0.14876762,0,0,0.14876762,93.919103,11.98719)"
       x1="-381.32599"
       y1="51.977211"
       x2="-352.63574"
       y2="60.823318" /><filter
       inkscape:collect="always"
       style="color-interpolation-filters:sRGB"
       id="filter16"
       x="-0.15093209"
       y="-0.14326758"
       width="1.3018642"
       height="1.2865352"><feGaussianBlur
         inkscape:collect="always"
         stdDeviation="0.47755844"
         id="feGaussianBlur16" /></filter></defs><sodipodi:namedview
     showguides="false"
     id="base"
     pagecolor="#ffffff"
     bordercolor="#666666"
     borderopacity="1.0"
     inkscape:pageopacity="0.0"
     inkscape:pageshadow="2"
     inkscape:zoom="45.254834"
     inkscape:cx="-7.0158251"
     inkscape:cy="3.9885242"
     inkscape:document-units="px"
     inkscape:current-layer="layer1"
     inkscape:document-rotation="0"
     showgrid="false"
     units="px"
     inkscape:window-width="3840"
     inkscape:window-height="2058"
     inkscape:window-x="0"
     inkscape:window-y="0"
     inkscape:window-maximized="1"
     inkscape:snap-bbox="true"
     inkscape:bbox-nodes="true"
     fit-margin-top="0"
     fit-margin-left="0"
     fit-margin-right="0"
     fit-margin-bottom="0"
     inkscape:bbox-paths="false"
     inkscape:snap-global="true"
     inkscape:pagecheckerboard="0"
     scale-x="0.26458"
     inkscape:showpageshadow="2"
     inkscape:deskcolor="#d1d1d1"><inkscape:grid
       type="xygrid"
       id="grid1504"
       originx="0"
       originy="0"
       spacingy="1"
       spacingx="1"
       units="px"
       visible="false" /><inkscape:grid
       type="xygrid"
       id="grid1507"
       spacingx="0.5"
       spacingy="0.5"
       originx="0"
       originy="0"
       units="px"
       visible="false" /></sodipodi:namedview><metadata
     id="metadata5"><rdf:RDF><cc:Work
         rdf:about=""><dc:format>image/svg+xml</dc:format><dc:type
           rdf:resource="http://purl.org/dc/dcmitype/StillImage" /></cc:Work></rdf:RDF></metadata><g
     inkscape:label="Layer 1"
     inkscape:groupmode="layer"
     id="layer1"
     transform="translate(-12.567709)"><path
       id="path1"
       style="fill:#000000;fill-opacity:1;fill-rule:evenodd;stroke:none;stroke-linecap:round;stroke-linejoin:round;stop-color:#000000;filter:url(#filter12);opacity:0.75"
       d="m 15.567711,2.5 c -0.229166,0 -0.364332,0.081476 -0.492187,0.1601562 -0.127856,0.07868 -0.244068,0.1733289 -0.363282,0.2792969 -0.238429,0.211936 -0.482464,0.4715893 -0.708984,0.7304688 C 13.550219,4.1876808 13.16732,4.6992187 13.16732,4.6992188 A 0.50005,0.50005 0 0 0 13.067711,5 v 8 c 0,0.82235 0.677651,1.5 1.5,1.5 h 11 1 c 0.82235,0 1.5,-0.67765 1.5,-1.5 V 7 a 0.50005,0.50005 0 0 0 -0.5,-0.5 h -1.5 V 5 a 0.50005,0.50005 0 0 0 -0.5,-0.5 H 20.747399 C 20.638244,4.3509539 20.453648,4.0910919 20.10482,3.6777344 19.886001,3.4184356 19.650424,3.1564563 19.41732,2.9433594 19.300767,2.8368109 19.18694,2.7418148 19.059899,2.6621094 18.932857,2.5824039 18.796878,2.5 18.567711,2.5 Z" /><g
       id="g118660"
       transform="translate(18)"><g
         id="g51229"><path
           id="path50157"
           style="opacity:1;fill:url(#linearGradient17865);fill-opacity:1;fill-rule:evenodd;stroke:none;stroke-linecap:round;stroke-linejoin:round;stop-color:#000000"
           d="m -2.932291,2.5 h 2.99999997 c 0.5,0 1.93777903,2 1.93777903,2 h 5.062221 v 9 h -11 c -0.554,0 -1,-0.446 -1,-1 v -8 c 0,0 1.5,-2 2,-2 z"
           sodipodi:nodetypes="cccccsscc" /><path
           style="fill:none;stroke:#ffffff;stroke-width:1px;stroke-linecap:butt;stroke-linejoin:miter;stroke-opacity:1"
           d="M -4.8514149,5.8970732 -2.804,3.5166649 -0.13474153,3.4686151 1.567709,5.5 h 5.5"
           id="path50009"
           sodipodi:nodetypes="ccccc" /><path
           id="rect1090"
           style="opacity:1;fill:none;fill-opacity:1;fill-rule:evenodd;stroke:url(#linearGradient38453);stroke-linecap:round;stroke-linejoin:round;stop-color:#000000"
           d="m -2.932291,2.5 h 2.99999997 c 0.50000003,0 1.93777903,2 1.93777903,2 h 5.062221 v 9 h -11 c -0.554,0 -1,-0.446 -1,-1 v -8 c 0,0 1.5,-2 2,-2 z"
           sodipodi:nodetypes="cccccsscc" /></g><rect
         style="opacity:1;fill:url(#linearGradient70029);fill-opacity:1;fill-rule:evenodd;stroke:none;stroke-width:1;stroke-linecap:round;stroke-linejoin:round;stroke-miterlimit:4;stroke-dasharray:none;stroke-opacity:1;stop-color:#000000"
         id="rect51881"
         width="12"
         height="7"
         x="-2.932291"
         y="6.5"
         rx="1"
         ry="1" /><path
         style="fill:none;fill-opacity:1;stroke:#ffff99;stroke-width:1px;stroke-linecap:butt;stroke-linejoin:miter;stroke-opacity:1"
         d="m -1.932291,7.5 v 6"
         id="path90149" /><path
         style="fill:none;fill-opacity:1;stroke:#ffff99;stroke-width:1px;stroke-linecap:butt;stroke-linejoin:miter;stroke-opacity:1"
         d="m 8.067709,7.5 v 6"
         id="path90149-3" /><path
         style="fill:none;stroke:#ffffff;stroke-width:1px;stroke-linecap:butt;stroke-linejoin:miter;stroke-opacity:1"
         d="m -2.932291,7.5 h 12"
         id="path84301"
         sodipodi:nodetypes="cc" /><path
         style="fill:none;stroke:url(#linearGradient99494);stroke-width:1px;stroke-linecap:butt;stroke-linejoin:miter;stroke-opacity:1"
         d="m 7.067709,6.5 v 7"
         id="path99486" /><path
         id="rect83870"
         style="opacity:1;fill:none;fill-rule:evenodd;stroke:url(#linearGradient52101);stroke-linecap:round;stroke-linejoin:round;stop-color:#000000"
         d="m -1.932291,6.5 h 11 v 6 c 0,0.554 -0.446,1 -1,1 h -10 c -0.554,0 -1,-0.446 -1,-1 v -5 c 0,-0.554 0.446,-1 1,-1 z"
         sodipodi:nodetypes="scssssss" /><rect
         style="opacity:1;fill:#ffe680;fill-opacity:1;fill-rule:evenodd;stroke:none;stroke-width:1;stroke-linecap:round;stroke-linejoin:round;stroke-miterlimit:4;stroke-dasharray:none;stroke-opacity:1;stop-color:#000000"
         id="rect109807"
         width="1"
         height="1"
         x="6.567709"
         y="7" /></g><path
       id="path2"
       style="fill:#000000;fill-opacity:1;fill-rule:evenodd;stroke:none;stroke-width:0.0441043;stroke-linecap:round;stroke-linejoin:round;filter:url(#filter16);opacity:0.75"
       d="m 23.571615,7.979 a 0.62534982,0.42992795 0 0 0 -0.625,0.4296875 v 0.359375 c -0.09685,0.026402 -0.191659,0.05736 -0.28125,0.095703 L 22.200522,8.6235313 c -0.08767,-0.045455 -0.254939,-0.016976 -0.400391,0.1015625 -0.101817,0.082977 -0.158994,0.1783145 -0.158203,0.25 0,0 -0.04336,0.48058 0.0332,0.5429687 l 0.142578,0.1660157 c -0.01442,0.039464 -0.02751,0.078759 -0.03711,0.1191406 l -0.517578,0.060547 C 21.15547,9.8761606 21.067709,9.9988609 21.067709,10.1665 v 0.466796 c 0,0.167639 0.08705,0.302735 0.195313,0.302735 l 0.603515,0.0625 -0.191406,0.283203 c -0.02871,0.0234 -0.03941,0.06057 -0.0332,0.101562 l 0.01172,0.361329 c 0.0065,0.08734 0.001,0.211539 0.146484,0.330078 0.145452,0.118538 0.315005,0.151183 0.400391,0.101562 l 0.800781,-0.40625 c 0.04775,0.01408 0.06135,0.02614 0.109375,0.03711 l 0.03125,0.236328 c 0,0.0077 0.0026,0.01402 0.0059,0.02148 l 0.05664,0.429688 c 0.01816,0.08838 0.15758,0.177734 0.363281,0.177734 0.165332,0 0.284698,-0.05392 0.335938,-0.119141 0.0049,0.01004 0.01125,0.01828 0.01758,0.02344 l 0.152343,0.179687 c -0.01563,0.04272 -0.02867,0.08519 -0.03906,0.128907 l -0.558594,0.06445 c -0.116017,0.01337 -0.210937,0.145338 -0.210937,0.326172 v 0.503906 c 0,0.180833 0.09415,0.326172 0.210937,0.326172 l 0.652344,0.06641 -0.207031,0.306641 c -0.02486,0.02026 -0.03682,0.04874 -0.03711,0.08203 l 0.01172,0.417969 c 0.007,0.09421 0.0013,0.227601 0.158203,0.355468 0.1569,0.127869 0.341488,0.1629 0.433594,0.109375 l 0.863281,-0.439453 c 0.05156,0.0152 0.06523,0.02916 0.117188,0.04102 7.7e-4,1.76e-4 0.0012,-1.76e-4 0.002,0 l 0.0332,0.255859 c 0,0.0074 0.0011,0.01427 0.0039,0.02148 l 0.0625,0.464843 c 0.01959,0.09534 0.170688,0.191407 0.392578,0.191407 0.221891,0 0.368508,-0.08712 0.390625,-0.179688 l 0.07227,-0.492187 c 0.0012,-0.0031 0.0032,-0.0066 0.0039,-0.0098 l 0.04102,-0.263672 c 0.03847,-0.0095 0.04823,-0.01512 0.08984,-0.02734 l 0.878906,0.4375 c 0.09218,0.05339 0.274741,0.0185 0.43164,-0.109375 0.1569,-0.127867 0.148344,-0.214184 0.16211,-0.351562 l 0.0098,-0.421875 -0.002,-0.002 c -7.06e-4,-0.03249 -0.01076,-0.0602 -0.03516,-0.08008 L 27.77474,14.19775 c 0.0043,-0.0079 0.0096,-0.01551 0.01367,-0.02344 l 0.66211,-0.06836 c 0.116164,-0.01201 0.210937,-0.145339 0.210937,-0.326172 v -0.503906 c 0,-0.180834 -0.09416,-0.326172 -0.210937,-0.326172 l -0.560547,-0.06641 c -0.011,-0.046 -0.02423,-0.08988 -0.04102,-0.134765 l 0.15625,-0.171875 c 0.08258,-0.0673 0.03711,-0.585938 0.03711,-0.585938 0,0 -0.0019,-2e-6 -0.002,0 6.48e-4,-0.07729 -0.06027,-0.180169 -0.169922,-0.269531 -0.156899,-0.127869 -0.334718,-0.153586 -0.43164,-0.109375 l -0.53711,0.246094 c -0.08395,-0.03419 -0.172088,-0.06324 -0.261718,-0.08789 v -0.388672 a 0.6745674,0.46376503 0 0 0 -0.673828,-0.464843 0.6745674,0.46376503 0 0 0 -0.03711,0.002 c 0.08106,-0.04023 0.140625,-0.1472 0.140625,-0.285157 V 10.1665 c 0,-0.1676391 -0.08705,-0.3027344 -0.195312,-0.3027344 L 25.35672,9.8032186 c -0.01001,-0.041859 -0.02389,-0.084138 -0.03906,-0.125 l 0.14458,-0.1601561 c 0.07655,-0.062389 0.0332,-0.5429687 0.0332,-0.5429687 8.12e-4,-0.071689 -0.05637,-0.1670083 -0.158203,-0.25 C 25.191787,8.606555 25.0267,8.5825459 24.93685,8.6235313 l -0.498047,0.2265625 c -0.07811,-0.031808 -0.158784,-0.059127 -0.242188,-0.082031 V 8.4086875 A 0.62534982,0.42992795 0 0 0 23.571615,7.979 Z m 2.13086,2.974609 a 0.6745674,0.46376503 0 0 0 -0.333985,0.214844 l -0.121093,-0.146485 c 0.0043,-0.0079 0.0095,-0.0155 0.01367,-0.02344 z" /><g
       id="g1"
       transform="matrix(0.28339805,0,0,0.28339805,14.34974,5.0843017)"><g
         style="fill:#893500;fill-opacity:1"
         transform="matrix(0.13791329,0,0,0.11239461,124.69894,-4.9949388)"
         id="g1245-9-2-5-2"><path
           sodipodi:nodetypes="scccccccccscccccsccccsccccscccccscccccccccs"
           transform="matrix(1,0,0,1.2270454,-134.20708,293.9699)"
           d="m -546.89648,-126.34375 c -5.263,0 -8.87813,1.90411 -9.5,4.07422 l -3.30274,11.52734 c -3.59629,0.7696 -7.05494,1.86084 -10.30078,3.25 l -11.89844,-6.16797 c -2.24319,-1.163 -14.31566,-2.97869 -14.31566,-2.97869 0,0 -1.07857,12.33165 0.88012,13.92791 l 7.57226,8.822268 c -2.35934,3.26057 -4.00389,6.782428 -4.87109,10.431641 l -18.26367,-2.683595 V -74.1875 c 0,4.289165 2.23,7.742188 5,7.742188 l 15.70703,1.628906 c 1.05474,2.025193 2.36192,3.971898 3.90429,5.814453 l -9.92894,3.359552 0.30186,9.869399 c 0.16643,2.234521 0.0384,5.435417 3.7599,8.468314 3.7215,3.032898 8.06925,3.861367 10.2539,2.591797 l 20.49336,-10.416015 c 1.24105,0.365927 1.5471,0.665963 2.82571,0.950775 l 2.35365,17.625755 c 0.46475,2.261297 4.06624,4.523079 9.32924,4.523079 5.263,0 8.71658,-2.084329 9.24117,-4.279986 l 2.66731,-18.104079 c 1.07842,-0.250842 1.2219,-0.394958 2.27298,-0.703826 l 20.82049,10.404297 c 2.18649,1.266401 6.53045,0.441101 10.25195,-2.591797 3.7215,-3.032897 3.53872,-5.087231 3.86524,-8.345703 l 0.19726,-9.992187 -7.41211,-6.779297 c 0.50305,-0.786171 0.96627,-1.586218 1.38867,-2.398437 l 15.70704,-1.625 c 2.7553,-0.284986 5,-3.453023 5,-7.742188 v -11.953126 l -18.26954,2.654298 c -0.89322,-3.736703 -2.60147,-7.338601 -5.05664,-10.66211 l 7.76172,-8.562502 c 1.95869,-1.59626 0.88012,-13.92791 0.88012,-13.92791 0,0 -12.01483,1.93005 -14.31371,2.97869 l -12.74609,5.81446 c -2.83106,-1.15346 -5.81525,-2.08361 -8.9043,-2.77539 l -3.85156,-11.64844 c 0,-2.25746 -4.237,-4.07422 -9.5,-4.07422 z"
           style="opacity:1;fill:#006600;fill-opacity:1;fill-rule:evenodd;stroke:none;stroke-width:1.12844;stroke-linecap:round;stroke-linejoin:round"
           id="path1237-3-9-5-0" /></g><g
         id="g1401-4-1-8-0-3-4-2"
         transform="matrix(0.13791329,0,0,0.11239461,124.69894,-6.6435361)"><path
           sodipodi:nodetypes="sccccsccccsccccsccccscccssccccsccccsccccs"
           transform="matrix(1,0,0,1.2270454,-134.20708,308.63784)"
           d="m -546.89648,-138.29883 c -5.263,0 -8.87813,1.90607 -9.5,4.07617 l -3.30274,11.52735 c -3.59629,0.7696 -7.05494,1.86084 -10.30078,3.25 l -11.89844,-6.16992 c -2.24319,-1.16301 -6.5324,-0.43915 -10.2539,2.59375 -3.72151,3.03289 -5.14033,6.7592 -3.18164,8.35546 l 7.57226,8.82422 c -2.35908,3.25996 -4.00362,6.781149 -4.87109,10.429691 l -13.26367,1.529297 c -2.75179,0.317135 -5,3.453022 -5,7.742187 0,4.289165 2.23,7.742187 5,7.742187 l 15.70898,1.628907 c 1.05412,2.025139 2.36064,3.971843 3.90234,5.814453 l -9.04882,13.339844 c -1.95869,1.596261 -0.53987,5.322571 3.18164,8.355468 3.7215,3.032898 8.06925,3.86332 10.2539,2.59375 l 17.92578,-10.417968 c 1.24101,0.366587 2.5026,0.693061 3.78125,0.978515 l 2.38508,17.975383 c 0,2.257456 5.64685,4.147664 10.90985,4.147664 5.263,0 10.52778,-2.025354 11.05237,-4.221011 l 2.78942,-18.027036 c 1.0778,-0.251518 2.14296,-0.532304 3.19336,-0.841797 l 17.9668,10.40625 c 2.18649,1.266401 6.53045,0.439148 10.25195,-2.59375 3.7215,-3.032897 5.14033,-6.759207 3.18164,-8.355468 l -10.01953,-12.230469 c 1.97034,-2.164459 3.6064,-4.48849 4.87695,-6.927735 l 15.70704,-1.625 c 2.7553,-0.284985 5,-3.453022 5,-7.742187 0,-4.289165 -2.23,-7.742188 -5,-7.742187 l -13.26954,-1.556641 c -0.89322,-3.736702 -2.60147,-7.338597 -5.05664,-10.662107 l 7.76172,-8.56446 c 1.95869,-1.59626 0.53986,-5.32257 -3.18164,-8.35546 -3.7215,-3.0329 -7.95307,-3.64239 -10.25195,-2.59375 l -12.74805,5.81445 c -2.83054,-1.1527 -5.81407,-2.08219 -8.90234,-2.77344 l -3.85156,-11.64844 c 0,-2.25745 -4.237,-4.07617 -9.5,-4.07617 z"
           style="opacity:1;fill:url(#linearGradient1299-3-9-8-3);fill-opacity:1;fill-rule:evenodd;stroke:none;stroke-width:1.12844;stroke-linecap:round;stroke-linejoin:round"
           id="rect1061-6-20-7-7-9-6-1-7-3" /></g><path
         style="fill:url(#linearGradient1331-3);fill-opacity:1;stroke:none;stroke-width:0.137913px;stroke-linecap:butt;stroke-linejoin:miter;stroke-opacity:1"
         d="m 30.693062,17.814442 c 1.206811,0 1.506076,-0.04132 2.181256,-0.5407 l 3.808836,-0.0098 c 0.750875,-0.0077 -0.323579,-2.205367 -0.900694,-2.205367 h -2.897601 z"
         id="path1324-7-2-2-9-6-7"
         sodipodi:nodetypes="cccccc" /><path
         style="fill:url(#linearGradient1333-2);fill-opacity:1;stroke:none;stroke-width:0.137913px;stroke-linecap:butt;stroke-linejoin:miter;stroke-opacity:1"
         d="m 28.569457,9.9657115 v 5.8838095 c 0,2.595326 4.413225,2.64563 4.413225,-0.0033 V 9.9657202"
         id="path932-9-2-6-3-1-4-5-5"
         sodipodi:nodetypes="cccc" /><ellipse
         style="fill:url(#linearGradient1335-2);fill-opacity:1;fill-rule:evenodd;stroke:none;stroke-width:0.181971;stroke-linecap:round;stroke-linejoin:round"
         id="path930-1-9-8-1-8-7-6-9"
         cx="30.77607"
         cy="9.9657116"
         ry="1.5170462"
         rx="2.2066131" /><g
         id="g1245-9-2-2"
         transform="matrix(0.14876762,0,0,0.12124052,140.53918,4.3136944)"
         style="fill:#893500;fill-opacity:1"><path
           id="path1237-3-9-2"
           style="opacity:1;fill:#990000;fill-opacity:1;fill-rule:evenodd;stroke:none;stroke-width:1.12844;stroke-linecap:round;stroke-linejoin:round"
           d="m -546.89648,-126.34375 c -5.263,0 -8.87813,1.90411 -9.5,4.07422 l -3.30274,11.52734 c -3.59629,0.7696 -7.05494,1.86084 -10.30078,3.25 l -11.89844,-6.16797 c -2.24319,-1.163 -14.31566,-2.97869 -14.31566,-2.97869 0,0 -1.07857,12.33165 0.88012,13.92791 l 7.57226,8.822268 c -2.35934,3.26057 -4.00389,6.782428 -4.87109,10.431641 l -18.26367,-2.683595 V -74.1875 c 0,4.289165 2.23,7.742188 5,7.742188 l 15.70703,1.628906 c 1.05474,2.025193 2.36192,3.971898 3.90429,5.814453 l -9.92894,3.359552 0.30186,9.869399 c 0.16643,2.234521 0.0384,5.435417 3.7599,8.468314 3.7215,3.032898 8.06925,3.861367 10.2539,2.591797 l 20.49336,-10.416015 c 1.24105,0.365927 1.5471,0.665963 2.82571,0.950775 l 2.35365,17.625755 c 0.46475,2.261297 4.06624,4.523079 9.32924,4.523079 5.263,0 8.71658,-2.084329 9.24117,-4.279986 l 2.66731,-18.104079 c 1.07842,-0.250842 1.2219,-0.394958 2.27298,-0.703826 l 20.82049,10.404297 c 2.18649,1.266401 6.53045,0.441101 10.25195,-2.591797 3.7215,-3.032897 3.53872,-5.087231 3.86524,-8.345703 l 0.19726,-9.992187 -7.41211,-6.779297 c 0.50305,-0.786171 0.96627,-1.586218 1.38867,-2.398437 l 15.70704,-1.625 c 2.7553,-0.284986 5,-3.453023 5,-7.742188 v -11.953126 l -18.26954,2.654298 c -0.89322,-3.736703 -2.60147,-7.338601 -5.05664,-10.66211 l 7.76172,-8.562502 c 1.95869,-1.59626 0.88012,-13.92791 0.88012,-13.92791 0,0 -12.01483,1.93005 -14.31371,2.97869 l -12.74609,5.81446 c -2.83106,-1.15346 -5.81525,-2.08361 -8.9043,-2.77539 l -3.85156,-11.64844 c 0,-2.25746 -4.237,-4.07422 -9.5,-4.07422 z"
           transform="matrix(1,0,0,1.2270454,-134.20708,293.9699)"
           sodipodi:nodetypes="scccccccccscccccsccccsccccscccccscccccccccs" /></g><g
         transform="matrix(0.14876762,0,0,0.12124052,140.53918,2.5353458)"
         id="g1401-4-1-8-0-3-8"><path
           id="rect1061-6-20-7-7-9-6-1-9"
           style="opacity:1;fill:url(#linearGradient1299-3-9-7);fill-opacity:1;fill-rule:evenodd;stroke:none;stroke-width:1.12844;stroke-linecap:round;stroke-linejoin:round"
           d="m -546.89648,-138.29883 c -5.263,0 -8.87813,1.90607 -9.5,4.07617 l -3.30274,11.52735 c -3.59629,0.7696 -7.05494,1.86084 -10.30078,3.25 l -11.89844,-6.16992 c -2.24319,-1.16301 -6.5324,-0.43915 -10.2539,2.59375 -3.72151,3.03289 -5.14033,6.7592 -3.18164,8.35546 l 7.57226,8.82422 c -2.35908,3.25996 -4.00362,6.781149 -4.87109,10.429691 l -13.26367,1.529297 c -2.75179,0.317135 -5,3.453022 -5,7.742187 0,4.289165 2.23,7.742187 5,7.742187 l 15.70898,1.628907 c 1.05412,2.025139 2.36064,3.971843 3.90234,5.814453 l -9.04882,13.339844 c -1.95869,1.596261 -0.53987,5.322571 3.18164,8.355468 3.7215,3.032898 8.06925,3.86332 10.2539,2.59375 l 17.92578,-10.417968 c 1.24101,0.366587 2.5026,0.693061 3.78125,0.978515 l 2.38508,17.975383 c 0,2.257456 5.64685,4.147664 10.90985,4.147664 5.263,0 10.52778,-2.025354 11.05237,-4.221011 l 2.78942,-18.027036 c 1.0778,-0.251518 2.14296,-0.532304 3.19336,-0.841797 l 17.9668,10.40625 c 2.18649,1.266401 6.53045,0.439148 10.25195,-2.59375 3.7215,-3.032897 5.14033,-6.759207 3.18164,-8.355468 l -10.01953,-12.230469 c 1.97034,-2.164459 3.6064,-4.48849 4.87695,-6.927735 l 15.70704,-1.625 c 2.7553,-0.284985 5,-3.453022 5,-7.742187 0,-4.289165 -2.23,-7.742188 -5,-7.742187 l -13.26954,-1.556641 c -0.89322,-3.736702 -2.60147,-7.338597 -5.05664,-10.662107 l 7.76172,-8.56446 c 1.95869,-1.59626 0.53986,-5.32257 -3.18164,-8.35546 -3.7215,-3.0329 -7.95307,-3.64239 -10.25195,-2.59375 l -12.74805,5.81445 c -2.83054,-1.1527 -5.81407,-2.08219 -8.90234,-2.77344 l -3.85156,-11.64844 c 0,-2.25745 -4.237,-4.07617 -9.5,-4.07617 z"
           transform="matrix(1,0,0,1.2270454,-134.20708,308.63784)"
           sodipodi:nodetypes="sccccsccccsccccsccccscccssccccsccccsccccs" /></g><path
         sodipodi:nodetypes="cccccc"
         id="path1324-7-2-2-9-7"
         d="m 39.134657,28.918266 c 1.301792,0 1.62461,-0.04457 2.352929,-0.583255 l 4.108608,-0.01056 c 0.809971,-0.0083 -0.349046,-2.378938 -0.971584,-2.378938 h -3.125653 z"
         style="fill:url(#linearGradient1195-3-3-6);fill-opacity:1;stroke:none;stroke-width:0.148768px;stroke-linecap:butt;stroke-linejoin:miter;stroke-opacity:1" /><path
         sodipodi:nodetypes="cccc"
         id="path932-9-2-6-3-1-4-3"
         d="m 36.843915,20.451809 v 6.346889 c 0,2.799589 4.760564,2.853852 4.760564,-0.0036 V 20.45182"
         style="fill:url(#linearGradient1097-9-2);fill-opacity:1;stroke:none;stroke-width:0.148768px;stroke-linecap:butt;stroke-linejoin:miter;stroke-opacity:1" /><ellipse
         rx="2.3802824"
         ry="1.636444"
         cy="20.451809"
         cx="39.224197"
         id="path930-1-9-8-1-8-7-61"
         style="fill:url(#linearGradient1099-8-6);fill-opacity:1;fill-rule:evenodd;stroke:none;stroke-width:0.196293;stroke-linecap:round;stroke-linejoin:round" /></g></g></svg>
