<?xml version="1.0" encoding="UTF-8" standalone="no"?>
<svg
   version="1.1"
   viewBox="0 0 16 16"
   id="svg27"
   sodipodi:docname="sound-medium.svg"
   width="16"
   height="16"
   inkscape:version="1.3.2 (1:1.3.2+202311252150+091e20ef0f)"
   xmlns:inkscape="http://www.inkscape.org/namespaces/inkscape"
   xmlns:sodipodi="http://sodipodi.sourceforge.net/DTD/sodipodi-0.dtd"
   xmlns="http://www.w3.org/2000/svg"
   xmlns:svg="http://www.w3.org/2000/svg">
  <sodipodi:namedview
     id="namedview27"
     pagecolor="#ffffff"
     bordercolor="#000000"
     borderopacity="0.25"
     inkscape:showpageshadow="2"
     inkscape:pageopacity="0.0"
     inkscape:pagecheckerboard="0"
     inkscape:deskcolor="#d1d1d1"
     inkscape:zoom="28.109375"
     inkscape:cx="3.2551418"
     inkscape:cy="14.710395"
     inkscape:window-width="3840"
     inkscape:window-height="2058"
     inkscape:window-x="0"
     inkscape:window-y="0"
     inkscape:window-maximized="1"
     inkscape:current-layer="svg27" />
  <defs
     id="defs13">
    <linearGradient
       id="gradient4-3-5"
       x1="-819.20001"
       x2="819.20001"
       gradientTransform="matrix(0.014272,-0.041077,-0.027849,-0.009747,-113.31,112.58)"
       gradientUnits="userSpaceOnUse">
      <stop
         stop-color="#99c"
         offset="0"
         id="stop1" />
      <stop
         stop-color="#b5b5da"
         offset=".20392"
         id="stop2" />
      <stop
         stop-color="#fff"
         offset=".48235"
         id="stop3" />
      <stop
         stop-color="#99999c"
         offset="1"
         id="stop4" />
    </linearGradient>
    <linearGradient
       id="gradient5-5-6"
       x1="-819.20001"
       x2="819.20001"
       gradientTransform="matrix(0.054653,0.054653,0.063007,-0.063007,-59.703,137.3)"
       gradientUnits="userSpaceOnUse">
      <stop
         stop-color="#333"
         offset="0"
         id="stop5" />
      <stop
         stop-color="#666"
         offset=".36863"
         id="stop6" />
      <stop
         stop-color="#ccc"
         offset=".72157"
         id="stop7" />
      <stop
         stop-color="#ccc"
         offset="1"
         id="stop8" />
    </linearGradient>
    <radialGradient
       id="gradient6-2-5"
       cx="0"
       cy="0"
       r="819.20001"
       gradientTransform="matrix(0.075887,0,0,0.075887,-86.681,113.45)"
       gradientUnits="userSpaceOnUse">
      <stop
         stop-color="#ddd"
         offset="0"
         id="stop9" />
      <stop
         stop-color="#666"
         offset=".51373"
         id="stop10" />
      <stop
         stop-color="#99f"
         offset="1"
         id="stop11" />
    </radialGradient>
    <linearGradient
       id="linearGradient185327"
       x1="-104.58"
       x2="-31.202"
       y1="107.85"
       y2="162.23"
       gradientUnits="userSpaceOnUse">
      <stop
         stop-color="#3e3e3e"
         offset="0"
         id="stop12" />
      <stop
         stop-color="#999"
         stop-opacity=".99741"
         offset="1"
         id="stop13" />
    </linearGradient>
    <filter
       inkscape:collect="always"
       style="color-interpolation-filters:sRGB"
       id="filter47"
       x="-0.16789686"
       y="-0.16303833"
       width="1.3357937"
       height="1.3260767">
      <feGaussianBlur
         inkscape:collect="always"
         stdDeviation="0.90224119"
         id="feGaussianBlur47" />
    </filter>
  </defs>
  <path
     id="path27"
     style="opacity:0.75;fill:#000000;fill-opacity:1;stroke-width:0.0780263;filter:url(#filter47)"
     d="M 8.4087974,0.8751125 C 8.2487781,0.88036091 8.0883436,0.89528854 7.9283287,0.92003438 7.288269,1.0190177 6.6502424,1.2727541 6.0181724,1.6817531 5.6340394,1.9274937 5.2835709,2.2092459 4.9654381,2.5274563 L 4.0728599,2.2208156 c -0.00324,-7.454e-4 -0.0065,-0.0014 -0.00977,-0.00195 -0.5437923,-0.1510529 -1.1070917,-0.00297 -1.6425737,0.4082 -3.7e-6,6.5e-4 -3.7e-6,0.0013 0,0.00195 -0.5259624,0.4132479 -0.9153905,0.9908715 -1.1777344,1.7050813 -0.00843,0.010193 -0.015641,0.021336 -0.021484,0.033203 -0.24312778,0.7481045 -0.28765222,1.4529066 -0.125,2.1035156 0.162994,0.6596851 0.5199443,1.1267898 1.0527344,1.3378907 0.00257,0.00137 0.00517,0.00267 0.00781,0.00391 l 0.7363281,0.2519531 c 0.033754,0.5864146 0.1458929,1.160809 0.3398438,1.7207031 0.483718,1.4218535 1.3762018,2.3695365 2.6464843,2.7929685 1.2786978,0.432525 2.5755446,0.230211 3.8398438,-0.587891 1.2641982,-0.808742 2.1723242,-2.0092865 2.7167972,-3.5781243 0.535412,-1.5600826 0.560628,-3.0657334 0.06836,-4.4960938 -6.61e-4,-6.555e-4 -0.0013,-0.00131 -0.002,-0.00195 -0.501668,-1.4216714 -1.395431,-2.3781061 -2.6562016,-2.8203194 -6.5e-4,-3.7e-6 -0.0013,-3.7e-6 -0.00195,0 C 9.3680883,0.93157507 8.8888555,0.85936726 8.4087974,0.8751125 Z M 13.317,7.3965969 c -0.207106,3e-6 -0.374997,0.1678945 -0.375,0.375 0,1.6199153 -0.812478,2.9665811 -1.857422,3.9218741 -1.044943,0.955294 -2.3382496,1.482422 -3.0898431,1.482422 -0.2071055,3e-6 -0.374997,0.167894 -0.375,0.375 0.00296,0.13666 0.080036,0.260887 0.2011719,0.324219 0.021433,0.02687 0.044098,0.05437 0.068359,0.08008 0.043062,0.04564 0.088204,0.08773 0.1367187,0.123047 0.048515,0.03532 0.086959,0.07617 0.1914063,0.07617 1.0554081,0 2.4399212,-0.681634 3.5937502,-1.736328 1.072333,-0.980292 2.085937,-2.5406063 2.085937,-4.4433591 0,-0.093566 -0.03288,-0.1359178 -0.06445,-0.1835938 C 13.801058,7.7434521 13.762798,7.6982321 13.7213,7.6563625 13.69182,7.6266205 13.65986,7.6011985 13.62755,7.5762845 13.561261,7.4675418 13.444313,7.3998744 13.317,7.3965969 Z"
     sodipodi:nodetypes="ssccccccccccccccccccccsccsscccsscssscc" />
  <g
     transform="matrix(0.06250009,0,0,0.06250009,-0.59975432,0.18680507)"
     id="g27">
    <g
       transform="matrix(5.396,0,0,5.396,238.57,-30.231)"
       id="g26">
      <g
         transform="matrix(0.23136,0,0,0.23136,-6.7935,-7.8876)"
         id="g21">
        <path
           d="m -142.73,106.14 c -3.0169,9.2828 -3.5391,17.869 -1.5665,25.76 1.9726,8.0064 6.0338,13.228 12.184,15.665 l 23.845,8.1805 23.149,-67.533 c -7.072,-3.9463 -23.845,-8.1805 -23.845,-8.1805 -6.2659,-1.7405 -12.648,-0.11604 -19.146,4.8735 -6.498,5.1056 -11.371,12.184 -14.62,21.234"
           fill="url(#gradient4-3-5)"
           fill-rule="evenodd"
           id="path13"
           style="fill:url(#gradient4-3-5)" />
        <path
           d="m -142.73,106.14 c 3.249,-9.0508 8.1225,-16.129 14.62,-21.234 6.498,-4.9895 12.88,-6.614 19.146,-4.8735 l 23.845,8.1805 -23.149,67.533 -23.845,-8.1805 c -6.1499,-2.4367 -10.211,-7.6583 -12.184,-15.665 -1.9726,-7.8904 -1.4504,-16.477 1.5665,-25.76 z"
           fill="none"
           stroke="#333366"
           stroke-linecap="round"
           stroke-linejoin="round"
           stroke-width="4.3513"
           id="path14" />
        <path
           d="m -103.04,94.653 q -10.095,7.6583 -14.795,21.583 -4.8735,13.924 -1.5665,26.108 3.307,12.358 12.706,15.491 9.3989,3.133 19.494,-4.3513 10.095,-7.6583 14.795,-21.583 4.8735,-14.098 1.5665,-26.108 -3.307,-12.358 -12.706,-15.491 -9.2248,-3.133 -19.494,4.3513"
           fill="#666666"
           fill-rule="evenodd"
           id="path15" />
        <path
           d="m -103.04,94.653 q 10.269,-7.4843 19.494,-4.3513 9.3989,3.133 12.706,15.491 3.307,12.01 -1.5665,26.108 -4.6994,13.924 -14.795,21.583 -10.095,7.4843 -19.494,4.3513 -9.3989,-3.133 -12.706,-15.491 -3.307,-12.184 1.5665,-26.108 4.6994,-13.924 14.795,-21.583 z"
           fill="none"
           stroke="#333333"
           stroke-linecap="round"
           stroke-linejoin="round"
           stroke-width="4.3513"
           id="path16" />
        <path
           d="m -116.1,117.8 q -10.095,29.763 -0.87027,56.393 9.0508,26.63 32.548,34.463 23.671,8.0064 47.342,-7.3102 23.671,-15.143 33.94,-44.732 10.095,-29.415 0.87027,-56.219 -9.3989,-26.63 -32.722,-34.811 -23.497,-8.0064 -47.168,7.3102 -23.671,15.143 -33.94,44.906"
           fill="url(#gradient5-5-6)"
           fill-rule="evenodd"
           id="path17"
           style="fill:url(#gradient5-5-6)" />
        <path
           d="m -116.1,117.8 q 10.269,-29.763 33.94,-44.906 23.671,-15.317 47.168,-7.3102 23.323,8.1805 32.722,34.811 9.2248,26.804 -0.87027,56.219 -10.269,29.589 -33.94,44.732 -23.671,15.317 -47.342,7.3102 -23.497,-7.8324 -32.548,-34.463 -9.2248,-26.63 0.87027,-56.393 z"
           fill="none"
           stroke="#333333"
           stroke-linecap="round"
           stroke-linejoin="round"
           stroke-width="4.3513"
           id="path18" />
        <path
           d="m -100.95,123.02 q -5.0476,14.795 -0.69622,28.023 4.5254,13.402 15.839,17.231 11.488,3.8292 23.149,-3.8292 11.662,-7.8324 16.709,-22.627 5.0475,-14.62 0.69621,-28.023 -4.3513,-13.228 -15.665,-17.057 -11.488,-4.0032 -23.323,3.8292 -11.488,7.6583 -16.709,22.453"
           fill="url(#gradient6-2-5)"
           fill-rule="evenodd"
           id="path19"
           style="fill:url(#gradient6-2-5)" />
        <path
           d="m -100.95,123.02 q 5.2216,-14.795 16.709,-22.453 11.836,-7.8324 23.323,-3.8292 11.313,3.8292 15.665,17.057 4.3513,13.402 -0.69621,28.023 -5.0475,14.795 -16.709,22.627 -11.662,7.6584 -23.149,3.8292 -11.313,-3.8292 -15.839,-17.231 -4.3513,-13.228 0.69622,-28.023 z"
           fill="none"
           stroke="#333333"
           stroke-linecap="round"
           stroke-linejoin="round"
           stroke-width="4.3513"
           id="path20" />
        <path
           d="m -71.772,192.99 c 30.892,0 54.484,-34.941 53.853,-69.554 -0.45545,-24.991 -15.097,-50.543 -40.165,-50.543 -28.174,0 -57.224,44.065 -57.333,60.421 -0.24032,36.006 11.586,59.677 43.645,59.677 z"
           fill="none"
           stroke="url(#linearGradient185327)"
           stroke-linecap="round"
           stroke-linejoin="round"
           stroke-width="4.3513"
           id="path21"
           style="stroke:url(#linearGradient185327)" />
      </g>
      <path
         d="m -4.1758,26.239 c 0,0 -0.099563,0.65132 -0.099563,0.92746 0,5.0083 -2.5148,9.164 -5.709,12.084 -3.1942,2.92 -7.0905,4.5586 -9.5762,4.5586 -0.27614,0 -1.0098,0.15317 -1.0098,0.15317 0,0.27614 0.74458,1.0736 1.0207,1.0736 2.9055,0 6.9661,-1.9521 10.317,-5.0151 3.1002,-2.8341 6.0238,-7.3444 6.0238,-12.808 0,-0.27614 -0.69058,-0.97419 -0.96672,-0.97419 z"
         color="#000000"
         fill="#6f6fcb"
         stroke="#6f6fcb"
         stroke-linecap="round"
         style="-inkscape-stroke:none"
         id="path22" />
      <g
         stroke-linecap="round"
         id="g25">
        <path
           d="m -4.4296,26.607 c 0,10.351 -10.394,17.142 -15.785,17.142"
           fill="none"
           stroke="#bfbff9"
           stroke-width="2.2239"
           id="path24" />
      </g>
    </g>
  </g>
</svg>
