<?xml version="1.0" encoding="UTF-8" standalone="no"?>
<svg
   inkscape:export-ydpi="96"
   inkscape:export-xdpi="96"
   inkscape:export-filename="/media/klapeto/Αρχεία/WindowsXP Theme/Vectors/RASTER/code-typedef.png"
   sodipodi:docname="text-box-autocomplete.svg"
   inkscape:version="1.2.2 (b0a8486541, 2022-12-01)"
   id="svg8"
   version="1.1"
   viewBox="0 0 16 16"
   height="16"
   width="16"
   xml:space="preserve"
   xmlns:inkscape="http://www.inkscape.org/namespaces/inkscape"
   xmlns:sodipodi="http://sodipodi.sourceforge.net/DTD/sodipodi-0.dtd"
   xmlns="http://www.w3.org/2000/svg"
   xmlns:svg="http://www.w3.org/2000/svg"
   xmlns:rdf="http://www.w3.org/1999/02/22-rdf-syntax-ns#"
   xmlns:cc="http://creativecommons.org/ns#"
   xmlns:dc="http://purl.org/dc/elements/1.1/"><defs
     id="defs2"><linearGradient
       id="linearGradient1492"
       x1="-0.79374999"
       x2="-4.2333002"
       y1="7.9375"
       y2="3.8364999"
       gradientTransform="matrix(42.976,0,0,42.976,238.86,-125)"
       gradientUnits="userSpaceOnUse"><stop
         stop-color="#10af04"
         offset="0"
         id="stop2" /><stop
         stop-color="#74c53b"
         offset=".78261"
         id="stop4" /><stop
         stop-color="#bbe5ae"
         offset="1"
         id="stop6" /></linearGradient><linearGradient
       id="linearGradient1494"
       x1="-0.52916998"
       x2="-4.2333002"
       y1="7.9375"
       y2="3.8364999"
       gradientTransform="matrix(42.976,0,0,42.976,238.86,-125)"
       gradientUnits="userSpaceOnUse"><stop
         stop-color="#034501"
         offset="0"
         id="stop9" /><stop
         stop-color="#0eba0e"
         offset="1"
         id="stop11" /></linearGradient></defs><sodipodi:namedview
     inkscape:snap-global="true"
     inkscape:bbox-paths="false"
     fit-margin-bottom="0"
     fit-margin-right="0"
     fit-margin-left="0"
     fit-margin-top="0"
     inkscape:bbox-nodes="true"
     inkscape:snap-bbox="true"
     inkscape:window-maximized="1"
     inkscape:window-y="0"
     inkscape:window-x="1280"
     inkscape:window-height="2061"
     inkscape:window-width="3840"
     units="px"
     showgrid="true"
     inkscape:document-rotation="0"
     inkscape:current-layer="layer1"
     inkscape:document-units="px"
     inkscape:cy="15.147553"
     inkscape:cx="-15.235941"
     inkscape:zoom="45.254834"
     inkscape:pageshadow="2"
     inkscape:pageopacity="0.0"
     borderopacity="1.0"
     bordercolor="#666666"
     pagecolor="#ffffff"
     id="base"
     showguides="false"
     inkscape:pagecheckerboard="0"
     inkscape:snap-grids="true"
     inkscape:showpageshadow="2"
     inkscape:deskcolor="#d1d1d1"><inkscape:grid
       originy="0"
       originx="0"
       id="grid1504"
       type="xygrid"
       spacingy="1"
       spacingx="1"
       units="px"
       visible="true" /><inkscape:grid
       spacingy="0.5"
       spacingx="0.5"
       id="grid966"
       type="xygrid"
       originx="0"
       originy="0"
       units="px"
       visible="true" /></sodipodi:namedview><metadata
     id="metadata5"><rdf:RDF><cc:Work
         rdf:about=""><dc:format>image/svg+xml</dc:format><dc:type
           rdf:resource="http://purl.org/dc/dcmitype/StillImage" /></cc:Work></rdf:RDF></metadata><g
     transform="translate(-12.567709)"
     id="layer1"
     inkscape:groupmode="layer"
     inkscape:label="Layer 1"><rect
       style="fill:#ffffff;fill-opacity:1;fill-rule:evenodd;stroke:#7f9db9;stroke-width:1;stroke-linecap:round;stroke-linejoin:round;stroke-miterlimit:4;stroke-dasharray:none;stroke-opacity:1;stop-color:#000000"
       id="rect1445"
       width="14"
       height="12"
       x="13.067709"
       y="1.5" /><path
       style="fill:none;stroke:#000000;stroke-width:1px;stroke-linecap:butt;stroke-linejoin:miter;stroke-opacity:1"
       d="m 25.067709,4 v 7"
       id="path5354"
       sodipodi:nodetypes="cc" /><g
       aria-label="ab"
       id="text6871"
       style="font-size:8.34282px;line-height:1.25;font-family:Tahoma;-inkscape-font-specification:Tahoma;stroke-width:0.446936"
       transform="translate(-0.11537642,-0.14612389)"><path
         d="M 17.913493,9.7534656 V 8.4906364 q -0.272934,0.024442 -0.692519,0.069252 -0.415511,0.040736 -0.672151,0.1181356 -0.305523,0.093694 -0.505132,0.2892286 -0.199608,0.1914612 -0.199608,0.5377209 0,0.3910697 0.219977,0.5906785 0.219976,0.199608 0.643635,0.199608 0.362554,0 0.655857,-0.154798 0.293302,-0.1588723 0.549941,-0.3869964 z m 0,0.6354884 q -0.09369,0.06925 -0.252566,0.195535 -0.154798,0.122209 -0.301449,0.195535 -0.203682,0.105914 -0.395143,0.162945 Q 16.776947,11 16.434761,11 16.15368,11 15.901114,10.894086 15.648548,10.788171 15.457087,10.59671 15.273773,10.409322 15.163785,10.136388 15.053796,9.8593803 15.053796,9.5538571 q 0,-0.4725426 0.199609,-0.8025076 Q 15.453013,8.4173108 15.884819,8.2217759 16.267742,8.0466093 16.789168,7.981431 17.310594,7.912179 17.913493,7.87959 V 7.7329388 q 0,-0.2688604 -0.08147,-0.4318061 -0.08147,-0.1670194 -0.228124,-0.2566395 -0.146651,-0.093694 -0.35848,-0.1222093 -0.211829,-0.032589 -0.43588,-0.032589 -0.264787,0 -0.623267,0.081473 -0.358481,0.077399 -0.716961,0.228124 h -0.04481 v -0.778066 q 0.211829,-0.061105 0.606972,-0.1344302 0.395144,-0.073326 0.78214,-0.073326 0.468469,0 0.790286,0.073326 0.321818,0.073326 0.578458,0.2647867 0.248492,0.1873876 0.370701,0.4847635 0.12221,0.2973759 0.12221,0.7251084 v 3.1122627 h -0.761772 z"
         id="path294" /><path
         d="m 22.777422,8.5843301 q 0,-0.8147285 -0.248492,-1.2343137 -0.248492,-0.4236588 -0.798434,-0.4236588 -0.31367,0 -0.635488,0.1466511 -0.317744,0.1466511 -0.578457,0.3707015 v 2.6071308 q 0.289228,0.142578 0.513279,0.203683 0.22405,0.05703 0.492911,0.05703 0.586604,0 0.920643,-0.4155119 0.334038,-0.4155116 0.334038,-1.311712 z m 0.790287,-0.061105 q 0,1.1161781 -0.541794,1.7964769 Q 22.48412,11 21.669392,11 21.29869,11 21.033903,10.906306 20.77319,10.816686 20.516551,10.661888 l -0.04888,0.211829 H 19.750706 V 4.5351293 h 0.765845 v 2.2649453 q 0.289228,-0.2607131 0.627341,-0.4318061 0.338112,-0.171093 0.765845,-0.171093 0.769918,0 1.213945,0.6191937 0.444027,0.6151201 0.444027,1.7068559 z"
         id="path296" /></g><g
       stroke-linecap="round"
       id="g22"
       transform="matrix(0.03143666,0,0,0.03143666,20.51298,7.937751)"><circle
         cx="128"
         cy="128"
         r="122.24"
         fill="url(#linearGradient1492)"
         stroke="url(#linearGradient1494)"
         stroke-linejoin="round"
         stroke-width="10"
         id="circle16"
         style="fill:url(#linearGradient1492);stroke:url(#linearGradient1494)" /><g
         transform="matrix(0,-42.976,-42.976,0,378.52,358.61)"
         fill="none"
         stroke="#ffffff"
         stroke-width="0.79375"
         id="g20"><path
           d="M 6.7062,4.6746 4.026,5.9083 5.0554,6.984"
           stroke-linecap="round"
           stroke-linejoin="round"
           stroke-width="0.79374"
           id="path18" /></g></g></g></svg>
