<?xml version="1.0" encoding="UTF-8" standalone="no"?>
<svg
   version="1.1"
   viewBox="0 0 16 16"
   id="svg2"
   sodipodi:docname="text.svg"
   width="16"
   height="16"
   inkscape:version="1.3.2 (1:1.3.2+202311252150+091e20ef0f)"
   xmlns:inkscape="http://www.inkscape.org/namespaces/inkscape"
   xmlns:sodipodi="http://sodipodi.sourceforge.net/DTD/sodipodi-0.dtd"
   xmlns="http://www.w3.org/2000/svg"
   xmlns:svg="http://www.w3.org/2000/svg">
  <sodipodi:namedview
     id="namedview2"
     pagecolor="#ffffff"
     bordercolor="#000000"
     borderopacity="0.25"
     inkscape:showpageshadow="2"
     inkscape:pageopacity="0.0"
     inkscape:pagecheckerboard="0"
     inkscape:deskcolor="#d1d1d1"
     inkscape:zoom="28.109375"
     inkscape:cx="8.4491384"
     inkscape:cy="26.414675"
     inkscape:window-width="3840"
     inkscape:window-height="2058"
     inkscape:window-x="0"
     inkscape:window-y="0"
     inkscape:window-maximized="1"
     inkscape:current-layer="svg2" />
  <defs
     id="defs1">
    <style
       id="current-color-scheme"
       type="text/css">.ColorScheme-Text {
        color:#232629;
      }</style>
    <filter
       id="filter26366"
       x="-0.044560997"
       y="-0.086088058"
       width="1.089122"
       height="1.1721761"
       color-interpolation-filters="sRGB">
      <feGaussianBlur
         stdDeviation="4.4932227"
         id="feGaussianBlur1" />
    </filter>
    <filter
       inkscape:collect="always"
       style="color-interpolation-filters:sRGB"
       id="filter5"
       x="-0.056708985"
       y="-0.11070792"
       width="1.113418"
       height="1.2214158">
      <feGaussianBlur
         inkscape:collect="always"
         stdDeviation="0.35443128"
         id="feGaussianBlur5" />
    </filter>
  </defs>
  <path
     id="path4"
     style="color:#000000;fill:#000000;fill-opacity:1;stroke-linecap:round;stroke-linejoin:round;-inkscape-stroke:none;filter:url(#filter5);opacity:0.75"
     d="m 4.4960986,4.6580004 a 0.15308331,0.15308331 0 0 0 -0.140625,0.091797 L 1.7714892,10.515422 C 1.5294293,11.059179 1.3201547,11.416525 1.1816454,11.56425 1.0380982,11.713904 0.86190083,11.804831 0.63086421,11.839641 a 0.15308331,0.15308331 0 0 0 -0.13085938,0.15039 v 0.197266 a 0.15308331,0.15308331 0 0 0 0.15234375,0.154297 H 3.0566454 A 0.15308331,0.15308331 0 0 0 3.2089892,12.187297 V 11.990031 A 0.15308331,0.15308331 0 0 0 3.0683642,11.837688 C 2.6984168,11.809768 2.455773,11.748038 2.425786,11.730266 2.3028822,11.658126 2.2558642,11.577154 2.2558642,11.415813 c 0,-0.119541 0.041902,-0.297979 0.1367187,-0.521485 L 2.6562548,10.283 h 2.3515625 l 0.34375,0.808594 c 0.049513,0.116706 0.087326,0.206611 0.1132813,0.271484 0.025955,0.06487 0.041371,0.12073 0.037109,0.101563 a 0.15308331,0.15308331 0 0 0 0.00391,0.01172 c 0.017168,0.05437 0.025391,0.105527 0.025391,0.152344 0,0.06818 -0.014596,0.08964 -0.054687,0.119141 -0.066405,0.04456 -0.2374928,0.08984 -0.5019531,0.08984 H 4.832036 a 0.15308331,0.15308331 0 0 0 -0.1542968,0.152343 v 0.197266 A 0.15308331,0.15308331 0 0 0 4.832036,12.341592 H 8.3281298 A 0.15308331,0.15308331 0 0 0 8.4804736,12.187297 V 11.990031 A 0.15308331,0.15308331 0 0 0 8.3398486,11.837688 C 8.1426308,11.821781 8.0095622,11.767069 7.9199267,11.685344 7.8033522,11.579136 7.5890795,11.230887 7.3437548,10.677531 v -0.002 L 4.7363329,4.7497973 A 0.15308331,0.15308331 0 0 0 4.597661,4.6580004 Z M 8.6796923,4.8083911 A 0.15308331,0.15308331 0 0 0 8.5273486,4.9607348 v 0.1972656 a 0.15308331,0.15308331 0 0 0 0.1523437,0.1523438 c 0.3211337,0 0.5366051,0.040765 0.6074219,0.076172 0.096619,0.048307 0.1492854,0.1021003 0.1796875,0.1699218 a 0.15308331,0.15308331 0 0 0 0.00391,0.00586 c 0.00694,0.013887 0.027448,0.090619 0.039063,0.2050781 0.011614,0.1144593 0.019531,0.270734 0.019531,0.4628907 V 10.91972 c 0,0.192172 -0.00792,0.346481 -0.019531,0.460937 -0.011615,0.114456 -0.032118,0.19119 -0.039063,0.205079 a 0.15308331,0.15308331 0 0 0 -0.00195,0.0039 c -0.029699,0.06396 -0.084764,0.121923 -0.1816406,0.173828 -0.064676,0.03332 -0.2826772,0.07422 -0.6074219,0.07422 a 0.15308331,0.15308331 0 0 0 -0.1523437,0.152343 v 0.197266 a 0.15308331,0.15308331 0 0 0 0.1523437,0.154297 h 3.6718748 c 1.044716,0 1.861957,-0.220058 2.435547,-0.679688 0.466669,-0.379407 0.712884,-0.882182 0.712884,-1.466792 0,-0.5546063 -0.225476,-1.0284983 -0.654297,-1.3769533 C 14.603267,8.6196022 14.147834,8.4798604 13.673833,8.3415942 14.106768,8.1950838 14.53135,8.05026 14.750005,7.8162035 a 0.15308331,0.15308331 0 0 0 0,-0.00195 c 0.274201,-0.2973699 0.419922,-0.6500043 0.419922,-1.0351562 0,-0.3611811 -0.112003,-0.7059545 -0.326172,-1.0195313 C 14.628472,5.4410176 14.33143,5.2004714 13.962896,5.0447192 13.577215,4.8777232 12.981571,4.8083911 12.144536,4.8083911 Z m 2.8398437,0.7304687 c 0.399303,0.011085 0.744849,0.04506 0.91211,0.1210937 0.209962,0.095437 0.362284,0.2285431 0.470703,0.4082032 a 0.15308331,0.15308331 0 0 0 0.002,0.00391 c 0.1085,0.1717934 0.167969,0.4018466 0.167969,0.7011719 0,0.2993414 -0.05876,0.5310877 -0.167969,0.7070313 -0.11179,0.180111 -0.271427,0.318903 -0.490235,0.421875 a 0.15308331,0.15308331 0 0 0 0,0.00195 c -0.170695,0.0815 -0.509101,0.116239 -0.894531,0.1308593 z M 3.8496142,7.6267504 4.6953173,9.5837817 H 2.9785204 Z m 7.6699218,1.1738281 c 0.432144,0.00973 0.806053,0.043332 1.015625,0.125 0.242061,0.094309 0.427046,0.2539719 0.56836,0.4980469 a 0.15308331,0.15308331 0 0 0 0,0.00195 c 0.142062,0.2421598 0.214843,0.5142183 0.214843,0.8281246 0,0.272751 -0.05794,0.513524 -0.173828,0.732422 -0.113854,0.211901 -0.274783,0.369727 -0.490234,0.484375 -0.215905,0.112784 -0.450997,0.169922 -0.712891,0.169922 -0.164573,0 -0.261999,-0.04091 -0.326172,-0.101563 -0.06028,-0.06379 -0.101145,-0.161247 -0.101562,-0.324218 v -0.002 l 0.0059,-0.263672 a 0.15308331,0.15308331 0 0 0 0,-0.002 0.15308331,0.15308331 0 0 0 0,-0.002 z" />
  <path
     d="M 3.9956989,4.3119155 1.4108706,10.078533 C 1.165708,10.62926 0.95966931,10.99353 0.79267386,11.171174 0.6256784,11.345273 0.4124434,11.451897 0.15306801,11.490977 v 0.197095 H 2.556719 v -0.197095 c -0.3766292,-0.02842 -0.6129221,-0.07112 -0.7088412,-0.12797 -0.1634438,-0.09593 -0.245175,-0.245126 -0.245175,-0.44765 0,-0.152783 0.049771,-0.346499 0.1492558,-0.581007 l 0.303774,-0.7034485 h 2.5529069 l 0.3836643,0.9006795 c 0.099489,0.234502 0.1527949,0.367716 0.1599047,0.399693 0.021316,0.06751 0.032056,0.133265 0.032056,0.197219 0,0.106592 -0.039159,0.188324 -0.1173284,0.245175 -0.113696,0.07817 -0.310834,0.117328 -0.5915254,0.117328 H 4.3315332 v 0.197095 H 7.8277021 V 11.490996 C 7.6074132,11.473229 7.4368724,11.409184 7.3160669,11.29904 7.1561748,11.153367 6.9518467,10.799839 6.7031327,10.238444 L 4.0969821,4.3119085 Z m 4.1837499,0.149256 v 0.197218 c 0.330439,0 0.5561142,0.03013 0.6769197,0.09053 0.1208055,0.0604 0.2042477,0.142134 0.2504374,0.245175 0.049746,0.09949 0.074628,0.344683 0.074628,0.735494 v 4.6900295 c 0,0.390842 -0.024886,0.63601 -0.074628,0.735494 -0.046191,0.09948 -0.1296319,0.181214 -0.2504374,0.245175 -0.1172537,0.0604 -0.3429289,0.09066 -0.6769197,0.09066 v 0.197094 h 3.6721392 c 1.023283,0 1.803281,-0.214946 2.339808,-0.644875 0.437032,-0.355312 0.655536,-0.804729 0.655536,-1.3483225 0,-0.515198 -0.198966,-0.93446 -0.596912,-1.257827 -0.27714,-0.227398 -0.758614,-0.421115 -1.444397,-0.581007 0.636011,-0.159892 1.080183,-0.374832 1.332455,-0.644874 0.252272,-0.273588 0.378408,-0.584416 0.378408,-0.932601 0,-0.330439 -0.09955,-0.641404 -0.298518,-0.932725 -0.198972,-0.294904 -0.470763,-0.515218 -0.81539,-0.660866 -0.344652,-0.149231 -0.930928,-0.223766 -1.758777,-0.223766 z m 2.6861702,0.404955 c 0.518751,-0.0035 0.895473,0.04805 1.129956,0.154642 0.234508,0.106593 0.413826,0.262859 0.538189,0.468941 0.127909,0.202524 0.191956,0.463704 0.191956,0.783469 0,0.319778 -0.06404,0.582786 -0.191956,0.788862 -0.127909,0.206082 -0.312601,0.365881 -0.554212,0.479584 -0.238059,0.113696 -0.609388,0.170547 -1.113902,0.170547 z m -7.5148565,1.88138 1.0765882,2.48894 H 2.2421909 Z m 7.5148565,1.380368 c 0.543625,-0.0035 0.952312,0.04805 1.225844,0.154642 0.273589,0.106593 0.488534,0.294824 0.644875,0.564854 0.156334,0.266485 0.234533,0.568524 0.234533,0.906072 0,0.2949105 -0.06404,0.5631615 -0.191957,0.8047915 -0.127909,0.238059 -0.3126,0.42104 -0.554211,0.548949 -0.238059,0.124357 -0.499239,0.18657 -0.783469,0.18657 -0.191869,0 -0.337524,-0.04794 -0.437008,-0.143876 -0.09593,-0.09949 -0.143875,-0.245262 -0.143875,-0.437131 l 0.0053,-0.26646 z"
     fill="#379dff"
     stroke="#0062ff"
     stroke-linecap="round"
     stroke-linejoin="round"
     stroke-width="0.306136"
     id="path2"
     style="stroke-width:0.306;stroke-dasharray:none" />
</svg>
