<?xml version="1.0" encoding="UTF-8" standalone="no"?>
<svg
   inkscape:export-ydpi="96"
   inkscape:export-xdpi="96"
   inkscape:export-filename="/media/klapeto/Αρχεία/WindowsXP Theme/Vectors/RASTER/code-typedef.png"
   sodipodi:docname="thread.svg"
   inkscape:version="1.2.2 (b0a8486541, 2022-12-01)"
   id="svg8"
   version="1.1"
   viewBox="0 0 16 16"
   height="16"
   width="16"
   xml:space="preserve"
   xmlns:inkscape="http://www.inkscape.org/namespaces/inkscape"
   xmlns:sodipodi="http://sodipodi.sourceforge.net/DTD/sodipodi-0.dtd"
   xmlns="http://www.w3.org/2000/svg"
   xmlns:svg="http://www.w3.org/2000/svg"
   xmlns:rdf="http://www.w3.org/1999/02/22-rdf-syntax-ns#"
   xmlns:cc="http://creativecommons.org/ns#"
   xmlns:dc="http://purl.org/dc/elements/1.1/"><defs
     id="defs2"><filter
       inkscape:collect="always"
       style="color-interpolation-filters:sRGB"
       id="filter1864"
       x="-0.10263228"
       y="-0.25893867"
       width="1.2052646"
       height="1.5178773"><feGaussianBlur
         inkscape:collect="always"
         stdDeviation="0.64186774"
         id="feGaussianBlur1866" /></filter></defs><sodipodi:namedview
     inkscape:snap-global="true"
     inkscape:bbox-paths="false"
     fit-margin-bottom="0"
     fit-margin-right="0"
     fit-margin-left="0"
     fit-margin-top="0"
     inkscape:bbox-nodes="true"
     inkscape:snap-bbox="true"
     inkscape:window-maximized="1"
     inkscape:window-y="0"
     inkscape:window-x="1280"
     inkscape:window-height="2061"
     inkscape:window-width="3840"
     units="px"
     showgrid="true"
     inkscape:document-rotation="0"
     inkscape:current-layer="layer1"
     inkscape:document-units="px"
     inkscape:cy="9.3828119"
     inkscape:cx="4.9531247"
     inkscape:zoom="64.000004"
     inkscape:pageshadow="2"
     inkscape:pageopacity="0.0"
     borderopacity="1.0"
     bordercolor="#666666"
     pagecolor="#ffffff"
     id="base"
     showguides="false"
     inkscape:pagecheckerboard="0"
     inkscape:snap-grids="true"
     inkscape:showpageshadow="2"
     inkscape:deskcolor="#d1d1d1"><inkscape:grid
       originy="0"
       originx="0"
       id="grid1504"
       type="xygrid"
       spacingy="1"
       spacingx="1"
       units="px"
       visible="true" /><inkscape:grid
       spacingy="0.5"
       spacingx="0.5"
       id="grid966"
       type="xygrid"
       originx="0"
       originy="0"
       units="px"
       visible="true" /></sodipodi:namedview><metadata
     id="metadata5"><rdf:RDF><cc:Work
         rdf:about=""><dc:format>image/svg+xml</dc:format><dc:type
           rdf:resource="http://purl.org/dc/dcmitype/StillImage" /></cc:Work></rdf:RDF></metadata><g
     transform="translate(-12.567709)"
     id="layer1"
     inkscape:groupmode="layer"
     inkscape:label="Layer 1"><path
       id="path1847"
       style="color:#000000;fill:#000000;fill-opacity:1;stroke-linecap:round;-inkscape-stroke:none;filter:url(#filter1864);opacity:0.75"
       d="m 21.483959,5.275 c -0.974998,0 -1.65233,0.6194001 -2.039063,1.171875 -0.386731,0.5524751 -0.548828,1.1015625 -0.548828,1.1015625 a 0.5,0.5 0 0 0 0.335938,0.6210938 0.5,0.5 0 0 0 0.623046,-0.3339844 c 0,0 0.126057,-0.4105496 0.410157,-0.8164063 C 20.549308,6.6132841 20.925626,6.275 21.483959,6.275 c 0.195832,0 0.405859,0.1105463 0.669922,0.3847656 0.264062,0.2742195 0.542578,0.6859385 0.830078,1.1171876 0.287499,0.4312491 0.584507,0.883205 0.943359,1.2558593 0.358853,0.3726545 0.819794,0.6914063 1.390625,0.6914063 1.866663,0 2.746094,-1.8085938 2.746094,-1.8085938 A 0.5,0.5 0 0 0 27.841381,7.24375 0.5,0.5 0 0 0 27.169506,7.4683594 c 0,0 -0.651565,1.2558594 -1.851563,1.2558594 -0.195833,0 -0.405858,-0.1105463 -0.669922,-0.3847656 C 24.383958,8.0652337 24.10349,7.6535148 23.81599,7.2222656 23.528491,6.7910166 23.233436,6.3390606 22.874584,5.9664063 22.515731,5.5937518 22.054791,5.275 21.483959,5.275 Z m -5.769532,1.5 c -0.974999,0 -1.65233,0.6194001 -2.039062,1.171875 -0.386733,0.5524751 -0.546875,1.1015625 -0.546875,1.1015625 a 0.5,0.5 0 0 0 0.333984,0.6210938 0.5,0.5 0 0 0 0.623047,-0.3339844 c 0,0 0.126057,-0.4105498 0.410156,-0.8164063 C 14.779777,8.1132841 15.156095,7.775 15.714427,7.775 c 0.195833,0 0.405859,0.1105463 0.669922,0.3847656 0.264063,0.2742195 0.544532,0.6859384 0.832032,1.1171876 0.287499,0.431249 0.582553,0.8832048 0.941406,1.2558588 0.358852,0.372655 0.819792,0.691406 1.390625,0.691406 1.866663,0 2.746094,-1.808593 2.746094,-1.808593 A 0.5,0.5 0 0 0 22.071849,8.74375 0.5,0.5 0 0 0 21.401927,8.9683594 c 0,0 -0.653517,1.2558596 -1.853515,1.2558596 -0.195833,0 -0.405858,-0.110546 -0.669922,-0.3847658 C 18.614427,9.5652337 18.335911,9.1535147 18.048412,8.7222656 17.760912,8.2910165 17.463904,7.8390606 17.105052,7.4664063 16.7462,7.0937518 16.285259,6.775 15.714427,6.775 Z" /><g
       id="g352"
       transform="translate(0,-0.025)"
       style="stroke-width:1;stroke-dasharray:none"><path
         style="fill:none;stroke:#003399;stroke-width:1;stroke-linecap:round;stroke-linejoin:miter;stroke-dasharray:none;stroke-opacity:1"
         d="m 13.356953,8.966667 c 0,0 0.575,-1.916667 2.108334,-1.916667 1.533333,0 2.3,3.45 3.833333,3.45 1.533333,0 2.3,-1.533333 2.3,-1.533333"
         id="path470"
         sodipodi:nodetypes="czzc" /><path
         style="fill:none;stroke:#ff3300;stroke-width:1;stroke-linecap:round;stroke-linejoin:miter;stroke-dasharray:none;stroke-opacity:1"
         d="m 19.126042,7.466667 c 0,0 0.575,-1.916667 2.108333,-1.916667 1.533334,0 2.3,3.45 3.833334,3.45 1.533333,0 2.3,-1.533333 2.3,-1.533333"
         id="path470-6"
         sodipodi:nodetypes="czzc" /></g></g></svg>
