<?xml version="1.0" encoding="UTF-8" standalone="no"?>
<svg
   inkscape:export-ydpi="96"
   inkscape:export-xdpi="96"
   inkscape:export-filename="/media/klapeto/Αρχεία/WindowsXP Theme/Vectors/RASTER/code-typedef.png"
   sodipodi:docname="thread-active.svg"
   inkscape:version="1.2.2 (b0a8486541, 2022-12-01)"
   id="svg8"
   version="1.1"
   viewBox="0 0 16 16"
   height="16"
   width="16"
   xml:space="preserve"
   xmlns:inkscape="http://www.inkscape.org/namespaces/inkscape"
   xmlns:sodipodi="http://sodipodi.sourceforge.net/DTD/sodipodi-0.dtd"
   xmlns="http://www.w3.org/2000/svg"
   xmlns:svg="http://www.w3.org/2000/svg"
   xmlns:rdf="http://www.w3.org/1999/02/22-rdf-syntax-ns#"
   xmlns:cc="http://creativecommons.org/ns#"
   xmlns:dc="http://purl.org/dc/elements/1.1/"><defs
     id="defs2"><linearGradient
       id="linearGradient1175"
       x1="-.79375"
       x2="-4.2333"
       y1="7.9375"
       y2="3.8365"
       gradientTransform="matrix(42.976,0,0,42.976,238.86,-125)"
       gradientUnits="userSpaceOnUse"><stop
         stop-color="#10af04"
         offset="0"
         id="stop1169"
         style="stop-color:#000000;stop-opacity:1;" /><stop
         stop-color="#74c53b"
         offset=".78261"
         id="stop1171" /><stop
         stop-color="#bbe5ae"
         offset="1"
         id="stop1173" /></linearGradient><linearGradient
       id="linearGradient1492"
       x1="-.79375"
       x2="-4.2333"
       y1="7.9375"
       y2="3.8365"
       gradientTransform="matrix(42.976,0,0,42.976,238.86,-125)"
       gradientUnits="userSpaceOnUse"><stop
         stop-color="#10af04"
         offset="0"
         id="stop284" /><stop
         stop-color="#74c53b"
         offset=".78261"
         id="stop286" /><stop
         stop-color="#bbe5ae"
         offset="1"
         id="stop288" /></linearGradient><linearGradient
       id="linearGradient1494"
       x1="-.52917"
       x2="-4.2333"
       y1="7.9375"
       y2="3.8365"
       gradientTransform="matrix(42.976,0,0,42.976,238.86,-125)"
       gradientUnits="userSpaceOnUse"><stop
         stop-color="#034501"
         offset="0"
         id="stop291" /><stop
         stop-color="#0eba0e"
         offset="1"
         id="stop293" /></linearGradient><filter
       inkscape:collect="always"
       style="color-interpolation-filters:sRGB"
       id="filter1177"
       x="-0.147"
       y="-0.147"
       width="1.294"
       height="1.294"><feGaussianBlur
         inkscape:collect="always"
         stdDeviation="0.49490478"
         id="feGaussianBlur1179" /></filter><filter
       inkscape:collect="always"
       style="color-interpolation-filters:sRGB"
       id="filter2506"
       x="-0.10263124"
       y="-0.25894527"
       width="1.2052625"
       height="1.5178905"><feGaussianBlur
         inkscape:collect="always"
         stdDeviation="0.6418842"
         id="feGaussianBlur2508" /></filter></defs><sodipodi:namedview
     inkscape:snap-global="true"
     inkscape:bbox-paths="false"
     fit-margin-bottom="0"
     fit-margin-right="0"
     fit-margin-left="0"
     fit-margin-top="0"
     inkscape:bbox-nodes="true"
     inkscape:snap-bbox="true"
     inkscape:window-maximized="1"
     inkscape:window-y="0"
     inkscape:window-x="1280"
     inkscape:window-height="2061"
     inkscape:window-width="3840"
     units="px"
     showgrid="true"
     inkscape:document-rotation="0"
     inkscape:current-layer="layer1"
     inkscape:document-units="px"
     inkscape:cy="12.070313"
     inkscape:cx="5.828125"
     inkscape:zoom="64"
     inkscape:pageshadow="2"
     inkscape:pageopacity="0.0"
     borderopacity="1.0"
     bordercolor="#666666"
     pagecolor="#ffffff"
     id="base"
     showguides="false"
     inkscape:pagecheckerboard="0"
     inkscape:snap-grids="true"
     inkscape:showpageshadow="2"
     inkscape:deskcolor="#d1d1d1"><inkscape:grid
       originy="0"
       originx="0"
       id="grid1504"
       type="xygrid"
       spacingy="1"
       spacingx="1"
       units="px"
       visible="true" /><inkscape:grid
       spacingy="0.5"
       spacingx="0.5"
       id="grid966"
       type="xygrid"
       originx="0"
       originy="0"
       units="px"
       visible="true" /></sodipodi:namedview><metadata
     id="metadata5"><rdf:RDF><cc:Work
         rdf:about=""><dc:format>image/svg+xml</dc:format><dc:type
           rdf:resource="http://purl.org/dc/dcmitype/StillImage" /></cc:Work></rdf:RDF></metadata><g
     transform="translate(-12.567709)"
     id="layer1"
     inkscape:groupmode="layer"
     inkscape:label="Layer 1"><path
       id="path2489"
       style="color:#000000;fill:#000000;fill-opacity:1;stroke-linecap:round;-inkscape-stroke:none;filter:url(#filter2506);opacity:0.75"
       d="m 21.483496,8.609 c -0.974998,0 -1.65233,0.6194001 -2.039063,1.171875 -0.386731,0.552475 -0.548828,1.101562 -0.548828,1.101562 a 0.5,0.5 0 0 0 0.335938,0.623047 0.5,0.5 0 0 0 0.623046,-0.335937 c 0,0 0.126057,-0.41055 0.410157,-0.816406 C 20.548845,9.9472836 20.925163,9.609 21.483496,9.609 c 0.195832,0 0.405859,0.1124993 0.669922,0.3867188 0.264062,0.2742192 0.542578,0.6839862 0.830078,1.1152342 0.287499,0.43125 0.584507,0.883205 0.943359,1.25586 0.358853,0.372653 0.819794,0.691406 1.390625,0.691406 1.866663,0 2.746094,-1.808594 2.746094,-1.808594 a 0.5,0.5 0 0 0 -0.222656,-0.671875 0.5,0.5 0 0 0 -0.671875,0.224609 c 0,0 -0.651565,1.25586 -1.851563,1.25586 -0.195833,0 -0.405858,-0.110546 -0.669922,-0.384766 C 24.383495,11.399234 24.103027,10.987514 23.815527,10.556266 23.528028,10.125016 23.232973,9.6730606 22.874121,9.3004062 22.515268,8.9277518 22.054328,8.609 21.483496,8.609 Z m -5.769532,1.5 c -0.974999,0 -1.65233,0.6194 -2.039062,1.171875 -0.386733,0.552475 -0.546875,1.101562 -0.546875,1.101562 a 0.5,0.5 0 0 0 0.333984,0.623047 0.5,0.5 0 0 0 0.623047,-0.335937 c 0,0 0.126057,-0.41055 0.410156,-0.816406 0.2841,-0.405857 0.660418,-0.744141 1.21875,-0.744141 0.195833,0 0.405859,0.112499 0.669922,0.386719 0.264063,0.274218 0.544532,0.683986 0.832032,1.115234 0.287499,0.43125 0.582553,0.883205 0.941406,1.25586 0.358852,0.372653 0.819792,0.691406 1.390625,0.691406 1.866663,0 2.746094,-1.808594 2.746094,-1.808594 a 0.5,0.5 0 0 0 -0.222657,-0.671875 0.5,0.5 0 0 0 -0.669922,0.224609 c 0,0 -0.653517,1.25586 -1.853515,1.25586 -0.195833,0 -0.405858,-0.110546 -0.669922,-0.384766 -0.264063,-0.274219 -0.542579,-0.685939 -0.830078,-1.117187 -0.2875,-0.43125 -0.584508,-0.883205 -0.94336,-1.25586 C 16.745737,10.427753 16.284796,10.109 15.713964,10.109 Z" /><path
       id="path1158"
       style="color:#000000;opacity:0.75;fill:#000000;fill-opacity:1;stroke-width:0.393999;stroke-linecap:round;stroke-linejoin:round;-inkscape-stroke:none;filter:url(#filter1177)"
       d="m 24.006124,0.51248048 c -2.228791,0 -4.039062,1.81222432 -4.039062,4.04101562 0,2.2287914 1.810271,4.0390625 4.039062,4.0390625 2.228792,0 4.041016,-1.8102711 4.041016,-4.0390625 0,-2.2287913 -1.812224,-4.04101562 -4.041016,-4.04101562 z" /><g
       id="g352"
       transform="translate(0,3.309375)"><path
         style="fill:none;stroke:#003399;stroke-width:1;stroke-linecap:round;stroke-linejoin:miter;stroke-dasharray:none;stroke-opacity:1"
         d="m 13.356953,8.966667 c 0,0 0.575,-1.916667 2.108334,-1.916667 1.533333,0 2.3,3.45 3.833333,3.45 1.533333,0 2.3,-1.533333 2.3,-1.533333"
         id="path470"
         sodipodi:nodetypes="czzc" /><path
         style="fill:none;stroke:#ff3300;stroke-width:1;stroke-linecap:round;stroke-linejoin:miter;stroke-dasharray:none;stroke-opacity:1"
         d="m 19.126042,7.466667 c 0,0 0.575,-1.916667 2.108333,-1.916667 1.533334,0 2.3,3.45 3.833334,3.45 1.533333,0 2.3,-1.533333 2.3,-1.533333"
         id="path470-6"
         sodipodi:nodetypes="czzc" /></g><g
       id="g1132"
       transform="translate(-17.71718,-5.9473746)"><g
         stroke-linecap="round"
         id="g304"
         transform="matrix(0.03143666,0,0,0.03143666,37.200999,5.9761075)"><circle
           cx="128"
           cy="128"
           r="122.24"
           fill="url(#linearGradient1492)"
           stroke="url(#linearGradient1494)"
           stroke-linejoin="round"
           stroke-width="10"
           id="circle298"
           style="fill:url(#linearGradient1492);stroke:url(#linearGradient1494);stroke-width:12.5331;stroke-dasharray:none" /><g
           transform="matrix(0,-42.976,-42.976,0,378.52,358.61)"
           fill="none"
           stroke="#ffffff"
           stroke-width="0.79375"
           id="g302"><path
             d="M 6.7062,4.6746 4.026,5.9083 5.0554,6.984"
             stroke-linecap="round"
             stroke-linejoin="round"
             stroke-width="0.79374"
             id="path300" /></g></g></g></g></svg>
