<?xml version="1.0" encoding="UTF-8" standalone="no"?>
<svg
   inkscape:export-ydpi="96"
   inkscape:export-xdpi="96"
   inkscape:export-filename="/media/klapeto/Αρχεία/WindowsXP Theme/Vectors/RASTER/code-typedef.png"
   sodipodi:docname="thread-suspended.svg"
   inkscape:version="1.2.2 (b0a8486541, 2022-12-01)"
   id="svg8"
   version="1.1"
   viewBox="0 0 16 16"
   height="16"
   width="16"
   xml:space="preserve"
   xmlns:inkscape="http://www.inkscape.org/namespaces/inkscape"
   xmlns:sodipodi="http://sodipodi.sourceforge.net/DTD/sodipodi-0.dtd"
   xmlns:xlink="http://www.w3.org/1999/xlink"
   xmlns="http://www.w3.org/2000/svg"
   xmlns:svg="http://www.w3.org/2000/svg"
   xmlns:rdf="http://www.w3.org/1999/02/22-rdf-syntax-ns#"
   xmlns:cc="http://creativecommons.org/ns#"
   xmlns:dc="http://purl.org/dc/elements/1.1/"><defs
     id="defs2"><linearGradient
       inkscape:collect="always"
       id="linearGradient1024"><stop
         style="stop-color:#003399;stop-opacity:1"
         offset="0"
         id="stop1020" /><stop
         style="stop-color:#096dd0;stop-opacity:1"
         offset="1"
         id="stop1022" /></linearGradient><linearGradient
       inkscape:collect="always"
       id="linearGradient1018"><stop
         style="stop-color:#0066cc;stop-opacity:1"
         offset="0"
         id="stop1012" /><stop
         id="stop1014"
         offset="0.69999999"
         style="stop-color:#0076dc;stop-opacity:1" /><stop
         style="stop-color:#5eb8ff;stop-opacity:1"
         offset="1"
         id="stop1016" /></linearGradient><linearGradient
       inkscape:collect="always"
       xlink:href="#linearGradient1018"
       id="linearGradient1492-3"
       x1="-0.98493528"
       y1="7.7993326"
       x2="-4.1303921"
       y2="3.9215407"
       gradientUnits="userSpaceOnUse"
       gradientTransform="matrix(2.6963548,0,0,2.6963548,29.104303,-7.7780662)" /><linearGradient
       inkscape:collect="always"
       xlink:href="#linearGradient1024"
       id="linearGradient903-3"
       x1="28.650116"
       y1="12.930144"
       x2="18.283899"
       y2="1.4135063"
       gradientUnits="userSpaceOnUse"
       gradientTransform="matrix(0.97954576,0,0,0.97954576,0.3650129,-0.063619)" /><filter
       inkscape:collect="always"
       style="color-interpolation-filters:sRGB"
       id="filter915"
       x="-0.147"
       y="-0.147"
       width="1.294"
       height="1.294"><feGaussianBlur
         inkscape:collect="always"
         stdDeviation="0.49"
         id="feGaussianBlur917" /></filter><filter
       inkscape:collect="always"
       style="color-interpolation-filters:sRGB"
       id="filter2506"
       x="-0.10263124"
       y="-0.25894527"
       width="1.2052625"
       height="1.5178905"><feGaussianBlur
         inkscape:collect="always"
         stdDeviation="0.6418842"
         id="feGaussianBlur2508" /></filter></defs><sodipodi:namedview
     inkscape:snap-global="true"
     inkscape:bbox-paths="false"
     fit-margin-bottom="0"
     fit-margin-right="0"
     fit-margin-left="0"
     fit-margin-top="0"
     inkscape:bbox-nodes="true"
     inkscape:snap-bbox="true"
     inkscape:window-maximized="1"
     inkscape:window-y="0"
     inkscape:window-x="1280"
     inkscape:window-height="2061"
     inkscape:window-width="3840"
     units="px"
     showgrid="true"
     inkscape:document-rotation="0"
     inkscape:current-layer="layer1"
     inkscape:document-units="px"
     inkscape:cy="9.3828119"
     inkscape:cx="4.7499997"
     inkscape:zoom="64.000004"
     inkscape:pageshadow="2"
     inkscape:pageopacity="0.0"
     borderopacity="1.0"
     bordercolor="#666666"
     pagecolor="#ffffff"
     id="base"
     showguides="false"
     inkscape:pagecheckerboard="0"
     inkscape:snap-grids="true"
     inkscape:showpageshadow="2"
     inkscape:deskcolor="#d1d1d1"><inkscape:grid
       originy="0"
       originx="0"
       id="grid1504"
       type="xygrid"
       spacingy="1"
       spacingx="1"
       units="px"
       visible="true" /><inkscape:grid
       spacingy="0.5"
       spacingx="0.5"
       id="grid966"
       type="xygrid"
       originx="0"
       originy="0"
       units="px"
       visible="true" /></sodipodi:namedview><metadata
     id="metadata5"><rdf:RDF><cc:Work
         rdf:about=""><dc:format>image/svg+xml</dc:format><dc:type
           rdf:resource="http://purl.org/dc/dcmitype/StillImage" /></cc:Work></rdf:RDF></metadata><g
     transform="translate(-12.567709)"
     id="layer1"
     inkscape:groupmode="layer"
     inkscape:label="Layer 1"><path
       id="path262"
       style="fill:#000000;fill-opacity:1;stroke:none;stroke-width:0.328421;stroke-linecap:butt;stroke-linejoin:miter;stroke-miterlimit:4;stroke-dasharray:none;stroke-opacity:1;filter:url(#filter915);opacity:0.75"
       d="m 24.561709,0.5 c -2.206804,0 -4,1.793196 -4,4 0,2.206804 1.793196,4 4,4 2.206803,0 4,-1.793196 4,-4 0,-2.206804 -1.793197,-3.99999999 -4,-4 z" /><g
       inkscape:label="Layer 1"
       id="layer1-5"
       transform="matrix(0.53333333,0,0,0.53333333,13.360215,5.9572709e-8)"><path
         sodipodi:nodetypes="cccc"
         id="path905"
         d="M 18.559604,10.858372 V 4.0212726 l 4.099453,3.6464528 z"
         style="fill:#ffffff;fill-opacity:1;stroke:none;stroke-width:0.61579;stroke-linecap:butt;stroke-linejoin:miter;stroke-miterlimit:4;stroke-dasharray:none;stroke-opacity:1" /><g
         transform="matrix(0.92983435,0,0,0.92983435,-0.52677181,-0.02730204)"
         id="g1078"><circle
           r="7.6691608"
           cy="8.095315"
           cx="22.148548"
           id="path1464-9"
           style="fill:url(#linearGradient1492-3);fill-opacity:1;stroke:url(#linearGradient903-3);stroke-width:0.793584;stroke-linecap:round;stroke-linejoin:round;stroke-miterlimit:4;stroke-dasharray:none;stroke-opacity:1" /><g
           id="g1032"
           transform="translate(0.08083863,-0.40468502)"><path
             id="path1026"
             d="M 20.31771,12 V 5.0000001"
             style="fill:none;stroke:#ffffff;stroke-width:2;stroke-linecap:butt;stroke-linejoin:miter;stroke-miterlimit:4;stroke-dasharray:none;stroke-opacity:1" /><path
             id="path1028"
             d="M 23.817709,12 V 5"
             style="fill:none;stroke:#ffffff;stroke-width:2;stroke-linecap:butt;stroke-linejoin:miter;stroke-miterlimit:4;stroke-dasharray:none;stroke-opacity:1" /></g></g></g><path
       id="path2489"
       style="color:#000000;opacity:0.75;fill:#000000;fill-opacity:1;stroke-linecap:round;-inkscape-stroke:none;filter:url(#filter2506)"
       d="m 21.483496,8.609 c -0.974998,0 -1.65233,0.6194001 -2.039063,1.171875 -0.386731,0.552475 -0.548828,1.101562 -0.548828,1.101562 a 0.5,0.5 0 0 0 0.335938,0.623047 0.5,0.5 0 0 0 0.623046,-0.335937 c 0,0 0.126057,-0.41055 0.410157,-0.816406 C 20.548845,9.9472836 20.925163,9.609 21.483496,9.609 c 0.195832,0 0.405859,0.1124993 0.669922,0.3867188 0.264062,0.2742192 0.542578,0.6839862 0.830078,1.1152342 0.287499,0.43125 0.584507,0.883205 0.943359,1.25586 0.358853,0.372653 0.819794,0.691406 1.390625,0.691406 1.866663,0 2.746094,-1.808594 2.746094,-1.808594 a 0.5,0.5 0 0 0 -0.222656,-0.671875 0.5,0.5 0 0 0 -0.671875,0.224609 c 0,0 -0.651565,1.25586 -1.851563,1.25586 -0.195833,0 -0.405858,-0.110546 -0.669922,-0.384766 C 24.383495,11.399234 24.103027,10.987514 23.815527,10.556266 23.528028,10.125016 23.232973,9.6730606 22.874121,9.3004062 22.515268,8.9277518 22.054328,8.609 21.483496,8.609 Z m -5.769532,1.5 c -0.974999,0 -1.65233,0.6194 -2.039062,1.171875 -0.386733,0.552475 -0.546875,1.101562 -0.546875,1.101562 a 0.5,0.5 0 0 0 0.333984,0.623047 0.5,0.5 0 0 0 0.623047,-0.335937 c 0,0 0.126057,-0.41055 0.410156,-0.816406 0.2841,-0.405857 0.660418,-0.744141 1.21875,-0.744141 0.195833,0 0.405859,0.112499 0.669922,0.386719 0.264063,0.274218 0.544532,0.683986 0.832032,1.115234 0.287499,0.43125 0.582553,0.883205 0.941406,1.25586 0.358852,0.372653 0.819792,0.691406 1.390625,0.691406 1.866663,0 2.746094,-1.808594 2.746094,-1.808594 a 0.5,0.5 0 0 0 -0.222657,-0.671875 0.5,0.5 0 0 0 -0.669922,0.224609 c 0,0 -0.653517,1.25586 -1.853515,1.25586 -0.195833,0 -0.405858,-0.110546 -0.669922,-0.384766 -0.264063,-0.274219 -0.542579,-0.685939 -0.830078,-1.117187 -0.2875,-0.43125 -0.584508,-0.883205 -0.94336,-1.25586 C 16.745737,10.427753 16.284796,10.109 15.713964,10.109 Z" /><g
       id="g352"
       transform="translate(0,3.309375)"><path
         style="fill:none;stroke:#003399;stroke-width:1;stroke-linecap:round;stroke-linejoin:miter;stroke-dasharray:none;stroke-opacity:1"
         d="m 13.356953,8.966667 c 0,0 0.575,-1.916667 2.108334,-1.916667 1.533333,0 2.3,3.45 3.833333,3.45 1.533333,0 2.3,-1.533333 2.3,-1.533333"
         id="path470"
         sodipodi:nodetypes="czzc" /><path
         style="fill:none;stroke:#ff3300;stroke-width:1;stroke-linecap:round;stroke-linejoin:miter;stroke-dasharray:none;stroke-opacity:1"
         d="m 19.126042,7.466667 c 0,0 0.575,-1.916667 2.108333,-1.916667 1.533334,0 2.3,3.45 3.833334,3.45 1.533333,0 2.3,-1.533333 2.3,-1.533333"
         id="path470-6"
         sodipodi:nodetypes="czzc" /></g></g></svg>
