<?xml version="1.0" encoding="UTF-8" standalone="no"?>
<svg
   width="16"
   height="16"
   viewBox="0 0 16 16"
   version="1.1"
   id="svg8"
   inkscape:version="1.2.2 (b0a8486541, 2022-12-01)"
   sodipodi:docname="undo.svg"
   inkscape:export-filename="edit-undo.png"
   inkscape:export-xdpi="36"
   inkscape:export-ydpi="36"
   xmlns:inkscape="http://www.inkscape.org/namespaces/inkscape"
   xmlns:sodipodi="http://sodipodi.sourceforge.net/DTD/sodipodi-0.dtd"
   xmlns:xlink="http://www.w3.org/1999/xlink"
   xmlns="http://www.w3.org/2000/svg"
   xmlns:svg="http://www.w3.org/2000/svg"
   xmlns:rdf="http://www.w3.org/1999/02/22-rdf-syntax-ns#"
   xmlns:cc="http://creativecommons.org/ns#"
   xmlns:dc="http://purl.org/dc/elements/1.1/">
  <defs
     id="defs2">
    <linearGradient
       inkscape:collect="always"
       id="linearGradient893">
      <stop
         style="stop-color:#0066cc;stop-opacity:1"
         offset="0"
         id="stop889" />
      <stop
         style="stop-color:#99ccff;stop-opacity:1"
         offset="1"
         id="stop891" />
    </linearGradient>
    <linearGradient
       gradientTransform="matrix(2.6000744,0,0,2.6000744,-172.99853,-142.50045)"
       gradientUnits="userSpaceOnUse"
       y2="89.703362"
       x2="102.40325"
       y1="92.175613"
       x1="104.18553"
       id="linearGradient895-5"
       xlink:href="#linearGradient893"
       inkscape:collect="always" />
    <filter
       inkscape:collect="always"
       style="color-interpolation-filters:sRGB"
       id="filter1021"
       x="-0.14098355"
       y="-0.15355282"
       width="1.2819671"
       height="1.3071056">
      <feGaussianBlur
         inkscape:collect="always"
         stdDeviation="0.87804972"
         id="feGaussianBlur1023" />
    </filter>
  </defs>
  <sodipodi:namedview
     id="base"
     pagecolor="#ffffff"
     bordercolor="#666666"
     borderopacity="1.0"
     inkscape:pageopacity="0.0"
     inkscape:pageshadow="2"
     inkscape:zoom="46.025888"
     inkscape:cx="6.713613"
     inkscape:cy="12.004114"
     inkscape:document-units="px"
     inkscape:current-layer="layer1"
     inkscape:document-rotation="0"
     showgrid="false"
     units="px"
     fit-margin-top="2"
     fit-margin-left="2"
     fit-margin-bottom="2"
     fit-margin-right="2"
     inkscape:window-width="3840"
     inkscape:window-height="2061"
     inkscape:window-x="1280"
     inkscape:window-y="0"
     inkscape:window-maximized="1"
     inkscape:snap-bbox="true"
     inkscape:snap-smooth-nodes="true"
     inkscape:pagecheckerboard="0"
     scale-x="1"
     inkscape:showpageshadow="2"
     inkscape:deskcolor="#d1d1d1">
    <inkscape:grid
       type="xygrid"
       id="grid847"
       originx="0"
       originy="0"
       spacingy="1"
       spacingx="1"
       units="px"
       visible="false" />
    <inkscape:grid
       spacingy="0.13229167"
       spacingx="0.13229167"
       id="grid873"
       type="xygrid"
       originx="0"
       originy="0"
       units="px"
       visible="false" />
  </sodipodi:namedview>
  <metadata
     id="metadata5">
    <rdf:RDF>
      <cc:Work
         rdf:about="">
        <dc:format>image/svg+xml</dc:format>
        <dc:type
           rdf:resource="http://purl.org/dc/dcmitype/StillImage" />
      </cc:Work>
    </rdf:RDF>
  </metadata>
  <g
     inkscape:label="Layer 1"
     inkscape:groupmode="layer"
     id="layer1"
     transform="translate(-91.93755,-88.636871)">
    <path
       id="path900"
       style="color:#000000;opacity:0.75;fill:#000000;fill-opacity:1;stroke-width:0.499998;-inkscape-stroke:none;filter:url(#filter1021)"
       d="m 93.890994,90.275702 c -0.820287,0 -1.453125,0.747315 -1.453125,1.626953 v 5.675781 c 0,0.820299 0.745364,1.453125 1.625,1.453125 h 5.503906 c 0.879635,0 1.626955,-0.63282 1.626955,-1.453125 0,-0.820294 -0.74732,-1.455078 -1.626955,-1.455078 H 98.0824 c 1.057442,-1.162242 2.52252,-2.595703 4.23633,-2.595703 0.62544,0 1.06318,0.225128 1.36133,0.560547 0.29815,0.335419 0.45312,0.793511 0.45312,1.253906 0,1.046806 -0.75752,2.384898 -1.61523,3.53125 -0.85771,1.146352 -1.78066,2.088152 -2.11328,2.503912 -0.623354,0.77919 -0.43982,1.72484 0.13086,2.23437 0.57067,0.50953 1.54163,0.58142 2.30468,-0.18164 0.35872,-0.35871 1.47908,-1.56487 2.52344,-3.08789 1.04436,-1.523024 2.02149,-3.3503 2.02149,-5.000002 0,-1.172928 -0.26567,-2.422399 -1.04493,-3.396484 -0.77925,-0.974084 -2.07131,-1.64364 -4.01757,-1.669922 -3.107886,-0.04197 -5.561427,2.507943 -6.976568,4.095703 v -2.46875 c 0,-0.879632 -0.63477,-1.626953 -1.455078,-1.626953 z" />
    <path
       sodipodi:nodetypes="sssssscsssssssscs"
       d="m 101.81864,90.02583 c 3.78332,0.05109 4.81558,2.545481 4.81558,4.815554 0,3.095709 -3.78363,7.223326 -4.47159,7.911266 -1.37585,1.37587 -3.164495,-0.34397 -2.06381,-1.71984 0.60777,-0.7597 3.78363,-3.869817 3.78363,-6.191426 0,-1.031902 -0.68793,-2.06381 -2.06381,-2.06381 -2.070538,0 -3.79743,1.895098 -4.851812,3.095716 h 2.10008 c 0.762237,0 1.375882,0.536937 1.375882,1.203888 0,0.666965 -0.613645,1.203885 -1.375882,1.203885 h -5.503499 c -0.762238,0 -1.37586,-0.53692 -1.37586,-1.203885 v -5.675474 c 0,-0.762234 0.536946,-1.375874 1.203889,-1.375874 0.66697,0 1.203886,0.61364 1.203886,1.375874 v 3.058092 c 1.319045,-1.50681 4.02151,-4.477209 7.223316,-4.433966 z"
       style="fill:url(#linearGradient895-5);fill-opacity:1;stroke:#003399;stroke-width:0.499998;stroke-linecap:butt;stroke-linejoin:miter;stroke-miterlimit:4;stroke-dasharray:none;stroke-opacity:1"
       id="path887-2" />
  </g>
</svg>
