<?xml version="1.0" encoding="UTF-8" standalone="no"?>
<svg
   version="1.1"
   viewBox="0 0 16 16"
   id="svg90"
   sodipodi:docname="unlock.svg"
   width="16"
   height="16"
   inkscape:version="1.2.2 (b0a8486541, 2022-12-01)"
   xmlns:inkscape="http://www.inkscape.org/namespaces/inkscape"
   xmlns:sodipodi="http://sodipodi.sourceforge.net/DTD/sodipodi-0.dtd"
   xmlns:xlink="http://www.w3.org/1999/xlink"
   xmlns="http://www.w3.org/2000/svg"
   xmlns:svg="http://www.w3.org/2000/svg">
  <sodipodi:namedview
     id="namedview92"
     pagecolor="#ffffff"
     bordercolor="#666666"
     borderopacity="1.0"
     inkscape:showpageshadow="2"
     inkscape:pageopacity="0.0"
     inkscape:pagecheckerboard="0"
     inkscape:deskcolor="#d1d1d1"
     showgrid="false"
     inkscape:zoom="59"
     inkscape:cx="8.5169492"
     inkscape:cy="9.3644068"
     inkscape:window-width="3840"
     inkscape:window-height="2061"
     inkscape:window-x="1280"
     inkscape:window-y="0"
     inkscape:window-maximized="1"
     inkscape:current-layer="svg90" />
  <defs
     id="defs56">
    <linearGradient
       id="linearGradient1327"
       x1="57.068001"
       x2="57.068001"
       y1="41"
       y2="24"
       gradientTransform="translate(12.5)"
       gradientUnits="userSpaceOnUse">
      <stop
         stop-color="#d8a518"
         offset="0"
         id="stop2" />
      <stop
         stop-color="#ffec86"
         offset="1"
         id="stop4" />
    </linearGradient>
    <linearGradient
       id="linearGradient1319"
       x1="62.568001"
       x2="62.568001"
       y1="43.5"
       y2="22.5"
       gradientTransform="translate(12.5)"
       gradientUnits="userSpaceOnUse">
      <stop
         stop-color="#ffd06a"
         offset="0"
         id="stop7" />
      <stop
         stop-color="#ffffc6"
         offset="1"
         id="stop9" />
    </linearGradient>
    <linearGradient
       id="linearGradient1341"
       x1="60.817001"
       x2="60.817001"
       y1="43.862"
       y2="25.459"
       gradientTransform="translate(12.5)"
       gradientUnits="userSpaceOnUse">
      <stop
         stop-color="#fffff0"
         offset="0"
         id="stop12" />
      <stop
         stop-color="#fffd9d"
         offset=".5"
         id="stop14" />
      <stop
         stop-color="#fefbec"
         offset="1"
         id="stop16" />
    </linearGradient>
    <linearGradient
       id="linearGradient1208"
       x1="71.568001"
       x2="96.568001"
       y1="31.061001"
       y2="31.061001"
       gradientUnits="userSpaceOnUse"
       xlink:href="#linearGradient1206" />
    <linearGradient
       id="linearGradient1206">
      <stop
         stop-color="#e4bc4d"
         offset="0"
         id="stop20" />
      <stop
         stop-color="#c90"
         offset="1"
         id="stop22" />
    </linearGradient>
    <linearGradient
       id="linearGradient1300"
       x1="57.543999"
       x2="82.568001"
       y1="18.976999"
       y2="18.976999"
       gradientTransform="translate(12.5)"
       gradientUnits="userSpaceOnUse">
      <stop
         stop-color="#ff9"
         offset="0"
         id="stop25" />
      <stop
         stop-color="#ffcd67"
         offset=".5"
         id="stop27" />
      <stop
         stop-color="#d3a00f"
         offset="1"
         id="stop29" />
    </linearGradient>
    <linearGradient
       id="linearGradient1216"
       x1="67.568001"
       x2="96.568001"
       y1="18.976999"
       y2="18.976999"
       gradientUnits="userSpaceOnUse"
       xlink:href="#linearGradient1206" />
    <linearGradient
       id="linearGradient1152"
       x1="41.595001"
       x2="47.459999"
       y1="30.490999"
       y2="31.483"
       gradientTransform="translate(25.517,2.015)"
       gradientUnits="userSpaceOnUse"
       xlink:href="#linearGradient1150" />
    <linearGradient
       id="linearGradient1150">
      <stop
         stop-color="#8d6420"
         offset="0"
         id="stop34" />
      <stop
         stop-color="#a77d35"
         offset="1"
         id="stop36" />
    </linearGradient>
    <linearGradient
       id="linearGradient1152-6"
       x1="41.595001"
       x2="47.459999"
       y1="30.490999"
       y2="31.483"
       gradientTransform="translate(40.722,1.2997)"
       gradientUnits="userSpaceOnUse"
       xlink:href="#linearGradient1150" />
    <linearGradient
       id="linearGradient1282"
       x1="70.568001"
       x2="70.568001"
       y1="21"
       y2="3"
       gradientTransform="translate(12.5)"
       gradientUnits="userSpaceOnUse">
      <stop
         stop-color="#d3a00f"
         offset="0"
         id="stop40" />
      <stop
         stop-color="#fc6"
         offset=".5"
         id="stop42" />
      <stop
         stop-color="#ff9"
         offset="1"
         id="stop44" />
    </linearGradient>
    <linearGradient
       id="linearGradient1224"
       x1="78.568001"
       x2="78.568001"
       y1="2"
       y2="21"
       gradientUnits="userSpaceOnUse"
       xlink:href="#linearGradient1206" />
    <linearGradient
       id="linearGradient1367"
       x1="53.068001"
       x2="53.068001"
       y1="74.257004"
       y2="64.257004"
       gradientTransform="translate(32.105,-36.757)"
       gradientUnits="userSpaceOnUse">
      <stop
         stop-color="#daa943"
         offset="0"
         id="stop48" />
      <stop
         stop-color="#817a69"
         offset="1"
         id="stop50" />
    </linearGradient>
    <filter
       id="filter894"
       x="-0.15435494"
       y="-0.10206628"
       width="1.3087099"
       height="1.2041326"
       color-interpolation-filters="sRGB">
      <feGaussianBlur
         stdDeviation="10.292057"
         id="feGaussianBlur53" />
    </filter>
    <filter
       inkscape:collect="always"
       style="color-interpolation-filters:sRGB"
       id="filter1378"
       x="-0.1846741"
       y="-0.122092"
       width="1.3693482"
       height="1.244184">
      <feGaussianBlur
         inkscape:collect="always"
         stdDeviation="0.76317158"
         id="feGaussianBlur1380" />
    </filter>
  </defs>
  <path
     id="path1262"
     style="opacity:0.75;fill:#000000;fill-opacity:1;stroke-width:0.342031;stroke-dasharray:none;filter:url(#filter1378)"
     d="m 8.3472496,0.49971669 c -0.046254,0.00151 -0.091476,0.005095 -0.1367187,0.009766 C 7.3489682,0.59844343 6.6241113,0.83020649 6.1011559,1.1696386 5.5782005,1.5090707 5.2495934,1.9722502 5.2495934,2.4997167 v 0.6484375 c 0,0.085508 0.041352,0.1741177 0.099609,0.2285156 0.058258,0.054398 0.1261117,0.081538 0.1933594,0.097656 0.1344954,0.032237 0.2787805,0.023587 0.4238281,-0.00391 C 6.1114382,3.4429342 6.2546956,3.394466 6.3745934,3.3239355 6.4944912,3.2534048 6.618734,3.1491577 6.618734,2.9762792 V 2.6715917 c 0,-0.065096 0.022634,-0.1088981 0.089844,-0.1679688 C 6.7757871,2.4445522 6.8882837,2.3839787 7.0308434,2.3337011 7.3159628,2.2331458 7.7108512,2.1690445 8.0757653,2.1169042 8.6104118,2.0405261 9.1939655,2.2728341 9.6402184,2.6540136 10.086471,3.0351931 10.380453,3.5590853 10.380453,3.9997167 v 0.546875 C 9.3434536,4.6395331 8.1930865,4.8581037 7.1284996,5.1559667 6.3084524,5.3854095 5.5402528,5.6620172 4.9175622,5.9684667 4.2948716,6.2749162 3.8145977,6.6044455 3.5679528,6.9860448 a 0.1710326,0.1710326 0 0 0 -0.025391,0.091797 h -0.00195 v 6.4980472 c 0,0.351531 0.2358353,0.77114 0.5273438,1.152344 0.1457541,0.1906 0.3066216,0.365424 0.4746094,0.498046 0.160035,0.126344 0.3260303,0.219825 0.5097656,0.228516 a 0.1710326,0.1710326 0 0 0 0.00195,0.002 c 1.2586157,0.179803 3.2271559,-0.216313 4.9531254,-0.798828 0.862984,-0.291257 1.662826,-0.631214 2.27539,-0.978515 0.612566,-0.347303 1.054571,-0.678303 1.169922,-1.082032 a 0.1710326,0.1710326 0 0 0 0.0059,-0.04687 V 6.0622167 a 0.1710326,0.1710326 0 0 0 0,-0.00977 0.1710155,0.1710155 0 0 0 -0.0039,-0.037109 c -0.0092,-0.1318428 -0.0628,-0.2577006 -0.140672,-0.3984335 -0.08524,-0.1540551 -0.202818,-0.3184597 -0.341797,-0.4746094 -0.277956,-0.3122993 -0.637,-0.6019711 -1.041015,-0.6289062 -0.05888,-0.00393 -0.120714,-0.00531 -0.181641,-0.00781 V 3.3161229 c 0,-0.7690416 -0.551427,-1.4946058 -1.251953,-2.0195312 C 9.8408972,0.80447419 9.0410605,0.47707263 8.3472496,0.49971669 Z" />
  <g
     transform="matrix(0.3420306,0,0,0.3420306,-20.069767,-0.43341768)"
     id="g86"
     style="stroke-width:1.00000003;stroke-dasharray:none">
    <path
       d="m 68.068,20.5 v 19 c 0,1.5 2.5,5 4,5 v -20 c -1.131,-0.31087 -3.4561,-3.0983 -4,-4 z"
       fill="url(#linearGradient1327)"
       id="path60"
       style="fill:url(#linearGradient1327);stroke-width:1.00000003;stroke-dasharray:none" />
    <path
       d="m 72.068,24.5 v 20 c 7,1 23,-4.5 24,-8 v -19"
       fill="url(#linearGradient1319)"
       id="path62"
       style="fill:url(#linearGradient1319);stroke-width:1.00000003;stroke-dasharray:none" />
    <g
       fill="none"
       id="g70"
       style="stroke-width:1.00000003;stroke-dasharray:none">
      <path
         d="m 96.068,19 c -2.1333,1.6271 -16.5,6.5 -23,6.5 v 19"
         stroke="url(#linearGradient1341)"
         stroke-width="1.5"
         id="path64"
         style="stroke:url(#linearGradient1341);stroke-width:1.00000003;stroke-dasharray:none" />
      <path
         d="m 68.068,20.5 v 19 c 0,1.5 2.5,5 4,5"
         stroke="#d09d07"
         stroke-width="1px"
         id="path66"
         style="stroke-width:1.00000003;stroke-dasharray:none" />
      <path
         d="m 72.068,24.5 v 20 c 7,1 23,-4.5 24,-8 v -19"
         stroke="url(#linearGradient1208)"
         stroke-linecap="round"
         stroke-linejoin="round"
         stroke-width="1px"
         id="path68"
         style="stroke:url(#linearGradient1208);stroke-width:1.00000003;stroke-dasharray:none" />
    </g>
    <g
       id="g84"
       style="stroke-width:1.00000003;stroke-dasharray:none">
      <g
         stroke-linecap="round"
         stroke-linejoin="round"
         id="g80"
         style="stroke-width:1.00000003;stroke-dasharray:none">
        <path
           d="m 72.068,24.5 c -1,0 -3.5,-2.5 -4,-4 2.5,-3.8679 16.5,-7.5 24,-7 1.8814,0.12543 4,3 4,4 -1.1547,2 -15.667,7 -24,7 z"
           fill="url(#linearGradient1300)"
           stroke="url(#linearGradient1216)"
           stroke-width="1px"
           id="path72"
           style="fill:url(#linearGradient1300);stroke:url(#linearGradient1216);stroke-width:1.00000003;stroke-dasharray:none" />
        <ellipse
           transform="rotate(-9.5941)"
           cx="69.976997"
           cy="33.498001"
           rx="3.0142"
           ry="1.814"
           fill="url(#linearGradient1152)"
           fill-rule="evenodd"
           stroke-width="5"
           id="ellipse74"
           style="fill:url(#linearGradient1152);stroke-width:1.00000003;stroke-dasharray:none" />
        <ellipse
           transform="rotate(-9.5941)"
           cx="85.181999"
           cy="32.782001"
           rx="3.1270001"
           ry="1.814"
           fill="url(#linearGradient1152-6)"
           fill-rule="evenodd"
           stroke-width="5"
           id="ellipse76"
           style="fill:url(#linearGradient1152-6);stroke-width:1.00000003;stroke-dasharray:none" />
        <path
           d="M 76.068,8.5106612 V 7.6174 c 0,-1.3772 2.5447,-1.811 4.6891,-2.1174 3.5,-0.5 7.3109,3 7.3109,6 v 7 c 0,1 3,0 3,-1 v -8 c 0,-4 -5.9631,-8.1005 -9.7919,-7.7052 -4.9178,0.50779 -8.2081,2.6484 -8.2081,5.3226 v 1.8932612 c 0,0.9999998 3,0.36287 3,-0.5 z"
           fill="url(#linearGradient1282)"
           stroke="url(#linearGradient1224)"
           stroke-width="1px"
           id="path78"
           style="fill:url(#linearGradient1282);stroke:url(#linearGradient1224);stroke-width:1;stroke-dasharray:none"
           sodipodi:nodetypes="sscsssscsss" />
      </g>
      <path
         d="m 86.568,26.724 -2.5,0.77616 v 3.5 c -1.0617,0.47721 -1.6692,1.326 -1.5098,2.1094 0.1237,0.60532 0.68922,1.0794 1.5098,1.2656 v 3.625 l 2.5,-0.73661 v -3.1814 c 1.0354,-0.48218 1.621,-1.3187 1.4629,-2.0898 -0.1215,-0.59274 -0.667,-1.0603 -1.4629,-1.2539 v -0.20703 z"
         fill="url(#linearGradient1367)"
         id="path82"
         style="fill:url(#linearGradient1367);stroke-width:1.00000003;stroke-dasharray:none" />
    </g>
  </g>
</svg>
