<?xml version="1.0" encoding="UTF-8" standalone="no"?>
<svg
   version="1.1"
   viewBox="0 0 16 16"
   id="svg21"
   sodipodi:docname="user-control.svg"
   inkscape:version="1.3.2 (1:1.3.2+202311252150+091e20ef0f)"
   width="16"
   height="16"
   xml:space="preserve"
   xmlns:inkscape="http://www.inkscape.org/namespaces/inkscape"
   xmlns:sodipodi="http://sodipodi.sourceforge.net/DTD/sodipodi-0.dtd"
   xmlns:xlink="http://www.w3.org/1999/xlink"
   xmlns="http://www.w3.org/2000/svg"
   xmlns:svg="http://www.w3.org/2000/svg"><sodipodi:namedview
     id="namedview21"
     pagecolor="#ffffff"
     bordercolor="#000000"
     borderopacity="0.25"
     inkscape:showpageshadow="2"
     inkscape:pageopacity="0.0"
     inkscape:pagecheckerboard="0"
     inkscape:deskcolor="#d1d1d1"
     inkscape:zoom="22.627417"
     inkscape:cx="-2.0992233"
     inkscape:cy="4.4194174"
     inkscape:window-width="2123"
     inkscape:window-height="1671"
     inkscape:window-x="4659"
     inkscape:window-y="153"
     inkscape:window-maximized="0"
     inkscape:current-layer="svg21"
     inkscape:lockguides="true" /><defs
     id="defs6"><filter
       id="filter942"
       x="-0.12287942"
       y="-0.12287942"
       width="1.2457588"
       height="1.2457588"
       color-interpolation-filters="sRGB"><feGaussianBlur
         stdDeviation="6.5536"
         id="feGaussianBlur1" /></filter><linearGradient
       id="linearGradient1633"
       x1="-27.931999"
       x2="-27.931999"
       y1="12"
       y2="8"
       gradientTransform="translate(-17.5)"
       gradientUnits="userSpaceOnUse"><stop
         stop-color="#d5d3c7"
         offset="0"
         id="stop1" /><stop
         stop-color="#dadad8"
         offset="1"
         id="stop2" /></linearGradient><linearGradient
       id="linearGradient1635"
       x1="-44.910999"
       x2="-28.795"
       y1="14.814"
       y2="6.5167999"
       gradientUnits="userSpaceOnUse"><stop
         stop-color="#e9e3ca"
         offset="0"
         id="stop3" /><stop
         stop-color="#fffffd"
         offset="1"
         id="stop4" /></linearGradient><linearGradient
       id="linearGradient1637"
       x1="-51.006001"
       x2="-22.726999"
       y1="22.528999"
       y2="22.528999"
       gradientTransform="matrix(-1,0,0,1,-73.865,-0.057256)"
       gradientUnits="userSpaceOnUse"><stop
         stop-color="#fffff6"
         offset="0"
         id="stop5" /><stop
         stop-color="#f5f3e7"
         offset="1"
         id="stop6" /></linearGradient><filter
       id="filter877"
       x="-0.1159434"
       y="-0.13070039"
       width="1.2318868"
       height="1.2614008"
       color-interpolation-filters="sRGB"><feGaussianBlur
         stdDeviation="9.66195"
         id="feGaussianBlur6" /></filter><radialGradient
       spreadMethod="pad"
       r="819.20001"
       id="radialGradient18"
       gradientUnits="userSpaceOnUse"
       gradientTransform="matrix(0.0208,0,0,0.0208,11.718027,21.957457)"
       cy="0"
       cx="0"><stop
         id="stop17"
         stop-color="#ccffcc"
         offset="0"
         style="stop-color:#000000;stop-opacity:1;" /><stop
         id="stop18"
         stop-color="#009900"
         offset="1.0" /></radialGradient><radialGradient
       spreadMethod="pad"
       r="819.20001"
       id="gradient0"
       gradientUnits="userSpaceOnUse"
       gradientTransform="matrix(0.0208,0,0,0.0208,11.718027,21.957457)"
       cy="0"
       cx="0"><stop
         id="stop51"
         stop-color="#ccffcc"
         offset="0.0" /><stop
         id="stop53"
         stop-color="#009900"
         offset="1.0" /></radialGradient><linearGradient
       x2="819.20001"
       x1="-819.20001"
       spreadMethod="pad"
       id="gradient1"
       gradientUnits="userSpaceOnUse"
       gradientTransform="matrix(-7e-4,0.0077,0.0063,5e-4,13.318027,27.107457)"><stop
         id="stop56"
         stop-color="#99ccff"
         offset="0.0" /><stop
         id="stop58"
         stop-color="#99ccff"
         offset="0.09411764705882353" /><stop
         id="stop60"
         stop-color="#ffffff"
         offset="0.396078431372549" /><stop
         id="stop62"
         stop-color="#ccffff"
         offset="1.0" /></linearGradient><radialGradient
       spreadMethod="pad"
       r="819.20001"
       id="gradient2"
       gradientUnits="userSpaceOnUse"
       gradientTransform="matrix(0.0277,0,0,0.0277,12.468027,2.257457)"
       cy="0"
       cx="0"><stop
         id="stop65"
         stop-color="#ffff99"
         offset="0.0" /><stop
         id="stop67"
         stop-color="#ffcc66"
         offset="0.24313725490196078" /><stop
         id="stop69"
         stop-color="#ff9933"
         offset="0.7137254901960784" /><stop
         id="stop71"
         stop-color="#996600"
         offset="1.0" /></radialGradient><linearGradient
       x2="819.20001"
       x1="-819.20001"
       spreadMethod="pad"
       id="gradient3"
       gradientUnits="userSpaceOnUse"
       gradientTransform="matrix(0,0.0022,0.0096,0,14.168027,7.657457)"><stop
         id="stop74"
         stop-color="#ff9933"
         offset="0.0" /><stop
         id="stop76"
         stop-color="#ff9933"
         offset="0.48627450980392156" /><stop
         id="stop78"
         stop-color="#ffcc66"
         offset="1.0" /></linearGradient><radialGradient
       spreadMethod="pad"
       r="819.20001"
       id="gradient4"
       gradientUnits="userSpaceOnUse"
       gradientTransform="matrix(0.016,0,0,0.016,13.068027,1.307457)"
       cy="0"
       cx="0"><stop
         id="stop81"
         stop-color="#f0ddbd"
         offset="0.0" /><stop
         id="stop83"
         stop-color="#d8a650"
         offset="0.3803921568627451" /><stop
         id="stop85"
         stop-color="#996600"
         offset="0.8196078431372549" /><stop
         id="stop87"
         stop-color="#926821"
         offset="1.0" /></radialGradient><linearGradient
       x2="819.20001"
       x1="-819.20001"
       spreadMethod="pad"
       id="gradient5"
       gradientUnits="userSpaceOnUse"
       gradientTransform="matrix(-0.0075,0.0035,0.0026,0.0056,14.468027,6.057457)"><stop
         id="stop90"
         stop-color="#996600"
         offset="0.0" /><stop
         id="stop92"
         stop-color="#f0ddbd"
         offset="0.3411764705882353" /><stop
         id="stop94"
         stop-color="#d8a650"
         offset="0.6784313725490196" /><stop
         id="stop96"
         stop-color="#996600"
         offset="1.0" /></linearGradient><filter
       inkscape:collect="always"
       style="color-interpolation-filters:sRGB"
       id="filter18"
       x="-0.17489148"
       y="-0.12678111"
       width="1.349783"
       height="1.2535622"><feGaussianBlur
         inkscape:collect="always"
         stdDeviation="0.79237424"
         id="feGaussianBlur18" /></filter><linearGradient
       inkscape:collect="always"
       xlink:href="#linearGradient3813"
       id="linearGradient1119"
       gradientUnits="userSpaceOnUse"
       x1="-94.14949"
       y1="7.382513"
       x2="-94.14949"
       y2="1.2452079"
       gradientTransform="matrix(0.32587593,0,0,0.32587593,37.681052,1.5942167)" /><linearGradient
       inkscape:collect="always"
       id="linearGradient3813"><stop
         style="stop-color:#003399;stop-opacity:1"
         offset="0"
         id="stop3809" /><stop
         style="stop-color:#0099ff;stop-opacity:1"
         offset="0.625"
         id="stop2-3" /><stop
         style="stop-color:#99ccff;stop-opacity:1"
         offset="1"
         id="stop1-5" /></linearGradient><filter
       inkscape:collect="always"
       style="color-interpolation-filters:sRGB"
       id="filter7"
       x="-0.1372"
       y="-0.1583077"
       width="1.2744"
       height="1.3166154"><feGaussianBlur
         inkscape:collect="always"
         stdDeviation="0.8575"
         id="feGaussianBlur7" /></filter></defs><path
     id="path1-2"
     style="opacity:0.75;fill:#000000;fill-opacity:1;stroke:none;stroke-width:0.428294;stroke-linecap:butt;stroke-linejoin:miter;stroke-miterlimit:4;stroke-dasharray:none;stroke-opacity:1;filter:url(#filter7)"
     d="M 2.5,1.5 C 1.916669,1.5 1.389335,1.6536339 1.021484,2.0214844 0.653634,2.3893347 0.5,2.9166679 0.5,3.5 v 11 h 15 V 3.5 C 15.5,2.9166679 15.346366,2.3893347 14.978516,2.0214844 14.610665,1.6536339 14.083332,1.5 13.5,1.5 Z" /><path
     style="fill:#efead8;fill-opacity:1;stroke:none;stroke-width:0.428294;stroke-linecap:butt;stroke-linejoin:miter;stroke-miterlimit:4;stroke-dasharray:none;stroke-opacity:1"
     d="M 0.5,3.7283233 V 13.5 h 14 V 3.8244982 Z"
     id="path3642-2"
     sodipodi:nodetypes="ccccc" /><path
     style="fill:url(#linearGradient1119);fill-opacity:1;stroke:none;stroke-width:0.428294;stroke-linecap:butt;stroke-linejoin:miter;stroke-miterlimit:4;stroke-dasharray:none;stroke-opacity:1"
     d="M 0.5,4 0.63205,2.2428452 1.36795,1.7571548 14.086228,1.8730355 14.48822,2.4143322 14.5,4"
     id="path3338-0"
     sodipodi:nodetypes="cccccc" /><path
     style="fill:none;stroke:#0066cc;stroke-width:1;stroke-linecap:butt;stroke-linejoin:miter;stroke-miterlimit:4;stroke-dasharray:none;stroke-opacity:1"
     d="M 14.5,3 C 14.5,2 14,1.5 13,1.5 H 2 C 1,1.5 0.5,2 0.5,3 v 10.5 h 14 z"
     id="path116814-6"
     sodipodi:nodetypes="ccccccc" /><path
     id="rect162598-0"
     style="fill:#ff794b;fill-rule:evenodd;stroke-width:0.428294;stroke-linecap:round;stroke-linejoin:round;stroke-miterlimit:4;stroke-dasharray:none;stop-color:#000000"
     d="m 12.000474,2.4995076 h 1 l -9.48e-4,1.0009848 -0.999052,-9.848e-4 z"
     sodipodi:nodetypes="ccccc" /><path
     id="rect162598-0-5"
     style="fill:#99ccff;fill-rule:evenodd;stroke-width:0.428294;stroke-linecap:round;stroke-linejoin:round;stroke-miterlimit:4;stroke-dasharray:none;stop-color:#000000"
     d="m 10.000474,2.4995076 h 1 l -9.5e-4,1.0009847 -0.99905,-9.847e-4 z"
     sodipodi:nodetypes="ccccc" /><path
     id="rect162598-0-5-3"
     style="fill:#99ccff;fill-rule:evenodd;stroke-width:0.428294;stroke-linecap:round;stroke-linejoin:round;stroke-miterlimit:4;stroke-dasharray:none;stop-color:#000000"
     d="M 8,2.5 H 9 L 8.99905,3.5009847 8,3.5 Z"
     sodipodi:nodetypes="ccccc" /><g
     id="g1"
     transform="matrix(0.7058743,0,0,0.7058743,5.8037435,4.8068687)"><path
       id="path1"
       style="opacity:0.75;fill:#000000;fill-opacity:1;fill-rule:evenodd;stroke:none;stroke-width:0.433892;filter:url(#filter18)"
       d="M 8.9374368,0.5000949 C 8.2845374,0.50459888 7.6914697,0.66948651 7.1737649,0.99814178 6.8275484,1.217931 6.5184427,1.5077501 6.2421243,1.8653293 5.5690863,2.6658756 5.1844698,3.7108035 5.0878274,4.9766574 4.9839576,6.3121271 5.2078846,7.5151313 5.7636087,8.5665011 5.9094419,8.8435843 6.0721795,9.093539 6.2518899,9.314548 6.1341574,9.343281 6.0157526,9.3727829 5.8964212,9.4063449 4.8289895,9.7031351 4.0578416,10.138167 3.6112649,10.744236 3.1487047,11.366299 2.9892884,12.229018 3.0936868,13.302829 a 0.2169677,0.2169677 0 0 0 0,0.002 c 0.036194,0.325742 0.2237457,0.617868 0.5175781,0.859374 0.2934578,0.241198 0.6956692,0.444344 1.2089844,0.623047 h 0.00195 c 0.8927992,0.312267 2.0213153,0.516904 3.390625,0.619141 1.2551133,0.116752 2.4038487,0.124361 3.4472657,0.02148 0.542873,-0.05135 0.971505,-0.119927 1.296875,-0.21289 0.324695,-0.09277 0.560964,-0.196882 0.689453,-0.414063 h 0.002 c 0.403019,-0.664215 0.374763,-1.503806 -0.03125,-2.451172 a 0.2169677,0.2169677 0 0 0 0,-0.002 C 13.241939,11.492434 12.688719,10.7942 11.964781,10.26572 c -0.319081,-0.238592 -0.652897,-0.4415296 -1,-0.6093751 0.113247,-0.1004503 0.224799,-0.209324 0.333984,-0.3261719 a 0.2169677,0.2169677 0 0 0 0,-0.00195 c 0.780827,-0.8408901 1.30516,-1.8988227 1.572266,-3.1601562 0.0792,-0.36681 0.12967,-0.7241463 0.15039,-1.0683594 a 0.2169677,0.2169677 0 0 0 0.02734,-0.1074219 c -1.6e-5,-0.00284 2e-5,-0.00497 0,-0.00781 h -0.002 v -0.00195 C 13.045176,4.7520034 13.03544,4.5306167 13.015562,4.3165011 12.995021,4.053205 12.953914,3.7982836 12.894468,3.5508761 12.755162,2.9277094 12.519832,2.391584 12.179625,1.9493137 11.600173,1.1960279 10.730609,0.72890536 9.613218,0.54892302 a 0.2169677,0.2169677 0 0 0 -0.00391,0 C 9.3787602,0.51490721 9.1550699,0.49859357 8.9374368,0.5000949 Z" /><g
       transform="matrix(0.43389173,0,0,0.43389173,2.5624635,0)"
       id="g905"><path
         inkscape:connector-curvature="0"
         style="fill:url(#gradient0);fill-rule:evenodd;stroke:none"
         id="path6"
         d="m 4.2180275,32.457457 q 3,1.05 7.6999995,1.4 4.3,0.4 7.85,0.05 3.7,-0.35 4.2,-1.2 1.25,-2.05 -0.1,-5.2 -1.25,-2.85 -3.65,-4.6 -5.55,-4.15 -13.5499995,-1.9 -3.6,1 -5,2.9 -1.45000003,1.95 -1.10000003,5.55 0.2,1.8 3.65000003,3" /><path
         style="fill:none;stroke:#006600;stroke-width:1;stroke-linecap:round;stroke-linejoin:round"
         inkscape:connector-curvature="0"
         id="path8"
         d="m 4.2180275,32.457457 q -3.45000003,-1.2 -3.65000003,-3 -0.35,-3.6 1.10000003,-5.55 1.4,-1.9 5,-2.9 7.9999995,-2.25 13.5499995,1.9 2.4,1.75 3.65,4.6 1.35,3.15 0.1,5.2 -0.5,0.85 -4.2,1.2 -3.55,0.35 -7.85,-0.05 -4.6999995,-0.35 -7.6999995,-1.4 z" /><path
         inkscape:connector-curvature="0"
         style="fill:url(#gradient1);fill-rule:evenodd;stroke:none"
         id="path10"
         d="m 18.368027,21.957457 q -2.35,-1.4 -5.6,-1.4 l -3.2499995,-0.2 -1.45,0.2 q -0.95,5.6 2.3499995,12.45 4.2,-7.3 7.95,-11.05" /><path
         style="fill:none;stroke:#006600;stroke-width:1;stroke-linecap:round;stroke-linejoin:round"
         inkscape:connector-curvature="0"
         id="path12"
         d="m 18.368027,21.957457 q -3.75,3.75 -7.95,11.05 -3.2999995,-6.85 -2.3499995,-12.45 l 1.45,-0.2 3.2499995,0.2 q 3.25,0 5.6,1.4 z" /><path
         inkscape:connector-curvature="0"
         style="fill:url(#gradient2);fill-rule:evenodd;stroke:none"
         id="path14"
         d="m 12.368027,22.607457 q 3.4,0.45 6.25,-2.6 2.6,-2.8 3.5,-7.05 0.95,-4.4 -0.6,-7.7 -1.7,-3.75 -6.1,-4.50000003 -4.55,-0.8 -7.3499995,2.30000003 -2.55,2.7 -2.9,7.3 -0.35,4.5 1.5,8 2,3.8 5.6999995,4.25" /><path
         style="fill:none;stroke:#996600;stroke-width:1;stroke-linecap:round;stroke-linejoin:round"
         inkscape:connector-curvature="0"
         id="path16"
         d="m 12.368027,22.607457 q -3.6999995,-0.45 -5.6999995,-4.25 -1.85,-3.5 -1.5,-8 0.35,-4.6 2.9,-7.3 2.7999995,-3.10000003 7.3499995,-2.30000003 4.4,0.75000003 6.1,4.50000003 1.55,3.3 0.6,7.7 -0.9,4.25 -3.5,7.05 -2.85,3.05 -6.25,2.6 z" /><path
         inkscape:connector-curvature="0"
         style="fill:url(#gradient3);fill-rule:evenodd;stroke:none"
         id="path18"
         d="m 22.018027,9.257457 q -2.3,-5.1 -8.25,-2.85 -5.0999995,1.95 -7.4499995,-0.4 4.0499995,5.2 8.2499995,2.8 3.25,-1.85 7.45,0.45" /><path
         inkscape:connector-curvature="0"
         style="fill:url(#gradient4);fill-rule:evenodd;stroke:none"
         id="path20"
         d="m 22.518027,10.357457 q -0.05,-8.55 -7.5,-9.75000003 -6.0999995,-0.9 -8.8999995,5.65000003 1.1,1.35 3.75,1.85 1.3999995,0.3 2.5999995,-0.25 1.85,-0.85 3.95,-1.15 2.9,-0.4 4.7,1.3 1.35,1.2 1.4,2.35" /><path
         style="fill:none;stroke:#996600;stroke-width:1;stroke-linecap:round;stroke-linejoin:round"
         inkscape:connector-curvature="0"
         id="path22"
         d="m 22.518027,10.357457 q -0.05,-1.15 -1.4,-2.35 -1.8,-1.7 -4.7,-1.3 -2.1,0.3 -3.95,1.15 -1.2,0.55 -2.5999995,0.25 -2.65,-0.5 -3.75,-1.85 2.8,-6.55000003 8.8999995,-5.65000003 7.45,1.20000003 7.5,9.75000003 z" /><path
         inkscape:connector-curvature="0"
         style="fill:url(#gradient5);fill-rule:evenodd;stroke:none"
         id="path24"
         d="m 10.818027,7.757457 2.5,-1.05 q 1.65,-0.8 3.55,-0.8 4.25,0 5.15,3.75 0.5,-3.3 -2.8,-4.7 -3.6,-1.55 -6.15,-0.4 l -1.75,1.05 q -0.95,0.65 -1.4499995,0.75 -1.4,0.35 -2.1,0 l -0.4,-0.3 -0.3,-0.15 q 0,-0.75 -0.4,-0.1 -0.4,0.7 -0.05,1 0.6,0.5 1.9,0.8 l 2.2999995,0.15" /></g></g></svg>
