<?xml version="1.0" encoding="UTF-8" standalone="no"?>
<svg
   inkscape:export-ydpi="96"
   inkscape:export-xdpi="96"
   inkscape:export-filename="/media/klapeto/Αρχεία/WindowsXP Theme/Vectors/RASTER/window-new.png"
   sodipodi:docname="variable-view.svg"
   inkscape:version="1.2.2 (b0a8486541, 2022-12-01)"
   id="svg8"
   version="1.1"
   viewBox="0 0 16 16"
   height="16"
   width="16"
   xml:space="preserve"
   xmlns:inkscape="http://www.inkscape.org/namespaces/inkscape"
   xmlns:sodipodi="http://sodipodi.sourceforge.net/DTD/sodipodi-0.dtd"
   xmlns:xlink="http://www.w3.org/1999/xlink"
   xmlns="http://www.w3.org/2000/svg"
   xmlns:svg="http://www.w3.org/2000/svg"
   xmlns:rdf="http://www.w3.org/1999/02/22-rdf-syntax-ns#"
   xmlns:cc="http://creativecommons.org/ns#"
   xmlns:dc="http://purl.org/dc/elements/1.1/"><defs
     id="defs2"><linearGradient
       id="linearGradient853"
       inkscape:collect="always"><stop
         id="stop849"
         offset="0"
         style="stop-color:#99ccff;stop-opacity:1" /><stop
         id="stop851"
         offset="1"
         style="stop-color:#ffffff;stop-opacity:1" /></linearGradient><linearGradient
       gradientTransform="matrix(3.7798866,0,0,3.7798866,-84.443646,17.997292)"
       gradientUnits="userSpaceOnUse"
       y2="5.0270834"
       x2="28.442709"
       y1="7.4083333"
       x1="31.485418"
       id="linearGradient855"
       xlink:href="#linearGradient853"
       inkscape:collect="always" /><filter
       inkscape:collect="always"
       style="color-interpolation-filters:sRGB"
       id="filter5"
       x="-0.1370339"
       y="-0.15852942"
       width="1.2740678"
       height="1.3170588"><feGaussianBlur
         inkscape:collect="always"
         stdDeviation="0.8421875"
         id="feGaussianBlur5" /></filter><filter
       id="filter965"
       x="-0.15390287"
       y="-0.10226514"
       width="1.3078057"
       height="1.2045303"
       color-interpolation-filters="sRGB"><feGaussianBlur
         stdDeviation="9.6233514"
         id="feGaussianBlur2" /></filter><filter
       inkscape:collect="always"
       style="color-interpolation-filters:sRGB"
       id="filter995"
       x="-0.18417095"
       y="-0.12231362"
       width="1.3683419"
       height="1.2446272"><feGaussianBlur
         inkscape:collect="always"
         stdDeviation="0.76438411"
         id="feGaussianBlur997" /></filter></defs><sodipodi:namedview
     scale-x="1"
     inkscape:snap-global="true"
     inkscape:bbox-paths="false"
     fit-margin-bottom="0"
     fit-margin-right="0"
     fit-margin-left="0"
     fit-margin-top="0"
     inkscape:bbox-nodes="true"
     inkscape:snap-bbox="true"
     inkscape:window-maximized="1"
     inkscape:window-y="0"
     inkscape:window-x="1280"
     inkscape:window-height="2061"
     inkscape:window-width="3840"
     units="px"
     showgrid="true"
     inkscape:document-rotation="0"
     inkscape:current-layer="layer1"
     inkscape:document-units="px"
     inkscape:cy="3.1015625"
     inkscape:cx="-0.2734375"
     inkscape:zoom="64"
     inkscape:pageshadow="2"
     inkscape:pageopacity="0.0"
     borderopacity="1.0"
     bordercolor="#666666"
     pagecolor="#ffffff"
     id="base"
     showguides="false"
     inkscape:pagecheckerboard="0"
     inkscape:showpageshadow="2"
     inkscape:deskcolor="#d1d1d1"><inkscape:grid
       originy="0"
       originx="0"
       id="grid1504"
       type="xygrid"
       spacingy="1"
       spacingx="1"
       units="px"
       visible="true" /><inkscape:grid
       originy="0"
       originx="0"
       spacingy="0.5"
       spacingx="0.5"
       id="grid1507"
       type="xygrid"
       units="px"
       visible="true" /></sodipodi:namedview><metadata
     id="metadata5"><rdf:RDF><cc:Work
         rdf:about=""><dc:format>image/svg+xml</dc:format><dc:type
           rdf:resource="http://purl.org/dc/dcmitype/StillImage" /></cc:Work></rdf:RDF></metadata><g
     transform="translate(-12.567709)"
     id="layer1"
     inkscape:groupmode="layer"
     inkscape:label="Layer 1"><path
       id="path1"
       style="fill:#000000;fill-opacity:1;stroke:none;stroke-width:0.749998;stroke-linecap:round;stroke-linejoin:miter;stroke-miterlimit:4;stroke-dasharray:none;stroke-opacity:1;filter:url(#filter5);opacity:0.75"
       d="m 14.567709,1.625 c -0.753246,0 -1.375,0.6217534 -1.375,1.375 V 3.5 3.6738281 14.375 h 14.75 V 3.5 3.3261719 3 c 0,-0.7532462 -0.621753,-1.375 -1.375,-1.375 z" /><g
       id="g1027"
       transform="matrix(0.65211534,0,0,0.65211534,4.3733415,-16.71446)"
       style="stroke-width:1.15010329;stroke-dasharray:none"><path
         id="path1012"
         style="fill:url(#linearGradient855);fill-opacity:1;stroke:none;stroke-width:1.15010329;stroke-linecap:round;stroke-linejoin:miter;stroke-miterlimit:4;stroke-dasharray:none;stroke-opacity:1"
         d="M 35.067709,30.49848 V 46.5 H 13.065643 V 30.49848"
         sodipodi:nodetypes="cccc" /><path
         sodipodi:nodetypes="cccc"
         d="M 34.801156,29.964867 V 46.333 H 13.332561 V 30.231554"
         style="fill:none;fill-opacity:1;stroke:#016cd1;stroke-width:1.15010329;stroke-linecap:round;stroke-linejoin:miter;stroke-miterlimit:4;stroke-dasharray:none;stroke-opacity:1"
         id="rect2869" /><path
         style="fill:#016cd1;fill-opacity:1;stroke:none;stroke-width:1.15010329;stroke-linecap:butt;stroke-linejoin:miter;stroke-miterlimit:4;stroke-dasharray:none;stroke-opacity:1"
         d="m 34.801156,30.998289 -21.468595,0 v -1.533471 l 1.533471,-1.533471 H 34.03442 l 0.766736,1.533471 z"
         id="path839"
         sodipodi:nodetypes="ccccccc" /><path
         sodipodi:nodetypes="cssssc"
         d="m 13.332561,30.498241 v -1.033423 c 0,-0.831079 0.702392,-1.533471 1.533471,-1.533471 h 18.401653 c 0.831079,0 1.533471,0.702392 1.533471,1.533471 v 0.766736"
         style="fill:none;fill-opacity:1;stroke:#016cd1;stroke-width:1.15010329;stroke-linecap:round;stroke-linejoin:round;stroke-miterlimit:4;stroke-dasharray:none;stroke-opacity:1"
         id="rect2865" /></g><g
       id="g269"
       transform="matrix(0.54721189,0,0,0.54721189,15.602876,4.243275)"><path
         id="path984"
         style="color:#000000;opacity:0.75;fill:#000000;fill-opacity:1;stroke-width:0.663838;stroke-linecap:round;stroke-linejoin:round;-inkscape-stroke:none;filter:url(#filter995)"
         d="M 9.1352332,0.50000207 A 0.33195221,0.33195221 0 0 0 8.8989051,0.59765832 L 3.615702,5.9238302 A 0.33195221,0.33195221 0 0 0 3.613752,5.9257802 0.33195221,0.33195221 0 0 0 3.53758,6.0644521 0.33195221,0.33195221 0 0 0 3.52977,6.1015611 0.33195221,0.33195221 0 0 0 3.52,6.1562481 v 5.3261759 a 0.33195221,0.33195221 0 0 0 0.1054676,0.242187 l 3.9726562,3.6875 a 0.33195221,0.33195221 0 0 0 0.027344,0.01953 0.33195221,0.33195221 0 0 0 0.00195,0.002 0.33195221,0.33195221 0 0 0 0.00391,0.002 0.33195221,0.33195221 0 0 0 0.421875,-0.02734 l 5.3261712,-5.080078 a 0.33195221,0.33195221 0 0 0 0.101563,-0.238281 V 4.8457052 a 0.33195221,0.33195221 0 0 0 0,-0.00977 0.33195221,0.33195221 0 0 0 -0.002,-0.029297 0.33195221,0.33195221 0 0 0 -0.0078,-0.037109 0.33195221,0.33195221 0 0 0 -0.0059,-0.021484 0.33195221,0.33195221 0 0 0 -0.01367,-0.039063 0.33195221,0.33195221 0 0 0 -0.0059,-0.011719 0.33195221,0.33195221 0 0 0 -0.02344,-0.041016 0.33195221,0.33195221 0 0 0 -0.0078,-0.00781 0.33195221,0.33195221 0 0 0 -0.03125,-0.037109 L 9.3696082,0.59765832 a 0.33195221,0.33195221 0 0 0 -0.234375,-0.0976563 z" /><g
         transform="matrix(-0.07444138,0,0,0.07444138,23.138541,-2.5689263)"
         stroke-width="8.9176"
         id="g15"
         style="stroke-linejoin:round"><path
           d="m 140.91,92.892 53.924,-53.924 70.982,71.532 -53.374,48.972 z"
           fill="#99cdff"
           stroke="#7db2e5"
           stroke-linecap="round"
           id="path9" /><path
           d="M 212.44,159.47 140.908,92.89 v 70.431 l 71.532,68.23 z"
           fill="#003399"
           stroke="#3e4b7b"
           stroke-linecap="round"
           id="path11"
           style="fill:#003399" /><path
           d="m 212.44,159.47 53.374,-48.972 v 71.532 l -53.374,49.522 z"
           fill="#5b9bd8"
           stroke="#4362b8"
           id="path13" /></g></g></g></svg>
