<?xml version="1.0" encoding="UTF-8" standalone="no"?>
<svg
   inkscape:export-ydpi="96"
   inkscape:export-xdpi="96"
   inkscape:export-filename="/media/klapeto/Αρχεία/WindowsXP Theme/Vectors/RASTER/index.png"
   sodipodi:docname="watch.svg"
   inkscape:version="1.2.2 (b0a8486541, 2022-12-01)"
   id="svg8"
   version="1.1"
   viewBox="0 0 16 16"
   height="16"
   width="16"
   xml:space="preserve"
   xmlns:inkscape="http://www.inkscape.org/namespaces/inkscape"
   xmlns:sodipodi="http://sodipodi.sourceforge.net/DTD/sodipodi-0.dtd"
   xmlns:xlink="http://www.w3.org/1999/xlink"
   xmlns="http://www.w3.org/2000/svg"
   xmlns:svg="http://www.w3.org/2000/svg"
   xmlns:rdf="http://www.w3.org/1999/02/22-rdf-syntax-ns#"
   xmlns:cc="http://creativecommons.org/ns#"
   xmlns:dc="http://purl.org/dc/elements/1.1/"><defs
     id="defs2"><linearGradient
       inkscape:collect="always"
       id="linearGradient2043"><stop
         style="stop-color:#99ccff;stop-opacity:1"
         offset="0"
         id="stop2039" /><stop
         style="stop-color:#ffffff;stop-opacity:1;"
         offset="1"
         id="stop2041" /></linearGradient><linearGradient
       inkscape:collect="always"
       xlink:href="#linearGradient2043"
       id="linearGradient2035"
       x1="24.567709"
       y1="36.264584"
       x2="20.067709"
       y2="29.5"
       gradientUnits="userSpaceOnUse" /><linearGradient
       inkscape:collect="always"
       xlink:href="#linearGradient2043"
       id="linearGradient2037"
       x1="40.067711"
       y1="35.5"
       x2="35.067711"
       y2="29"
       gradientUnits="userSpaceOnUse" /><filter
       inkscape:collect="always"
       style="color-interpolation-filters:sRGB"
       id="filter905"
       x="-0.10747133"
       y="-0.23252375"
       width="1.2149427"
       height="1.4650475"><feGaussianBlur
         inkscape:collect="always"
         stdDeviation="0.68278178"
         id="feGaussianBlur907" /></filter></defs><sodipodi:namedview
     inkscape:snap-global="true"
     inkscape:bbox-paths="false"
     fit-margin-bottom="0"
     fit-margin-right="0"
     fit-margin-left="0"
     fit-margin-top="0"
     inkscape:bbox-nodes="true"
     inkscape:snap-bbox="true"
     inkscape:window-maximized="1"
     inkscape:window-y="0"
     inkscape:window-x="1280"
     inkscape:window-height="2061"
     inkscape:window-width="3840"
     units="px"
     showgrid="true"
     inkscape:document-rotation="0"
     inkscape:current-layer="layer1"
     inkscape:document-units="px"
     inkscape:cy="24.984374"
     inkscape:cx="-6.6874998"
     inkscape:zoom="32.000001"
     inkscape:pageshadow="2"
     inkscape:pageopacity="0.0"
     borderopacity="1.0"
     bordercolor="#666666"
     pagecolor="#ffffff"
     id="base"
     showguides="false"
     inkscape:pagecheckerboard="0"
     inkscape:showpageshadow="2"
     inkscape:deskcolor="#d1d1d1"><inkscape:grid
       originy="0"
       originx="0"
       id="grid1504"
       type="xygrid"
       spacingy="1"
       spacingx="1"
       units="px"
       visible="true" /><inkscape:grid
       spacingy="0.5"
       spacingx="0.5"
       id="grid966"
       type="xygrid"
       originx="0"
       originy="0"
       units="px"
       visible="true" /></sodipodi:namedview><metadata
     id="metadata5"><rdf:RDF><cc:Work
         rdf:about=""><dc:format>image/svg+xml</dc:format><dc:type
           rdf:resource="http://purl.org/dc/dcmitype/StillImage" /></cc:Work></rdf:RDF></metadata><g
     transform="translate(-12.567709)"
     id="layer1"
     inkscape:groupmode="layer"
     inkscape:label="Layer 1"><path
       id="path143"
       style="color:#000000;opacity:0.75;fill:#000000;fill-opacity:1;stroke-linecap:round;-inkscape-stroke:none;filter:url(#filter905)"
       d="m 18.469464,4.7261507 c -0.247427,-0.00686 -0.501064,0.06035 -0.738281,0.2226563 l -3.761719,2.5742187 a 0.375,0.375 0 0 0 -0.01172,0.013672 c -0.571027,0.4307234 -0.943359,1.1141452 -0.943359,1.8808594 0,1.2962269 1.059242,2.3554679 2.355468,2.3554689 1.296227,0 2.353516,-1.059242 2.353516,-2.3554689 0,-0.1325389 -0.01197,-0.2619675 -0.0332,-0.3886719 0.14584,-0.061827 0.399327,-0.1263854 0.652344,-0.125 0.262723,0.00144 0.517592,0.077286 0.642578,0.1347656 -0.02019,0.1235562 -0.03125,0.2498391 -0.03125,0.3789063 0,1.2962269 1.059242,2.3554679 2.355469,2.3554689 1.296226,0 2.355468,-1.059242 2.355468,-2.3554689 0,-0.3722924 -0.08691,-0.7253499 -0.242187,-1.0390626 l 2.990234,-2.046875 c 0.570756,-0.3905161 1.415607,0.5437153 0.982422,1.0546876 a 0.375,0.375 0 0 0 0.04297,0.5292967 0.375,0.375 0 0 0 0.529297,-0.044922 C 28.706676,6.9987862 27.934824,5.7338495 26.969464,5.5210726 26.647677,5.4501469 26.305286,5.4960699 25.988995,5.7124788 L 22.987042,7.7671663 C 22.559156,7.3322952 21.964333,7.0620882 21.309308,7.0620882 c -0.89583,0 -1.678144,0.5056685 -2.076172,1.2460938 C 18.964373,8.1870102 18.65524,8.1555759 18.346417,8.1538851 18.034497,8.1521771 17.71988,8.1841484 17.44212,8.3023226 17.122775,7.7116306 16.558776,7.2723142 15.887433,7.120682 l 2.267578,-1.5527344 c 0.570754,-0.3905162 1.415605,0.543715 0.982422,1.0546875 a 0.375,0.375 0 0 0 0.04492,0.5292969 0.375,0.375 0 0 0 0.527344,-0.044922 c 0.739164,-0.871896 -0.03073,-2.1368325 -0.996094,-2.3496094 -0.08045,-0.017732 -0.161665,-0.028963 -0.24414,-0.03125 z" /><g
       id="g2793"
       transform="matrix(0.39601462,0,0,0.39601462,6.1832015,-3.7030007)"
       style="stroke-width:1.89387;stroke-dasharray:none"><path
         style="fill:none;stroke:#666699;stroke-width:1.89387;stroke-linecap:round;stroke-linejoin:miter;stroke-dasharray:none;stroke-opacity:1"
         d="m 19.567709,28.5 9.5,-6.5 c 2.317992,-1.585995 5.530331,1.94285 3.739064,4.055782"
         id="path1087"
         sodipodi:nodetypes="csc" /><circle
         style="opacity:1;fill:url(#linearGradient2035);fill-opacity:1;stroke:#666699;stroke-width:1.89387;stroke-linecap:round;stroke-linejoin:round;stroke-dasharray:none;stop-color:#000000"
         id="path399"
         cx="22.567709"
         cy="32.5"
         r="5" /><path
         style="fill:none;stroke:#666699;stroke-width:1.89387;stroke-linecap:round;stroke-linejoin:miter;stroke-dasharray:none;stroke-opacity:1"
         d="m 41.769724,29.504333 8.148538,-5.575315 c 2.317992,-1.585995 5.530331,1.94285 3.739064,4.055782"
         id="path1087-6"
         sodipodi:nodetypes="csc" /><circle
         style="opacity:1;fill:url(#linearGradient2037);fill-opacity:1;stroke:#666699;stroke-width:1.89387;stroke-linecap:round;stroke-linejoin:round;stroke-dasharray:none;stop-color:#000000"
         id="path399-3"
         cx="37.567711"
         cy="32.5"
         r="5" /><path
         style="fill:none;stroke:#666699;stroke-width:1.89387;stroke-linecap:butt;stroke-linejoin:miter;stroke-dasharray:none;stroke-opacity:1"
         d="M 27.509488,30.977782 C 28.567709,30 31.62593,30.022218 32.567709,31"
         id="path1085"
         sodipodi:nodetypes="cc" /></g></g></svg>
