<?xml version="1.0" encoding="UTF-8" standalone="no"?>
<svg
   inkscape:export-ydpi="96"
   inkscape:export-xdpi="96"
   inkscape:export-filename="/media/klapeto/Αρχεία/WindowsXP Theme/Vectors/RASTER/index.png"
   sodipodi:docname="watch-class.svg"
   inkscape:version="1.2.2 (b0a8486541, 2022-12-01)"
   id="svg8"
   version="1.1"
   viewBox="0 0 16 16"
   height="16"
   width="16"
   xml:space="preserve"
   xmlns:inkscape="http://www.inkscape.org/namespaces/inkscape"
   xmlns:sodipodi="http://sodipodi.sourceforge.net/DTD/sodipodi-0.dtd"
   xmlns:xlink="http://www.w3.org/1999/xlink"
   xmlns="http://www.w3.org/2000/svg"
   xmlns:svg="http://www.w3.org/2000/svg"
   xmlns:rdf="http://www.w3.org/1999/02/22-rdf-syntax-ns#"
   xmlns:cc="http://creativecommons.org/ns#"
   xmlns:dc="http://purl.org/dc/elements/1.1/"><defs
     id="defs2"><linearGradient
       inkscape:collect="always"
       id="linearGradient2043"><stop
         style="stop-color:#99ccff;stop-opacity:1"
         offset="0"
         id="stop2039" /><stop
         style="stop-color:#ffffff;stop-opacity:1;"
         offset="1"
         id="stop2041" /></linearGradient><linearGradient
       inkscape:collect="always"
       xlink:href="#linearGradient2043"
       id="linearGradient2035"
       x1="24.567709"
       y1="36.264584"
       x2="20.067709"
       y2="29.5"
       gradientUnits="userSpaceOnUse" /><linearGradient
       inkscape:collect="always"
       xlink:href="#linearGradient2043"
       id="linearGradient2037"
       x1="40.067711"
       y1="35.5"
       x2="35.067711"
       y2="29"
       gradientUnits="userSpaceOnUse" /><filter
       inkscape:collect="always"
       style="color-interpolation-filters:sRGB"
       id="filter905"
       x="-0.10747133"
       y="-0.23252382"
       width="1.2149427"
       height="1.4650476"><feGaussianBlur
         inkscape:collect="always"
         stdDeviation="0.68278178"
         id="feGaussianBlur907" /></filter><linearGradient
       inkscape:collect="always"
       id="linearGradient1217"><stop
         style="stop-color:#996600;stop-opacity:1"
         offset="0"
         id="stop1213" /><stop
         style="stop-color:#cc9900;stop-opacity:1"
         offset="1"
         id="stop1215" /></linearGradient><linearGradient
       inkscape:collect="always"
       id="linearGradient1211"><stop
         style="stop-color:#ffcc00;stop-opacity:1"
         offset="0"
         id="stop1207" /><stop
         style="stop-color:#ffff00;stop-opacity:1"
         offset="1"
         id="stop1209" /></linearGradient><linearGradient
       id="linearGradient1172"
       inkscape:collect="always"><stop
         id="stop1168"
         offset="0"
         style="stop-color:#0083d7;stop-opacity:1" /><stop
         id="stop1170"
         offset="1"
         style="stop-color:#b4e2ff;stop-opacity:1" /></linearGradient><linearGradient
       id="linearGradient1166"
       inkscape:collect="always"><stop
         id="stop1162"
         offset="0"
         style="stop-color:#003399;stop-opacity:1" /><stop
         id="stop1164"
         offset="1"
         style="stop-color:#0066cc;stop-opacity:1" /></linearGradient><linearGradient
       inkscape:collect="always"
       id="linearGradient1125"><stop
         style="stop-color:#ff3300;stop-opacity:1"
         offset="0"
         id="stop1121" /><stop
         style="stop-color:#ff794b;stop-opacity:1"
         offset="1"
         id="stop1123" /></linearGradient><linearGradient
       inkscape:collect="always"
       id="linearGradient1117"><stop
         style="stop-color:#990000;stop-opacity:1"
         offset="0"
         id="stop1113" /><stop
         style="stop-color:#ff3300;stop-opacity:1"
         offset="1"
         id="stop1115" /></linearGradient><linearGradient
       gradientUnits="userSpaceOnUse"
       y2="123.19199"
       x2="20.958782"
       y1="123.1142"
       x1="-19.166828"
       id="linearGradient1226-7-2"
       xlink:href="#linearGradient1211"
       inkscape:collect="always"
       gradientTransform="matrix(0.13590484,0,0,0.13590484,8.7417145,-3.8839915)" /><linearGradient
       gradientUnits="userSpaceOnUse"
       y2="133.46864"
       x2="24.762819"
       y1="131.37627"
       x1="-22.381079"
       id="linearGradient1218-3-8"
       xlink:href="#linearGradient1217"
       inkscape:collect="always"
       gradientTransform="matrix(0.13590484,0,0,0.13590484,8.7417145,-3.8839915)" /><linearGradient
       inkscape:collect="always"
       xlink:href="#linearGradient1125"
       id="linearGradient1"
       gradientUnits="userSpaceOnUse"
       gradientTransform="matrix(0.11393444,0,0,0.11393444,13.104106,5.4441549)"
       x1="8.4128761"
       y1="143.38161"
       x2="8.4128761"
       y2="121.259" /><linearGradient
       inkscape:collect="always"
       xlink:href="#linearGradient1117"
       id="linearGradient2"
       gradientUnits="userSpaceOnUse"
       gradientTransform="matrix(0.11393444,0,0,0.11393444,13.104106,5.4441549)"
       x1="0.66918129"
       y1="147.55653"
       x2="1.2367043"
       y2="118.30983" /><linearGradient
       inkscape:collect="always"
       xlink:href="#linearGradient1172"
       id="linearGradient3"
       gradientUnits="userSpaceOnUse"
       gradientTransform="matrix(0.11393444,0,0,0.11393444,8.4055986,10.14266)"
       x1="8.4128761"
       y1="143.38161"
       x2="8.4128761"
       y2="121.259" /><linearGradient
       inkscape:collect="always"
       xlink:href="#linearGradient1166"
       id="linearGradient4"
       gradientUnits="userSpaceOnUse"
       gradientTransform="matrix(0.11393444,0,0,0.11393444,8.4055986,10.14266)"
       x1="0.66918129"
       y1="147.55653"
       x2="1.2367043"
       y2="118.30983" /><filter
       inkscape:collect="always"
       style="color-interpolation-filters:sRGB"
       id="filter17"
       x="-0.14958025"
       y="-0.14450727"
       width="1.2991605"
       height="1.2890145"><feGaussianBlur
         inkscape:collect="always"
         stdDeviation="0.89973632"
         id="feGaussianBlur17" /></filter></defs><sodipodi:namedview
     inkscape:snap-global="true"
     inkscape:bbox-paths="false"
     fit-margin-bottom="0"
     fit-margin-right="0"
     fit-margin-left="0"
     fit-margin-top="0"
     inkscape:bbox-nodes="true"
     inkscape:snap-bbox="true"
     inkscape:window-maximized="1"
     inkscape:window-y="0"
     inkscape:window-x="1280"
     inkscape:window-height="2061"
     inkscape:window-width="3840"
     units="px"
     showgrid="true"
     inkscape:document-rotation="0"
     inkscape:current-layer="layer1"
     inkscape:document-units="px"
     inkscape:cy="15.611592"
     inkscape:cx="-3.4250484"
     inkscape:zoom="45.254835"
     inkscape:pageshadow="2"
     inkscape:pageopacity="0.0"
     borderopacity="1.0"
     bordercolor="#666666"
     pagecolor="#ffffff"
     id="base"
     showguides="false"
     inkscape:pagecheckerboard="0"
     inkscape:showpageshadow="2"
     inkscape:deskcolor="#d1d1d1"><inkscape:grid
       originy="0"
       originx="0"
       id="grid1504"
       type="xygrid"
       spacingy="1"
       spacingx="1"
       units="px"
       visible="true" /><inkscape:grid
       spacingy="0.5"
       spacingx="0.5"
       id="grid966"
       type="xygrid"
       originx="0"
       originy="0"
       units="px"
       visible="true" /></sodipodi:namedview><metadata
     id="metadata5"><rdf:RDF><cc:Work
         rdf:about=""><dc:format>image/svg+xml</dc:format><dc:type
           rdf:resource="http://purl.org/dc/dcmitype/StillImage" /></cc:Work></rdf:RDF></metadata><g
     transform="translate(-12.567709)"
     id="layer1"
     inkscape:groupmode="layer"
     inkscape:label="Layer 1"><g
       id="layer1-5"
       inkscape:label="Layer 1"
       transform="matrix(0.61244976,0,0,0.61244976,11.386898,0.04350999)"><path
         id="path3"
         style="color:#000000;opacity:0.75;fill:#000000;fill-opacity:1;fill-rule:evenodd;-inkscape-stroke:none;filter:url(#filter17)"
         d="m 17.678108,0.5 c -0.21943,9e-8 -0.439421,0.0819993 -0.605468,0.24804688 L 13.31678,4.5039062 c -0.332095,0.3320955 -0.332095,0.8788416 0,1.2109375 l 1.931641,1.9296875 c 0.274285,0.2742843 0.692582,0.3213682 1.017578,0.1425782 v 5.4101566 h 4.970703 c 0.02519,0.149938 0.09245,0.293618 0.207031,0.408203 l 1.619141,1.617188 c 0.293747,0.293746 0.778519,0.293746 1.072266,0 l 3.148437,-3.148438 c 0.293747,-0.293747 0.293747,-0.778519 0,-1.072265 l -1.61914,-1.6171884 c -0.293747,-0.2937467 -0.776566,-0.2937467 -1.070313,0 l -3.150391,3.1484384 c -0.05011,0.05011 -0.09003,0.104752 -0.123046,0.164062 H 16.765999 V 7.3359375 l 0.888672,-0.8886719 h 3.570312 c 0.0061,0.1861871 0.07783,0.3708095 0.21875,0.5117188 l 1.619141,1.6191406 c 0.293747,0.2937467 0.776566,0.2937484 1.070313,0 l 3.15039,-3.1484375 c 0.293747,-0.2937467 0.293747,-0.7785189 0,-1.0722657 l -1.61914,-1.6191406 c -0.293747,-0.2937467 -0.776566,-0.2937467 -1.070313,0 l -3.150391,3.1503906 c -0.01836,0.018359 -0.03863,0.03885 -0.05469,0.058594 H 18.154668 L 20.213262,3.888672 c 0.332095,-0.3320951 0.332094,-0.8768885 0,-1.2089843 L 18.283577,0.74804688 C 18.117529,0.58199893 17.897538,0.49999991 17.678108,0.5 Z" /><path
         style="fill:none;fill-rule:evenodd;stroke:#070707;stroke-width:0.5;stroke-dasharray:none;stroke-opacity:1"
         d="M 16.067709,3.7081613 V 12.5 h 6"
         id="path1"
         sodipodi:nodetypes="ccc" /><path
         style="fill:none;fill-rule:evenodd;stroke:#070707;stroke-width:0.5;stroke-dasharray:none;stroke-opacity:1"
         d="m 16.721192,5.75 h 4.846517"
         id="path2"
         sodipodi:nodetypes="cc" /><rect
         style="fill:url(#linearGradient1226-7-2);fill-opacity:1;fill-rule:evenodd;stroke:url(#linearGradient1218-3-8);stroke-width:0.5;stroke-linecap:round;stroke-linejoin:round;stroke-miterlimit:4;stroke-dasharray:none;stroke-opacity:1"
         id="rect1134-6-2"
         width="6.5234318"
         height="3.9412405"
         x="5.6249962"
         y="12.219135"
         rx="0.60555822"
         ry="0.60555822"
         transform="rotate(-45)" /><rect
         style="fill:url(#linearGradient1);fill-opacity:1;fill-rule:evenodd;stroke:url(#linearGradient2);stroke-width:0.5;stroke-linecap:round;stroke-linejoin:round;stroke-miterlimit:4;stroke-dasharray:none;stroke-opacity:1"
         id="rect1134-3"
         width="5.4688535"
         height="3.3040991"
         x="10.491236"
         y="18.94405"
         rx="0.50766361"
         ry="0.50766361"
         transform="rotate(-45)" /><rect
         y="23.642557"
         x="5.7927289"
         height="3.3040991"
         width="5.4688535"
         id="rect1134-6-1"
         style="fill:url(#linearGradient3);fill-opacity:1;fill-rule:evenodd;stroke:url(#linearGradient4);stroke-width:0.5;stroke-linecap:round;stroke-linejoin:round;stroke-miterlimit:4;stroke-dasharray:none;stroke-opacity:1"
         rx="0.50766361"
         ry="0.50766361"
         transform="rotate(-45)" /></g><path
       id="path143"
       style="color:#000000;opacity:0.75;fill:#000000;fill-opacity:1;stroke-linecap:round;-inkscape-stroke:none;filter:url(#filter905)"
       d="m 18.530464,8.1771506 c -0.247427,-0.00686 -0.501064,0.06035 -0.738281,0.2226563 l -3.761719,2.5742191 a 0.375,0.375 0 0 0 -0.01172,0.01367 c -0.571027,0.430724 -0.943359,1.114145 -0.943359,1.88086 0,1.296226 1.059242,2.355467 2.355468,2.355468 1.296227,0 2.353516,-1.059242 2.353516,-2.355468 0,-0.132539 -0.01197,-0.261968 -0.0332,-0.388672 0.14584,-0.06183 0.399327,-0.126386 0.652344,-0.125 0.262723,0.0014 0.517592,0.07729 0.642578,0.134765 -0.02019,0.123556 -0.03125,0.249839 -0.03125,0.378907 0,1.296226 1.059242,2.355467 2.355469,2.355468 1.296226,0 2.355468,-1.059242 2.355468,-2.355468 0,-0.372293 -0.08691,-0.72535 -0.242187,-1.039063 l 2.990234,-2.0468754 c 0.570756,-0.3905163 1.415607,0.5437154 0.982422,1.0546884 a 0.375,0.375 0 0 0 0.04297,0.529296 0.375,0.375 0 0 0 0.529297,-0.04492 c 0.739162,-0.871895 -0.03269,-2.1368327 -0.99805,-2.3496095 -0.321787,-0.070926 -0.664178,-0.025003 -0.980469,0.1914058 l -3.001953,2.0546887 c -0.427886,-0.434871 -1.022709,-0.705078 -1.677734,-0.705078 -0.89583,0 -1.678144,0.505668 -2.076172,1.246093 -0.268763,-0.121171 -0.577896,-0.152606 -0.886719,-0.154296 -0.31192,-0.0017 -0.626537,0.03026 -0.904297,0.148437 -0.319345,-0.590692 -0.883344,-1.030008 -1.554687,-1.18164 l 2.267578,-1.5527357 c 0.570754,-0.390516 1.415605,0.543715 0.982422,1.0546887 a 0.375,0.375 0 0 0 0.04492,0.529297 0.375,0.375 0 0 0 0.527344,-0.04492 c 0.739164,-0.8718967 -0.03073,-2.1368336 -0.996094,-2.3496105 -0.08045,-0.017732 -0.161665,-0.028963 -0.24414,-0.03125 z" /><g
       id="g2793"
       transform="matrix(0.39601462,0,0,0.39601462,6.2436797,-0.25238547)"
       style="stroke-width:1.89387;stroke-dasharray:none"><path
         style="fill:none;stroke:#666699;stroke-width:1.89387;stroke-linecap:round;stroke-linejoin:miter;stroke-dasharray:none;stroke-opacity:1"
         d="m 19.567709,28.5 9.5,-6.5 c 2.317992,-1.585995 5.530331,1.94285 3.739064,4.055782"
         id="path1087"
         sodipodi:nodetypes="csc" /><circle
         style="opacity:1;fill:url(#linearGradient2035);fill-opacity:1;stroke:#666699;stroke-width:1.89387;stroke-linecap:round;stroke-linejoin:round;stroke-dasharray:none;stop-color:#000000"
         id="path399"
         cx="22.567709"
         cy="32.5"
         r="5" /><path
         style="fill:none;stroke:#666699;stroke-width:1.89387;stroke-linecap:round;stroke-linejoin:miter;stroke-dasharray:none;stroke-opacity:1"
         d="m 41.769724,29.504333 8.148538,-5.575315 c 2.317992,-1.585995 5.530331,1.94285 3.739064,4.055782"
         id="path1087-6"
         sodipodi:nodetypes="csc" /><circle
         style="opacity:1;fill:url(#linearGradient2037);fill-opacity:1;stroke:#666699;stroke-width:1.89387;stroke-linecap:round;stroke-linejoin:round;stroke-dasharray:none;stop-color:#000000"
         id="path399-3"
         cx="37.567711"
         cy="32.5"
         r="5" /><path
         style="fill:none;stroke:#666699;stroke-width:1.89387;stroke-linecap:butt;stroke-linejoin:miter;stroke-dasharray:none;stroke-opacity:1"
         d="M 27.509488,30.977782 C 28.567709,30 31.62593,30.022218 32.567709,31"
         id="path1085"
         sodipodi:nodetypes="cc" /></g></g></svg>
