<?xml version="1.0" encoding="UTF-8" standalone="no"?>
<svg
   inkscape:export-ydpi="96"
   inkscape:export-xdpi="96"
   inkscape:export-filename="/home/klapeto/Folder-closed.png"
   width="16"
   height="16"
   viewBox="0 0 16 16"
   version="1.1"
   id="svg8"
   inkscape:version="1.2.2 (b0a8486541, 2022-12-01)"
   sodipodi:docname="web-folder.svg"
   xmlns:inkscape="http://www.inkscape.org/namespaces/inkscape"
   xmlns:sodipodi="http://sodipodi.sourceforge.net/DTD/sodipodi-0.dtd"
   xmlns:xlink="http://www.w3.org/1999/xlink"
   xmlns="http://www.w3.org/2000/svg"
   xmlns:svg="http://www.w3.org/2000/svg"
   xmlns:rdf="http://www.w3.org/1999/02/22-rdf-syntax-ns#"
   xmlns:cc="http://creativecommons.org/ns#"
   xmlns:dc="http://purl.org/dc/elements/1.1/">
  <defs
     id="defs2">
    <linearGradient
       inkscape:collect="always"
       id="linearGradient99492">
      <stop
         style="stop-color:#d3a03a;stop-opacity:1"
         offset="0"
         id="stop99488" />
      <stop
         style="stop-color:#f8c55f;stop-opacity:1"
         offset="1"
         id="stop99490" />
    </linearGradient>
    <linearGradient
       inkscape:collect="always"
       id="linearGradient70027">
      <stop
         style="stop-color:#ffd46e;stop-opacity:1"
         offset="0"
         id="stop70023" />
      <stop
         style="stop-color:#ffff99;stop-opacity:1"
         offset="1"
         id="stop70025" />
    </linearGradient>
    <linearGradient
       inkscape:collect="always"
       id="linearGradient52099">
      <stop
         style="stop-color:#9a6701;stop-opacity:1"
         offset="0"
         id="stop52095" />
      <stop
         style="stop-color:#c5922c;stop-opacity:1"
         offset="1"
         id="stop52097" />
    </linearGradient>
    <linearGradient
       inkscape:collect="always"
       id="linearGradient38451">
      <stop
         style="stop-color:#b07d17;stop-opacity:1"
         offset="0"
         id="stop38447" />
      <stop
         style="stop-color:#cc9933;stop-opacity:1"
         offset="1"
         id="stop38449" />
    </linearGradient>
    <linearGradient
       inkscape:collect="always"
       id="linearGradient17863">
      <stop
         style="stop-color:#ffcc66;stop-opacity:1"
         offset="0"
         id="stop17859" />
      <stop
         style="stop-color:#ffd46e;stop-opacity:1"
         offset="0.5"
         id="stop30484" />
      <stop
         style="stop-color:#ffff99;stop-opacity:1"
         offset="1"
         id="stop17861" />
    </linearGradient>
    <linearGradient
       inkscape:collect="always"
       xlink:href="#linearGradient17863"
       id="linearGradient17865"
       x1="-3.932291"
       y1="12.5"
       x2="-3.932291"
       y2="4.5"
       gradientUnits="userSpaceOnUse" />
    <linearGradient
       inkscape:collect="always"
       xlink:href="#linearGradient38451"
       id="linearGradient38453"
       x1="-2.4017735"
       y1="7.0517826"
       x2="-4.4417763"
       y2="4.0086713"
       gradientUnits="userSpaceOnUse" />
    <linearGradient
       inkscape:collect="always"
       xlink:href="#linearGradient52099"
       id="linearGradient52101"
       x1="0.067708999"
       y1="15"
       x2="-3.9678185"
       y2="11.01023"
       gradientUnits="userSpaceOnUse"
       gradientTransform="translate(22,-3)" />
    <linearGradient
       inkscape:collect="always"
       xlink:href="#linearGradient70027"
       id="linearGradient70029"
       x1="-1.432291"
       y1="15.5"
       x2="-1.432291"
       y2="11.5"
       gradientUnits="userSpaceOnUse"
       gradientTransform="translate(22,-3)" />
    <linearGradient
       inkscape:collect="always"
       xlink:href="#linearGradient99492"
       id="linearGradient99494"
       x1="7.067709"
       y1="12.5"
       x2="7.067709"
       y2="8.5"
       gradientUnits="userSpaceOnUse"
       gradientTransform="translate(18)" />
    <filter
       inkscape:collect="always"
       style="color-interpolation-filters:sRGB"
       id="filter12"
       x="-0.13229999"
       y="-0.16537501"
       width="1.2646"
       height="1.33075">
      <feGaussianBlur
         inkscape:collect="always"
         stdDeviation="0.82687505"
         id="feGaussianBlur12" />
    </filter>
    <linearGradient
       x2="819.20001"
       x1="-819.20001"
       spreadMethod="pad"
       id="gradient0-1-6"
       gradientUnits="userSpaceOnUse"
       gradientTransform="matrix(-0.06721779,-0.06721779,-0.06721779,0.06721779,-139.50058,17.615253)">
      <stop
         id="stop4093-0"
         stop-color="#003399"
         offset="0.0" />
      <stop
         id="stop4095-6"
         stop-color="#0099ff"
         offset="0.47058823529411764" />
      <stop
         id="stop4097-2"
         stop-color="#ccffff"
         offset="1.0" />
    </linearGradient>
    <radialGradient
       spreadMethod="pad"
       r="819.20001"
       id="gradient1-6-9"
       gradientUnits="userSpaceOnUse"
       gradientTransform="matrix(0.14927588,0,0,0.14927588,-148.88488,-20.358437)"
       cy="0"
       cx="0"
       fx="0"
       fy="0"
       fr="0">
      <stop
         id="stop4100-1"
         stop-color="#ffffff"
         offset="0.0" />
      <stop
         id="stop4102-2"
         stop-color="#ccffff"
         offset="0.0784313725490196" />
      <stop
         id="stop4104-7"
         stop-color="#0099ff"
         offset="0.2980392156862745" />
      <stop
         id="stop4106-0"
         stop-color="#0066cc"
         offset="0.5372549019607843" />
      <stop
         id="stop4108-9"
         stop-color="#003399"
         offset="0.7529411764705882" />
      <stop
         id="stop4110-3"
         stop-color="#9999ff"
         offset="1.0"
         style="stop-color:#003399;stop-opacity:1" />
    </radialGradient>
    <radialGradient
       xlink:href="#linearGradient112945"
       id="radialGradient112947"
       cx="17.520464"
       cy="11.413896"
       fx="17.520464"
       fy="11.413896"
       r="18.71875"
       gradientTransform="matrix(2.902442,4.2729138,-4.0226818,2.732468,-164.46482,-137.93413)"
       gradientUnits="userSpaceOnUse" />
    <linearGradient
       id="linearGradient112945">
      <stop
         style="stop-color:#c1fabb;stop-opacity:1"
         offset="0"
         id="stop112941" />
      <stop
         style="stop-color:#6ccf3b;stop-opacity:1"
         offset="0.28949517"
         id="stop133158" />
      <stop
         style="stop-color:#009100;stop-opacity:1"
         offset="0.61972094"
         id="stop173606" />
      <stop
         style="stop-color:#0f661e;stop-opacity:1"
         offset="1"
         id="stop112943" />
    </linearGradient>
    <radialGradient
       spreadMethod="pad"
       r="819.20001"
       id="gradient1-6-7"
       gradientUnits="userSpaceOnUse"
       gradientTransform="matrix(0.14927588,0,0,0.14927588,-148.88488,-20.358437)"
       cy="0"
       cx="0"
       fx="0"
       fy="0"
       fr="0">
      <stop
         id="stop4100-5"
         stop-color="#ffffff"
         offset="0.0"
         style="stop-color:#ffffff;stop-opacity:0" />
      <stop
         id="stop4108-8"
         stop-color="#003399"
         offset="0.7529411764705882"
         style="stop-color:#9999ff;stop-opacity:0.05691801" />
      <stop
         id="stop4110-9"
         stop-color="#9999ff"
         offset="1.0" />
    </radialGradient>
    <linearGradient
       inkscape:collect="always"
       xlink:href="#linearGradient70027-9"
       id="linearGradient70029-0"
       x1="-1.432291"
       y1="15.5"
       x2="-1.432291"
       y2="11.5"
       gradientUnits="userSpaceOnUse"
       gradientTransform="translate(22.09573,-3.0270794)" />
    <linearGradient
       inkscape:collect="always"
       id="linearGradient70027-9">
      <stop
         style="stop-color:#ffffe0;stop-opacity:1"
         offset="0"
         id="stop70023-3" />
      <stop
         style="stop-color:#ffffe0;stop-opacity:1"
         offset="1"
         id="stop70025-6" />
    </linearGradient>
  </defs>
  <sodipodi:namedview
     showguides="false"
     id="base"
     pagecolor="#ffffff"
     bordercolor="#666666"
     borderopacity="1.0"
     inkscape:pageopacity="0.0"
     inkscape:pageshadow="2"
     inkscape:zoom="45.254834"
     inkscape:cx="11.324757"
     inkscape:cy="2.5080194"
     inkscape:document-units="px"
     inkscape:current-layer="layer1"
     inkscape:document-rotation="0"
     showgrid="false"
     units="px"
     inkscape:window-width="3840"
     inkscape:window-height="2061"
     inkscape:window-x="1280"
     inkscape:window-y="0"
     inkscape:window-maximized="1"
     inkscape:snap-bbox="true"
     inkscape:bbox-nodes="true"
     fit-margin-top="0"
     fit-margin-left="0"
     fit-margin-right="0"
     fit-margin-bottom="0"
     inkscape:bbox-paths="false"
     inkscape:snap-global="true"
     inkscape:pagecheckerboard="0"
     scale-x="0.26458"
     inkscape:showpageshadow="2"
     inkscape:deskcolor="#d1d1d1">
    <inkscape:grid
       type="xygrid"
       id="grid1504"
       originx="0"
       originy="0"
       spacingy="1"
       spacingx="1"
       units="px"
       visible="false" />
    <inkscape:grid
       type="xygrid"
       id="grid1507"
       spacingx="0.5"
       spacingy="0.5"
       originx="0"
       originy="0"
       units="px"
       visible="false" />
  </sodipodi:namedview>
  <metadata
     id="metadata5">
    <rdf:RDF>
      <cc:Work
         rdf:about="">
        <dc:format>image/svg+xml</dc:format>
        <dc:type
           rdf:resource="http://purl.org/dc/dcmitype/StillImage" />
      </cc:Work>
    </rdf:RDF>
  </metadata>
  <g
     inkscape:label="Layer 1"
     inkscape:groupmode="layer"
     id="layer1"
     transform="translate(-12.567709)">
    <path
       id="path1"
       style="fill:#000000;fill-opacity:1;fill-rule:evenodd;stroke:none;stroke-linecap:round;stroke-linejoin:round;stop-color:#000000;filter:url(#filter12);opacity:0.75"
       d="m 15.567711,2.5 c -0.229166,0 -0.364332,0.081476 -0.492187,0.1601562 -0.127856,0.07868 -0.244068,0.1733289 -0.363282,0.2792969 -0.238429,0.211936 -0.482464,0.4715893 -0.708984,0.7304688 C 13.550219,4.1876808 13.16732,4.6992187 13.16732,4.6992188 A 0.50005,0.50005 0 0 0 13.067711,5 v 8 c 0,0.82235 0.677651,1.5 1.5,1.5 h 11 1 c 0.82235,0 1.5,-0.67765 1.5,-1.5 V 7 a 0.50005,0.50005 0 0 0 -0.5,-0.5 h -1.5 V 5 a 0.50005,0.50005 0 0 0 -0.5,-0.5 H 20.747399 C 20.638244,4.3509539 20.453648,4.0910919 20.10482,3.6777344 19.886001,3.4184356 19.650424,3.1564563 19.41732,2.9433594 19.300767,2.8368109 19.18694,2.7418148 19.059899,2.6621094 18.932857,2.5824039 18.796878,2.5 18.567711,2.5 Z" />
    <g
       id="g51229"
       transform="translate(18)">
      <path
         id="path50157"
         style="opacity:1;fill:url(#linearGradient17865);fill-opacity:1;fill-rule:evenodd;stroke:none;stroke-linecap:round;stroke-linejoin:round;stop-color:#000000"
         d="m -2.932291,2.5 h 2.99999997 c 0.5,0 1.93777903,2 1.93777903,2 h 5.062221 v 9 h -11 c -0.554,0 -1,-0.446 -1,-1 v -8 c 0,0 1.5,-2 2,-2 z"
         sodipodi:nodetypes="cccccsscc" />
      <path
         style="fill:none;stroke:#ffffff;stroke-width:1px;stroke-linecap:butt;stroke-linejoin:miter;stroke-opacity:1"
         d="M -4.8514149,5.8970732 -2.804,3.5166649 -0.13474153,3.4686151 1.567709,5.5 h 5.5"
         id="path50009"
         sodipodi:nodetypes="ccccc" />
      <path
         id="rect1090"
         style="opacity:1;fill:none;fill-opacity:1;fill-rule:evenodd;stroke:url(#linearGradient38453);stroke-linecap:round;stroke-linejoin:round;stop-color:#000000"
         d="m -2.932291,2.5 h 2.99999997 c 0.50000003,0 1.93777903,2 1.93777903,2 h 5.062221 v 9 h -11 c -0.554,0 -1,-0.446 -1,-1 v -8 c 0,0 1.5,-2 2,-2 z"
         sodipodi:nodetypes="cccccsscc" />
    </g>
    <rect
       style="fill:url(#linearGradient70029);fill-opacity:1;fill-rule:evenodd;stroke:none;stroke-width:1;stroke-linecap:round;stroke-linejoin:round;stroke-miterlimit:4;stroke-dasharray:none;stroke-opacity:1;stop-color:#000000"
       id="rect51881"
       width="12"
       height="7"
       x="15.067709"
       y="6.5"
       rx="1"
       ry="1" />
    <path
       style="fill:none;stroke:url(#linearGradient99494);stroke-width:1px;stroke-linecap:butt;stroke-linejoin:miter;stroke-opacity:1"
       d="m 25.067709,6.5 v 7"
       id="path99486" />
    <path
       style="fill:none;fill-opacity:1;stroke:#ffff99;stroke-width:1px;stroke-linecap:butt;stroke-linejoin:miter;stroke-opacity:1"
       d="m 16.067709,7.5 v 6"
       id="path90149" />
    <path
       style="fill:none;fill-opacity:1;stroke:#ffff99;stroke-width:1px;stroke-linecap:butt;stroke-linejoin:miter;stroke-opacity:1"
       d="m 26.067709,7.5 v 6"
       id="path90149-3" />
    <path
       id="path1886"
       style="fill:#d0ac57;fill-opacity:1;fill-rule:evenodd;stroke:none;stroke-width:0.0628683"
       d="m 16.526693,6.4648435 c 0,1.3744735 0.486568,2.5533889 1.458984,3.5351565 0.981768,0.972417 2.165005,1.458984 3.548828,1.458984 1.374476,0 2.551438,-0.486567 3.533204,-1.458984 0.972417,-0.9817676 1.458984,-2.160683 1.458984,-3.5351565 z"
       sodipodi:nodetypes="ccsccc" />
    <rect
       style="fill:#ffe680;fill-opacity:1;fill-rule:evenodd;stroke:none;stroke-width:1;stroke-linecap:round;stroke-linejoin:round;stroke-miterlimit:4;stroke-dasharray:none;stroke-opacity:1;stop-color:#000000"
       id="rect109807"
       width="1"
       height="1"
       x="24.567709"
       y="7" />
    <path
       style="fill:none;stroke:#ffffff;stroke-width:1px;stroke-linecap:butt;stroke-linejoin:miter;stroke-opacity:1"
       d="m 15.067709,7.5 h 12"
       id="path84301"
       sodipodi:nodetypes="cc" />
    <g
       id="g1529"
       transform="matrix(0.06426535,0,0,0.06426535,30.539774,3.8609365)">
      <path
         d="m -217.41211,17.615253 q 0,32.08121 22.69691,54.996374 22.91517,22.696914 55.21462,22.696914 32.08124,0 54.996379,-22.696914 22.696933,-22.915164 22.696933,-54.996374 0,-32.29946 -22.696933,-54.996379 -22.915139,-22.696917 -54.996379,-22.696917 -32.29945,0 -55.21462,22.696917 -22.69691,22.696919 -22.69691,54.996379"
         id="path3998-8"
         style="fill:url(#gradient0-1-6);fill-rule:evenodd;stroke:none;stroke-width:0.978261" />
      <path
         d="m -213.04731,17.615253 q 0,30.335298 21.38747,51.94102 21.60572,21.605723 52.15926,21.605723 30.33531,0 52.159275,-21.605723 21.387473,-21.605722 21.387473,-51.94102 0,-30.553544 -21.387473,-52.159264 -21.823965,-21.605719 -52.159275,-21.605719 -30.55354,0 -52.15926,21.605719 -21.38747,21.60572 -21.38747,52.159264"
         id="path4000-79"
         style="fill:url(#gradient1-6-9);fill-rule:evenodd;stroke:none;stroke-width:0.978261" />
      <path
         d="m -147.79343,-55.273706 v 0.433557 h -0.43356 v 0.433556 h -1.74867 v 0.440782 h -1.74868 v 0.650335 h -0.43356 v 1.748677 h 0.87434 v 0.433556 h 3.92369 v 0.440782 h -2.18223 v 0.874339 h -0.43356 v -0.440782 h -1.74868 v 0.874338 h 0.44078 v 1.307895 h -0.44078 v 0.874339 h -0.86711 v 0.433556 h -0.44078 v 0.440782 h -0.43356 v 0.433556 h -0.44078 v 1.091117 h -0.65034 v 0.440783 h -0.44078 v 0.867112 h 0.44078 v 0.440782 h 1.09112 v 0.433557 h 1.74145 v 0.440782 h 1.74868 v -0.440782 h 0.87434 v -1.307895 h 0.43355 v -0.433556 h 0.87434 v -0.440783 h 0.43356 v -0.433556 h 0.44078 v -0.657561 h 0.43356 v -0.874338 h 0.65756 v -0.433556 h 1.74145 v -0.433557 h 0.44078 v 0.867113 h -0.44078 v 0.874338 h 1.31512 v 1.091117 h 0.43355 v 0.440783 h -0.43355 v 0.433556 h -1.74868 v 0.433556 h -0.43355 v 0.440782 h -2.40624 v 0.433557 h -0.43356 v 0.440782 h -0.43356 v 0.433556 h 0.43356 v 0.440782 h 0.87434 v 0.433557 h 1.09112 v 0.433556 h 0.43355 v 0.440782 h -1.96545 v 1.307895 h 0.44078 v 0.874339 h 2.83257 v 1.091116 h 0.87434 v -0.65756 h 1.30789 v -0.433556 h 3.49736 v 0.433556 h 0.65033 v 0.65756 h 0.44078 v 1.307895 h 0.43356 v 0.433557 h 0.43355 v 3.497352 h -0.43355 v 0.433558 h -0.43356 v 0.433558 h 1.74145 v 0.44078 h -0.43355 v 0.433558 h 0.43355 v 0.44078 h 1.31512 v 0.650338 h 0.43356 v 0.440779 h -0.43356 v 0.433559 h -0.87433 v 0.874338 h -0.44079 v 0.433554 h -0.43355 v 0.440784 h 0.43355 v 1.741451 h 0.44079 v 0.874338 h 0.43355 v 0.874338 h 0.44078 v 0.874338 h 0.43356 v 0.433558 h 0.43356 v 1.091117 h 0.44078 v 0.44078 h 0.43356 v 0.433558 h 2.18223 v 0.433555 h 1.96546 v -1.307893 h 0.43355 v -1.524675 h 1.09112 v -1.307893 h 0.44078 v -0.874338 h 1.3079 v -0.440783 h 1.30789 v -0.433555 h 0.44078 v -0.440784 h 0.43356 v -0.433558 h 0.43356 v -0.874338 h 1.74867 v -0.433554 h 0.43356 v -0.440784 h 0.44078 v 0.440784 h 0.87434 v -0.440784 h 1.52467 v -0.433554 h 0.43356 v -0.433559 h 1.31512 v -0.440779 h 0.43355 v -1.091118 h 0.44079 v -1.741454 h -0.44079 v -0.44078 h -0.43355 v -1.741451 h 1.30789 v -0.440783 h 0.43356 v -0.433556 h 0.44078 v -0.440782 h 0.43356 v -0.433557 h 0.44078 v -1.307895 h -0.44078 v -0.65756 h -0.43356 v -0.433556 h 2.18223 v -0.874339 h -0.44078 v -0.433556 h -0.43355 v -0.874339 h -0.43356 v -0.874338 h -1.31512 v -0.433557 h -1.3079 v 1.741452 h -0.43355 v 0.874338 h -0.44078 v -1.748677 h -0.43356 v -0.433556 h 0.43356 v -1.307895 h 0.87433 v 0.433556 h 0.87434 v -1.307895 h 1.74868 v -0.874338 h -0.44078 v -0.433556 h -1.74145 v 0.867112 h -0.87434 v 0.440782 h -0.44078 v -1.307894 h 0.44078 v -0.440783 h 3.49013 v -0.433556 h 0.43355 v -0.657561 h -2.18223 v -0.433556 h 0.44078 v -0.874338 h 0.43356 v -0.433557 h 0.87434 v -0.440782 h 0.43355 v -1.307895 h 0.44078 v -0.874338 h -0.87433 v -0.433557 h -2.18224 v 1.307895 h -0.43355 v 0.433557 h -0.44079 v 0.440782 h -0.87433 v -0.440782 h 0.44078 v -0.433557 h 0.43355 v -0.433556 h 0.44079 v -1.315121 h -2.62302 v -0.433556 h 0.43356 v -0.874339 h -0.43356 v -0.433556 h -1.96545 v -0.440782 h -1.74145 v -0.650335 h -1.74868 v -0.440782 h -5.02203 v 0.440782 h -0.86711 v 0.650335 h -1.5319 v 0.440782 h -0.43356 v 0.433556 h -1.30789 v 0.440782 h -0.44078 v 0.433557 h -2.18224 v 0.433556 h -2.18223 v 0.440782 h -2.39901 v 0.433557 h -1.3079 v -0.433557 h 0.86711 v -0.440782 h 0.87435 v -0.433556 h -0.43356 v -0.433557 h -0.44079 v -1.965455 h -0.43355 v -0.440782 h -0.43356 v -0.433556 h -0.44078 v -0.433557 h -3.05657 v 0.433557 h -1.3079 v -0.433557 z m -10.26083,1.95823 v 0.874338 h -0.43356 v 1.307895 h -0.43355 v -0.433556 h -0.87434 v -0.874339 h -1.74868 v 0.440782 h -1.52467 v 0.433557 h 1.09112 v 0.433556 h 0.43355 v 0.440782 h 0.87434 v 0.433557 h 1.3079 v -0.433557 h 0.44078 v 0.874339 h 0.43355 v 0.433556 h -0.43355 v 0.433557 h 0.86711 v 0.874338 h -0.43356 v 0.440782 h 0.43356 v 1.307895 h 3.05657 v -0.874338 h 0.44078 v -0.433557 h 0.65034 v -0.874338 h 0.44078 v -1.307895 h -1.09112 v -1.748677 h -0.44078 v -0.433557 h -0.43355 v -0.440782 h -1.3079 v -0.874338 z m -6.3227,1.748677 v 0.433556 h 0.43356 v -0.433556 z m -3.05657,1.307895 v 0.440782 h -1.3079 v 0.433556 h -0.87433 v 0.874339 h 1.74145 v 1.741451 h 1.31512 v 0.440782 h 0.43356 v -0.440782 h 0.43355 v 0.440782 h 0.44079 v 3.706907 h -0.87434 v 0.874338 h -0.43356 v 0.440782 h -0.44078 v 0.867113 h 0.44078 v 3.056572 h 1.3079 v -1.307895 h 0.43355 v -0.433556 h 0.87434 v -0.440782 h 0.43356 v -0.433557 h 0.44078 v -1.307895 h 0.43355 v -0.440782 h 3.27336 v -0.433556 h 0.87433 v 0.433556 h 1.3079 v 1.748677 h 4.58847 v -1.307895 h -0.44078 v -0.874338 h -2.8398 v -3.056572 h -0.86711 v -0.657561 h -1.74868 v -0.433556 h -1.74867 v 0.433556 h -1.74145 v -0.433556 h -0.65757 v -0.440782 h -0.87433 v -0.867113 h -0.43356 v -0.874338 h -1.74868 v -0.440782 h -0.43355 v -0.433557 h -0.87434 v -0.874338 z m -4.14769,1.748677 v 0.433556 h -0.87434 v 0.440782 h -0.87434 v 0.433557 h -0.87433 v 0.433556 h 0.44078 v 0.440782 h 0.87434 v 0.433556 h 0.43355 v 1.091117 h 0.44079 v 0.440783 h 1.52467 v 0.433556 h 2.61579 v -0.433556 h 0.87434 v -1.965456 h -3.05657 v 1.091117 h -0.43356 v -2.399012 h 0.43356 v -0.874338 z m -5.67236,3.27335 v 0.433556 h -0.87434 v 0.440783 h -0.44078 v 0.433556 h -1.09112 v 0.433556 h -0.43355 v 0.440782 h -0.87434 v 0.433557 h 0.87434 v 0.874338 h 2.39901 v -0.433556 h 1.74868 v -0.440782 h 0.87433 v -0.874339 h 0.43356 v -0.867112 h -0.43356 v -0.440783 h -1.31512 v -0.433556 z m 4.36447,2.182233 v 0.433557 h -0.44079 v 1.748677 h -1.30789 v 1.307895 h 0.43356 v 0.440782 h 0.44078 v 0.433556 h 0.43355 v 0.874339 h 0.87434 v 0.433556 h 2.39902 v -0.433556 h 0.44078 v 1.091116 h -0.44078 v 0.433557 h -0.43356 v 0.874338 h -1.09112 v 0.874339 h -0.87434 v -1.307895 h -1.30789 v -0.440782 h -1.3079 v -1.091117 h -0.44078 v -2.61579 h -0.43355 v -0.440782 h -1.3079 v 0.440782 h -0.44078 v -0.440782 h -1.96546 v -0.433556 h -1.30789 v 0.874338 h -0.43356 v -1.307895 h -0.87434 v -0.440782 h -0.43355 v 0.440782 h -0.44079 v 0.867113 h -0.43355 v -0.433556 h -0.44078 v 0.433556 h -0.43356 v 0.440782 h -0.43356 v 0.433557 h -0.44078 v 0.440782 h -0.87434 v 0.433556 h -0.43355 v 0.433557 h 0.87434 v -0.433557 h 0.43355 v 0.874339 h 0.44078 v 1.524673 h 0.86712 v 0.440782 h 1.74867 v -0.440782 h 0.87434 v 0.440782 h 0.87434 v 0.433556 h -3.49735 v 1.307895 h 0.44078 v 0.440783 h 1.30789 v 0.433556 h 0.43356 v 0.433556 h 2.18223 v -0.433556 h 2.40624 v -0.433556 h 1.3079 v 0.433556 h 2.18223 v -0.433556 h 0.43355 v -0.874339 h 0.44079 v 1.307895 h 0.87434 v 0.433556 h 0.86711 v -0.433556 h 1.09112 v 0.433556 h 0.44078 v 0.874339 h 0.43355 v 0.44078 h 0.44078 v 0.867116 h -0.44078 v 0.44078 h -1.30789 v -0.44078 h 0.43356 v -0.867116 h -2.83257 v 1.307896 h -1.74868 v 0.433558 h -0.43356 v -0.433558 h -0.44078 v -0.44078 h -0.43355 v -0.433558 h -1.3079 v -0.874338 h -0.44078 v -0.433557 h -0.43356 v 0.433557 h -1.96545 v 0.44078 h -0.43356 v 1.307896 h 0.43356 v 0.433558 h -0.43356 v 0.44078 h -0.44078 v -0.874338 h -0.43356 v -0.44078 h -0.87434 v 0.44078 h -2.18223 v -0.44078 h 0.43356 v -1.307896 h -0.43356 v -0.433557 h -0.43356 v -0.440782 h -0.87433 v 0.874339 h -0.44079 v -0.433557 h -0.43355 v -0.440782 h -0.65756 v -0.433556 h -0.86712 v -0.433556 h -0.87433 v -0.440783 l -3.04935,-0.0072 c -0.6911,0.643684 -3.2026,3.213602 -6.75625,7.861821 -2.43507,3.185088 -4.64239,6.676703 -5.60733,8.714483 l 0.57085,0.02183 v 0.867113 h 0.43355 v 0.440783 h 0.44079 v 0.433555 h 1.96545 v 0.440783 h 1.3079 v 0.433555 h 0.43355 v 0.433558 h 0.44078 v 0.874186 h 0.86712 v 1.531898 h 0.44078 v 0.433558 h 0.87434 v 0.433558 h -0.44078 v 1.3151179 h 0.44078 v 1.5246754 h 0.43355 v 0.4335544 h 0.43356 v 0.4407836 h 0.44078 v 0.8743381 h 0.65034 v 0.4335545 h 0.87434 v 0.4335582 h 0.44078 v 0.4407836 h 0.87434 v 0.4335544 h 0.43355 v 0.4407837 h 0.43356 v 3.2733478 h -0.43356 v 2.1822343 h -0.43355 v 4.364465 h 0.43355 v 0.8743418 h 0.43356 v 1.0911135 h 0.44078 v 0.4335582 h 0.43356 v 0.8743381 h 0.87434 v 0.874338 h 0.43355 v 0.4335582 h 0.44079 v 0.4335543 h 1.30789 v 0.440784 h 0.43356 v 1.307896 h 0.65756 v 0.433555 h 0.43355 v 0.874338 h 0.44079 v 0.440783 h 0.43355 v 1.091117 h 0.44078 v 0.874339 h 0.86712 v 0.433554 h 0.44078 v 0.433558 h 0.43355 v 0.874338 h 0.44079 v 0.440784 h 0.43355 v 0.867109 h 0.87434 v 0.440783 h 1.3079 v -0.874338 h -0.43356 V 18.05512 h -0.44078 v -0.874342 h -0.43356 v -0.44078 h -0.44078 v -0.867112 h 0.87434 v 0.867112 h 0.44078 v 0.44078 h 0.86711 v 0.874342 h 1.09112 v 0.433554 h 0.44078 v 0.433555 h 0.43356 v 1.74868 h 0.44078 v 1.307892 h 0.86711 v 0.440784 h 1.74868 v 0.650333 h 0.87434 v 0.440784 h 2.18223 v 0.867113 h 5.02203 v 0.44078 h 0.43356 v 0.433558 h 0.43355 v 0.440783 h 0.44079 v 0.433555 h 1.30789 v 0.433558 h 0.87434 v 0.44078 h 0.43355 v 0.874338 h 0.65757 v 1.307896 h 0.87433 v 0.433558 h 3.04935 v 0.44078 h 1.74868 v 0.433559 h 0.43355 v 1.965455 h -0.43355 v 0.874338 h -0.43356 v 0.867112 h -0.44078 v 1.315122 h -0.43356 v 0.874338 h -0.87434 v 0.433555 h -0.43355 v 1.748676 h -0.44078 v 1.091117 h 0.44078 v 1.307896 h 0.43355 v 0.433555 h 0.43356 v 0.440783 h 0.44078 v 0.867113 h 0.43356 v 0.874338 h 0.44078 v 2.182235 h 0.43356 v 0.440779 h 0.43355 v 0.433559 h 0.44079 v 0.433558 h 0.43355 v 0.657559 h 1.09112 v 0.433554 h 0.87434 v 0.440784 h 0.44078 v 0.433558 h 0.43355 v 0.44078 h 0.43356 v 7.197037 h -0.43356 v 1.315118 h -0.43355 v 3.049347 h -0.44078 v 2.406238 h -0.43356 v 1.307893 h -0.44078 v 3.273352 h 0.44078 v 0.433558 h -0.44078 v 0.874338 h -0.65034 v 0.874338 h 0.65034 v 3.490127 h -0.65034 v 0.440783 h -0.44078 v 1.95823 h -0.43355 v 5.238803 h 0.43355 v 0.440784 h 0.44078 v 0.433554 h 0.65034 v 0.433559 h 0.87434 v -0.433559 h 0.87433 v 0.433559 h 0.43356 V 83.7389 h -0.86711 v 1.315118 h 0.86711 v 0.867116 h 1.74868 v 0.44078 h 0.87434 v -0.44078 h 0.87433 v 0.44078 h 0.86712 v -0.874338 h 0.44078 V 84.17968 h -0.44078 V 83.7389 h -0.43356 v -0.433558 h -1.30789 v -0.657559 h -0.44078 v -0.433559 h -0.43356 v -1.748676 h -0.43356 v -0.867112 h 0.43356 v -0.440784 h 0.43356 v -0.874338 h 0.44078 v -0.433555 h 0.43355 v -0.433558 h 0.44078 v -2.18223 h -0.87433 V 73.70207 h 0.87433 v -0.433555 h 0.43356 v -1.315121 h 0.43356 v -0.867113 h 0.44078 v -1.315122 h -0.44078 v -0.433554 h 1.5319 v -0.874338 h 0.43355 V 67.15537 h 1.3079 v 0.433555 h 0.87434 V 67.15537 h 0.87433 v -0.433558 h 0.43356 v -2.839793 h -0.43356 v -0.433555 h 2.61579 v -0.657562 h 0.44079 v -0.874338 h 0.43356 v -0.874338 h 0.44078 v -0.867113 h 0.65033 v -1.315122 h 0.44078 v -0.433554 h 0.43356 v -0.874338 h 0.43355 v -0.874338 h 0.44079 v -1.524676 h 0.43355 v -0.433554 h 0.44079 v -0.440784 h 0.87433 v -0.874338 h 1.74146 v -0.433554 h 0.87433 v -0.440784 h 0.43356 v -0.433558 h 0.44078 v -0.433555 h 0.43356 v -0.440783 h 0.44078 v -0.874338 h 0.65034 v -2.182235 h 0.44078 v -1.95823 h 0.43356 v -0.874338 h 0.43355 v -0.874338 h 0.44078 v -0.433554 h 0.65034 v -0.874338 h 0.44078 V 42.71002 h 0.43355 v -3.706906 h -0.87433 v -0.433558 h -1.09112 v -0.44078 h -0.43355 v -0.433558 h -1.52468 v -0.44078 h -1.74868 V 36.82088 h -1.30789 v -1.307893 h -3.93091 v -2.182234 h -0.43356 v -0.440784 h -0.44078 v -0.433554 h -0.65033 v -0.440784 h -0.87434 v -0.433554 h -0.44079 v -0.657563 h -1.74145 V 30.49096 h -0.87434 v -0.433559 h -0.43355 v -0.44078 h -0.44078 v -0.433558 h -0.43356 V 28.74228 h -0.44078 v -0.433555 h -0.43356 v -0.433558 h -0.87434 v -0.44078 h -2.83257 v 0.44078 h -0.44078 v -0.44078 h -0.43355 v -0.433558 h -0.87434 v -0.874338 h -2.18224 v 0.433558 h -0.87433 v 0.44078 h -1.52468 v 0.433558 h -0.44078 v 0.874338 h -0.43355 v 0.433555 h -0.44079 v -0.433555 h -1.74145 v 0.433555 h -0.87434 v -0.433555 h -0.87433 v -0.433558 h -0.43356 v -0.874338 h -0.44078 v -0.44078 h 0.44078 v -3.049347 h -2.8398 v -2.839793 h 0.65757 v -1.307897 h -2.39902 v 0.433559 h -1.31512 v 0.874338 h -0.43355 v 0.433554 h -0.87434 v 0.440784 h -1.3079 v -0.440784 h -1.30789 v -0.433554 h -0.44078 v -1.307897 h -0.43356 v -0.874338 h -0.65756 v -1.307896 h -0.43356 v -1.748676 h 0.43356 v -0.433555 h 0.65756 v -0.657562 h 0.87434 V 13.90743 h 3.92368 v -0.440783 h 4.14769 v 0.440783 h 0.44078 v 1.524672 h 0.43356 v 0.874338 h 0.43356 v 0.433558 h 0.44078 v 0.44078 h 0.43356 v 0.433558 h 1.30789 v -0.433558 h 0.44078 v -1.307892 h -0.44078 v -0.874339 h -0.43356 V 13.90743 h -0.43355 v -1.748676 h 0.43355 v -0.874342 h 0.87434 v -0.433554 h 0.43356 v -0.440784 h 0.44078 V 9.5429615 h 0.86711 V 9.1021816 h 0.44079 V 8.6686235 h 0.43355 V 7.7942854 h -0.43355 V 7.3607272 h 0.87433 V 6.2696137 h 1.09112 v -2.623018 h 3.05657 V 3.2130413 h 0.43356 V 2.7722577 h -0.43356 V 2.3387032 H -150.85 V 1.905145 h 0.44078 V 1.4643614 h 0.43356 V 1.0308069 h 0.87434 v 0.4335545 h 1.74145 V 1.0308069 h 0.87434 V 0.59002331 h 1.09111 v -0.86711262 h -0.43355 v -0.44077993 h -0.65756 V -1.1514274 h -0.87434 v -0.657559 h -0.43356 v -1.3078963 h 0.43356 v -1.7486762 h -1.3079 v 0.4407837 h -0.43355 v -0.4407837 h 0.43355 v -0.4335544 h 3.27335 v -0.4407836 h 1.3079 v 0.4407836 h 0.87434 v -0.4407836 h 0.44078 v -0.4335582 h 0.43355 v -0.4335545 h 0.43356 v -0.4407836 h 0.87434 v -0.4335545 h 0.44078 v -1.7486761 h -0.44078 v -1.0911172 h -0.43356 v -0.433558 h -0.44078 v -0.44078 h -1.74145 v -0.433558 h -0.44078 v -1.524672 h -0.43356 v -0.440784 h -0.43355 v -0.874338 h -0.44079 v -1.307896 h -0.43355 v -0.874338 h -0.65756 v -0.867113 h -0.43356 v -0.874338 h -0.87434 v 0.433555 h -0.43356 v 1.307896 h -0.87433 v 0.440784 h -1.3079 v -0.440784 H -150.85 v -3.049347 h -0.87434 v -0.44078 h -0.43356 v -0.433558 h -0.43355 v -0.657559 h -2.83979 v -0.433558 h -0.44079 v -0.44078 h 1.31512 v -1.741451 h -0.87433 v 0.433555 h -0.44079 v 0.440783 h -0.86711 v -0.440783 h -0.44078 v -0.433555 h -0.43356 v -0.874338 h -0.87434 v -0.440784 h -0.43355 v -0.433558 h -0.87434 v -0.874338 h -0.44078 v 0.440784 h -0.43356 v 0.433554 h -0.87434 v 0.874342 h -0.43355 v 1.307893 h 0.87433 v 0.874338 h 1.3079 v -0.433555 h 0.43356 v -0.440783 h 0.87433 v 0.440783 h 0.87434 v 2.39901 h -0.44078 v 1.741451 h 0.44078 v 1.315121 h -0.44078 v 2.615789 h 0.44078 v 1.74868 h 0.43356 v 0.650334 h -0.43356 v 0.44078 h -0.44078 v 0.433558 h -0.43356 v 0.433558 h -0.43355 v 3.2733477 h 0.43355 v 0.8743381 h -0.43355 v 0.4407836 h -0.44078 v -0.4407836 h -0.43356 v -0.8743381 h -0.44078 v -0.4335544 h -0.43356 v -1.5246754 h -0.43356 v -1.3151179 h -0.44078 v -0.433558 h -4.14769 v -0.433558 h -0.43355 v -0.44078 h -0.43356 v -1.524676 h -0.44078 v -0.874338 h -0.87434 v -0.433554 h -0.43356 v -0.874338 h -0.43356 v 0.433554 h -0.44078 v -0.433554 h -0.43355 v -0.440784 h -0.44078 v -0.867113 h 0.44078 v -1.315121 h 0.43355 v -0.433555 h 0.44078 v -0.433558 h 0.43356 v -0.44078 h 0.43356 v -1.091117 h 0.87434 v -0.433558 h 2.18223 v -2.182231 h 0.44078 v -0.874338 h 0.43356 v -0.440784 h 0.43356 v -1.307896 h -0.86712 v -0.433554 h 1.3079 v 0.433554 h 1.09112 v -0.433554 h 1.74145 v -0.874338 h 0.44078 v -0.433559 h 0.43356 v -2.406235 h -0.87434 v -0.433558 h 0.44078 v -0.433558 h 0.43356 v -1.315119 h -0.87434 v -1.307895 h -2.39902 v 1.307895 h 0.65757 v 0.440782 h -0.65757 v 0.433557 h -0.43355 v 1.307896 h -0.44078 v -0.433558 h -0.43356 v -1.748677 h -0.87434 v 0.440782 h -0.43355 v -0.440782 h -1.3079 v -2.182233 h -0.44078 v -1.741452 h -0.43356 v -1.965455 h -2.18223 v -3.93091 h -0.44078 v -0.433557 z m 13.0934,20.514439 v 0.874338 h 1.74145 v -0.874338 z m 1.74145,-16.149972 v 1.307895 h -0.43356 v 1.531899 h -0.43355 v 0.867113 h 0.43355 v 0.440782 h 0.43356 v 0.874339 h 0.44078 v 1.307894 h 0.87434 v 0.433557 h 0.86711 v 1.748676 h 0.87434 v 0.433558 h 0.44078 v -0.433558 h 0.65034 v -1.748676 h 0.87434 v 0.44078 h 1.30789 v 0.433558 h 0.44078 v 0.433558 h 0.43356 v 0.44078 h 0.44078 v 2.399014 H -150.85 v 1.307892 h -0.43356 v 0.440784 h -0.44078 v -0.440784 h -0.86711 v 0.874338 h -0.44078 v 0.874342 h 0.44078 v 0.433555 h 2.18223 v 0.440783 h 0.86712 v 0.874338 h 0.44078 v 0.433555 h 0.87433 v 0.433558 h 0.43356 v 0.44078 h 1.3079 v -0.874338 h 0.65756 v 0.433558 h 0.87434 v -1.741451 h -0.44079 v -0.874338 h -0.43355 v -0.440784 h 0.43355 v -0.433558 h 1.3079 v -0.433554 h 0.87434 v -0.874338 h -0.43356 v -1.307897 h -1.30789 v -1.091117 h -0.44079 v -0.44078 h -1.09111 v -0.433558 h -0.87434 v -0.44078 h 0.87434 v -2.182235 h -0.87434 v -0.867112 h -0.43356 v -0.440783 h -0.87434 v -0.874338 h -1.30789 v -0.867113 h -0.43356 v -0.440782 h -2.62301 v -0.433557 h -0.87434 v -0.65756 h 0.44078 v -0.433556 h -0.44078 v -0.874339 z m 73.567279,7.197033 -0.672014,0.0074 v 0.433558 h -0.433554 v 0.874338 h -0.657559 v 1.524675 h -0.433558 v 0.874339 h -0.440784 v 0.874338 h -0.433554 v 1.307892 h -0.874338 v 0.874342 h -0.433559 v 0.874338 h -0.44078 v 0.874338 h -0.433558 v 0.433555 h -0.44078 v 0.433558 h -0.433558 v 0.44078 h -0.433558 v 0.433558 h -0.44078 v 0.657559 h -0.433558 v 0.433558 h -0.874338 v 0.44078 h -0.433555 v 0.433558 h -0.440783 v 0.433555 h -1.091117 v 0.440783 h 0.657562 v 0.433555 h -0.657562 v 1.307896 h 0.657562 v 1.748676 h -0.657562 v 0.874338 h 0.657562 v 1.524676 h 0.433555 v 0.440779 h 2.182234 v -0.440779 h 0.44078 v -0.650334 h 0.433558 v -0.874342 h 0.433558 v -0.44078 h 0.44078 v -0.433558 h 0.433558 v 1.74868 h -0.433558 v 1.091113 h 0.433558 v 1.307897 h 0.44078 v 0.8743378 h 0.433559 V -9.22985 h 1.748676 v -0.6503372 h 1.091117 v -0.8743378 h 0.433554 v -1.307897 h 0.433559 v -1.091113 h 0.440783 v -0.874342 h 0.433555 v -0.44078 h 0.440783 v -1.74145 h -0.874338 v -2.623018 h 0.433555 v -0.433555 h 0.440783 v -0.433558 h 0.867113 v -0.44078 h 0.44078 v 4.364465 h 0.433558 v 0.440784 h 0.874338 v 0.433554 h 0.433555 v 0.433558 h -0.433555 v 1.965456 h 0.433555 v 0.874338 h -0.433555 v -0.433559 h -0.433558 v -0.440779 h -0.44078 v 0.440779 h -0.433558 v 0.433559 h -0.44078 v 0.433558 h -0.433558 v 1.3151178 h -0.433555 V -8.78907 h -0.874338 v 0.4335581 h -0.440783 V -8.78907 h -0.867113 v 0.4335581 h -0.657559 v 0.4335545 h -1.74868 v -0.4335545 h -2.182231 v -1.9654551 h 0.44078 v -0.874338 h -0.44078 v -1.30807 h -0.433558 v 0.44078 h -0.874338 v 0.433558 h -0.433558 v 0.433558 h -0.44078 v 1.9654552 h 0.44078 v 1.7486761 h -0.874338 v 0.4335545 h -1.965455 v 0.8743381 h -0.433555 v 0.8743418 h -0.440784 v 0.4335544 h -0.433554 v 0.4407837 h -0.440784 v -1.7486799 h -0.433558 v -0.4335545 h -0.433554 v -0.4407836 h -0.440784 v -0.8743381 h -0.433554 v -0.4335544 h -0.440784 v -3.7069093 h -1.307893 v -0.44078 h -0.43356 v -0.650334 h 0.43356 v -0.874342 h -1.74145 v 0.433558 h -0.44078 v 1.531898 h -0.65034 v 1.741454 h 0.65034 v 1.0911172 h -2.83257 v 1.3078925 h -0.44079 v -0.4335544 h -0.87433 v 0.4335544 h -0.43356 v 0.8743381 h 0.87434 v 2.623018 h 1.74145 v -0.4407837 h 1.31512 v -0.4335544 h 0.65034 v 0.4335544 h 0.87433 v 0.4407837 h -0.87433 v 0.4335544 h -0.65034 v 0.4407837 h -0.44078 v 0.8671126 h 1.96545 v -0.4335582 h 1.74868 v 0.4335582 h -1.31512 v 0.4407799 h -0.86711 v 1.52467536 h 0.86711 v 0.44077993 h 0.44078 v 0.43355816 h 0.43356 v 0.43355446 h 0.44078 V 3.2130413 h -4.14769 V 2.7722577 h -0.87434 v 0.4407836 h -0.87434 v 6.3299202 h 0.87434 v 0.8671125 h 0.43356 v 0.440784 h -0.43356 v 1.307896 h -0.43355 v 0.433555 h -0.44079 v 0.440783 h -0.43355 v 0.874338 h -0.44078 v 1.091117 h -0.43356 v 0.433555 h -0.43356 v 0.440784 h -0.44078 v 0.433554 h -0.87434 v 0.433558 h -0.43355 v 0.44078 h -0.43356 v 0.874342 h -1.5319 v 2.18223 h -0.87434 v 0.433559 h -0.43355 v 0.874338 h -0.43356 v 0.433554 h 0.43356 v 1.965455 h 0.43355 v 0.874339 h -0.43355 v 0.433558 h -0.43356 v 2.623014 h 0.43356 v 0.433558 h 0.43355 v 0.433555 h 0.44078 v 0.440783 h 0.43356 v 0.433558 h 1.09112 v 0.44078 h 0.44078 v 0.433559 h 0.43356 v 1.091117 h 0.43355 v 0.874338 h 0.87434 v 0.433554 h 0.44078 v 0.440784 h 0.43356 v 0.433554 h 0.43356 v 0.433558 h 2.62301 v -0.433558 h 3.27335 v 0.433558 h 0.43356 v -0.433558 h 1.748677 v -0.433554 h 2.182234 v 0.433554 h 0.874338 v 0.433558 h 2.832568 v 0.44078 h 0.44078 v 1.307897 h -0.44078 v 0.874338 h -0.433558 v 1.748676 h 0.433558 v 0.433558 h 0.874338 v 1.524672 h 0.44078 v 0.440783 h 0.433558 v 1.741451 h 0.433558 v 0.440784 h 0.44078 v 0.874338 h 0.433558 v 1.307892 h -0.433558 v 0.433559 h -0.44078 v 0.440779 h 0.44078 v 0.867117 h -0.874338 v 1.965455 h -0.433558 v 1.307893 h 0.433558 v 0.874338 h 0.433558 v 0.874338 h 0.44078 v 1.307896 h 0.433558 v 1.315122 h 0.44078 v 1.524671 h 0.433559 v 0.874338 h 0.433554 v 1.741451 h 0.440784 v 0.440784 h 0.433554 v 0.433554 h 0.440784 v 0.874342 h 0.433558 v 2.182231 h 1.091113 v 0.657562 h 2.182235 v -0.657562 l 1.669192,0.01443 c 4.743886,-6.395796 15.362346,-19.645802 15.362346,-45.292184 0,-25.6463811 -11.112131,-40.433197 -18.541759,-49.006315 z m -70.944259,0.0074 h 0.43355 v 0.867116 h -0.43355 z m 37.53874,1.307896 h 0.43356 v 0.433558 h -0.43356 z m -29.46737,3.273352 h 0.44078 v 0.874338 h -0.44078 z m 31.20883,0.433554 v 0.440784 h -0.43356 v 0.867112 h -0.44078 v 0.874338 h 0.87434 v 0.440784 h -0.43356 v 0.433555 h -0.44078 v 0.874338 h 1.31512 v 0.433558 h 0.87434 v 0.44078 h 0.43355 v 0.433558 h 1.3079 v 0.657559 h 2.18223 v -0.657733 h 2.8398 v -0.433558 h 0.87433 v -0.44078 h 0.86712 v -0.433558 h 0.44078 v -0.433555 h 0.43355 v -1.315121 h -0.43355 v -0.433555 h -0.44078 v -0.440784 h -0.43356 v -0.433558 h -0.43356 v -0.433554 h -1.74867 v 0.433554 h -2.39902 v -0.433554 h -1.74867 v 0.433554 h -0.43356 v 0.433558 h -0.44078 v -0.433558 h -0.43356 v -0.433554 h -0.43355 v -0.440784 z m 35.356514,3.056573 h 1.307893 v 0.874338 h -0.433555 v 0.433558 h -0.440783 v 0.44078 h -0.433555 v 0.433558 h -0.433558 v 0.657559 h -0.44078 v -1.965455 h 0.44078 v -0.433555 h 0.433558 z m 2.615789,7.637816 h 1.091117 v 0.440784 h -0.433558 v 0.433554 h -1.965455 v -0.433554 h 1.307896 z m -23.563783,7.8545956 h 0.86711 v 0.8743381 h -1.30789 v -0.4335545 h 0.44078 z m -48.23314,3.4973561 h 0.43356 v 0.4335544 h -0.43356 z m -0.87434,0.4333805 h 0.44078 v 0.4407837 H -150.85 Z m -14.84208,0.4407837 h 1.31512 v 0.4335544 h 0.43356 v 0.4335582 h 0.87434 v 0.4407799 h -1.3079 v -0.4407799 h -0.44078 v 0.4407799 h -1.74145 v -0.4407799 h 0.43356 v -0.4335582 h 0.43355 z m 69.181137,0 h 0.874338 v 0.8671126 h 0.440784 v 0.4407799 h -3.056572 v -0.4407799 h 0.874338 v -0.4335582 h 0.867112 z m -3.923687,1.7414507 h 0.87434 v 1.53189709 h -0.44078 v -0.44077993 h -0.43356 z m -61.10976,0.657559 h 1.74868 v 0.43355816 h 0.43356 v 0.44077993 h -0.43356 v -0.44077993 h -0.44078 v 1.30789255 h -0.43356 v -1.30789255 h -0.87434 z m 2.62302,0.43355816 h 0.43355 v 0.44077993 h -0.43355 z m -4.58847,0.87433809 h 0.44078 V 1.0308069 h -0.44078 v 1.3078963 h -0.86712 V 1.905145 h 0.43356 V 0.59002331 h 0.43356 z m 5.89636,0 h 0.87434 v 0.43355446 h -0.44078 V 1.4643614 h -0.43356 V 1.905145 h -0.44078 v 0.4335582 h -1.74145 V 1.905145 h 0.43356 V 1.4643614 h 1.74867 z m 1.74145,0 h 0.44079 v 0.43355446 h -0.44079 z m 68.74758,3.49012685 h 0.874342 v 0.4407837 h 0.657559 v 0.4335544 h 0.433554 V 4.954492 h 0.874342 v 0.4407799 h 0.433555 v 1.5246754 h 0.440783 v 1.7486762 h 0.433555 v 0.874338 h 0.433558 v 0.4335582 h 0.44078 v 0.4335543 h 1.307896 V 9.5429615 h 0.433555 V 9.1021816 h 0.440783 V 7.3607272 h 0.433555 V 6.9199473 h 0.440783 v 1.7486762 h 0.433558 v 0.4335581 h 0.433555 v 0.8743381 h 0.657559 v 0.4335543 h 0.874342 v 0.440784 h 1.748676 v -0.440784 h 0.433554 v 0.440784 h 2.182235 v 0.433554 h 0.433558 v 0.874342 h -0.433558 v 0.433555 h -0.433555 v 0.874338 h -0.440783 v 0.440783 h -0.433559 v 0.433555 h -5.022024 V 13.90743 h -2.182234 v -0.440783 h -3.056572 v 0.440783 h -0.433555 v 1.091117 h 0.433555 v 0.433555 h -1.307897 v -0.433555 h -1.091113 v -0.657562 h -0.433558 v -0.874338 h -0.440784 v -0.433555 h -1.307892 v -0.440783 h -1.307897 v -0.433555 h -0.44078 V 9.5429615 h -0.433558 V 9.1021816 h -4.147689 v 0.4407799 h -3.056573 v 0.4335582 h -0.874338 V 8.2278435 h 0.440784 V 7.7942854 h 0.433554 V 6.2696137 h 0.874338 V 5.8288301 h 1.307896 V 5.3952719 h 0.440784 V 4.0873794 h 0.433555 v 0.4335544 h 1.965455 V 4.0873794 h 0.874338 v 1.3078925 h -0.44078 v 2.8325716 h 1.315118 V 7.7942854 h 0.433558 V 4.5209338 h 0.433558 V 4.954492 h 0.874338 v 0.8743381 h 0.44078 v 0.4407836 h 0.867113 v 1.9582298 h -1.307893 v 0.8743381 h 0.44078 v 0.4407799 h 1.741451 v 0.4335582 h 0.440784 V 9.1021816 h 1.091117 V 8.6686235 h 0.867113 v -0.44078 h 0.440783 V 6.2696137 h -0.440783 V 5.3952719 h -0.867113 V 4.954492 h -0.657559 V 4.5209338 h -0.874342 z m -9.820051,3.2733516 v 0.8743381 h 1.307896 V 6.9199473 Z m -4.364469,2.6230142 h 1.74868 v 0.8671125 h -0.87434 v 0.440784 h -1.74867 v -0.440784 h -1.09112 V 9.9765197 h 1.96545 z m -82.71531,3.9236855 h 0.44078 v 0.440783 h -0.44078 z m 96.466276,0.440783 h 0.433554 v 0.433555 h -0.433554 z m -69.181136,1.524672 v 0.440784 h 1.74145 v -0.440784 z m 2.18223,0 v 1.748676 h 0.65034 v -0.44078 h 0.44078 v -1.307896 z m 77.46929,0.440784 h 0.440784 v 0.433554 h 0.433554 v 0.433558 h 0.440784 v 0.44078 h 0.433554 v 0.874342 h -0.874338 v -0.440784 h -0.874338 z m -78.34362,1.74145 v 0.874338 h 0.43355 v 0.874338 h 1.09112 v -1.748676 z m 0.43355,1.748676 h -0.87434 v -0.440783 h -1.30789 v -0.433555 h -1.3079 V 18.05512 h -1.74867 v 0.433554 h -0.86712 v 1.307897 h 1.3079 v -0.433559 h 0.43356 v 0.433559 h 1.30789 v 0.440779 h 0.44078 v 0.433559 h 0.87434 v 0.433554 h 1.3079 v 1.965455 h 0.87433 v -1.091117 h -0.44078 v -0.433554 h 1.09112 v 0.874338 h 1.31512 v 0.650333 h 1.74145 v -0.650333 h 1.3079 v -1.315122 h -0.86712 v -0.433554 h -0.87434 v -0.874338 h -1.74867 v 0.440779 h -0.87434 v -0.440779 h -1.09112 z m 1.5319,-1.748676 v 0.874338 h 1.74145 v -0.874338 z m 80.309081,0 h 0.874338 v 0.440784 h 0.433558 v 0.433554 h 0.44078 v 0.874338 h 0.433558 v 0.433559 h 0.44078 v 0.874338 h 0.433558 v 0.874338 h 0.657559 v 0.874338 h 0.433558 v 0.650333 h 0.433555 v 0.440784 h 0.440783 v 1.307893 h 0.433555 v 0.433558 h 0.440783 v 1.307896 h 0.433559 v 0.874338 h -0.433559 v -0.433558 h -0.874338 v -0.44078 h -0.440783 v -0.433558 h -0.433555 v -0.874338 h -1.091117 v -1.741451 h -0.433558 v -1.091117 h -0.44078 v -0.874338 h -0.433558 v -0.874338 h -0.44078 v -0.874338 h -0.433558 v -0.874342 h -0.433555 V 18.05512 h -0.440783 z m -44.735791,3.056573 v 0.874338 h -0.44078 v 1.524671 h 0.87434 v -0.650333 h 0.43356 v -0.874338 h 0.44078 v -0.874338 z m -31.20882,0.874338 v 1.524671 h 1.74145 v -0.650333 h 1.5319 v -0.874338 z m 3.7069,0.433554 v 0.440784 h 0.44079 v -0.440784 z m 0.87434,0 v 0.440784 h 0.43356 v -0.440784 z m 0,1.091117 v 0.440784 h -0.43355 v 2.182234 h 0.43355 v 0.433555 h 0.87434 v -3.056573 z m 6.76348,12.443069 h 0.44078 v 0.433555 h -0.44078 v 0.440783 h -0.65033 v -0.440783 h 0.65033 z"
         style="fill:url(#radialGradient112947);fill-opacity:1;fill-rule:evenodd;stroke:none;stroke-width:0.978262"
         id="path4002-2" />
      <path
         d="m -213.04731,17.615253 q 0,30.335298 21.38747,51.94102 21.60572,21.605723 52.15926,21.605723 30.33531,0 52.159275,-21.605723 21.387473,-21.605722 21.387473,-51.94102 0,-30.553544 -21.387473,-52.159264 -21.823965,-21.605719 -52.159275,-21.605719 -30.55354,0 -52.15926,21.605719 -21.38747,21.60572 -21.38747,52.159264"
         id="path4000-7"
         style="fill:url(#gradient1-6-7);fill-rule:evenodd;stroke:none;stroke-width:0.978261" />
    </g>
    <path
       id="rect51881-0"
       style="opacity:0.75;fill:url(#linearGradient70029-0);fill-opacity:1;fill-rule:evenodd;stroke:none;stroke-width:1;stroke-linecap:round;stroke-linejoin:round;stroke-miterlimit:4;stroke-dasharray:none;stroke-opacity:1;stop-color:#000000"
       d="m 16.778646,6.4726562 c 0.229165,0.7601491 0.644974,1.4458148 1.248047,2.0546876 0.981768,0.9724167 2.165005,1.4589843 3.548828,1.4589843 1.374476,0 2.551438,-0.4865677 3.533204,-1.4589843 0.597917,-0.6036665 1.011811,-1.2827864 1.242187,-2.0351563 -0.06096,-0.011528 -0.123084,-0.019531 -0.1875,-0.019531 z" />
    <path
       id="rect83870"
       style="fill:none;fill-rule:evenodd;stroke:url(#linearGradient52101);stroke-linecap:round;stroke-linejoin:round;stop-color:#000000"
       d="m 16.067709,6.5 h 11 v 6 c 0,0.554 -0.446,1 -1,1 h -10 c -0.554,0 -1,-0.446 -1,-1 v -5 c 0,-0.554 0.446,-1 1,-1 z"
       sodipodi:nodetypes="scssssss" />
  </g>
</svg>
