<?xml version="1.0" encoding="UTF-8" standalone="no"?>
<svg
   inkscape:export-ydpi="96"
   inkscape:export-xdpi="96"
   inkscape:export-filename="my-pictures.png"
   width="16"
   height="16"
   viewBox="0 0 16 16"
   version="1.1"
   id="svg8"
   inkscape:version="1.3.2 (1:1.3.2+202311252150+091e20ef0f)"
   sodipodi:docname="bookmarkGroup.svg"
   xml:space="preserve"
   xmlns:inkscape="http://www.inkscape.org/namespaces/inkscape"
   xmlns:sodipodi="http://sodipodi.sourceforge.net/DTD/sodipodi-0.dtd"
   xmlns:xlink="http://www.w3.org/1999/xlink"
   xmlns="http://www.w3.org/2000/svg"
   xmlns:svg="http://www.w3.org/2000/svg"
   xmlns:rdf="http://www.w3.org/1999/02/22-rdf-syntax-ns#"
   xmlns:cc="http://creativecommons.org/ns#"
   xmlns:dc="http://purl.org/dc/elements/1.1/"><defs
     id="defs2"><linearGradient
       id="linearGradient38"
       x1="-3.9323001"
       x2="-3.9323001"
       y1="12.5"
       y2="4.5"
       gradientUnits="userSpaceOnUse"
       gradientTransform="translate(18.000009,1)"><stop
         stop-color="#fc6"
         offset="0"
         id="stop35"
         style="stop-color:#000000;stop-opacity:1;" /><stop
         stop-color="#ffd46e"
         offset=".5"
         id="stop37" /><stop
         stop-color="#ff9"
         offset="1"
         id="stop38" /></linearGradient><linearGradient
       id="linearGradient12"
       x1="-819.20001"
       x2="819.20001"
       gradientTransform="matrix(0,0.011456,0.0096573,0,-11.256,16.014)"
       gradientUnits="userSpaceOnUse"><stop
         stop-color="#999"
         offset="0"
         id="stop11"
         style="stop-color:#b8babe;stop-opacity:1" /><stop
         stop-color="#666"
         offset="1"
         id="stop12"
         style="stop-color:#807a6d;stop-opacity:1" /></linearGradient><linearGradient
       id="gradient5-1"
       x1="-819.20001"
       x2="819.20001"
       gradientTransform="matrix(0,0.011456,0.0096573,0,-11.256,16.014)"
       gradientUnits="userSpaceOnUse"><stop
         stop-color="#999"
         offset="0"
         id="stop19" /><stop
         stop-color="#666"
         offset="1"
         id="stop21" /></linearGradient><linearGradient
       id="gradient6-0"
       x1="-819.20001"
       x2="819.20001"
       gradientTransform="matrix(0,0.010769,0.0091017,0,-11.23,16.014)"
       gradientUnits="userSpaceOnUse"><stop
         stop-color="#fff"
         offset="0"
         id="stop24" /><stop
         stop-color="#ddd"
         offset="1"
         id="stop26"
         style="stop-color:#fbfafc;stop-opacity:1" /></linearGradient><linearGradient
       id="gradient7-6-6"
       x1="-819.20001"
       x2="819.20001"
       gradientTransform="matrix(3.4623535e-4,0.00548771,0.00559117,6.4246743e-4,22.94339,5.9822669)"
       gradientUnits="userSpaceOnUse"><stop
         stop-color="#09f"
         offset="0"
         id="stop29" /><stop
         stop-color="#9cf"
         offset="1"
         id="stop31" /></linearGradient><linearGradient
       id="gradient8-7-2"
       x1="-819.20001"
       x2="819.20001"
       gradientTransform="matrix(-0.00346245,0.00317275,0.00306848,0.00315022,-11.181548,22.165968)"
       gradientUnits="userSpaceOnUse"><stop
         stop-color="#ccc"
         offset="0"
         id="stop34" /><stop
         stop-color="#ccf"
         offset="1"
         id="stop36" /></linearGradient><linearGradient
       id="gradient9-5-8"
       x1="-819.20001"
       x2="819.20001"
       gradientTransform="matrix(-0.00380155,0.00348348,0.00389616,0.00399995,-16.575972,16.107508)"
       gradientUnits="userSpaceOnUse"><stop
         stop-color="#ccc"
         offset="0"
         id="stop39" /><stop
         stop-color="#ccf"
         offset="1"
         id="stop41" /></linearGradient><linearGradient
       id="gradient10-3-2"
       x1="-819.20001"
       x2="819.20001"
       gradientTransform="matrix(-0.00299842,0.00274755,0.00543036,0.00557502,-8.9822567,13.03167)"
       gradientUnits="userSpaceOnUse"><stop
         stop-color="#999"
         offset="0"
         id="stop44" /><stop
         stop-color="#ccc"
         offset="1"
         id="stop46" /></linearGradient><radialGradient
       id="gradient11-5-3"
       cx="0"
       cy="0"
       r="819.20001"
       gradientTransform="matrix(0.00322467,0.00360908,-0.00285097,0.00284799,21.530356,4.5136653)"
       gradientUnits="userSpaceOnUse"><stop
         stop-color="#fff"
         offset="0"
         id="stop49" /><stop
         stop-color="#fff"
         offset=".49412"
         id="stop51" /><stop
         stop-color="#cff"
         offset=".76471"
         id="stop53" /><stop
         stop-color="#cff"
         offset="1"
         id="stop55" /></radialGradient><radialGradient
       id="gradient12-2"
       cx="-283.77985"
       cy="588.15289"
       r="819.20001"
       gradientTransform="matrix(0.00372973,0.00372973,-0.00289914,0.00324135,23.54019,3.5966176)"
       gradientUnits="userSpaceOnUse"
       fx="-283.77985"
       fy="588.15289"><stop
         stop-color="#fff"
         offset="0"
         id="stop58" /><stop
         stop-color="#fff"
         offset="0.11993618"
         id="stop16"
         style="stop-color:#ffffff;stop-opacity:1;" /><stop
         stop-color="#ff9980"
         offset=".48627"
         id="stop60" /><stop
         stop-color="#f30"
         offset="1"
         id="stop62" /></radialGradient><linearGradient
       id="linearGradient17865-3"
       x1="-3.9323001"
       x2="-3.9323001"
       y1="12.5"
       y2="4.5"
       gradientUnits="userSpaceOnUse"
       gradientTransform="translate(18.000009,1)"><stop
         stop-color="#fc6"
         offset="0"
         id="stop1-6" /><stop
         stop-color="#ffd46e"
         offset=".5"
         id="stop2-7" /><stop
         stop-color="#ff9"
         offset="1"
         id="stop3" /></linearGradient><linearGradient
       id="linearGradient38453"
       x1="-2.4017999"
       x2="-4.4418001"
       y1="7.0517998"
       y2="4.0086999"
       gradientUnits="userSpaceOnUse"
       gradientTransform="translate(18.000009,1)"><stop
         stop-color="#b07d17"
         offset="0"
         id="stop4" /><stop
         stop-color="#c93"
         offset="1"
         id="stop5" /></linearGradient><linearGradient
       id="linearGradient70029-5"
       x1="-1.4323"
       x2="-1.4323"
       y1="15.5"
       y2="11.5"
       gradientTransform="translate(22.000009,-2)"
       gradientUnits="userSpaceOnUse"><stop
         stop-color="#ffd46e"
         offset="0"
         id="stop8" /><stop
         stop-color="#ff9"
         offset="1"
         id="stop9" /></linearGradient><linearGradient
       id="linearGradient99494-3"
       x1="7.0676999"
       x2="7.0676999"
       y1="12.5"
       y2="8.5"
       gradientUnits="userSpaceOnUse"><stop
         stop-color="#d3a03a"
         offset="0"
         id="stop10" /><stop
         stop-color="#f8c55f"
         offset="1"
         id="stop11-5" /></linearGradient><linearGradient
       id="linearGradient52101"
       x1="0.067708999"
       x2="-3.9677999"
       y1="15"
       y2="11.01"
       gradientTransform="translate(22.000009,-2)"
       gradientUnits="userSpaceOnUse"><stop
         stop-color="#9a6701"
         offset="0"
         id="stop6" /><stop
         stop-color="#c5922c"
         offset="1"
         id="stop7" /></linearGradient><linearGradient
       id="linearGradient1019"
       inkscape:collect="always"><stop
         id="stop1015"
         offset="0"
         style="stop-color:#ffff99;stop-opacity:1" /><stop
         style="stop-color:#ffcc00;stop-opacity:1"
         offset="0.2"
         id="stop1031" /><stop
         style="stop-color:#ffff99;stop-opacity:1"
         offset="0.40000001"
         id="stop1023" /><stop
         id="stop1033"
         offset="0.60000002"
         style="stop-color:#ffcc00;stop-opacity:1" /><stop
         id="stop1029"
         offset="0.80000001"
         style="stop-color:#ffff99;stop-opacity:1" /><stop
         id="stop1017"
         offset="1"
         style="stop-color:#ffcc00;stop-opacity:1" /></linearGradient><linearGradient
       gradientTransform="matrix(0.97265847,0,0,0.97265847,4.0975415,5.7097235)"
       gradientUnits="userSpaceOnUse"
       y2="10.641655"
       x2="18.747946"
       y1="35"
       x1="57.567711"
       id="linearGradient1021"
       xlink:href="#linearGradient1019"
       inkscape:collect="always" /><filter
       inkscape:collect="always"
       style="color-interpolation-filters:sRGB"
       id="filter71"
       x="-0.12285617"
       y="-0.12290383"
       width="1.2457123"
       height="1.2458077"><feGaussianBlur
         inkscape:collect="always"
         stdDeviation="0.76785118"
         id="feGaussianBlur71" /></filter></defs><sodipodi:namedview
     showguides="true"
     id="base"
     pagecolor="#ffffff"
     bordercolor="#666666"
     borderopacity="1.0"
     inkscape:pageopacity="0.0"
     inkscape:pageshadow="2"
     inkscape:zoom="37.261313"
     inkscape:cx="8.1585959"
     inkscape:cy="12.92225"
     inkscape:document-units="px"
     inkscape:current-layer="layer1"
     inkscape:document-rotation="0"
     showgrid="true"
     units="px"
     inkscape:window-width="3460"
     inkscape:window-height="1836"
     inkscape:window-x="4032"
     inkscape:window-y="61"
     inkscape:window-maximized="0"
     inkscape:snap-bbox="true"
     inkscape:bbox-nodes="true"
     fit-margin-top="0"
     fit-margin-left="0"
     fit-margin-right="0"
     fit-margin-bottom="0"
     inkscape:bbox-paths="false"
     inkscape:snap-global="true"
     inkscape:pagecheckerboard="0"
     scale-x="0.26458"
     inkscape:showpageshadow="2"
     inkscape:deskcolor="#d1d1d1"><inkscape:grid
       type="xygrid"
       id="grid1504"
       originx="0"
       originy="0"
       spacingy="1"
       spacingx="1"
       units="px"
       visible="true" /><inkscape:grid
       type="xygrid"
       id="grid1507"
       spacingx="0.5"
       spacingy="0.5"
       originx="0"
       originy="0"
       units="px"
       visible="true" /></sodipodi:namedview><metadata
     id="metadata5"><rdf:RDF><cc:Work
         rdf:about=""><dc:format>image/svg+xml</dc:format><dc:type
           rdf:resource="http://purl.org/dc/dcmitype/StillImage" /></cc:Work></rdf:RDF></metadata><g
     inkscape:label="Layer 1"
     inkscape:groupmode="layer"
     id="layer1"
     transform="translate(-12.567709)"><path
       id="path42"
       style="fill:#000000;fill-opacity:1;filter:url(#filter71);opacity:0.83"
       d="m 22.348961,1.0000441 c -0.470643,0.00445 -0.963496,0.3259621 -1.085937,0.8769531 l -0.705079,3.1777344 -0.0625,-0.00781 C 20.307984,4.8300816 20.112621,4.6160804 19.91732,4.4375441 19.800767,4.3309958 19.68694,4.2359992 19.559899,4.1562941 19.432857,4.076589 19.296878,3.9941847 19.067711,3.9941847 h -3 c -0.229166,0 -0.364332,0.081476 -0.492187,0.1601562 -0.127856,0.07868 -0.244068,0.1733289 -0.363282,0.2792969 -0.238429,0.211936 -0.482464,0.4715893 -0.708984,0.7304688 -0.453039,0.5177589 -0.835938,1.0292968 -0.835938,1.0292969 a 0.50005,0.50005 0 0 0 -0.09961,0.3007812 v 8.0000003 c 0,0.82235 0.677651,1.5 1.5,1.5 h 11 1 c 0.82235,0 1.5,-0.67765 1.5,-1.5 V 8.4941847 a 0.50005,0.50005 0 0 0 -0.5,-0.5 h -1.5 V 7.6914503 L 27.934899,6.8203566 C 28.466654,6.4819664 28.660753,5.8976554 28.501305,5.4355909 28.341857,4.9735266 27.857524,4.6438672 27.304039,4.7031691 L 24.013024,5.0547316 23.425133,1.8906691 C 23.320885,1.32773 22.819605,0.99559639 22.348961,1.0000441 Z" /><path
       d="m 15.067709,3.5 h 3 c 0.5,0 1.9378,2 1.9378,2 h 5.0622 v 9 h -11 c -0.554,0 -1,-0.446 -1,-1 v -8 c 0,0 1.5,-2 2,-2 z"
       fill="url(#linearGradient17865)"
       fill-rule="evenodd"
       stop-color="#000000"
       id="path13"
       style="fill:url(#linearGradient17865-3)" /><path
       d="m 13.148609,6.8971 2.0474,-2.3804 2.6693,-0.04805 1.7025,2.0314 h 5.5"
       fill="none"
       stroke="#ffffff"
       stroke-width="1px"
       id="path14" /><path
       d="m 15.067709,3.5 h 3 c 0.5,0 1.9378,2 1.9378,2 h 5.0622 v 9 h -11 c -0.554,0 -1,-0.446 -1,-1 v -8 c 0,0 1.5,-2 2,-2 z"
       fill="none"
       stop-color="#000000"
       stroke="url(#linearGradient38453)"
       stroke-linecap="round"
       stroke-linejoin="round"
       id="path15"
       style="stroke:url(#linearGradient38453)" /><rect
       x="15.067709"
       y="7.5"
       width="12"
       height="7"
       rx="1"
       ry="1"
       fill="url(#linearGradient70029)"
       fill-rule="evenodd"
       stop-color="#000000"
       id="rect15-2"
       style="fill:url(#linearGradient70029-5)" /><rect
       x="24.567709"
       y="8"
       width="1"
       height="1"
       fill="#ffe680"
       fill-rule="evenodd"
       stop-color="#000000"
       id="rect20" /><path
       style="fill:none;stroke:#ffffff;stroke-width:1px;stroke-linecap:butt;stroke-linejoin:miter;stroke-opacity:1"
       d="m 19.567709,6.5 h 5.5"
       id="path50009"
       sodipodi:nodetypes="cc" /><rect
       style="fill:#ffe680;fill-opacity:1;fill-rule:evenodd;stroke:none;stroke-width:1;stroke-linecap:round;stroke-linejoin:round;stroke-miterlimit:4;stroke-dasharray:none;stroke-opacity:1;stop-color:#000000"
       id="rect109807"
       width="1"
       height="1"
       x="24.567709"
       y="8" /><path
       style="fill:none;stroke:#ffffff;stroke-width:1px;stroke-linecap:butt;stroke-linejoin:miter;stroke-opacity:1"
       d="m 15.067709,8.5 h 12"
       id="path84301"
       sodipodi:nodetypes="cc" /><path
       id="path2"
       style="fill:#bf9d40;fill-opacity:0.501961;stroke:none;stroke-width:0.259799;stroke-linecap:butt;stroke-linejoin:round;stroke-miterlimit:4;stroke-dasharray:none;stroke-opacity:1"
       d="M 18.876984,4.4507269 18.697296,5.2573675 15.494171,4.8882269 c -0.56599,-0.065307 -0.989757,0.2248468 -1.089843,0.6289062 -0.100089,0.4040597 0.104812,0.8732409 0.576171,1.1601563 l 2.835938,1.7265625 -1.351563,2.8281251 c -0.234329,0.489965 -0.168727,0.985389 0.15625,1.234375 0.324979,0.248986 0.834516,0.187243 1.314454,-0.220703 l 2.46875,-2.097656 2.470703,2.222656 c 0.413175,0.37186 0.907444,0.369919 1.216797,0.125 0.309351,-0.244919 0.44131,-0.698668 0.263671,-1.125 L 23.119171,8.405805 25.427765,6.937055 V 5.6851019 h -5.5625 c 0,0 -0.484624,-0.6693436 -0.988281,-1.234375 z" /><g
       stroke-width="1px"
       id="g19"
       transform="translate(18.000009,1)"
       style="fill:none"><path
         d="m -1.9323,7.5 v 6"
         stroke="#ffff99"
         id="path16" /><path
         d="m 8.0677,7.5 v 6"
         stroke="#ffff99"
         id="path17" /><path
         d="m -2.9323,7.5 h 12"
         stroke="#ffffff"
         id="path18" /><path
         d="m 7.0677,6.5 v 7"
         stroke="url(#linearGradient99494)"
         id="path19"
         style="stroke:url(#linearGradient99494-3)" /></g><g
       id="g1"
       transform="matrix(0.26710161,0,0,0.26710161,10.943645,-1.3404092)"><path
         sodipodi:nodetypes="csscsscsscsscssc"
         id="path1035"
         d="M 33.343152,21.758588 36.938557,8.1118101 c 0.470992,-1.7877019 3.735503,-2.072132 4.185865,0.02956 L 44.042396,21.758588 58.632274,20.78593 c 2.239291,-0.149287 2.765606,2.695336 0.972657,3.890634 l -11.671901,7.781267 5.223027,12.543222 c 1.088175,2.61328 -2.033471,4.098738 -3.76404,2.532984 L 39.179104,38.293782 28.479861,47.047709 c -2.086277,1.706955 -4.250817,-0.507755 -3.404305,-2.431648 l 5.349622,-12.15823 -11.671902,-7.781267 c -1.833983,-1.222656 -1.152011,-4.042396 0.972659,-3.890634 z"
         style="fill:url(#linearGradient1021);fill-opacity:1;stroke:none;stroke-width:0.972659;stroke-linecap:butt;stroke-linejoin:round;stroke-miterlimit:4;stroke-dasharray:none;stroke-opacity:1" /><path
         style="fill:none;stroke:#ffffff;stroke-width:1.95308;stroke-linecap:round;stroke-linejoin:miter;stroke-miterlimit:4;stroke-dasharray:none;stroke-opacity:1"
         d="M 42.15421,24.005995 59.776685,22.075443"
         id="path1039"
         sodipodi:nodetypes="cc" /><path
         style="fill:#ffff99;fill-rule:evenodd;stroke:#ffff99;stroke-width:1.95308;stroke-linecap:round;stroke-dasharray:none"
         d="M 39.251429,7.9322719 41.965052,23.914195"
         id="path1"
         sodipodi:nodetypes="cc" /><path
         style="fill:none;stroke:#ffffff;stroke-width:1.95308;stroke-linecap:round;stroke-linejoin:round;stroke-miterlimit:4;stroke-dasharray:none;stroke-opacity:1"
         d="M 38.547467,7.583298 34.757893,23.907435 19.053328,22.084323"
         id="path1037"
         sodipodi:nodetypes="ccc" /><path
         style="fill:none;stroke:#ffffff;stroke-width:1.83777;stroke-linecap:round;stroke-linejoin:miter;stroke-miterlimit:4;stroke-dasharray:none;stroke-opacity:1"
         d="M 39.859219,35.6625 51.943683,46.580389"
         id="path1041"
         sodipodi:nodetypes="cc" /><path
         style="fill:#ffff99;fill-rule:evenodd;stroke:#ffff99;stroke-width:1.95308;stroke-linecap:round;stroke-dasharray:none"
         d="M 26.64179,46.189379 38.981416,35.6625"
         id="path1-3-5"
         sodipodi:nodetypes="cc" /><path
         style="fill:none;stroke:#ffffff;stroke-width:1.83777;stroke-linecap:round;stroke-linejoin:miter;stroke-miterlimit:4;stroke-dasharray:none;stroke-opacity:1"
         d="M 26.486421,46.313564 33.033927,31.918606"
         id="path1043"
         sodipodi:nodetypes="cc" /><path
         style="fill:#ffff99;fill-rule:evenodd;stroke:#ffff99;stroke-width:1.95308;stroke-linecap:round;stroke-dasharray:none"
         d="M 18.660015,22.558872 33.02636,31.497449"
         id="path1-3"
         sodipodi:nodetypes="cc" /><path
         style="fill:none;fill-rule:evenodd;stroke:#ffff99;stroke-width:1.95308;stroke-linecap:round;stroke-dasharray:none"
         d="m 59.018814,23.31904 -13.556735,8.599566 6.195188,14.435549"
         id="path1-3-6"
         sodipodi:nodetypes="ccc" /><path
         style="fill:none;fill-opacity:1;stroke:#996600;stroke-width:2.80792;stroke-linecap:butt;stroke-linejoin:round;stroke-miterlimit:4;stroke-dasharray:none;stroke-opacity:1"
         d="M 33.343152,21.758588 36.261128,8.6276988 c 0.637069,-2.8668122 4.802079,-2.956728 5.349622,0 l 2.431646,13.1308892 13.617219,-1.458987 c 2.940908,-0.315098 4.594235,3.354463 1.458988,5.349622 l -10.699243,6.808608 4.863292,11.671903 c 1.091948,2.620679 -1.669747,5.354469 -4.376962,2.917975 l -9.726586,-8.753927 -9.726585,8.267598 c -3.283783,2.791215 -5.929656,0.328566 -4.376963,-2.917976 L 30.425178,32.457831 19.239605,25.649223 c -3.097116,-1.885203 -2.266334,-5.779468 1.458988,-5.349622 z"
         id="path997"
         sodipodi:nodetypes="csscssccscsscssc" /></g><path
       style="opacity:0.5;fill:none;stroke:#ffffff;stroke-width:1px;stroke-linecap:butt;stroke-linejoin:miter;stroke-opacity:1"
       d="m 15.567709,8.5 h 11.5"
       id="path2306"
       sodipodi:nodetypes="cc" /><path
       id="rect15"
       style="opacity:0.5;mix-blend-mode:hard-light;fill:#e6c56b;fill-rule:evenodd;stroke-linecap:round"
       d="m 18.365265,7.9351019 -1.0625,2.2207031 c -0.259057,0.541665 -0.197025,1.14056 0.210938,1.453125 0.40796,0.312565 1.021178,0.21364 1.539062,-0.226562 l 2.347656,-1.9960942 2.355469,2.1191402 c 0.460516,0.414463 1.072803,0.427328 1.447266,0.13086 0.374461,-0.296468 0.525164,-0.837654 0.318359,-1.333984 L 24.535187,7.9351019 Z" /><path
       d="m 16.067709,7.5 h 11 v 6 c 0,0.554 -0.446,1 -1,1 h -10 c -0.554,0 -1,-0.446 -1,-1 v -5 c 0,-0.554 0.446,-1 1,-1 z"
       stop-color="#000000"
       stroke="url(#linearGradient52101)"
       stroke-linecap="round"
       stroke-linejoin="round"
       id="path20"
       style="fill:none;stroke:url(#linearGradient52101)" /></g></svg>
