<?xml version="1.0" encoding="UTF-8" standalone="no"?>
<svg
   inkscape:export-ydpi="96"
   inkscape:export-xdpi="96"
   inkscape:export-filename="contents.png"
   width="16"
   height="16"
   viewBox="0 0 16 16"
   version="1.1"
   id="svg8"
   inkscape:version="1.3.2 (1:1.3.2+202311252150+091e20ef0f)"
   sodipodi:docname="ppLib.svg"
   xmlns:inkscape="http://www.inkscape.org/namespaces/inkscape"
   xmlns:sodipodi="http://sodipodi.sourceforge.net/DTD/sodipodi-0.dtd"
   xmlns:xlink="http://www.w3.org/1999/xlink"
   xmlns="http://www.w3.org/2000/svg"
   xmlns:svg="http://www.w3.org/2000/svg"
   xmlns:rdf="http://www.w3.org/1999/02/22-rdf-syntax-ns#"
   xmlns:cc="http://creativecommons.org/ns#"
   xmlns:dc="http://purl.org/dc/elements/1.1/">
  <defs
     id="defs2">
    <linearGradient
       inkscape:collect="always"
       id="linearGradient2">
      <stop
         style="stop-color:#ffff99;stop-opacity:1"
         offset="0"
         id="stop1" />
      <stop
         style="stop-color:#ffcc00;stop-opacity:1"
         offset="1"
         id="stop2" />
    </linearGradient>
    <linearGradient
       inkscape:collect="always"
       id="linearGradient145065">
      <stop
         style="stop-color:#ffcc66;stop-opacity:1"
         offset="0"
         id="stop145061" />
      <stop
         style="stop-color:#f26c21;stop-opacity:1"
         offset="1"
         id="stop145063" />
    </linearGradient>
    <linearGradient
       inkscape:collect="always"
       id="linearGradient112610">
      <stop
         style="stop-color:#ffff99;stop-opacity:1"
         offset="0"
         id="stop112606" />
      <stop
         style="stop-color:#ffcc00;stop-opacity:1"
         offset="1"
         id="stop112608" />
    </linearGradient>
    <linearGradient
       inkscape:collect="always"
       id="linearGradient77767">
      <stop
         style="stop-color:#fff698;stop-opacity:1;"
         offset="0"
         id="stop77763" />
      <stop
         style="stop-color:#ffbb5b;stop-opacity:1"
         offset="1"
         id="stop77765" />
    </linearGradient>
    <linearGradient
       inkscape:collect="always"
       id="linearGradient59196">
      <stop
         style="stop-color:#ff9933;stop-opacity:1"
         offset="0"
         id="stop59192" />
      <stop
         style="stop-color:#ffca64;stop-opacity:1"
         offset="1"
         id="stop59194" />
    </linearGradient>
    <linearGradient
       inkscape:collect="always"
       id="linearGradient27367">
      <stop
         style="stop-color:#fffde6;stop-opacity:1"
         offset="0"
         id="stop27363" />
      <stop
         style="stop-color:#ffff99;stop-opacity:1"
         offset="1"
         id="stop27365" />
    </linearGradient>
    <linearGradient
       inkscape:collect="always"
       id="linearGradient12482">
      <stop
         style="stop-color:#fff58f;stop-opacity:1"
         offset="0"
         id="stop12478" />
      <stop
         style="stop-color:#f26c21;stop-opacity:1"
         offset="1"
         id="stop12480" />
    </linearGradient>
    <linearGradient
       inkscape:collect="always"
       id="linearGradient2220">
      <stop
         style="stop-color:#fdbe5c;stop-opacity:1"
         offset="0"
         id="stop2216" />
      <stop
         style="stop-color:#f58432;stop-opacity:1"
         offset="1"
         id="stop2218" />
    </linearGradient>
    <linearGradient
       inkscape:collect="always"
       xlink:href="#linearGradient145065"
       id="linearGradient2222"
       x1="-126.74926"
       y1="131.15268"
       x2="-149.459"
       y2="105.65512"
       gradientUnits="userSpaceOnUse"
       gradientTransform="translate(0.97233892,-0.82527)" />
    <linearGradient
       inkscape:collect="always"
       xlink:href="#linearGradient12482"
       id="linearGradient12484"
       x1="-158.63078"
       y1="120.52324"
       x2="-153.51373"
       y2="120.52324"
       gradientUnits="userSpaceOnUse"
       gradientTransform="translate(0.97233892,-0.82527)" />
    <linearGradient
       inkscape:collect="always"
       xlink:href="#linearGradient27367"
       id="linearGradient27369"
       x1="-155.98575"
       y1="102.25"
       x2="-133.44029"
       y2="102.25"
       gradientUnits="userSpaceOnUse"
       gradientTransform="translate(0.97233892,-0.82527)" />
    <linearGradient
       inkscape:collect="always"
       xlink:href="#linearGradient59196"
       id="linearGradient59198"
       x1="-151.4323"
       y1="104"
       x2="-149.476"
       y2="138.36263"
       gradientUnits="userSpaceOnUse"
       gradientTransform="translate(0.97233892,-0.82527)" />
    <linearGradient
       inkscape:collect="always"
       xlink:href="#linearGradient77767"
       id="linearGradient77769"
       x1="-159.06502"
       y1="101.25516"
       x2="-125.43229"
       y2="101.25516"
       gradientUnits="userSpaceOnUse"
       gradientTransform="translate(0.97233892,-0.82527)" />
    <linearGradient
       inkscape:collect="always"
       xlink:href="#linearGradient2"
       id="linearGradient112612"
       x1="-158.22662"
       y1="111.00167"
       x2="-150.5226"
       y2="110.99394"
       gradientUnits="userSpaceOnUse" />
    <linearGradient
       inkscape:collect="always"
       xlink:href="#linearGradient112610"
       id="linearGradient122893"
       x1="-156.97015"
       y1="131.19839"
       x2="-149.38744"
       y2="131.19839"
       gradientUnits="userSpaceOnUse" />
    <linearGradient
       inkscape:collect="always"
       xlink:href="#linearGradient2220"
       id="linearGradient125951"
       x1="-141.73039"
       y1="115.09708"
       x2="-141.73039"
       y2="99.462532"
       gradientUnits="userSpaceOnUse" />
    <linearGradient
       inkscape:collect="always"
       xlink:href="#linearGradient2220"
       id="linearGradient184522"
       gradientUnits="userSpaceOnUse"
       x1="-141.73039"
       y1="115.09708"
       x2="-141.73039"
       y2="99.462532"
       gradientTransform="translate(-42.168906,3.3777084)" />
    <filter
       inkscape:collect="always"
       style="color-interpolation-filters:sRGB"
       id="filter22"
       x="-0.13727269"
       y="-0.11121865"
       width="1.2745454"
       height="1.2224373">
      <feGaussianBlur
         inkscape:collect="always"
         stdDeviation="0.69487541"
         id="feGaussianBlur22" />
    </filter>
  </defs>
  <sodipodi:namedview
     inkscape:guide-bbox="true"
     showguides="true"
     id="base"
     pagecolor="#ffffff"
     bordercolor="#666666"
     borderopacity="1.0"
     inkscape:pageopacity="0.0"
     inkscape:pageshadow="2"
     inkscape:zoom="64.000001"
     inkscape:cx="10.1875"
     inkscape:cy="7.0468749"
     inkscape:document-units="px"
     inkscape:current-layer="layer1"
     inkscape:document-rotation="0"
     showgrid="false"
     units="px"
     inkscape:window-width="3840"
     inkscape:window-height="2059"
     inkscape:window-x="3840"
     inkscape:window-y="0"
     inkscape:window-maximized="1"
     inkscape:snap-bbox="true"
     inkscape:bbox-nodes="true"
     fit-margin-top="0"
     fit-margin-left="0"
     fit-margin-right="0"
     fit-margin-bottom="0"
     inkscape:bbox-paths="false"
     inkscape:snap-global="true"
     inkscape:snap-intersection-paths="true"
     inkscape:snap-grids="true"
     inkscape:pagecheckerboard="0"
     inkscape:object-paths="true"
     inkscape:showpageshadow="2"
     inkscape:deskcolor="#d1d1d1">
    <inkscape:grid
       type="xygrid"
       id="grid1504"
       originx="0"
       originy="0"
       spacingy="1"
       spacingx="1"
       units="px"
       visible="false" />
    <inkscape:grid
       type="xygrid"
       id="grid1507"
       spacingx="0.5"
       spacingy="0.5"
       originx="0"
       originy="0"
       units="px"
       visible="false" />
  </sodipodi:namedview>
  <metadata
     id="metadata5">
    <rdf:RDF>
      <cc:Work
         rdf:about="">
        <dc:format>image/svg+xml</dc:format>
        <dc:type
           rdf:resource="http://purl.org/dc/dcmitype/StillImage" />
      </cc:Work>
    </rdf:RDF>
  </metadata>
  <g
     inkscape:label="Layer 1"
     inkscape:groupmode="layer"
     id="layer1"
     transform="translate(-12.567709)">
    <path
       id="path19"
       style="color:#000000;opacity:0.83;fill:#000000;fill-opacity:1;stroke-linecap:round;stroke-linejoin:round;-inkscape-stroke:none;filter:url(#filter22)"
       d="m 24.808243,1.0038489 -8.544921,1.3652344 a 0.25316931,0.25316931 0 0 0 -0.134766,0.083984 l 0.123047,-0.080078 c -0.179914,0.036437 -0.351934,0.09997 -0.466797,0.2617187 -0.20762,0.2513596 -0.256521,0.5729 -0.279297,0.8398438 -0.0232,0.2719736 -0.0059,0.4960937 -0.0059,0.4960937 l -0.002,-0.00195 0.0625,0.9980469 c 0,9.4e-6 0.0012,0.010338 0.002,0.015625 h -0.002 l 0.0918,1.4804687 0.333985,5.4023439 0.07813,1.271485 0.0918,1.507812 0.002,0.002 c 10e-4,0.259065 0.145727,0.476354 0.333984,0.650391 0.188934,0.174664 0.434069,0.318982 0.708985,0.433594 0.545653,0.227481 1.208916,0.337647 1.791015,0.21289 a 0.25316931,0.25316931 0 0 0 0.01563,0.0039 c 0.108731,-0.02508 0.247768,-0.06526 0.376953,-0.119141 l 0.01563,-0.0059 8.072266,-2.855469 a 0.25316931,0.25316931 0 0 0 0.169922,-0.242188 L 27.472306,2.0936927 A 0.25316931,0.25316931 0 0 0 27.18129,1.8475989 l -0.867187,0.1328125 c -0.478305,-0.076059 -0.856292,-0.161404 -1.212891,-0.28125 V 1.2538489 a 0.25316931,0.25316931 0 0 0 -0.292969,-0.25 z" />
    <g
       id="g197503"
       transform="matrix(0.3375252,0,0,0.3375252,78.21056,-33.457847)">
      <path
         id="path184502"
         style="fill:url(#linearGradient184522);fill-opacity:1;stroke:#ce451a;stroke-width:1.5;stroke-linecap:round;stroke-linejoin:round;stroke-miterlimit:4;stroke-dasharray:none;stroke-opacity:1"
         d="m -173.62891,99.876953 -25.31445,4.046877 -0.006,0.008 c -0.46563,0.0943 -0.78857,0.2419 -0.94531,0.47852 0,0 -0.002,0.002 -0.002,0.002 -0.86139,1.00126 -0.6836,3.46484 -0.6836,3.46484 l 0.18555,3.00782 c -4.5e-4,-10e-4 -0.002,-0.003 -0.002,-0.004 l 0.27148,4.38672 0.98633,16.0039 0.23242,3.76563 0.27734,4.51562 c 0,1.89885 4.504,3.79164 7.52735,3.12305 v 0.006 c 0.29828,-0.0688 0.70269,-0.18621 1.0332,-0.32812 l 23.9668,-8.47657 -0.5,-31.5 -2.70703,0.41993 c -1.66829,-0.26346 -3.03973,-0.51521 -4.32032,-1.00586 z"
         transform="translate(12.567709)" />
      <g
         id="g157605"
         style="opacity:1"
         transform="translate(-29.601197,3.3777084)">
        <path
           style="fill:url(#linearGradient125951);fill-opacity:1;stroke:none;stroke-width:1px;stroke-linecap:butt;stroke-linejoin:miter;stroke-opacity:1"
           d="M -156.7741,100.54614 -131.45995,96.5 v 6.67473 l -25.53071,5.52079 -0.43169,-7.2079 z"
           id="path38259"
           sodipodi:nodetypes="cccccc" />
        <path
           style="fill:url(#linearGradient27369);fill-opacity:1;stroke:none;stroke-width:1px;stroke-linecap:butt;stroke-linejoin:miter;stroke-opacity:1"
           d="m -157.41169,102.21972 25,-4.21972 c 2,1 4.02445,1.213469 7.05452,1.699517 l -25.10278,6.475213 -7,-2 z"
           id="path1897"
           sodipodi:nodetypes="cccccc" />
        <path
           style="fill:url(#linearGradient2222);fill-opacity:1;stroke:none;stroke-width:1px;stroke-linecap:butt;stroke-linejoin:miter;stroke-opacity:1"
           d="m -148.45995,139.17473 -2,-36 26.02766,-4.17473 0.5,31.5 z"
           id="path1184"
           sodipodi:nodetypes="ccccc" />
        <path
           style="fill:url(#linearGradient12484);fill-opacity:1;stroke:none;stroke-width:1px;stroke-linecap:butt;stroke-linejoin:miter;stroke-opacity:1"
           d="m -148.45995,139.17473 -2,-36 c -4.53901,1.21622 -7.7535,-1.18922 -6.49112,-2.5514 -1.73048,0.14389 -1.46062,3.87667 -1.46062,3.87667 l 1.95174,31.67469 c 0,2 5,4 8,3 z"
           id="path1252"
           sodipodi:nodetypes="ccccccc" />
        <path
           style="opacity:1;fill:url(#linearGradient112612);fill-opacity:1;stroke:none;stroke-width:1px;stroke-linecap:butt;stroke-linejoin:miter;stroke-opacity:1"
           d="m -149.91169,111 c -4.35008,0.0549 -7.81494,-1.99666 -8.31494,-3.49666 l 0.27032,4.38708 c 2,2.5 5.54462,2.60958 8.04462,2.60958 z"
           id="path76773"
           sodipodi:nodetypes="ccccc" />
        <path
           style="opacity:1;fill:url(#linearGradient122893);fill-opacity:1;stroke:none;stroke-width:1px;stroke-linecap:butt;stroke-linejoin:miter;stroke-opacity:1"
           d="m -149.08447,131.17511 c -3.35579,0.32103 -6.74025,-0.8215 -7.88568,-3.28051 l 0.232,3.7652 c 1.03429,2.49155 5.15368,2.84239 7.65368,2.84239 z"
           id="path77387"
           sodipodi:nodetypes="ccccc" />
        <path
           style="color:#000000;fill:url(#linearGradient59198);stroke-linecap:round;-inkscape-stroke:none"
           d="m -150.4593,103.18059 c -0.27634,0.0147 -0.48818,0.25105 -0.47266,0.52734 l 1.99994,35.59639 c 0.29828,-0.0688 0.70128,-0.18564 1.03179,-0.32755 l -1.93796,-35.34675 c -0.0147,-0.27634 -0.34482,-0.46495 -0.62111,-0.44943 z"
           id="path59157"
           sodipodi:nodetypes="cccccc" />
        <path
           style="color:#000000;fill:url(#linearGradient77769);fill-opacity:1;stroke-linecap:round;-inkscape-stroke:none"
           d="m -150.93171,103.11671 c -1.74614,0.46788 -2.96136,0.14736 -4.24507,-0.25383 -0.84273,-0.26338 -1.4499,-0.68409 -1.67023,-1.03573 -0.32303,-0.51555 0.27895,-1.2553 0.37886,-1.32991 -1.28373,0.17157 -1.68814,0.64495 -1.12842,1.80843 0.26818,0.55746 1.37987,1.12915 2.1552,1.3369 1.48154,0.39698 2.67313,0.57701 5.0934,0.0185 L -124.43229,99 Z"
           id="path48425"
           sodipodi:nodetypes="csscssccc" />
        <path
           style="opacity:1;fill:#edffff;fill-opacity:1;stroke:#ffcc00;stroke-width:1px;stroke-linecap:butt;stroke-linejoin:miter;stroke-opacity:1"
           d="m -143.91169,108.5 0.11719,6 14,-3.5 -0.13779,-5.5 z"
           id="path88669"
           sodipodi:nodetypes="ccccc" />
      </g>
    </g>
  </g>
</svg>
