<?xml version="1.0" encoding="UTF-8"?>
<svg width="16" height="16" version="1.1" viewBox="0 0 16 16" xmlns="http://www.w3.org/2000/svg" xmlns:cc="http://creativecommons.org/ns#" xmlns:dc="http://purl.org/dc/elements/1.1/" xmlns:rdf="http://www.w3.org/1999/02/22-rdf-syntax-ns#" xmlns:xlink="http://www.w3.org/1999/xlink">
 <defs>
  <linearGradient id="linearGradient17865" x1="-3.9323" x2="-3.9323" y1="12.5" y2="4.5" gradientUnits="userSpaceOnUse">
   <stop stop-color="#fc6" offset="0"/>
   <stop stop-color="#ffd46e" offset=".5"/>
   <stop stop-color="#ff9" offset="1"/>
  </linearGradient>
  <linearGradient id="linearGradient38453" x1="-2.4018" x2="-4.4418" y1="7.0518" y2="4.0087" gradientUnits="userSpaceOnUse">
   <stop stop-color="#b07d17" offset="0"/>
   <stop stop-color="#c93" offset="1"/>
  </linearGradient>
  <linearGradient id="linearGradient52101" x1=".067709" x2="-3.9678" y1="15" y2="11.01" gradientTransform="translate(4,-3)" gradientUnits="userSpaceOnUse">
   <stop stop-color="#9a6701" offset="0"/>
   <stop stop-color="#c5922c" offset="1"/>
  </linearGradient>
  <linearGradient id="linearGradient70029" x1="-1.4323" x2="-1.4323" y1="15.5" y2="11.5" gradientTransform="translate(4,-3)" gradientUnits="userSpaceOnUse">
   <stop stop-color="#ffd46e" offset="0"/>
   <stop stop-color="#ff9" offset="1"/>
  </linearGradient>
  <linearGradient id="linearGradient99494" x1="7.0677" x2="7.0677" y1="12.5" y2="8.5" gradientUnits="userSpaceOnUse">
   <stop stop-color="#d3a03a" offset="0"/>
   <stop stop-color="#f8c55f" offset="1"/>
  </linearGradient>
  <filter id="filter126551" x="-.11059" y="-.13824" width="1.2212" height="1.2765" color-interpolation-filters="sRGB">
   <feGaussianBlur stdDeviation="0.69120004"/>
  </filter>
  <filter id="filter963" x="-.10876" y="-.10726" width="1.2175" height="1.2145" color-interpolation-filters="sRGB">
   <feGaussianBlur stdDeviation="10.814775"/>
  </filter>
 </defs>
 <metadata>
  <rdf:RDF>
   <cc:Work rdf:about="">
    <dc:format>image/svg+xml</dc:format>
    <dc:type rdf:resource="http://purl.org/dc/dcmitype/StillImage"/>
   </cc:Work>
  </rdf:RDF>
 </metadata>
 <g transform="translate(-12.568)">
  <path d="m15.968 2.8995c-0.22917 0-0.36433 0.081476-0.49219 0.16016-0.12786 0.07868-0.24407 0.17333-0.36328 0.2793-0.23843 0.21194-0.48246 0.47159-0.70898 0.73047-0.45304 0.51776-0.83594 1.0293-0.83594 1.0293a0.50005 0.50005 0 0 0-0.09961 0.30078v8c0 0.82235 0.67765 1.5 1.5 1.5h12c0.82235 0 1.5-0.67765 1.5-1.5v-6a0.50005 0.50005 0 0 0-0.5-0.5h-1.5v-1.5a0.50005 0.50005 0 0 0-0.5-0.5h-4.8203c-0.10916-0.14905-0.29375-0.40891-0.64258-0.82227-0.21882-0.2593-0.4544-0.52128-0.6875-0.73438-0.11655-0.10655-0.23038-0.20154-0.35742-0.28125-0.12704-0.079706-0.26302-0.16211-0.49219-0.16211z" fill-rule="evenodd" filter="url(#filter126551)" opacity=".83" stop-color="#000000" style="mix-blend-mode:normal"/>
  <g transform="translate(18)">
   <path d="m-2.9323 2.5h3c0.5 0 1.9378 2 1.9378 2h5.0622v9h-11c-0.554 0-1-0.446-1-1v-8s1.5-2 2-2z" fill="url(#linearGradient17865)" fill-rule="evenodd" stop-color="#000000"/>
   <path d="m-4.8514 5.8971 2.0474-2.3804 2.6693-0.04805 1.7025 2.0314h5.5" fill="none" stroke="#fff" stroke-width="1px"/>
   <path d="m-2.9323 2.5h3c0.5 0 1.9378 2 1.9378 2h5.0622v9h-11c-0.554 0-1-0.446-1-1v-8s1.5-2 2-2z" fill="none" stop-color="#000000" stroke="url(#linearGradient38453)" stroke-linecap="round" stroke-linejoin="round"/>
   <rect x="-2.9323" y="6.5" width="12" height="7" rx="1" ry="1" fill="url(#linearGradient70029)" fill-rule="evenodd" stop-color="#000000"/>
   <g fill="none">
    <g stroke-width="1px">
     <path d="m-1.9323 7.5v6" stroke="#ff9"/>
     <path d="m8.0677 7.5v6" stroke="#ff9"/>
     <path d="m-2.9323 7.5h12" stroke="#fff"/>
     <path d="m7.0677 6.5v7" stroke="url(#linearGradient99494)"/>
    </g>
    <path d="m-1.9323 6.5h11v6c0 0.554-0.446 1-1 1h-10c-0.554 0-1-0.446-1-1v-5c0-0.554 0.446-1 1-1z" stop-color="#000000" stroke="url(#linearGradient52101)" stroke-linecap="round" stroke-linejoin="round"/>
   </g>
   <rect x="6.5677" y="7" width="1" height="1" fill="#ffe680" fill-rule="evenodd" stop-color="#000000"/>
  </g>
  <g transform="matrix(.030158 0 0 .030158 20.599 7.9214)" fill-rule="evenodd">
   <path d="m138.81 7.9998a116.24 116.24 0 0 0-116.24 116.24 116.24 116.24 0 0 0 21.912 67.926 116.24 116.24 0 0 0 100.5 57.83 116.24 116.24 0 0 0 116.24-116.24 116.24 116.24 0 0 0-21.912-67.926 116.24 116.24 0 0 0-100.5-57.83z" filter="url(#filter963)"/>
   <g transform="matrix(5.4067,0,0,5.4067,495.56,-5.4067)">
    <circle cx="-67.31" cy="22.757" r="18.249" fill="#fff"/>
    <path d="m-66.692 2.7593a21.5 21.5 0 0 0-21.5 21.5 21.5 21.5 0 0 0 21.5 21.5 21.5 21.5 0 0 0 21.5-21.5 21.5 21.5 0 0 0-21.5-21.5zm0 5.5a16 16 0 0 1 16 16 16 16 0 0 1-2.0996 7.9219l-22.107-21.656a16 16 0 0 1 8.207-2.2656zm-12.713 6.2871 22.426 22.426a16 16 0 0 1-9.7129 3.2871 16 16 0 0 1-16-16 16 16 0 0 1 3.2871-9.7129z" fill="#a21907"/>
    <path d="m-67.833 1a21.5 21.5 0 0 0-21.5 21.5 21.5 21.5 0 0 0 21.5 21.5 21.5 21.5 0 0 0 21.5-21.5 21.5 21.5 0 0 0-21.5-21.5zm0 5.5a16 16 0 0 1 16 16 16 16 0 0 1-2.0996 7.9219l-22.107-21.656a16 16 0 0 1 8.207-2.2656zm-12.713 6.2871 22.426 22.426a16 16 0 0 1-9.7129 3.2871 16 16 0 0 1-16-16 16 16 0 0 1 3.2871-9.7129z" fill="#f52e14"/>
   </g>
  </g>
 </g>
</svg>
