<?xml version="1.0" encoding="UTF-8" standalone="no"?>
<svg
   inkscape:export-ydpi="96"
   inkscape:export-xdpi="96"
   inkscape:export-filename="file.png"
   width="16"
   height="16"
   viewBox="0 0 16 16"
   version="1.1"
   id="svg8"
   inkscape:version="1.3.2 (1:1.3.2+202311252150+091e20ef0f)"
   sodipodi:docname="ScopeRazor.svg"
   xmlns:inkscape="http://www.inkscape.org/namespaces/inkscape"
   xmlns:sodipodi="http://sodipodi.sourceforge.net/DTD/sodipodi-0.dtd"
   xmlns:xlink="http://www.w3.org/1999/xlink"
   xmlns="http://www.w3.org/2000/svg"
   xmlns:svg="http://www.w3.org/2000/svg"
   xmlns:rdf="http://www.w3.org/1999/02/22-rdf-syntax-ns#"
   xmlns:cc="http://creativecommons.org/ns#"
   xmlns:dc="http://purl.org/dc/elements/1.1/">
  <defs
     id="defs2">
    <linearGradient
       inkscape:collect="always"
       id="linearGradient33218">
      <stop
         style="stop-color:#ccd5ff;stop-opacity:1"
         offset="0"
         id="stop33214" />
      <stop
         style="stop-color:#aab3f5;stop-opacity:1"
         offset="1"
         id="stop33216" />
    </linearGradient>
    <linearGradient
       inkscape:collect="always"
       id="linearGradient19556">
      <stop
         style="stop-color:#a5bdee;stop-opacity:1"
         offset="0"
         id="stop19552" />
      <stop
         style="stop-color:#bac9f4;stop-opacity:1"
         offset="1"
         id="stop19554" />
    </linearGradient>
    <linearGradient
       inkscape:collect="always"
       id="linearGradient10735">
      <stop
         style="stop-color:#9dadd9;stop-opacity:1"
         offset="0"
         id="stop10731" />
      <stop
         style="stop-color:#8b8eb8;stop-opacity:1"
         offset="1"
         id="stop10733" />
    </linearGradient>
    <linearGradient
       inkscape:collect="always"
       id="linearGradient1920">
      <stop
         style="stop-color:#6e7bae;stop-opacity:1"
         offset="0"
         id="stop1916" />
      <stop
         style="stop-color:#87a9dc;stop-opacity:1"
         offset="1"
         id="stop1918" />
    </linearGradient>
    <linearGradient
       inkscape:collect="always"
       id="linearGradient1601">
      <stop
         style="stop-color:#0096fc;stop-opacity:1"
         offset="0"
         id="stop1597" />
      <stop
         style="stop-color:#0068ce;stop-opacity:1"
         offset="1"
         id="stop1599" />
    </linearGradient>
    <linearGradient
       inkscape:collect="always"
       id="linearGradient1562">
      <stop
         style="stop-color:#2da8ff;stop-opacity:1"
         offset="0"
         id="stop1558" />
      <stop
         style="stop-color:#74c0ff;stop-opacity:1"
         offset="1"
         id="stop1560" />
    </linearGradient>
    <linearGradient
       inkscape:collect="always"
       id="linearGradient861">
      <stop
         style="stop-color:#99ccff;stop-opacity:1;"
         offset="0"
         id="stop857" />
      <stop
         style="stop-color:#ffffff;stop-opacity:1"
         offset="1"
         id="stop859" />
    </linearGradient>
    <linearGradient
       inkscape:collect="always"
       xlink:href="#linearGradient1920"
       id="linearGradient1922"
       x1="-38.932289"
       y1="21.5"
       x2="-38.932289"
       y2="8"
       gradientUnits="userSpaceOnUse" />
    <linearGradient
       inkscape:collect="always"
       xlink:href="#linearGradient10735"
       id="linearGradient10737"
       x1="-37.932289"
       y1="22"
       x2="-28.932291"
       y2="22"
       gradientUnits="userSpaceOnUse" />
    <linearGradient
       inkscape:collect="always"
       xlink:href="#linearGradient19556"
       id="linearGradient19558"
       x1="-27.932291"
       y1="21"
       x2="-27.932291"
       y2="11.5"
       gradientUnits="userSpaceOnUse" />
    <linearGradient
       inkscape:collect="always"
       xlink:href="#linearGradient1562"
       id="linearGradient26952"
       gradientUnits="userSpaceOnUse"
       gradientTransform="matrix(1.5871812,0,0,1.5871812,-42.560746,7.9304953)"
       x1="8.0956125"
       y1="1.4187587"
       x2="7.2706113"
       y2="0.4584797" />
    <linearGradient
       inkscape:collect="always"
       xlink:href="#linearGradient861"
       id="linearGradient32816"
       x1="-28.683321"
       y1="21.127937"
       x2="-38.224697"
       y2="9.0368757"
       gradientUnits="userSpaceOnUse" />
    <linearGradient
       inkscape:collect="always"
       xlink:href="#linearGradient33218"
       id="linearGradient33220"
       x1="-30.932291"
       y1="11"
       x2="-28.932291"
       y2="11"
       gradientUnits="userSpaceOnUse" />
    <linearGradient
       inkscape:collect="always"
       xlink:href="#linearGradient1601"
       id="linearGradient57243"
       x1="-31.155609"
       y1="10.5"
       x2="-28.432291"
       y2="10.5"
       gradientUnits="userSpaceOnUse"
       gradientTransform="translate(0,-0.25000002)" />
    <filter
       inkscape:collect="always"
       style="color-interpolation-filters:sRGB"
       id="filter18"
       x="-0.13824003"
       y="-0.11059199"
       width="1.2764801"
       height="1.221184">
      <feGaussianBlur
         inkscape:collect="always"
         stdDeviation="0.69120023"
         id="feGaussianBlur18" />
    </filter>
  </defs>
  <sodipodi:namedview
     inkscape:guide-bbox="true"
     showguides="true"
     id="base"
     pagecolor="#ffffff"
     bordercolor="#666666"
     borderopacity="1.0"
     inkscape:pageopacity="0.0"
     inkscape:pageshadow="2"
     inkscape:zoom="52.961605"
     inkscape:cx="4.0028998"
     inkscape:cy="7.5526412"
     inkscape:document-units="px"
     inkscape:current-layer="layer1"
     inkscape:document-rotation="0"
     showgrid="false"
     units="px"
     inkscape:window-width="3840"
     inkscape:window-height="2059"
     inkscape:window-x="3840"
     inkscape:window-y="0"
     inkscape:window-maximized="1"
     inkscape:snap-bbox="true"
     inkscape:bbox-nodes="true"
     fit-margin-top="0"
     fit-margin-left="0"
     fit-margin-right="0"
     fit-margin-bottom="0"
     inkscape:bbox-paths="false"
     inkscape:pagecheckerboard="0"
     inkscape:showpageshadow="2"
     inkscape:deskcolor="#d1d1d1">
    <inkscape:grid
       type="xygrid"
       id="grid1504"
       originx="0"
       originy="0"
       spacingy="1"
       spacingx="1"
       units="px"
       visible="false" />
    <inkscape:grid
       type="xygrid"
       id="grid1507"
       spacingx="0.5"
       spacingy="0.5"
       originx="0"
       originy="0"
       units="px"
       visible="false" />
  </sodipodi:namedview>
  <metadata
     id="metadata5">
    <rdf:RDF>
      <cc:Work
         rdf:about="">
        <dc:format>image/svg+xml</dc:format>
        <dc:type
           rdf:resource="http://purl.org/dc/dcmitype/StillImage" />
      </cc:Work>
    </rdf:RDF>
  </metadata>
  <g
     inkscape:label="Layer 1"
     inkscape:groupmode="layer"
     id="layer1"
     transform="translate(-12.567709)">
    <path
       id="path2"
       style="fill:#000000;fill-opacity:1;fill-rule:evenodd;stroke-linecap:round;stroke-linejoin:round;stop-color:#000000;filter:url(#filter18);opacity:0.83"
       d="m 15.567709,1 v 14.5 a 0.5,0.5 0 0 0 0.0625,0.22461 0.5,0.5 0 0 0 0.03516,0.05469 0.5,0.5 0 0 0 0.121093,0.123047 0.5,0.5 0 0 0 0.05664,0.03711 0.5,0.5 0 0 0 0.224609,0.06055 h 11 a 0.5,0.5 0 0 0 0.5,-0.5 V 4.5 a 0.5,0.5 0 0 0 -0.01367,-0.1152344 0.5,0.5 0 0 0 0,-0.00195 0.5,0.5 0 0 0 -0.01367,-0.042969 0.5,0.5 0 0 0 -0.0059,-0.017578 0.5,0.5 0 0 0 -0.0098,-0.025391 0.5,0.5 0 0 0 -0.002,-0.00391 0.5,0.5 0 0 0 -0.01953,-0.037109 0.5,0.5 0 0 0 -0.002,-0.00195 0.5,0.5 0 0 0 -0.01172,-0.023437 0.5,0.5 0 0 0 -0.0098,-0.013672 0.5,0.5 0 0 0 -0.0039,-0.00391 0.5,0.5 0 0 0 -0.04297,-0.052734 L 24.950522,1.1796875 A 0.5,0.5 0 0 0 24.829428,1.078125 0.5,0.5 0 0 0 24.794272,1.0605469 0.5,0.5 0 0 0 24.581381,1.0039062 0.5,0.5 0 0 0 24.567709,1 Z" />
    <g
       id="g66635"
       transform="translate(54.005865,-7.4946405)">
      <path
         id="rect32383"
         style="fill:url(#linearGradient32816);fill-opacity:1;fill-rule:evenodd;stroke-linecap:round;stroke-linejoin:round;stop-color:#000000"
         d="m -38.932289,8 h 8.504071 l 2.495929,3.120377 V 22 h -11 z"
         sodipodi:nodetypes="cccccc" />
      <path
         style="fill:url(#linearGradient26952);fill-opacity:1;stroke:none;stroke-width:0.419942px;stroke-linecap:butt;stroke-linejoin:miter;stroke-opacity:1"
         d="M -31.432291,8.1404667 V 11 h 3.499999 L -31.01235,8.1404667 Z"
         id="path1548-1-7"
         sodipodi:nodetypes="ccccc" />
      <path
         style="fill:none;stroke:url(#linearGradient57243);stroke-width:0.5;stroke-linecap:butt;stroke-linejoin:miter;stroke-miterlimit:4;stroke-dasharray:none;stroke-opacity:1"
         d="m -31.432291,10.25 h 3"
         id="path57178" />
      <path
         style="fill:#aab3f5;fill-opacity:1;stroke:url(#linearGradient33220);stroke-width:1px;stroke-linecap:butt;stroke-linejoin:miter;stroke-opacity:1"
         d="m -27.932291,11 h -3.5"
         id="path33155"
         sodipodi:nodetypes="cc" />
      <path
         style="fill:none;stroke:url(#linearGradient19558);stroke-width:1px;stroke-linecap:round;stroke-linejoin:miter;stroke-opacity:1"
         d="M -27.932291,22 V 11"
         id="path1357"
         sodipodi:nodetypes="cc" />
      <path
         style="fill:none;stroke:url(#linearGradient10737);stroke-width:1px;stroke-linecap:round;stroke-linejoin:miter;stroke-opacity:1"
         d="m -38.932291,22 h 11"
         id="path1355"
         sodipodi:nodetypes="cc" />
      <path
         style="fill:none;stroke:url(#linearGradient1922);stroke-width:1px;stroke-linecap:round;stroke-linejoin:miter;stroke-opacity:1"
         d="m -30.432291,8 h -8.5 v 14"
         id="path1225"
         sodipodi:nodetypes="ccc" />
      <path
         style="fill:none;stroke:#87a9dc;stroke-width:1px;stroke-linecap:round;stroke-linejoin:miter;stroke-opacity:1"
         d="m -30.432291,8 2.5,3"
         id="path1359"
         sodipodi:nodetypes="cc" />
    </g>
    <path
       id="text2"
       style="-inkscape-font-specification:'Trebuchet MS Bold';opacity:1;mix-blend-mode:normal;fill:#6cafff;fill-opacity:1;fill-rule:evenodd;stroke-width:1.02146"
       d="m 21.053518,4.7651681 c -1.308743,0 -2.370105,0.4169636 -3.18408,1.2508886 -0.809985,0.8339248 -1.214978,1.8992765 -1.214978,3.1960497 0,1.2768236 0.401003,2.3102556 1.203007,3.1002896 0.802005,0.790033 1.867357,1.185052 3.196051,1.185052 0.774073,0 1.504258,-0.195513 2.190551,-0.586541 V 12.30641 c 0.004,-0.203494 0.006,-0.359106 0.006,-0.466838 0,-0.103714 -0.0019,-0.157581 -0.006,-0.161598 -0.315216,0.279305 -0.630432,0.478809 -0.945647,0.598512 -0.315217,0.115711 -0.730185,0.173568 -1.244904,0.173568 -0.973578,-10e-7 -1.749649,-0.295266 -2.328209,-0.885797 -0.574571,-0.59053 -0.861856,-1.374582 -0.861856,-2.3521506 0,-0.9935275 0.291276,-1.8075043 0.873827,-2.4419256 0.58654,-0.6384113 1.358621,-0.957618 2.316238,-0.957618 0.941656,0 1.675832,0.2613504 2.202522,0.7840498 0.530678,0.5187093 0.79602,1.2329344 0.79602,2.1426705 0,1.049389 -0.311228,1.5740849 -0.933678,1.5740849 -0.139653,0 -0.323196,-0.07382 -0.55063,-0.221449 V 8.8051192 c 0,-1.3366739 -0.614474,-2.0050128 -1.843415,-2.0050128 -0.51073,0 -0.985549,0.1576083 -1.424457,0.4728239 l 0.353122,0.8139754 c 0.395016,-0.227434 0.780059,-0.3411511 1.155126,-0.3411511 0.259356,0 0.426938,0.1875338 0.50275,0.5626004 -1.580069,0.055864 -2.370105,0.5865423 -2.370105,1.5920402 0,0.4349178 0.151623,0.7800598 0.454869,1.0354248 0.303245,0.251374 0.688288,0.377062 1.155126,0.377062 0.458858,0 0.859863,-0.131673 1.203009,-0.395017 0.327185,0.231423 0.786044,0.347136 1.376575,0.347136 0.646391,0 1.163107,-0.243395 1.550144,-0.730184 0.387036,-0.490779 0.580556,-1.0833061 0.580556,-1.7775787 0,-1.2728328 -0.365093,-2.2563882 -1.095275,-2.9506607 C 23.435593,5.1123054 22.398171,4.7651681 21.053518,4.7651681 Z m 0.155612,4.3571622 h 0.125688 v 1.1012607 c -0.139652,0.123693 -0.305241,0.185539 -0.496764,0.185539 -0.179553,0 -0.327186,-0.04988 -0.442899,-0.149629 -0.115712,-0.103741 -0.173567,-0.233418 -0.173567,-0.3890315 0,-0.4987591 0.329181,-0.7481392 0.987542,-0.7481392 z" />
    <path
       style="font-weight:bold;font-size:12.2575px;font-family:'Trebuchet MS';-inkscape-font-specification:'Trebuchet MS Bold';fill:#990000;fill-rule:evenodd;stroke-width:1.02146"
       d="m 21.498406,10.662501 q -0.514719,0.395017 -1.203007,0.395017 -0.700257,0 -1.155125,-0.377062 -0.454869,-0.383047 -0.454869,-1.0354233 0,-1.508247 2.370103,-1.5920385 -0.113717,-0.5626001 -0.502749,-0.5626001 -0.5626,0 -1.155126,0.3411511 L 19.044512,7.0175706 q 0.658362,-0.4728235 1.424455,-0.4728235 1.843413,0 1.843413,2.005011 v 1.286798 q 0.341151,0.2214489 0.55063,0.2214489 0.933677,0 0.933677,-1.5740831 0,-1.3646045 -0.796019,-2.1426684 -0.790034,-0.7840491 -2.20252,-0.7840491 -1.436426,0 -2.316236,0.9576172 -0.873826,0.951632 -0.873826,2.4419237 0,1.4663517 0.861855,2.3521477 0.867841,0.885795 2.328207,0.885795 0.772079,0 1.244903,-0.173568 0.472823,-0.179553 0.945646,-0.59851 0.006,0.006 0.006,0.161597 0,0.161598 -0.006,0.466839 v 0.604496 q -1.029438,0.58654 -2.190549,0.58654 -1.99304,0 -3.196047,-1.185051 -1.203007,-1.185051 -1.203007,-3.1002857 0,-1.9451598 1.214977,-3.1960472 1.220962,-1.2508875 3.184077,-1.2508875 2.016981,0 3.112256,1.0414087 1.095275,1.0414087 1.095275,2.9506579 0,1.0414087 -0.580556,1.7775768 -0.580555,0.730183 -1.550143,0.730183 -0.885795,0 -1.376574,-0.347136 z M 21.079448,8.8669687 h -0.125687 q -0.987543,0 -0.987543,0.7481384 0,0.2334192 0.173568,0.3890319 0.173569,0.149628 0.442898,0.149628 0.287286,0 0.496764,-0.1855385 z"
       id="text1"
       aria-label="@" />
  </g>
</svg>
