<?xml version="1.0" encoding="UTF-8" standalone="no"?>
<svg
   inkscape:export-ydpi="96"
   inkscape:export-xdpi="96"
   inkscape:export-filename="my-pictures.png"
   width="16"
   height="16"
   viewBox="0 0 16 16"
   version="1.1"
   id="svg8"
   inkscape:version="1.3.2 (1:1.3.2+202311252150+091e20ef0f)"
   sodipodi:docname="resourcesRoot.svg"
   xml:space="preserve"
   xmlns:inkscape="http://www.inkscape.org/namespaces/inkscape"
   xmlns:sodipodi="http://sodipodi.sourceforge.net/DTD/sodipodi-0.dtd"
   xmlns:xlink="http://www.w3.org/1999/xlink"
   xmlns="http://www.w3.org/2000/svg"
   xmlns:svg="http://www.w3.org/2000/svg"
   xmlns:rdf="http://www.w3.org/1999/02/22-rdf-syntax-ns#"
   xmlns:cc="http://creativecommons.org/ns#"
   xmlns:dc="http://purl.org/dc/elements/1.1/"><defs
     id="defs2"><linearGradient
       id="linearGradient45"
       x1="-3.9323001"
       x2="-3.9323001"
       y1="12.5"
       y2="4.5"
       gradientUnits="userSpaceOnUse"
       gradientTransform="translate(18.000009)"><stop
         stop-color="#fc6"
         offset="0"
         id="stop42"
         style="stop-color:#000000;stop-opacity:1;" /><stop
         stop-color="#ffd46e"
         offset=".5"
         id="stop43" /><stop
         stop-color="#ff9"
         offset="1"
         id="stop45" /></linearGradient><linearGradient
       id="linearGradient38"
       x1="-3.9323001"
       x2="-3.9323001"
       y1="12.5"
       y2="4.5"
       gradientUnits="userSpaceOnUse"
       gradientTransform="translate(18.000009,1)"><stop
         stop-color="#fc6"
         offset="0"
         id="stop35"
         style="stop-color:#000000;stop-opacity:1;" /><stop
         stop-color="#ffd46e"
         offset=".5"
         id="stop37" /><stop
         stop-color="#ff9"
         offset="1"
         id="stop38" /></linearGradient><linearGradient
       id="linearGradient12"
       x1="-819.20001"
       x2="819.20001"
       gradientTransform="matrix(0,0.011456,0.0096573,0,-11.256,16.014)"
       gradientUnits="userSpaceOnUse"><stop
         stop-color="#999"
         offset="0"
         id="stop11"
         style="stop-color:#b8babe;stop-opacity:1" /><stop
         stop-color="#666"
         offset="1"
         id="stop12"
         style="stop-color:#807a6d;stop-opacity:1" /></linearGradient><linearGradient
       id="gradient5-1"
       x1="-819.20001"
       x2="819.20001"
       gradientTransform="matrix(0,0.011456,0.0096573,0,-11.256,16.014)"
       gradientUnits="userSpaceOnUse"><stop
         stop-color="#999"
         offset="0"
         id="stop19" /><stop
         stop-color="#666"
         offset="1"
         id="stop21" /></linearGradient><linearGradient
       id="gradient6-0"
       x1="-819.20001"
       x2="819.20001"
       gradientTransform="matrix(0,0.010769,0.0091017,0,-11.23,16.014)"
       gradientUnits="userSpaceOnUse"><stop
         stop-color="#fff"
         offset="0"
         id="stop24" /><stop
         stop-color="#ddd"
         offset="1"
         id="stop26"
         style="stop-color:#fbfafc;stop-opacity:1" /></linearGradient><linearGradient
       id="gradient7-6-6"
       x1="-819.20001"
       x2="819.20001"
       gradientTransform="matrix(3.4623535e-4,0.00548771,0.00559117,6.4246743e-4,22.94339,5.9822669)"
       gradientUnits="userSpaceOnUse"><stop
         stop-color="#09f"
         offset="0"
         id="stop29" /><stop
         stop-color="#9cf"
         offset="1"
         id="stop31" /></linearGradient><linearGradient
       id="gradient8-7-2"
       x1="-819.20001"
       x2="819.20001"
       gradientTransform="matrix(-0.00346245,0.00317275,0.00306848,0.00315022,-11.181548,22.165968)"
       gradientUnits="userSpaceOnUse"><stop
         stop-color="#ccc"
         offset="0"
         id="stop34" /><stop
         stop-color="#ccf"
         offset="1"
         id="stop36" /></linearGradient><linearGradient
       id="gradient9-5-8"
       x1="-819.20001"
       x2="819.20001"
       gradientTransform="matrix(-0.00380155,0.00348348,0.00389616,0.00399995,-16.575972,16.107508)"
       gradientUnits="userSpaceOnUse"><stop
         stop-color="#ccc"
         offset="0"
         id="stop39" /><stop
         stop-color="#ccf"
         offset="1"
         id="stop41" /></linearGradient><linearGradient
       id="gradient10-3-2"
       x1="-819.20001"
       x2="819.20001"
       gradientTransform="matrix(-0.00299842,0.00274755,0.00543036,0.00557502,-8.9822567,13.03167)"
       gradientUnits="userSpaceOnUse"><stop
         stop-color="#999"
         offset="0"
         id="stop44" /><stop
         stop-color="#ccc"
         offset="1"
         id="stop46" /></linearGradient><radialGradient
       id="gradient11-5-3"
       cx="0"
       cy="0"
       r="819.20001"
       gradientTransform="matrix(0.00322467,0.00360908,-0.00285097,0.00284799,21.530356,4.5136653)"
       gradientUnits="userSpaceOnUse"><stop
         stop-color="#fff"
         offset="0"
         id="stop49" /><stop
         stop-color="#fff"
         offset=".49412"
         id="stop51" /><stop
         stop-color="#cff"
         offset=".76471"
         id="stop53" /><stop
         stop-color="#cff"
         offset="1"
         id="stop55" /></radialGradient><radialGradient
       id="gradient12-2"
       cx="-283.77985"
       cy="588.15289"
       r="819.20001"
       gradientTransform="matrix(0.00372973,0.00372973,-0.00289914,0.00324135,23.54019,3.5966176)"
       gradientUnits="userSpaceOnUse"
       fx="-283.77985"
       fy="588.15289"><stop
         stop-color="#fff"
         offset="0"
         id="stop58" /><stop
         stop-color="#fff"
         offset="0.11993618"
         id="stop16"
         style="stop-color:#ffffff;stop-opacity:1;" /><stop
         stop-color="#ff9980"
         offset=".48627"
         id="stop60" /><stop
         stop-color="#f30"
         offset="1"
         id="stop62" /></radialGradient><linearGradient
       id="linearGradient17865-3"
       x1="-3.9323001"
       x2="-3.9323001"
       y1="12.5"
       y2="4.5"
       gradientUnits="userSpaceOnUse"
       gradientTransform="translate(18.000009)"><stop
         stop-color="#fc6"
         offset="0"
         id="stop1-6" /><stop
         stop-color="#ffd46e"
         offset=".5"
         id="stop2-7" /><stop
         stop-color="#ff9"
         offset="1"
         id="stop3" /></linearGradient><linearGradient
       id="linearGradient38453"
       x1="-2.4017999"
       x2="-4.4418001"
       y1="7.0517998"
       y2="4.0086999"
       gradientUnits="userSpaceOnUse"
       gradientTransform="translate(18.000009)"><stop
         stop-color="#b07d17"
         offset="0"
         id="stop4" /><stop
         stop-color="#c93"
         offset="1"
         id="stop5" /></linearGradient><linearGradient
       id="linearGradient70029-5"
       x1="-1.4323"
       x2="-1.4323"
       y1="15.5"
       y2="11.5"
       gradientTransform="translate(22.000009,-3)"
       gradientUnits="userSpaceOnUse"><stop
         stop-color="#ffd46e"
         offset="0"
         id="stop8" /><stop
         stop-color="#ff9"
         offset="1"
         id="stop9" /></linearGradient><linearGradient
       id="linearGradient99494-3"
       x1="7.0676999"
       x2="7.0676999"
       y1="12.5"
       y2="8.5"
       gradientUnits="userSpaceOnUse"><stop
         stop-color="#d3a03a"
         offset="0"
         id="stop10" /><stop
         stop-color="#f8c55f"
         offset="1"
         id="stop11-5" /></linearGradient><linearGradient
       id="linearGradient52101"
       x1="0.067708999"
       x2="-3.9677999"
       y1="15"
       y2="11.01"
       gradientTransform="translate(22.000009,-3)"
       gradientUnits="userSpaceOnUse"><stop
         stop-color="#9a6701"
         offset="0"
         id="stop6" /><stop
         stop-color="#c5922c"
         offset="1"
         id="stop7" /></linearGradient><linearGradient
       x2="819.20001"
       x1="-819.20001"
       spreadMethod="pad"
       id="gradient0-1"
       gradientUnits="userSpaceOnUse"
       gradientTransform="matrix(-0.06721779,-0.06721779,-0.06721779,0.06721779,-139.50058,17.615253)"><stop
         id="stop4093"
         stop-color="#003399"
         offset="0.0" /><stop
         id="stop4095"
         stop-color="#0099ff"
         offset="0.47058823529411764" /><stop
         id="stop4097"
         stop-color="#ccffff"
         offset="1.0" /></linearGradient><radialGradient
       spreadMethod="pad"
       r="819.20001"
       id="gradient1-6"
       gradientUnits="userSpaceOnUse"
       gradientTransform="matrix(0.14927588,0,0,0.14927588,-148.88488,-20.358437)"
       cy="0"
       cx="0"
       fx="0"
       fy="0"
       fr="0"><stop
         id="stop4100"
         stop-color="#ffffff"
         offset="0.0" /><stop
         id="stop4102"
         stop-color="#ccffff"
         offset="0.0784313725490196" /><stop
         id="stop4104"
         stop-color="#0099ff"
         offset="0.2980392156862745" /><stop
         id="stop4106"
         stop-color="#0066cc"
         offset="0.5372549019607843" /><stop
         id="stop4108"
         stop-color="#003399"
         offset="0.7529411764705882" /><stop
         id="stop4110"
         stop-color="#9999ff"
         offset="1.0"
         style="stop-color:#003399;stop-opacity:1" /></radialGradient><radialGradient
       xlink:href="#linearGradient112945"
       id="radialGradient112947"
       cx="17.520464"
       cy="11.413896"
       fx="17.520464"
       fy="11.413896"
       r="18.71875"
       gradientTransform="matrix(2.902442,4.2729138,-4.0226818,2.732468,-164.46482,-137.93413)"
       gradientUnits="userSpaceOnUse" /><linearGradient
       id="linearGradient112945"><stop
         style="stop-color:#c1fabb;stop-opacity:1"
         offset="0"
         id="stop112941" /><stop
         style="stop-color:#6ccf3b;stop-opacity:1"
         offset="0.28949517"
         id="stop133158" /><stop
         style="stop-color:#009100;stop-opacity:1"
         offset="0.61972094"
         id="stop173606" /><stop
         style="stop-color:#0f661e;stop-opacity:1"
         offset="1"
         id="stop112943" /></linearGradient><radialGradient
       spreadMethod="pad"
       r="819.20001"
       id="gradient1-6-7"
       gradientUnits="userSpaceOnUse"
       gradientTransform="matrix(0.14927588,0,0,0.14927588,-148.88488,-20.358437)"
       cy="0"
       cx="0"
       fx="0"
       fy="0"
       fr="0"><stop
         id="stop4100-5"
         stop-color="#ffffff"
         offset="0.0"
         style="stop-color:#ffffff;stop-opacity:0" /><stop
         id="stop4108-8"
         stop-color="#003399"
         offset="0.7529411764705882"
         style="stop-color:#9999ff;stop-opacity:0.05691801" /><stop
         id="stop4110-9"
         stop-color="#9999ff"
         offset="1.0" /></radialGradient><filter
       inkscape:collect="always"
       style="color-interpolation-filters:sRGB"
       id="filter45"
       x="-0.11673599"
       y="-0.12970667"
       width="1.233472"
       height="1.2594133"><feGaussianBlur
         inkscape:collect="always"
         stdDeviation="0.72960004"
         id="feGaussianBlur45" /></filter></defs><sodipodi:namedview
     showguides="true"
     id="base"
     pagecolor="#ffffff"
     bordercolor="#666666"
     borderopacity="1.0"
     inkscape:pageopacity="0.0"
     inkscape:pageshadow="2"
     inkscape:zoom="32"
     inkscape:cx="-5"
     inkscape:cy="2.171875"
     inkscape:document-units="px"
     inkscape:current-layer="layer1"
     inkscape:document-rotation="0"
     showgrid="true"
     units="px"
     inkscape:window-width="3460"
     inkscape:window-height="1836"
     inkscape:window-x="4032"
     inkscape:window-y="61"
     inkscape:window-maximized="0"
     inkscape:snap-bbox="true"
     inkscape:bbox-nodes="true"
     fit-margin-top="0"
     fit-margin-left="0"
     fit-margin-right="0"
     fit-margin-bottom="0"
     inkscape:bbox-paths="false"
     inkscape:snap-global="true"
     inkscape:pagecheckerboard="0"
     scale-x="0.26458"
     inkscape:showpageshadow="2"
     inkscape:deskcolor="#d1d1d1"><inkscape:grid
       type="xygrid"
       id="grid1504"
       originx="0"
       originy="0"
       spacingy="1"
       spacingx="1"
       units="px"
       visible="true" /><inkscape:grid
       type="xygrid"
       id="grid1507"
       spacingx="0.5"
       spacingy="0.5"
       originx="0"
       originy="0"
       units="px"
       visible="true" /></sodipodi:namedview><metadata
     id="metadata5"><rdf:RDF><cc:Work
         rdf:about=""><dc:format>image/svg+xml</dc:format><dc:type
           rdf:resource="http://purl.org/dc/dcmitype/StillImage" /></cc:Work></rdf:RDF></metadata><g
     inkscape:label="Layer 1"
     inkscape:groupmode="layer"
     id="layer1"
     transform="translate(-12.567709)"><path
       id="path11"
       style="fill:#000000;fill-opacity:1;filter:url(#filter45);opacity:0.83"
       d="m 23.067711,1.5 c -1.385766,0 -2.569589,0.4871557 -3.552734,1.4609375 -0.03763,0.037633 -0.0732,0.076986 -0.109375,0.1152344 C 19.315034,3.0330485 19.20991,3 19.067711,3 h -3 c -0.229166,0 -0.364332,0.081476 -0.492187,0.1601562 -0.127856,0.07868 -0.244068,0.1733289 -0.363282,0.2792969 -0.238429,0.211936 -0.482464,0.4715893 -0.708984,0.7304688 C 14.050219,4.6876808 13.66732,5.1992187 13.66732,5.1992188 A 0.50005,0.50005 0 0 0 13.567711,5.5 v 8 c 0,0.82235 0.677651,1.5 1.5,1.5 h 11 1 c 0.82235,0 1.5,-0.67765 1.5,-1.5 v -6 a 0.50005,0.50005 0 0 0 -0.5,-0.5 h -0.02344 c 0.01475,-0.1634393 0.02344,-0.3306042 0.02344,-0.5 0,-1.3857664 -0.487155,-2.5652806 -1.460937,-3.5390625 C 25.623629,1.9871557 24.444115,1.5 23.067711,1.5 Z" /><g
       id="g11"><path
         d="m 15.067709,2.5 h 3 c 0.5,0 1.9378,2 1.9378,2 h 5.0622 v 9 h -11 c -0.554,0 -1,-0.446 -1,-1 v -8 c 0,0 1.5,-2 2,-2 z"
         fill="url(#linearGradient17865)"
         fill-rule="evenodd"
         stop-color="#000000"
         id="path13"
         style="fill:url(#linearGradient17865-3)" /><path
         d="m 13.148609,5.8971 2.0474,-2.3804 2.6693,-0.04805 1.7025,2.0314 h 5.5"
         fill="none"
         stroke="#ffffff"
         stroke-width="1px"
         id="path14" /><path
         d="m 15.067709,2.5 h 3 c 0.5,0 1.9378,2 1.9378,2 h 5.0622 v 9 h -11 c -0.554,0 -1,-0.446 -1,-1 v -8 c 0,0 1.5,-2 2,-2 z"
         fill="none"
         stop-color="#000000"
         stroke="url(#linearGradient38453)"
         stroke-linecap="round"
         stroke-linejoin="round"
         id="path15"
         style="stroke:url(#linearGradient38453)" /><rect
         x="15.067709"
         y="6.5"
         width="12"
         height="7"
         rx="1"
         ry="1"
         fill="url(#linearGradient70029)"
         fill-rule="evenodd"
         stop-color="#000000"
         id="rect15-2"
         style="fill:url(#linearGradient70029-5)" /><rect
         x="24.567709"
         y="7"
         width="1"
         height="1"
         fill="#ffe680"
         fill-rule="evenodd"
         stop-color="#000000"
         id="rect20" /><path
         style="fill:none;stroke:#ffffff;stroke-width:1px;stroke-linecap:butt;stroke-linejoin:miter;stroke-opacity:1"
         d="m 19.567709,5.5 h 5.5"
         id="path50009"
         sodipodi:nodetypes="cc" /><rect
         style="fill:#ffe680;fill-opacity:1;fill-rule:evenodd;stroke:none;stroke-width:1;stroke-linecap:round;stroke-linejoin:round;stroke-miterlimit:4;stroke-dasharray:none;stroke-opacity:1;stop-color:#000000"
         id="rect109807"
         width="1"
         height="1"
         x="24.567709"
         y="7" /><path
         style="fill:none;stroke:#ffffff;stroke-width:1px;stroke-linecap:butt;stroke-linejoin:miter;stroke-opacity:1"
         d="m 15.067709,7.5 h 12"
         id="path84301"
         sodipodi:nodetypes="cc" /><g
         stroke-width="1px"
         id="g19"
         transform="translate(18.000009)"
         style="fill:none"><path
           d="m -1.9323,7.5 v 6"
           stroke="#ffff99"
           id="path16" /><path
           d="m 8.0677,7.5 v 6"
           stroke="#ffff99"
           id="path17" /><path
           d="m -2.9323,7.5 h 12"
           stroke="#ffffff"
           id="path18" /><path
           d="m 7.0677,6.5 v 7"
           stroke="url(#linearGradient99494)"
           id="path19"
           style="stroke:url(#linearGradient99494-3)" /></g><path
         id="rect16"
         style="opacity:0.5;mix-blend-mode:normal;fill:#bf9d40;fill-opacity:1;fill-rule:evenodd;stroke:none;stroke-width:1;stroke-linecap:round;stroke-dasharray:none;stroke-opacity:1"
         d="m 17.073568,6.5 c -0.01241,0.1511685 -0.01953,0.3045137 -0.01953,0.4609375 0,1.3764014 0.487157,2.5559185 1.460938,3.5390625 0.983144,0.973781 2.166969,1.460937 3.552734,1.460938 1.376403,0 2.555918,-0.487157 3.539063,-1.460938 0.40485,-0.408743 0.72435,-0.85146 0.960937,-1.328125 V 6.5 Z" /><g
         id="g1529"
         transform="matrix(0.06435562,0,0,0.06435562,31.045355,4.3663597)"><path
           d="m -217.41211,17.615253 q 0,32.08121 22.69691,54.996374 22.91517,22.696914 55.21462,22.696914 32.08124,0 54.996379,-22.696914 22.696933,-22.915164 22.696933,-54.996374 0,-32.29946 -22.696933,-54.996379 -22.915139,-22.696917 -54.996379,-22.696917 -32.29945,0 -55.21462,22.696917 -22.69691,22.696919 -22.69691,54.996379"
           id="path3998"
           style="fill:url(#gradient0-1);fill-rule:evenodd;stroke:none;stroke-width:0.978261" /><path
           d="m -213.04731,17.615253 q 0,30.335298 21.38747,51.94102 21.60572,21.605723 52.15926,21.605723 30.33531,0 52.159275,-21.605723 21.387473,-21.605722 21.387473,-51.94102 0,-30.553544 -21.387473,-52.159264 -21.823965,-21.605719 -52.159275,-21.605719 -30.55354,0 -52.15926,21.605719 -21.38747,21.60572 -21.38747,52.159264"
           id="path4000"
           style="fill:url(#gradient1-6);fill-rule:evenodd;stroke:none;stroke-width:0.978261" /><path
           d="m -147.79343,-55.273706 v 0.433557 h -0.43356 v 0.433556 h -1.74867 v 0.440782 h -1.74868 v 0.650335 h -0.43356 v 1.748677 h 0.87434 v 0.433556 h 3.92369 v 0.440782 h -2.18223 v 0.874339 h -0.43356 v -0.440782 h -1.74868 v 0.874338 h 0.44078 v 1.307895 h -0.44078 v 0.874339 h -0.86711 v 0.433556 h -0.44078 v 0.440782 h -0.43356 v 0.433556 h -0.44078 v 1.091117 h -0.65034 v 0.440783 h -0.44078 v 0.867112 h 0.44078 v 0.440782 h 1.09112 v 0.433557 h 1.74145 v 0.440782 h 1.74868 v -0.440782 h 0.87434 v -1.307895 h 0.43355 v -0.433556 h 0.87434 v -0.440783 h 0.43356 v -0.433556 h 0.44078 v -0.657561 h 0.43356 v -0.874338 h 0.65756 v -0.433556 h 1.74145 v -0.433557 h 0.44078 v 0.867113 h -0.44078 v 0.874338 h 1.31512 v 1.091117 h 0.43355 v 0.440783 h -0.43355 v 0.433556 h -1.74868 v 0.433556 h -0.43355 v 0.440782 h -2.40624 v 0.433557 h -0.43356 v 0.440782 h -0.43356 v 0.433556 h 0.43356 v 0.440782 h 0.87434 v 0.433557 h 1.09112 v 0.433556 h 0.43355 v 0.440782 h -1.96545 v 1.307895 h 0.44078 v 0.874339 h 2.83257 v 1.091116 h 0.87434 v -0.65756 h 1.30789 v -0.433556 h 3.49736 v 0.433556 h 0.65033 v 0.65756 h 0.44078 v 1.307895 h 0.43356 v 0.433557 h 0.43355 v 3.497352 h -0.43355 v 0.433558 h -0.43356 v 0.433558 h 1.74145 v 0.44078 h -0.43355 v 0.433558 h 0.43355 v 0.44078 h 1.31512 v 0.650338 h 0.43356 v 0.440779 h -0.43356 v 0.433559 h -0.87433 v 0.874338 h -0.44079 v 0.433554 h -0.43355 v 0.440784 h 0.43355 v 1.741451 h 0.44079 v 0.874338 h 0.43355 v 0.874338 h 0.44078 v 0.874338 h 0.43356 v 0.433558 h 0.43356 v 1.091117 h 0.44078 v 0.44078 h 0.43356 v 0.433558 h 2.18223 v 0.433555 h 1.96546 v -1.307893 h 0.43355 v -1.524675 h 1.09112 v -1.307893 h 0.44078 v -0.874338 h 1.3079 v -0.440783 h 1.30789 v -0.433555 h 0.44078 v -0.440784 h 0.43356 v -0.433558 h 0.43356 v -0.874338 h 1.74867 v -0.433554 h 0.43356 v -0.440784 h 0.44078 v 0.440784 h 0.87434 v -0.440784 h 1.52467 v -0.433554 h 0.43356 v -0.433559 h 1.31512 v -0.440779 h 0.43355 v -1.091118 h 0.44079 v -1.741454 h -0.44079 v -0.44078 h -0.43355 v -1.741451 h 1.30789 v -0.440783 h 0.43356 v -0.433556 h 0.44078 v -0.440782 h 0.43356 v -0.433557 h 0.44078 v -1.307895 h -0.44078 v -0.65756 h -0.43356 v -0.433556 h 2.18223 v -0.874339 h -0.44078 v -0.433556 h -0.43355 v -0.874339 h -0.43356 v -0.874338 h -1.31512 v -0.433557 h -1.3079 v 1.741452 h -0.43355 v 0.874338 h -0.44078 v -1.748677 h -0.43356 v -0.433556 h 0.43356 v -1.307895 h 0.87433 v 0.433556 h 0.87434 v -1.307895 h 1.74868 v -0.874338 h -0.44078 v -0.433556 h -1.74145 v 0.867112 h -0.87434 v 0.440782 h -0.44078 v -1.307894 h 0.44078 v -0.440783 h 3.49013 v -0.433556 h 0.43355 v -0.657561 h -2.18223 v -0.433556 h 0.44078 v -0.874338 h 0.43356 v -0.433557 h 0.87434 v -0.440782 h 0.43355 v -1.307895 h 0.44078 v -0.874338 h -0.87433 v -0.433557 h -2.18224 v 1.307895 h -0.43355 v 0.433557 h -0.44079 v 0.440782 h -0.87433 v -0.440782 h 0.44078 v -0.433557 h 0.43355 v -0.433556 h 0.44079 v -1.315121 h -2.62302 v -0.433556 h 0.43356 v -0.874339 h -0.43356 v -0.433556 h -1.96545 v -0.440782 h -1.74145 v -0.650335 h -1.74868 v -0.440782 h -5.02203 v 0.440782 h -0.86711 v 0.650335 h -1.5319 v 0.440782 h -0.43356 v 0.433556 h -1.30789 v 0.440782 h -0.44078 v 0.433557 h -2.18224 v 0.433556 h -2.18223 v 0.440782 h -2.39901 v 0.433557 h -1.3079 v -0.433557 h 0.86711 v -0.440782 h 0.87435 v -0.433556 h -0.43356 v -0.433557 h -0.44079 v -1.965455 h -0.43355 v -0.440782 h -0.43356 v -0.433556 h -0.44078 v -0.433557 h -3.05657 v 0.433557 h -1.3079 v -0.433557 z m -10.26083,1.95823 v 0.874338 h -0.43356 v 1.307895 h -0.43355 v -0.433556 h -0.87434 v -0.874339 h -1.74868 v 0.440782 h -1.52467 v 0.433557 h 1.09112 v 0.433556 h 0.43355 v 0.440782 h 0.87434 v 0.433557 h 1.3079 v -0.433557 h 0.44078 v 0.874339 h 0.43355 v 0.433556 h -0.43355 v 0.433557 h 0.86711 v 0.874338 h -0.43356 v 0.440782 h 0.43356 v 1.307895 h 3.05657 v -0.874338 h 0.44078 v -0.433557 h 0.65034 v -0.874338 h 0.44078 v -1.307895 h -1.09112 v -1.748677 h -0.44078 v -0.433557 h -0.43355 v -0.440782 h -1.3079 v -0.874338 z m -6.3227,1.748677 v 0.433556 h 0.43356 v -0.433556 z m -3.05657,1.307895 v 0.440782 h -1.3079 v 0.433556 h -0.87433 v 0.874339 h 1.74145 v 1.741451 h 1.31512 v 0.440782 h 0.43356 v -0.440782 h 0.43355 v 0.440782 h 0.44079 v 3.706907 h -0.87434 v 0.874338 h -0.43356 v 0.440782 h -0.44078 v 0.867113 h 0.44078 v 3.056572 h 1.3079 v -1.307895 h 0.43355 v -0.433556 h 0.87434 v -0.440782 h 0.43356 v -0.433557 h 0.44078 v -1.307895 h 0.43355 v -0.440782 h 3.27336 v -0.433556 h 0.87433 v 0.433556 h 1.3079 v 1.748677 h 4.58847 v -1.307895 h -0.44078 v -0.874338 h -2.8398 v -3.056572 h -0.86711 v -0.657561 h -1.74868 v -0.433556 h -1.74867 v 0.433556 h -1.74145 v -0.433556 h -0.65757 v -0.440782 h -0.87433 v -0.867113 h -0.43356 v -0.874338 h -1.74868 v -0.440782 h -0.43355 v -0.433557 h -0.87434 v -0.874338 z m -4.14769,1.748677 v 0.433556 h -0.87434 v 0.440782 h -0.87434 v 0.433557 h -0.87433 v 0.433556 h 0.44078 v 0.440782 h 0.87434 v 0.433556 h 0.43355 v 1.091117 h 0.44079 v 0.440783 h 1.52467 v 0.433556 h 2.61579 v -0.433556 h 0.87434 v -1.965456 h -3.05657 v 1.091117 h -0.43356 v -2.399012 h 0.43356 v -0.874338 z m -5.67236,3.27335 v 0.433556 h -0.87434 v 0.440783 h -0.44078 v 0.433556 h -1.09112 v 0.433556 h -0.43355 v 0.440782 h -0.87434 v 0.433557 h 0.87434 v 0.874338 h 2.39901 v -0.433556 h 1.74868 v -0.440782 h 0.87433 v -0.874339 h 0.43356 v -0.867112 h -0.43356 v -0.440783 h -1.31512 v -0.433556 z m 4.36447,2.182233 v 0.433557 h -0.44079 v 1.748677 h -1.30789 v 1.307895 h 0.43356 v 0.440782 h 0.44078 v 0.433556 h 0.43355 v 0.874339 h 0.87434 v 0.433556 h 2.39902 v -0.433556 h 0.44078 v 1.091116 h -0.44078 v 0.433557 h -0.43356 v 0.874338 h -1.09112 v 0.874339 h -0.87434 v -1.307895 h -1.30789 v -0.440782 h -1.3079 v -1.091117 h -0.44078 v -2.61579 h -0.43355 v -0.440782 h -1.3079 v 0.440782 h -0.44078 v -0.440782 h -1.96546 v -0.433556 h -1.30789 v 0.874338 h -0.43356 v -1.307895 h -0.87434 v -0.440782 h -0.43355 v 0.440782 h -0.44079 v 0.867113 h -0.43355 v -0.433556 h -0.44078 v 0.433556 h -0.43356 v 0.440782 h -0.43356 v 0.433557 h -0.44078 v 0.440782 h -0.87434 v 0.433556 h -0.43355 v 0.433557 h 0.87434 v -0.433557 h 0.43355 v 0.874339 h 0.44078 v 1.524673 h 0.86712 v 0.440782 h 1.74867 v -0.440782 h 0.87434 v 0.440782 h 0.87434 v 0.433556 h -3.49735 v 1.307895 h 0.44078 v 0.440783 h 1.30789 v 0.433556 h 0.43356 v 0.433556 h 2.18223 v -0.433556 h 2.40624 v -0.433556 h 1.3079 v 0.433556 h 2.18223 v -0.433556 h 0.43355 v -0.874339 h 0.44079 v 1.307895 h 0.87434 v 0.433556 h 0.86711 v -0.433556 h 1.09112 v 0.433556 h 0.44078 v 0.874339 h 0.43355 v 0.44078 h 0.44078 v 0.867116 h -0.44078 v 0.44078 h -1.30789 v -0.44078 h 0.43356 v -0.867116 h -2.83257 v 1.307896 h -1.74868 v 0.433558 h -0.43356 v -0.433558 h -0.44078 v -0.44078 h -0.43355 v -0.433558 h -1.3079 v -0.874338 h -0.44078 v -0.433557 h -0.43356 v 0.433557 h -1.96545 v 0.44078 h -0.43356 v 1.307896 h 0.43356 v 0.433558 h -0.43356 v 0.44078 h -0.44078 v -0.874338 h -0.43356 v -0.44078 h -0.87434 v 0.44078 h -2.18223 v -0.44078 h 0.43356 v -1.307896 h -0.43356 v -0.433557 h -0.43356 v -0.440782 h -0.87433 v 0.874339 h -0.44079 v -0.433557 h -0.43355 v -0.440782 h -0.65756 v -0.433556 h -0.86712 v -0.433556 h -0.87433 v -0.440783 l -3.04935,-0.0072 c -0.6911,0.643684 -3.2026,3.213602 -6.75625,7.861821 -2.43507,3.185088 -4.64239,6.676703 -5.60733,8.714483 l 0.57085,0.02183 v 0.867113 h 0.43355 v 0.440783 h 0.44079 v 0.433555 h 1.96545 v 0.440783 h 1.3079 v 0.433555 h 0.43355 v 0.433558 h 0.44078 v 0.874186 h 0.86712 v 1.531898 h 0.44078 v 0.433558 h 0.87434 v 0.433558 h -0.44078 v 1.3151179 h 0.44078 v 1.5246754 h 0.43355 v 0.4335544 h 0.43356 v 0.4407836 h 0.44078 v 0.8743381 h 0.65034 v 0.4335545 h 0.87434 v 0.4335582 h 0.44078 v 0.4407836 h 0.87434 v 0.4335544 h 0.43355 v 0.4407837 h 0.43356 v 3.2733478 h -0.43356 v 2.1822343 h -0.43355 v 4.364465 h 0.43355 v 0.8743418 h 0.43356 v 1.0911135 h 0.44078 v 0.4335582 h 0.43356 v 0.8743381 h 0.87434 v 0.874338 h 0.43355 v 0.4335582 h 0.44079 v 0.4335543 h 1.30789 v 0.440784 h 0.43356 v 1.307896 h 0.65756 v 0.433555 h 0.43355 v 0.874338 h 0.44079 v 0.440783 h 0.43355 v 1.091117 h 0.44078 v 0.874339 h 0.86712 v 0.433554 h 0.44078 v 0.433558 h 0.43355 v 0.874338 h 0.44079 v 0.440784 h 0.43355 v 0.867109 h 0.87434 v 0.440783 h 1.3079 v -0.874338 h -0.43356 V 18.05512 h -0.44078 v -0.874342 h -0.43356 v -0.44078 h -0.44078 v -0.867112 h 0.87434 v 0.867112 h 0.44078 v 0.44078 h 0.86711 v 0.874342 h 1.09112 v 0.433554 h 0.44078 v 0.433555 h 0.43356 v 1.74868 h 0.44078 v 1.307892 h 0.86711 v 0.440784 h 1.74868 v 0.650333 h 0.87434 v 0.440784 h 2.18223 v 0.867113 h 5.02203 v 0.44078 h 0.43356 v 0.433558 h 0.43355 v 0.440783 h 0.44079 v 0.433555 h 1.30789 v 0.433558 h 0.87434 v 0.44078 h 0.43355 v 0.874338 h 0.65757 v 1.307896 h 0.87433 v 0.433558 h 3.04935 v 0.44078 h 1.74868 v 0.433559 h 0.43355 v 1.965455 h -0.43355 v 0.874338 h -0.43356 v 0.867112 h -0.44078 v 1.315122 h -0.43356 v 0.874338 h -0.87434 v 0.433555 h -0.43355 v 1.748676 h -0.44078 v 1.091117 h 0.44078 v 1.307896 h 0.43355 v 0.433555 h 0.43356 v 0.440783 h 0.44078 v 0.867113 h 0.43356 v 0.874338 h 0.44078 v 2.182235 h 0.43356 v 0.440779 h 0.43355 v 0.433559 h 0.44079 v 0.433558 h 0.43355 v 0.657559 h 1.09112 v 0.433554 h 0.87434 v 0.440784 h 0.44078 v 0.433558 h 0.43355 v 0.44078 h 0.43356 v 7.197037 h -0.43356 v 1.315118 h -0.43355 v 3.049347 h -0.44078 v 2.406238 h -0.43356 v 1.307893 h -0.44078 v 3.273352 h 0.44078 v 0.433558 h -0.44078 v 0.874338 h -0.65034 v 0.874338 h 0.65034 v 3.490127 h -0.65034 v 0.440783 h -0.44078 v 1.95823 h -0.43355 v 5.238803 h 0.43355 v 0.440784 h 0.44078 v 0.433554 h 0.65034 v 0.433559 h 0.87434 v -0.433559 h 0.87433 v 0.433559 h 0.43356 V 83.7389 h -0.86711 v 1.315118 h 0.86711 v 0.867116 h 1.74868 v 0.44078 h 0.87434 v -0.44078 h 0.87433 v 0.44078 h 0.86712 v -0.874338 h 0.44078 V 84.17968 h -0.44078 V 83.7389 h -0.43356 v -0.433558 h -1.30789 v -0.657559 h -0.44078 v -0.433559 h -0.43356 v -1.748676 h -0.43356 v -0.867112 h 0.43356 v -0.440784 h 0.43356 v -0.874338 h 0.44078 v -0.433555 h 0.43355 v -0.433558 h 0.44078 v -2.18223 h -0.87433 V 73.70207 h 0.87433 v -0.433555 h 0.43356 v -1.315121 h 0.43356 v -0.867113 h 0.44078 v -1.315122 h -0.44078 v -0.433554 h 1.5319 v -0.874338 h 0.43355 V 67.15537 h 1.3079 v 0.433555 h 0.87434 V 67.15537 h 0.87433 v -0.433558 h 0.43356 v -2.839793 h -0.43356 v -0.433555 h 2.61579 v -0.657562 h 0.44079 v -0.874338 h 0.43356 v -0.874338 h 0.44078 v -0.867113 h 0.65033 v -1.315122 h 0.44078 v -0.433554 h 0.43356 v -0.874338 h 0.43355 v -0.874338 h 0.44079 v -1.524676 h 0.43355 v -0.433554 h 0.44079 v -0.440784 h 0.87433 v -0.874338 h 1.74146 v -0.433554 h 0.87433 v -0.440784 h 0.43356 v -0.433558 h 0.44078 v -0.433555 h 0.43356 v -0.440783 h 0.44078 v -0.874338 h 0.65034 v -2.182235 h 0.44078 v -1.95823 h 0.43356 v -0.874338 h 0.43355 v -0.874338 h 0.44078 v -0.433554 h 0.65034 v -0.874338 h 0.44078 V 42.71002 h 0.43355 v -3.706906 h -0.87433 v -0.433558 h -1.09112 v -0.44078 h -0.43355 v -0.433558 h -1.52468 v -0.44078 h -1.74868 V 36.82088 h -1.30789 v -1.307893 h -3.93091 v -2.182234 h -0.43356 v -0.440784 h -0.44078 v -0.433554 h -0.65033 v -0.440784 h -0.87434 v -0.433554 h -0.44079 v -0.657563 h -1.74145 V 30.49096 h -0.87434 v -0.433559 h -0.43355 v -0.44078 h -0.44078 v -0.433558 h -0.43356 V 28.74228 h -0.44078 v -0.433555 h -0.43356 v -0.433558 h -0.87434 v -0.44078 h -2.83257 v 0.44078 h -0.44078 v -0.44078 h -0.43355 v -0.433558 h -0.87434 v -0.874338 h -2.18224 v 0.433558 h -0.87433 v 0.44078 h -1.52468 v 0.433558 h -0.44078 v 0.874338 h -0.43355 v 0.433555 h -0.44079 v -0.433555 h -1.74145 v 0.433555 h -0.87434 v -0.433555 h -0.87433 v -0.433558 h -0.43356 v -0.874338 h -0.44078 v -0.44078 h 0.44078 v -3.049347 h -2.8398 v -2.839793 h 0.65757 v -1.307897 h -2.39902 v 0.433559 h -1.31512 v 0.874338 h -0.43355 v 0.433554 h -0.87434 v 0.440784 h -1.3079 v -0.440784 h -1.30789 v -0.433554 h -0.44078 v -1.307897 h -0.43356 v -0.874338 h -0.65756 v -1.307896 h -0.43356 v -1.748676 h 0.43356 v -0.433555 h 0.65756 v -0.657562 h 0.87434 V 13.90743 h 3.92368 v -0.440783 h 4.14769 v 0.440783 h 0.44078 v 1.524672 h 0.43356 v 0.874338 h 0.43356 v 0.433558 h 0.44078 v 0.44078 h 0.43356 v 0.433558 h 1.30789 v -0.433558 h 0.44078 v -1.307892 h -0.44078 v -0.874339 h -0.43356 V 13.90743 h -0.43355 v -1.748676 h 0.43355 v -0.874342 h 0.87434 v -0.433554 h 0.43356 v -0.440784 h 0.44078 V 9.5429615 h 0.86711 V 9.1021816 h 0.44079 V 8.6686235 h 0.43355 V 7.7942854 h -0.43355 V 7.3607272 h 0.87433 V 6.2696137 h 1.09112 v -2.623018 h 3.05657 V 3.2130413 h 0.43356 V 2.7722577 h -0.43356 V 2.3387032 H -150.85 V 1.905145 h 0.44078 V 1.4643614 h 0.43356 V 1.0308069 h 0.87434 v 0.4335545 h 1.74145 V 1.0308069 h 0.87434 V 0.59002331 h 1.09111 v -0.86711262 h -0.43355 v -0.44077993 h -0.65756 V -1.1514274 h -0.87434 v -0.657559 h -0.43356 v -1.3078963 h 0.43356 v -1.7486762 h -1.3079 v 0.4407837 h -0.43355 v -0.4407837 h 0.43355 v -0.4335544 h 3.27335 v -0.4407836 h 1.3079 v 0.4407836 h 0.87434 v -0.4407836 h 0.44078 v -0.4335582 h 0.43355 v -0.4335545 h 0.43356 v -0.4407836 h 0.87434 v -0.4335545 h 0.44078 v -1.7486761 h -0.44078 v -1.0911172 h -0.43356 v -0.433558 h -0.44078 v -0.44078 h -1.74145 v -0.433558 h -0.44078 v -1.524672 h -0.43356 v -0.440784 h -0.43355 v -0.874338 h -0.44079 v -1.307896 h -0.43355 v -0.874338 h -0.65756 v -0.867113 h -0.43356 v -0.874338 h -0.87434 v 0.433555 h -0.43356 v 1.307896 h -0.87433 v 0.440784 h -1.3079 v -0.440784 H -150.85 v -3.049347 h -0.87434 v -0.44078 h -0.43356 v -0.433558 h -0.43355 v -0.657559 h -2.83979 v -0.433558 h -0.44079 v -0.44078 h 1.31512 v -1.741451 h -0.87433 v 0.433555 h -0.44079 v 0.440783 h -0.86711 v -0.440783 h -0.44078 v -0.433555 h -0.43356 v -0.874338 h -0.87434 v -0.440784 h -0.43355 v -0.433558 h -0.87434 v -0.874338 h -0.44078 v 0.440784 h -0.43356 v 0.433554 h -0.87434 v 0.874342 h -0.43355 v 1.307893 h 0.87433 v 0.874338 h 1.3079 v -0.433555 h 0.43356 v -0.440783 h 0.87433 v 0.440783 h 0.87434 v 2.39901 h -0.44078 v 1.741451 h 0.44078 v 1.315121 h -0.44078 v 2.615789 h 0.44078 v 1.74868 h 0.43356 v 0.650334 h -0.43356 v 0.44078 h -0.44078 v 0.433558 h -0.43356 v 0.433558 h -0.43355 v 3.2733477 h 0.43355 v 0.8743381 h -0.43355 v 0.4407836 h -0.44078 v -0.4407836 h -0.43356 v -0.8743381 h -0.44078 v -0.4335544 h -0.43356 v -1.5246754 h -0.43356 v -1.3151179 h -0.44078 v -0.433558 h -4.14769 v -0.433558 h -0.43355 v -0.44078 h -0.43356 v -1.524676 h -0.44078 v -0.874338 h -0.87434 v -0.433554 h -0.43356 v -0.874338 h -0.43356 v 0.433554 h -0.44078 v -0.433554 h -0.43355 v -0.440784 h -0.44078 v -0.867113 h 0.44078 v -1.315121 h 0.43355 v -0.433555 h 0.44078 v -0.433558 h 0.43356 v -0.44078 h 0.43356 v -1.091117 h 0.87434 v -0.433558 h 2.18223 v -2.182231 h 0.44078 v -0.874338 h 0.43356 v -0.440784 h 0.43356 v -1.307896 h -0.86712 v -0.433554 h 1.3079 v 0.433554 h 1.09112 v -0.433554 h 1.74145 v -0.874338 h 0.44078 v -0.433559 h 0.43356 v -2.406235 h -0.87434 v -0.433558 h 0.44078 v -0.433558 h 0.43356 v -1.315119 h -0.87434 v -1.307895 h -2.39902 v 1.307895 h 0.65757 v 0.440782 h -0.65757 v 0.433557 h -0.43355 v 1.307896 h -0.44078 v -0.433558 h -0.43356 v -1.748677 h -0.87434 v 0.440782 h -0.43355 v -0.440782 h -1.3079 v -2.182233 h -0.44078 v -1.741452 h -0.43356 v -1.965455 h -2.18223 v -3.93091 h -0.44078 v -0.433557 z m 13.0934,20.514439 v 0.874338 h 1.74145 v -0.874338 z m 1.74145,-16.149972 v 1.307895 h -0.43356 v 1.531899 h -0.43355 v 0.867113 h 0.43355 v 0.440782 h 0.43356 v 0.874339 h 0.44078 v 1.307894 h 0.87434 v 0.433557 h 0.86711 v 1.748676 h 0.87434 v 0.433558 h 0.44078 v -0.433558 h 0.65034 v -1.748676 h 0.87434 v 0.44078 h 1.30789 v 0.433558 h 0.44078 v 0.433558 h 0.43356 v 0.44078 h 0.44078 v 2.399014 H -150.85 v 1.307892 h -0.43356 v 0.440784 h -0.44078 v -0.440784 h -0.86711 v 0.874338 h -0.44078 v 0.874342 h 0.44078 v 0.433555 h 2.18223 v 0.440783 h 0.86712 v 0.874338 h 0.44078 v 0.433555 h 0.87433 v 0.433558 h 0.43356 v 0.44078 h 1.3079 v -0.874338 h 0.65756 v 0.433558 h 0.87434 v -1.741451 h -0.44079 v -0.874338 h -0.43355 v -0.440784 h 0.43355 v -0.433558 h 1.3079 v -0.433554 h 0.87434 v -0.874338 h -0.43356 v -1.307897 h -1.30789 v -1.091117 h -0.44079 v -0.44078 h -1.09111 v -0.433558 h -0.87434 v -0.44078 h 0.87434 v -2.182235 h -0.87434 v -0.867112 h -0.43356 v -0.440783 h -0.87434 v -0.874338 h -1.30789 v -0.867113 h -0.43356 v -0.440782 h -2.62301 v -0.433557 h -0.87434 v -0.65756 h 0.44078 v -0.433556 h -0.44078 v -0.874339 z m 73.567279,7.197033 -0.672014,0.0074 v 0.433558 h -0.433554 v 0.874338 h -0.657559 v 1.524675 h -0.433558 v 0.874339 h -0.440784 v 0.874338 h -0.433554 v 1.307892 h -0.874338 v 0.874342 h -0.433559 v 0.874338 h -0.44078 v 0.874338 h -0.433558 v 0.433555 h -0.44078 v 0.433558 h -0.433558 v 0.44078 h -0.433558 v 0.433558 h -0.44078 v 0.657559 h -0.433558 v 0.433558 h -0.874338 v 0.44078 h -0.433555 v 0.433558 h -0.440783 v 0.433555 h -1.091117 v 0.440783 h 0.657562 v 0.433555 h -0.657562 v 1.307896 h 0.657562 v 1.748676 h -0.657562 v 0.874338 h 0.657562 v 1.524676 h 0.433555 v 0.440779 h 2.182234 v -0.440779 h 0.44078 v -0.650334 h 0.433558 v -0.874342 h 0.433558 v -0.44078 h 0.44078 v -0.433558 h 0.433558 v 1.74868 h -0.433558 v 1.091113 h 0.433558 v 1.307897 h 0.44078 v 0.8743378 h 0.433559 V -9.22985 h 1.748676 v -0.6503372 h 1.091117 v -0.8743378 h 0.433554 v -1.307897 h 0.433559 v -1.091113 h 0.440783 v -0.874342 h 0.433555 v -0.44078 h 0.440783 v -1.74145 h -0.874338 v -2.623018 h 0.433555 v -0.433555 h 0.440783 v -0.433558 h 0.867113 v -0.44078 h 0.44078 v 4.364465 h 0.433558 v 0.440784 h 0.874338 v 0.433554 h 0.433555 v 0.433558 h -0.433555 v 1.965456 h 0.433555 v 0.874338 h -0.433555 v -0.433559 h -0.433558 v -0.440779 h -0.44078 v 0.440779 h -0.433558 v 0.433559 h -0.44078 v 0.433558 h -0.433558 v 1.3151178 h -0.433555 V -8.78907 h -0.874338 v 0.4335581 h -0.440783 V -8.78907 h -0.867113 v 0.4335581 h -0.657559 v 0.4335545 h -1.74868 v -0.4335545 h -2.182231 v -1.9654551 h 0.44078 v -0.874338 h -0.44078 v -1.30807 h -0.433558 v 0.44078 h -0.874338 v 0.433558 h -0.433558 v 0.433558 h -0.44078 v 1.9654552 h 0.44078 v 1.7486761 h -0.874338 v 0.4335545 h -1.965455 v 0.8743381 h -0.433555 v 0.8743418 h -0.440784 v 0.4335544 h -0.433554 v 0.4407837 h -0.440784 v -1.7486799 h -0.433558 v -0.4335545 h -0.433554 v -0.4407836 h -0.440784 v -0.8743381 h -0.433554 v -0.4335544 h -0.440784 v -3.7069093 h -1.307893 v -0.44078 h -0.43356 v -0.650334 h 0.43356 v -0.874342 h -1.74145 v 0.433558 h -0.44078 v 1.531898 h -0.65034 v 1.741454 h 0.65034 v 1.0911172 h -2.83257 v 1.3078925 h -0.44079 v -0.4335544 h -0.87433 v 0.4335544 h -0.43356 v 0.8743381 h 0.87434 v 2.623018 h 1.74145 v -0.4407837 h 1.31512 v -0.4335544 h 0.65034 v 0.4335544 h 0.87433 v 0.4407837 h -0.87433 v 0.4335544 h -0.65034 v 0.4407837 h -0.44078 v 0.8671126 h 1.96545 v -0.4335582 h 1.74868 v 0.4335582 h -1.31512 v 0.4407799 h -0.86711 v 1.52467536 h 0.86711 v 0.44077993 h 0.44078 v 0.43355816 h 0.43356 v 0.43355446 h 0.44078 V 3.2130413 h -4.14769 V 2.7722577 h -0.87434 v 0.4407836 h -0.87434 v 6.3299202 h 0.87434 v 0.8671125 h 0.43356 v 0.440784 h -0.43356 v 1.307896 h -0.43355 v 0.433555 h -0.44079 v 0.440783 h -0.43355 v 0.874338 h -0.44078 v 1.091117 h -0.43356 v 0.433555 h -0.43356 v 0.440784 h -0.44078 v 0.433554 h -0.87434 v 0.433558 h -0.43355 v 0.44078 h -0.43356 v 0.874342 h -1.5319 v 2.18223 h -0.87434 v 0.433559 h -0.43355 v 0.874338 h -0.43356 v 0.433554 h 0.43356 v 1.965455 h 0.43355 v 0.874339 h -0.43355 v 0.433558 h -0.43356 v 2.623014 h 0.43356 v 0.433558 h 0.43355 v 0.433555 h 0.44078 v 0.440783 h 0.43356 v 0.433558 h 1.09112 v 0.44078 h 0.44078 v 0.433559 h 0.43356 v 1.091117 h 0.43355 v 0.874338 h 0.87434 v 0.433554 h 0.44078 v 0.440784 h 0.43356 v 0.433554 h 0.43356 v 0.433558 h 2.62301 v -0.433558 h 3.27335 v 0.433558 h 0.43356 v -0.433558 h 1.748677 v -0.433554 h 2.182234 v 0.433554 h 0.874338 v 0.433558 h 2.832568 v 0.44078 h 0.44078 v 1.307897 h -0.44078 v 0.874338 h -0.433558 v 1.748676 h 0.433558 v 0.433558 h 0.874338 v 1.524672 h 0.44078 v 0.440783 h 0.433558 v 1.741451 h 0.433558 v 0.440784 h 0.44078 v 0.874338 h 0.433558 v 1.307892 h -0.433558 v 0.433559 h -0.44078 v 0.440779 h 0.44078 v 0.867117 h -0.874338 v 1.965455 h -0.433558 v 1.307893 h 0.433558 v 0.874338 h 0.433558 v 0.874338 h 0.44078 v 1.307896 h 0.433558 v 1.315122 h 0.44078 v 1.524671 h 0.433559 v 0.874338 h 0.433554 v 1.741451 h 0.440784 v 0.440784 h 0.433554 v 0.433554 h 0.440784 v 0.874342 h 0.433558 v 2.182231 h 1.091113 v 0.657562 h 2.182235 v -0.657562 l 1.669192,0.01443 c 4.743886,-6.395796 15.362346,-19.645802 15.362346,-45.292184 0,-25.6463811 -11.112131,-40.433197 -18.541759,-49.006315 z m -70.944259,0.0074 h 0.43355 v 0.867116 h -0.43355 z m 37.53874,1.307896 h 0.43356 v 0.433558 h -0.43356 z m -29.46737,3.273352 h 0.44078 v 0.874338 h -0.44078 z m 31.20883,0.433554 v 0.440784 h -0.43356 v 0.867112 h -0.44078 v 0.874338 h 0.87434 v 0.440784 h -0.43356 v 0.433555 h -0.44078 v 0.874338 h 1.31512 v 0.433558 h 0.87434 v 0.44078 h 0.43355 v 0.433558 h 1.3079 v 0.657559 h 2.18223 v -0.657733 h 2.8398 v -0.433558 h 0.87433 v -0.44078 h 0.86712 v -0.433558 h 0.44078 v -0.433555 h 0.43355 v -1.315121 h -0.43355 v -0.433555 h -0.44078 v -0.440784 h -0.43356 v -0.433558 h -0.43356 v -0.433554 h -1.74867 v 0.433554 h -2.39902 v -0.433554 h -1.74867 v 0.433554 h -0.43356 v 0.433558 h -0.44078 v -0.433558 h -0.43356 v -0.433554 h -0.43355 v -0.440784 z m 35.356514,3.056573 h 1.307893 v 0.874338 h -0.433555 v 0.433558 h -0.440783 v 0.44078 h -0.433555 v 0.433558 h -0.433558 v 0.657559 h -0.44078 v -1.965455 h 0.44078 v -0.433555 h 0.433558 z m 2.615789,7.637816 h 1.091117 v 0.440784 h -0.433558 v 0.433554 h -1.965455 v -0.433554 h 1.307896 z m -23.563783,7.8545956 h 0.86711 v 0.8743381 h -1.30789 v -0.4335545 h 0.44078 z m -48.23314,3.4973561 h 0.43356 v 0.4335544 h -0.43356 z m -0.87434,0.4333805 h 0.44078 v 0.4407837 H -150.85 Z m -14.84208,0.4407837 h 1.31512 v 0.4335544 h 0.43356 v 0.4335582 h 0.87434 v 0.4407799 h -1.3079 v -0.4407799 h -0.44078 v 0.4407799 h -1.74145 v -0.4407799 h 0.43356 v -0.4335582 h 0.43355 z m 69.181137,0 h 0.874338 v 0.8671126 h 0.440784 v 0.4407799 h -3.056572 v -0.4407799 h 0.874338 v -0.4335582 h 0.867112 z m -3.923687,1.7414507 h 0.87434 v 1.53189709 h -0.44078 v -0.44077993 h -0.43356 z m -61.10976,0.657559 h 1.74868 v 0.43355816 h 0.43356 v 0.44077993 h -0.43356 v -0.44077993 h -0.44078 v 1.30789255 h -0.43356 v -1.30789255 h -0.87434 z m 2.62302,0.43355816 h 0.43355 v 0.44077993 h -0.43355 z m -4.58847,0.87433809 h 0.44078 V 1.0308069 h -0.44078 v 1.3078963 h -0.86712 V 1.905145 h 0.43356 V 0.59002331 h 0.43356 z m 5.89636,0 h 0.87434 v 0.43355446 h -0.44078 V 1.4643614 h -0.43356 V 1.905145 h -0.44078 v 0.4335582 h -1.74145 V 1.905145 h 0.43356 V 1.4643614 h 1.74867 z m 1.74145,0 h 0.44079 v 0.43355446 h -0.44079 z m 68.74758,3.49012685 h 0.874342 v 0.4407837 h 0.657559 v 0.4335544 h 0.433554 V 4.954492 h 0.874342 v 0.4407799 h 0.433555 v 1.5246754 h 0.440783 v 1.7486762 h 0.433555 v 0.874338 h 0.433558 v 0.4335582 h 0.44078 v 0.4335543 h 1.307896 V 9.5429615 h 0.433555 V 9.1021816 h 0.440783 V 7.3607272 h 0.433555 V 6.9199473 h 0.440783 v 1.7486762 h 0.433558 v 0.4335581 h 0.433555 v 0.8743381 h 0.657559 v 0.4335543 h 0.874342 v 0.440784 h 1.748676 v -0.440784 h 0.433554 v 0.440784 h 2.182235 v 0.433554 h 0.433558 v 0.874342 h -0.433558 v 0.433555 h -0.433555 v 0.874338 h -0.440783 v 0.440783 h -0.433559 v 0.433555 h -5.022024 V 13.90743 h -2.182234 v -0.440783 h -3.056572 v 0.440783 h -0.433555 v 1.091117 h 0.433555 v 0.433555 h -1.307897 v -0.433555 h -1.091113 v -0.657562 h -0.433558 v -0.874338 h -0.440784 v -0.433555 h -1.307892 v -0.440783 h -1.307897 v -0.433555 h -0.44078 V 9.5429615 h -0.433558 V 9.1021816 h -4.147689 v 0.4407799 h -3.056573 v 0.4335582 h -0.874338 V 8.2278435 h 0.440784 V 7.7942854 h 0.433554 V 6.2696137 h 0.874338 V 5.8288301 h 1.307896 V 5.3952719 h 0.440784 V 4.0873794 h 0.433555 v 0.4335544 h 1.965455 V 4.0873794 h 0.874338 v 1.3078925 h -0.44078 v 2.8325716 h 1.315118 V 7.7942854 h 0.433558 V 4.5209338 h 0.433558 V 4.954492 h 0.874338 v 0.8743381 h 0.44078 v 0.4407836 h 0.867113 v 1.9582298 h -1.307893 v 0.8743381 h 0.44078 v 0.4407799 h 1.741451 v 0.4335582 h 0.440784 V 9.1021816 h 1.091117 V 8.6686235 h 0.867113 v -0.44078 h 0.440783 V 6.2696137 h -0.440783 V 5.3952719 h -0.867113 V 4.954492 h -0.657559 V 4.5209338 h -0.874342 z m -9.820051,3.2733516 v 0.8743381 h 1.307896 V 6.9199473 Z m -4.364469,2.6230142 h 1.74868 v 0.8671125 h -0.87434 v 0.440784 h -1.74867 v -0.440784 h -1.09112 V 9.9765197 h 1.96545 z m -82.71531,3.9236855 h 0.44078 v 0.440783 h -0.44078 z m 96.466276,0.440783 h 0.433554 v 0.433555 h -0.433554 z m -69.181136,1.524672 v 0.440784 h 1.74145 v -0.440784 z m 2.18223,0 v 1.748676 h 0.65034 v -0.44078 h 0.44078 v -1.307896 z m 77.46929,0.440784 h 0.440784 v 0.433554 h 0.433554 v 0.433558 h 0.440784 v 0.44078 h 0.433554 v 0.874342 h -0.874338 v -0.440784 h -0.874338 z m -78.34362,1.74145 v 0.874338 h 0.43355 v 0.874338 h 1.09112 v -1.748676 z m 0.43355,1.748676 h -0.87434 v -0.440783 h -1.30789 v -0.433555 h -1.3079 V 18.05512 h -1.74867 v 0.433554 h -0.86712 v 1.307897 h 1.3079 v -0.433559 h 0.43356 v 0.433559 h 1.30789 v 0.440779 h 0.44078 v 0.433559 h 0.87434 v 0.433554 h 1.3079 v 1.965455 h 0.87433 v -1.091117 h -0.44078 v -0.433554 h 1.09112 v 0.874338 h 1.31512 v 0.650333 h 1.74145 v -0.650333 h 1.3079 v -1.315122 h -0.86712 v -0.433554 h -0.87434 v -0.874338 h -1.74867 v 0.440779 h -0.87434 v -0.440779 h -1.09112 z m 1.5319,-1.748676 v 0.874338 h 1.74145 v -0.874338 z m 80.309081,0 h 0.874338 v 0.440784 h 0.433558 v 0.433554 h 0.44078 v 0.874338 h 0.433558 v 0.433559 h 0.44078 v 0.874338 h 0.433558 v 0.874338 h 0.657559 v 0.874338 h 0.433558 v 0.650333 h 0.433555 v 0.440784 h 0.440783 v 1.307893 h 0.433555 v 0.433558 h 0.440783 v 1.307896 h 0.433559 v 0.874338 h -0.433559 v -0.433558 h -0.874338 v -0.44078 h -0.440783 v -0.433558 h -0.433555 v -0.874338 h -1.091117 v -1.741451 h -0.433558 v -1.091117 h -0.44078 v -0.874338 h -0.433558 v -0.874338 h -0.44078 v -0.874338 h -0.433558 v -0.874342 h -0.433555 V 18.05512 h -0.440783 z m -44.735791,3.056573 v 0.874338 h -0.44078 v 1.524671 h 0.87434 v -0.650333 h 0.43356 v -0.874338 h 0.44078 v -0.874338 z m -31.20882,0.874338 v 1.524671 h 1.74145 v -0.650333 h 1.5319 v -0.874338 z m 3.7069,0.433554 v 0.440784 h 0.44079 v -0.440784 z m 0.87434,0 v 0.440784 h 0.43356 v -0.440784 z m 0,1.091117 v 0.440784 h -0.43355 v 2.182234 h 0.43355 v 0.433555 h 0.87434 v -3.056573 z m 6.76348,12.443069 h 0.44078 v 0.433555 h -0.44078 v 0.440783 h -0.65033 v -0.440783 h 0.65033 z"
           style="fill:url(#radialGradient112947);fill-opacity:1;fill-rule:evenodd;stroke:none;stroke-width:0.978262"
           id="path4002" /><path
           d="m -213.04731,17.615253 q 0,30.335298 21.38747,51.94102 21.60572,21.605723 52.15926,21.605723 30.33531,0 52.159275,-21.605723 21.387473,-21.605722 21.387473,-51.94102 0,-30.553544 -21.387473,-52.159264 -21.823965,-21.605719 -52.159275,-21.605719 -30.55354,0 -52.15926,21.605719 -21.38747,21.60572 -21.38747,52.159264"
           id="path4000-7"
           style="fill:url(#gradient1-6-7);fill-rule:evenodd;stroke:none;stroke-width:0.978261" /></g><path
         id="rect15"
         style="opacity:0.5;mix-blend-mode:hard-light;fill:#e6c56b;fill-rule:evenodd;stroke-linecap:round"
         d="M 17.145834,6.5 C 17.328972,7.4569393 17.7856,8.3026754 18.514975,9.039062 19.498119,10.012844 20.681944,10.5 22.067709,10.5 c 1.376403,0 2.555918,-0.487156 3.539063,-1.460938 0.40485,-0.4087428 0.72435,-0.8514595 0.960937,-1.3281245 V 6.5 Z" /><path
         style="opacity:0.5;fill:none;stroke:#ffffff;stroke-width:1px;stroke-linecap:butt;stroke-linejoin:miter;stroke-opacity:1"
         d="m 15.567709,7.5 h 11.5"
         id="path2306"
         sodipodi:nodetypes="cc" /><path
         d="m 16.067709,6.5 h 11 v 6 c 0,0.554 -0.446,1 -1,1 h -10 c -0.554,0 -1,-0.446 -1,-1 v -5 c 0,-0.554 0.446,-1 1,-1 z"
         stop-color="#000000"
         stroke="url(#linearGradient52101)"
         stroke-linecap="round"
         stroke-linejoin="round"
         id="path20"
         style="fill:none;stroke:url(#linearGradient52101)" /></g></g></svg>
