<?xml version="1.0" encoding="UTF-8" standalone="no"?>
<svg
   version="1.1"
   viewBox="0 0 16 16"
   id="svg31"
   sodipodi:docname="author.svg"
   width="16"
   height="16"
   inkscape:version="1.3.2 (1:1.3.2+202311252150+091e20ef0f)"
   xmlns:inkscape="http://www.inkscape.org/namespaces/inkscape"
   xmlns:sodipodi="http://sodipodi.sourceforge.net/DTD/sodipodi-0.dtd"
   xmlns="http://www.w3.org/2000/svg"
   xmlns:svg="http://www.w3.org/2000/svg">
  <sodipodi:namedview
     id="namedview31"
     pagecolor="#ffffff"
     bordercolor="#000000"
     borderopacity="0.25"
     inkscape:showpageshadow="2"
     inkscape:pageopacity="0.0"
     inkscape:pagecheckerboard="0"
     inkscape:deskcolor="#d1d1d1"
     inkscape:zoom="53.231669"
     inkscape:cx="7.7397535"
     inkscape:cy="11.684773"
     inkscape:window-width="3840"
     inkscape:window-height="2059"
     inkscape:window-x="3840"
     inkscape:window-y="0"
     inkscape:window-maximized="1"
     inkscape:current-layer="svg31" />
  <path
     id="path31"
     style="fill:#000000;fill-opacity:1;stroke-width:0.433892;filter:url(#filter42);opacity:0.83"
     d="M 9.4374368,1.0000949 C 8.7845374,1.0045989 8.1914697,1.1694865 7.6737649,1.4981418 7.3275483,1.717931 7.0184427,2.0077501 6.7421243,2.3653293 6.0690913,3.1658707 5.6844698,4.2108035 5.5878274,5.4766574 5.4839576,6.8121271 5.7078846,8.0151313 6.2636087,9.0665011 6.4094419,9.3435843 6.5721795,9.593539 6.7518899,9.814548 6.6341574,9.843281 6.5157526,9.8727829 6.3964212,9.9063449 5.3289895,10.203135 4.5578416,10.638167 4.1112649,11.244236 3.6487047,11.866299 3.4892884,12.729018 3.5936868,13.802829 a 0.2169677,0.2169677 0 0 0 0,0.002 c 0.036194,0.325742 0.2237457,0.617868 0.5175781,0.859374 0.2934578,0.241198 0.6956692,0.444344 1.2089844,0.623047 h 0.00195 c 0.8927992,0.312267 2.0213152,0.516904 3.390625,0.619141 1.2551134,0.116752 2.4038487,0.124361 3.4472657,0.02148 0.542873,-0.05135 0.971505,-0.119927 1.296875,-0.21289 0.324695,-0.09277 0.560964,-0.196882 0.689453,-0.414063 h 0.002 c 0.403019,-0.664215 0.374763,-1.503806 -0.03125,-2.451172 a 0.2169677,0.2169677 0 0 0 0,-0.002 C 13.74194,11.992433 13.18872,11.2942 12.464781,10.76572 c -0.319081,-0.238592 -0.652897,-0.44153 -1,-0.609375 0.113247,-0.10045 0.224798,-0.2093241 0.333984,-0.326172 a 0.2169677,0.2169677 0 0 0 0,-0.00195 c 0.78082,-0.840887 1.305159,-1.8988228 1.572266,-3.1601562 0.0792,-0.36681 0.12967,-0.7241463 0.15039,-1.0683594 a 0.2169677,0.2169677 0 0 0 0.02734,-0.1074219 c -1.6e-5,-0.00284 2e-5,-0.00497 0,-0.00781 h -0.002 v -0.00195 C 13.545176,5.2520034 13.53544,5.0306167 13.515562,4.8165011 13.495021,4.5532049 13.453914,4.2982836 13.394468,4.0508761 13.255162,3.4277094 13.019832,2.891584 12.679625,2.4493137 12.100173,1.6960279 11.230609,1.2289054 10.113218,1.048923 a 0.2169677,0.2169677 0 0 0 -0.0039,0 C 9.8787602,1.0149072 9.6550699,0.99859357 9.4374368,1.0000949 Z" />
  <g
     transform="matrix(0.43389173,0,0,0.43389173,2.5624754,1.9827472e-4)"
     id="g11">
    <path
       d="m 4.218,32.457 q 3,1.05 7.7,1.4 4.3,0.4 7.85,0.05 3.7,-0.35 4.2,-1.2 1.25,-2.05 -0.1,-5.2 -1.25,-2.85 -3.65,-4.6 -5.55,-4.15 -13.55,-1.9 -3.6,1 -5,2.9 -1.45,1.95 -1.1,5.55 0.2,1.8 3.65,3"
       fill="url(#gradient0)"
       fill-rule="evenodd"
       id="path2"
       style="fill:url(#gradient0)" />
    <path
       d="m 4.218,32.457 q -3.45,-1.2 -3.65,-3 -0.35,-3.6 1.1,-5.55 1.4,-1.9 5,-2.9 8,-2.25 13.55,1.9 2.4,1.75 3.65,4.6 1.35,3.15 0.1,5.2 -0.5,0.85 -4.2,1.2 -3.55,0.35 -7.85,-0.05 -4.7,-0.35 -7.7,-1.4 z"
       fill="none"
       stroke="#006600"
       stroke-linecap="round"
       stroke-linejoin="round"
       id="path3" />
    <path
       d="m 18.368,21.957 q -2.35,-1.4 -5.6,-1.4 l -3.25,-0.2 -1.45,0.2 q -0.95,5.6 2.35,12.45 4.2,-7.3 7.95,-11.05"
       fill="url(#gradient1)"
       fill-rule="evenodd"
       id="path4"
       style="fill:url(#gradient1)" />
    <path
       d="m 18.368,21.957 q -3.75,3.75 -7.95,11.05 -3.3,-6.85 -2.35,-12.45 l 1.45,-0.2 3.25,0.2 q 3.25,0 5.6,1.4 z"
       fill="none"
       stroke="#006600"
       stroke-linecap="round"
       stroke-linejoin="round"
       id="path5" />
    <path
       d="m 12.368,22.607 q 3.4,0.45 6.25,-2.6 2.6,-2.8 3.5,-7.05 0.95,-4.4 -0.6,-7.7 -1.7,-3.75 -6.1,-4.5 -4.55,-0.8 -7.35,2.3 -2.55,2.7 -2.9,7.3 -0.35,4.5 1.5,8 2,3.8 5.7,4.25"
       fill="url(#gradient2)"
       fill-rule="evenodd"
       id="path6"
       style="fill:url(#gradient2)" />
    <path
       d="m 12.368,22.607 q -3.7,-0.45 -5.7,-4.25 -1.85,-3.5 -1.5,-8 0.35,-4.6 2.9,-7.3 2.8,-3.1 7.35,-2.3 4.4,0.75 6.1,4.5 1.55,3.3 0.6,7.7 -0.9,4.25 -3.5,7.05 -2.85,3.05 -6.25,2.6 z"
       fill="none"
       stroke="#996600"
       stroke-linecap="round"
       stroke-linejoin="round"
       id="path7" />
    <path
       d="m 22.018,9.2575 q -2.3,-5.1 -8.25,-2.85 -5.1,1.95 -7.45,-0.4 4.05,5.2 8.25,2.8 3.25,-1.85 7.45,0.45"
       fill="url(#gradient3)"
       fill-rule="evenodd"
       id="path8"
       style="fill:url(#gradient3)" />
    <path
       d="m 22.518,10.357 q -0.05,-8.55 -7.5,-9.75 -6.1,-0.9 -8.9,5.65 1.1,1.35 3.75,1.85 1.4,0.3 2.6,-0.25 1.85,-0.85 3.95,-1.15 2.9,-0.4 4.7,1.3 1.35,1.2 1.4,2.35"
       fill="url(#gradient4)"
       fill-rule="evenodd"
       id="path9"
       style="fill:url(#gradient4)" />
    <path
       d="m 22.518,10.357 q -0.05,-1.15 -1.4,-2.35 -1.8,-1.7 -4.7,-1.3 -2.1,0.3 -3.95,1.15 -1.2,0.55 -2.6,0.25 -2.65,-0.5 -3.75,-1.85 2.8,-6.55 8.9,-5.65 7.45,1.2 7.5,9.75 z"
       fill="none"
       stroke="#996600"
       stroke-linecap="round"
       stroke-linejoin="round"
       id="path10" />
    <path
       d="m 10.818,7.7575 2.5,-1.05 q 1.65,-0.8 3.55,-0.8 4.25,0 5.15,3.75 0.5,-3.3 -2.8,-4.7 -3.6,-1.55 -6.15,-0.4 l -1.75,1.05 q -0.95,0.65 -1.45,0.75 -1.4,0.35 -2.1,0 l -0.4,-0.3 -0.3,-0.15 q 0,-0.75 -0.4,-0.1 -0.4,0.7 -0.05,1 0.6,0.5 1.9,0.8 l 2.3,0.15"
       fill="url(#gradient5)"
       fill-rule="evenodd"
       id="path11"
       style="fill:url(#gradient5)" />
  </g>
  <defs
     id="defs31">
    <radialGradient
       id="gradient0"
       cx="0"
       cy="0"
       r="819.20001"
       gradientTransform="matrix(0.0208,0,0,0.0208,11.718,21.957)"
       gradientUnits="userSpaceOnUse">
      <stop
         stop-color="#cfc"
         offset="0"
         id="stop11" />
      <stop
         stop-color="#090"
         offset="1"
         id="stop12" />
    </radialGradient>
    <linearGradient
       id="gradient1"
       x1="-819.20001"
       x2="819.20001"
       gradientTransform="matrix(-7e-4,0.0077,0.0063,5e-4,13.318,27.107)"
       gradientUnits="userSpaceOnUse">
      <stop
         stop-color="#9cf"
         offset="0"
         id="stop13" />
      <stop
         stop-color="#9cf"
         offset=".094118"
         id="stop14" />
      <stop
         stop-color="#fff"
         offset=".39608"
         id="stop15" />
      <stop
         stop-color="#cff"
         offset="1"
         id="stop16" />
    </linearGradient>
    <radialGradient
       id="gradient2"
       cx="0"
       cy="0"
       r="819.20001"
       gradientTransform="matrix(0.0277,0,0,0.0277,12.468,2.2575)"
       gradientUnits="userSpaceOnUse">
      <stop
         stop-color="#ff9"
         offset="0"
         id="stop17" />
      <stop
         stop-color="#fc6"
         offset=".24314"
         id="stop18" />
      <stop
         stop-color="#f93"
         offset=".71373"
         id="stop19" />
      <stop
         stop-color="#960"
         offset="1"
         id="stop20" />
    </radialGradient>
    <linearGradient
       id="gradient3"
       x1="-819.20001"
       x2="819.20001"
       gradientTransform="matrix(0,0.0022,0.0096,0,14.168,7.6575)"
       gradientUnits="userSpaceOnUse">
      <stop
         stop-color="#f93"
         offset="0"
         id="stop21" />
      <stop
         stop-color="#f93"
         offset=".48627"
         id="stop22" />
      <stop
         stop-color="#fc6"
         offset="1"
         id="stop23" />
    </linearGradient>
    <radialGradient
       id="gradient4"
       cx="0"
       cy="0"
       r="819.20001"
       gradientTransform="matrix(0.016,0,0,0.016,13.068,1.3075)"
       gradientUnits="userSpaceOnUse">
      <stop
         stop-color="#f0ddbd"
         offset="0"
         id="stop24" />
      <stop
         stop-color="#d8a650"
         offset=".38039"
         id="stop25" />
      <stop
         stop-color="#960"
         offset=".81961"
         id="stop26" />
      <stop
         stop-color="#926821"
         offset="1"
         id="stop27" />
    </radialGradient>
    <linearGradient
       id="gradient5"
       x1="-819.20001"
       x2="819.20001"
       gradientTransform="matrix(-0.0075,0.0035,0.0026,0.0056,14.468,6.0575)"
       gradientUnits="userSpaceOnUse">
      <stop
         stop-color="#960"
         offset="0"
         id="stop28" />
      <stop
         stop-color="#f0ddbd"
         offset=".34118"
         id="stop29" />
      <stop
         stop-color="#d8a650"
         offset=".67843"
         id="stop30" />
      <stop
         stop-color="#960"
         offset="1"
         id="stop31" />
    </linearGradient>
    <filter
       id="filter882"
       x="-0.1444262"
       y="-0.10692791"
       width="1.2888524"
       height="1.2138558"
       color-interpolation-filters="sRGB">
      <feGaussianBlur
         stdDeviation="10.473764"
         id="feGaussianBlur31" />
    </filter>
    <filter
       inkscape:collect="always"
       style="color-interpolation-filters:sRGB"
       id="filter42"
       x="-0.146195"
       y="-0.10597866"
       width="1.29239"
       height="1.2119573">
      <feGaussianBlur
         inkscape:collect="always"
         stdDeviation="0.66236018"
         id="feGaussianBlur42" />
    </filter>
  </defs>
</svg>
