<?xml version="1.0" encoding="UTF-8" standalone="no"?>
<svg
   inkscape:export-ydpi="96"
   inkscape:export-xdpi="96"
   inkscape:export-filename="text-file.png"
   sodipodi:docname="text-file.16.svg"
   inkscape:version="1.3.2 (1:1.3.2+202311252150+091e20ef0f)"
   id="svg8"
   version="1.1"
   viewBox="0 0 16 16"
   height="16"
   width="16"
   xml:space="preserve"
   xmlns:inkscape="http://www.inkscape.org/namespaces/inkscape"
   xmlns:sodipodi="http://sodipodi.sourceforge.net/DTD/sodipodi-0.dtd"
   xmlns:xlink="http://www.w3.org/1999/xlink"
   xmlns="http://www.w3.org/2000/svg"
   xmlns:svg="http://www.w3.org/2000/svg"
   xmlns:rdf="http://www.w3.org/1999/02/22-rdf-syntax-ns#"
   xmlns:cc="http://creativecommons.org/ns#"
   xmlns:dc="http://purl.org/dc/elements/1.1/"><defs
     id="defs2"><linearGradient
       inkscape:collect="always"
       id="linearGradient14"><stop
         style="stop-color:#996600;stop-opacity:1"
         offset="0"
         id="stop13" /><stop
         style="stop-color:#ffff00;stop-opacity:1"
         offset="1"
         id="stop14" /></linearGradient><linearGradient
       id="linearGradient932"
       inkscape:collect="always"><stop
         id="stop928"
         offset="0"
         style="stop-color:#e2f1f0;stop-opacity:1" /><stop
         id="stop930"
         offset="1"
         style="stop-color:#ffffff;stop-opacity:1;" /></linearGradient><linearGradient
       inkscape:collect="always"
       xlink:href="#linearGradient932"
       id="linearGradient7"
       gradientUnits="userSpaceOnUse"
       gradientTransform="matrix(0.35927017,0,0,0.35927017,37.079128,1.0951345)"
       x1="-57.623566"
       y1="37.159607"
       x2="-41.783092"
       y2="15.044014" /><linearGradient
       inkscape:collect="always"
       xlink:href="#linearGradient14"
       id="linearGradient17"
       gradientUnits="userSpaceOnUse"
       gradientTransform="matrix(0.75528919,0,0,1,11.041915,-0.38971569)"
       x1="16.817709"
       y1="4"
       x2="17.38752"
       y2="1.5290419" /><linearGradient
       inkscape:collect="always"
       xlink:href="#linearGradient14"
       id="linearGradient1"
       gradientUnits="userSpaceOnUse"
       gradientTransform="matrix(0.75528919,0,0,1,8.6932708,-0.28489699)"
       x1="16.817709"
       y1="4"
       x2="17.38752"
       y2="1.5290419" /><linearGradient
       inkscape:collect="always"
       xlink:href="#linearGradient14"
       id="linearGradient2"
       gradientUnits="userSpaceOnUse"
       gradientTransform="matrix(0.75528919,0,0,1,6.3446259,-0.12025797)"
       x1="16.817709"
       y1="4"
       x2="17.38752"
       y2="1.5290419" /><linearGradient
       inkscape:collect="always"
       xlink:href="#linearGradient14"
       id="linearGradient3"
       gradientUnits="userSpaceOnUse"
       gradientTransform="matrix(0.75528919,0,0,1,3.995982,0.02203182)"
       x1="16.817709"
       y1="4"
       x2="17.38752"
       y2="1.5290419" /><filter
       inkscape:collect="always"
       style="color-interpolation-filters:sRGB"
       id="filter15"
       x="-0.14742428"
       y="-0.1053419"
       width="1.2948486"
       height="1.2106838"><feGaussianBlur
         inkscape:collect="always"
         stdDeviation="0.60394998"
         id="feGaussianBlur15" /></filter></defs><sodipodi:namedview
     inkscape:guide-bbox="true"
     inkscape:snap-object-midpoints="true"
     showguides="true"
     inkscape:snap-global="true"
     inkscape:bbox-paths="false"
     fit-margin-bottom="0"
     fit-margin-right="0"
     fit-margin-left="0"
     fit-margin-top="0"
     inkscape:bbox-nodes="true"
     inkscape:snap-bbox="true"
     inkscape:window-maximized="1"
     inkscape:window-y="0"
     inkscape:window-x="3840"
     inkscape:window-height="2059"
     inkscape:window-width="3840"
     units="px"
     showgrid="false"
     inkscape:document-rotation="0"
     inkscape:current-layer="layer1"
     inkscape:document-units="px"
     inkscape:cy="9.435616"
     inkscape:cx="6.0399962"
     inkscape:zoom="66.556333"
     inkscape:pageshadow="2"
     inkscape:pageopacity="0.0"
     borderopacity="1.0"
     bordercolor="#666666"
     pagecolor="#ffffff"
     id="base"
     inkscape:pagecheckerboard="0"
     inkscape:showpageshadow="2"
     inkscape:deskcolor="#d1d1d1"><inkscape:grid
       originy="0"
       originx="0"
       id="grid1504"
       type="xygrid"
       spacingy="1"
       spacingx="1"
       units="px"
       visible="false" /><inkscape:grid
       originy="0"
       originx="0"
       spacingy="0.5"
       spacingx="0.5"
       id="grid1507"
       type="xygrid"
       units="px"
       visible="false" /><inkscape:grid
       id="grid7"
       units="px"
       originx="0"
       originy="0"
       spacingx="0.25"
       spacingy="0.25"
       empcolor="#3f3fff"
       empopacity="0.25098039"
       color="#3f3fff"
       opacity="0.1254902"
       empspacing="5"
       dotted="false"
       gridanglex="30"
       gridanglez="30"
       visible="false" /></sodipodi:namedview><metadata
     id="metadata5"><rdf:RDF><cc:Work
         rdf:about=""><dc:format>image/svg+xml</dc:format><dc:type
           rdf:resource="http://purl.org/dc/dcmitype/StillImage" /></cc:Work></rdf:RDF></metadata><g
     transform="translate(-12.567709)"
     id="layer1"
     inkscape:groupmode="layer"
     inkscape:label="Layer 1"><path
       id="path1"
       style="fill:#000000;fill-opacity:1;stroke:none;stroke-width:0.35927px;stroke-linecap:butt;stroke-linejoin:miter;stroke-opacity:1;filter:url(#filter15);opacity:0.83"
       d="m 24.55599,1.74 c -0.61522,0 -1.081217,0.7463825 -1.09375,1.5605468 l -0.164062,0.00977 C 23.264598,2.5220824 22.806613,1.8454734 22.206381,1.845473 c -0.623224,0 -1.091066,0.7673133 -1.091797,1.59375 l -0.166016,0.00781 c -0.04358,-0.7755582 -0.497114,-1.4374996 -1.089843,-1.4375 -0.616719,0 -1.083396,0.7499303 -1.09375,1.5664063 l -0.166016,0.00977 c -0.04447,-0.7743946 -0.4978,-1.4335934 -1.089844,-1.4335937 -0.615719,0 -1.079988,0.7475644 -1.091797,1.5625 l -0.599609,0.035156 V 15.249766 l 1,0.25 8.75,-1.5 V 3.8845312 c 0.05234,-0.1829524 0.08203,-0.3819947 0.08203,-0.5859375 C 25.649739,2.4714165 25.1797,1.7400004 24.55599,1.74 Z m 0,1 c 0.16746,0 0.337891,0.2149245 0.337891,0.5585937 0,0.021479 -6.65e-4,0.045939 -0.002,0.066406 L 24.317709,3.2497656 24.2181,3.255625 C 24.231926,2.9374748 24.39573,2.74 24.55599,2.74 Z m -2.349609,0.1054687 c 0.158954,0 0.319935,0.1942245 0.335937,0.5078125 l -0.673828,0.041016 c 0.0033,-0.3378206 0.172066,-0.5488281 0.337891,-0.5488285 z m -2.347656,0.1640625 c 0.154541,0 0.310679,0.1840701 0.333984,0.4824219 l -0.671875,0.039063 c 0.01205,-0.3215863 0.17665,-0.5214844 0.337891,-0.5214849 z m -2.34961,0.1425782 c 0.153951,0 0.309753,0.1821819 0.333985,0.4785156 l -0.669922,0.039063 c 0.01324,-0.3192942 0.17535,-0.5175782 0.335937,-0.5175786 z" /><g
       id="g1"><path
         id="path3864"
         style="fill:#6666cc;fill-opacity:1;stroke:none;stroke-width:0.35927px;stroke-linecap:butt;stroke-linejoin:miter;stroke-opacity:1"
         d="m 23.317709,2.25 -8.5,0.5 v 11.5 l 1,0.25 8.75,-12 z"
         sodipodi:nodetypes="cccccc" /><path
         style="fill:url(#linearGradient7);fill-opacity:1;stroke:none;stroke-width:0.35927px;stroke-linecap:butt;stroke-linejoin:miter;stroke-opacity:1"
         d="m 15.817709,3 v 11.5 l 8.75,-1.5 V 2.5 Z"
         id="path3870-5-9"
         sodipodi:nodetypes="ccccc" /><path
         style="color:#000000;fill:url(#linearGradient17);fill-rule:evenodd;stroke-width:0.869074;stroke-linecap:round;stroke-linejoin:round;-inkscape-stroke:none"
         d="m 23.555662,0.74093747 c -0.623711,0 -1.092534,0.76671903 -1.092534,1.59389713 l 0.753244,-0.035303 c 0,-0.3436696 0.171831,-0.5585937 0.33929,-0.5585937 0.16746,0 0.337815,0.2149241 0.337815,0.5585937 0,0.3436697 -0.170355,0.5605469 -0.337815,0.5605469 -0.208567,0 -0.377644,0.2238576 -0.377644,0.5 0,0.2761424 0.169077,0.5 0.377644,0.5 0.623711,0 1.093105,-0.7333687 1.093104,-1.5605469 0,-0.8271781 -0.469393,-1.55859373 -1.093104,-1.55859413 z"
         id="path11-4"
         sodipodi:nodetypes="sccsssssss" /><path
         style="color:#000000;fill:url(#linearGradient1);fill-rule:evenodd;stroke-width:0.869074;stroke-linecap:round;stroke-linejoin:round;-inkscape-stroke:none"
         d="m 21.207018,0.84575617 c -0.623711,0 -1.092534,0.76671903 -1.092534,1.59389713 l 0.753244,-0.035303 c 0,-0.3436696 0.171831,-0.5585937 0.33929,-0.5585937 0.16746,0 0.337815,0.2149241 0.337815,0.5585937 0,0.3436697 -0.170355,0.5605469 -0.337815,0.5605469 -0.208567,0 -0.377644,0.2238576 -0.377644,0.5 0,0.2761424 0.169077,0.5 0.377644,0.5 0.623711,0 1.093105,-0.7333687 1.093104,-1.5605469 0,-0.8271781 -0.469393,-1.55859373 -1.093104,-1.55859413 z"
         id="path11-4-7"
         sodipodi:nodetypes="sccsssssss" /><path
         style="color:#000000;fill:url(#linearGradient2);fill-rule:evenodd;stroke-width:0.869074;stroke-linecap:round;stroke-linejoin:round;-inkscape-stroke:none"
         d="m 18.858373,1.0103952 c -0.623711,0 -1.092534,0.766719 -1.092534,1.5938971 l 0.753244,-0.035303 c 0,-0.3436696 0.171831,-0.5585937 0.33929,-0.5585937 0.16746,0 0.337815,0.2149241 0.337815,0.5585937 0,0.3436697 -0.170355,0.5605469 -0.337815,0.5605469 -0.208567,0 -0.377644,0.2238576 -0.377644,0.5 0,0.2761424 0.169077,0.5 0.377644,0.5 0.623711,0 1.093105,-0.7333687 1.093104,-1.5605469 0,-0.8271781 -0.469393,-1.5585937 -1.093104,-1.5585941 z"
         id="path11-4-5"
         sodipodi:nodetypes="sccsssssss" /><path
         sodipodi:nodetypes="cc"
         id="path3882-9-3-6-2"
         d="m 17.567709,6.5 h 3.5"
         style="fill:none;stroke:#7d7e7e;stroke-width:1;stroke-linecap:butt;stroke-linejoin:miter;stroke-dasharray:none;stroke-opacity:1" /><path
         sodipodi:nodetypes="cc"
         id="path3882-9-3-6-2-9"
         d="m 17.567709,8.5 h 4.5"
         style="fill:none;stroke:#7d7e7e;stroke-width:1;stroke-linecap:butt;stroke-linejoin:miter;stroke-dasharray:none;stroke-opacity:1" /><path
         sodipodi:nodetypes="cc"
         id="path3882-9-3-6-2-9-1"
         d="m 17.567709,10.5 h 4.5"
         style="fill:none;stroke:#7d7e7e;stroke-width:1;stroke-linecap:butt;stroke-linejoin:miter;stroke-dasharray:none;stroke-opacity:1" /><path
         sodipodi:nodetypes="cc"
         id="path3882-9-3-6-2-9-2"
         d="m 17.567709,12.5 h 1.5"
         style="fill:none;stroke:#7d7e7e;stroke-width:1;stroke-linecap:butt;stroke-linejoin:miter;stroke-dasharray:none;stroke-opacity:1" /><path
         style="color:#000000;fill:url(#linearGradient3);fill-rule:evenodd;stroke-width:0.869074;stroke-linecap:round;stroke-linejoin:round;-inkscape-stroke:none"
         d="m 16.509729,1.152685 c -0.623711,0 -1.092534,0.766719 -1.092534,1.5938971 l 0.753244,-0.035303 c 0,-0.3436696 0.171831,-0.5585937 0.33929,-0.5585937 0.16746,0 0.337815,0.2149241 0.337815,0.5585937 0,0.3436697 -0.170355,0.5605469 -0.337815,0.5605469 -0.208567,0 -0.377644,0.2238576 -0.377644,0.5 0,0.2761424 0.169077,0.5 0.377644,0.5 0.623711,0 1.093105,-0.7333687 1.093104,-1.5605469 0,-0.8271781 -0.469393,-1.5585937 -1.093104,-1.5585941 z"
         id="path11-4-9"
         sodipodi:nodetypes="sccsssssss" /></g></g></svg>
