<?xml version="1.0" encoding="UTF-8"?>
<svg version="1.1" viewBox="0 0 16 16" xmlns="http://www.w3.org/2000/svg" xmlns:xlink="http://www.w3.org/1999/xlink">
 <defs>
  <filter id="filter963" x="-.13823" y="-.11059" width="1.2765" height="1.2212" color-interpolation-filters="sRGB">
   <feGaussianBlur stdDeviation="0.69118713"/>
  </filter>
  <linearGradient id="linearGradient32816-3" x1="-28.683" x2="-38.225" y1="21.128" y2="9.0369" gradientUnits="userSpaceOnUse">
   <stop stop-color="#9cf" offset="0"/>
   <stop stop-color="#fff" offset="1"/>
  </linearGradient>
  <linearGradient id="linearGradient26952-6" x1="8.0956" x2="7.2706" y1="1.4188" y2=".45848" gradientTransform="matrix(1.5872 0 0 1.5872 -42.561 7.9305)" gradientUnits="userSpaceOnUse">
   <stop stop-color="#2da8ff" offset="0"/>
   <stop stop-color="#74c0ff" offset="1"/>
  </linearGradient>
  <linearGradient id="linearGradient57243-7" x1="-31.156" x2="-28.432" y1="10.5" y2="10.5" gradientTransform="translate(0 -.25)" gradientUnits="userSpaceOnUse">
   <stop stop-color="#0096fc" offset="0"/>
   <stop stop-color="#0068ce" offset="1"/>
  </linearGradient>
  <linearGradient id="linearGradient33220-5" x1="-30.932" x2="-28.932" y1="11" y2="11" gradientUnits="userSpaceOnUse">
   <stop stop-color="#ccd5ff" offset="0"/>
   <stop stop-color="#aab3f5" offset="1"/>
  </linearGradient>
  <linearGradient id="linearGradient19558-3" x1="-27.932" x2="-27.932" y1="21" y2="11.5" gradientUnits="userSpaceOnUse">
   <stop stop-color="#a5bdee" offset="0"/>
   <stop stop-color="#bac9f4" offset="1"/>
  </linearGradient>
  <linearGradient id="linearGradient10737-5" x1="-37.932" x2="-28.932" y1="22" y2="22" gradientUnits="userSpaceOnUse">
   <stop stop-color="#9dadd9" offset="0"/>
   <stop stop-color="#8b8eb8" offset="1"/>
  </linearGradient>
  <linearGradient id="linearGradient1922-6" x1="-38.932" x2="-38.932" y1="22.025" y2="14.78" gradientUnits="userSpaceOnUse">
   <stop stop-color="#6e7bae" offset="0"/>
   <stop stop-color="#87a9dc" offset="1"/>
  </linearGradient>
  <linearGradient id="linearGradient3851">
   <stop stop-color="#321e1d" offset="0"/>
   <stop stop-color="#555548" stop-opacity="0" offset=".020122"/>
   <stop stop-color="#fff" stop-opacity="0" offset="1"/>
  </linearGradient>
  <linearGradient id="linearGradient3651" x1="-1527.4" x2="-1086.1" y1="1387.5" y2="454.14" gradientTransform="matrix(.13577 0 0 .13577 267.59 -5.8858)" gradientUnits="userSpaceOnUse">
   <stop stop-color="#1011a1" offset="0"/>
   <stop stop-color="#6969e1" offset="1"/>
  </linearGradient>
  <linearGradient id="linearGradient3659" x1="-933.38" x2="-316.78" y1="680.41" y2="1721.3" gradientTransform="matrix(.13577 0 0 .13577 267.59 -5.8858)" gradientUnits="userSpaceOnUse">
   <stop stop-color="#b40e0e" offset="0"/>
   <stop stop-color="#ff5959" offset="1"/>
  </linearGradient>
  <linearGradient id="linearGradient3675" x1="-678.82" x2="-1550" y1="1794.8" y2="1721.3" gradientTransform="matrix(.13577 0 0 .13577 267.59 -5.8858)" gradientUnits="userSpaceOnUse">
   <stop stop-color="#01a300" offset="0"/>
   <stop stop-color="#01df00" offset="1"/>
  </linearGradient>
  <linearGradient id="linearGradient3721" x1="-984.29" x2="-995.61" y1="1472.4" y2="1093.4" gradientTransform="matrix(.13577 0 0 .13577 267.59 -5.8858)" gradientUnits="userSpaceOnUse">
   <stop stop-color="#848484" offset="0"/>
   <stop stop-color="#d2d2d2" offset="1"/>
  </linearGradient>
  <linearGradient id="linearGradient3806" x1="-1238" x2="-555.82" y1="919.71" y2="917.51" gradientTransform="matrix(.26053 .13353 -.061928 .12083 453.88 162.1)" gradientUnits="userSpaceOnUse">
   <stop stop-color="#cbcaf2" offset="0"/>
   <stop stop-color="#5555d2" stop-opacity="0" offset=".026368"/>
   <stop stop-color="#fff" stop-opacity="0" offset="1"/>
  </linearGradient>
  <linearGradient id="linearGradient3828" x1="-1238" x2="-552.84" y1="919.71" y2="913.41" gradientTransform="matrix(-.26349 .12759 -.059172 -.1222 -74.044 417.81)" gradientUnits="userSpaceOnUse" xlink:href="#linearGradient3851"/>
  <linearGradient id="linearGradient3877" x1="-1238" x2="-555.84" y1="919.71" y2="915.3" gradientTransform="matrix(.0036663 -.29273 .1227 .0017847 -2.5477 -114.97)" gradientUnits="userSpaceOnUse" xlink:href="#linearGradient3851"/>
  <linearGradient id="linearGradient3918" x1="-1238" x2="-554.9" y1="919.71" y2="917.62" gradientTransform="matrix(.42582 .00035547 .0087316 .10321 652.12 -3.1522)" gradientUnits="userSpaceOnUse">
   <stop stop-color="#f6b1b2" offset="0"/>
   <stop stop-color="#c51f1f" stop-opacity="0" offset=".028216"/>
   <stop stop-color="#fff" stop-opacity="0" offset="1"/>
  </linearGradient>
  <linearGradient id="linearGradient3967" x1="-1229.3" x2="-555.82" y1="918.44" y2="917.51" gradientTransform="matrix(-.29205 -.0095391 -.0051881 -.065457 -221.53 131.25)" gradientUnits="userSpaceOnUse">
   <stop stop-color="#321e1d" offset="0"/>
   <stop stop-color="#5a5bd7" stop-opacity="0" offset=".020122"/>
   <stop stop-color="#fff" stop-opacity="0" offset="1"/>
  </linearGradient>
  <linearGradient id="linearGradient4016" x1="-1237.1" x2="-555.82" y1="920.42" y2="917.51" gradientTransform="matrix(-.18734 -.22497 .10433 -.086883 -316.18 43.793)" gradientUnits="userSpaceOnUse">
   <stop stop-color="#321e1d" offset="0"/>
   <stop stop-color="#555548" stop-opacity="0" offset=".015467"/>
   <stop stop-color="#fff" stop-opacity="0" offset="1"/>
  </linearGradient>
  <linearGradient id="linearGradient4065" x1="-1242.2" x2="-551.13" y1="915.74" y2="910.65" gradientTransform="matrix(.11583 -.26887 .12469 .053718 278.22 -132.69)" gradientUnits="userSpaceOnUse">
   <stop stop-color="#321e1d" offset="0"/>
   <stop stop-color="#555548" stop-opacity="0" offset=".017393"/>
   <stop stop-color="#fff" stop-opacity="0" offset="1"/>
  </linearGradient>
  <linearGradient id="linearGradient4106" x1="-1238" x2="-555.87" y1="919.71" y2="915.48" gradientTransform="matrix(.18777 .22461 -.10417 .087083 325.41 453.69)" gradientUnits="userSpaceOnUse">
   <stop stop-color="#cbf595" offset="0"/>
   <stop stop-color="#01da00" stop-opacity="0" offset=".018269"/>
   <stop stop-color="#fff" stop-opacity="0" offset="1"/>
  </linearGradient>
  <linearGradient id="linearGradient4196" x1="-1242.6" x2="-866.87" y1="918.1" y2="917.19" gradientTransform="matrix(.18777 .22461 -.10417 .087083 379.81 408.08)" gradientUnits="userSpaceOnUse">
   <stop stop-color="#ebebec" offset="0"/>
   <stop stop-color="#d3d3d3" stop-opacity="0" offset=".0051829"/>
   <stop stop-color="#fff" stop-opacity="0" offset="1"/>
  </linearGradient>
  <linearGradient id="linearGradient4253" x1="-1238" x2="-555.82" y1="919.71" y2="917.51" gradientTransform="matrix(-.11293 .2701 -.11312 -.047565 178.47 612.65)" gradientUnits="userSpaceOnUse">
   <stop stop-color="#32691d" offset="0"/>
   <stop stop-color="#01d200" stop-opacity="0" offset=".020122"/>
   <stop stop-color="#fff" stop-opacity="0" offset="1"/>
  </linearGradient>
  <filter id="filter1416" x="-.048004" y="-.047995" width="1.096" height="1.096" color-interpolation-filters="sRGB">
   <feGaussianBlur stdDeviation="4.9627481"/>
  </filter>
 </defs>
 <path d="m2.9 0.90009v14.499a0.49998 0.49998 0 0 0 0.0625 0.2246 0.49998 0.49998 0 0 0 0.03516 0.05469 0.49998 0.49998 0 0 0 0.12109 0.12304 0.49998 0.49998 0 0 0 0.05664 0.03711 0.49998 0.49998 0 0 0 0.2246 0.06055h11a0.49998 0.49998 0 0 0 0.49998-0.49998v-10.978a0.49998 0.49998 0 0 0-0.01953-0.1621 0.49998 0.49998 0 0 0-2e-3 -0.0059 0.49998 0.49998 0 0 0-0.02344-0.06055 0.49998 0.49998 0 0 0-0.01953-0.03711 0.49998 0.49998 0 0 0-2e-3 -2e-3 0.49998 0.49998 0 0 0-0.01172-0.02344 0.49998 0.49998 0 0 0-0.0098-0.01367 0.49998 0.49998 0 0 0-0.0039-0.0039 0.49998 0.49998 0 0 0-0.04297-0.05274l-2.4823-2.9803a0.49998 0.49998 0 0 0 0-0.00195 0.49998 0.49998 0 0 0-0.0957-0.085933 0.49998 0.49998 0 0 0-0.0039-0.00195 0.49998 0.49998 0 0 0-0.2246-0.08398 0.49998 0.49998 0 0 0-0.0293-0.00391 0.49998 0.49998 0 0 0-0.0293-0.00195z" fill-rule="evenodd" filter="url(#filter963)" opacity=".83" stop-color="#000000" stroke-linecap="round" stroke-linejoin="round"/>
 <g transform="translate(41.438 -7.4946)">
  <path d="m-38.932 8h8.5041l2.4959 3.1204v10.88h-11z" fill="url(#linearGradient32816-3)" fill-rule="evenodd" stop-color="#000000" stroke-linecap="round" stroke-linejoin="round"/>
  <path d="m-31.432 8.1405v2.8595h3.5l-3.0801-2.8595z" fill="url(#linearGradient26952-6)"/>
  <path d="m-31.432 10.25h3" fill="none" stroke="url(#linearGradient57243-7)" stroke-width=".5"/>
  <path d="m-27.932 11h-3.5" fill="#aab3f5" stroke="url(#linearGradient33220-5)" stroke-width="1px"/>
  <g fill="none" stroke-linecap="round" stroke-width="1px">
   <path d="m-27.932 22v-11" stroke="url(#linearGradient19558-3)"/>
   <path d="m-38.932 22h11" stroke="url(#linearGradient10737-5)"/>
   <path d="m-30.432 8h-8.5v14" stroke="url(#linearGradient1922-6)"/>
   <path d="m-30.432 8 2.5 3" stroke="#87a9dc"/>
  </g>
 </g>
 <g transform="matrix(.029414 0 0 .029414 4.3286 4.1575)">
  <path d="m131.03 6.5568c-0.63065-0.022441-1.0802 0.41916-1.375 0.88867l-0.0215 0.035156-122.34 244.37-0.00586 0.0117c-0.17356 0.37574-0.4873 0.83165-0.34375 1.5566 0.071773 0.36249 0.3422 0.73502 0.67383 0.93554 0.33163 0.20053 0.6993 0.28856 1.1445 0.33789l0.044922 6e-3 244.04 0.0176-0.0293-2e-3c0.75374 0.0277 1.5275-0.0878 1.9609-0.76563 0.43343-0.67784 0.22583-1.4401-0.13867-2.1699l-122.34-244.37-0.0332-0.048828c-0.25302-0.36412-0.60958-0.77834-1.2402-0.80078z" color="#000000" filter="url(#filter1416)" stroke-width=".13577" style="-inkscape-stroke:none"/>
  <path d="M 137.15,134.82 3.47,249.11 125.91,4.45 Z" fill="url(#linearGradient3651)" stroke="#000" stroke-width=".13577"/>
  <path d="m125.92 4.6529c1.8214 10.959 1.6211 12.87-2.4486 19.018l-108.16 214.4-11.487 10.445z" fill="url(#linearGradient3806)"/>
  <path d="m137.68 134.66-6.8113 5.4382-7.1673-120.66c-0.55033-6.4403-0.84744-5.8614-0.8892-9.2556l3.408-6.6464z" fill="url(#linearGradient3967)"/>
  <path d="m143.35 206.19-17.373-201.77 122.6 244.7z" fill="url(#linearGradient3659)" stroke="#000" stroke-width=".13577"/>
  <path d="m125.97 3.9004c3.2823 4.0794 5.3777 10.311 6.6482 15.231l24.354 192.13-13.364-5.219z" fill="url(#linearGradient3918)"/>
  <path d="m82.859 180.92 165.84 68.182-245.2-0.027z" fill="url(#linearGradient3675)" stroke="#000" stroke-width=".13577"/>
  <path d="m248.54 249.17-7.7002-3.3423-108.07-217.65c-2.9798-3.3099-4.6631-5.3797-5.5964-7.0537-0.15294-4.388-0.39958-8.2932-1.346-17.143z" fill="url(#linearGradient3828)"/>
  <path d="m83.111 181.08 53.959-46.032 7.5123 71.087z" fill="url(#linearGradient3721)" stroke="#000" stroke-width=".54309"/>
  <path d="m82.766 181.24c2.3736 0.91652 2.8298 1.1246 4.8615 1.9579-2.194 1.8778-9.4878 11.743-12.413 14.1l-58.166 49.245-13.417 2.4966z" fill="url(#linearGradient4106)"/>
  <path d="m248.43 249.02-9.2413-0.14237-159.51-65.121 3.1913-2.5412 63.917 26.06z" fill="url(#linearGradient4253)"/>
  <path d="m3.6451 249.02 6.8288-5.8228 223.08 0.0208 14.979 5.8012-244.88 1e-3z" fill="url(#linearGradient3877)"/>
  <path d="m144.83 206.33-0.29338-3.033 82.901 31.929c5.357 2.5479 9.3827 3.7065 12.06 5.8826 1.7236 0.70711 4.7146 1.7154 6.261 2.2367 1.8908 1.2521 1.5623 3.2529 2.7586 5.6404z" fill="url(#linearGradient4065)"/>
  <path d="m247.85 249.88-244-0.0171c-1.4975-0.1659-1.1595-0.91142-0.81407-1.6593l122.31-244.32c0.44994-0.7165 0.85378-0.60245 1.2336-0.055776l122.31 244.31c0.62159 1.2446 0.21467 1.7854-1.0508 1.7389z" fill="none" stroke="#000" stroke-width="1.6564"/>
  <path d="m3.6598 248.84 3.4656-7.404 7.0694-5.2366 122.1-106.02c0.65168 2.5142 0.2553 0.94139 0.83249 4.6148z" fill="url(#linearGradient4016)"/>
  <path d="m136.85 135.67c-1.0716 11.759-2.4053 11.071-7.2295 16.024l-35.764 33.223-10.175-3.9696z" fill="url(#linearGradient4196)"/>
 </g>
</svg>
