<?xml version="1.0" encoding="UTF-8" standalone="no"?>
<svg
   inkscape:export-ydpi="96"
   inkscape:export-xdpi="96"
   inkscape:export-filename="/media/klapeto/Αρχεία/WindowsXP Theme/Vectors/RASTER/database.png"
   width="16"
   height="16"
   viewBox="0 0 16 16"
   version="1.1"
   id="svg8"
   inkscape:version="1.3.2 (1:1.3.2+202311252150+091e20ef0f)"
   sodipodi:docname="dbms.svg"
   xml:space="preserve"
   xmlns:inkscape="http://www.inkscape.org/namespaces/inkscape"
   xmlns:sodipodi="http://sodipodi.sourceforge.net/DTD/sodipodi-0.dtd"
   xmlns:xlink="http://www.w3.org/1999/xlink"
   xmlns="http://www.w3.org/2000/svg"
   xmlns:svg="http://www.w3.org/2000/svg"
   xmlns:rdf="http://www.w3.org/1999/02/22-rdf-syntax-ns#"
   xmlns:cc="http://creativecommons.org/ns#"
   xmlns:dc="http://purl.org/dc/elements/1.1/"><defs
     id="defs2"><linearGradient
       id="linearGradient6"
       inkscape:collect="always"><stop
         style="stop-color:#ffff99;stop-opacity:1"
         offset="0"
         id="stop7" /><stop
         style="stop-color:#cc9900;stop-opacity:1"
         offset="1"
         id="stop8" /></linearGradient><linearGradient
       id="linearGradient3"
       inkscape:collect="always"><stop
         style="stop-color:#cc9900;stop-opacity:1"
         offset="0"
         id="stop3" /><stop
         style="stop-color:#ffff99;stop-opacity:1"
         offset="0.25999999"
         id="stop5" /><stop
         style="stop-color:#ffcc00;stop-opacity:1"
         offset="0.51999998"
         id="stop6" /><stop
         style="stop-color:#996600;stop-opacity:1"
         offset="1"
         id="stop4" /></linearGradient><linearGradient
       inkscape:collect="always"
       xlink:href="#linearGradient3"
       id="linearGradient4"
       x1="23.567709"
       y1="25.3125"
       x2="48.567711"
       y2="25.3125"
       gradientUnits="userSpaceOnUse"
       gradientTransform="matrix(0.32531351,0,0,0.32531351,9.334396,-0.11805329)" /><linearGradient
       inkscape:collect="always"
       xlink:href="#linearGradient6"
       id="linearGradient8"
       x1="30.198246"
       y1="15.241911"
       x2="49.567715"
       y2="15.241911"
       gradientUnits="userSpaceOnUse"
       gradientTransform="matrix(0.32531351,0,0,0.32531351,9.334396,-0.11805329)" /><linearGradient
       inkscape:collect="always"
       xlink:href="#linearGradient6"
       id="linearGradient30"
       gradientUnits="userSpaceOnUse"
       gradientTransform="matrix(0.32531351,0,0,0.32531351,9.334396,3.6900758)"
       x1="30.198246"
       y1="15.241911"
       x2="49.567715"
       y2="15.241911" /><linearGradient
       inkscape:collect="always"
       xlink:href="#linearGradient3"
       id="linearGradient35"
       gradientUnits="userSpaceOnUse"
       gradientTransform="matrix(0.32531351,0,0,0.32531351,9.334396,-0.11805329)"
       x1="23.567709"
       y1="25.3125"
       x2="48.567711"
       y2="25.3125" /><filter
       inkscape:collect="always"
       style="color-interpolation-filters:sRGB"
       id="filter22"
       x="-0.15868599"
       y="-0.10025813"
       width="1.317372"
       height="1.2005163"><feGaussianBlur
         inkscape:collect="always"
         stdDeviation="0.62660857"
         id="feGaussianBlur22" /></filter></defs><sodipodi:namedview
     inkscape:snap-intersection-paths="true"
     inkscape:object-paths="true"
     inkscape:snap-grids="true"
     inkscape:guide-bbox="true"
     showguides="true"
     id="base"
     pagecolor="#ffffff"
     bordercolor="#666666"
     borderopacity="1.0"
     inkscape:pageopacity="0.0"
     inkscape:pageshadow="2"
     inkscape:zoom="29.981026"
     inkscape:cx="-7.5047465"
     inkscape:cy="4.0025315"
     inkscape:document-units="px"
     inkscape:current-layer="layer1"
     inkscape:document-rotation="0"
     showgrid="true"
     units="px"
     inkscape:window-width="3840"
     inkscape:window-height="2059"
     inkscape:window-x="3840"
     inkscape:window-y="0"
     inkscape:window-maximized="1"
     inkscape:snap-bbox="true"
     inkscape:bbox-nodes="true"
     fit-margin-top="0"
     fit-margin-left="0"
     fit-margin-right="0"
     fit-margin-bottom="0"
     inkscape:bbox-paths="false"
     inkscape:pagecheckerboard="0"
     inkscape:showpageshadow="2"
     inkscape:deskcolor="#d1d1d1"><inkscape:grid
       type="xygrid"
       id="grid1504"
       originx="0"
       originy="0"
       spacingy="1"
       spacingx="1"
       units="px"
       visible="true" /><inkscape:grid
       type="xygrid"
       id="grid1507"
       spacingx="0.5"
       spacingy="0.5"
       originx="0"
       originy="0"
       units="px"
       visible="true" /></sodipodi:namedview><metadata
     id="metadata5"><rdf:RDF><cc:Work
         rdf:about=""><dc:format>image/svg+xml</dc:format><dc:type
           rdf:resource="http://purl.org/dc/dcmitype/StillImage" /></cc:Work></rdf:RDF></metadata><g
     inkscape:label="Layer 1"
     inkscape:groupmode="layer"
     id="layer1"
     transform="translate(-12.567709)"><path
       id="path21"
       style="color:#000000;opacity:0.83;fill:#000000;fill-opacity:1;fill-rule:evenodd;stroke-linecap:round;stroke-linejoin:round;-inkscape-stroke:none;filter:url(#filter22)"
       d="m 21.786801,0.74986053 c -1.088373,6.238e-4 -2.083866,0.12505178 -2.851562,0.33984377 -0.383849,0.107396 -0.711116,0.2354802 -0.97461,0.3984374 -0.263493,0.1629573 -0.489188,0.3687178 -0.560547,0.6757813 l 0.0293,-0.023437 a 0.37257627,0.37257627 0 0 1 0.25,-0.1992188 l -0.25,0.1992188 a 0.37257627,0.37257627 0 0 0 -0.05469,0.1074219 v 0.083984 2.5683594 c -0.03033,0.068385 -0.09463,0.138377 -0.117188,0.2109375 -0.047,0.1511678 -0.08327,0.3169004 -0.113281,0.484375 -0.05745,0.3205995 -0.08703,0.5993602 -0.08984,0.7851563 a 0.37257627,0.37257627 0 0 0 -0.0078,0.00781 c -3.47e-4,0.00439 0.0062,0.011202 0.0059,0.015625 -1.4e-5,0.0027 -0.002,0.00907 -0.002,0.011719 v 0.00195 h -0.0039 c 0,0.064503 0.0081,0.1105917 0.01563,0.1484374 9.87e-4,0.00498 9.53e-4,0.015002 0.002,0.019531 a 0.37257627,0.37257627 0 0 0 0.002,0 c 2.7e-5,1.314e-4 0.0019,0.00546 0.002,0.00586 0.005,0.024458 0.0099,0.051311 0.01172,0.058594 h 0.002 c 0.003,0.011854 7.77e-4,0.00956 0.0059,0.025391 a 0.37257627,0.37257627 0 0 0 0.0918,0.085938 c 0.03178,0.1787178 0.07924,0.3539873 0.195313,0.5488281 v 1.3730469 c -0.03033,0.068385 -0.09463,0.1383769 -0.117188,0.2109374 -0.047,0.1511678 -0.08327,0.3188535 -0.113281,0.4863282 -0.05744,0.3205656 -0.08703,0.597405 -0.08984,0.7832029 a 0.37257627,0.37257627 0 0 0 -0.0078,0.0078 c -3.47e-4,0.0044 0.0062,0.0112 0.0059,0.01563 -1.4e-5,0.0027 -0.002,0.0091 -0.002,0.01172 v 0.0019 h -0.0039 c 0,0.0449 0.01281,0.08026 0.01953,0.121095 0.0061,0.03831 0.0083,0.08532 0.01563,0.115234 l 0.0039,-0.002 c 0.0023,0.0077 0.0015,0.01788 0.0039,0.02539 a 0.37257627,0.37257627 0 0 0 0.08984,0.08398 c 0.03188,0.178135 0.07958,0.352736 0.195313,0.546875 v 1.982422 c 0,0.930939 0.632964,1.63906 1.464843,2.060547 0.831621,0.421492 1.890151,0.615234 2.947266,0.615234 1.057115,0 2.113434,-0.193749 2.945313,-0.615234 0.831878,-0.421487 1.466796,-1.129608 1.466796,-2.060547 V 11.12084 c 0.12754,-0.215687 0.213944,-0.430306 0.25,-0.638672 a 0.37257627,0.37257627 0 0 0 0.03516,-0.01953 c 0.0018,-0.0055 0.0038,-0.01896 0.0059,-0.02539 0.0096,-0.03028 0.02142,-0.06362 0.0293,-0.119141 h -0.0078 c 6.76e-4,-0.0074 0.0092,-0.01614 0.0098,-0.02344 a 0.37257627,0.37257627 0 0 0 -0.0078,-0.01953 c 0.0028,-0.02741 0.0098,-0.04548 0.0098,-0.07617 0,-0.184304 -0.03569,-0.4834001 -0.0957,-0.8183599 C 26.397278,9.2131874 26.361148,9.0455192 26.314145,8.8943397 26.291985,8.8230857 26.228205,8.7544592 26.19891,8.6873085 V 7.3377511 c 0.128216,-0.2168312 0.214147,-0.4332719 0.25,-0.6425781 a 0.37257627,0.37257627 0 0 0 0.03711,-0.019531 c 0.0023,-0.00718 0.0036,-0.017846 0.0059,-0.025391 0.01025,-0.034841 0.02092,-0.072027 0.02734,-0.1171875 h -0.0059 c 6e-4,-0.00662 0.0073,-0.01491 0.0078,-0.021484 a 0.37257627,0.37257627 0 0 0 -0.0078,-0.017578 c 0.0026,-0.027323 0.0098,-0.04854 0.0098,-0.078125 0,-0.1843035 -0.03569,-0.4853526 -0.0957,-0.8203125 C 26.39742,5.4280837 26.36119,5.2623685 26.314179,5.111189 26.292019,5.039935 26.228239,4.9713084 26.198944,4.9041578 V 2.3318917 2.2479074 a 0.37257627,0.37257627 0 0 0 -0.02933,-0.091797 L 25.862973,1.9119699 a 0.37257627,0.37257627 0 0 1 0.306641,0.2441406 l 0.0098,0.00781 C 26.107922,1.8564439 25.882837,1.6512067 25.618832,1.4881417 25.354827,1.3250768 25.026878,1.1951542 24.64227,1.0877512 23.873053,0.87294501 22.876696,0.74986279 21.786801,0.74986053 Z" /><g
       id="g12"
       transform="matrix(0.99343622,0,0,0.99343622,0.10694758,0)"><path
         id="path31"
         style="fill:url(#linearGradient35);fill-rule:evenodd;stroke:#996600;stroke-width:0.750001;stroke-linecap:round;stroke-linejoin:round;stroke-dasharray:none;stroke-opacity:1"
         d="m 21.067709,0.375 a 4.0664186,1.2172943 0 0 0 -4.048828,1.1328125 h -0.01758 v 0.083984 2.6386719 c -0.196919,0.172171 -0.326172,1.2410367 -0.326172,1.4726562 0,0.032294 0.003,0.064437 0.0078,0.095703 0.0027,0.017915 0.0075,0.035168 0.01172,0.052734 -0.0055,-0.017388 -0.0082,-0.035485 -0.01172,-0.052734 -0.0064,-0.031644 -0.01172,-0.062561 -0.01172,-0.09375 -0.01565,0.1979866 0.05694,0.5666291 0.330078,0.8984375 v 1.4355469 c -0.196919,0.172171 -0.326172,1.2410368 -0.326172,1.4726563 0,0.051857 0.0094,0.1012153 0.02148,0.1503906 -0.01597,-0.050085 -0.02539,-0.099486 -0.02539,-0.1484375 -0.01565,0.1979625 0.05702,0.5647071 0.330078,0.8964841 v 1.996094 c 0,3.090475 8.132812,3.090475 8.132812,0 v -1.988281 c 0.215213,-0.270278 0.305174,-0.5793458 0.326172,-0.839844 -0.0039,0.027667 -0.01251,0.055958 -0.02148,0.083984 0.01216,-0.049175 0.02148,-0.098534 0.02148,-0.1503906 0,-0.2315951 -0.129182,-1.3004964 -0.326172,-1.4726563 V 6.609375 c 0.215213,-0.2702777 0.305174,-0.5793456 0.326172,-0.8398438 -0.0038,0.026897 -0.01094,0.054794 -0.01953,0.082031 0.01168,-0.048226 0.01953,-0.09764 0.01953,-0.1484375 0,-0.2315951 -0.129182,-1.3004963 -0.326172,-1.4726562 V 1.5917969 1.5078125 h -0.0098 A 4.0664186,1.2172943 0 0 0 21.067709,0.375 Z" /><g
         id="g30"><path
           style="fill:url(#linearGradient4);fill-rule:evenodd;stroke:none;stroke-width:0.750001;stroke-linecap:round;stroke-linejoin:round;stroke-dasharray:none"
           d="M 17.00129,1.5085143 V 12.406517 c 0,3.090478 8.132838,3.090478 8.132838,0 V 1.5085143 H 17.00129"
           id="path2"
           sodipodi:nodetypes="ccccc" /><ellipse
           style="fill:#ffff99;fill-opacity:1;fill-rule:evenodd;stroke:none;stroke-width:0.750001;stroke-linecap:round;stroke-linejoin:round;stroke-dasharray:none"
           id="path3"
           cx="21.067709"
           cy="1.592474"
           rx="4.0664186"
           ry="1.2172943" /><path
           id="path3-6-5"
           style="color:#000000;fill:#996600;fill-rule:evenodd;stroke-width:0.750001;stroke-linecap:round;stroke-linejoin:round;stroke-dasharray:none"
           d="m 17.760567,7.1269398 c 0.909427,0.3388205 2.022334,0.5121147 3.307142,0.5121147 1.284808,0 2.473549,-0.22517 3.307142,-0.5121147 0.833594,-0.2869447 1.070231,-0.9531832 1.089038,-1.4216311 0,0.1676181 -0.09025,0.3416817 -0.296721,0.5235514 -0.206474,0.1818698 -0.523717,-0.5037372 -0.92384,-0.3546652 -0.800245,0.2981433 -1.928672,0.6258053 -3.175619,0.6258053 -1.246946,0 -2.376009,-0.327662 -3.176254,-0.6258053 -0.400123,-0.149072 -0.717367,0.536535 -0.92384,0.3546652 -0.206473,-0.1818684 -0.296086,-0.355932 -0.296086,-0.5235501 -0.02529,0.3199006 0.179611,1.0828093 1.089038,1.4216298 z"
           sodipodi:nodetypes="zszcssssscz" /><path
           id="path3-6"
           style="color:#000000;fill:url(#linearGradient8);fill-rule:evenodd;stroke-width:0.750001;stroke-linecap:round;stroke-linejoin:round;stroke-dasharray:none"
           d="m 17.00129,4.2311089 c -0.196919,0.1721712 -0.325313,1.2400401 -0.325313,1.4716598 0,0.2583519 0.158522,0.4844936 0.395205,0.6677821 0.236683,0.1832881 0.560688,0.3372212 0.954973,0.4663675 0.788568,0.2582917 1.859333,0.4136309 3.041554,0.4136309 1.182222,0 2.25235,-0.1553392 3.040919,-0.4136309 0.394284,-0.1291463 0.71829,-0.2830794 0.954973,-0.4663675 0.236683,-0.1832885 0.39584,-0.4094302 0.39584,-0.6677821 0,-0.2315953 -0.128323,-1.2994997 -0.325313,-1.4716598 v 0.6093275 0.046382 h -0.0038 c -0.01735,0.1118184 -0.09786,0.2341825 -0.265588,0.3640714 -0.191321,0.1481608 -0.486734,0.2927386 -0.85776,0.4142666 -0.742052,0.2430557 -1.78583,0.3977465 -2.939258,0.3977465 -1.153428,0 -2.197841,-0.1546908 -2.939894,-0.3977465 C 17.756789,5.5436289 17.461377,5.3990511 17.270055,5.2508903 17.102327,5.1210014 17.022333,4.9986373 17.005102,4.8868189 h -0.0038 v -0.046382 z"
           sodipodi:nodetypes="csssssssccccssssscccc" /><path
           id="path29"
           style="color:#000000;fill:#996600;fill-rule:evenodd;stroke-width:0.750001;stroke-linecap:round;stroke-linejoin:round;stroke-dasharray:none"
           d="m 17.760567,10.935069 c 0.909427,0.33882 2.022334,0.512115 3.307142,0.512115 1.284808,0 2.473549,-0.22517 3.307142,-0.512115 0.833594,-0.286945 1.070231,-0.9531834 1.089038,-1.4216313 0,0.1676181 -0.09025,0.3416817 -0.296721,0.5235513 -0.206474,0.18187 -0.523717,-0.5037371 -0.92384,-0.3546651 -0.800245,0.2981433 -1.928672,0.6258051 -3.175619,0.6258051 -1.246946,0 -2.376009,-0.3276618 -3.176254,-0.6258051 -0.400123,-0.149072 -0.717367,0.5365351 -0.92384,0.3546651 -0.206473,-0.1818683 -0.296086,-0.3559319 -0.296086,-0.52355 -0.02529,0.3199006 0.179611,1.082809 1.089038,1.42163 z"
           sodipodi:nodetypes="zszcssssscz" /><path
           id="path30"
           style="color:#000000;fill:url(#linearGradient30);fill-rule:evenodd;stroke-width:0.750001;stroke-linecap:round;stroke-linejoin:round;stroke-dasharray:none"
           d="m 17.00129,8.0392379 c -0.196919,0.1721712 -0.325313,1.2400401 -0.325313,1.4716598 0,0.2583519 0.158522,0.4844936 0.395205,0.6677823 0.236683,0.183288 0.560688,0.337221 0.954973,0.466367 0.788568,0.258292 1.859333,0.413631 3.041554,0.413631 1.182222,0 2.25235,-0.155339 3.040919,-0.413631 0.394284,-0.129146 0.71829,-0.283079 0.954973,-0.466367 0.236683,-0.1832887 0.39584,-0.4094304 0.39584,-0.6677823 0,-0.2315953 -0.128323,-1.2994997 -0.325313,-1.4716598 v 0.6093275 0.046382 h -0.0038 c -0.01735,0.1118184 -0.09786,0.2341825 -0.265588,0.3640714 -0.191321,0.1481608 -0.486734,0.2927386 -0.85776,0.4142666 -0.742052,0.2430557 -1.78583,0.3977465 -2.939258,0.3977465 -1.153428,0 -2.197841,-0.1546908 -2.939894,-0.3977465 C 17.756789,9.3517579 17.461377,9.2071801 17.270055,9.0590193 17.102327,8.9291304 17.022333,8.8067663 17.005102,8.6949479 h -0.0038 v -0.046382 z"
           sodipodi:nodetypes="csssssssccccssssscccc" /></g></g></g></svg>
