<?xml version="1.0" encoding="UTF-8"?>
<svg version="1.1" viewBox="0 0 16 16" xmlns="http://www.w3.org/2000/svg" xmlns:xlink="http://www.w3.org/1999/xlink">
 <defs>
  <filter id="filter963" x="-.13823" y="-.11059" width="1.2765" height="1.2212" color-interpolation-filters="sRGB">
   <feGaussianBlur stdDeviation="0.69118713"/>
  </filter>
  <linearGradient id="linearGradient32816-3" x1="-28.683" x2="-38.225" y1="21.128" y2="9.0369" gradientUnits="userSpaceOnUse">
   <stop stop-color="#9cf" offset="0"/>
   <stop stop-color="#fff" offset="1"/>
  </linearGradient>
  <linearGradient id="linearGradient26952-6" x1="8.0956" x2="7.2706" y1="1.4188" y2=".45848" gradientTransform="matrix(1.5872 0 0 1.5872 -42.561 7.9305)" gradientUnits="userSpaceOnUse">
   <stop stop-color="#2da8ff" offset="0"/>
   <stop stop-color="#74c0ff" offset="1"/>
  </linearGradient>
  <linearGradient id="linearGradient57243-7" x1="-31.156" x2="-28.432" y1="10.5" y2="10.5" gradientTransform="translate(0 -.25)" gradientUnits="userSpaceOnUse">
   <stop stop-color="#0096fc" offset="0"/>
   <stop stop-color="#0068ce" offset="1"/>
  </linearGradient>
  <linearGradient id="linearGradient33220-5" x1="-30.932" x2="-28.932" y1="11" y2="11" gradientUnits="userSpaceOnUse">
   <stop stop-color="#ccd5ff" offset="0"/>
   <stop stop-color="#aab3f5" offset="1"/>
  </linearGradient>
  <linearGradient id="linearGradient19558-3" x1="-27.932" x2="-27.932" y1="21" y2="11.5" gradientUnits="userSpaceOnUse">
   <stop stop-color="#a5bdee" offset="0"/>
   <stop stop-color="#bac9f4" offset="1"/>
  </linearGradient>
  <linearGradient id="linearGradient10737-5" x1="-37.932" x2="-28.932" y1="22" y2="22" gradientUnits="userSpaceOnUse">
   <stop stop-color="#9dadd9" offset="0"/>
   <stop stop-color="#8b8eb8" offset="1"/>
  </linearGradient>
  <linearGradient id="linearGradient1922-6" x1="-38.932" x2="-38.932" y1="22.025" y2="14.78" gradientUnits="userSpaceOnUse">
   <stop stop-color="#6e7bae" offset="0"/>
   <stop stop-color="#87a9dc" offset="1"/>
  </linearGradient>
  <linearGradient id="linearGradient40780">
   <stop stop-color="#93b8ff" offset="0"/>
   <stop stop-color="#05f" offset="1"/>
  </linearGradient>
  <linearGradient id="linearGradient1629" x1="-33.432" x2="-28.432" y1="70.5" y2="70.5" gradientTransform="translate(0,-17)" gradientUnits="userSpaceOnUse" xlink:href="#linearGradient40780"/>
  <linearGradient id="linearGradient15186" x1="-33.432" x2="-28.432" y1="70.5" y2="70.5" gradientTransform="translate(5,-17)" gradientUnits="userSpaceOnUse" xlink:href="#linearGradient40780"/>
  <linearGradient id="linearGradient15209" x1="-33.432" x2="-28.432" y1="70.5" y2="70.5" gradientTransform="translate(10,-17)" gradientUnits="userSpaceOnUse" xlink:href="#linearGradient40780"/>
  <linearGradient id="linearGradient15218" x1="-19.932" x2="-31.932" y1="61.5" y2="57.5" gradientUnits="userSpaceOnUse">
   <stop stop-color="#cadaff" offset="0"/>
   <stop stop-color="#fff" offset="1"/>
  </linearGradient>
  <linearGradient id="linearGradient21964" x1="-32.932" x2="-19.432" y1="57" y2="62.5" gradientUnits="userSpaceOnUse">
   <stop stop-color="#1976fc" offset="0"/>
   <stop stop-color="#014295" offset="1"/>
  </linearGradient>
  <linearGradient id="linearGradient31252" x1="-30.932" x2="-20.932" y1="58.5" y2="60.5" gradientUnits="userSpaceOnUse">
   <stop stop-color="#2483ff" offset="0"/>
   <stop stop-color="#004296" offset="1"/>
  </linearGradient>
  <filter id="filter40405" x="-.046096" y="-.050068" width="1.0922" height="1.1001" color-interpolation-filters="sRGB">
   <feGaussianBlur stdDeviation="4.6480078"/>
  </filter>
 </defs>
 <path d="m2.9 0.90009v14.499a0.49998 0.49998 0 0 0 0.0625 0.2246 0.49998 0.49998 0 0 0 0.03516 0.05469 0.49998 0.49998 0 0 0 0.12109 0.12304 0.49998 0.49998 0 0 0 0.05664 0.03711 0.49998 0.49998 0 0 0 0.2246 0.06055h11a0.49998 0.49998 0 0 0 0.49998-0.49998v-10.978a0.49998 0.49998 0 0 0-0.01953-0.1621 0.49998 0.49998 0 0 0-2e-3 -0.0059 0.49998 0.49998 0 0 0-0.02344-0.06055 0.49998 0.49998 0 0 0-0.01953-0.03711 0.49998 0.49998 0 0 0-2e-3 -2e-3 0.49998 0.49998 0 0 0-0.01172-0.02344 0.49998 0.49998 0 0 0-0.0098-0.01367 0.49998 0.49998 0 0 0-0.0039-0.0039 0.49998 0.49998 0 0 0-0.04297-0.05274l-2.4823-2.9803a0.49998 0.49998 0 0 0 0-0.00195 0.49998 0.49998 0 0 0-0.0957-0.085933 0.49998 0.49998 0 0 0-0.0039-0.00195 0.49998 0.49998 0 0 0-0.2246-0.08398 0.49998 0.49998 0 0 0-0.0293-0.00391 0.49998 0.49998 0 0 0-0.0293-0.00195z" fill-rule="evenodd" filter="url(#filter963)" opacity=".83" stop-color="#000000" stroke-linecap="round" stroke-linejoin="round"/>
 <g transform="translate(41.438 -7.4946)">
  <path d="m-38.932 8h8.5041l2.4959 3.1204v10.88h-11z" fill="url(#linearGradient32816-3)" fill-rule="evenodd" stop-color="#000000" stroke-linecap="round" stroke-linejoin="round"/>
  <path d="m-31.432 8.1405v2.8595h3.5l-3.0801-2.8595z" fill="url(#linearGradient26952-6)"/>
  <path d="m-31.432 10.25h3" fill="none" stroke="url(#linearGradient57243-7)" stroke-width=".5"/>
  <path d="m-27.932 11h-3.5" fill="#aab3f5" stroke="url(#linearGradient33220-5)" stroke-width="1px"/>
  <g fill="none" stroke-linecap="round" stroke-width="1px">
   <path d="m-27.932 22v-11" stroke="url(#linearGradient19558-3)"/>
   <path d="m-38.932 22h11" stroke="url(#linearGradient10737-5)"/>
   <path d="m-30.432 8h-8.5v14" stroke="url(#linearGradient1922-6)"/>
   <path d="m-30.432 8 2.5 3" stroke="#87a9dc"/>
  </g>
 </g>
 <g transform="matrix(.037834 0 0 .037834 3.0091 4.198)">
  <path d="m50.477 21.85v16.133h16.133v-16.133zm80.666 0v16.133h16.133v-16.133zm80.666 0v16.133h16.133v-16.133zm-161.33 32.268v32.266h-32.268l40.334 48.4 40.332-48.4h-32.266v-32.266zm48.398 32.266 40.334 48.4 40.334-48.4h-32.268v-32.266h-16.133v32.266zm80.668 0 40.332 48.4 40.334-48.4h-32.268v-32.266h-16.133v32.266zm-158.27 51.467v106.8h235.87v-106.8z" color="#000000" fill="#212121" filter="url(#filter40405)" stroke-width="10" style="-inkscape-stroke:none"/>
  <g transform="matrix(16.133,0,0,16.133,552.58,-772.68)" stroke-width=".61984">
   <path d="m-32.932 56.5v6h14v-6z" fill="url(#linearGradient15218)" stroke="url(#linearGradient21964)" stroke-width=".81916"/>
   <path d="m-31.432 58v1h1v-1zm2 0v1h1v-1zm2 0v1h1v-1zm2 0v1h1v-1zm2 0v1h1v-1zm2 0v1h1v-1zm-10 2v1h1v-1zm2 0v1h1v-1zm2 0v1h1v-1zm2 0v1h1v-1zm2 0v1h1v-1zm2 0v1h1v-1z" fill="url(#linearGradient31252)"/>
   <path d="m-31.432 49v1h1v-1zm0 2v2h-2l2.5 3 2.5-3h-2v-2z" fill="url(#linearGradient1629)"/>
   <path d="m-26.432 49v1h1v-1zm0 2v2h-2l2.5 3 2.5-3h-2v-2z" fill="url(#linearGradient15186)"/>
   <path d="m-21.432 49v1h1v-1zm0 2v2h-2l2.5 3 2.5-3h-2v-2z" fill="url(#linearGradient15209)"/>
  </g>
 </g>
</svg>
