<?xml version="1.0" encoding="UTF-8" standalone="no"?>
<svg
   inkscape:export-ydpi="96"
   inkscape:export-xdpi="96"
   inkscape:export-filename="/media/klapeto/Αρχεία/WindowsXP Theme/Vectors/RASTER/database.png"
   width="16"
   height="16"
   viewBox="0 0 16 16"
   version="1.1"
   id="svg8"
   inkscape:version="1.2.2 (b0a8486541, 2022-12-01)"
   sodipodi:docname="manageDataSources.svg"
   xml:space="preserve"
   xmlns:inkscape="http://www.inkscape.org/namespaces/inkscape"
   xmlns:sodipodi="http://sodipodi.sourceforge.net/DTD/sodipodi-0.dtd"
   xmlns:xlink="http://www.w3.org/1999/xlink"
   xmlns="http://www.w3.org/2000/svg"
   xmlns:svg="http://www.w3.org/2000/svg"
   xmlns:rdf="http://www.w3.org/1999/02/22-rdf-syntax-ns#"
   xmlns:cc="http://creativecommons.org/ns#"
   xmlns:dc="http://purl.org/dc/elements/1.1/"><defs
     id="defs2"><linearGradient
       id="linearGradient6"
       inkscape:collect="always"><stop
         style="stop-color:#ffff99;stop-opacity:1"
         offset="0"
         id="stop7" /><stop
         style="stop-color:#cc9900;stop-opacity:1"
         offset="1"
         id="stop8" /></linearGradient><linearGradient
       id="linearGradient3"
       inkscape:collect="always"><stop
         style="stop-color:#cc9900;stop-opacity:1"
         offset="0"
         id="stop3" /><stop
         style="stop-color:#ffff99;stop-opacity:1"
         offset="0.25999999"
         id="stop5" /><stop
         style="stop-color:#ffcc00;stop-opacity:1"
         offset="0.51999998"
         id="stop6" /><stop
         style="stop-color:#996600;stop-opacity:1"
         offset="1"
         id="stop4" /></linearGradient><linearGradient
       inkscape:collect="always"
       xlink:href="#linearGradient3"
       id="linearGradient4"
       x1="23.567709"
       y1="25.3125"
       x2="48.567711"
       y2="25.3125"
       gradientUnits="userSpaceOnUse"
       gradientTransform="matrix(0.32531351,0,0,0.32531351,9.334396,-0.11805329)" /><linearGradient
       inkscape:collect="always"
       xlink:href="#linearGradient6"
       id="linearGradient8"
       x1="30.198246"
       y1="15.241911"
       x2="49.567715"
       y2="15.241911"
       gradientUnits="userSpaceOnUse"
       gradientTransform="matrix(0.32531351,0,0,0.32531351,9.334396,-0.11805329)" /><linearGradient
       inkscape:collect="always"
       xlink:href="#linearGradient6"
       id="linearGradient30"
       gradientUnits="userSpaceOnUse"
       gradientTransform="matrix(0.32531351,0,0,0.32531351,9.334396,3.6900758)"
       x1="30.198246"
       y1="15.241911"
       x2="49.567715"
       y2="15.241911" /><linearGradient
       inkscape:collect="always"
       xlink:href="#linearGradient3"
       id="linearGradient35"
       gradientUnits="userSpaceOnUse"
       gradientTransform="matrix(0.32531351,0,0,0.32531351,9.334396,-0.11805329)"
       x1="23.567709"
       y1="25.3125"
       x2="48.567711"
       y2="25.3125" /><filter
       inkscape:collect="always"
       style="color-interpolation-filters:sRGB"
       id="filter22"
       x="-0.15868599"
       y="-0.10025813"
       width="1.317372"
       height="1.2005163"><feGaussianBlur
         inkscape:collect="always"
         stdDeviation="0.62660857"
         id="feGaussianBlur22" /></filter><linearGradient
       id="linearGradient1070"
       x1="-67.433"
       x2="-67.433"
       y1="48.84"
       y2="3.6783"
       gradientTransform="translate(109.97,-2.0158)"
       gradientUnits="userSpaceOnUse"><stop
         stop-color="#cacaff"
         offset="0"
         id="stop260" /><stop
         stop-color="#6a6ad0"
         offset="1"
         id="stop262" /></linearGradient><filter
       id="filter852"
       x="-0.13003578"
       y="-0.11647126"
       width="1.2600716"
       height="1.2329425"
       color-interpolation-filters="sRGB"><feGaussianBlur
         stdDeviation="11.646522"
         id="feGaussianBlur265" /></filter></defs><sodipodi:namedview
     inkscape:snap-intersection-paths="true"
     inkscape:object-paths="true"
     inkscape:snap-grids="true"
     inkscape:guide-bbox="true"
     showguides="true"
     id="base"
     pagecolor="#ffffff"
     bordercolor="#666666"
     borderopacity="1.0"
     inkscape:pageopacity="0.0"
     inkscape:pageshadow="2"
     inkscape:zoom="29.981026"
     inkscape:cx="-0.78382908"
     inkscape:cy="-7.3379744"
     inkscape:document-units="px"
     inkscape:current-layer="layer1"
     inkscape:document-rotation="0"
     showgrid="true"
     units="px"
     inkscape:window-width="3840"
     inkscape:window-height="2058"
     inkscape:window-x="1280"
     inkscape:window-y="0"
     inkscape:window-maximized="1"
     inkscape:snap-bbox="true"
     inkscape:bbox-nodes="true"
     fit-margin-top="0"
     fit-margin-left="0"
     fit-margin-right="0"
     fit-margin-bottom="0"
     inkscape:bbox-paths="false"
     inkscape:pagecheckerboard="0"
     inkscape:showpageshadow="2"
     inkscape:deskcolor="#d1d1d1"><inkscape:grid
       type="xygrid"
       id="grid1504"
       originx="0"
       originy="0"
       spacingy="1"
       spacingx="1"
       units="px"
       visible="true" /><inkscape:grid
       type="xygrid"
       id="grid1507"
       spacingx="0.5"
       spacingy="0.5"
       originx="0"
       originy="0"
       units="px"
       visible="true" /></sodipodi:namedview><metadata
     id="metadata5"><rdf:RDF><cc:Work
         rdf:about=""><dc:format>image/svg+xml</dc:format><dc:type
           rdf:resource="http://purl.org/dc/dcmitype/StillImage" /></cc:Work></rdf:RDF></metadata><g
     inkscape:label="Layer 1"
     inkscape:groupmode="layer"
     id="layer1"
     transform="translate(-12.567709)"><path
       id="path21"
       style="color:#000000;opacity:0.83;fill:#000000;fill-opacity:1;fill-rule:evenodd;stroke-linecap:round;stroke-linejoin:round;-inkscape-stroke:none;filter:url(#filter22)"
       d="m 18.818137,0.74986053 c -1.088373,6.238e-4 -2.083866,0.12505178 -2.851562,0.33984377 -0.383849,0.107396 -0.711116,0.2354802 -0.97461,0.3984374 -0.263493,0.1629573 -0.489188,0.3687178 -0.560547,0.6757813 l 0.0293,-0.023437 a 0.37257627,0.37257627 0 0 1 0.25,-0.1992188 l -0.25,0.1992188 a 0.37257627,0.37257627 0 0 0 -0.05469,0.1074219 v 0.083984 2.5683594 c -0.03033,0.068385 -0.09463,0.138377 -0.117188,0.2109375 -0.047,0.1511678 -0.08327,0.3169004 -0.113281,0.484375 -0.05745,0.3205995 -0.08703,0.5993602 -0.08984,0.7851563 a 0.37257627,0.37257627 0 0 0 -0.0078,0.00781 c -3.47e-4,0.00439 0.0062,0.011202 0.0059,0.015625 -1.4e-5,0.0027 -0.002,0.00907 -0.002,0.011719 v 0.00195 h -0.0039 c 0,0.064503 0.0081,0.1105917 0.01563,0.1484374 9.87e-4,0.00498 9.53e-4,0.015002 0.002,0.019531 a 0.37257627,0.37257627 0 0 0 0.002,0 c 2.7e-5,1.314e-4 0.0019,0.00546 0.002,0.00586 0.005,0.024458 0.0099,0.051311 0.01172,0.058594 h 0.002 c 0.003,0.011854 7.77e-4,0.00956 0.0059,0.025391 a 0.37257627,0.37257627 0 0 0 0.0918,0.085938 c 0.03178,0.1787178 0.07924,0.3539873 0.195313,0.5488281 v 1.3730469 c -0.03033,0.068385 -0.09463,0.1383769 -0.117188,0.2109374 -0.047,0.1511678 -0.08327,0.3188535 -0.113281,0.4863282 -0.05744,0.3205656 -0.08703,0.597405 -0.08984,0.7832029 a 0.37257627,0.37257627 0 0 0 -0.0078,0.0078 c -3.47e-4,0.0044 0.0062,0.0112 0.0059,0.01563 -1.4e-5,0.0027 -0.002,0.0091 -0.002,0.01172 v 0.0019 h -0.0039 c 0,0.0449 0.01281,0.08026 0.01953,0.121095 0.0061,0.03831 0.0083,0.08532 0.01563,0.115234 l 0.0039,-0.002 c 0.0023,0.0077 0.0015,0.01788 0.0039,0.02539 a 0.37257627,0.37257627 0 0 0 0.08984,0.08398 c 0.03188,0.178135 0.07958,0.352736 0.195313,0.546875 v 1.982422 c 0,0.930939 0.632964,1.63906 1.464843,2.060547 0.831621,0.421492 1.890151,0.615234 2.947266,0.615234 1.057115,0 2.113434,-0.193749 2.945313,-0.615234 0.831878,-0.421487 1.466796,-1.129608 1.466796,-2.060547 V 11.12084 c 0.12754,-0.215687 0.213944,-0.430306 0.25,-0.638672 a 0.37257627,0.37257627 0 0 0 0.03516,-0.01953 c 0.0018,-0.0055 0.0038,-0.01896 0.0059,-0.02539 0.0096,-0.03028 0.02142,-0.06362 0.0293,-0.119141 h -0.0078 c 6.76e-4,-0.0074 0.0092,-0.01614 0.0098,-0.02344 a 0.37257627,0.37257627 0 0 0 -0.0078,-0.01953 c 0.0028,-0.02741 0.0098,-0.04548 0.0098,-0.07617 0,-0.184304 -0.03569,-0.4834001 -0.0957,-0.8183599 -0.03055,-0.1674197 -0.06668,-0.3350879 -0.113683,-0.4862674 -0.02216,-0.071254 -0.08594,-0.1398805 -0.115235,-0.2070312 V 7.3377511 c 0.128216,-0.2168312 0.214147,-0.4332719 0.25,-0.6425781 a 0.37257627,0.37257627 0 0 0 0.03711,-0.019531 c 0.0023,-0.00718 0.0036,-0.017846 0.0059,-0.025391 0.01025,-0.034841 0.02092,-0.072027 0.02734,-0.1171875 h -0.0059 c 6e-4,-0.00662 0.0073,-0.01491 0.0078,-0.021484 a 0.37257627,0.37257627 0 0 0 -0.0078,-0.017578 c 0.0026,-0.027323 0.0098,-0.04854 0.0098,-0.078125 0,-0.1843035 -0.03569,-0.4853526 -0.0957,-0.8203125 C 23.428756,5.4280837 23.392526,5.2623685 23.345515,5.111189 23.323355,5.039935 23.259575,4.9713084 23.23028,4.9041578 V 2.3318917 2.2479074 A 0.37257627,0.37257627 0 0 0 23.20095,2.1561104 L 22.894309,1.9119699 a 0.37257627,0.37257627 0 0 1 0.306641,0.2441406 l 0.0098,0.00781 C 23.139258,1.8564439 22.914173,1.6512067 22.650168,1.4881417 22.386163,1.3250768 22.058214,1.1951542 21.673606,1.0877512 20.904389,0.87294501 19.908032,0.74986279 18.818137,0.74986053 Z" /><g
       id="g12"
       transform="matrix(0.99343622,0,0,0.99343622,-2.8617162,0)"><path
         id="path31"
         style="fill:url(#linearGradient35);fill-rule:evenodd;stroke:#996600;stroke-width:0.750001;stroke-linecap:round;stroke-linejoin:round;stroke-dasharray:none;stroke-opacity:1"
         d="m 21.067709,0.375 a 4.0664186,1.2172943 0 0 0 -4.048828,1.1328125 h -0.01758 v 0.083984 2.6386719 c -0.196919,0.172171 -0.326172,1.2410367 -0.326172,1.4726562 0,0.032294 0.003,0.064437 0.0078,0.095703 0.0027,0.017915 0.0075,0.035168 0.01172,0.052734 -0.0055,-0.017388 -0.0082,-0.035485 -0.01172,-0.052734 -0.0064,-0.031644 -0.01172,-0.062561 -0.01172,-0.09375 -0.01565,0.1979866 0.05694,0.5666291 0.330078,0.8984375 V 8.039062 c -0.196919,0.172171 -0.326172,1.2410368 -0.326172,1.4726563 0,0.051857 0.0094,0.1012153 0.02148,0.1503906 -0.01597,-0.050085 -0.02539,-0.099486 -0.02539,-0.1484375 -0.01565,0.1979625 0.05702,0.5647066 0.330078,0.8964846 v 1.996094 c 0,3.090474 8.132812,3.090474 8.132812,0 v -1.988282 c 0.215213,-0.270277 0.305174,-0.5793453 0.326172,-0.8398435 -0.0039,0.027667 -0.01251,0.055958 -0.02148,0.083984 0.01216,-0.049175 0.02148,-0.098534 0.02148,-0.1503906 0,-0.2315951 -0.129182,-1.3004964 -0.326172,-1.4726563 V 6.609375 c 0.215213,-0.2702777 0.305174,-0.5793456 0.326172,-0.8398438 -0.0038,0.026897 -0.01094,0.054794 -0.01953,0.082031 0.01168,-0.048226 0.01953,-0.09764 0.01953,-0.1484375 0,-0.2315951 -0.129182,-1.3004963 -0.326172,-1.4726562 V 1.5917969 1.5078125 h -0.0098 A 4.0664186,1.2172943 0 0 0 21.067709,0.375 Z" /><g
         id="g30"><path
           style="fill:url(#linearGradient4);fill-rule:evenodd;stroke:none;stroke-width:0.750001;stroke-linecap:round;stroke-linejoin:round;stroke-dasharray:none"
           d="M 17.00129,1.5085143 V 12.406517 c 0,3.090478 8.132838,3.090478 8.132838,0 V 1.5085143 H 17.00129"
           id="path2"
           sodipodi:nodetypes="ccccc" /><ellipse
           style="fill:#ffff99;fill-opacity:1;fill-rule:evenodd;stroke:none;stroke-width:0.750001;stroke-linecap:round;stroke-linejoin:round;stroke-dasharray:none"
           id="path3"
           cx="21.067709"
           cy="1.592474"
           rx="4.0664186"
           ry="1.2172943" /><path
           id="path3-6-5"
           style="color:#000000;fill:#996600;fill-rule:evenodd;stroke-width:0.750001;stroke-linecap:round;stroke-linejoin:round;stroke-dasharray:none"
           d="m 17.760567,7.1269398 c 0.909427,0.3388205 2.022334,0.5121147 3.307142,0.5121147 1.284808,0 2.473549,-0.22517 3.307142,-0.5121147 0.833594,-0.2869447 1.070231,-0.9531832 1.089038,-1.4216311 0,0.1676181 -0.09025,0.3416817 -0.296721,0.5235514 -0.206474,0.1818698 -0.523717,-0.5037372 -0.92384,-0.3546652 -0.800245,0.2981433 -1.928672,0.6258053 -3.175619,0.6258053 -1.246946,0 -2.376009,-0.327662 -3.176254,-0.6258053 -0.400123,-0.149072 -0.717367,0.536535 -0.92384,0.3546652 -0.206473,-0.1818684 -0.296086,-0.355932 -0.296086,-0.5235501 -0.02529,0.3199006 0.179611,1.0828093 1.089038,1.4216298 z"
           sodipodi:nodetypes="zszcssssscz" /><path
           id="path3-6"
           style="color:#000000;fill:url(#linearGradient8);fill-rule:evenodd;stroke-width:0.750001;stroke-linecap:round;stroke-linejoin:round;stroke-dasharray:none"
           d="m 17.00129,4.2311089 c -0.196919,0.1721712 -0.325313,1.2400401 -0.325313,1.4716598 0,0.2583519 0.158522,0.4844936 0.395205,0.6677821 0.236683,0.1832881 0.560688,0.3372212 0.954973,0.4663675 0.788568,0.2582917 1.859333,0.4136309 3.041554,0.4136309 1.182222,0 2.25235,-0.1553392 3.040919,-0.4136309 0.394284,-0.1291463 0.71829,-0.2830794 0.954973,-0.4663675 0.236683,-0.1832885 0.39584,-0.4094302 0.39584,-0.6677821 0,-0.2315953 -0.128323,-1.2994997 -0.325313,-1.4716598 v 0.6093275 0.046382 h -0.0038 c -0.01735,0.1118184 -0.09786,0.2341825 -0.265588,0.3640714 -0.191321,0.1481608 -0.486734,0.2927386 -0.85776,0.4142666 -0.742052,0.2430557 -1.78583,0.3977465 -2.939258,0.3977465 -1.153428,0 -2.197841,-0.1546908 -2.939894,-0.3977465 C 17.756789,5.5436289 17.461377,5.3990511 17.270055,5.2508903 17.102327,5.1210014 17.022333,4.9986373 17.005102,4.8868189 h -0.0038 v -0.046382 z"
           sodipodi:nodetypes="csssssssccccssssscccc" /><path
           id="path29"
           style="color:#000000;fill:#996600;fill-rule:evenodd;stroke-width:0.750001;stroke-linecap:round;stroke-linejoin:round;stroke-dasharray:none"
           d="m 17.760567,10.935069 c 0.909427,0.33882 2.022334,0.512115 3.307142,0.512115 1.284808,0 2.473549,-0.22517 3.307142,-0.512115 0.833594,-0.286945 1.070231,-0.9531834 1.089038,-1.4216313 0,0.1676181 -0.09025,0.3416817 -0.296721,0.5235513 -0.206474,0.18187 -0.523717,-0.5037371 -0.92384,-0.3546651 -0.800245,0.2981433 -1.928672,0.6258051 -3.175619,0.6258051 -1.246946,0 -2.376009,-0.3276618 -3.176254,-0.6258051 -0.400123,-0.149072 -0.717367,0.5365351 -0.92384,0.3546651 -0.206473,-0.1818683 -0.296086,-0.3559319 -0.296086,-0.52355 -0.02529,0.3199006 0.179611,1.082809 1.089038,1.42163 z"
           sodipodi:nodetypes="zszcssssscz" /><path
           id="path30"
           style="color:#000000;fill:url(#linearGradient30);fill-rule:evenodd;stroke-width:0.750001;stroke-linecap:round;stroke-linejoin:round;stroke-dasharray:none"
           d="m 17.00129,8.0392379 c -0.196919,0.1721712 -0.325313,1.2400401 -0.325313,1.4716598 0,0.2583519 0.158522,0.4844936 0.395205,0.6677823 0.236683,0.183288 0.560688,0.337221 0.954973,0.466367 0.788568,0.258292 1.859333,0.413631 3.041554,0.413631 1.182222,0 2.25235,-0.155339 3.040919,-0.413631 0.394284,-0.129146 0.71829,-0.283079 0.954973,-0.466367 0.236683,-0.1832887 0.39584,-0.4094304 0.39584,-0.6677823 0,-0.2315953 -0.128323,-1.2994997 -0.325313,-1.4716598 v 0.6093275 0.046382 h -0.0038 c -0.01735,0.1118184 -0.09786,0.2341825 -0.265588,0.3640714 -0.191321,0.1481608 -0.486734,0.2927386 -0.85776,0.4142666 -0.742052,0.2430557 -1.78583,0.3977465 -2.939258,0.3977465 -1.153428,0 -2.197841,-0.1546908 -2.939894,-0.3977465 C 17.756789,9.3517579 17.461377,9.2071801 17.270055,9.0590193 17.102327,8.9291304 17.022333,8.8067663 17.005102,8.6949479 h -0.0038 v -0.046382 z"
           sodipodi:nodetypes="csssssssccccssssscccc" /></g></g><g
       transform="matrix(0.04002218,0,0,0.04002218,17.805972,5.2084766)"
       id="g278"><path
         d="m 150.98,14.001 c -0.42177,-0.0037 -0.80999,0.0014 -1.1621,0.01758 -5.634,0.25825 -11.2,3.9529 -12.307,6.0605 -3.3375,6.3576 -0.13546,19.511 -4.1074,25.418 -2.6489,-3.3905 -5.4228,-7.0312 -8.4922,-8.543 -5.4e-4,-2.68e-4 -10e-4,2.68e-4 -0.002,0 -2.4827,-2.2782 -6.5767,-4.2797 -13.457,-5.248 -10.858,-1.5281 -22.307,8.118 -21.316,15.301 1.2974,9.4099 11.053,22.435 7.2754,26.529 -3.7046,4.0152 -20.676,-2.1413 -25.758,-2.6426 -7.5345,-0.7433 -22.24,20.172 -15.172,27.094 6.577,6.4405 17.947,12.675 16.863,17.721 -2.2699,10.571 -17.384,8.2722 -23.924,13.006 -3.2425,2.3468 -3.9765,23.595 2.3828,28.242 5.003,3.656 9.4347,4.8378 13.033,5.1875 2.6978,1.1802 6.2555,1.7582 9.7363,2.2461 0.43714,7.9503 -10.792,11.677 -16.217,21.439 -3.8191,6.8726 13.332,36.679 28.803,28.264 2.2438,-0.32188 4.1987,-1.0831 5.918,-2.0156 -0.98926,4.5385 -2.7871,9.9808 -2.877,16.545 -0.07515,5.4889 14.835,14.785 25.459,16.84 4.067,1.2704 8.205,1.3874 11.057,-0.51367 3.3275,-2.2184 5.2959,-5.9822 6.9141,-9.4492 0.57354,4.0069 1.3729,8.2231 3.7422,11.484 1.5318,2.1086 7.5624,4.4326 13.482,5.8066 1.748,0.82199 4.5471,1.1716 7.5605,1.1621 1.4198,0.0743 2.6719,0.037 3.5996,-0.17382 4.7684,-0.43984 9.2475,-1.6651 10.209,-3.3047 4.1388,-7.0578 3.3698,-19.776 6.8242,-25.115 1.6249,2.0068 3.5341,4.0937 6.0449,5.7676 4.3878,2.9252 9.1798,5.0874 13.695,5.4883 8.1041,2.449 22.075,-10.075 21.982,-16.857 -0.16411,-11.986 -9.5828,-19.943 -6.043,-25.9 2.1873,-3.6808 7.8972,1.139 18.609,1.9551 11.039,0.84103 22.121,-17.833 18.182,-24.922 -5.4508,-9.8091 -18.379,-10.673 -17.244,-18.641 1.1382,-7.9929 15.66,-7.1649 22.689,-11.029 6.9021,-3.7943 5.648,-27.82 2.1035,-29.68 -0.30736,-0.16124 -0.63077,-0.30137 -0.96094,-0.43164 -2.3713,-2.3027 -5.4665,-3.444 -6.9434,-4.2188 -3.6954,-1.9386 -10.142,-1.5376 -15.932,-1.6211 -0.006,-0.0245 -0.0141,-0.0456 -0.0195,-0.0703 -1.2242,-5.5761 12.098,-12.95 17.762,-20.207 4.2398,-5.4322 -5.1078,-22.826 -11.094,-25.695 -3.405,-3.1947 -7.3728,-5.3926 -10.857,-5.082 -2.6991,0.24059 -8.8497,3.7286 -14.539,6.3184 1.0179,-5.8409 4.4634,-13.543 5.4551,-18.553 0.82023,-4.1433 -3.0686,-9.4725 -8.541,-12.648 -6.7154,-4.813 -18.332,-8.7932 -25.084,-6.9707 -5.2633,1.4208 -8.0835,9.5429 -11.031,15.479 -0.60419,-6.3884 -0.39967,-13.725 -2.4668,-16.803 -0.57884,-0.86173 -1.3957,-1.5773 -2.3828,-2.1602 -3.2931,-2.8555 -15.532,-4.8233 -21.453,-4.875 z m 14.451,62.176 c 3.2108,0 6.2381,0.33568 9.1016,0.94531 17.352,10.396 25.471,33.35 25.471,53.596 0,23.817 -24.755,60.256 -55.65,60.256 -2.7635,0 -5.3927,-0.279 -7.8984,-0.79102 -18.501,-11.07 -27.06,-36.119 -27.26,-49.053 -0.40216,-26.074 21.367,-64.953 56.236,-64.953 z"
         filter="url(#filter852)"
         opacity="0.83"
         id="path270" /><g
         transform="matrix(5.1062,0,0,5.1062,-74.094,-2.04)"
         id="g276"><path
           d="m 41.13,0.40334 c -1.1034,0.050577 -2.1933,0.77432 -2.41,1.1871 -0.73492,1.4 0.1509,4.4839 -1.1639,5.3393 -1.2072,0.78548 0.80847,-2.3943 -3.9395,-3.0625 -2.1265,-0.29927 -4.3687,1.59 -4.1748,2.9966 0.25408,1.8428 2.1647,4.3937 1.425,5.1954 -0.72552,0.78635 -4.0493,-0.41917 -5.0444,-0.51735 -1.4756,-0.14557 -4.3556,3.9502 -2.9714,5.3057 1.288,1.2613 3.5149,2.4825 3.3027,3.4707 -0.44455,2.0702 -3.4047,1.6198 -4.6855,2.5469 -0.63501,0.45961 -0.77861,4.6212 0.4668,5.5312 2.5781,1.884 4.3892,0.41861 4.459,1.4336 0.10817,1.5725 -2.1083,2.2997 -3.1758,4.2207 -0.77148,1.3883 2.8264,7.5556 5.9257,5.3572 1.1406,-0.80908 0.12991,-3.0248 0.75009,-2.0779 0.74352,1.1353 -0.40731,2.7543 -0.43945,5.1016 -0.01952,1.4256 5.1236,4.1644 6.6236,3.1644 1.5,-1 -0.21113,-4.5137 0.81589,-4.2659 1.3875,0.3347 0.64229,3.1053 1.7988,4.6973 0.55828,0.76845 4.1684,1.6896 5.0101,1.2682 1.7523,-0.87718 0.0067,-6.5468 1.3942,-6.8815 1.027,-0.24774 1.4414,1.5078 2.9414,2.5078 1.5,1 3.2415,1.5507 4.5144,0.5912 1.8746,-1.413 -1.7565,-7.6453 -1.0632,-8.8119 0.42836,-0.72086 1.5466,0.22298 3.6445,0.38281 2.1619,0.16471 4.332,-3.4925 3.5605,-4.8809 -1.0675,-1.921 -3.5992,-2.0899 -3.377,-3.6504 0.2229,-1.5653 6.0548,-2.0906 6.8589,-3.4402 2.0257,-3.3996 -0.50465,-4.157 -1.1988,-4.5212 -1.4622,-0.76705 -5.1271,0.33815 -5.4765,-1.2535 -0.23976,-1.092 3.9503,-3.162 5.0595,-4.5831 0.90598,-1.1608 -1.6652,-4.6456 -3.5275,-4.4796 -0.99605,0.088786 -4.3949,2.4422 -5.0594,1.6037 -0.6944,-0.87625 1.6691,-3.036 2.5687,-4.8909 0.61962,-1.2777 -3.8001,-3.5105 -5.8734,-2.9509 -1.7499,0.47237 -2.1205,4.7368 -3.5762,4.2441 -1.4208,-0.4809 1.3084,-3.7149 0.57319,-4.8095 -0.4456,-0.66338 -3.433,-1.1191 -4.5364,-1.0685 z m 0.70542,11.251 c 6.2604,0 9.123,6.2809 9.123,11.604 0,4.6643 -4.8479,11.801 -10.898,11.801 -6.342,0 -9.1872,-7.3723 -9.2383,-10.684 -0.07876,-5.1064 4.1848,-12.721 11.014,-12.721 z"
           fill="#99accb"
           id="path272" /><path
           d="m 43.315,0.9455 c -1.1034,0.050577 -1.9629,0.10604 -2.3652,0.7832 -0.80757,1.3593 -0.25631,5.67 -1.041,6.123 -1.2473,0.72012 -2.4057,-2.6782 -3.9395,-3.0625 -2.083,-0.52195 -4.6668,1.779 -4.3809,3.1699 0.28284,1.3758 1.8523,4.0226 1.084,4.8848 -0.94133,1.0563 -3.8374,-0.49034 -4.8374,-0.49034 -1.118,0 -3.5374,4.2553 -2.6314,5.4161 1.1092,1.4212 3.4635,2.6773 3.2037,3.6112 -0.56755,2.0399 -3.3056,1.4793 -4.5865,2.4064 -0.63501,0.45961 -0.88492,4.7882 0.4668,5.5312 1.3767,0.75682 4.3892,0.41861 4.459,1.4336 0.10817,1.5725 -2.1083,2.2997 -3.1758,4.2207 -0.77148,1.3883 0.91625,4.8014 3.0781,4.6367 2.0979,-0.15983 2.9775,-2.3044 3.5977,-1.3574 0.74352,1.1353 -0.40731,2.7543 -0.43945,5.1016 -0.01952,1.4256 3.2988,3.2754 4.7988,2.2754 1.5,-1 1.6136,-3.6247 2.6406,-3.377 1.3875,0.3347 0.64229,3.1053 1.7988,4.6973 0.55828,0.76845 4.0721,0.44475 4.4727,-0.23828 0.99126,-1.6904 0.54413,-5.0403 1.9316,-5.375 1.027,-0.24774 1.4414,1.5078 2.9414,2.5078 1.5,1 4.6543,-1.7228 4.6348,-3.1484 -0.03214,-2.3473 -1.8768,-3.9056 -1.1836,-5.0723 0.42836,-0.72086 1.5466,0.22298 3.6445,0.38281 2.1619,0.16471 4.332,-3.4925 3.5605,-4.8809 -1.0675,-1.921 -3.5992,-2.0899 -3.377,-3.6504 0.2229,-1.5653 3.0667,-1.4033 4.4434,-2.1602 1.3517,-0.74308 1.1063,-5.4483 0.41211,-5.8125 -1.4622,-0.76705 -4.3224,0.34947 -4.6719,-1.2422 -0.23976,-1.092 2.3693,-2.5359 3.4785,-3.957 0.90598,-1.1608 -1.3566,-5.1133 -2.4746,-5.1133 -1,0 -3.8667,2.4499 -4.5312,1.6113 -0.6944,-0.87625 0.64121,-3.4745 0.92773,-4.9219 0.27575,-1.393 -2.1592,-3.4796 -4.2324,-2.9199 -1.7499,0.47237 -2.1205,4.7368 -3.5762,4.2441 -1.4208,-0.4809 -0.68467,-4.3312 -1.4199,-5.4258 -0.4456,-0.66338 -1.6076,-0.88261 -2.7109,-0.83203 z m 0.87305,11.631 c 6.2604,0 9.123,6.2809 9.123,11.604 0,4.6643 -4.8479,11.801 -10.898,11.801 -6.342,0 -9.1872,-7.3723 -9.2383,-10.684 -0.07876,-5.1064 4.1848,-12.721 11.014,-12.721 z"
           fill="url(#linearGradient1070)"
           id="path274"
           style="fill:url(#linearGradient1070)" /></g></g></g></svg>
